%TF.GenerationSoftware,KiCad,Pcbnew,7.0.9*%
%TF.CreationDate,2023-12-03T00:18:19-03:00*%
%TF.ProjectId,E3,45332e6b-6963-4616-945f-706362585858,rev?*%
%TF.SameCoordinates,Original*%
%TF.FileFunction,Copper,L4,Bot*%
%TF.FilePolarity,Positive*%
%FSLAX46Y46*%
G04 Gerber Fmt 4.6, Leading zero omitted, Abs format (unit mm)*
G04 Created by KiCad (PCBNEW 7.0.9) date 2023-12-03 00:18:19*
%MOMM*%
%LPD*%
G01*
G04 APERTURE LIST*
%TA.AperFunction,ComponentPad*%
%ADD10C,1.400000*%
%TD*%
%TA.AperFunction,ComponentPad*%
%ADD11R,1.500000X1.500000*%
%TD*%
%TA.AperFunction,ComponentPad*%
%ADD12C,1.500000*%
%TD*%
%TA.AperFunction,ComponentPad*%
%ADD13O,2.000000X3.000000*%
%TD*%
%TA.AperFunction,ComponentPad*%
%ADD14R,3.000000X2.000000*%
%TD*%
%TA.AperFunction,ComponentPad*%
%ADD15O,3.000000X2.000000*%
%TD*%
%TA.AperFunction,ComponentPad*%
%ADD16R,1.350000X1.350000*%
%TD*%
%TA.AperFunction,ComponentPad*%
%ADD17O,1.350000X1.350000*%
%TD*%
%TA.AperFunction,Conductor*%
%ADD18C,0.800000*%
%TD*%
G04 APERTURE END LIST*
D10*
%TO.P,REF\u002A\u002A,1*%
%TO.N,N/C*%
X157480000Y-45720000D03*
%TD*%
%TO.P,REF\u002A\u002A,1*%
%TO.N,N/C*%
X83820000Y-43180000D03*
%TD*%
D11*
%TO.P,U3,1,VDD*%
%TO.N,Net-(BT1-+)*%
X165100000Y-71120000D03*
D12*
%TO.P,U3,2,DATA*%
%TO.N,Net-(U1-PB1)*%
X165100000Y-73660000D03*
%TO.P,U3,3,NC*%
%TO.N,unconnected-(U3-NC-Pad3)*%
X165100000Y-76200000D03*
%TO.P,U3,4,GND*%
%TO.N,Earth*%
X165100000Y-78740000D03*
%TD*%
D11*
%TO.P,U2,1,VDD*%
%TO.N,Net-(BT1-+)*%
X139700000Y-91440000D03*
D12*
%TO.P,U2,2,DATA*%
%TO.N,Net-(U1-PB0)*%
X142240000Y-91440000D03*
%TO.P,U2,3,NC*%
%TO.N,unconnected-(U2-NC-Pad3)*%
X144780000Y-91440000D03*
%TO.P,U2,4,GND*%
%TO.N,Earth*%
X147320000Y-91440000D03*
%TD*%
D13*
%TO.P,K3,11*%
%TO.N,Net-(H4-Pad1)*%
X112290000Y-92650000D03*
X112290000Y-85150000D03*
%TO.P,K3,12*%
%TO.N,Net-(K3-Pad12)*%
X107250000Y-92650000D03*
X107250000Y-85150000D03*
%TO.P,K3,14*%
%TO.N,Net-(H3-Pad1)*%
X117330000Y-92650000D03*
X117330000Y-85150000D03*
D14*
%TO.P,K3,A1*%
%TO.N,Net-(U1-PC5)*%
X91990000Y-92650000D03*
D15*
%TO.P,K3,A2*%
%TO.N,Net-(BT1--)*%
X91990000Y-85150000D03*
%TD*%
D13*
%TO.P,K2,11*%
%TO.N,Net-(H2-Pad1)*%
X112290000Y-72330000D03*
X112290000Y-64830000D03*
%TO.P,K2,12*%
%TO.N,Net-(K2-Pad12)*%
X107250000Y-72330000D03*
X107250000Y-64830000D03*
%TO.P,K2,14*%
%TO.N,Net-(H1-Pad1)*%
X117330000Y-72330000D03*
X117330000Y-64830000D03*
D14*
%TO.P,K2,A1*%
%TO.N,Net-(U1-PC3)*%
X91990000Y-72330000D03*
D15*
%TO.P,K2,A2*%
%TO.N,Net-(BT1--)*%
X91990000Y-64830000D03*
%TD*%
D13*
%TO.P,K1,11*%
%TO.N,Net-(H6-Pad1)*%
X112290000Y-52010000D03*
X112290000Y-44510000D03*
%TO.P,K1,12*%
%TO.N,Net-(K1-Pad12)*%
X107250000Y-52010000D03*
X107250000Y-44510000D03*
%TO.P,K1,14*%
%TO.N,Net-(H5-Pad1)*%
X117330000Y-52010000D03*
X117330000Y-44510000D03*
D14*
%TO.P,K1,A1*%
%TO.N,Net-(U1-PC4)*%
X91990000Y-52010000D03*
D15*
%TO.P,K1,A2*%
%TO.N,Net-(BT1--)*%
X91990000Y-44510000D03*
%TD*%
D16*
%TO.P,J5,1,Pin_1*%
%TO.N,Earth*%
X152400000Y-71120000D03*
D17*
%TO.P,J5,2,Pin_2*%
%TO.N,Net-(BT1-+)*%
X152400000Y-69120000D03*
%TD*%
D16*
%TO.P,J2,1,Pin_1*%
%TO.N,Net-(BT1-+)*%
X165100000Y-87440000D03*
D17*
%TO.P,J2,2,Pin_2*%
%TO.N,Earth*%
X165100000Y-89440000D03*
%TO.P,J2,3,Pin_3*%
%TO.N,Net-(J2-Pin_3)*%
X165100000Y-91440000D03*
%TO.P,J2,4,Pin_4*%
%TO.N,unconnected-(J2-Pin_4-Pad4)*%
X165100000Y-93440000D03*
%TD*%
D18*
%TO.N,Net-(U1-PC5)*%
X145194213Y-67579999D02*
X143240001Y-67579999D01*
X145780001Y-68165787D02*
X145194213Y-67579999D01*
X145780001Y-68994213D02*
X145780001Y-68165787D01*
X143240001Y-67579999D02*
X142947107Y-67872893D01*
X124224214Y-90550000D02*
X145780001Y-68994213D01*
X94090000Y-90550000D02*
X124224214Y-90550000D01*
X91990000Y-92650000D02*
X94090000Y-90550000D01*
%TO.N,Net-(U1-PC3)*%
X129540000Y-71120000D02*
X142240000Y-71120000D01*
X128650000Y-70230000D02*
X129540000Y-71120000D01*
X94090000Y-70230000D02*
X128650000Y-70230000D01*
X142240000Y-71120000D02*
X144780000Y-68580000D01*
X91990000Y-72330000D02*
X94090000Y-70230000D01*
%TO.N,Net-(U1-PC4)*%
X136390000Y-62730000D02*
X142240000Y-68580000D01*
X102710000Y-62730000D02*
X136390000Y-62730000D01*
X91990000Y-52010000D02*
X102710000Y-62730000D01*
%TO.N,Net-(U1-PB1)*%
X144780000Y-73660000D02*
X143240000Y-75200000D01*
X149860000Y-73660000D02*
X144780000Y-73660000D01*
X143240000Y-75200000D02*
X143240000Y-78740000D01*
X165100000Y-73660000D02*
X149860000Y-73660000D01*
%TO.N,Net-(J2-Pin_3)*%
X149860000Y-76200000D02*
X147320000Y-76200000D01*
X165100000Y-91440000D02*
X149860000Y-76200000D01*
%TO.N,Net-(U1-PB0)*%
X142240000Y-91440000D02*
X142240000Y-76200000D01*
%TD*%
M02*
