%TF.GenerationSoftware,KiCad,Pcbnew,7.0.9*%
%TF.CreationDate,2023-12-03T00:18:19-03:00*%
%TF.ProjectId,E3,45332e6b-6963-4616-945f-706362585858,rev?*%
%TF.SameCoordinates,Original*%
%TF.FileFunction,Copper,L1,Top*%
%TF.FilePolarity,Positive*%
%FSLAX46Y46*%
G04 Gerber Fmt 4.6, Leading zero omitted, Abs format (unit mm)*
G04 Created by KiCad (PCBNEW 7.0.9) date 2023-12-03 00:18:19*
%MOMM*%
%LPD*%
G01*
G04 APERTURE LIST*
%TA.AperFunction,ComponentPad*%
%ADD10C,1.400000*%
%TD*%
%TA.AperFunction,ComponentPad*%
%ADD11R,1.500000X1.500000*%
%TD*%
%TA.AperFunction,ComponentPad*%
%ADD12C,1.500000*%
%TD*%
%TA.AperFunction,SMDPad,CuDef*%
%ADD13R,1.600000X0.550000*%
%TD*%
%TA.AperFunction,SMDPad,CuDef*%
%ADD14R,0.550000X1.600000*%
%TD*%
%TA.AperFunction,ComponentPad*%
%ADD15O,2.000000X3.000000*%
%TD*%
%TA.AperFunction,ComponentPad*%
%ADD16R,3.000000X2.000000*%
%TD*%
%TA.AperFunction,ComponentPad*%
%ADD17O,3.000000X2.000000*%
%TD*%
%TA.AperFunction,ComponentPad*%
%ADD18R,1.350000X1.350000*%
%TD*%
%TA.AperFunction,ComponentPad*%
%ADD19O,1.350000X1.350000*%
%TD*%
%TA.AperFunction,SMDPad,CuDef*%
%ADD20R,1.000000X1.450000*%
%TD*%
%TA.AperFunction,Conductor*%
%ADD21C,0.800000*%
%TD*%
G04 APERTURE END LIST*
D10*
%TO.P,REF\u002A\u002A,1*%
%TO.N,N/C*%
X157480000Y-45720000D03*
%TD*%
%TO.P,REF\u002A\u002A,1*%
%TO.N,N/C*%
X83820000Y-43180000D03*
%TD*%
D11*
%TO.P,U3,1,VDD*%
%TO.N,Net-(BT1-+)*%
X165100000Y-71120000D03*
D12*
%TO.P,U3,2,DATA*%
%TO.N,Net-(U1-PB1)*%
X165100000Y-73660000D03*
%TO.P,U3,3,NC*%
%TO.N,unconnected-(U3-NC-Pad3)*%
X165100000Y-76200000D03*
%TO.P,U3,4,GND*%
%TO.N,Earth*%
X165100000Y-78740000D03*
%TD*%
D11*
%TO.P,U2,1,VDD*%
%TO.N,Net-(BT1-+)*%
X139700000Y-91440000D03*
D12*
%TO.P,U2,2,DATA*%
%TO.N,Net-(U1-PB0)*%
X142240000Y-91440000D03*
%TO.P,U2,3,NC*%
%TO.N,unconnected-(U2-NC-Pad3)*%
X144780000Y-91440000D03*
%TO.P,U2,4,GND*%
%TO.N,Earth*%
X147320000Y-91440000D03*
%TD*%
D13*
%TO.P,U1,1,PD3*%
%TO.N,unconnected-(U1-PD3-Pad1)*%
X137730000Y-70030000D03*
%TO.P,U1,2,PD4*%
%TO.N,unconnected-(U1-PD4-Pad2)*%
X137730000Y-70830000D03*
%TO.P,U1,3,GND*%
%TO.N,Net-(BT1--)*%
X137730000Y-71630000D03*
%TO.P,U1,4,VCC*%
%TO.N,Net-(BT1-+)*%
X137730000Y-72430000D03*
%TO.P,U1,5,GND*%
%TO.N,Net-(BT1--)*%
X137730000Y-73230000D03*
%TO.P,U1,6,VCC*%
%TO.N,Net-(BT1-+)*%
X137730000Y-74030000D03*
%TO.P,U1,7,XTAL1/PB6*%
%TO.N,unconnected-(U1-XTAL1{slash}PB6-Pad7)*%
X137730000Y-74830000D03*
%TO.P,U1,8,XTAL2/PB7*%
%TO.N,unconnected-(U1-XTAL2{slash}PB7-Pad8)*%
X137730000Y-75630000D03*
D14*
%TO.P,U1,9,PD5*%
%TO.N,unconnected-(U1-PD5-Pad9)*%
X139180000Y-77080000D03*
%TO.P,U1,10,PD6*%
%TO.N,unconnected-(U1-PD6-Pad10)*%
X139980000Y-77080000D03*
%TO.P,U1,11,PD7*%
%TO.N,unconnected-(U1-PD7-Pad11)*%
X140780000Y-77080000D03*
%TO.P,U1,12,PB0*%
%TO.N,Net-(U1-PB0)*%
X141580000Y-77080000D03*
%TO.P,U1,13,PB1*%
%TO.N,Net-(U1-PB1)*%
X142380000Y-77080000D03*
%TO.P,U1,14,PB2*%
%TO.N,unconnected-(U1-PB2-Pad14)*%
X143180000Y-77080000D03*
%TO.P,U1,15,PB3*%
%TO.N,unconnected-(U1-PB3-Pad15)*%
X143980000Y-77080000D03*
%TO.P,U1,16,PB4*%
%TO.N,Earth*%
X144780000Y-77080000D03*
D13*
%TO.P,U1,17,PB5*%
%TO.N,Net-(J2-Pin_3)*%
X146230000Y-75630000D03*
%TO.P,U1,18,AVCC*%
%TO.N,unconnected-(U1-AVCC-Pad18)*%
X146230000Y-74830000D03*
%TO.P,U1,19,ADC6*%
%TO.N,unconnected-(U1-ADC6-Pad19)*%
X146230000Y-74030000D03*
%TO.P,U1,20,AREF*%
%TO.N,unconnected-(U1-AREF-Pad20)*%
X146230000Y-73230000D03*
%TO.P,U1,21,GND*%
%TO.N,Net-(BT1--)*%
X146230000Y-72430000D03*
%TO.P,U1,22,ADC7*%
%TO.N,unconnected-(U1-ADC7-Pad22)*%
X146230000Y-71630000D03*
%TO.P,U1,23,PC0*%
%TO.N,unconnected-(U1-PC0-Pad23)*%
X146230000Y-70830000D03*
%TO.P,U1,24,PC1*%
%TO.N,unconnected-(U1-PC1-Pad24)*%
X146230000Y-70030000D03*
D14*
%TO.P,U1,25,PC2*%
%TO.N,Net-(J1-Pin_1)*%
X144780000Y-68580000D03*
%TO.P,U1,26,PC3*%
%TO.N,Net-(U1-PC3)*%
X143980000Y-68580000D03*
%TO.P,U1,27,PC4*%
%TO.N,Net-(U1-PC4)*%
X143180000Y-68580000D03*
%TO.P,U1,28,PC5*%
%TO.N,Net-(U1-PC5)*%
X142380000Y-68580000D03*
%TO.P,U1,29,~{RESET}/PC6*%
%TO.N,unconnected-(U1-~{RESET}{slash}PC6-Pad29)*%
X141580000Y-68580000D03*
%TO.P,U1,30,PD0*%
%TO.N,unconnected-(U1-PD0-Pad30)*%
X140780000Y-68580000D03*
%TO.P,U1,31,PD1*%
%TO.N,unconnected-(U1-PD1-Pad31)*%
X139980000Y-68580000D03*
%TO.P,U1,32,PD2*%
%TO.N,unconnected-(U1-PD2-Pad32)*%
X139180000Y-68580000D03*
%TD*%
D15*
%TO.P,K3,11*%
%TO.N,Net-(H4-Pad1)*%
X112290000Y-92650000D03*
X112290000Y-85150000D03*
%TO.P,K3,12*%
%TO.N,Net-(K3-Pad12)*%
X107250000Y-92650000D03*
X107250000Y-85150000D03*
%TO.P,K3,14*%
%TO.N,Net-(H3-Pad1)*%
X117330000Y-92650000D03*
X117330000Y-85150000D03*
D16*
%TO.P,K3,A1*%
%TO.N,Net-(U1-PC5)*%
X91990000Y-92650000D03*
D17*
%TO.P,K3,A2*%
%TO.N,Net-(BT1--)*%
X91990000Y-85150000D03*
%TD*%
D15*
%TO.P,K2,11*%
%TO.N,Net-(H2-Pad1)*%
X112290000Y-72330000D03*
X112290000Y-64830000D03*
%TO.P,K2,12*%
%TO.N,Net-(K2-Pad12)*%
X107250000Y-72330000D03*
X107250000Y-64830000D03*
%TO.P,K2,14*%
%TO.N,Net-(H1-Pad1)*%
X117330000Y-72330000D03*
X117330000Y-64830000D03*
D16*
%TO.P,K2,A1*%
%TO.N,Net-(U1-PC3)*%
X91990000Y-72330000D03*
D17*
%TO.P,K2,A2*%
%TO.N,Net-(BT1--)*%
X91990000Y-64830000D03*
%TD*%
D15*
%TO.P,K1,11*%
%TO.N,Net-(H6-Pad1)*%
X112290000Y-52010000D03*
X112290000Y-44510000D03*
%TO.P,K1,12*%
%TO.N,Net-(K1-Pad12)*%
X107250000Y-52010000D03*
X107250000Y-44510000D03*
%TO.P,K1,14*%
%TO.N,Net-(H5-Pad1)*%
X117330000Y-52010000D03*
X117330000Y-44510000D03*
D16*
%TO.P,K1,A1*%
%TO.N,Net-(U1-PC4)*%
X91990000Y-52010000D03*
D17*
%TO.P,K1,A2*%
%TO.N,Net-(BT1--)*%
X91990000Y-44510000D03*
%TD*%
D18*
%TO.P,J5,1,Pin_1*%
%TO.N,Earth*%
X152400000Y-71120000D03*
D19*
%TO.P,J5,2,Pin_2*%
%TO.N,Net-(BT1-+)*%
X152400000Y-69120000D03*
%TD*%
D18*
%TO.P,J2,1,Pin_1*%
%TO.N,Net-(BT1-+)*%
X165100000Y-87440000D03*
D19*
%TO.P,J2,2,Pin_2*%
%TO.N,Earth*%
X165100000Y-89440000D03*
%TO.P,J2,3,Pin_3*%
%TO.N,Net-(J2-Pin_3)*%
X165100000Y-91440000D03*
%TO.P,J2,4,Pin_4*%
%TO.N,unconnected-(J2-Pin_4-Pad4)*%
X165100000Y-93440000D03*
%TD*%
D20*
%TO.P,J1,1,Pin_1*%
%TO.N,Net-(J1-Pin_1)*%
X147320000Y-53340000D03*
X147320000Y-58490000D03*
%TO.P,J1,2,Pin_2*%
%TO.N,Net-(BT1-+)*%
X149020000Y-58490000D03*
X149020000Y-53340000D03*
%TD*%
D21*
%TO.N,Net-(BT1-+)*%
X136330000Y-69155000D02*
X136330000Y-72505000D01*
X148420000Y-59815000D02*
X145670000Y-59815000D01*
X149020000Y-59215000D02*
X148420000Y-59815000D01*
X149020000Y-58490000D02*
X149020000Y-59215000D01*
X145670000Y-59815000D02*
X136330000Y-69155000D01*
%TD*%
M02*
