%TF.GenerationSoftware,KiCad,Pcbnew,7.0.9*%
%TF.CreationDate,2023-12-03T00:18:19-03:00*%
%TF.ProjectId,E3,45332e6b-6963-4616-945f-706362585858,rev?*%
%TF.SameCoordinates,Original*%
%TF.FileFunction,Legend,Top*%
%TF.FilePolarity,Positive*%
%FSLAX46Y46*%
G04 Gerber Fmt 4.6, Leading zero omitted, Abs format (unit mm)*
G04 Created by KiCad (PCBNEW 7.0.9) date 2023-12-03 00:18:19*
%MOMM*%
%LPD*%
G01*
G04 APERTURE LIST*
%ADD10C,0.150000*%
%ADD11C,0.120000*%
%ADD12C,0.100000*%
G04 APERTURE END LIST*
D10*
X156146666Y-47974819D02*
X155813333Y-47498628D01*
X155575238Y-47974819D02*
X155575238Y-46974819D01*
X155575238Y-46974819D02*
X155956190Y-46974819D01*
X155956190Y-46974819D02*
X156051428Y-47022438D01*
X156051428Y-47022438D02*
X156099047Y-47070057D01*
X156099047Y-47070057D02*
X156146666Y-47165295D01*
X156146666Y-47165295D02*
X156146666Y-47308152D01*
X156146666Y-47308152D02*
X156099047Y-47403390D01*
X156099047Y-47403390D02*
X156051428Y-47451009D01*
X156051428Y-47451009D02*
X155956190Y-47498628D01*
X155956190Y-47498628D02*
X155575238Y-47498628D01*
X156575238Y-47451009D02*
X156908571Y-47451009D01*
X157051428Y-47974819D02*
X156575238Y-47974819D01*
X156575238Y-47974819D02*
X156575238Y-46974819D01*
X156575238Y-46974819D02*
X157051428Y-46974819D01*
X157813333Y-47451009D02*
X157480000Y-47451009D01*
X157480000Y-47974819D02*
X157480000Y-46974819D01*
X157480000Y-46974819D02*
X157956190Y-46974819D01*
X158480000Y-46974819D02*
X158480000Y-47212914D01*
X158241905Y-47117676D02*
X158480000Y-47212914D01*
X158480000Y-47212914D02*
X158718095Y-47117676D01*
X158337143Y-47403390D02*
X158480000Y-47212914D01*
X158480000Y-47212914D02*
X158622857Y-47403390D01*
X159241905Y-46974819D02*
X159241905Y-47212914D01*
X159003810Y-47117676D02*
X159241905Y-47212914D01*
X159241905Y-47212914D02*
X159480000Y-47117676D01*
X159099048Y-47403390D02*
X159241905Y-47212914D01*
X159241905Y-47212914D02*
X159384762Y-47403390D01*
X82486666Y-45434819D02*
X82153333Y-44958628D01*
X81915238Y-45434819D02*
X81915238Y-44434819D01*
X81915238Y-44434819D02*
X82296190Y-44434819D01*
X82296190Y-44434819D02*
X82391428Y-44482438D01*
X82391428Y-44482438D02*
X82439047Y-44530057D01*
X82439047Y-44530057D02*
X82486666Y-44625295D01*
X82486666Y-44625295D02*
X82486666Y-44768152D01*
X82486666Y-44768152D02*
X82439047Y-44863390D01*
X82439047Y-44863390D02*
X82391428Y-44911009D01*
X82391428Y-44911009D02*
X82296190Y-44958628D01*
X82296190Y-44958628D02*
X81915238Y-44958628D01*
X82915238Y-44911009D02*
X83248571Y-44911009D01*
X83391428Y-45434819D02*
X82915238Y-45434819D01*
X82915238Y-45434819D02*
X82915238Y-44434819D01*
X82915238Y-44434819D02*
X83391428Y-44434819D01*
X84153333Y-44911009D02*
X83820000Y-44911009D01*
X83820000Y-45434819D02*
X83820000Y-44434819D01*
X83820000Y-44434819D02*
X84296190Y-44434819D01*
X84820000Y-44434819D02*
X84820000Y-44672914D01*
X84581905Y-44577676D02*
X84820000Y-44672914D01*
X84820000Y-44672914D02*
X85058095Y-44577676D01*
X84677143Y-44863390D02*
X84820000Y-44672914D01*
X84820000Y-44672914D02*
X84962857Y-44863390D01*
X85581905Y-44434819D02*
X85581905Y-44672914D01*
X85343810Y-44577676D02*
X85581905Y-44672914D01*
X85581905Y-44672914D02*
X85820000Y-44577676D01*
X85439048Y-44863390D02*
X85581905Y-44672914D01*
X85581905Y-44672914D02*
X85724762Y-44863390D01*
X163338095Y-67074819D02*
X163338095Y-67884342D01*
X163338095Y-67884342D02*
X163385714Y-67979580D01*
X163385714Y-67979580D02*
X163433333Y-68027200D01*
X163433333Y-68027200D02*
X163528571Y-68074819D01*
X163528571Y-68074819D02*
X163719047Y-68074819D01*
X163719047Y-68074819D02*
X163814285Y-68027200D01*
X163814285Y-68027200D02*
X163861904Y-67979580D01*
X163861904Y-67979580D02*
X163909523Y-67884342D01*
X163909523Y-67884342D02*
X163909523Y-67074819D01*
X164290476Y-67074819D02*
X164909523Y-67074819D01*
X164909523Y-67074819D02*
X164576190Y-67455771D01*
X164576190Y-67455771D02*
X164719047Y-67455771D01*
X164719047Y-67455771D02*
X164814285Y-67503390D01*
X164814285Y-67503390D02*
X164861904Y-67551009D01*
X164861904Y-67551009D02*
X164909523Y-67646247D01*
X164909523Y-67646247D02*
X164909523Y-67884342D01*
X164909523Y-67884342D02*
X164861904Y-67979580D01*
X164861904Y-67979580D02*
X164814285Y-68027200D01*
X164814285Y-68027200D02*
X164719047Y-68074819D01*
X164719047Y-68074819D02*
X164433333Y-68074819D01*
X164433333Y-68074819D02*
X164338095Y-68027200D01*
X164338095Y-68027200D02*
X164290476Y-67979580D01*
X135654819Y-93201904D02*
X136464342Y-93201904D01*
X136464342Y-93201904D02*
X136559580Y-93154285D01*
X136559580Y-93154285D02*
X136607200Y-93106666D01*
X136607200Y-93106666D02*
X136654819Y-93011428D01*
X136654819Y-93011428D02*
X136654819Y-92820952D01*
X136654819Y-92820952D02*
X136607200Y-92725714D01*
X136607200Y-92725714D02*
X136559580Y-92678095D01*
X136559580Y-92678095D02*
X136464342Y-92630476D01*
X136464342Y-92630476D02*
X135654819Y-92630476D01*
X135750057Y-92201904D02*
X135702438Y-92154285D01*
X135702438Y-92154285D02*
X135654819Y-92059047D01*
X135654819Y-92059047D02*
X135654819Y-91820952D01*
X135654819Y-91820952D02*
X135702438Y-91725714D01*
X135702438Y-91725714D02*
X135750057Y-91678095D01*
X135750057Y-91678095D02*
X135845295Y-91630476D01*
X135845295Y-91630476D02*
X135940533Y-91630476D01*
X135940533Y-91630476D02*
X136083390Y-91678095D01*
X136083390Y-91678095D02*
X136654819Y-92249523D01*
X136654819Y-92249523D02*
X136654819Y-91630476D01*
X141218095Y-66234819D02*
X141218095Y-67044342D01*
X141218095Y-67044342D02*
X141265714Y-67139580D01*
X141265714Y-67139580D02*
X141313333Y-67187200D01*
X141313333Y-67187200D02*
X141408571Y-67234819D01*
X141408571Y-67234819D02*
X141599047Y-67234819D01*
X141599047Y-67234819D02*
X141694285Y-67187200D01*
X141694285Y-67187200D02*
X141741904Y-67139580D01*
X141741904Y-67139580D02*
X141789523Y-67044342D01*
X141789523Y-67044342D02*
X141789523Y-66234819D01*
X142789523Y-67234819D02*
X142218095Y-67234819D01*
X142503809Y-67234819D02*
X142503809Y-66234819D01*
X142503809Y-66234819D02*
X142408571Y-66377676D01*
X142408571Y-66377676D02*
X142313333Y-66472914D01*
X142313333Y-66472914D02*
X142218095Y-66520533D01*
X103751905Y-81604819D02*
X103751905Y-80604819D01*
X104323333Y-81604819D02*
X103894762Y-81033390D01*
X104323333Y-80604819D02*
X103751905Y-81176247D01*
X104656667Y-80604819D02*
X105275714Y-80604819D01*
X105275714Y-80604819D02*
X104942381Y-80985771D01*
X104942381Y-80985771D02*
X105085238Y-80985771D01*
X105085238Y-80985771D02*
X105180476Y-81033390D01*
X105180476Y-81033390D02*
X105228095Y-81081009D01*
X105228095Y-81081009D02*
X105275714Y-81176247D01*
X105275714Y-81176247D02*
X105275714Y-81414342D01*
X105275714Y-81414342D02*
X105228095Y-81509580D01*
X105228095Y-81509580D02*
X105180476Y-81557200D01*
X105180476Y-81557200D02*
X105085238Y-81604819D01*
X105085238Y-81604819D02*
X104799524Y-81604819D01*
X104799524Y-81604819D02*
X104704286Y-81557200D01*
X104704286Y-81557200D02*
X104656667Y-81509580D01*
X103751905Y-61284819D02*
X103751905Y-60284819D01*
X104323333Y-61284819D02*
X103894762Y-60713390D01*
X104323333Y-60284819D02*
X103751905Y-60856247D01*
X104704286Y-60380057D02*
X104751905Y-60332438D01*
X104751905Y-60332438D02*
X104847143Y-60284819D01*
X104847143Y-60284819D02*
X105085238Y-60284819D01*
X105085238Y-60284819D02*
X105180476Y-60332438D01*
X105180476Y-60332438D02*
X105228095Y-60380057D01*
X105228095Y-60380057D02*
X105275714Y-60475295D01*
X105275714Y-60475295D02*
X105275714Y-60570533D01*
X105275714Y-60570533D02*
X105228095Y-60713390D01*
X105228095Y-60713390D02*
X104656667Y-61284819D01*
X104656667Y-61284819D02*
X105275714Y-61284819D01*
X103751905Y-40964819D02*
X103751905Y-39964819D01*
X104323333Y-40964819D02*
X103894762Y-40393390D01*
X104323333Y-39964819D02*
X103751905Y-40536247D01*
X105275714Y-40964819D02*
X104704286Y-40964819D01*
X104990000Y-40964819D02*
X104990000Y-39964819D01*
X104990000Y-39964819D02*
X104894762Y-40107676D01*
X104894762Y-40107676D02*
X104799524Y-40202914D01*
X104799524Y-40202914D02*
X104704286Y-40250533D01*
X152066666Y-72634819D02*
X152066666Y-73349104D01*
X152066666Y-73349104D02*
X152019047Y-73491961D01*
X152019047Y-73491961D02*
X151923809Y-73587200D01*
X151923809Y-73587200D02*
X151780952Y-73634819D01*
X151780952Y-73634819D02*
X151685714Y-73634819D01*
X153019047Y-72634819D02*
X152542857Y-72634819D01*
X152542857Y-72634819D02*
X152495238Y-73111009D01*
X152495238Y-73111009D02*
X152542857Y-73063390D01*
X152542857Y-73063390D02*
X152638095Y-73015771D01*
X152638095Y-73015771D02*
X152876190Y-73015771D01*
X152876190Y-73015771D02*
X152971428Y-73063390D01*
X152971428Y-73063390D02*
X153019047Y-73111009D01*
X153019047Y-73111009D02*
X153066666Y-73206247D01*
X153066666Y-73206247D02*
X153066666Y-73444342D01*
X153066666Y-73444342D02*
X153019047Y-73539580D01*
X153019047Y-73539580D02*
X152971428Y-73587200D01*
X152971428Y-73587200D02*
X152876190Y-73634819D01*
X152876190Y-73634819D02*
X152638095Y-73634819D01*
X152638095Y-73634819D02*
X152542857Y-73587200D01*
X152542857Y-73587200D02*
X152495238Y-73539580D01*
X164766666Y-84834819D02*
X164766666Y-85549104D01*
X164766666Y-85549104D02*
X164719047Y-85691961D01*
X164719047Y-85691961D02*
X164623809Y-85787200D01*
X164623809Y-85787200D02*
X164480952Y-85834819D01*
X164480952Y-85834819D02*
X164385714Y-85834819D01*
X165195238Y-84930057D02*
X165242857Y-84882438D01*
X165242857Y-84882438D02*
X165338095Y-84834819D01*
X165338095Y-84834819D02*
X165576190Y-84834819D01*
X165576190Y-84834819D02*
X165671428Y-84882438D01*
X165671428Y-84882438D02*
X165719047Y-84930057D01*
X165719047Y-84930057D02*
X165766666Y-85025295D01*
X165766666Y-85025295D02*
X165766666Y-85120533D01*
X165766666Y-85120533D02*
X165719047Y-85263390D01*
X165719047Y-85263390D02*
X165147619Y-85834819D01*
X165147619Y-85834819D02*
X165766666Y-85834819D01*
X143124819Y-56248333D02*
X143839104Y-56248333D01*
X143839104Y-56248333D02*
X143981961Y-56295952D01*
X143981961Y-56295952D02*
X144077200Y-56391190D01*
X144077200Y-56391190D02*
X144124819Y-56534047D01*
X144124819Y-56534047D02*
X144124819Y-56629285D01*
X144124819Y-55248333D02*
X144124819Y-55819761D01*
X144124819Y-55534047D02*
X143124819Y-55534047D01*
X143124819Y-55534047D02*
X143267676Y-55629285D01*
X143267676Y-55629285D02*
X143362914Y-55724523D01*
X143362914Y-55724523D02*
X143410533Y-55819761D01*
X128778095Y-86154819D02*
X128778095Y-85154819D01*
X128778095Y-85631009D02*
X129349523Y-85631009D01*
X129349523Y-86154819D02*
X129349523Y-85154819D01*
X130254285Y-85154819D02*
X130063809Y-85154819D01*
X130063809Y-85154819D02*
X129968571Y-85202438D01*
X129968571Y-85202438D02*
X129920952Y-85250057D01*
X129920952Y-85250057D02*
X129825714Y-85392914D01*
X129825714Y-85392914D02*
X129778095Y-85583390D01*
X129778095Y-85583390D02*
X129778095Y-85964342D01*
X129778095Y-85964342D02*
X129825714Y-86059580D01*
X129825714Y-86059580D02*
X129873333Y-86107200D01*
X129873333Y-86107200D02*
X129968571Y-86154819D01*
X129968571Y-86154819D02*
X130159047Y-86154819D01*
X130159047Y-86154819D02*
X130254285Y-86107200D01*
X130254285Y-86107200D02*
X130301904Y-86059580D01*
X130301904Y-86059580D02*
X130349523Y-85964342D01*
X130349523Y-85964342D02*
X130349523Y-85726247D01*
X130349523Y-85726247D02*
X130301904Y-85631009D01*
X130301904Y-85631009D02*
X130254285Y-85583390D01*
X130254285Y-85583390D02*
X130159047Y-85535771D01*
X130159047Y-85535771D02*
X129968571Y-85535771D01*
X129968571Y-85535771D02*
X129873333Y-85583390D01*
X129873333Y-85583390D02*
X129825714Y-85631009D01*
X129825714Y-85631009D02*
X129778095Y-85726247D01*
X128778095Y-78534819D02*
X128778095Y-77534819D01*
X128778095Y-78011009D02*
X129349523Y-78011009D01*
X129349523Y-78534819D02*
X129349523Y-77534819D01*
X130301904Y-77534819D02*
X129825714Y-77534819D01*
X129825714Y-77534819D02*
X129778095Y-78011009D01*
X129778095Y-78011009D02*
X129825714Y-77963390D01*
X129825714Y-77963390D02*
X129920952Y-77915771D01*
X129920952Y-77915771D02*
X130159047Y-77915771D01*
X130159047Y-77915771D02*
X130254285Y-77963390D01*
X130254285Y-77963390D02*
X130301904Y-78011009D01*
X130301904Y-78011009D02*
X130349523Y-78106247D01*
X130349523Y-78106247D02*
X130349523Y-78344342D01*
X130349523Y-78344342D02*
X130301904Y-78439580D01*
X130301904Y-78439580D02*
X130254285Y-78487200D01*
X130254285Y-78487200D02*
X130159047Y-78534819D01*
X130159047Y-78534819D02*
X129920952Y-78534819D01*
X129920952Y-78534819D02*
X129825714Y-78487200D01*
X129825714Y-78487200D02*
X129778095Y-78439580D01*
X128778095Y-65834819D02*
X128778095Y-64834819D01*
X128778095Y-65311009D02*
X129349523Y-65311009D01*
X129349523Y-65834819D02*
X129349523Y-64834819D01*
X130254285Y-65168152D02*
X130254285Y-65834819D01*
X130016190Y-64787200D02*
X129778095Y-65501485D01*
X129778095Y-65501485D02*
X130397142Y-65501485D01*
X128778095Y-58214819D02*
X128778095Y-57214819D01*
X128778095Y-57691009D02*
X129349523Y-57691009D01*
X129349523Y-58214819D02*
X129349523Y-57214819D01*
X129730476Y-57214819D02*
X130349523Y-57214819D01*
X130349523Y-57214819D02*
X130016190Y-57595771D01*
X130016190Y-57595771D02*
X130159047Y-57595771D01*
X130159047Y-57595771D02*
X130254285Y-57643390D01*
X130254285Y-57643390D02*
X130301904Y-57691009D01*
X130301904Y-57691009D02*
X130349523Y-57786247D01*
X130349523Y-57786247D02*
X130349523Y-58024342D01*
X130349523Y-58024342D02*
X130301904Y-58119580D01*
X130301904Y-58119580D02*
X130254285Y-58167200D01*
X130254285Y-58167200D02*
X130159047Y-58214819D01*
X130159047Y-58214819D02*
X129873333Y-58214819D01*
X129873333Y-58214819D02*
X129778095Y-58167200D01*
X129778095Y-58167200D02*
X129730476Y-58119580D01*
X128778095Y-45514819D02*
X128778095Y-44514819D01*
X128778095Y-44991009D02*
X129349523Y-44991009D01*
X129349523Y-45514819D02*
X129349523Y-44514819D01*
X129778095Y-44610057D02*
X129825714Y-44562438D01*
X129825714Y-44562438D02*
X129920952Y-44514819D01*
X129920952Y-44514819D02*
X130159047Y-44514819D01*
X130159047Y-44514819D02*
X130254285Y-44562438D01*
X130254285Y-44562438D02*
X130301904Y-44610057D01*
X130301904Y-44610057D02*
X130349523Y-44705295D01*
X130349523Y-44705295D02*
X130349523Y-44800533D01*
X130349523Y-44800533D02*
X130301904Y-44943390D01*
X130301904Y-44943390D02*
X129730476Y-45514819D01*
X129730476Y-45514819D02*
X130349523Y-45514819D01*
X128778095Y-37894819D02*
X128778095Y-36894819D01*
X128778095Y-37371009D02*
X129349523Y-37371009D01*
X129349523Y-37894819D02*
X129349523Y-36894819D01*
X130349523Y-37894819D02*
X129778095Y-37894819D01*
X130063809Y-37894819D02*
X130063809Y-36894819D01*
X130063809Y-36894819D02*
X129968571Y-37037676D01*
X129968571Y-37037676D02*
X129873333Y-37132914D01*
X129873333Y-37132914D02*
X129778095Y-37180533D01*
D11*
%TO.C,REF\u002A\u002A*%
X158380000Y-44820000D02*
X158380000Y-44770000D01*
X158380000Y-44770000D02*
X156530000Y-44770000D01*
X158380000Y-46670000D02*
X158380000Y-44820000D01*
X156530000Y-46670000D02*
X158380000Y-46670000D01*
X156530000Y-44770000D02*
X156530000Y-46670000D01*
X84720000Y-42280000D02*
X84720000Y-42230000D01*
X84720000Y-42230000D02*
X82870000Y-42230000D01*
X84720000Y-44130000D02*
X84720000Y-42280000D01*
X82870000Y-44130000D02*
X84720000Y-44130000D01*
X82870000Y-42230000D02*
X82870000Y-44130000D01*
%TO.C,U3*%
X167980000Y-81060000D02*
X162220000Y-81060000D01*
X167980000Y-68800000D02*
X167980000Y-81060000D01*
X162230000Y-68800000D02*
X167970000Y-68800000D01*
X161940000Y-68520000D02*
X163550000Y-68520000D01*
X162220000Y-81060000D02*
X162220000Y-68810000D01*
X161940000Y-68520000D02*
X161940000Y-70520000D01*
%TO.C,U2*%
X149640000Y-88560000D02*
X149640000Y-94320000D01*
X137380000Y-88560000D02*
X149640000Y-88560000D01*
X137380000Y-94310000D02*
X137380000Y-88570000D01*
X137100000Y-94600000D02*
X137100000Y-92990000D01*
X149640000Y-94320000D02*
X137390000Y-94320000D01*
X137100000Y-94600000D02*
X139100000Y-94600000D01*
D10*
%TO.C,U1*%
X138355000Y-76455000D02*
X138680000Y-76455000D01*
X138355000Y-69205000D02*
X138355000Y-69430000D01*
X138355000Y-69205000D02*
X138680000Y-69205000D01*
X145605000Y-69205000D02*
X145280000Y-69205000D01*
X145605000Y-69205000D02*
X145605000Y-69530000D01*
X145605000Y-76455000D02*
X145605000Y-76130000D01*
X145605000Y-76455000D02*
X145280000Y-76455000D01*
X138355000Y-76455000D02*
X138355000Y-76130000D01*
X138355000Y-69430000D02*
X136930000Y-69430000D01*
D11*
%TO.C,K3*%
X89240000Y-95650000D02*
X90740000Y-95650000D01*
X97070000Y-86300000D02*
X94530000Y-86300000D01*
X97070000Y-91380000D02*
X97070000Y-86300000D01*
X95800000Y-91380000D02*
X97070000Y-91380000D01*
X118840000Y-95450000D02*
X118840000Y-82350000D01*
X89240000Y-94150000D02*
X89240000Y-95650000D01*
D12*
X94530000Y-90110000D02*
X97070000Y-88840000D01*
D11*
X95800000Y-92650000D02*
X95800000Y-91380000D01*
X118840000Y-82350000D02*
X89440000Y-82350000D01*
X89440000Y-95450000D02*
X118840000Y-95450000D01*
X89440000Y-82350000D02*
X89440000Y-95450000D01*
X94530000Y-86300000D02*
X94530000Y-91380000D01*
X94530000Y-92650000D02*
X95800000Y-92650000D01*
X95800000Y-86300000D02*
X95800000Y-85030000D01*
X95800000Y-85030000D02*
X94530000Y-85030000D01*
X94530000Y-91380000D02*
X95800000Y-91380000D01*
%TO.C,K2*%
X89240000Y-75330000D02*
X90740000Y-75330000D01*
X97070000Y-65980000D02*
X94530000Y-65980000D01*
X97070000Y-71060000D02*
X97070000Y-65980000D01*
X95800000Y-71060000D02*
X97070000Y-71060000D01*
X118840000Y-75130000D02*
X118840000Y-62030000D01*
X89240000Y-73830000D02*
X89240000Y-75330000D01*
D12*
X94530000Y-69790000D02*
X97070000Y-68520000D01*
D11*
X95800000Y-72330000D02*
X95800000Y-71060000D01*
X118840000Y-62030000D02*
X89440000Y-62030000D01*
X89440000Y-75130000D02*
X118840000Y-75130000D01*
X89440000Y-62030000D02*
X89440000Y-75130000D01*
X94530000Y-65980000D02*
X94530000Y-71060000D01*
X94530000Y-72330000D02*
X95800000Y-72330000D01*
X95800000Y-65980000D02*
X95800000Y-64710000D01*
X95800000Y-64710000D02*
X94530000Y-64710000D01*
X94530000Y-71060000D02*
X95800000Y-71060000D01*
%TO.C,K1*%
X89240000Y-55010000D02*
X90740000Y-55010000D01*
X97070000Y-45660000D02*
X94530000Y-45660000D01*
X97070000Y-50740000D02*
X97070000Y-45660000D01*
X95800000Y-50740000D02*
X97070000Y-50740000D01*
X118840000Y-54810000D02*
X118840000Y-41710000D01*
X89240000Y-53510000D02*
X89240000Y-55010000D01*
D12*
X94530000Y-49470000D02*
X97070000Y-48200000D01*
D11*
X95800000Y-52010000D02*
X95800000Y-50740000D01*
X118840000Y-41710000D02*
X89440000Y-41710000D01*
X89440000Y-54810000D02*
X118840000Y-54810000D01*
X89440000Y-41710000D02*
X89440000Y-54810000D01*
X94530000Y-45660000D02*
X94530000Y-50740000D01*
X94530000Y-52010000D02*
X95800000Y-52010000D01*
X95800000Y-45660000D02*
X95800000Y-44390000D01*
X95800000Y-44390000D02*
X94530000Y-44390000D01*
X94530000Y-50740000D02*
X95800000Y-50740000D01*
%TO.C,J5*%
X151340000Y-70120000D02*
X151340000Y-68060000D01*
X153460000Y-71120000D02*
X153460000Y-72180000D01*
X153460000Y-72180000D02*
X152400000Y-72180000D01*
X153460000Y-70120000D02*
X151340000Y-70120000D01*
X153460000Y-68060000D02*
X151340000Y-68060000D01*
X153460000Y-70120000D02*
X153460000Y-68060000D01*
%TO.C,J2*%
X166160000Y-88440000D02*
X166160000Y-94500000D01*
X164040000Y-88440000D02*
X166160000Y-88440000D01*
X164040000Y-86380000D02*
X165100000Y-86380000D01*
X164040000Y-94500000D02*
X166160000Y-94500000D01*
X164040000Y-87440000D02*
X164040000Y-86380000D01*
X164040000Y-88440000D02*
X164040000Y-94500000D01*
%TO.C,J1*%
X146320000Y-57340000D02*
X146320000Y-58265000D01*
X148445000Y-53465000D02*
X147895000Y-53465000D01*
X150020000Y-53565000D02*
X150020000Y-58265000D01*
X148445000Y-58365000D02*
X147895000Y-58365000D01*
X146320000Y-53565000D02*
X146320000Y-54490000D01*
%TD*%
M02*
