%TF.GenerationSoftware,KiCad,Pcbnew,5.1.12-84ad8e8a86~92~ubuntu16.04.1*%
%TF.CreationDate,2023-10-16T18:07:55-03:00*%
%TF.ProjectId,BlackBox,426c6163-6b42-46f7-982e-6b696361645f,rev?*%
%TF.SameCoordinates,Original*%
%TF.FileFunction,Copper,L2,Bot*%
%TF.FilePolarity,Positive*%
%FSLAX46Y46*%
G04 Gerber Fmt 4.6, Leading zero omitted, Abs format (unit mm)*
G04 Created by KiCad (PCBNEW 5.1.12-84ad8e8a86~92~ubuntu16.04.1) date 2023-10-16 18:07:55*
%MOMM*%
%LPD*%
G01*
G04 APERTURE LIST*
%TA.AperFunction,ComponentPad*%
%ADD10R,1.050000X1.500000*%
%TD*%
%TA.AperFunction,ComponentPad*%
%ADD11O,1.050000X1.500000*%
%TD*%
%TA.AperFunction,ComponentPad*%
%ADD12O,1.600000X1.600000*%
%TD*%
%TA.AperFunction,ComponentPad*%
%ADD13C,1.600000*%
%TD*%
%TA.AperFunction,ComponentPad*%
%ADD14R,1.524000X1.524000*%
%TD*%
%TA.AperFunction,ComponentPad*%
%ADD15C,1.524000*%
%TD*%
%TA.AperFunction,ComponentPad*%
%ADD16C,1.400000*%
%TD*%
%TA.AperFunction,ComponentPad*%
%ADD17R,2.600000X2.600000*%
%TD*%
%TA.AperFunction,ComponentPad*%
%ADD18C,2.600000*%
%TD*%
%TA.AperFunction,ComponentPad*%
%ADD19O,2.000000X1.600000*%
%TD*%
%TA.AperFunction,ComponentPad*%
%ADD20R,2.000000X2.000000*%
%TD*%
%TA.AperFunction,Conductor*%
%ADD21C,0.254000*%
%TD*%
%TA.AperFunction,Conductor*%
%ADD22C,0.100000*%
%TD*%
G04 APERTURE END LIST*
D10*
%TO.P,U2,1*%
%TO.N,Net-(R2-Pad2)*%
X154686000Y-119634000D03*
D11*
%TO.P,U2,3*%
%TO.N,+3V3*%
X157226000Y-119634000D03*
%TO.P,U2,2*%
%TO.N,GND*%
X155956000Y-119634000D03*
%TD*%
D12*
%TO.P,R3,2*%
%TO.N,GND*%
X145780000Y-120142000D03*
D13*
%TO.P,R3,1*%
%TO.N,Net-(R2-Pad2)*%
X130540000Y-120142000D03*
%TD*%
D12*
%TO.P,R2,2*%
%TO.N,Net-(R2-Pad2)*%
X130540000Y-124460000D03*
D13*
%TO.P,R2,1*%
%TO.N,+3V3*%
X145780000Y-124460000D03*
%TD*%
D12*
%TO.P,R1,2*%
%TO.N,Net-(BT1-Pad1)*%
X130540000Y-128778000D03*
D13*
%TO.P,R1,1*%
%TO.N,+3V3*%
X145780000Y-128778000D03*
%TD*%
D14*
%TO.P,A1,1*%
%TO.N,+3V3*%
X139440000Y-101470000D03*
D15*
%TO.P,A1,2*%
%TO.N,GND*%
X139440000Y-104010000D03*
%TO.P,A1,3*%
%TO.N,SCL*%
X139440000Y-106550000D03*
%TO.P,A1,4*%
%TO.N,SDA*%
X139440000Y-109090000D03*
%TO.P,A1,5*%
%TO.N,Net-(A1-Pad5)*%
X139440000Y-111630000D03*
%TO.P,A1,6*%
%TO.N,Net-(A1-Pad6)*%
X139440000Y-114170000D03*
%TD*%
D16*
%TO.P,C1,1*%
%TO.N,+3V3*%
X157480000Y-111506000D03*
%TO.P,C1,2*%
%TO.N,GND*%
X154980000Y-111506000D03*
%TD*%
D13*
%TO.P,R4,1*%
%TO.N,RBF_switch*%
X145780000Y-133096000D03*
D12*
%TO.P,R4,2*%
%TO.N,GND*%
X130540000Y-133096000D03*
%TD*%
D17*
%TO.P,SW1,1*%
%TO.N,RBF_switch*%
X156972000Y-145288000D03*
D18*
%TO.P,SW1,2*%
%TO.N,+3V3*%
X156972000Y-140288000D03*
%TD*%
D19*
%TO.P,U1,2*%
%TO.N,Net-(U1-Pad2)*%
X156410000Y-86030000D03*
D20*
%TO.P,U1,1*%
%TO.N,Net-(U1-Pad1)*%
X156410000Y-88570000D03*
D19*
%TO.P,U1,3*%
%TO.N,Net-(U1-Pad3)*%
X156410000Y-83490000D03*
%TO.P,U1,4*%
%TO.N,Net-(U1-Pad4)*%
X156410000Y-80950000D03*
%TO.P,U1,5*%
%TO.N,Net-(U1-Pad5)*%
X156410000Y-78410000D03*
%TO.P,U1,6*%
%TO.N,Net-(U1-Pad6)*%
X156410000Y-75870000D03*
%TO.P,U1,7*%
%TO.N,Net-(U1-Pad7)*%
X156410000Y-73330000D03*
%TO.P,U1,8*%
%TO.N,+3V3*%
X156410000Y-70790000D03*
%TO.P,U1,9*%
%TO.N,Net-(U1-Pad9)*%
X133550000Y-70790000D03*
%TO.P,U1,10*%
%TO.N,GND*%
X133550000Y-73330000D03*
%TO.P,U1,11*%
%TO.N,RBF_switch*%
X133550000Y-75870000D03*
%TO.P,U1,12*%
%TO.N,Net-(U1-Pad12)*%
X133550000Y-78410000D03*
%TO.P,U1,13*%
%TO.N,SDA*%
X133550000Y-80950000D03*
%TO.P,U1,14*%
%TO.N,SCL*%
X133550000Y-83490000D03*
%TO.P,U1,15*%
%TO.N,Net-(U1-Pad15)*%
X133550000Y-86030000D03*
%TO.P,U1,16*%
%TO.N,Net-(U1-Pad16)*%
X133550000Y-88570000D03*
%TD*%
D21*
%TO.N,GND*%
X165290000Y-149290000D02*
X100710000Y-149290000D01*
X100710000Y-143988000D01*
X155033928Y-143988000D01*
X155033928Y-146588000D01*
X155046188Y-146712482D01*
X155082498Y-146832180D01*
X155141463Y-146942494D01*
X155220815Y-147039185D01*
X155317506Y-147118537D01*
X155427820Y-147177502D01*
X155547518Y-147213812D01*
X155672000Y-147226072D01*
X158272000Y-147226072D01*
X158396482Y-147213812D01*
X158516180Y-147177502D01*
X158626494Y-147118537D01*
X158723185Y-147039185D01*
X158802537Y-146942494D01*
X158861502Y-146832180D01*
X158897812Y-146712482D01*
X158910072Y-146588000D01*
X158910072Y-143988000D01*
X158897812Y-143863518D01*
X158861502Y-143743820D01*
X158802537Y-143633506D01*
X158723185Y-143536815D01*
X158626494Y-143457463D01*
X158516180Y-143398498D01*
X158396482Y-143362188D01*
X158272000Y-143349928D01*
X155672000Y-143349928D01*
X155547518Y-143362188D01*
X155427820Y-143398498D01*
X155317506Y-143457463D01*
X155220815Y-143536815D01*
X155141463Y-143633506D01*
X155082498Y-143743820D01*
X155046188Y-143863518D01*
X155033928Y-143988000D01*
X100710000Y-143988000D01*
X100710000Y-140097419D01*
X155037000Y-140097419D01*
X155037000Y-140478581D01*
X155111361Y-140852419D01*
X155257225Y-141204566D01*
X155468987Y-141521491D01*
X155738509Y-141791013D01*
X156055434Y-142002775D01*
X156407581Y-142148639D01*
X156781419Y-142223000D01*
X157162581Y-142223000D01*
X157536419Y-142148639D01*
X157888566Y-142002775D01*
X158205491Y-141791013D01*
X158475013Y-141521491D01*
X158686775Y-141204566D01*
X158832639Y-140852419D01*
X158907000Y-140478581D01*
X158907000Y-140097419D01*
X158832639Y-139723581D01*
X158686775Y-139371434D01*
X158475013Y-139054509D01*
X158205491Y-138784987D01*
X157888566Y-138573225D01*
X157536419Y-138427361D01*
X157162581Y-138353000D01*
X156781419Y-138353000D01*
X156407581Y-138427361D01*
X156055434Y-138573225D01*
X155738509Y-138784987D01*
X155468987Y-139054509D01*
X155257225Y-139371434D01*
X155111361Y-139723581D01*
X155037000Y-140097419D01*
X100710000Y-140097419D01*
X100710000Y-132577560D01*
X122000000Y-132577560D01*
X122000000Y-133042440D01*
X122090694Y-133498387D01*
X122268595Y-133927879D01*
X122526868Y-134314412D01*
X122855588Y-134643132D01*
X123242121Y-134901405D01*
X123671613Y-135079306D01*
X124127560Y-135170000D01*
X124592440Y-135170000D01*
X125048387Y-135079306D01*
X125477879Y-134901405D01*
X125864412Y-134643132D01*
X126193132Y-134314412D01*
X126451405Y-133927879D01*
X126629306Y-133498387D01*
X126639917Y-133445039D01*
X129148096Y-133445039D01*
X129188754Y-133579087D01*
X129308963Y-133833420D01*
X129476481Y-134059414D01*
X129684869Y-134248385D01*
X129926119Y-134393070D01*
X130190960Y-134487909D01*
X130413000Y-134366624D01*
X130413000Y-133223000D01*
X130667000Y-133223000D01*
X130667000Y-134366624D01*
X130889040Y-134487909D01*
X131153881Y-134393070D01*
X131395131Y-134248385D01*
X131603519Y-134059414D01*
X131771037Y-133833420D01*
X131891246Y-133579087D01*
X131931904Y-133445039D01*
X131809915Y-133223000D01*
X130667000Y-133223000D01*
X130413000Y-133223000D01*
X129270085Y-133223000D01*
X129148096Y-133445039D01*
X126639917Y-133445039D01*
X126720000Y-133042440D01*
X126720000Y-132746961D01*
X129148096Y-132746961D01*
X129270085Y-132969000D01*
X130413000Y-132969000D01*
X130413000Y-131825376D01*
X130667000Y-131825376D01*
X130667000Y-132969000D01*
X131809915Y-132969000D01*
X131817790Y-132954665D01*
X144345000Y-132954665D01*
X144345000Y-133237335D01*
X144400147Y-133514574D01*
X144508320Y-133775727D01*
X144665363Y-134010759D01*
X144865241Y-134210637D01*
X145100273Y-134367680D01*
X145361426Y-134475853D01*
X145638665Y-134531000D01*
X145921335Y-134531000D01*
X146198574Y-134475853D01*
X146459727Y-134367680D01*
X146694759Y-134210637D01*
X146894637Y-134010759D01*
X147051680Y-133775727D01*
X147159853Y-133514574D01*
X147215000Y-133237335D01*
X147215000Y-132954665D01*
X147159853Y-132677426D01*
X147051680Y-132416273D01*
X146894637Y-132181241D01*
X146694759Y-131981363D01*
X146459727Y-131824320D01*
X146198574Y-131716147D01*
X145921335Y-131661000D01*
X145638665Y-131661000D01*
X145361426Y-131716147D01*
X145100273Y-131824320D01*
X144865241Y-131981363D01*
X144665363Y-132181241D01*
X144508320Y-132416273D01*
X144400147Y-132677426D01*
X144345000Y-132954665D01*
X131817790Y-132954665D01*
X131931904Y-132746961D01*
X131891246Y-132612913D01*
X131771037Y-132358580D01*
X131603519Y-132132586D01*
X131395131Y-131943615D01*
X131153881Y-131798930D01*
X130889040Y-131704091D01*
X130667000Y-131825376D01*
X130413000Y-131825376D01*
X130190960Y-131704091D01*
X129926119Y-131798930D01*
X129684869Y-131943615D01*
X129476481Y-132132586D01*
X129308963Y-132358580D01*
X129188754Y-132612913D01*
X129148096Y-132746961D01*
X126720000Y-132746961D01*
X126720000Y-132577560D01*
X126629306Y-132121613D01*
X126451405Y-131692121D01*
X126193132Y-131305588D01*
X125864412Y-130976868D01*
X125477879Y-130718595D01*
X125048387Y-130540694D01*
X124592440Y-130450000D01*
X124127560Y-130450000D01*
X123671613Y-130540694D01*
X123242121Y-130718595D01*
X122855588Y-130976868D01*
X122526868Y-131305588D01*
X122268595Y-131692121D01*
X122090694Y-132121613D01*
X122000000Y-132577560D01*
X100710000Y-132577560D01*
X100710000Y-128636665D01*
X129105000Y-128636665D01*
X129105000Y-128919335D01*
X129160147Y-129196574D01*
X129268320Y-129457727D01*
X129425363Y-129692759D01*
X129625241Y-129892637D01*
X129860273Y-130049680D01*
X130121426Y-130157853D01*
X130398665Y-130213000D01*
X130681335Y-130213000D01*
X130958574Y-130157853D01*
X131219727Y-130049680D01*
X131454759Y-129892637D01*
X131654637Y-129692759D01*
X131811680Y-129457727D01*
X131919853Y-129196574D01*
X131975000Y-128919335D01*
X131975000Y-128636665D01*
X144345000Y-128636665D01*
X144345000Y-128919335D01*
X144400147Y-129196574D01*
X144508320Y-129457727D01*
X144665363Y-129692759D01*
X144865241Y-129892637D01*
X145100273Y-130049680D01*
X145361426Y-130157853D01*
X145638665Y-130213000D01*
X145921335Y-130213000D01*
X146198574Y-130157853D01*
X146459727Y-130049680D01*
X146694759Y-129892637D01*
X146894637Y-129692759D01*
X147051680Y-129457727D01*
X147159853Y-129196574D01*
X147215000Y-128919335D01*
X147215000Y-128636665D01*
X147159853Y-128359426D01*
X147051680Y-128098273D01*
X146894637Y-127863241D01*
X146694759Y-127663363D01*
X146459727Y-127506320D01*
X146198574Y-127398147D01*
X145921335Y-127343000D01*
X145638665Y-127343000D01*
X145361426Y-127398147D01*
X145100273Y-127506320D01*
X144865241Y-127663363D01*
X144665363Y-127863241D01*
X144508320Y-128098273D01*
X144400147Y-128359426D01*
X144345000Y-128636665D01*
X131975000Y-128636665D01*
X131919853Y-128359426D01*
X131811680Y-128098273D01*
X131654637Y-127863241D01*
X131454759Y-127663363D01*
X131219727Y-127506320D01*
X130958574Y-127398147D01*
X130681335Y-127343000D01*
X130398665Y-127343000D01*
X130121426Y-127398147D01*
X129860273Y-127506320D01*
X129625241Y-127663363D01*
X129425363Y-127863241D01*
X129268320Y-128098273D01*
X129160147Y-128359426D01*
X129105000Y-128636665D01*
X100710000Y-128636665D01*
X100710000Y-124318665D01*
X129105000Y-124318665D01*
X129105000Y-124601335D01*
X129160147Y-124878574D01*
X129268320Y-125139727D01*
X129425363Y-125374759D01*
X129625241Y-125574637D01*
X129860273Y-125731680D01*
X130121426Y-125839853D01*
X130398665Y-125895000D01*
X130681335Y-125895000D01*
X130958574Y-125839853D01*
X131219727Y-125731680D01*
X131454759Y-125574637D01*
X131654637Y-125374759D01*
X131811680Y-125139727D01*
X131919853Y-124878574D01*
X131975000Y-124601335D01*
X131975000Y-124318665D01*
X144345000Y-124318665D01*
X144345000Y-124601335D01*
X144400147Y-124878574D01*
X144508320Y-125139727D01*
X144665363Y-125374759D01*
X144865241Y-125574637D01*
X145100273Y-125731680D01*
X145361426Y-125839853D01*
X145638665Y-125895000D01*
X145921335Y-125895000D01*
X146198574Y-125839853D01*
X146459727Y-125731680D01*
X146694759Y-125574637D01*
X146894637Y-125374759D01*
X147051680Y-125139727D01*
X147159853Y-124878574D01*
X147215000Y-124601335D01*
X147215000Y-124318665D01*
X147159853Y-124041426D01*
X147051680Y-123780273D01*
X146894637Y-123545241D01*
X146694759Y-123345363D01*
X146459727Y-123188320D01*
X146198574Y-123080147D01*
X145921335Y-123025000D01*
X145638665Y-123025000D01*
X145361426Y-123080147D01*
X145100273Y-123188320D01*
X144865241Y-123345363D01*
X144665363Y-123545241D01*
X144508320Y-123780273D01*
X144400147Y-124041426D01*
X144345000Y-124318665D01*
X131975000Y-124318665D01*
X131919853Y-124041426D01*
X131811680Y-123780273D01*
X131654637Y-123545241D01*
X131454759Y-123345363D01*
X131219727Y-123188320D01*
X130958574Y-123080147D01*
X130681335Y-123025000D01*
X130398665Y-123025000D01*
X130121426Y-123080147D01*
X129860273Y-123188320D01*
X129625241Y-123345363D01*
X129425363Y-123545241D01*
X129268320Y-123780273D01*
X129160147Y-124041426D01*
X129105000Y-124318665D01*
X100710000Y-124318665D01*
X100710000Y-120000665D01*
X129105000Y-120000665D01*
X129105000Y-120283335D01*
X129160147Y-120560574D01*
X129268320Y-120821727D01*
X129425363Y-121056759D01*
X129625241Y-121256637D01*
X129860273Y-121413680D01*
X130121426Y-121521853D01*
X130398665Y-121577000D01*
X130681335Y-121577000D01*
X130958574Y-121521853D01*
X131219727Y-121413680D01*
X131454759Y-121256637D01*
X131654637Y-121056759D01*
X131811680Y-120821727D01*
X131919853Y-120560574D01*
X131933684Y-120491039D01*
X144388096Y-120491039D01*
X144428754Y-120625087D01*
X144548963Y-120879420D01*
X144716481Y-121105414D01*
X144924869Y-121294385D01*
X145166119Y-121439070D01*
X145430960Y-121533909D01*
X145653000Y-121412624D01*
X145653000Y-120269000D01*
X145907000Y-120269000D01*
X145907000Y-121412624D01*
X146129040Y-121533909D01*
X146393881Y-121439070D01*
X146635131Y-121294385D01*
X146843519Y-121105414D01*
X147011037Y-120879420D01*
X147131246Y-120625087D01*
X147171904Y-120491039D01*
X147049915Y-120269000D01*
X145907000Y-120269000D01*
X145653000Y-120269000D01*
X144510085Y-120269000D01*
X144388096Y-120491039D01*
X131933684Y-120491039D01*
X131975000Y-120283335D01*
X131975000Y-120000665D01*
X131933685Y-119792961D01*
X144388096Y-119792961D01*
X144510085Y-120015000D01*
X145653000Y-120015000D01*
X145653000Y-118871376D01*
X145907000Y-118871376D01*
X145907000Y-120015000D01*
X147049915Y-120015000D01*
X147171904Y-119792961D01*
X147131246Y-119658913D01*
X147011037Y-119404580D01*
X146843519Y-119178586D01*
X146635131Y-118989615D01*
X146459027Y-118884000D01*
X153522928Y-118884000D01*
X153522928Y-120384000D01*
X153535188Y-120508482D01*
X153571498Y-120628180D01*
X153630463Y-120738494D01*
X153709815Y-120835185D01*
X153806506Y-120914537D01*
X153916820Y-120973502D01*
X154036518Y-121009812D01*
X154161000Y-121022072D01*
X155211000Y-121022072D01*
X155335482Y-121009812D01*
X155455180Y-120973502D01*
X155520057Y-120938824D01*
X155588663Y-120969272D01*
X155650190Y-120977964D01*
X155829000Y-120852163D01*
X155829000Y-120534235D01*
X155836812Y-120508482D01*
X155849072Y-120384000D01*
X155849072Y-119352022D01*
X156066000Y-119352022D01*
X156066000Y-119915979D01*
X156082785Y-120086400D01*
X156083000Y-120087109D01*
X156083000Y-120852163D01*
X156261810Y-120977964D01*
X156323337Y-120969272D01*
X156532882Y-120876275D01*
X156591331Y-120835071D01*
X156779941Y-120935885D01*
X156998601Y-121002215D01*
X157226000Y-121024612D01*
X157453400Y-121002215D01*
X157672060Y-120935885D01*
X157873579Y-120828171D01*
X158050212Y-120683212D01*
X158195171Y-120506579D01*
X158302885Y-120305059D01*
X158369215Y-120086399D01*
X158386000Y-119915978D01*
X158386000Y-119352021D01*
X158369215Y-119181600D01*
X158302885Y-118962940D01*
X158195171Y-118761421D01*
X158050212Y-118584788D01*
X157873578Y-118439829D01*
X157672059Y-118332115D01*
X157453399Y-118265785D01*
X157226000Y-118243388D01*
X156998600Y-118265785D01*
X156779940Y-118332115D01*
X156591331Y-118432929D01*
X156532882Y-118391725D01*
X156323337Y-118298728D01*
X156261810Y-118290036D01*
X156083000Y-118415837D01*
X156083000Y-119180892D01*
X156082785Y-119181601D01*
X156066000Y-119352022D01*
X155849072Y-119352022D01*
X155849072Y-118884000D01*
X155836812Y-118759518D01*
X155829000Y-118733765D01*
X155829000Y-118415837D01*
X155650190Y-118290036D01*
X155588663Y-118298728D01*
X155520057Y-118329176D01*
X155455180Y-118294498D01*
X155335482Y-118258188D01*
X155211000Y-118245928D01*
X154161000Y-118245928D01*
X154036518Y-118258188D01*
X153916820Y-118294498D01*
X153806506Y-118353463D01*
X153709815Y-118432815D01*
X153630463Y-118529506D01*
X153571498Y-118639820D01*
X153535188Y-118759518D01*
X153522928Y-118884000D01*
X146459027Y-118884000D01*
X146393881Y-118844930D01*
X146129040Y-118750091D01*
X145907000Y-118871376D01*
X145653000Y-118871376D01*
X145430960Y-118750091D01*
X145166119Y-118844930D01*
X144924869Y-118989615D01*
X144716481Y-119178586D01*
X144548963Y-119404580D01*
X144428754Y-119658913D01*
X144388096Y-119792961D01*
X131933685Y-119792961D01*
X131919853Y-119723426D01*
X131811680Y-119462273D01*
X131654637Y-119227241D01*
X131454759Y-119027363D01*
X131219727Y-118870320D01*
X130958574Y-118762147D01*
X130681335Y-118707000D01*
X130398665Y-118707000D01*
X130121426Y-118762147D01*
X129860273Y-118870320D01*
X129625241Y-119027363D01*
X129425363Y-119227241D01*
X129268320Y-119462273D01*
X129160147Y-119723426D01*
X129105000Y-120000665D01*
X100710000Y-120000665D01*
X100710000Y-112232413D01*
X130283146Y-112232413D01*
X130283146Y-112767587D01*
X130387553Y-113292477D01*
X130592355Y-113786913D01*
X130889681Y-114231894D01*
X131268106Y-114610319D01*
X131713087Y-114907645D01*
X132207523Y-115112447D01*
X132732413Y-115216854D01*
X133267587Y-115216854D01*
X133792477Y-115112447D01*
X134286913Y-114907645D01*
X134731894Y-114610319D01*
X135110319Y-114231894D01*
X135407645Y-113786913D01*
X135612447Y-113292477D01*
X135716854Y-112767587D01*
X135716854Y-112232413D01*
X135612447Y-111707523D01*
X135407645Y-111213087D01*
X135110319Y-110768106D01*
X134731894Y-110389681D01*
X134286913Y-110092355D01*
X133792477Y-109887553D01*
X133267587Y-109783146D01*
X132732413Y-109783146D01*
X132207523Y-109887553D01*
X131713087Y-110092355D01*
X131268106Y-110389681D01*
X130889681Y-110768106D01*
X130592355Y-111213087D01*
X130387553Y-111707523D01*
X130283146Y-112232413D01*
X100710000Y-112232413D01*
X100710000Y-106412408D01*
X138043000Y-106412408D01*
X138043000Y-106687592D01*
X138096686Y-106957490D01*
X138201995Y-107211727D01*
X138354880Y-107440535D01*
X138549465Y-107635120D01*
X138778273Y-107788005D01*
X138855515Y-107820000D01*
X138778273Y-107851995D01*
X138549465Y-108004880D01*
X138354880Y-108199465D01*
X138201995Y-108428273D01*
X138096686Y-108682510D01*
X138043000Y-108952408D01*
X138043000Y-109227592D01*
X138096686Y-109497490D01*
X138201995Y-109751727D01*
X138354880Y-109980535D01*
X138549465Y-110175120D01*
X138778273Y-110328005D01*
X138855515Y-110360000D01*
X138778273Y-110391995D01*
X138549465Y-110544880D01*
X138354880Y-110739465D01*
X138201995Y-110968273D01*
X138096686Y-111222510D01*
X138043000Y-111492408D01*
X138043000Y-111767592D01*
X138096686Y-112037490D01*
X138201995Y-112291727D01*
X138354880Y-112520535D01*
X138549465Y-112715120D01*
X138778273Y-112868005D01*
X138855515Y-112900000D01*
X138778273Y-112931995D01*
X138549465Y-113084880D01*
X138354880Y-113279465D01*
X138201995Y-113508273D01*
X138096686Y-113762510D01*
X138043000Y-114032408D01*
X138043000Y-114307592D01*
X138096686Y-114577490D01*
X138201995Y-114831727D01*
X138354880Y-115060535D01*
X138549465Y-115255120D01*
X138778273Y-115408005D01*
X139032510Y-115513314D01*
X139302408Y-115567000D01*
X139577592Y-115567000D01*
X139847490Y-115513314D01*
X140101727Y-115408005D01*
X140330535Y-115255120D01*
X140525120Y-115060535D01*
X140678005Y-114831727D01*
X140783314Y-114577490D01*
X140837000Y-114307592D01*
X140837000Y-114032408D01*
X140783314Y-113762510D01*
X140678005Y-113508273D01*
X140525120Y-113279465D01*
X140330535Y-113084880D01*
X140101727Y-112931995D01*
X140024485Y-112900000D01*
X140101727Y-112868005D01*
X140330535Y-112715120D01*
X140525120Y-112520535D01*
X140587438Y-112427269D01*
X154238336Y-112427269D01*
X154297797Y-112661037D01*
X154536242Y-112771934D01*
X154791740Y-112834183D01*
X155054473Y-112845390D01*
X155314344Y-112805125D01*
X155561366Y-112714935D01*
X155662203Y-112661037D01*
X155721664Y-112427269D01*
X154980000Y-111685605D01*
X154238336Y-112427269D01*
X140587438Y-112427269D01*
X140678005Y-112291727D01*
X140783314Y-112037490D01*
X140837000Y-111767592D01*
X140837000Y-111580473D01*
X153640610Y-111580473D01*
X153680875Y-111840344D01*
X153771065Y-112087366D01*
X153824963Y-112188203D01*
X154058731Y-112247664D01*
X154800395Y-111506000D01*
X155159605Y-111506000D01*
X155901269Y-112247664D01*
X156135037Y-112188203D01*
X156231592Y-111980596D01*
X156296939Y-112138359D01*
X156443038Y-112357013D01*
X156628987Y-112542962D01*
X156847641Y-112689061D01*
X157090595Y-112789696D01*
X157348514Y-112841000D01*
X157611486Y-112841000D01*
X157869405Y-112789696D01*
X158112359Y-112689061D01*
X158331013Y-112542962D01*
X158516962Y-112357013D01*
X158663061Y-112138359D01*
X158763696Y-111895405D01*
X158815000Y-111637486D01*
X158815000Y-111374514D01*
X158763696Y-111116595D01*
X158663061Y-110873641D01*
X158516962Y-110654987D01*
X158331013Y-110469038D01*
X158112359Y-110322939D01*
X157869405Y-110222304D01*
X157611486Y-110171000D01*
X157348514Y-110171000D01*
X157090595Y-110222304D01*
X156847641Y-110322939D01*
X156628987Y-110469038D01*
X156443038Y-110654987D01*
X156296939Y-110873641D01*
X156229639Y-111036118D01*
X156188935Y-110924634D01*
X156135037Y-110823797D01*
X155901269Y-110764336D01*
X155159605Y-111506000D01*
X154800395Y-111506000D01*
X154058731Y-110764336D01*
X153824963Y-110823797D01*
X153714066Y-111062242D01*
X153651817Y-111317740D01*
X153640610Y-111580473D01*
X140837000Y-111580473D01*
X140837000Y-111492408D01*
X140783314Y-111222510D01*
X140678005Y-110968273D01*
X140525120Y-110739465D01*
X140370386Y-110584731D01*
X154238336Y-110584731D01*
X154980000Y-111326395D01*
X155721664Y-110584731D01*
X155662203Y-110350963D01*
X155423758Y-110240066D01*
X155168260Y-110177817D01*
X154905527Y-110166610D01*
X154645656Y-110206875D01*
X154398634Y-110297065D01*
X154297797Y-110350963D01*
X154238336Y-110584731D01*
X140370386Y-110584731D01*
X140330535Y-110544880D01*
X140101727Y-110391995D01*
X140024485Y-110360000D01*
X140101727Y-110328005D01*
X140330535Y-110175120D01*
X140525120Y-109980535D01*
X140678005Y-109751727D01*
X140783314Y-109497490D01*
X140837000Y-109227592D01*
X140837000Y-108952408D01*
X140783314Y-108682510D01*
X140678005Y-108428273D01*
X140525120Y-108199465D01*
X140330535Y-108004880D01*
X140101727Y-107851995D01*
X140024485Y-107820000D01*
X140101727Y-107788005D01*
X140330535Y-107635120D01*
X140525120Y-107440535D01*
X140678005Y-107211727D01*
X140783314Y-106957490D01*
X140837000Y-106687592D01*
X140837000Y-106412408D01*
X140783314Y-106142510D01*
X140678005Y-105888273D01*
X140525120Y-105659465D01*
X140330535Y-105464880D01*
X140101727Y-105311995D01*
X140030057Y-105282308D01*
X140043023Y-105277636D01*
X140158980Y-105215656D01*
X140225960Y-104975565D01*
X139440000Y-104189605D01*
X138654040Y-104975565D01*
X138721020Y-105215656D01*
X138856760Y-105279485D01*
X138778273Y-105311995D01*
X138549465Y-105464880D01*
X138354880Y-105659465D01*
X138201995Y-105888273D01*
X138096686Y-106142510D01*
X138043000Y-106412408D01*
X100710000Y-106412408D01*
X100710000Y-104082017D01*
X138038090Y-104082017D01*
X138079078Y-104354133D01*
X138172364Y-104613023D01*
X138234344Y-104728980D01*
X138474435Y-104795960D01*
X139260395Y-104010000D01*
X139619605Y-104010000D01*
X140405565Y-104795960D01*
X140645656Y-104728980D01*
X140762756Y-104479952D01*
X140829023Y-104212865D01*
X140841910Y-103937983D01*
X140800922Y-103665867D01*
X140707636Y-103406977D01*
X140645656Y-103291020D01*
X140405565Y-103224040D01*
X139619605Y-104010000D01*
X139260395Y-104010000D01*
X138474435Y-103224040D01*
X138234344Y-103291020D01*
X138117244Y-103540048D01*
X138050977Y-103807135D01*
X138038090Y-104082017D01*
X100710000Y-104082017D01*
X100710000Y-100708000D01*
X138039928Y-100708000D01*
X138039928Y-102232000D01*
X138052188Y-102356482D01*
X138088498Y-102476180D01*
X138147463Y-102586494D01*
X138226815Y-102683185D01*
X138323506Y-102762537D01*
X138433820Y-102821502D01*
X138553518Y-102857812D01*
X138678000Y-102870072D01*
X138702683Y-102870072D01*
X138654040Y-103044435D01*
X139440000Y-103830395D01*
X140225960Y-103044435D01*
X140177317Y-102870072D01*
X140202000Y-102870072D01*
X140326482Y-102857812D01*
X140446180Y-102821502D01*
X140556494Y-102762537D01*
X140653185Y-102683185D01*
X140732537Y-102586494D01*
X140791502Y-102476180D01*
X140827812Y-102356482D01*
X140840072Y-102232000D01*
X140840072Y-100708000D01*
X140827812Y-100583518D01*
X140791502Y-100463820D01*
X140732537Y-100353506D01*
X140653185Y-100256815D01*
X140556494Y-100177463D01*
X140446180Y-100118498D01*
X140326482Y-100082188D01*
X140202000Y-100069928D01*
X138678000Y-100069928D01*
X138553518Y-100082188D01*
X138433820Y-100118498D01*
X138323506Y-100177463D01*
X138226815Y-100256815D01*
X138147463Y-100353506D01*
X138088498Y-100463820D01*
X138052188Y-100583518D01*
X138039928Y-100708000D01*
X100710000Y-100708000D01*
X100710000Y-77377560D01*
X106000000Y-77377560D01*
X106000000Y-77842440D01*
X106090694Y-78298387D01*
X106268595Y-78727879D01*
X106526868Y-79114412D01*
X106855588Y-79443132D01*
X107242121Y-79701405D01*
X107671613Y-79879306D01*
X108127560Y-79970000D01*
X108592440Y-79970000D01*
X109048387Y-79879306D01*
X109477879Y-79701405D01*
X109864412Y-79443132D01*
X110193132Y-79114412D01*
X110451405Y-78727879D01*
X110629306Y-78298387D01*
X110720000Y-77842440D01*
X110720000Y-77377560D01*
X110629306Y-76921613D01*
X110451405Y-76492121D01*
X110193132Y-76105588D01*
X109957544Y-75870000D01*
X131908057Y-75870000D01*
X131935764Y-76151309D01*
X132017818Y-76421808D01*
X132151068Y-76671101D01*
X132330392Y-76889608D01*
X132548899Y-77068932D01*
X132681858Y-77140000D01*
X132548899Y-77211068D01*
X132330392Y-77390392D01*
X132151068Y-77608899D01*
X132017818Y-77858192D01*
X131935764Y-78128691D01*
X131908057Y-78410000D01*
X131935764Y-78691309D01*
X132017818Y-78961808D01*
X132151068Y-79211101D01*
X132330392Y-79429608D01*
X132548899Y-79608932D01*
X132681858Y-79680000D01*
X132548899Y-79751068D01*
X132330392Y-79930392D01*
X132151068Y-80148899D01*
X132017818Y-80398192D01*
X131935764Y-80668691D01*
X131908057Y-80950000D01*
X131935764Y-81231309D01*
X132017818Y-81501808D01*
X132151068Y-81751101D01*
X132330392Y-81969608D01*
X132548899Y-82148932D01*
X132681858Y-82220000D01*
X132548899Y-82291068D01*
X132330392Y-82470392D01*
X132151068Y-82688899D01*
X132017818Y-82938192D01*
X131935764Y-83208691D01*
X131908057Y-83490000D01*
X131935764Y-83771309D01*
X132017818Y-84041808D01*
X132151068Y-84291101D01*
X132330392Y-84509608D01*
X132548899Y-84688932D01*
X132681858Y-84760000D01*
X132548899Y-84831068D01*
X132330392Y-85010392D01*
X132151068Y-85228899D01*
X132017818Y-85478192D01*
X131935764Y-85748691D01*
X131908057Y-86030000D01*
X131935764Y-86311309D01*
X132017818Y-86581808D01*
X132151068Y-86831101D01*
X132330392Y-87049608D01*
X132548899Y-87228932D01*
X132681858Y-87300000D01*
X132548899Y-87371068D01*
X132330392Y-87550392D01*
X132151068Y-87768899D01*
X132017818Y-88018192D01*
X131935764Y-88288691D01*
X131908057Y-88570000D01*
X131935764Y-88851309D01*
X132017818Y-89121808D01*
X132151068Y-89371101D01*
X132330392Y-89589608D01*
X132548899Y-89768932D01*
X132798192Y-89902182D01*
X133068691Y-89984236D01*
X133279508Y-90005000D01*
X133820492Y-90005000D01*
X134031309Y-89984236D01*
X134301808Y-89902182D01*
X134551101Y-89768932D01*
X134769608Y-89589608D01*
X134948932Y-89371101D01*
X135082182Y-89121808D01*
X135164236Y-88851309D01*
X135191943Y-88570000D01*
X135164236Y-88288691D01*
X135082182Y-88018192D01*
X134948932Y-87768899D01*
X134769608Y-87550392D01*
X134551101Y-87371068D01*
X134418142Y-87300000D01*
X134551101Y-87228932D01*
X134769608Y-87049608D01*
X134948932Y-86831101D01*
X135082182Y-86581808D01*
X135164236Y-86311309D01*
X135191943Y-86030000D01*
X135164236Y-85748691D01*
X135082182Y-85478192D01*
X134948932Y-85228899D01*
X134769608Y-85010392D01*
X134551101Y-84831068D01*
X134418142Y-84760000D01*
X134551101Y-84688932D01*
X134769608Y-84509608D01*
X134948932Y-84291101D01*
X135082182Y-84041808D01*
X135164236Y-83771309D01*
X135191943Y-83490000D01*
X135164236Y-83208691D01*
X135082182Y-82938192D01*
X134948932Y-82688899D01*
X134769608Y-82470392D01*
X134551101Y-82291068D01*
X134418142Y-82220000D01*
X134551101Y-82148932D01*
X134769608Y-81969608D01*
X134948932Y-81751101D01*
X135082182Y-81501808D01*
X135164236Y-81231309D01*
X135191943Y-80950000D01*
X135164236Y-80668691D01*
X135082182Y-80398192D01*
X134948932Y-80148899D01*
X134769608Y-79930392D01*
X134551101Y-79751068D01*
X134418142Y-79680000D01*
X134551101Y-79608932D01*
X134769608Y-79429608D01*
X134948932Y-79211101D01*
X135082182Y-78961808D01*
X135164236Y-78691309D01*
X135191943Y-78410000D01*
X135164236Y-78128691D01*
X135082182Y-77858192D01*
X134948932Y-77608899D01*
X134769608Y-77390392D01*
X134551101Y-77211068D01*
X134418142Y-77140000D01*
X134551101Y-77068932D01*
X134769608Y-76889608D01*
X134948932Y-76671101D01*
X135082182Y-76421808D01*
X135164236Y-76151309D01*
X135191943Y-75870000D01*
X135164236Y-75588691D01*
X135082182Y-75318192D01*
X134948932Y-75068899D01*
X134769608Y-74850392D01*
X134551101Y-74671068D01*
X134421655Y-74601878D01*
X134439227Y-74594430D01*
X134672662Y-74435673D01*
X134870639Y-74234425D01*
X135025551Y-73998421D01*
X135131444Y-73736730D01*
X135141904Y-73679039D01*
X135019915Y-73457000D01*
X133677000Y-73457000D01*
X133677000Y-73477000D01*
X133423000Y-73477000D01*
X133423000Y-73457000D01*
X132080085Y-73457000D01*
X131958096Y-73679039D01*
X131968556Y-73736730D01*
X132074449Y-73998421D01*
X132229361Y-74234425D01*
X132427338Y-74435673D01*
X132660773Y-74594430D01*
X132678345Y-74601878D01*
X132548899Y-74671068D01*
X132330392Y-74850392D01*
X132151068Y-75068899D01*
X132017818Y-75318192D01*
X131935764Y-75588691D01*
X131908057Y-75870000D01*
X109957544Y-75870000D01*
X109864412Y-75776868D01*
X109477879Y-75518595D01*
X109048387Y-75340694D01*
X108592440Y-75250000D01*
X108127560Y-75250000D01*
X107671613Y-75340694D01*
X107242121Y-75518595D01*
X106855588Y-75776868D01*
X106526868Y-76105588D01*
X106268595Y-76492121D01*
X106090694Y-76921613D01*
X106000000Y-77377560D01*
X100710000Y-77377560D01*
X100710000Y-69099761D01*
X122530000Y-69099761D01*
X122530000Y-69460239D01*
X122600325Y-69813791D01*
X122738275Y-70146830D01*
X122938546Y-70446557D01*
X123193443Y-70701454D01*
X123493170Y-70901725D01*
X123826209Y-71039675D01*
X124179761Y-71110000D01*
X124540239Y-71110000D01*
X124893791Y-71039675D01*
X125226830Y-70901725D01*
X125394038Y-70790000D01*
X131908057Y-70790000D01*
X131935764Y-71071309D01*
X132017818Y-71341808D01*
X132151068Y-71591101D01*
X132330392Y-71809608D01*
X132548899Y-71988932D01*
X132678345Y-72058122D01*
X132660773Y-72065570D01*
X132427338Y-72224327D01*
X132229361Y-72425575D01*
X132074449Y-72661579D01*
X131968556Y-72923270D01*
X131958096Y-72980961D01*
X132080085Y-73203000D01*
X133423000Y-73203000D01*
X133423000Y-73183000D01*
X133677000Y-73183000D01*
X133677000Y-73203000D01*
X135019915Y-73203000D01*
X135141904Y-72980961D01*
X135131444Y-72923270D01*
X135025551Y-72661579D01*
X134870639Y-72425575D01*
X134672662Y-72224327D01*
X134439227Y-72065570D01*
X134421655Y-72058122D01*
X134551101Y-71988932D01*
X134769608Y-71809608D01*
X134948932Y-71591101D01*
X135082182Y-71341808D01*
X135164236Y-71071309D01*
X135191943Y-70790000D01*
X154768057Y-70790000D01*
X154795764Y-71071309D01*
X154877818Y-71341808D01*
X155011068Y-71591101D01*
X155190392Y-71809608D01*
X155408899Y-71988932D01*
X155541858Y-72060000D01*
X155408899Y-72131068D01*
X155190392Y-72310392D01*
X155011068Y-72528899D01*
X154877818Y-72778192D01*
X154795764Y-73048691D01*
X154768057Y-73330000D01*
X154795764Y-73611309D01*
X154877818Y-73881808D01*
X155011068Y-74131101D01*
X155190392Y-74349608D01*
X155408899Y-74528932D01*
X155541858Y-74600000D01*
X155408899Y-74671068D01*
X155190392Y-74850392D01*
X155011068Y-75068899D01*
X154877818Y-75318192D01*
X154795764Y-75588691D01*
X154768057Y-75870000D01*
X154795764Y-76151309D01*
X154877818Y-76421808D01*
X155011068Y-76671101D01*
X155190392Y-76889608D01*
X155408899Y-77068932D01*
X155541858Y-77140000D01*
X155408899Y-77211068D01*
X155190392Y-77390392D01*
X155011068Y-77608899D01*
X154877818Y-77858192D01*
X154795764Y-78128691D01*
X154768057Y-78410000D01*
X154795764Y-78691309D01*
X154877818Y-78961808D01*
X155011068Y-79211101D01*
X155190392Y-79429608D01*
X155408899Y-79608932D01*
X155541858Y-79680000D01*
X155408899Y-79751068D01*
X155190392Y-79930392D01*
X155011068Y-80148899D01*
X154877818Y-80398192D01*
X154795764Y-80668691D01*
X154768057Y-80950000D01*
X154795764Y-81231309D01*
X154877818Y-81501808D01*
X155011068Y-81751101D01*
X155190392Y-81969608D01*
X155408899Y-82148932D01*
X155541858Y-82220000D01*
X155408899Y-82291068D01*
X155190392Y-82470392D01*
X155011068Y-82688899D01*
X154877818Y-82938192D01*
X154795764Y-83208691D01*
X154768057Y-83490000D01*
X154795764Y-83771309D01*
X154877818Y-84041808D01*
X155011068Y-84291101D01*
X155190392Y-84509608D01*
X155408899Y-84688932D01*
X155541858Y-84760000D01*
X155408899Y-84831068D01*
X155190392Y-85010392D01*
X155011068Y-85228899D01*
X154877818Y-85478192D01*
X154795764Y-85748691D01*
X154768057Y-86030000D01*
X154795764Y-86311309D01*
X154877818Y-86581808D01*
X155011068Y-86831101D01*
X155143476Y-86992441D01*
X155055506Y-87039463D01*
X154958815Y-87118815D01*
X154879463Y-87215506D01*
X154820498Y-87325820D01*
X154784188Y-87445518D01*
X154771928Y-87570000D01*
X154771928Y-89570000D01*
X154784188Y-89694482D01*
X154820498Y-89814180D01*
X154879463Y-89924494D01*
X154958815Y-90021185D01*
X155055506Y-90100537D01*
X155165820Y-90159502D01*
X155285518Y-90195812D01*
X155410000Y-90208072D01*
X157410000Y-90208072D01*
X157534482Y-90195812D01*
X157654180Y-90159502D01*
X157764494Y-90100537D01*
X157861185Y-90021185D01*
X157940537Y-89924494D01*
X157999502Y-89814180D01*
X158035812Y-89694482D01*
X158048072Y-89570000D01*
X158048072Y-87570000D01*
X158035812Y-87445518D01*
X157999502Y-87325820D01*
X157940537Y-87215506D01*
X157861185Y-87118815D01*
X157764494Y-87039463D01*
X157676524Y-86992441D01*
X157808932Y-86831101D01*
X157942182Y-86581808D01*
X158024236Y-86311309D01*
X158051943Y-86030000D01*
X158024236Y-85748691D01*
X157942182Y-85478192D01*
X157808932Y-85228899D01*
X157629608Y-85010392D01*
X157411101Y-84831068D01*
X157278142Y-84760000D01*
X157411101Y-84688932D01*
X157629608Y-84509608D01*
X157808932Y-84291101D01*
X157942182Y-84041808D01*
X158024236Y-83771309D01*
X158051943Y-83490000D01*
X158024236Y-83208691D01*
X157942182Y-82938192D01*
X157808932Y-82688899D01*
X157629608Y-82470392D01*
X157411101Y-82291068D01*
X157278142Y-82220000D01*
X157411101Y-82148932D01*
X157629608Y-81969608D01*
X157808932Y-81751101D01*
X157942182Y-81501808D01*
X158024236Y-81231309D01*
X158051943Y-80950000D01*
X158024236Y-80668691D01*
X157942182Y-80398192D01*
X157808932Y-80148899D01*
X157629608Y-79930392D01*
X157411101Y-79751068D01*
X157278142Y-79680000D01*
X157411101Y-79608932D01*
X157629608Y-79429608D01*
X157808932Y-79211101D01*
X157942182Y-78961808D01*
X158024236Y-78691309D01*
X158051943Y-78410000D01*
X158024236Y-78128691D01*
X157942182Y-77858192D01*
X157808932Y-77608899D01*
X157629608Y-77390392D01*
X157411101Y-77211068D01*
X157278142Y-77140000D01*
X157411101Y-77068932D01*
X157629608Y-76889608D01*
X157808932Y-76671101D01*
X157942182Y-76421808D01*
X158024236Y-76151309D01*
X158051943Y-75870000D01*
X158024236Y-75588691D01*
X157942182Y-75318192D01*
X157808932Y-75068899D01*
X157629608Y-74850392D01*
X157411101Y-74671068D01*
X157278142Y-74600000D01*
X157411101Y-74528932D01*
X157629608Y-74349608D01*
X157808932Y-74131101D01*
X157942182Y-73881808D01*
X158024236Y-73611309D01*
X158051943Y-73330000D01*
X158024236Y-73048691D01*
X157942182Y-72778192D01*
X157808932Y-72528899D01*
X157629608Y-72310392D01*
X157411101Y-72131068D01*
X157278142Y-72060000D01*
X157411101Y-71988932D01*
X157629608Y-71809608D01*
X157808932Y-71591101D01*
X157942182Y-71341808D01*
X158024236Y-71071309D01*
X158051943Y-70790000D01*
X158024236Y-70508691D01*
X157942182Y-70238192D01*
X157808932Y-69988899D01*
X157629608Y-69770392D01*
X157411101Y-69591068D01*
X157161808Y-69457818D01*
X156891309Y-69375764D01*
X156680492Y-69355000D01*
X156139508Y-69355000D01*
X155928691Y-69375764D01*
X155658192Y-69457818D01*
X155408899Y-69591068D01*
X155190392Y-69770392D01*
X155011068Y-69988899D01*
X154877818Y-70238192D01*
X154795764Y-70508691D01*
X154768057Y-70790000D01*
X135191943Y-70790000D01*
X135164236Y-70508691D01*
X135082182Y-70238192D01*
X134948932Y-69988899D01*
X134769608Y-69770392D01*
X134551101Y-69591068D01*
X134301808Y-69457818D01*
X134031309Y-69375764D01*
X133820492Y-69355000D01*
X133279508Y-69355000D01*
X133068691Y-69375764D01*
X132798192Y-69457818D01*
X132548899Y-69591068D01*
X132330392Y-69770392D01*
X132151068Y-69988899D01*
X132017818Y-70238192D01*
X131935764Y-70508691D01*
X131908057Y-70790000D01*
X125394038Y-70790000D01*
X125526557Y-70701454D01*
X125781454Y-70446557D01*
X125981725Y-70146830D01*
X126119675Y-69813791D01*
X126190000Y-69460239D01*
X126190000Y-69099761D01*
X126119675Y-68746209D01*
X125981725Y-68413170D01*
X125781454Y-68113443D01*
X125526557Y-67858546D01*
X125226830Y-67658275D01*
X124893791Y-67520325D01*
X124540239Y-67450000D01*
X124179761Y-67450000D01*
X123826209Y-67520325D01*
X123493170Y-67658275D01*
X123193443Y-67858546D01*
X122938546Y-68113443D01*
X122738275Y-68413170D01*
X122600325Y-68746209D01*
X122530000Y-69099761D01*
X100710000Y-69099761D01*
X100710000Y-60710000D01*
X165290001Y-60710000D01*
X165290000Y-149290000D01*
%TA.AperFunction,Conductor*%
D22*
G36*
X165290000Y-149290000D02*
G01*
X100710000Y-149290000D01*
X100710000Y-143988000D01*
X155033928Y-143988000D01*
X155033928Y-146588000D01*
X155046188Y-146712482D01*
X155082498Y-146832180D01*
X155141463Y-146942494D01*
X155220815Y-147039185D01*
X155317506Y-147118537D01*
X155427820Y-147177502D01*
X155547518Y-147213812D01*
X155672000Y-147226072D01*
X158272000Y-147226072D01*
X158396482Y-147213812D01*
X158516180Y-147177502D01*
X158626494Y-147118537D01*
X158723185Y-147039185D01*
X158802537Y-146942494D01*
X158861502Y-146832180D01*
X158897812Y-146712482D01*
X158910072Y-146588000D01*
X158910072Y-143988000D01*
X158897812Y-143863518D01*
X158861502Y-143743820D01*
X158802537Y-143633506D01*
X158723185Y-143536815D01*
X158626494Y-143457463D01*
X158516180Y-143398498D01*
X158396482Y-143362188D01*
X158272000Y-143349928D01*
X155672000Y-143349928D01*
X155547518Y-143362188D01*
X155427820Y-143398498D01*
X155317506Y-143457463D01*
X155220815Y-143536815D01*
X155141463Y-143633506D01*
X155082498Y-143743820D01*
X155046188Y-143863518D01*
X155033928Y-143988000D01*
X100710000Y-143988000D01*
X100710000Y-140097419D01*
X155037000Y-140097419D01*
X155037000Y-140478581D01*
X155111361Y-140852419D01*
X155257225Y-141204566D01*
X155468987Y-141521491D01*
X155738509Y-141791013D01*
X156055434Y-142002775D01*
X156407581Y-142148639D01*
X156781419Y-142223000D01*
X157162581Y-142223000D01*
X157536419Y-142148639D01*
X157888566Y-142002775D01*
X158205491Y-141791013D01*
X158475013Y-141521491D01*
X158686775Y-141204566D01*
X158832639Y-140852419D01*
X158907000Y-140478581D01*
X158907000Y-140097419D01*
X158832639Y-139723581D01*
X158686775Y-139371434D01*
X158475013Y-139054509D01*
X158205491Y-138784987D01*
X157888566Y-138573225D01*
X157536419Y-138427361D01*
X157162581Y-138353000D01*
X156781419Y-138353000D01*
X156407581Y-138427361D01*
X156055434Y-138573225D01*
X155738509Y-138784987D01*
X155468987Y-139054509D01*
X155257225Y-139371434D01*
X155111361Y-139723581D01*
X155037000Y-140097419D01*
X100710000Y-140097419D01*
X100710000Y-132577560D01*
X122000000Y-132577560D01*
X122000000Y-133042440D01*
X122090694Y-133498387D01*
X122268595Y-133927879D01*
X122526868Y-134314412D01*
X122855588Y-134643132D01*
X123242121Y-134901405D01*
X123671613Y-135079306D01*
X124127560Y-135170000D01*
X124592440Y-135170000D01*
X125048387Y-135079306D01*
X125477879Y-134901405D01*
X125864412Y-134643132D01*
X126193132Y-134314412D01*
X126451405Y-133927879D01*
X126629306Y-133498387D01*
X126639917Y-133445039D01*
X129148096Y-133445039D01*
X129188754Y-133579087D01*
X129308963Y-133833420D01*
X129476481Y-134059414D01*
X129684869Y-134248385D01*
X129926119Y-134393070D01*
X130190960Y-134487909D01*
X130413000Y-134366624D01*
X130413000Y-133223000D01*
X130667000Y-133223000D01*
X130667000Y-134366624D01*
X130889040Y-134487909D01*
X131153881Y-134393070D01*
X131395131Y-134248385D01*
X131603519Y-134059414D01*
X131771037Y-133833420D01*
X131891246Y-133579087D01*
X131931904Y-133445039D01*
X131809915Y-133223000D01*
X130667000Y-133223000D01*
X130413000Y-133223000D01*
X129270085Y-133223000D01*
X129148096Y-133445039D01*
X126639917Y-133445039D01*
X126720000Y-133042440D01*
X126720000Y-132746961D01*
X129148096Y-132746961D01*
X129270085Y-132969000D01*
X130413000Y-132969000D01*
X130413000Y-131825376D01*
X130667000Y-131825376D01*
X130667000Y-132969000D01*
X131809915Y-132969000D01*
X131817790Y-132954665D01*
X144345000Y-132954665D01*
X144345000Y-133237335D01*
X144400147Y-133514574D01*
X144508320Y-133775727D01*
X144665363Y-134010759D01*
X144865241Y-134210637D01*
X145100273Y-134367680D01*
X145361426Y-134475853D01*
X145638665Y-134531000D01*
X145921335Y-134531000D01*
X146198574Y-134475853D01*
X146459727Y-134367680D01*
X146694759Y-134210637D01*
X146894637Y-134010759D01*
X147051680Y-133775727D01*
X147159853Y-133514574D01*
X147215000Y-133237335D01*
X147215000Y-132954665D01*
X147159853Y-132677426D01*
X147051680Y-132416273D01*
X146894637Y-132181241D01*
X146694759Y-131981363D01*
X146459727Y-131824320D01*
X146198574Y-131716147D01*
X145921335Y-131661000D01*
X145638665Y-131661000D01*
X145361426Y-131716147D01*
X145100273Y-131824320D01*
X144865241Y-131981363D01*
X144665363Y-132181241D01*
X144508320Y-132416273D01*
X144400147Y-132677426D01*
X144345000Y-132954665D01*
X131817790Y-132954665D01*
X131931904Y-132746961D01*
X131891246Y-132612913D01*
X131771037Y-132358580D01*
X131603519Y-132132586D01*
X131395131Y-131943615D01*
X131153881Y-131798930D01*
X130889040Y-131704091D01*
X130667000Y-131825376D01*
X130413000Y-131825376D01*
X130190960Y-131704091D01*
X129926119Y-131798930D01*
X129684869Y-131943615D01*
X129476481Y-132132586D01*
X129308963Y-132358580D01*
X129188754Y-132612913D01*
X129148096Y-132746961D01*
X126720000Y-132746961D01*
X126720000Y-132577560D01*
X126629306Y-132121613D01*
X126451405Y-131692121D01*
X126193132Y-131305588D01*
X125864412Y-130976868D01*
X125477879Y-130718595D01*
X125048387Y-130540694D01*
X124592440Y-130450000D01*
X124127560Y-130450000D01*
X123671613Y-130540694D01*
X123242121Y-130718595D01*
X122855588Y-130976868D01*
X122526868Y-131305588D01*
X122268595Y-131692121D01*
X122090694Y-132121613D01*
X122000000Y-132577560D01*
X100710000Y-132577560D01*
X100710000Y-128636665D01*
X129105000Y-128636665D01*
X129105000Y-128919335D01*
X129160147Y-129196574D01*
X129268320Y-129457727D01*
X129425363Y-129692759D01*
X129625241Y-129892637D01*
X129860273Y-130049680D01*
X130121426Y-130157853D01*
X130398665Y-130213000D01*
X130681335Y-130213000D01*
X130958574Y-130157853D01*
X131219727Y-130049680D01*
X131454759Y-129892637D01*
X131654637Y-129692759D01*
X131811680Y-129457727D01*
X131919853Y-129196574D01*
X131975000Y-128919335D01*
X131975000Y-128636665D01*
X144345000Y-128636665D01*
X144345000Y-128919335D01*
X144400147Y-129196574D01*
X144508320Y-129457727D01*
X144665363Y-129692759D01*
X144865241Y-129892637D01*
X145100273Y-130049680D01*
X145361426Y-130157853D01*
X145638665Y-130213000D01*
X145921335Y-130213000D01*
X146198574Y-130157853D01*
X146459727Y-130049680D01*
X146694759Y-129892637D01*
X146894637Y-129692759D01*
X147051680Y-129457727D01*
X147159853Y-129196574D01*
X147215000Y-128919335D01*
X147215000Y-128636665D01*
X147159853Y-128359426D01*
X147051680Y-128098273D01*
X146894637Y-127863241D01*
X146694759Y-127663363D01*
X146459727Y-127506320D01*
X146198574Y-127398147D01*
X145921335Y-127343000D01*
X145638665Y-127343000D01*
X145361426Y-127398147D01*
X145100273Y-127506320D01*
X144865241Y-127663363D01*
X144665363Y-127863241D01*
X144508320Y-128098273D01*
X144400147Y-128359426D01*
X144345000Y-128636665D01*
X131975000Y-128636665D01*
X131919853Y-128359426D01*
X131811680Y-128098273D01*
X131654637Y-127863241D01*
X131454759Y-127663363D01*
X131219727Y-127506320D01*
X130958574Y-127398147D01*
X130681335Y-127343000D01*
X130398665Y-127343000D01*
X130121426Y-127398147D01*
X129860273Y-127506320D01*
X129625241Y-127663363D01*
X129425363Y-127863241D01*
X129268320Y-128098273D01*
X129160147Y-128359426D01*
X129105000Y-128636665D01*
X100710000Y-128636665D01*
X100710000Y-124318665D01*
X129105000Y-124318665D01*
X129105000Y-124601335D01*
X129160147Y-124878574D01*
X129268320Y-125139727D01*
X129425363Y-125374759D01*
X129625241Y-125574637D01*
X129860273Y-125731680D01*
X130121426Y-125839853D01*
X130398665Y-125895000D01*
X130681335Y-125895000D01*
X130958574Y-125839853D01*
X131219727Y-125731680D01*
X131454759Y-125574637D01*
X131654637Y-125374759D01*
X131811680Y-125139727D01*
X131919853Y-124878574D01*
X131975000Y-124601335D01*
X131975000Y-124318665D01*
X144345000Y-124318665D01*
X144345000Y-124601335D01*
X144400147Y-124878574D01*
X144508320Y-125139727D01*
X144665363Y-125374759D01*
X144865241Y-125574637D01*
X145100273Y-125731680D01*
X145361426Y-125839853D01*
X145638665Y-125895000D01*
X145921335Y-125895000D01*
X146198574Y-125839853D01*
X146459727Y-125731680D01*
X146694759Y-125574637D01*
X146894637Y-125374759D01*
X147051680Y-125139727D01*
X147159853Y-124878574D01*
X147215000Y-124601335D01*
X147215000Y-124318665D01*
X147159853Y-124041426D01*
X147051680Y-123780273D01*
X146894637Y-123545241D01*
X146694759Y-123345363D01*
X146459727Y-123188320D01*
X146198574Y-123080147D01*
X145921335Y-123025000D01*
X145638665Y-123025000D01*
X145361426Y-123080147D01*
X145100273Y-123188320D01*
X144865241Y-123345363D01*
X144665363Y-123545241D01*
X144508320Y-123780273D01*
X144400147Y-124041426D01*
X144345000Y-124318665D01*
X131975000Y-124318665D01*
X131919853Y-124041426D01*
X131811680Y-123780273D01*
X131654637Y-123545241D01*
X131454759Y-123345363D01*
X131219727Y-123188320D01*
X130958574Y-123080147D01*
X130681335Y-123025000D01*
X130398665Y-123025000D01*
X130121426Y-123080147D01*
X129860273Y-123188320D01*
X129625241Y-123345363D01*
X129425363Y-123545241D01*
X129268320Y-123780273D01*
X129160147Y-124041426D01*
X129105000Y-124318665D01*
X100710000Y-124318665D01*
X100710000Y-120000665D01*
X129105000Y-120000665D01*
X129105000Y-120283335D01*
X129160147Y-120560574D01*
X129268320Y-120821727D01*
X129425363Y-121056759D01*
X129625241Y-121256637D01*
X129860273Y-121413680D01*
X130121426Y-121521853D01*
X130398665Y-121577000D01*
X130681335Y-121577000D01*
X130958574Y-121521853D01*
X131219727Y-121413680D01*
X131454759Y-121256637D01*
X131654637Y-121056759D01*
X131811680Y-120821727D01*
X131919853Y-120560574D01*
X131933684Y-120491039D01*
X144388096Y-120491039D01*
X144428754Y-120625087D01*
X144548963Y-120879420D01*
X144716481Y-121105414D01*
X144924869Y-121294385D01*
X145166119Y-121439070D01*
X145430960Y-121533909D01*
X145653000Y-121412624D01*
X145653000Y-120269000D01*
X145907000Y-120269000D01*
X145907000Y-121412624D01*
X146129040Y-121533909D01*
X146393881Y-121439070D01*
X146635131Y-121294385D01*
X146843519Y-121105414D01*
X147011037Y-120879420D01*
X147131246Y-120625087D01*
X147171904Y-120491039D01*
X147049915Y-120269000D01*
X145907000Y-120269000D01*
X145653000Y-120269000D01*
X144510085Y-120269000D01*
X144388096Y-120491039D01*
X131933684Y-120491039D01*
X131975000Y-120283335D01*
X131975000Y-120000665D01*
X131933685Y-119792961D01*
X144388096Y-119792961D01*
X144510085Y-120015000D01*
X145653000Y-120015000D01*
X145653000Y-118871376D01*
X145907000Y-118871376D01*
X145907000Y-120015000D01*
X147049915Y-120015000D01*
X147171904Y-119792961D01*
X147131246Y-119658913D01*
X147011037Y-119404580D01*
X146843519Y-119178586D01*
X146635131Y-118989615D01*
X146459027Y-118884000D01*
X153522928Y-118884000D01*
X153522928Y-120384000D01*
X153535188Y-120508482D01*
X153571498Y-120628180D01*
X153630463Y-120738494D01*
X153709815Y-120835185D01*
X153806506Y-120914537D01*
X153916820Y-120973502D01*
X154036518Y-121009812D01*
X154161000Y-121022072D01*
X155211000Y-121022072D01*
X155335482Y-121009812D01*
X155455180Y-120973502D01*
X155520057Y-120938824D01*
X155588663Y-120969272D01*
X155650190Y-120977964D01*
X155829000Y-120852163D01*
X155829000Y-120534235D01*
X155836812Y-120508482D01*
X155849072Y-120384000D01*
X155849072Y-119352022D01*
X156066000Y-119352022D01*
X156066000Y-119915979D01*
X156082785Y-120086400D01*
X156083000Y-120087109D01*
X156083000Y-120852163D01*
X156261810Y-120977964D01*
X156323337Y-120969272D01*
X156532882Y-120876275D01*
X156591331Y-120835071D01*
X156779941Y-120935885D01*
X156998601Y-121002215D01*
X157226000Y-121024612D01*
X157453400Y-121002215D01*
X157672060Y-120935885D01*
X157873579Y-120828171D01*
X158050212Y-120683212D01*
X158195171Y-120506579D01*
X158302885Y-120305059D01*
X158369215Y-120086399D01*
X158386000Y-119915978D01*
X158386000Y-119352021D01*
X158369215Y-119181600D01*
X158302885Y-118962940D01*
X158195171Y-118761421D01*
X158050212Y-118584788D01*
X157873578Y-118439829D01*
X157672059Y-118332115D01*
X157453399Y-118265785D01*
X157226000Y-118243388D01*
X156998600Y-118265785D01*
X156779940Y-118332115D01*
X156591331Y-118432929D01*
X156532882Y-118391725D01*
X156323337Y-118298728D01*
X156261810Y-118290036D01*
X156083000Y-118415837D01*
X156083000Y-119180892D01*
X156082785Y-119181601D01*
X156066000Y-119352022D01*
X155849072Y-119352022D01*
X155849072Y-118884000D01*
X155836812Y-118759518D01*
X155829000Y-118733765D01*
X155829000Y-118415837D01*
X155650190Y-118290036D01*
X155588663Y-118298728D01*
X155520057Y-118329176D01*
X155455180Y-118294498D01*
X155335482Y-118258188D01*
X155211000Y-118245928D01*
X154161000Y-118245928D01*
X154036518Y-118258188D01*
X153916820Y-118294498D01*
X153806506Y-118353463D01*
X153709815Y-118432815D01*
X153630463Y-118529506D01*
X153571498Y-118639820D01*
X153535188Y-118759518D01*
X153522928Y-118884000D01*
X146459027Y-118884000D01*
X146393881Y-118844930D01*
X146129040Y-118750091D01*
X145907000Y-118871376D01*
X145653000Y-118871376D01*
X145430960Y-118750091D01*
X145166119Y-118844930D01*
X144924869Y-118989615D01*
X144716481Y-119178586D01*
X144548963Y-119404580D01*
X144428754Y-119658913D01*
X144388096Y-119792961D01*
X131933685Y-119792961D01*
X131919853Y-119723426D01*
X131811680Y-119462273D01*
X131654637Y-119227241D01*
X131454759Y-119027363D01*
X131219727Y-118870320D01*
X130958574Y-118762147D01*
X130681335Y-118707000D01*
X130398665Y-118707000D01*
X130121426Y-118762147D01*
X129860273Y-118870320D01*
X129625241Y-119027363D01*
X129425363Y-119227241D01*
X129268320Y-119462273D01*
X129160147Y-119723426D01*
X129105000Y-120000665D01*
X100710000Y-120000665D01*
X100710000Y-112232413D01*
X130283146Y-112232413D01*
X130283146Y-112767587D01*
X130387553Y-113292477D01*
X130592355Y-113786913D01*
X130889681Y-114231894D01*
X131268106Y-114610319D01*
X131713087Y-114907645D01*
X132207523Y-115112447D01*
X132732413Y-115216854D01*
X133267587Y-115216854D01*
X133792477Y-115112447D01*
X134286913Y-114907645D01*
X134731894Y-114610319D01*
X135110319Y-114231894D01*
X135407645Y-113786913D01*
X135612447Y-113292477D01*
X135716854Y-112767587D01*
X135716854Y-112232413D01*
X135612447Y-111707523D01*
X135407645Y-111213087D01*
X135110319Y-110768106D01*
X134731894Y-110389681D01*
X134286913Y-110092355D01*
X133792477Y-109887553D01*
X133267587Y-109783146D01*
X132732413Y-109783146D01*
X132207523Y-109887553D01*
X131713087Y-110092355D01*
X131268106Y-110389681D01*
X130889681Y-110768106D01*
X130592355Y-111213087D01*
X130387553Y-111707523D01*
X130283146Y-112232413D01*
X100710000Y-112232413D01*
X100710000Y-106412408D01*
X138043000Y-106412408D01*
X138043000Y-106687592D01*
X138096686Y-106957490D01*
X138201995Y-107211727D01*
X138354880Y-107440535D01*
X138549465Y-107635120D01*
X138778273Y-107788005D01*
X138855515Y-107820000D01*
X138778273Y-107851995D01*
X138549465Y-108004880D01*
X138354880Y-108199465D01*
X138201995Y-108428273D01*
X138096686Y-108682510D01*
X138043000Y-108952408D01*
X138043000Y-109227592D01*
X138096686Y-109497490D01*
X138201995Y-109751727D01*
X138354880Y-109980535D01*
X138549465Y-110175120D01*
X138778273Y-110328005D01*
X138855515Y-110360000D01*
X138778273Y-110391995D01*
X138549465Y-110544880D01*
X138354880Y-110739465D01*
X138201995Y-110968273D01*
X138096686Y-111222510D01*
X138043000Y-111492408D01*
X138043000Y-111767592D01*
X138096686Y-112037490D01*
X138201995Y-112291727D01*
X138354880Y-112520535D01*
X138549465Y-112715120D01*
X138778273Y-112868005D01*
X138855515Y-112900000D01*
X138778273Y-112931995D01*
X138549465Y-113084880D01*
X138354880Y-113279465D01*
X138201995Y-113508273D01*
X138096686Y-113762510D01*
X138043000Y-114032408D01*
X138043000Y-114307592D01*
X138096686Y-114577490D01*
X138201995Y-114831727D01*
X138354880Y-115060535D01*
X138549465Y-115255120D01*
X138778273Y-115408005D01*
X139032510Y-115513314D01*
X139302408Y-115567000D01*
X139577592Y-115567000D01*
X139847490Y-115513314D01*
X140101727Y-115408005D01*
X140330535Y-115255120D01*
X140525120Y-115060535D01*
X140678005Y-114831727D01*
X140783314Y-114577490D01*
X140837000Y-114307592D01*
X140837000Y-114032408D01*
X140783314Y-113762510D01*
X140678005Y-113508273D01*
X140525120Y-113279465D01*
X140330535Y-113084880D01*
X140101727Y-112931995D01*
X140024485Y-112900000D01*
X140101727Y-112868005D01*
X140330535Y-112715120D01*
X140525120Y-112520535D01*
X140587438Y-112427269D01*
X154238336Y-112427269D01*
X154297797Y-112661037D01*
X154536242Y-112771934D01*
X154791740Y-112834183D01*
X155054473Y-112845390D01*
X155314344Y-112805125D01*
X155561366Y-112714935D01*
X155662203Y-112661037D01*
X155721664Y-112427269D01*
X154980000Y-111685605D01*
X154238336Y-112427269D01*
X140587438Y-112427269D01*
X140678005Y-112291727D01*
X140783314Y-112037490D01*
X140837000Y-111767592D01*
X140837000Y-111580473D01*
X153640610Y-111580473D01*
X153680875Y-111840344D01*
X153771065Y-112087366D01*
X153824963Y-112188203D01*
X154058731Y-112247664D01*
X154800395Y-111506000D01*
X155159605Y-111506000D01*
X155901269Y-112247664D01*
X156135037Y-112188203D01*
X156231592Y-111980596D01*
X156296939Y-112138359D01*
X156443038Y-112357013D01*
X156628987Y-112542962D01*
X156847641Y-112689061D01*
X157090595Y-112789696D01*
X157348514Y-112841000D01*
X157611486Y-112841000D01*
X157869405Y-112789696D01*
X158112359Y-112689061D01*
X158331013Y-112542962D01*
X158516962Y-112357013D01*
X158663061Y-112138359D01*
X158763696Y-111895405D01*
X158815000Y-111637486D01*
X158815000Y-111374514D01*
X158763696Y-111116595D01*
X158663061Y-110873641D01*
X158516962Y-110654987D01*
X158331013Y-110469038D01*
X158112359Y-110322939D01*
X157869405Y-110222304D01*
X157611486Y-110171000D01*
X157348514Y-110171000D01*
X157090595Y-110222304D01*
X156847641Y-110322939D01*
X156628987Y-110469038D01*
X156443038Y-110654987D01*
X156296939Y-110873641D01*
X156229639Y-111036118D01*
X156188935Y-110924634D01*
X156135037Y-110823797D01*
X155901269Y-110764336D01*
X155159605Y-111506000D01*
X154800395Y-111506000D01*
X154058731Y-110764336D01*
X153824963Y-110823797D01*
X153714066Y-111062242D01*
X153651817Y-111317740D01*
X153640610Y-111580473D01*
X140837000Y-111580473D01*
X140837000Y-111492408D01*
X140783314Y-111222510D01*
X140678005Y-110968273D01*
X140525120Y-110739465D01*
X140370386Y-110584731D01*
X154238336Y-110584731D01*
X154980000Y-111326395D01*
X155721664Y-110584731D01*
X155662203Y-110350963D01*
X155423758Y-110240066D01*
X155168260Y-110177817D01*
X154905527Y-110166610D01*
X154645656Y-110206875D01*
X154398634Y-110297065D01*
X154297797Y-110350963D01*
X154238336Y-110584731D01*
X140370386Y-110584731D01*
X140330535Y-110544880D01*
X140101727Y-110391995D01*
X140024485Y-110360000D01*
X140101727Y-110328005D01*
X140330535Y-110175120D01*
X140525120Y-109980535D01*
X140678005Y-109751727D01*
X140783314Y-109497490D01*
X140837000Y-109227592D01*
X140837000Y-108952408D01*
X140783314Y-108682510D01*
X140678005Y-108428273D01*
X140525120Y-108199465D01*
X140330535Y-108004880D01*
X140101727Y-107851995D01*
X140024485Y-107820000D01*
X140101727Y-107788005D01*
X140330535Y-107635120D01*
X140525120Y-107440535D01*
X140678005Y-107211727D01*
X140783314Y-106957490D01*
X140837000Y-106687592D01*
X140837000Y-106412408D01*
X140783314Y-106142510D01*
X140678005Y-105888273D01*
X140525120Y-105659465D01*
X140330535Y-105464880D01*
X140101727Y-105311995D01*
X140030057Y-105282308D01*
X140043023Y-105277636D01*
X140158980Y-105215656D01*
X140225960Y-104975565D01*
X139440000Y-104189605D01*
X138654040Y-104975565D01*
X138721020Y-105215656D01*
X138856760Y-105279485D01*
X138778273Y-105311995D01*
X138549465Y-105464880D01*
X138354880Y-105659465D01*
X138201995Y-105888273D01*
X138096686Y-106142510D01*
X138043000Y-106412408D01*
X100710000Y-106412408D01*
X100710000Y-104082017D01*
X138038090Y-104082017D01*
X138079078Y-104354133D01*
X138172364Y-104613023D01*
X138234344Y-104728980D01*
X138474435Y-104795960D01*
X139260395Y-104010000D01*
X139619605Y-104010000D01*
X140405565Y-104795960D01*
X140645656Y-104728980D01*
X140762756Y-104479952D01*
X140829023Y-104212865D01*
X140841910Y-103937983D01*
X140800922Y-103665867D01*
X140707636Y-103406977D01*
X140645656Y-103291020D01*
X140405565Y-103224040D01*
X139619605Y-104010000D01*
X139260395Y-104010000D01*
X138474435Y-103224040D01*
X138234344Y-103291020D01*
X138117244Y-103540048D01*
X138050977Y-103807135D01*
X138038090Y-104082017D01*
X100710000Y-104082017D01*
X100710000Y-100708000D01*
X138039928Y-100708000D01*
X138039928Y-102232000D01*
X138052188Y-102356482D01*
X138088498Y-102476180D01*
X138147463Y-102586494D01*
X138226815Y-102683185D01*
X138323506Y-102762537D01*
X138433820Y-102821502D01*
X138553518Y-102857812D01*
X138678000Y-102870072D01*
X138702683Y-102870072D01*
X138654040Y-103044435D01*
X139440000Y-103830395D01*
X140225960Y-103044435D01*
X140177317Y-102870072D01*
X140202000Y-102870072D01*
X140326482Y-102857812D01*
X140446180Y-102821502D01*
X140556494Y-102762537D01*
X140653185Y-102683185D01*
X140732537Y-102586494D01*
X140791502Y-102476180D01*
X140827812Y-102356482D01*
X140840072Y-102232000D01*
X140840072Y-100708000D01*
X140827812Y-100583518D01*
X140791502Y-100463820D01*
X140732537Y-100353506D01*
X140653185Y-100256815D01*
X140556494Y-100177463D01*
X140446180Y-100118498D01*
X140326482Y-100082188D01*
X140202000Y-100069928D01*
X138678000Y-100069928D01*
X138553518Y-100082188D01*
X138433820Y-100118498D01*
X138323506Y-100177463D01*
X138226815Y-100256815D01*
X138147463Y-100353506D01*
X138088498Y-100463820D01*
X138052188Y-100583518D01*
X138039928Y-100708000D01*
X100710000Y-100708000D01*
X100710000Y-77377560D01*
X106000000Y-77377560D01*
X106000000Y-77842440D01*
X106090694Y-78298387D01*
X106268595Y-78727879D01*
X106526868Y-79114412D01*
X106855588Y-79443132D01*
X107242121Y-79701405D01*
X107671613Y-79879306D01*
X108127560Y-79970000D01*
X108592440Y-79970000D01*
X109048387Y-79879306D01*
X109477879Y-79701405D01*
X109864412Y-79443132D01*
X110193132Y-79114412D01*
X110451405Y-78727879D01*
X110629306Y-78298387D01*
X110720000Y-77842440D01*
X110720000Y-77377560D01*
X110629306Y-76921613D01*
X110451405Y-76492121D01*
X110193132Y-76105588D01*
X109957544Y-75870000D01*
X131908057Y-75870000D01*
X131935764Y-76151309D01*
X132017818Y-76421808D01*
X132151068Y-76671101D01*
X132330392Y-76889608D01*
X132548899Y-77068932D01*
X132681858Y-77140000D01*
X132548899Y-77211068D01*
X132330392Y-77390392D01*
X132151068Y-77608899D01*
X132017818Y-77858192D01*
X131935764Y-78128691D01*
X131908057Y-78410000D01*
X131935764Y-78691309D01*
X132017818Y-78961808D01*
X132151068Y-79211101D01*
X132330392Y-79429608D01*
X132548899Y-79608932D01*
X132681858Y-79680000D01*
X132548899Y-79751068D01*
X132330392Y-79930392D01*
X132151068Y-80148899D01*
X132017818Y-80398192D01*
X131935764Y-80668691D01*
X131908057Y-80950000D01*
X131935764Y-81231309D01*
X132017818Y-81501808D01*
X132151068Y-81751101D01*
X132330392Y-81969608D01*
X132548899Y-82148932D01*
X132681858Y-82220000D01*
X132548899Y-82291068D01*
X132330392Y-82470392D01*
X132151068Y-82688899D01*
X132017818Y-82938192D01*
X131935764Y-83208691D01*
X131908057Y-83490000D01*
X131935764Y-83771309D01*
X132017818Y-84041808D01*
X132151068Y-84291101D01*
X132330392Y-84509608D01*
X132548899Y-84688932D01*
X132681858Y-84760000D01*
X132548899Y-84831068D01*
X132330392Y-85010392D01*
X132151068Y-85228899D01*
X132017818Y-85478192D01*
X131935764Y-85748691D01*
X131908057Y-86030000D01*
X131935764Y-86311309D01*
X132017818Y-86581808D01*
X132151068Y-86831101D01*
X132330392Y-87049608D01*
X132548899Y-87228932D01*
X132681858Y-87300000D01*
X132548899Y-87371068D01*
X132330392Y-87550392D01*
X132151068Y-87768899D01*
X132017818Y-88018192D01*
X131935764Y-88288691D01*
X131908057Y-88570000D01*
X131935764Y-88851309D01*
X132017818Y-89121808D01*
X132151068Y-89371101D01*
X132330392Y-89589608D01*
X132548899Y-89768932D01*
X132798192Y-89902182D01*
X133068691Y-89984236D01*
X133279508Y-90005000D01*
X133820492Y-90005000D01*
X134031309Y-89984236D01*
X134301808Y-89902182D01*
X134551101Y-89768932D01*
X134769608Y-89589608D01*
X134948932Y-89371101D01*
X135082182Y-89121808D01*
X135164236Y-88851309D01*
X135191943Y-88570000D01*
X135164236Y-88288691D01*
X135082182Y-88018192D01*
X134948932Y-87768899D01*
X134769608Y-87550392D01*
X134551101Y-87371068D01*
X134418142Y-87300000D01*
X134551101Y-87228932D01*
X134769608Y-87049608D01*
X134948932Y-86831101D01*
X135082182Y-86581808D01*
X135164236Y-86311309D01*
X135191943Y-86030000D01*
X135164236Y-85748691D01*
X135082182Y-85478192D01*
X134948932Y-85228899D01*
X134769608Y-85010392D01*
X134551101Y-84831068D01*
X134418142Y-84760000D01*
X134551101Y-84688932D01*
X134769608Y-84509608D01*
X134948932Y-84291101D01*
X135082182Y-84041808D01*
X135164236Y-83771309D01*
X135191943Y-83490000D01*
X135164236Y-83208691D01*
X135082182Y-82938192D01*
X134948932Y-82688899D01*
X134769608Y-82470392D01*
X134551101Y-82291068D01*
X134418142Y-82220000D01*
X134551101Y-82148932D01*
X134769608Y-81969608D01*
X134948932Y-81751101D01*
X135082182Y-81501808D01*
X135164236Y-81231309D01*
X135191943Y-80950000D01*
X135164236Y-80668691D01*
X135082182Y-80398192D01*
X134948932Y-80148899D01*
X134769608Y-79930392D01*
X134551101Y-79751068D01*
X134418142Y-79680000D01*
X134551101Y-79608932D01*
X134769608Y-79429608D01*
X134948932Y-79211101D01*
X135082182Y-78961808D01*
X135164236Y-78691309D01*
X135191943Y-78410000D01*
X135164236Y-78128691D01*
X135082182Y-77858192D01*
X134948932Y-77608899D01*
X134769608Y-77390392D01*
X134551101Y-77211068D01*
X134418142Y-77140000D01*
X134551101Y-77068932D01*
X134769608Y-76889608D01*
X134948932Y-76671101D01*
X135082182Y-76421808D01*
X135164236Y-76151309D01*
X135191943Y-75870000D01*
X135164236Y-75588691D01*
X135082182Y-75318192D01*
X134948932Y-75068899D01*
X134769608Y-74850392D01*
X134551101Y-74671068D01*
X134421655Y-74601878D01*
X134439227Y-74594430D01*
X134672662Y-74435673D01*
X134870639Y-74234425D01*
X135025551Y-73998421D01*
X135131444Y-73736730D01*
X135141904Y-73679039D01*
X135019915Y-73457000D01*
X133677000Y-73457000D01*
X133677000Y-73477000D01*
X133423000Y-73477000D01*
X133423000Y-73457000D01*
X132080085Y-73457000D01*
X131958096Y-73679039D01*
X131968556Y-73736730D01*
X132074449Y-73998421D01*
X132229361Y-74234425D01*
X132427338Y-74435673D01*
X132660773Y-74594430D01*
X132678345Y-74601878D01*
X132548899Y-74671068D01*
X132330392Y-74850392D01*
X132151068Y-75068899D01*
X132017818Y-75318192D01*
X131935764Y-75588691D01*
X131908057Y-75870000D01*
X109957544Y-75870000D01*
X109864412Y-75776868D01*
X109477879Y-75518595D01*
X109048387Y-75340694D01*
X108592440Y-75250000D01*
X108127560Y-75250000D01*
X107671613Y-75340694D01*
X107242121Y-75518595D01*
X106855588Y-75776868D01*
X106526868Y-76105588D01*
X106268595Y-76492121D01*
X106090694Y-76921613D01*
X106000000Y-77377560D01*
X100710000Y-77377560D01*
X100710000Y-69099761D01*
X122530000Y-69099761D01*
X122530000Y-69460239D01*
X122600325Y-69813791D01*
X122738275Y-70146830D01*
X122938546Y-70446557D01*
X123193443Y-70701454D01*
X123493170Y-70901725D01*
X123826209Y-71039675D01*
X124179761Y-71110000D01*
X124540239Y-71110000D01*
X124893791Y-71039675D01*
X125226830Y-70901725D01*
X125394038Y-70790000D01*
X131908057Y-70790000D01*
X131935764Y-71071309D01*
X132017818Y-71341808D01*
X132151068Y-71591101D01*
X132330392Y-71809608D01*
X132548899Y-71988932D01*
X132678345Y-72058122D01*
X132660773Y-72065570D01*
X132427338Y-72224327D01*
X132229361Y-72425575D01*
X132074449Y-72661579D01*
X131968556Y-72923270D01*
X131958096Y-72980961D01*
X132080085Y-73203000D01*
X133423000Y-73203000D01*
X133423000Y-73183000D01*
X133677000Y-73183000D01*
X133677000Y-73203000D01*
X135019915Y-73203000D01*
X135141904Y-72980961D01*
X135131444Y-72923270D01*
X135025551Y-72661579D01*
X134870639Y-72425575D01*
X134672662Y-72224327D01*
X134439227Y-72065570D01*
X134421655Y-72058122D01*
X134551101Y-71988932D01*
X134769608Y-71809608D01*
X134948932Y-71591101D01*
X135082182Y-71341808D01*
X135164236Y-71071309D01*
X135191943Y-70790000D01*
X154768057Y-70790000D01*
X154795764Y-71071309D01*
X154877818Y-71341808D01*
X155011068Y-71591101D01*
X155190392Y-71809608D01*
X155408899Y-71988932D01*
X155541858Y-72060000D01*
X155408899Y-72131068D01*
X155190392Y-72310392D01*
X155011068Y-72528899D01*
X154877818Y-72778192D01*
X154795764Y-73048691D01*
X154768057Y-73330000D01*
X154795764Y-73611309D01*
X154877818Y-73881808D01*
X155011068Y-74131101D01*
X155190392Y-74349608D01*
X155408899Y-74528932D01*
X155541858Y-74600000D01*
X155408899Y-74671068D01*
X155190392Y-74850392D01*
X155011068Y-75068899D01*
X154877818Y-75318192D01*
X154795764Y-75588691D01*
X154768057Y-75870000D01*
X154795764Y-76151309D01*
X154877818Y-76421808D01*
X155011068Y-76671101D01*
X155190392Y-76889608D01*
X155408899Y-77068932D01*
X155541858Y-77140000D01*
X155408899Y-77211068D01*
X155190392Y-77390392D01*
X155011068Y-77608899D01*
X154877818Y-77858192D01*
X154795764Y-78128691D01*
X154768057Y-78410000D01*
X154795764Y-78691309D01*
X154877818Y-78961808D01*
X155011068Y-79211101D01*
X155190392Y-79429608D01*
X155408899Y-79608932D01*
X155541858Y-79680000D01*
X155408899Y-79751068D01*
X155190392Y-79930392D01*
X155011068Y-80148899D01*
X154877818Y-80398192D01*
X154795764Y-80668691D01*
X154768057Y-80950000D01*
X154795764Y-81231309D01*
X154877818Y-81501808D01*
X155011068Y-81751101D01*
X155190392Y-81969608D01*
X155408899Y-82148932D01*
X155541858Y-82220000D01*
X155408899Y-82291068D01*
X155190392Y-82470392D01*
X155011068Y-82688899D01*
X154877818Y-82938192D01*
X154795764Y-83208691D01*
X154768057Y-83490000D01*
X154795764Y-83771309D01*
X154877818Y-84041808D01*
X155011068Y-84291101D01*
X155190392Y-84509608D01*
X155408899Y-84688932D01*
X155541858Y-84760000D01*
X155408899Y-84831068D01*
X155190392Y-85010392D01*
X155011068Y-85228899D01*
X154877818Y-85478192D01*
X154795764Y-85748691D01*
X154768057Y-86030000D01*
X154795764Y-86311309D01*
X154877818Y-86581808D01*
X155011068Y-86831101D01*
X155143476Y-86992441D01*
X155055506Y-87039463D01*
X154958815Y-87118815D01*
X154879463Y-87215506D01*
X154820498Y-87325820D01*
X154784188Y-87445518D01*
X154771928Y-87570000D01*
X154771928Y-89570000D01*
X154784188Y-89694482D01*
X154820498Y-89814180D01*
X154879463Y-89924494D01*
X154958815Y-90021185D01*
X155055506Y-90100537D01*
X155165820Y-90159502D01*
X155285518Y-90195812D01*
X155410000Y-90208072D01*
X157410000Y-90208072D01*
X157534482Y-90195812D01*
X157654180Y-90159502D01*
X157764494Y-90100537D01*
X157861185Y-90021185D01*
X157940537Y-89924494D01*
X157999502Y-89814180D01*
X158035812Y-89694482D01*
X158048072Y-89570000D01*
X158048072Y-87570000D01*
X158035812Y-87445518D01*
X157999502Y-87325820D01*
X157940537Y-87215506D01*
X157861185Y-87118815D01*
X157764494Y-87039463D01*
X157676524Y-86992441D01*
X157808932Y-86831101D01*
X157942182Y-86581808D01*
X158024236Y-86311309D01*
X158051943Y-86030000D01*
X158024236Y-85748691D01*
X157942182Y-85478192D01*
X157808932Y-85228899D01*
X157629608Y-85010392D01*
X157411101Y-84831068D01*
X157278142Y-84760000D01*
X157411101Y-84688932D01*
X157629608Y-84509608D01*
X157808932Y-84291101D01*
X157942182Y-84041808D01*
X158024236Y-83771309D01*
X158051943Y-83490000D01*
X158024236Y-83208691D01*
X157942182Y-82938192D01*
X157808932Y-82688899D01*
X157629608Y-82470392D01*
X157411101Y-82291068D01*
X157278142Y-82220000D01*
X157411101Y-82148932D01*
X157629608Y-81969608D01*
X157808932Y-81751101D01*
X157942182Y-81501808D01*
X158024236Y-81231309D01*
X158051943Y-80950000D01*
X158024236Y-80668691D01*
X157942182Y-80398192D01*
X157808932Y-80148899D01*
X157629608Y-79930392D01*
X157411101Y-79751068D01*
X157278142Y-79680000D01*
X157411101Y-79608932D01*
X157629608Y-79429608D01*
X157808932Y-79211101D01*
X157942182Y-78961808D01*
X158024236Y-78691309D01*
X158051943Y-78410000D01*
X158024236Y-78128691D01*
X157942182Y-77858192D01*
X157808932Y-77608899D01*
X157629608Y-77390392D01*
X157411101Y-77211068D01*
X157278142Y-77140000D01*
X157411101Y-77068932D01*
X157629608Y-76889608D01*
X157808932Y-76671101D01*
X157942182Y-76421808D01*
X158024236Y-76151309D01*
X158051943Y-75870000D01*
X158024236Y-75588691D01*
X157942182Y-75318192D01*
X157808932Y-75068899D01*
X157629608Y-74850392D01*
X157411101Y-74671068D01*
X157278142Y-74600000D01*
X157411101Y-74528932D01*
X157629608Y-74349608D01*
X157808932Y-74131101D01*
X157942182Y-73881808D01*
X158024236Y-73611309D01*
X158051943Y-73330000D01*
X158024236Y-73048691D01*
X157942182Y-72778192D01*
X157808932Y-72528899D01*
X157629608Y-72310392D01*
X157411101Y-72131068D01*
X157278142Y-72060000D01*
X157411101Y-71988932D01*
X157629608Y-71809608D01*
X157808932Y-71591101D01*
X157942182Y-71341808D01*
X158024236Y-71071309D01*
X158051943Y-70790000D01*
X158024236Y-70508691D01*
X157942182Y-70238192D01*
X157808932Y-69988899D01*
X157629608Y-69770392D01*
X157411101Y-69591068D01*
X157161808Y-69457818D01*
X156891309Y-69375764D01*
X156680492Y-69355000D01*
X156139508Y-69355000D01*
X155928691Y-69375764D01*
X155658192Y-69457818D01*
X155408899Y-69591068D01*
X155190392Y-69770392D01*
X155011068Y-69988899D01*
X154877818Y-70238192D01*
X154795764Y-70508691D01*
X154768057Y-70790000D01*
X135191943Y-70790000D01*
X135164236Y-70508691D01*
X135082182Y-70238192D01*
X134948932Y-69988899D01*
X134769608Y-69770392D01*
X134551101Y-69591068D01*
X134301808Y-69457818D01*
X134031309Y-69375764D01*
X133820492Y-69355000D01*
X133279508Y-69355000D01*
X133068691Y-69375764D01*
X132798192Y-69457818D01*
X132548899Y-69591068D01*
X132330392Y-69770392D01*
X132151068Y-69988899D01*
X132017818Y-70238192D01*
X131935764Y-70508691D01*
X131908057Y-70790000D01*
X125394038Y-70790000D01*
X125526557Y-70701454D01*
X125781454Y-70446557D01*
X125981725Y-70146830D01*
X126119675Y-69813791D01*
X126190000Y-69460239D01*
X126190000Y-69099761D01*
X126119675Y-68746209D01*
X125981725Y-68413170D01*
X125781454Y-68113443D01*
X125526557Y-67858546D01*
X125226830Y-67658275D01*
X124893791Y-67520325D01*
X124540239Y-67450000D01*
X124179761Y-67450000D01*
X123826209Y-67520325D01*
X123493170Y-67658275D01*
X123193443Y-67858546D01*
X122938546Y-68113443D01*
X122738275Y-68413170D01*
X122600325Y-68746209D01*
X122530000Y-69099761D01*
X100710000Y-69099761D01*
X100710000Y-60710000D01*
X165290001Y-60710000D01*
X165290000Y-149290000D01*
G37*
%TD.AperFunction*%
%TD*%
M02*
