%TF.GenerationSoftware,KiCad,Pcbnew,5.1.12-84ad8e8a86~92~ubuntu16.04.1*%
%TF.CreationDate,2023-10-16T18:07:55-03:00*%
%TF.ProjectId,BlackBox,426c6163-6b42-46f7-982e-6b696361645f,rev?*%
%TF.SameCoordinates,Original*%
%TF.FileFunction,Legend,Top*%
%TF.FilePolarity,Positive*%
%FSLAX46Y46*%
G04 Gerber Fmt 4.6, Leading zero omitted, Abs format (unit mm)*
G04 Created by KiCad (PCBNEW 5.1.12-84ad8e8a86~92~ubuntu16.04.1) date 2023-10-16 18:07:55*
%MOMM*%
%LPD*%
G01*
G04 APERTURE LIST*
%ADD10C,0.120000*%
%ADD11C,0.150000*%
G04 APERTURE END LIST*
D10*
%TO.C,U2*%
X157794478Y-121472478D02*
G75*
G03*
X155956000Y-117034000I-1838478J1838478D01*
G01*
X154117522Y-121472478D02*
G75*
G02*
X155956000Y-117034000I1838478J1838478D01*
G01*
X154156000Y-121484000D02*
X157756000Y-121484000D01*
%TO.C,R3*%
X134890000Y-118772000D02*
X134890000Y-121512000D01*
X134890000Y-121512000D02*
X141430000Y-121512000D01*
X141430000Y-121512000D02*
X141430000Y-118772000D01*
X141430000Y-118772000D02*
X134890000Y-118772000D01*
X131580000Y-120142000D02*
X134890000Y-120142000D01*
X144740000Y-120142000D02*
X141430000Y-120142000D01*
%TO.C,R2*%
X141430000Y-125830000D02*
X141430000Y-123090000D01*
X141430000Y-123090000D02*
X134890000Y-123090000D01*
X134890000Y-123090000D02*
X134890000Y-125830000D01*
X134890000Y-125830000D02*
X141430000Y-125830000D01*
X144740000Y-124460000D02*
X141430000Y-124460000D01*
X131580000Y-124460000D02*
X134890000Y-124460000D01*
%TO.C,R1*%
X141430000Y-130148000D02*
X141430000Y-127408000D01*
X141430000Y-127408000D02*
X134890000Y-127408000D01*
X134890000Y-127408000D02*
X134890000Y-130148000D01*
X134890000Y-130148000D02*
X141430000Y-130148000D01*
X144740000Y-128778000D02*
X141430000Y-128778000D01*
X131580000Y-128778000D02*
X134890000Y-128778000D01*
%TO.C,A1*%
X138424000Y-100454000D02*
X149600000Y-100454000D01*
X149600000Y-100454000D02*
X149600000Y-115186000D01*
X149600000Y-115186000D02*
X138424000Y-115186000D01*
X138424000Y-115186000D02*
X138424000Y-100454000D01*
%TO.C,BT1*%
X119800000Y-66570000D02*
X119800000Y-62210000D01*
X105920000Y-66570000D02*
X112920000Y-66570000D01*
X105920000Y-143850000D02*
X105920000Y-66570000D01*
X112920000Y-143850000D02*
X105920000Y-143850000D01*
X126800000Y-66570000D02*
X119800000Y-66570000D01*
X126800000Y-143850000D02*
X126800000Y-66570000D01*
X119800000Y-143850000D02*
X126780000Y-143850000D01*
X122360000Y-148960000D02*
X122360000Y-146460000D01*
X122360000Y-61460000D02*
X122360000Y-63960000D01*
X121110000Y-62710000D02*
X123610000Y-62710000D01*
%TO.C,C1*%
X158650000Y-112626000D02*
X153810000Y-112626000D01*
X158650000Y-110386000D02*
X153810000Y-110386000D01*
X158650000Y-112626000D02*
X158650000Y-110386000D01*
X153810000Y-112626000D02*
X153810000Y-110386000D01*
%TO.C,R4*%
X141430000Y-134466000D02*
X141430000Y-131726000D01*
X141430000Y-131726000D02*
X134890000Y-131726000D01*
X134890000Y-131726000D02*
X134890000Y-134466000D01*
X134890000Y-134466000D02*
X141430000Y-134466000D01*
X144740000Y-133096000D02*
X141430000Y-133096000D01*
X131580000Y-133096000D02*
X134890000Y-133096000D01*
%TO.C,SW1*%
X158652000Y-140288000D02*
G75*
G03*
X158652000Y-140288000I-1680000J0D01*
G01*
X161072000Y-147848000D02*
X161072000Y-137728000D01*
X159572000Y-147848000D02*
X159572000Y-137728000D01*
X154671000Y-147848000D02*
X154671000Y-137728000D01*
X151711000Y-147848000D02*
X151711000Y-137728000D01*
X161632000Y-147848000D02*
X161632000Y-137728000D01*
X151711000Y-147848000D02*
X161632000Y-147848000D01*
X151711000Y-137728000D02*
X161632000Y-137728000D01*
X155903000Y-139013000D02*
X155949000Y-139060000D01*
X158211000Y-141322000D02*
X158246000Y-141357000D01*
X155697000Y-139218000D02*
X155733000Y-139253000D01*
X157995000Y-141515000D02*
X158041000Y-141562000D01*
X161132000Y-148088000D02*
X161872000Y-148088000D01*
X161872000Y-148088000D02*
X161872000Y-147588000D01*
X158506756Y-144604682D02*
G75*
G02*
X158652000Y-145288000I-1534756J-683318D01*
G01*
X156288958Y-143752574D02*
G75*
G02*
X157656000Y-143753000I683042J-1535426D01*
G01*
X155436574Y-145971042D02*
G75*
G02*
X155437000Y-144604000I1535426J683042D01*
G01*
X157655042Y-146823426D02*
G75*
G02*
X156288000Y-146823000I-683042J1535426D01*
G01*
X158652253Y-145259195D02*
G75*
G02*
X158507000Y-145972000I-1680253J-28805D01*
G01*
%TO.C,U1*%
X155370000Y-62450000D02*
X132050000Y-62450000D01*
X157910000Y-69350000D02*
X157910000Y-94780000D01*
X132050000Y-62450000D02*
X132050000Y-94780000D01*
X134170000Y-96910000D02*
X155780000Y-96910000D01*
D11*
G36*
X158950000Y-89205000D02*
G01*
X158950000Y-87935000D01*
X158315000Y-88570000D01*
X158950000Y-89205000D01*
G37*
X158950000Y-89205000D02*
X158950000Y-87935000D01*
X158315000Y-88570000D01*
X158950000Y-89205000D01*
D10*
X157910000Y-69350000D02*
X155370000Y-69350000D01*
X155370000Y-69350000D02*
X155370000Y-62450000D01*
X157910000Y-94780000D02*
G75*
G02*
X155780000Y-96910000I-2130000J0D01*
G01*
X134180000Y-96910000D02*
G75*
G02*
X132050000Y-94780000I0J2130000D01*
G01*
%TO.C,U2*%
D11*
X155194095Y-115526380D02*
X155194095Y-116335904D01*
X155241714Y-116431142D01*
X155289333Y-116478761D01*
X155384571Y-116526380D01*
X155575047Y-116526380D01*
X155670285Y-116478761D01*
X155717904Y-116431142D01*
X155765523Y-116335904D01*
X155765523Y-115526380D01*
X156194095Y-115621619D02*
X156241714Y-115574000D01*
X156336952Y-115526380D01*
X156575047Y-115526380D01*
X156670285Y-115574000D01*
X156717904Y-115621619D01*
X156765523Y-115716857D01*
X156765523Y-115812095D01*
X156717904Y-115954952D01*
X156146476Y-116526380D01*
X156765523Y-116526380D01*
%TO.C,R3*%
X148153333Y-120594380D02*
X147820000Y-120118190D01*
X147581904Y-120594380D02*
X147581904Y-119594380D01*
X147962857Y-119594380D01*
X148058095Y-119642000D01*
X148105714Y-119689619D01*
X148153333Y-119784857D01*
X148153333Y-119927714D01*
X148105714Y-120022952D01*
X148058095Y-120070571D01*
X147962857Y-120118190D01*
X147581904Y-120118190D01*
X148486666Y-119594380D02*
X149105714Y-119594380D01*
X148772380Y-119975333D01*
X148915238Y-119975333D01*
X149010476Y-120022952D01*
X149058095Y-120070571D01*
X149105714Y-120165809D01*
X149105714Y-120403904D01*
X149058095Y-120499142D01*
X149010476Y-120546761D01*
X148915238Y-120594380D01*
X148629523Y-120594380D01*
X148534285Y-120546761D01*
X148486666Y-120499142D01*
%TO.C,R2*%
X148153333Y-125166380D02*
X147820000Y-124690190D01*
X147581904Y-125166380D02*
X147581904Y-124166380D01*
X147962857Y-124166380D01*
X148058095Y-124214000D01*
X148105714Y-124261619D01*
X148153333Y-124356857D01*
X148153333Y-124499714D01*
X148105714Y-124594952D01*
X148058095Y-124642571D01*
X147962857Y-124690190D01*
X147581904Y-124690190D01*
X148534285Y-124261619D02*
X148581904Y-124214000D01*
X148677142Y-124166380D01*
X148915238Y-124166380D01*
X149010476Y-124214000D01*
X149058095Y-124261619D01*
X149105714Y-124356857D01*
X149105714Y-124452095D01*
X149058095Y-124594952D01*
X148486666Y-125166380D01*
X149105714Y-125166380D01*
%TO.C,R1*%
X148423333Y-129230380D02*
X148090000Y-128754190D01*
X147851904Y-129230380D02*
X147851904Y-128230380D01*
X148232857Y-128230380D01*
X148328095Y-128278000D01*
X148375714Y-128325619D01*
X148423333Y-128420857D01*
X148423333Y-128563714D01*
X148375714Y-128658952D01*
X148328095Y-128706571D01*
X148232857Y-128754190D01*
X147851904Y-128754190D01*
X149375714Y-129230380D02*
X148804285Y-129230380D01*
X149090000Y-129230380D02*
X149090000Y-128230380D01*
X148994761Y-128373238D01*
X148899523Y-128468476D01*
X148804285Y-128516095D01*
%TO.C,A1*%
X138725714Y-99636666D02*
X139201904Y-99636666D01*
X138630476Y-99922380D02*
X138963809Y-98922380D01*
X139297142Y-99922380D01*
X140154285Y-99922380D02*
X139582857Y-99922380D01*
X139868571Y-99922380D02*
X139868571Y-98922380D01*
X139773333Y-99065238D01*
X139678095Y-99160476D01*
X139582857Y-99208095D01*
%TO.C,BT1*%
X127788571Y-105995714D02*
X127836190Y-105852857D01*
X127883809Y-105805238D01*
X127979047Y-105757619D01*
X128121904Y-105757619D01*
X128217142Y-105805238D01*
X128264761Y-105852857D01*
X128312380Y-105948095D01*
X128312380Y-106329047D01*
X127312380Y-106329047D01*
X127312380Y-105995714D01*
X127360000Y-105900476D01*
X127407619Y-105852857D01*
X127502857Y-105805238D01*
X127598095Y-105805238D01*
X127693333Y-105852857D01*
X127740952Y-105900476D01*
X127788571Y-105995714D01*
X127788571Y-106329047D01*
X127312380Y-105471904D02*
X127312380Y-104900476D01*
X128312380Y-105186190D02*
X127312380Y-105186190D01*
X128312380Y-104043333D02*
X128312380Y-104614761D01*
X128312380Y-104329047D02*
X127312380Y-104329047D01*
X127455238Y-104424285D01*
X127550476Y-104519523D01*
X127598095Y-104614761D01*
%TO.C,C1*%
X155789333Y-109577142D02*
X155741714Y-109624761D01*
X155598857Y-109672380D01*
X155503619Y-109672380D01*
X155360761Y-109624761D01*
X155265523Y-109529523D01*
X155217904Y-109434285D01*
X155170285Y-109243809D01*
X155170285Y-109100952D01*
X155217904Y-108910476D01*
X155265523Y-108815238D01*
X155360761Y-108720000D01*
X155503619Y-108672380D01*
X155598857Y-108672380D01*
X155741714Y-108720000D01*
X155789333Y-108767619D01*
X156741714Y-109672380D02*
X156170285Y-109672380D01*
X156456000Y-109672380D02*
X156456000Y-108672380D01*
X156360761Y-108815238D01*
X156265523Y-108910476D01*
X156170285Y-108958095D01*
%TO.C,R4*%
X148677333Y-133548380D02*
X148344000Y-133072190D01*
X148105904Y-133548380D02*
X148105904Y-132548380D01*
X148486857Y-132548380D01*
X148582095Y-132596000D01*
X148629714Y-132643619D01*
X148677333Y-132738857D01*
X148677333Y-132881714D01*
X148629714Y-132976952D01*
X148582095Y-133024571D01*
X148486857Y-133072190D01*
X148105904Y-133072190D01*
X149534476Y-132881714D02*
X149534476Y-133548380D01*
X149296380Y-132500761D02*
X149058285Y-133215047D01*
X149677333Y-133215047D01*
%TO.C,SW1*%
X151116761Y-144121333D02*
X151164380Y-143978476D01*
X151164380Y-143740380D01*
X151116761Y-143645142D01*
X151069142Y-143597523D01*
X150973904Y-143549904D01*
X150878666Y-143549904D01*
X150783428Y-143597523D01*
X150735809Y-143645142D01*
X150688190Y-143740380D01*
X150640571Y-143930857D01*
X150592952Y-144026095D01*
X150545333Y-144073714D01*
X150450095Y-144121333D01*
X150354857Y-144121333D01*
X150259619Y-144073714D01*
X150212000Y-144026095D01*
X150164380Y-143930857D01*
X150164380Y-143692761D01*
X150212000Y-143549904D01*
X150164380Y-143216571D02*
X151164380Y-142978476D01*
X150450095Y-142788000D01*
X151164380Y-142597523D01*
X150164380Y-142359428D01*
X151164380Y-141454666D02*
X151164380Y-142026095D01*
X151164380Y-141740380D02*
X150164380Y-141740380D01*
X150307238Y-141835619D01*
X150402476Y-141930857D01*
X150450095Y-142026095D01*
%TO.C,U1*%
X133648095Y-61022380D02*
X133648095Y-61831904D01*
X133695714Y-61927142D01*
X133743333Y-61974761D01*
X133838571Y-62022380D01*
X134029047Y-62022380D01*
X134124285Y-61974761D01*
X134171904Y-61927142D01*
X134219523Y-61831904D01*
X134219523Y-61022380D01*
X135219523Y-62022380D02*
X134648095Y-62022380D01*
X134933809Y-62022380D02*
X134933809Y-61022380D01*
X134838571Y-61165238D01*
X134743333Y-61260476D01*
X134648095Y-61308095D01*
%TD*%
M02*
