M48
; DRILL file {KiCad 5.1.12-84ad8e8a86~92~ubuntu16.04.1} date Seg 16 Out 2023 18:07:52 -03
; FORMAT={-:-/ absolute / metric / decimal}
; #@! TF.CreationDate,2023-10-16T18:07:52-03:00
; #@! TF.GenerationSoftware,Kicad,Pcbnew,5.1.12-84ad8e8a86~92~ubuntu16.04.1
; #@! TF.FileFunction,Plated,1,2,PTH
FMAT,2
METRIC
T1C0.700
T2C0.750
T3C0.762
T4C0.800
T5C1.000
T6C1.300
%
G90
G05
T1
X154.98Y-111.506
X157.48Y-111.506
T2
X154.686Y-119.634
X155.956Y-119.634
X157.226Y-119.634
T3
X139.44Y-101.47
X139.44Y-104.01
X139.44Y-106.55
X139.44Y-109.09
X139.44Y-111.63
X139.44Y-114.17
T4
X130.54Y-120.142
X130.54Y-124.46
X130.54Y-128.778
X130.54Y-133.096
X145.78Y-120.142
X145.78Y-124.46
X145.78Y-128.778
X145.78Y-133.096
T5
X133.55Y-70.79
X133.55Y-73.33
X133.55Y-75.87
X133.55Y-78.41
X133.55Y-80.95
X133.55Y-83.49
X133.55Y-86.03
X133.55Y-88.57
X156.41Y-70.79
X156.41Y-73.33
X156.41Y-75.87
X156.41Y-78.41
X156.41Y-80.95
X156.41Y-83.49
X156.41Y-86.03
X156.41Y-88.57
T6
X156.972Y-140.288
X156.972Y-145.288
T0
M30
