%TF.GenerationSoftware,KiCad,Pcbnew,7.0.7*%
%TF.CreationDate,2023-12-03T23:29:23-03:00*%
%TF.ProjectId,Chocadeira,43686f63-6164-4656-9972-612e6b696361,rev?*%
%TF.SameCoordinates,Original*%
%TF.FileFunction,Copper,L2,Bot*%
%TF.FilePolarity,Positive*%
%FSLAX46Y46*%
G04 Gerber Fmt 4.6, Leading zero omitted, Abs format (unit mm)*
G04 Created by KiCad (PCBNEW 7.0.7) date 2023-12-03 23:29:23*
%MOMM*%
%LPD*%
G01*
G04 APERTURE LIST*
G04 Aperture macros list*
%AMRoundRect*
0 Rectangle with rounded corners*
0 $1 Rounding radius*
0 $2 $3 $4 $5 $6 $7 $8 $9 X,Y pos of 4 corners*
0 Add a 4 corners polygon primitive as box body*
4,1,4,$2,$3,$4,$5,$6,$7,$8,$9,$2,$3,0*
0 Add four circle primitives for the rounded corners*
1,1,$1+$1,$2,$3*
1,1,$1+$1,$4,$5*
1,1,$1+$1,$6,$7*
1,1,$1+$1,$8,$9*
0 Add four rect primitives between the rounded corners*
20,1,$1+$1,$2,$3,$4,$5,0*
20,1,$1+$1,$4,$5,$6,$7,0*
20,1,$1+$1,$6,$7,$8,$9,0*
20,1,$1+$1,$8,$9,$2,$3,0*%
G04 Aperture macros list end*
%TA.AperFunction,ComponentPad*%
%ADD10R,0.850000X0.850000*%
%TD*%
%TA.AperFunction,ComponentPad*%
%ADD11O,0.850000X0.850000*%
%TD*%
%TA.AperFunction,ComponentPad*%
%ADD12C,2.400000*%
%TD*%
%TA.AperFunction,ComponentPad*%
%ADD13O,2.400000X2.400000*%
%TD*%
%TA.AperFunction,ComponentPad*%
%ADD14R,1.000000X1.000000*%
%TD*%
%TA.AperFunction,ComponentPad*%
%ADD15O,1.000000X1.000000*%
%TD*%
%TA.AperFunction,ComponentPad*%
%ADD16C,2.000000*%
%TD*%
%TA.AperFunction,ComponentPad*%
%ADD17R,1.905000X2.000000*%
%TD*%
%TA.AperFunction,ComponentPad*%
%ADD18O,1.905000X2.000000*%
%TD*%
%TA.AperFunction,ComponentPad*%
%ADD19C,2.700000*%
%TD*%
%TA.AperFunction,ComponentPad*%
%ADD20R,2.400000X2.400000*%
%TD*%
%TA.AperFunction,ComponentPad*%
%ADD21C,1.600000*%
%TD*%
%TA.AperFunction,ComponentPad*%
%ADD22O,1.600000X1.600000*%
%TD*%
%TA.AperFunction,ComponentPad*%
%ADD23R,1.730000X2.030000*%
%TD*%
%TA.AperFunction,ComponentPad*%
%ADD24O,1.730000X2.030000*%
%TD*%
%TA.AperFunction,ComponentPad*%
%ADD25R,1.600000X1.600000*%
%TD*%
%TA.AperFunction,ComponentPad*%
%ADD26RoundRect,0.250000X0.625000X-0.350000X0.625000X0.350000X-0.625000X0.350000X-0.625000X-0.350000X0*%
%TD*%
%TA.AperFunction,ComponentPad*%
%ADD27O,1.750000X1.200000*%
%TD*%
%TA.AperFunction,Conductor*%
%ADD28C,0.250000*%
%TD*%
G04 APERTURE END LIST*
D10*
%TO.P,RTC1,1,Pin_1*%
%TO.N,VCC*%
X223520000Y-81280000D03*
D11*
%TO.P,RTC1,2,Pin_2*%
%TO.N,Net-(RTC1-Pin_2)*%
X223520000Y-82280000D03*
%TO.P,RTC1,3,Pin_3*%
%TO.N,Net-(RTC1-Pin_3)*%
X223520000Y-83280000D03*
%TO.P,RTC1,4,Pin_4*%
%TO.N,GND*%
X223520000Y-84280000D03*
%TD*%
D12*
%TO.P,R4,1*%
%TO.N,GND*%
X137160000Y-139700000D03*
D13*
%TO.P,R4,2*%
%TO.N,Net-(D1-A)*%
X157480000Y-139700000D03*
%TD*%
D10*
%TO.P,LED,1,K*%
%TO.N,Net-(D1-K)*%
X134320000Y-149330000D03*
D11*
%TO.P,LED,2,A*%
%TO.N,Net-(D1-A)*%
X134320000Y-150330000D03*
%TD*%
%TO.P,Dimmer1,4,Pin_4*%
%TO.N,VCC*%
X101600000Y-132080000D03*
%TO.P,Dimmer1,3,Pin_3*%
%TO.N,Net-(Dimmer1-Pin_3)*%
X100600000Y-132080000D03*
%TO.P,Dimmer1,2,Pin_2*%
%TO.N,Net-(Dimmer1-Pin_2)*%
X99600000Y-132080000D03*
D10*
%TO.P,Dimmer1,1,Pin_1*%
%TO.N,GND*%
X98600000Y-132080000D03*
%TD*%
D14*
%TO.P,DHT1,1,Pin_1*%
%TO.N,VCC*%
X139700000Y-93980000D03*
D15*
%TO.P,DHT1,2,Pin_2*%
%TO.N,Net-(DHT1-Pin_2)*%
X139700000Y-95250000D03*
%TO.P,DHT1,3,Pin_3*%
%TO.N,GND*%
X139700000Y-96520000D03*
%TD*%
D16*
%TO.P,C1,1*%
%TO.N,XTAL2*%
X154182000Y-93892000D03*
%TO.P,C1,2*%
%TO.N,GND*%
X159182000Y-93892000D03*
%TD*%
%TO.P,C2,1*%
%TO.N,XTAL1*%
X154182000Y-100442000D03*
%TO.P,C2,2*%
%TO.N,GND*%
X159182000Y-100442000D03*
%TD*%
D17*
%TO.P,U1,1,IN*%
%TO.N,Alimentacao*%
X152762000Y-86792000D03*
D18*
%TO.P,U1,2,GND*%
%TO.N,GND*%
X155302000Y-86792000D03*
%TO.P,U1,3,OUT*%
%TO.N,VCC*%
X157842000Y-86792000D03*
%TD*%
D12*
%TO.P,R2,1*%
%TO.N,GND*%
X171196000Y-134366000D03*
D13*
%TO.P,R2,2*%
%TO.N,Net-(D1-A)*%
X191516000Y-134366000D03*
%TD*%
D19*
%TO.P,16MHz1,1,1*%
%TO.N,XTAL2*%
X187856000Y-81026000D03*
%TO.P,16MHz1,2,2*%
%TO.N,XTAL1*%
X200196000Y-81026000D03*
%TD*%
D20*
%TO.P,C5,1*%
%TO.N,VCC*%
X119380000Y-88900000D03*
D12*
%TO.P,C5,2*%
%TO.N,GND*%
X124380000Y-88900000D03*
%TD*%
D21*
%TO.P,C4,1*%
%TO.N,VCC*%
X151102000Y-80542000D03*
D22*
%TO.P,C4,2*%
%TO.N,GND*%
X161102000Y-80542000D03*
%TD*%
D23*
%TO.P,Display1,1,Pin_1*%
%TO.N,Net-(Display1-Pin_1)*%
X198120000Y-121158000D03*
D24*
%TO.P,Display1,2,Pin_2*%
%TO.N,Net-(Display1-Pin_2)*%
X195580000Y-121158000D03*
%TO.P,Display1,3,Pin_3*%
%TO.N,VCC*%
X193040000Y-121158000D03*
%TO.P,Display1,4,Pin_4*%
%TO.N,GND*%
X190500000Y-121158000D03*
%TD*%
D12*
%TO.P,R1,1*%
%TO.N,VCC*%
X191516000Y-147320000D03*
D13*
%TO.P,R1,2*%
%TO.N,Reset*%
X171196000Y-147320000D03*
%TD*%
D25*
%TO.P,U2,1,~{RESET}/PC6*%
%TO.N,Reset*%
X210208000Y-95250000D03*
D22*
%TO.P,U2,2,PD0*%
%TO.N,TX*%
X207668000Y-95250000D03*
%TO.P,U2,3,PD1*%
%TO.N,RX*%
X205128000Y-95250000D03*
%TO.P,U2,4,PD2*%
%TO.N,Net-(Dimmer1-Pin_3)*%
X202588000Y-95250000D03*
%TO.P,U2,5,PD3*%
%TO.N,Net-(Dimmer1-Pin_2)*%
X200048000Y-95250000D03*
%TO.P,U2,6,PD4*%
%TO.N,Net-(D1-K)*%
X197508000Y-95250000D03*
%TO.P,U2,7,VCC*%
%TO.N,VCC*%
X194968000Y-95250000D03*
%TO.P,U2,8,GND*%
%TO.N,GND*%
X192428000Y-95250000D03*
%TO.P,U2,9,XTAL1/PB6*%
%TO.N,XTAL1*%
X189888000Y-95250000D03*
%TO.P,U2,10,XTAL2/PB7*%
%TO.N,XTAL2*%
X187348000Y-95250000D03*
%TO.P,U2,11,PD5*%
%TO.N,Net-(Servo1-Pin_2)*%
X184808000Y-95250000D03*
%TO.P,U2,12,PD6*%
%TO.N,Net-(DHT1-Pin_2)*%
X182268000Y-95250000D03*
%TO.P,U2,13,PD7*%
%TO.N,unconnected-(U2-PD7-Pad13)*%
X179728000Y-95250000D03*
%TO.P,U2,14,PB0*%
%TO.N,unconnected-(U2-PB0-Pad14)*%
X177188000Y-95250000D03*
%TO.P,U2,15,PB1*%
%TO.N,unconnected-(U2-PB1-Pad15)*%
X177188000Y-102870000D03*
%TO.P,U2,16,PB2*%
%TO.N,unconnected-(U2-PB2-Pad16)*%
X179728000Y-102870000D03*
%TO.P,U2,17,PB3*%
%TO.N,unconnected-(U2-PB3-Pad17)*%
X182268000Y-102870000D03*
%TO.P,U2,18,PB4*%
%TO.N,unconnected-(U2-PB4-Pad18)*%
X184808000Y-102870000D03*
%TO.P,U2,19,PB5*%
%TO.N,unconnected-(U2-PB5-Pad19)*%
X187348000Y-102870000D03*
%TO.P,U2,20,AVCC*%
%TO.N,VCC*%
X189888000Y-102870000D03*
%TO.P,U2,21,AREF*%
%TO.N,unconnected-(U2-AREF-Pad21)*%
X192428000Y-102870000D03*
%TO.P,U2,22,GND*%
%TO.N,GND*%
X194968000Y-102870000D03*
%TO.P,U2,23,PC0*%
%TO.N,Net-(Display1-Pin_1)*%
X197508000Y-102870000D03*
%TO.P,U2,24,PC1*%
%TO.N,Net-(Display1-Pin_2)*%
X200048000Y-102870000D03*
%TO.P,U2,25,PC2*%
%TO.N,unconnected-(U2-PC2-Pad25)*%
X202588000Y-102870000D03*
%TO.P,U2,26,PC3*%
%TO.N,unconnected-(U2-PC3-Pad26)*%
X205128000Y-102870000D03*
%TO.P,U2,27,PC4*%
%TO.N,Net-(RTC1-Pin_3)*%
X207668000Y-102870000D03*
%TO.P,U2,28,PC5*%
%TO.N,Net-(RTC1-Pin_2)*%
X210208000Y-102870000D03*
%TD*%
D14*
%TO.P,Servo1,1,Pin_1*%
%TO.N,VCC*%
X148600000Y-128026000D03*
D15*
%TO.P,Servo1,2,Pin_2*%
%TO.N,Net-(Servo1-Pin_2)*%
X148600000Y-129296000D03*
%TO.P,Servo1,3,Pin_3*%
%TO.N,GND*%
X148600000Y-130566000D03*
%TD*%
D21*
%TO.P,C3,1*%
%TO.N,VCC*%
X151102000Y-75892000D03*
D22*
%TO.P,C3,2*%
%TO.N,GND*%
X161102000Y-75892000D03*
%TD*%
D20*
%TO.P,C6,1*%
%TO.N,VCC*%
X119380000Y-106680000D03*
D12*
%TO.P,C6,2*%
%TO.N,GND*%
X124380000Y-106680000D03*
%TD*%
D26*
%TO.P,Bot\u00E3o_Reset1,1,Pin_1*%
%TO.N,Reset*%
X129550000Y-128788000D03*
D27*
%TO.P,Bot\u00E3o_Reset1,2,Pin_2*%
%TO.N,GND*%
X129550000Y-126788000D03*
%TD*%
D28*
%TO.N,Net-(RTC1-Pin_3)*%
X222768100Y-86643000D02*
X222768100Y-83280000D01*
X207668000Y-101743100D02*
X222768100Y-86643000D01*
X207668000Y-102870000D02*
X207668000Y-101743100D01*
X223520000Y-83280000D02*
X222768100Y-83280000D01*
%TO.N,Net-(D1-K)*%
X142543100Y-149330000D02*
X134320000Y-149330000D01*
X188618000Y-103255100D02*
X142543100Y-149330000D01*
X188618000Y-100810500D02*
X188618000Y-103255100D01*
X193698000Y-95730500D02*
X188618000Y-100810500D01*
X193698000Y-94899300D02*
X193698000Y-95730500D01*
X194505200Y-94092100D02*
X193698000Y-94899300D01*
X195504900Y-94092100D02*
X194505200Y-94092100D01*
X196381100Y-94968300D02*
X195504900Y-94092100D01*
X196381100Y-95250000D02*
X196381100Y-94968300D01*
X197508000Y-95250000D02*
X196381100Y-95250000D01*
%TO.N,Net-(D1-A)*%
X145323100Y-150330000D02*
X155953100Y-139700000D01*
X134320000Y-150330000D02*
X145323100Y-150330000D01*
X157480000Y-139700000D02*
X155953100Y-139700000D01*
%TO.N,Net-(Servo1-Pin_2)*%
X183681100Y-95483500D02*
X183681100Y-95250000D01*
X181519200Y-97645400D02*
X183681100Y-95483500D01*
X180767100Y-97645400D02*
X181519200Y-97645400D01*
X149426900Y-128985600D02*
X180767100Y-97645400D01*
X149426900Y-129296000D02*
X149426900Y-128985600D01*
X148600000Y-129296000D02*
X149426900Y-129296000D01*
X184808000Y-95250000D02*
X183681100Y-95250000D01*
%TO.N,Net-(Display1-Pin_2)*%
X196771900Y-107273000D02*
X196771900Y-121158000D01*
X200048000Y-103996900D02*
X196771900Y-107273000D01*
X195580000Y-121158000D02*
X196771900Y-121158000D01*
X200048000Y-102870000D02*
X200048000Y-103996900D01*
%TO.N,VCC*%
X194968000Y-96663100D02*
X194968000Y-95250000D01*
X189888000Y-101743100D02*
X194968000Y-96663100D01*
X189888000Y-102870000D02*
X189888000Y-102306500D01*
X189888000Y-102306500D02*
X189888000Y-101743100D01*
X193040000Y-105458500D02*
X193040000Y-121158000D01*
X189888000Y-102306500D02*
X193040000Y-105458500D01*
X151102000Y-75892000D02*
X151102000Y-80542000D01*
X194178500Y-144657500D02*
X191516000Y-147320000D01*
X194178500Y-122296500D02*
X194178500Y-144657500D01*
X193040000Y-121158000D02*
X194178500Y-122296500D01*
X139700000Y-93980000D02*
X139700000Y-93153100D01*
X101600000Y-132080000D02*
X101600000Y-131328100D01*
X152801100Y-81751100D02*
X157842000Y-86792000D01*
X151102000Y-81751100D02*
X152801100Y-81751100D01*
X151102000Y-80542000D02*
X151102000Y-81751100D01*
X151102000Y-81751100D02*
X139700000Y-93153100D01*
X133857900Y-128026000D02*
X119380000Y-113548100D01*
X148600000Y-128026000D02*
X133857900Y-128026000D01*
X119380000Y-106680000D02*
X119380000Y-113548100D01*
X119380000Y-113548100D02*
X101600000Y-131328100D01*
%TO.N,XTAL1*%
X189888000Y-91334000D02*
X200196000Y-81026000D01*
X189888000Y-95250000D02*
X189888000Y-91334000D01*
%TO.N,XTAL2*%
X155548800Y-92525200D02*
X154182000Y-93892000D01*
X187348000Y-92525200D02*
X155548800Y-92525200D01*
X187348000Y-95250000D02*
X187348000Y-92525200D01*
X187348000Y-81534000D02*
X187856000Y-81026000D01*
X187348000Y-92525200D02*
X187348000Y-81534000D01*
%TD*%
%TA.AperFunction,Conductor*%
%TO.N,GND*%
G36*
X194861331Y-103258091D02*
G01*
X194893699Y-103263218D01*
X194936515Y-103270000D01*
X194936519Y-103270000D01*
X194999485Y-103270000D01*
X195036960Y-103264064D01*
X195074602Y-103258102D01*
X195143893Y-103267056D01*
X195197346Y-103312052D01*
X195217986Y-103378803D01*
X195217999Y-103380575D01*
X195217999Y-104148871D01*
X195218000Y-104148872D01*
X195414317Y-104096269D01*
X195414326Y-104096265D01*
X195620482Y-104000134D01*
X195806820Y-103869657D01*
X195967657Y-103708820D01*
X196098132Y-103522484D01*
X196125341Y-103464134D01*
X196171513Y-103411695D01*
X196238707Y-103392542D01*
X196305588Y-103412757D01*
X196350105Y-103464132D01*
X196362250Y-103490177D01*
X196377431Y-103522732D01*
X196377432Y-103522734D01*
X196507954Y-103709141D01*
X196668858Y-103870045D01*
X196668861Y-103870047D01*
X196855266Y-104000568D01*
X197061504Y-104096739D01*
X197281308Y-104155635D01*
X197443230Y-104169801D01*
X197507998Y-104175468D01*
X197508000Y-104175468D01*
X197508002Y-104175468D01*
X197564673Y-104170509D01*
X197734692Y-104155635D01*
X197954496Y-104096739D01*
X198160734Y-104000568D01*
X198347139Y-103870047D01*
X198508047Y-103709139D01*
X198638568Y-103522734D01*
X198665618Y-103464724D01*
X198711790Y-103412285D01*
X198778983Y-103393133D01*
X198845865Y-103413348D01*
X198890382Y-103464725D01*
X198917429Y-103522728D01*
X198917432Y-103522734D01*
X199047951Y-103709137D01*
X199047952Y-103709138D01*
X199047953Y-103709139D01*
X199161881Y-103823067D01*
X199195365Y-103884388D01*
X199190381Y-103954080D01*
X199161880Y-103998428D01*
X196388108Y-106772199D01*
X196375851Y-106782020D01*
X196376034Y-106782241D01*
X196370023Y-106787213D01*
X196322672Y-106837636D01*
X196301789Y-106858518D01*
X196301777Y-106858532D01*
X196297521Y-106864017D01*
X196293737Y-106868447D01*
X196261837Y-106902418D01*
X196261836Y-106902420D01*
X196252184Y-106919976D01*
X196241510Y-106936226D01*
X196229229Y-106952061D01*
X196229224Y-106952068D01*
X196210715Y-106994838D01*
X196208145Y-107000084D01*
X196185703Y-107040906D01*
X196180722Y-107060307D01*
X196174421Y-107078710D01*
X196166462Y-107097102D01*
X196166461Y-107097105D01*
X196159171Y-107143127D01*
X196157987Y-107148846D01*
X196146401Y-107193972D01*
X196146400Y-107193982D01*
X196146400Y-107214016D01*
X196144873Y-107233415D01*
X196141740Y-107253194D01*
X196141740Y-107253195D01*
X196146125Y-107299583D01*
X196146400Y-107305421D01*
X196146400Y-119585701D01*
X196126715Y-119652740D01*
X196073911Y-119698495D01*
X196004753Y-119708439D01*
X195986094Y-119704266D01*
X195868723Y-119668322D01*
X195868721Y-119668321D01*
X195868722Y-119668321D01*
X195638157Y-119638797D01*
X195405933Y-119648662D01*
X195405932Y-119648662D01*
X195178703Y-119697634D01*
X194963027Y-119784299D01*
X194765096Y-119906170D01*
X194590599Y-120059746D01*
X194444584Y-120240583D01*
X194444577Y-120240593D01*
X194418301Y-120287630D01*
X194368422Y-120336556D01*
X194300008Y-120350748D01*
X194234783Y-120325700D01*
X194207313Y-120296592D01*
X194106250Y-120147065D01*
X193945412Y-119979250D01*
X193945411Y-119979249D01*
X193758534Y-119841035D01*
X193733673Y-119828500D01*
X193682674Y-119780741D01*
X193665500Y-119717778D01*
X193665500Y-105541238D01*
X193667224Y-105525624D01*
X193666938Y-105525597D01*
X193667672Y-105517834D01*
X193665500Y-105448703D01*
X193665500Y-105419151D01*
X193665500Y-105419150D01*
X193664629Y-105412259D01*
X193664172Y-105406445D01*
X193662709Y-105359872D01*
X193657122Y-105340644D01*
X193653174Y-105321584D01*
X193652123Y-105313261D01*
X193650664Y-105301708D01*
X193633507Y-105258375D01*
X193631619Y-105252859D01*
X193618619Y-105208112D01*
X193608418Y-105190863D01*
X193599860Y-105173394D01*
X193592486Y-105154768D01*
X193592483Y-105154764D01*
X193592483Y-105154763D01*
X193565098Y-105117071D01*
X193561890Y-105112187D01*
X193538172Y-105072082D01*
X193538163Y-105072071D01*
X193524005Y-105057913D01*
X193511370Y-105043120D01*
X193499593Y-105026912D01*
X193463693Y-104997213D01*
X193459381Y-104993290D01*
X192780561Y-104314470D01*
X192747076Y-104253147D01*
X192752060Y-104183455D01*
X192793932Y-104127522D01*
X192836150Y-104107014D01*
X192874486Y-104096742D01*
X192874489Y-104096740D01*
X192874496Y-104096739D01*
X193080734Y-104000568D01*
X193267139Y-103870047D01*
X193428047Y-103709139D01*
X193558568Y-103522734D01*
X193585895Y-103464129D01*
X193632064Y-103411695D01*
X193699257Y-103392542D01*
X193766139Y-103412757D01*
X193810657Y-103464133D01*
X193837865Y-103522482D01*
X193968342Y-103708820D01*
X194129179Y-103869657D01*
X194315517Y-104000134D01*
X194521673Y-104096265D01*
X194521682Y-104096269D01*
X194717999Y-104148872D01*
X194718000Y-104148871D01*
X194718000Y-103380575D01*
X194737685Y-103313536D01*
X194790489Y-103267781D01*
X194859647Y-103257837D01*
X194861331Y-103258091D01*
G37*
%TD.AperFunction*%
%TA.AperFunction,Conductor*%
G36*
X233622539Y-71140185D02*
G01*
X233668294Y-71192989D01*
X233679500Y-71244500D01*
X233679500Y-157355500D01*
X233659815Y-157422539D01*
X233607011Y-157468294D01*
X233555500Y-157479500D01*
X83944500Y-157479500D01*
X83877461Y-157459815D01*
X83831706Y-157407011D01*
X83820500Y-157355500D01*
X83820500Y-139700004D01*
X135455233Y-139700004D01*
X135474273Y-139954079D01*
X135530968Y-140202477D01*
X135530973Y-140202494D01*
X135624058Y-140439671D01*
X135624057Y-140439671D01*
X135751457Y-140660332D01*
X135793452Y-140712993D01*
X136478590Y-140027855D01*
X136539913Y-139994370D01*
X136609604Y-139999354D01*
X136664645Y-140040049D01*
X136732074Y-140127924D01*
X136732075Y-140127925D01*
X136819948Y-140195353D01*
X136861150Y-140251781D01*
X136865305Y-140321527D01*
X136832142Y-140381409D01*
X136146813Y-141066737D01*
X136307623Y-141176375D01*
X136307624Y-141176376D01*
X136537176Y-141286921D01*
X136537174Y-141286921D01*
X136780652Y-141362024D01*
X136780658Y-141362026D01*
X137032595Y-141399999D01*
X137032604Y-141400000D01*
X137287396Y-141400000D01*
X137287404Y-141399999D01*
X137539341Y-141362026D01*
X137539347Y-141362024D01*
X137782824Y-141286921D01*
X138012381Y-141176373D01*
X138173185Y-141066737D01*
X137487856Y-140381409D01*
X137454371Y-140320086D01*
X137459355Y-140250395D01*
X137500049Y-140195353D01*
X137587925Y-140127925D01*
X137655354Y-140040048D01*
X137711779Y-139998848D01*
X137781525Y-139994693D01*
X137841409Y-140027856D01*
X138526545Y-140712993D01*
X138568545Y-140660327D01*
X138695941Y-140439671D01*
X138789026Y-140202494D01*
X138789031Y-140202477D01*
X138845726Y-139954079D01*
X138864767Y-139700004D01*
X138864767Y-139699995D01*
X138845726Y-139445920D01*
X138789031Y-139197522D01*
X138789026Y-139197505D01*
X138695941Y-138960328D01*
X138695942Y-138960328D01*
X138568544Y-138739671D01*
X138526545Y-138687005D01*
X137841409Y-139372142D01*
X137780086Y-139405627D01*
X137710394Y-139400643D01*
X137655353Y-139359948D01*
X137587925Y-139272075D01*
X137531303Y-139228628D01*
X137500049Y-139204645D01*
X137458847Y-139148219D01*
X137454692Y-139078473D01*
X137487855Y-139018590D01*
X138173185Y-138333261D01*
X138012377Y-138223624D01*
X138012376Y-138223623D01*
X137782823Y-138113078D01*
X137782825Y-138113078D01*
X137539347Y-138037975D01*
X137539341Y-138037973D01*
X137287404Y-138000000D01*
X137032595Y-138000000D01*
X136780658Y-138037973D01*
X136780652Y-138037975D01*
X136537175Y-138113078D01*
X136307624Y-138223623D01*
X136307616Y-138223628D01*
X136146813Y-138333261D01*
X136832143Y-139018590D01*
X136865628Y-139079913D01*
X136860644Y-139149604D01*
X136819949Y-139204646D01*
X136732075Y-139272074D01*
X136732074Y-139272075D01*
X136664646Y-139359949D01*
X136608218Y-139401151D01*
X136538472Y-139405306D01*
X136478590Y-139372143D01*
X135793453Y-138687006D01*
X135751455Y-138739670D01*
X135624058Y-138960328D01*
X135530973Y-139197505D01*
X135530968Y-139197522D01*
X135474273Y-139445920D01*
X135455233Y-139699995D01*
X135455233Y-139700004D01*
X83820500Y-139700004D01*
X83820500Y-132552844D01*
X97675000Y-132552844D01*
X97681401Y-132612372D01*
X97681403Y-132612379D01*
X97731645Y-132747086D01*
X97731649Y-132747093D01*
X97817809Y-132862187D01*
X97817812Y-132862190D01*
X97932906Y-132948350D01*
X97932913Y-132948354D01*
X98067620Y-132998596D01*
X98067627Y-132998598D01*
X98127155Y-133004999D01*
X98127172Y-133005000D01*
X98350000Y-133005000D01*
X98350000Y-132436264D01*
X98369685Y-132369225D01*
X98422489Y-132323470D01*
X98491647Y-132313526D01*
X98498192Y-132314647D01*
X98575373Y-132330000D01*
X98618010Y-132330000D01*
X98685049Y-132349685D01*
X98730804Y-132402489D01*
X98735941Y-132415682D01*
X98749856Y-132458509D01*
X98749857Y-132458511D01*
X98833387Y-132603189D01*
X98850000Y-132665189D01*
X98850000Y-133005000D01*
X99072828Y-133005000D01*
X99072844Y-133004999D01*
X99132372Y-132998598D01*
X99132383Y-132998595D01*
X99223874Y-132964471D01*
X99293565Y-132959486D01*
X99306068Y-132963585D01*
X99306245Y-132963042D01*
X99312428Y-132965050D01*
X99312429Y-132965051D01*
X99502726Y-133005500D01*
X99697274Y-133005500D01*
X99887566Y-132965052D01*
X99887565Y-132965052D01*
X99887571Y-132965051D01*
X100049569Y-132892925D01*
X100118815Y-132883642D01*
X100150425Y-132892922D01*
X100312429Y-132965051D01*
X100312432Y-132965051D01*
X100312433Y-132965052D01*
X100502726Y-133005500D01*
X100697274Y-133005500D01*
X100887566Y-132965052D01*
X100887565Y-132965052D01*
X100887571Y-132965051D01*
X101049569Y-132892925D01*
X101118815Y-132883642D01*
X101150425Y-132892922D01*
X101312429Y-132965051D01*
X101312432Y-132965051D01*
X101312433Y-132965052D01*
X101502726Y-133005500D01*
X101697274Y-133005500D01*
X101887571Y-132965051D01*
X102065299Y-132885922D01*
X102222692Y-132771569D01*
X102352870Y-132626992D01*
X102450144Y-132458508D01*
X102510262Y-132273482D01*
X102530598Y-132080000D01*
X102510262Y-131886518D01*
X102450144Y-131701492D01*
X102450143Y-131701491D01*
X102450143Y-131701489D01*
X102450142Y-131701488D01*
X102373655Y-131569008D01*
X102357182Y-131501108D01*
X102380035Y-131435081D01*
X102393355Y-131419333D01*
X104624687Y-129188001D01*
X128174500Y-129188001D01*
X128174501Y-129188019D01*
X128185000Y-129290796D01*
X128185001Y-129290799D01*
X128212908Y-129375016D01*
X128240186Y-129457334D01*
X128332288Y-129606656D01*
X128456344Y-129730712D01*
X128605666Y-129822814D01*
X128772203Y-129877999D01*
X128874991Y-129888500D01*
X130225008Y-129888499D01*
X130327797Y-129877999D01*
X130494334Y-129822814D01*
X130643656Y-129730712D01*
X130767712Y-129606656D01*
X130859814Y-129457334D01*
X130914999Y-129290797D01*
X130925500Y-129188009D01*
X130925499Y-128387992D01*
X130914999Y-128285203D01*
X130859814Y-128118666D01*
X130767712Y-127969344D01*
X130643656Y-127845288D01*
X130579806Y-127805905D01*
X130533083Y-127753958D01*
X130521860Y-127684995D01*
X130549704Y-127620913D01*
X130568254Y-127602895D01*
X130587540Y-127587728D01*
X130725105Y-127428969D01*
X130725114Y-127428958D01*
X130830144Y-127247039D01*
X130830147Y-127247032D01*
X130898855Y-127048517D01*
X130898855Y-127048515D01*
X130900368Y-127038000D01*
X130038192Y-127038000D01*
X129971153Y-127018315D01*
X129925398Y-126965511D01*
X129915454Y-126896353D01*
X129917987Y-126883559D01*
X129918551Y-126881329D01*
X129928886Y-126756605D01*
X129913202Y-126694670D01*
X129912637Y-126692438D01*
X129915262Y-126622619D01*
X129955219Y-126565302D01*
X130019820Y-126538686D01*
X130032843Y-126538000D01*
X130896257Y-126538000D01*
X130869229Y-126426590D01*
X130781959Y-126235492D01*
X130660110Y-126064380D01*
X130660104Y-126064374D01*
X130508067Y-125919407D01*
X130331342Y-125805833D01*
X130136314Y-125727755D01*
X129930038Y-125688000D01*
X129799999Y-125688000D01*
X129799999Y-126303669D01*
X129780314Y-126370709D01*
X129727510Y-126416463D01*
X129658352Y-126426407D01*
X129635737Y-126420951D01*
X129612576Y-126413000D01*
X129518927Y-126413000D01*
X129518926Y-126413000D01*
X129444408Y-126425434D01*
X129375043Y-126417052D01*
X129321222Y-126372498D01*
X129300031Y-126305919D01*
X129300000Y-126303125D01*
X129300000Y-125688000D01*
X129222602Y-125688000D01*
X129065877Y-125702965D01*
X129065873Y-125702966D01*
X128864313Y-125762149D01*
X128677585Y-125858413D01*
X128512462Y-125988268D01*
X128512459Y-125988271D01*
X128374894Y-126147030D01*
X128374885Y-126147041D01*
X128269855Y-126328960D01*
X128269852Y-126328967D01*
X128201144Y-126527482D01*
X128201144Y-126527484D01*
X128199632Y-126538000D01*
X129061808Y-126538000D01*
X129128847Y-126557685D01*
X129174602Y-126610489D01*
X129184546Y-126679647D01*
X129182013Y-126692441D01*
X129181448Y-126694670D01*
X129171113Y-126819392D01*
X129171113Y-126819395D01*
X129171114Y-126819395D01*
X129187362Y-126883559D01*
X129187363Y-126883560D01*
X129184738Y-126953381D01*
X129144781Y-127010698D01*
X129080180Y-127037314D01*
X129067157Y-127038000D01*
X128203742Y-127038000D01*
X128230770Y-127149409D01*
X128318040Y-127340507D01*
X128439889Y-127511619D01*
X128439900Y-127511631D01*
X128542521Y-127609479D01*
X128577457Y-127669987D01*
X128574132Y-127739778D01*
X128533604Y-127796692D01*
X128522049Y-127804760D01*
X128456347Y-127845285D01*
X128456343Y-127845288D01*
X128332289Y-127969342D01*
X128240187Y-128118663D01*
X128240185Y-128118666D01*
X128240186Y-128118666D01*
X128185001Y-128285203D01*
X128185001Y-128285204D01*
X128185000Y-128285204D01*
X128174500Y-128387983D01*
X128174500Y-129188001D01*
X104624687Y-129188001D01*
X119292322Y-114520367D01*
X119353641Y-114486885D01*
X119423333Y-114491869D01*
X119467680Y-114520370D01*
X133357094Y-128409784D01*
X133366919Y-128422048D01*
X133367140Y-128421866D01*
X133372110Y-128427873D01*
X133372113Y-128427876D01*
X133372114Y-128427877D01*
X133422551Y-128475241D01*
X133443430Y-128496120D01*
X133448904Y-128500366D01*
X133453342Y-128504156D01*
X133487318Y-128536062D01*
X133487322Y-128536064D01*
X133504873Y-128545713D01*
X133521131Y-128556392D01*
X133536964Y-128568674D01*
X133558915Y-128578172D01*
X133579737Y-128587183D01*
X133584981Y-128589752D01*
X133625808Y-128612197D01*
X133645212Y-128617179D01*
X133663610Y-128623478D01*
X133682005Y-128631438D01*
X133728029Y-128638726D01*
X133733732Y-128639907D01*
X133778881Y-128651500D01*
X133798916Y-128651500D01*
X133818313Y-128653026D01*
X133838096Y-128656160D01*
X133884483Y-128651775D01*
X133890322Y-128651500D01*
X147526533Y-128651500D01*
X147593572Y-128671185D01*
X147639327Y-128723989D01*
X147642715Y-128732166D01*
X147656203Y-128768330D01*
X147656204Y-128768331D01*
X147662231Y-128776382D01*
X147686648Y-128841846D01*
X147673105Y-128905470D01*
X147673518Y-128905641D01*
X147672595Y-128907869D01*
X147672324Y-128909143D01*
X147671188Y-128911267D01*
X147613975Y-129099870D01*
X147594659Y-129296000D01*
X147613975Y-129492129D01*
X147613976Y-129492132D01*
X147666895Y-129666583D01*
X147671188Y-129680733D01*
X147764086Y-129854532D01*
X147767473Y-129859601D01*
X147765955Y-129860615D01*
X147789918Y-129917042D01*
X147778124Y-129985909D01*
X147767515Y-130002420D01*
X147767893Y-130002673D01*
X147764505Y-130007742D01*
X147671652Y-130181458D01*
X147630839Y-130315999D01*
X147630840Y-130316000D01*
X148168045Y-130316000D01*
X148235084Y-130335685D01*
X148280839Y-130388489D01*
X148290783Y-130457647D01*
X148284568Y-130482404D01*
X148275000Y-130508694D01*
X148275000Y-130623306D01*
X148284567Y-130649592D01*
X148288998Y-130719319D01*
X148255027Y-130780375D01*
X148193440Y-130813372D01*
X148168045Y-130816000D01*
X147630840Y-130816000D01*
X147671652Y-130950541D01*
X147764503Y-131124253D01*
X147764507Y-131124260D01*
X147889471Y-131276528D01*
X148041739Y-131401491D01*
X148215465Y-131494349D01*
X148350000Y-131535159D01*
X148350000Y-130999709D01*
X148369685Y-130932670D01*
X148422489Y-130886915D01*
X148491647Y-130876971D01*
X148495481Y-130877584D01*
X148571564Y-130891000D01*
X148571568Y-130891000D01*
X148628432Y-130891000D01*
X148628436Y-130891000D01*
X148704469Y-130877593D01*
X148773906Y-130885337D01*
X148828136Y-130929393D01*
X148849938Y-130995774D01*
X148850000Y-130999709D01*
X148850000Y-131535159D01*
X148984534Y-131494349D01*
X149158260Y-131401491D01*
X149310528Y-131276528D01*
X149435492Y-131124260D01*
X149435496Y-131124253D01*
X149528347Y-130950541D01*
X149569160Y-130816000D01*
X149031955Y-130816000D01*
X148964916Y-130796315D01*
X148919161Y-130743511D01*
X148909217Y-130674353D01*
X148915431Y-130649595D01*
X148925000Y-130623306D01*
X148925000Y-130508694D01*
X148915432Y-130482407D01*
X148911002Y-130412681D01*
X148944973Y-130351625D01*
X149006560Y-130318628D01*
X149031955Y-130316000D01*
X149569160Y-130316000D01*
X149569160Y-130315999D01*
X149528348Y-130181461D01*
X149479421Y-130089926D01*
X149465179Y-130021523D01*
X149490179Y-129956279D01*
X149546484Y-129914908D01*
X149550442Y-129913547D01*
X149552819Y-129912775D01*
X149575580Y-129907688D01*
X149583692Y-129906664D01*
X149637095Y-129885519D01*
X149640735Y-129884209D01*
X149695341Y-129866467D01*
X149702237Y-129862090D01*
X149723033Y-129851494D01*
X149730632Y-129848486D01*
X149777091Y-129814730D01*
X149780290Y-129812555D01*
X149828777Y-129781786D01*
X149834366Y-129775833D01*
X149851879Y-129760394D01*
X149858487Y-129755594D01*
X149895090Y-129711347D01*
X149897636Y-129708457D01*
X149936962Y-129666582D01*
X149940898Y-129659421D01*
X149954019Y-129640114D01*
X149959224Y-129633823D01*
X149983669Y-129581874D01*
X149985428Y-129578419D01*
X150013097Y-129528092D01*
X150015127Y-129520181D01*
X150023035Y-129498218D01*
X150026514Y-129490826D01*
X150037277Y-129434401D01*
X150038110Y-129430670D01*
X150052400Y-129375019D01*
X150052400Y-129366843D01*
X150054597Y-129343606D01*
X150056127Y-129335588D01*
X150054041Y-129302440D01*
X150069476Y-129234300D01*
X150090111Y-129206978D01*
X175842189Y-103454900D01*
X175903510Y-103421417D01*
X175973202Y-103426401D01*
X176029135Y-103468273D01*
X176042249Y-103490177D01*
X176057427Y-103522726D01*
X176057430Y-103522731D01*
X176057431Y-103522732D01*
X176057432Y-103522734D01*
X176083639Y-103560162D01*
X176187954Y-103709141D01*
X176348858Y-103870045D01*
X176348861Y-103870047D01*
X176535266Y-104000568D01*
X176741504Y-104096739D01*
X176961308Y-104155635D01*
X177123230Y-104169801D01*
X177187998Y-104175468D01*
X177188000Y-104175468D01*
X177188002Y-104175468D01*
X177244673Y-104170509D01*
X177414692Y-104155635D01*
X177634496Y-104096739D01*
X177840734Y-104000568D01*
X178027139Y-103870047D01*
X178188047Y-103709139D01*
X178318568Y-103522734D01*
X178345618Y-103464724D01*
X178391790Y-103412285D01*
X178458983Y-103393133D01*
X178525865Y-103413348D01*
X178570382Y-103464725D01*
X178597429Y-103522728D01*
X178597432Y-103522734D01*
X178727954Y-103709141D01*
X178888858Y-103870045D01*
X178888861Y-103870047D01*
X179075266Y-104000568D01*
X179281504Y-104096739D01*
X179501308Y-104155635D01*
X179663230Y-104169801D01*
X179727998Y-104175468D01*
X179728000Y-104175468D01*
X179728002Y-104175468D01*
X179784673Y-104170509D01*
X179954692Y-104155635D01*
X180174496Y-104096739D01*
X180380734Y-104000568D01*
X180567139Y-103870047D01*
X180728047Y-103709139D01*
X180858568Y-103522734D01*
X180885618Y-103464724D01*
X180931790Y-103412285D01*
X180998983Y-103393133D01*
X181065865Y-103413348D01*
X181110382Y-103464725D01*
X181137429Y-103522728D01*
X181137432Y-103522734D01*
X181267954Y-103709141D01*
X181428858Y-103870045D01*
X181428861Y-103870047D01*
X181615266Y-104000568D01*
X181821504Y-104096739D01*
X182041308Y-104155635D01*
X182203230Y-104169801D01*
X182267998Y-104175468D01*
X182268000Y-104175468D01*
X182268002Y-104175468D01*
X182324672Y-104170509D01*
X182494692Y-104155635D01*
X182714496Y-104096739D01*
X182920734Y-104000568D01*
X183107139Y-103870047D01*
X183268047Y-103709139D01*
X183398568Y-103522734D01*
X183425618Y-103464724D01*
X183471790Y-103412285D01*
X183538983Y-103393133D01*
X183605865Y-103413348D01*
X183650382Y-103464725D01*
X183677429Y-103522728D01*
X183677432Y-103522734D01*
X183807954Y-103709141D01*
X183968858Y-103870045D01*
X183968861Y-103870047D01*
X184155266Y-104000568D01*
X184361504Y-104096739D01*
X184581308Y-104155635D01*
X184743230Y-104169801D01*
X184807998Y-104175468D01*
X184808000Y-104175468D01*
X184808002Y-104175468D01*
X184864672Y-104170509D01*
X185034692Y-104155635D01*
X185254496Y-104096739D01*
X185460734Y-104000568D01*
X185647139Y-103870047D01*
X185808047Y-103709139D01*
X185938568Y-103522734D01*
X185965618Y-103464724D01*
X186011790Y-103412285D01*
X186078983Y-103393133D01*
X186145865Y-103413348D01*
X186190382Y-103464725D01*
X186217429Y-103522728D01*
X186217432Y-103522734D01*
X186347954Y-103709141D01*
X186508858Y-103870045D01*
X186508861Y-103870047D01*
X186695266Y-104000568D01*
X186729870Y-104016704D01*
X186734367Y-104018801D01*
X186786806Y-104064974D01*
X186805958Y-104132167D01*
X186785742Y-104199048D01*
X186769643Y-104218864D01*
X142320328Y-148668181D01*
X142259005Y-148701666D01*
X142232647Y-148704500D01*
X135282180Y-148704500D01*
X135215141Y-148684815D01*
X135182913Y-148654811D01*
X135181731Y-148653232D01*
X135102546Y-148547454D01*
X135079709Y-148530358D01*
X134987335Y-148461206D01*
X134987328Y-148461202D01*
X134852482Y-148410908D01*
X134852483Y-148410908D01*
X134792883Y-148404501D01*
X134792881Y-148404500D01*
X134792873Y-148404500D01*
X134792864Y-148404500D01*
X133847129Y-148404500D01*
X133847123Y-148404501D01*
X133787516Y-148410908D01*
X133652671Y-148461202D01*
X133652664Y-148461206D01*
X133537455Y-148547452D01*
X133537452Y-148547455D01*
X133451206Y-148662664D01*
X133451202Y-148662671D01*
X133400908Y-148797517D01*
X133394501Y-148857116D01*
X133394500Y-148857135D01*
X133394500Y-149802870D01*
X133394501Y-149802876D01*
X133400908Y-149862483D01*
X133438099Y-149962195D01*
X133443083Y-150031887D01*
X133439848Y-150043845D01*
X133409740Y-150136511D01*
X133409738Y-150136516D01*
X133389402Y-150330000D01*
X133409738Y-150523483D01*
X133469856Y-150708510D01*
X133469857Y-150708511D01*
X133495941Y-150753689D01*
X133567130Y-150876992D01*
X133607311Y-150921617D01*
X133697302Y-151021564D01*
X133697305Y-151021566D01*
X133697308Y-151021569D01*
X133815352Y-151107333D01*
X133854702Y-151135923D01*
X133922926Y-151166297D01*
X134032429Y-151215051D01*
X134222726Y-151255500D01*
X134417274Y-151255500D01*
X134607571Y-151215051D01*
X134785299Y-151135922D01*
X134942692Y-151021569D01*
X134965239Y-150996527D01*
X135024726Y-150959879D01*
X135057389Y-150955500D01*
X145240357Y-150955500D01*
X145255977Y-150957224D01*
X145256004Y-150956939D01*
X145263760Y-150957671D01*
X145263767Y-150957673D01*
X145332914Y-150955500D01*
X145362450Y-150955500D01*
X145369328Y-150954630D01*
X145375141Y-150954172D01*
X145421727Y-150952709D01*
X145440969Y-150947117D01*
X145460012Y-150943174D01*
X145479892Y-150940664D01*
X145523222Y-150923507D01*
X145528746Y-150921617D01*
X145532496Y-150920527D01*
X145573490Y-150908618D01*
X145590729Y-150898422D01*
X145608203Y-150889862D01*
X145626827Y-150882488D01*
X145626827Y-150882487D01*
X145626832Y-150882486D01*
X145664549Y-150855082D01*
X145669405Y-150851892D01*
X145709520Y-150828170D01*
X145723689Y-150813999D01*
X145738479Y-150801368D01*
X145754687Y-150789594D01*
X145784399Y-150753676D01*
X145788312Y-150749376D01*
X149217684Y-147320004D01*
X169490732Y-147320004D01*
X169509777Y-147574154D01*
X169509778Y-147574157D01*
X169566492Y-147822637D01*
X169659607Y-148059888D01*
X169787041Y-148280612D01*
X169945950Y-148479877D01*
X170132783Y-148653232D01*
X170343366Y-148796805D01*
X170343371Y-148796807D01*
X170343372Y-148796808D01*
X170343373Y-148796809D01*
X170465328Y-148855538D01*
X170572992Y-148907387D01*
X170572993Y-148907387D01*
X170572996Y-148907389D01*
X170816542Y-148982513D01*
X171068565Y-149020500D01*
X171323435Y-149020500D01*
X171575458Y-148982513D01*
X171819004Y-148907389D01*
X172048634Y-148796805D01*
X172259217Y-148653232D01*
X172446050Y-148479877D01*
X172604959Y-148280612D01*
X172732393Y-148059888D01*
X172825508Y-147822637D01*
X172882222Y-147574157D01*
X172901268Y-147320000D01*
X172882222Y-147065843D01*
X172825508Y-146817363D01*
X172732393Y-146580112D01*
X172604959Y-146359388D01*
X172446050Y-146160123D01*
X172259217Y-145986768D01*
X172048634Y-145843195D01*
X172048630Y-145843193D01*
X172048627Y-145843191D01*
X172048626Y-145843190D01*
X171819006Y-145732612D01*
X171819008Y-145732612D01*
X171575466Y-145657489D01*
X171575462Y-145657488D01*
X171575458Y-145657487D01*
X171454231Y-145639214D01*
X171323440Y-145619500D01*
X171323435Y-145619500D01*
X171068565Y-145619500D01*
X171068559Y-145619500D01*
X170911609Y-145643157D01*
X170816542Y-145657487D01*
X170816538Y-145657488D01*
X170816539Y-145657488D01*
X170816533Y-145657489D01*
X170572992Y-145732612D01*
X170343373Y-145843190D01*
X170343372Y-145843191D01*
X170132782Y-145986768D01*
X169945952Y-146160121D01*
X169945950Y-146160123D01*
X169787041Y-146359388D01*
X169659608Y-146580109D01*
X169566492Y-146817362D01*
X169566490Y-146817369D01*
X169509777Y-147065845D01*
X169490732Y-147319995D01*
X169490732Y-147320004D01*
X149217684Y-147320004D01*
X155886873Y-140650816D01*
X155948194Y-140617333D01*
X156017886Y-140622317D01*
X156071498Y-140661185D01*
X156229950Y-140859877D01*
X156416783Y-141033232D01*
X156627366Y-141176805D01*
X156627371Y-141176807D01*
X156627372Y-141176808D01*
X156627373Y-141176809D01*
X156749328Y-141235538D01*
X156856992Y-141287387D01*
X156856993Y-141287387D01*
X156856996Y-141287389D01*
X157100542Y-141362513D01*
X157352565Y-141400500D01*
X157607435Y-141400500D01*
X157859458Y-141362513D01*
X158103004Y-141287389D01*
X158332634Y-141176805D01*
X158543217Y-141033232D01*
X158730050Y-140859877D01*
X158888959Y-140660612D01*
X159016393Y-140439888D01*
X159109508Y-140202637D01*
X159166222Y-139954157D01*
X159185268Y-139700000D01*
X159166222Y-139445843D01*
X159109508Y-139197363D01*
X159016393Y-138960112D01*
X158888959Y-138739388D01*
X158730050Y-138540123D01*
X158543217Y-138366768D01*
X158332634Y-138223195D01*
X158332630Y-138223193D01*
X158332627Y-138223191D01*
X158332626Y-138223190D01*
X158103006Y-138112612D01*
X158103008Y-138112612D01*
X157859466Y-138037489D01*
X157859462Y-138037488D01*
X157859458Y-138037487D01*
X157738231Y-138019214D01*
X157607440Y-137999500D01*
X157607435Y-137999500D01*
X157352565Y-137999500D01*
X157352559Y-137999500D01*
X157195609Y-138023157D01*
X157100542Y-138037487D01*
X157100538Y-138037488D01*
X157100539Y-138037488D01*
X157100533Y-138037489D01*
X156856992Y-138112612D01*
X156627373Y-138223190D01*
X156627372Y-138223191D01*
X156416782Y-138366768D01*
X156229952Y-138540121D01*
X156229950Y-138540123D01*
X156071041Y-138739388D01*
X155943608Y-138960109D01*
X155943606Y-138960112D01*
X155925445Y-139006384D01*
X155882627Y-139061596D01*
X155844615Y-139080154D01*
X155835236Y-139082879D01*
X155816179Y-139086825D01*
X155796311Y-139089334D01*
X155796309Y-139089335D01*
X155752984Y-139106488D01*
X155747457Y-139108380D01*
X155702710Y-139121381D01*
X155702709Y-139121382D01*
X155685467Y-139131579D01*
X155667999Y-139140137D01*
X155649369Y-139147513D01*
X155649367Y-139147514D01*
X155611676Y-139174898D01*
X155606794Y-139178105D01*
X155566679Y-139201830D01*
X155552508Y-139216000D01*
X155537723Y-139228628D01*
X155521512Y-139240407D01*
X155491809Y-139276310D01*
X155487877Y-139280631D01*
X145100328Y-149668181D01*
X145039005Y-149701666D01*
X145012647Y-149704500D01*
X143352552Y-149704500D01*
X143285513Y-149684815D01*
X143239758Y-149632011D01*
X143229814Y-149562853D01*
X143258839Y-149499297D01*
X143264871Y-149492819D01*
X158391686Y-134366004D01*
X169491233Y-134366004D01*
X169510273Y-134620079D01*
X169566968Y-134868477D01*
X169566973Y-134868494D01*
X169660058Y-135105671D01*
X169660057Y-135105671D01*
X169787457Y-135326332D01*
X169829452Y-135378993D01*
X170514590Y-134693855D01*
X170575913Y-134660370D01*
X170645604Y-134665354D01*
X170700645Y-134706049D01*
X170768074Y-134793924D01*
X170768075Y-134793925D01*
X170855948Y-134861353D01*
X170897150Y-134917781D01*
X170901305Y-134987527D01*
X170868142Y-135047409D01*
X170182813Y-135732737D01*
X170343623Y-135842375D01*
X170343624Y-135842376D01*
X170573176Y-135952921D01*
X170573174Y-135952921D01*
X170816652Y-136028024D01*
X170816658Y-136028026D01*
X171068595Y-136065999D01*
X171068604Y-136066000D01*
X171323396Y-136066000D01*
X171323404Y-136065999D01*
X171575341Y-136028026D01*
X171575347Y-136028024D01*
X171818824Y-135952921D01*
X172048381Y-135842373D01*
X172209185Y-135732737D01*
X171523856Y-135047409D01*
X171490371Y-134986086D01*
X171495355Y-134916395D01*
X171536049Y-134861353D01*
X171623925Y-134793925D01*
X171691354Y-134706048D01*
X171747779Y-134664848D01*
X171817525Y-134660693D01*
X171877409Y-134693856D01*
X172562545Y-135378993D01*
X172604545Y-135326327D01*
X172731941Y-135105671D01*
X172825026Y-134868494D01*
X172825031Y-134868477D01*
X172881726Y-134620079D01*
X172900767Y-134366004D01*
X189810732Y-134366004D01*
X189829777Y-134620154D01*
X189849382Y-134706051D01*
X189886492Y-134868637D01*
X189979607Y-135105888D01*
X190107041Y-135326612D01*
X190265950Y-135525877D01*
X190452783Y-135699232D01*
X190663366Y-135842805D01*
X190663371Y-135842807D01*
X190663372Y-135842808D01*
X190663373Y-135842809D01*
X190785328Y-135901538D01*
X190892992Y-135953387D01*
X190892993Y-135953387D01*
X190892996Y-135953389D01*
X191136542Y-136028513D01*
X191388565Y-136066500D01*
X191643435Y-136066500D01*
X191895458Y-136028513D01*
X192139004Y-135953389D01*
X192368634Y-135842805D01*
X192579217Y-135699232D01*
X192766050Y-135525877D01*
X192924959Y-135326612D01*
X193052393Y-135105888D01*
X193145508Y-134868637D01*
X193202222Y-134620157D01*
X193221268Y-134366000D01*
X193202222Y-134111843D01*
X193145508Y-133863363D01*
X193052393Y-133626112D01*
X192924959Y-133405388D01*
X192766050Y-133206123D01*
X192579217Y-133032768D01*
X192368634Y-132889195D01*
X192368630Y-132889193D01*
X192368627Y-132889191D01*
X192368626Y-132889190D01*
X192139006Y-132778612D01*
X192139008Y-132778612D01*
X191895466Y-132703489D01*
X191895462Y-132703488D01*
X191895458Y-132703487D01*
X191774231Y-132685214D01*
X191643440Y-132665500D01*
X191643435Y-132665500D01*
X191388565Y-132665500D01*
X191388559Y-132665500D01*
X191231609Y-132689157D01*
X191136542Y-132703487D01*
X191136538Y-132703488D01*
X191136539Y-132703488D01*
X191136533Y-132703489D01*
X190892992Y-132778612D01*
X190663373Y-132889190D01*
X190663372Y-132889191D01*
X190452782Y-133032768D01*
X190265952Y-133206121D01*
X190265950Y-133206123D01*
X190107041Y-133405388D01*
X189979608Y-133626109D01*
X189886492Y-133863362D01*
X189886490Y-133863369D01*
X189829777Y-134111845D01*
X189810732Y-134365995D01*
X189810732Y-134366004D01*
X172900767Y-134366004D01*
X172900767Y-134365995D01*
X172881726Y-134111920D01*
X172825031Y-133863522D01*
X172825026Y-133863505D01*
X172731941Y-133626328D01*
X172731942Y-133626328D01*
X172604544Y-133405671D01*
X172562545Y-133353005D01*
X171877409Y-134038142D01*
X171816086Y-134071627D01*
X171746394Y-134066643D01*
X171691353Y-134025948D01*
X171623925Y-133938075D01*
X171623924Y-133938074D01*
X171536049Y-133870645D01*
X171494847Y-133814219D01*
X171490692Y-133744473D01*
X171523855Y-133684590D01*
X172209185Y-132999261D01*
X172048377Y-132889624D01*
X172048376Y-132889623D01*
X171818823Y-132779078D01*
X171818825Y-132779078D01*
X171575347Y-132703975D01*
X171575341Y-132703973D01*
X171323404Y-132666000D01*
X171068595Y-132666000D01*
X170816658Y-132703973D01*
X170816652Y-132703975D01*
X170573175Y-132779078D01*
X170343624Y-132889623D01*
X170343616Y-132889628D01*
X170182813Y-132999261D01*
X170868143Y-133684590D01*
X170901628Y-133745913D01*
X170896644Y-133815604D01*
X170855949Y-133870646D01*
X170768075Y-133938074D01*
X170768074Y-133938075D01*
X170700646Y-134025949D01*
X170644218Y-134067151D01*
X170574472Y-134071306D01*
X170514590Y-134038143D01*
X169829453Y-133353006D01*
X169787455Y-133405670D01*
X169660058Y-133626328D01*
X169566973Y-133863505D01*
X169566968Y-133863522D01*
X169510273Y-134111920D01*
X169491233Y-134365995D01*
X169491233Y-134366004D01*
X158391686Y-134366004D01*
X166065250Y-126692440D01*
X188880856Y-103876833D01*
X188942177Y-103843350D01*
X189011869Y-103848334D01*
X189044245Y-103867199D01*
X189044426Y-103866942D01*
X189047505Y-103869098D01*
X189048243Y-103869528D01*
X189048866Y-103870051D01*
X189143074Y-103936015D01*
X189235266Y-104000568D01*
X189441504Y-104096739D01*
X189661308Y-104155635D01*
X189823230Y-104169801D01*
X189887998Y-104175468D01*
X189888000Y-104175468D01*
X189888002Y-104175468D01*
X189944673Y-104170509D01*
X190114692Y-104155635D01*
X190334496Y-104096739D01*
X190540734Y-104000568D01*
X190547689Y-103995697D01*
X190613894Y-103973367D01*
X190681662Y-103990374D01*
X190706498Y-104009588D01*
X192378180Y-105681270D01*
X192411665Y-105742593D01*
X192414499Y-105768951D01*
X192414499Y-119720279D01*
X192394814Y-119787318D01*
X192355514Y-119825868D01*
X192225096Y-119906171D01*
X192225087Y-119906177D01*
X192050603Y-120059742D01*
X192050600Y-120059745D01*
X191904584Y-120240583D01*
X191904580Y-120240589D01*
X191878027Y-120288120D01*
X191828146Y-120337045D01*
X191759733Y-120351237D01*
X191694508Y-120326188D01*
X191667039Y-120297081D01*
X191565857Y-120147378D01*
X191565855Y-120147375D01*
X191405080Y-119979627D01*
X191405079Y-119979626D01*
X191218271Y-119841462D01*
X191010794Y-119736855D01*
X191010788Y-119736852D01*
X190788615Y-119668812D01*
X190750000Y-119663866D01*
X190750000Y-120535596D01*
X190730315Y-120602635D01*
X190677511Y-120648390D01*
X190608355Y-120658334D01*
X190536476Y-120648000D01*
X190536473Y-120648000D01*
X190463527Y-120648000D01*
X190463523Y-120648000D01*
X190391645Y-120658334D01*
X190322487Y-120648390D01*
X190269684Y-120602634D01*
X190250000Y-120535596D01*
X190250000Y-119665539D01*
X190249999Y-119665539D01*
X190098850Y-119698114D01*
X190098849Y-119698114D01*
X189883253Y-119784748D01*
X189685389Y-119906577D01*
X189510971Y-120060085D01*
X189510969Y-120060087D01*
X189364997Y-120240868D01*
X189251675Y-120443722D01*
X189174271Y-120662798D01*
X189174268Y-120662810D01*
X189135000Y-120891812D01*
X189135000Y-120908000D01*
X189876231Y-120908000D01*
X189943270Y-120927685D01*
X189989025Y-120980489D01*
X189998969Y-121049647D01*
X189995208Y-121066936D01*
X189990000Y-121084672D01*
X189990000Y-121231327D01*
X189995208Y-121249064D01*
X189995208Y-121318934D01*
X189957434Y-121377712D01*
X189893879Y-121406738D01*
X189876231Y-121408000D01*
X189138576Y-121408000D01*
X189149768Y-121539515D01*
X189208318Y-121764379D01*
X189304023Y-121976104D01*
X189304028Y-121976112D01*
X189434142Y-122168621D01*
X189434144Y-122168624D01*
X189594919Y-122336372D01*
X189594920Y-122336373D01*
X189781728Y-122474537D01*
X189989205Y-122579144D01*
X189989211Y-122579147D01*
X190211387Y-122647187D01*
X190250000Y-122652131D01*
X190250000Y-121780403D01*
X190269685Y-121713364D01*
X190322489Y-121667609D01*
X190391646Y-121657665D01*
X190463527Y-121668000D01*
X190463530Y-121668000D01*
X190536470Y-121668000D01*
X190536473Y-121668000D01*
X190608353Y-121657665D01*
X190677512Y-121667609D01*
X190730316Y-121713364D01*
X190750000Y-121780403D01*
X190750000Y-122650459D01*
X190901148Y-122617885D01*
X190901149Y-122617885D01*
X191116746Y-122531251D01*
X191314610Y-122409422D01*
X191489028Y-122255914D01*
X191489030Y-122255912D01*
X191635003Y-122075129D01*
X191635007Y-122075124D01*
X191661384Y-122027907D01*
X191711263Y-121978980D01*
X191779676Y-121964787D01*
X191844902Y-121989834D01*
X191872373Y-122018943D01*
X191973749Y-122168934D01*
X191973751Y-122168936D01*
X192134587Y-122336749D01*
X192321470Y-122474967D01*
X192453919Y-122541746D01*
X192504916Y-122589502D01*
X192522000Y-122657251D01*
X192499743Y-122723481D01*
X192485774Y-122740148D01*
X192410183Y-122815739D01*
X192314211Y-122968476D01*
X192254631Y-123138745D01*
X192254630Y-123138750D01*
X192234435Y-123317996D01*
X192234435Y-123318003D01*
X192254630Y-123497249D01*
X192254631Y-123497254D01*
X192314211Y-123667523D01*
X192410184Y-123820262D01*
X192537738Y-123947816D01*
X192690478Y-124043789D01*
X192691956Y-124044306D01*
X192860745Y-124103368D01*
X192860750Y-124103369D01*
X192951246Y-124113565D01*
X192995040Y-124118499D01*
X192995043Y-124118500D01*
X192995046Y-124118500D01*
X193084957Y-124118500D01*
X193084958Y-124118499D01*
X193152104Y-124110933D01*
X193219249Y-124103369D01*
X193219251Y-124103368D01*
X193219255Y-124103368D01*
X193219258Y-124103366D01*
X193219262Y-124103366D01*
X193388045Y-124044306D01*
X193457824Y-124040744D01*
X193518451Y-124075472D01*
X193550679Y-124137465D01*
X193553000Y-124161347D01*
X193553000Y-144347046D01*
X193533315Y-144414085D01*
X193516681Y-144434727D01*
X192252819Y-145698588D01*
X192191496Y-145732073D01*
X192128588Y-145729398D01*
X191895466Y-145657489D01*
X191895462Y-145657488D01*
X191895458Y-145657487D01*
X191774231Y-145639214D01*
X191643440Y-145619500D01*
X191643435Y-145619500D01*
X191388565Y-145619500D01*
X191388559Y-145619500D01*
X191231609Y-145643157D01*
X191136542Y-145657487D01*
X191136538Y-145657488D01*
X191136539Y-145657488D01*
X191136533Y-145657489D01*
X190892992Y-145732612D01*
X190663373Y-145843190D01*
X190663372Y-145843191D01*
X190452782Y-145986768D01*
X190265952Y-146160121D01*
X190265950Y-146160123D01*
X190107041Y-146359388D01*
X189979608Y-146580109D01*
X189886492Y-146817362D01*
X189886490Y-146817369D01*
X189829777Y-147065845D01*
X189810732Y-147319995D01*
X189810732Y-147320004D01*
X189829777Y-147574154D01*
X189829778Y-147574157D01*
X189886492Y-147822637D01*
X189979607Y-148059888D01*
X190107041Y-148280612D01*
X190265950Y-148479877D01*
X190452783Y-148653232D01*
X190663366Y-148796805D01*
X190663371Y-148796807D01*
X190663372Y-148796808D01*
X190663373Y-148796809D01*
X190785328Y-148855538D01*
X190892992Y-148907387D01*
X190892993Y-148907387D01*
X190892996Y-148907389D01*
X191136542Y-148982513D01*
X191388565Y-149020500D01*
X191643435Y-149020500D01*
X191895458Y-148982513D01*
X192139004Y-148907389D01*
X192368634Y-148796805D01*
X192579217Y-148653232D01*
X192766050Y-148479877D01*
X192924959Y-148280612D01*
X193052393Y-148059888D01*
X193145508Y-147822637D01*
X193202222Y-147574157D01*
X193221268Y-147320000D01*
X193202222Y-147065843D01*
X193145508Y-146817363D01*
X193106881Y-146718943D01*
X193100712Y-146649346D01*
X193133150Y-146587463D01*
X193134568Y-146586020D01*
X194562286Y-145158302D01*
X194574548Y-145148480D01*
X194574365Y-145148259D01*
X194580367Y-145143292D01*
X194580377Y-145143286D01*
X194627741Y-145092848D01*
X194648620Y-145071970D01*
X194652873Y-145066486D01*
X194656650Y-145062063D01*
X194688562Y-145028082D01*
X194698214Y-145010523D01*
X194708889Y-144994272D01*
X194721174Y-144978436D01*
X194739686Y-144935652D01*
X194742242Y-144930435D01*
X194764697Y-144889592D01*
X194769680Y-144870180D01*
X194775977Y-144851791D01*
X194783938Y-144833395D01*
X194791229Y-144787353D01*
X194792408Y-144781662D01*
X194804000Y-144736519D01*
X194804000Y-144716482D01*
X194805527Y-144697082D01*
X194808660Y-144677304D01*
X194804275Y-144630915D01*
X194804000Y-144625077D01*
X194804000Y-122647379D01*
X194823685Y-122580340D01*
X194876489Y-122534585D01*
X194945647Y-122524641D01*
X194983819Y-122536653D01*
X195069024Y-122579613D01*
X195291277Y-122647678D01*
X195521837Y-122677202D01*
X195754070Y-122667337D01*
X195981295Y-122618366D01*
X196196976Y-122531699D01*
X196394907Y-122409827D01*
X196569395Y-122256259D01*
X196569398Y-122256254D01*
X196571599Y-122254318D01*
X196634929Y-122224803D01*
X196704162Y-122234212D01*
X196757318Y-122279558D01*
X196769705Y-122304068D01*
X196811202Y-122415328D01*
X196811206Y-122415335D01*
X196897452Y-122530544D01*
X196897455Y-122530547D01*
X197012664Y-122616793D01*
X197012671Y-122616797D01*
X197147517Y-122667091D01*
X197147516Y-122667091D01*
X197154444Y-122667835D01*
X197207127Y-122673500D01*
X199032872Y-122673499D01*
X199092483Y-122667091D01*
X199227331Y-122616796D01*
X199342546Y-122530546D01*
X199428796Y-122415331D01*
X199479091Y-122280483D01*
X199485500Y-122220873D01*
X199485499Y-120095128D01*
X199479091Y-120035517D01*
X199461988Y-119989662D01*
X199428797Y-119900671D01*
X199428793Y-119900664D01*
X199342547Y-119785455D01*
X199342544Y-119785452D01*
X199227335Y-119699206D01*
X199227328Y-119699202D01*
X199092482Y-119648908D01*
X199092483Y-119648908D01*
X199032883Y-119642501D01*
X199032881Y-119642500D01*
X199032873Y-119642500D01*
X199032865Y-119642500D01*
X197521400Y-119642500D01*
X197454361Y-119622815D01*
X197408606Y-119570011D01*
X197397400Y-119518500D01*
X197397400Y-107583451D01*
X197417085Y-107516412D01*
X197433714Y-107495775D01*
X200431788Y-104497701D01*
X200444042Y-104487886D01*
X200443859Y-104487664D01*
X200449866Y-104482692D01*
X200449877Y-104482686D01*
X200480775Y-104449782D01*
X200497227Y-104432264D01*
X200507671Y-104421818D01*
X200518120Y-104411371D01*
X200522379Y-104405878D01*
X200526152Y-104401461D01*
X200558062Y-104367482D01*
X200567715Y-104349920D01*
X200578389Y-104333670D01*
X200590673Y-104317836D01*
X200609180Y-104275067D01*
X200611749Y-104269824D01*
X200634196Y-104228993D01*
X200634197Y-104228992D01*
X200639177Y-104209591D01*
X200645478Y-104191188D01*
X200653438Y-104172796D01*
X200660730Y-104126749D01*
X200661911Y-104121052D01*
X200673500Y-104075919D01*
X200673500Y-104075917D01*
X200674413Y-104068691D01*
X200702345Y-104004647D01*
X200726312Y-103982658D01*
X200839261Y-103903571D01*
X200887139Y-103870047D01*
X201048047Y-103709139D01*
X201178568Y-103522734D01*
X201205618Y-103464724D01*
X201251790Y-103412285D01*
X201318983Y-103393133D01*
X201385865Y-103413348D01*
X201430382Y-103464725D01*
X201457429Y-103522728D01*
X201457432Y-103522734D01*
X201587954Y-103709141D01*
X201748858Y-103870045D01*
X201748861Y-103870047D01*
X201935266Y-104000568D01*
X202141504Y-104096739D01*
X202361308Y-104155635D01*
X202523230Y-104169801D01*
X202587998Y-104175468D01*
X202588000Y-104175468D01*
X202588002Y-104175468D01*
X202644672Y-104170509D01*
X202814692Y-104155635D01*
X203034496Y-104096739D01*
X203240734Y-104000568D01*
X203427139Y-103870047D01*
X203588047Y-103709139D01*
X203718568Y-103522734D01*
X203745618Y-103464724D01*
X203791790Y-103412285D01*
X203858983Y-103393133D01*
X203925865Y-103413348D01*
X203970382Y-103464725D01*
X203997429Y-103522728D01*
X203997432Y-103522734D01*
X204127954Y-103709141D01*
X204288858Y-103870045D01*
X204288861Y-103870047D01*
X204475266Y-104000568D01*
X204681504Y-104096739D01*
X204901308Y-104155635D01*
X205063230Y-104169801D01*
X205127998Y-104175468D01*
X205128000Y-104175468D01*
X205128002Y-104175468D01*
X205184672Y-104170509D01*
X205354692Y-104155635D01*
X205574496Y-104096739D01*
X205780734Y-104000568D01*
X205967139Y-103870047D01*
X206128047Y-103709139D01*
X206258568Y-103522734D01*
X206285618Y-103464724D01*
X206331790Y-103412285D01*
X206398983Y-103393133D01*
X206465865Y-103413348D01*
X206510382Y-103464725D01*
X206537429Y-103522728D01*
X206537432Y-103522734D01*
X206667954Y-103709141D01*
X206828858Y-103870045D01*
X206828861Y-103870047D01*
X207015266Y-104000568D01*
X207221504Y-104096739D01*
X207441308Y-104155635D01*
X207603230Y-104169801D01*
X207667998Y-104175468D01*
X207668000Y-104175468D01*
X207668002Y-104175468D01*
X207724673Y-104170509D01*
X207894692Y-104155635D01*
X208114496Y-104096739D01*
X208320734Y-104000568D01*
X208507139Y-103870047D01*
X208668047Y-103709139D01*
X208798568Y-103522734D01*
X208825618Y-103464724D01*
X208871790Y-103412285D01*
X208938983Y-103393133D01*
X209005865Y-103413348D01*
X209050382Y-103464725D01*
X209077429Y-103522728D01*
X209077432Y-103522734D01*
X209207954Y-103709141D01*
X209368858Y-103870045D01*
X209368861Y-103870047D01*
X209555266Y-104000568D01*
X209761504Y-104096739D01*
X209981308Y-104155635D01*
X210143230Y-104169801D01*
X210207998Y-104175468D01*
X210208000Y-104175468D01*
X210208002Y-104175468D01*
X210264673Y-104170509D01*
X210434692Y-104155635D01*
X210654496Y-104096739D01*
X210860734Y-104000568D01*
X211047139Y-103870047D01*
X211208047Y-103709139D01*
X211338568Y-103522734D01*
X211434739Y-103316496D01*
X211493635Y-103096692D01*
X211513468Y-102870000D01*
X211493635Y-102643308D01*
X211434739Y-102423504D01*
X211338568Y-102217266D01*
X211208047Y-102030861D01*
X211208045Y-102030858D01*
X211047141Y-101869954D01*
X210860734Y-101739432D01*
X210860732Y-101739431D01*
X210654497Y-101643261D01*
X210654488Y-101643258D01*
X210434697Y-101584366D01*
X210434693Y-101584365D01*
X210434692Y-101584365D01*
X210434691Y-101584364D01*
X210434686Y-101584364D01*
X210208002Y-101564532D01*
X210207998Y-101564532D01*
X209981313Y-101584364D01*
X209981302Y-101584366D01*
X209761511Y-101643258D01*
X209761502Y-101643261D01*
X209555267Y-101739431D01*
X209555265Y-101739432D01*
X209368858Y-101869954D01*
X209207954Y-102030858D01*
X209077432Y-102217265D01*
X209077431Y-102217267D01*
X209050382Y-102275275D01*
X209004209Y-102327714D01*
X208937016Y-102346866D01*
X208870135Y-102326650D01*
X208825618Y-102275275D01*
X208798686Y-102217520D01*
X208798568Y-102217266D01*
X208668047Y-102030861D01*
X208554116Y-101916930D01*
X208520633Y-101855610D01*
X208525617Y-101785918D01*
X208554116Y-101741572D01*
X223151888Y-87143801D01*
X223164142Y-87133986D01*
X223163959Y-87133764D01*
X223169966Y-87128792D01*
X223169977Y-87128786D01*
X223200875Y-87095882D01*
X223217327Y-87078364D01*
X223227771Y-87067918D01*
X223238220Y-87057471D01*
X223242479Y-87051978D01*
X223246252Y-87047561D01*
X223278162Y-87013582D01*
X223287813Y-86996024D01*
X223298496Y-86979761D01*
X223310773Y-86963936D01*
X223329285Y-86921153D01*
X223331838Y-86915941D01*
X223354297Y-86875092D01*
X223359280Y-86855680D01*
X223365581Y-86837280D01*
X223373537Y-86818896D01*
X223380829Y-86772852D01*
X223382006Y-86767171D01*
X223393600Y-86722019D01*
X223393600Y-86701982D01*
X223395127Y-86682583D01*
X223395687Y-86679047D01*
X223398260Y-86662804D01*
X223393873Y-86616406D01*
X223393599Y-86610585D01*
X223393599Y-84654000D01*
X223413284Y-84586961D01*
X223466088Y-84541206D01*
X223517599Y-84530000D01*
X223544626Y-84530000D01*
X223621808Y-84514647D01*
X223691400Y-84520874D01*
X223746577Y-84563736D01*
X223769822Y-84629626D01*
X223770000Y-84636264D01*
X223769999Y-85172524D01*
X223770000Y-85172524D01*
X223807412Y-85164573D01*
X223985049Y-85085484D01*
X224142357Y-84971192D01*
X224142360Y-84971190D01*
X224272463Y-84826694D01*
X224369682Y-84658307D01*
X224369683Y-84658306D01*
X224411372Y-84530000D01*
X223876265Y-84530000D01*
X223809226Y-84510315D01*
X223763471Y-84457511D01*
X223753527Y-84388353D01*
X223754647Y-84381809D01*
X223759062Y-84359608D01*
X223774898Y-84280000D01*
X223774897Y-84279998D01*
X223774898Y-84279997D01*
X223774898Y-84267787D01*
X223777416Y-84267787D01*
X223782102Y-84215361D01*
X223824958Y-84160179D01*
X223847063Y-84147468D01*
X223985295Y-84085924D01*
X223985295Y-84085923D01*
X223985299Y-84085922D01*
X224029673Y-84053681D01*
X224095480Y-84030202D01*
X224102559Y-84030000D01*
X224411372Y-84030000D01*
X224411371Y-84029999D01*
X224369684Y-83901697D01*
X224335507Y-83842500D01*
X224319034Y-83774600D01*
X224335506Y-83718502D01*
X224370144Y-83658508D01*
X224430262Y-83473482D01*
X224450598Y-83280000D01*
X224430262Y-83086518D01*
X224370144Y-82901492D01*
X224335794Y-82841997D01*
X224319323Y-82774098D01*
X224335797Y-82717998D01*
X224344936Y-82702168D01*
X224370144Y-82658508D01*
X224430262Y-82473482D01*
X224450598Y-82280000D01*
X224430262Y-82086518D01*
X224400150Y-81993844D01*
X224398156Y-81924006D01*
X224401895Y-81912210D01*
X224439091Y-81812483D01*
X224445500Y-81752873D01*
X224445499Y-80807128D01*
X224439091Y-80747517D01*
X224428645Y-80719511D01*
X224388797Y-80612671D01*
X224388793Y-80612664D01*
X224302547Y-80497455D01*
X224302544Y-80497452D01*
X224187335Y-80411206D01*
X224187328Y-80411202D01*
X224052482Y-80360908D01*
X224052483Y-80360908D01*
X223992883Y-80354501D01*
X223992881Y-80354500D01*
X223992873Y-80354500D01*
X223992864Y-80354500D01*
X223047129Y-80354500D01*
X223047123Y-80354501D01*
X222987516Y-80360908D01*
X222852671Y-80411202D01*
X222852664Y-80411206D01*
X222737455Y-80497452D01*
X222737452Y-80497455D01*
X222651206Y-80612664D01*
X222651202Y-80612671D01*
X222600908Y-80747517D01*
X222596126Y-80792000D01*
X222594501Y-80807123D01*
X222594500Y-80807135D01*
X222594500Y-81752870D01*
X222594501Y-81752876D01*
X222600908Y-81812483D01*
X222638099Y-81912195D01*
X222643083Y-81981887D01*
X222639848Y-81993845D01*
X222609740Y-82086511D01*
X222609738Y-82086516D01*
X222609737Y-82086518D01*
X222609738Y-82086518D01*
X222589402Y-82280000D01*
X222609738Y-82473482D01*
X222614791Y-82489033D01*
X222630282Y-82536710D01*
X222632276Y-82606552D01*
X222596194Y-82666384D01*
X222550670Y-82692957D01*
X222499658Y-82709532D01*
X222492752Y-82713915D01*
X222471980Y-82724499D01*
X222464373Y-82727511D01*
X222464362Y-82727517D01*
X222417914Y-82761263D01*
X222414695Y-82763451D01*
X222366223Y-82794213D01*
X222366220Y-82794216D01*
X222360629Y-82800170D01*
X222343129Y-82815599D01*
X222336513Y-82820405D01*
X222336512Y-82820406D01*
X222299912Y-82864646D01*
X222297338Y-82867565D01*
X222258037Y-82909417D01*
X222258035Y-82909420D01*
X222254094Y-82916589D01*
X222240989Y-82935873D01*
X222235777Y-82942173D01*
X222235774Y-82942178D01*
X222211331Y-82994121D01*
X222209564Y-82997589D01*
X222181904Y-83047903D01*
X222181903Y-83047908D01*
X222179869Y-83055828D01*
X222171970Y-83077768D01*
X222168486Y-83085172D01*
X222168484Y-83085178D01*
X222157729Y-83141561D01*
X222156879Y-83145361D01*
X222142600Y-83200976D01*
X222142600Y-83209152D01*
X222140405Y-83232379D01*
X222138873Y-83240412D01*
X222142478Y-83297724D01*
X222142600Y-83301595D01*
X222142600Y-86332546D01*
X222122915Y-86399585D01*
X222106281Y-86420227D01*
X207284208Y-101242299D01*
X207271951Y-101252120D01*
X207272134Y-101252341D01*
X207266123Y-101257313D01*
X207218772Y-101307736D01*
X207197889Y-101328618D01*
X207197877Y-101328632D01*
X207193621Y-101334117D01*
X207189837Y-101338547D01*
X207157937Y-101372518D01*
X207157936Y-101372520D01*
X207148284Y-101390076D01*
X207137610Y-101406326D01*
X207125329Y-101422161D01*
X207125324Y-101422168D01*
X207106815Y-101464938D01*
X207104245Y-101470184D01*
X207081803Y-101511006D01*
X207076822Y-101530407D01*
X207070521Y-101548810D01*
X207062562Y-101567202D01*
X207062561Y-101567205D01*
X207055271Y-101613227D01*
X207054087Y-101618946D01*
X207042500Y-101664077D01*
X207041586Y-101671311D01*
X207013652Y-101735354D01*
X206989687Y-101757341D01*
X206828859Y-101869953D01*
X206667954Y-102030858D01*
X206537432Y-102217265D01*
X206537431Y-102217267D01*
X206510382Y-102275275D01*
X206464209Y-102327714D01*
X206397016Y-102346866D01*
X206330135Y-102326650D01*
X206285618Y-102275275D01*
X206258686Y-102217520D01*
X206258568Y-102217266D01*
X206128047Y-102030861D01*
X206128045Y-102030858D01*
X205967141Y-101869954D01*
X205780734Y-101739432D01*
X205780732Y-101739431D01*
X205574497Y-101643261D01*
X205574488Y-101643258D01*
X205354697Y-101584366D01*
X205354693Y-101584365D01*
X205354692Y-101584365D01*
X205354691Y-101584364D01*
X205354686Y-101584364D01*
X205128002Y-101564532D01*
X205127998Y-101564532D01*
X204901313Y-101584364D01*
X204901302Y-101584366D01*
X204681511Y-101643258D01*
X204681502Y-101643261D01*
X204475267Y-101739431D01*
X204475265Y-101739432D01*
X204288858Y-101869954D01*
X204127954Y-102030858D01*
X203997432Y-102217265D01*
X203997431Y-102217267D01*
X203970382Y-102275275D01*
X203924209Y-102327714D01*
X203857016Y-102346866D01*
X203790135Y-102326650D01*
X203745618Y-102275275D01*
X203718686Y-102217520D01*
X203718568Y-102217266D01*
X203588047Y-102030861D01*
X203588045Y-102030858D01*
X203427141Y-101869954D01*
X203240734Y-101739432D01*
X203240732Y-101739431D01*
X203034497Y-101643261D01*
X203034488Y-101643258D01*
X202814697Y-101584366D01*
X202814693Y-101584365D01*
X202814692Y-101584365D01*
X202814691Y-101584364D01*
X202814686Y-101584364D01*
X202588002Y-101564532D01*
X202587998Y-101564532D01*
X202361313Y-101584364D01*
X202361302Y-101584366D01*
X202141511Y-101643258D01*
X202141502Y-101643261D01*
X201935267Y-101739431D01*
X201935265Y-101739432D01*
X201748858Y-101869954D01*
X201587954Y-102030858D01*
X201457432Y-102217265D01*
X201457431Y-102217267D01*
X201430382Y-102275275D01*
X201384209Y-102327714D01*
X201317016Y-102346866D01*
X201250135Y-102326650D01*
X201205618Y-102275275D01*
X201178686Y-102217520D01*
X201178568Y-102217266D01*
X201048047Y-102030861D01*
X201048045Y-102030858D01*
X200887141Y-101869954D01*
X200700734Y-101739432D01*
X200700732Y-101739431D01*
X200494497Y-101643261D01*
X200494488Y-101643258D01*
X200274697Y-101584366D01*
X200274693Y-101584365D01*
X200274692Y-101584365D01*
X200274691Y-101584364D01*
X200274686Y-101584364D01*
X200048002Y-101564532D01*
X200047998Y-101564532D01*
X199821313Y-101584364D01*
X199821302Y-101584366D01*
X199601511Y-101643258D01*
X199601502Y-101643261D01*
X199395267Y-101739431D01*
X199395265Y-101739432D01*
X199208858Y-101869954D01*
X199047954Y-102030858D01*
X198917432Y-102217265D01*
X198917431Y-102217267D01*
X198890382Y-102275275D01*
X198844209Y-102327714D01*
X198777016Y-102346866D01*
X198710135Y-102326650D01*
X198665618Y-102275275D01*
X198638686Y-102217520D01*
X198638568Y-102217266D01*
X198508047Y-102030861D01*
X198508045Y-102030858D01*
X198347141Y-101869954D01*
X198160734Y-101739432D01*
X198160732Y-101739431D01*
X197954497Y-101643261D01*
X197954488Y-101643258D01*
X197734697Y-101584366D01*
X197734693Y-101584365D01*
X197734692Y-101584365D01*
X197734691Y-101584364D01*
X197734686Y-101584364D01*
X197508002Y-101564532D01*
X197507998Y-101564532D01*
X197281313Y-101584364D01*
X197281302Y-101584366D01*
X197061511Y-101643258D01*
X197061502Y-101643261D01*
X196855267Y-101739431D01*
X196855265Y-101739432D01*
X196668858Y-101869954D01*
X196507954Y-102030858D01*
X196377433Y-102217264D01*
X196377432Y-102217266D01*
X196377315Y-102217518D01*
X196350106Y-102275867D01*
X196303933Y-102328306D01*
X196236739Y-102347457D01*
X196169858Y-102327241D01*
X196125342Y-102275865D01*
X196098135Y-102217520D01*
X196098134Y-102217518D01*
X195967657Y-102031179D01*
X195806820Y-101870342D01*
X195620482Y-101739865D01*
X195414328Y-101643734D01*
X195218000Y-101591127D01*
X195218000Y-102359424D01*
X195198315Y-102426463D01*
X195145511Y-102472218D01*
X195076353Y-102482162D01*
X195074602Y-102481897D01*
X194999486Y-102470000D01*
X194999481Y-102470000D01*
X194936519Y-102470000D01*
X194936514Y-102470000D01*
X194861398Y-102481897D01*
X194792104Y-102472942D01*
X194738652Y-102427946D01*
X194718013Y-102361194D01*
X194718000Y-102359424D01*
X194718000Y-101591127D01*
X194521671Y-101643734D01*
X194315517Y-101739865D01*
X194129179Y-101870342D01*
X193968342Y-102031179D01*
X193837867Y-102217515D01*
X193810657Y-102275867D01*
X193764484Y-102328306D01*
X193697290Y-102347457D01*
X193630409Y-102327241D01*
X193585893Y-102275865D01*
X193558685Y-102217518D01*
X193558568Y-102217266D01*
X193428047Y-102030861D01*
X193428045Y-102030858D01*
X193267141Y-101869954D01*
X193080734Y-101739432D01*
X193080732Y-101739431D01*
X192874497Y-101643261D01*
X192874488Y-101643258D01*
X192654697Y-101584366D01*
X192654693Y-101584365D01*
X192654692Y-101584365D01*
X192654691Y-101584364D01*
X192654686Y-101584364D01*
X192428002Y-101564532D01*
X192427998Y-101564532D01*
X192201313Y-101584364D01*
X192201302Y-101584366D01*
X191981511Y-101643258D01*
X191981502Y-101643261D01*
X191775267Y-101739431D01*
X191775265Y-101739432D01*
X191588858Y-101869954D01*
X191427954Y-102030858D01*
X191297432Y-102217265D01*
X191297431Y-102217267D01*
X191270382Y-102275275D01*
X191224209Y-102327714D01*
X191157016Y-102346866D01*
X191090135Y-102326650D01*
X191045618Y-102275275D01*
X191018686Y-102217520D01*
X191018568Y-102217266D01*
X190888047Y-102030861D01*
X190774116Y-101916930D01*
X190740633Y-101855610D01*
X190745617Y-101785918D01*
X190774116Y-101741572D01*
X195351788Y-97163901D01*
X195364042Y-97154086D01*
X195363859Y-97153864D01*
X195369866Y-97148892D01*
X195369877Y-97148886D01*
X195400775Y-97115982D01*
X195417227Y-97098464D01*
X195427671Y-97088018D01*
X195438120Y-97077571D01*
X195442379Y-97072078D01*
X195446152Y-97067661D01*
X195478062Y-97033682D01*
X195487715Y-97016120D01*
X195498389Y-96999870D01*
X195510673Y-96984036D01*
X195529180Y-96941267D01*
X195531749Y-96936024D01*
X195554196Y-96895193D01*
X195554197Y-96895192D01*
X195559177Y-96875791D01*
X195565478Y-96857388D01*
X195573438Y-96838996D01*
X195580730Y-96792949D01*
X195581911Y-96787252D01*
X195593500Y-96742119D01*
X195593500Y-96722074D01*
X195595025Y-96702691D01*
X195598160Y-96682904D01*
X195593775Y-96636515D01*
X195593500Y-96630677D01*
X195593500Y-96464188D01*
X195613185Y-96397149D01*
X195646377Y-96362613D01*
X195711983Y-96316675D01*
X195807139Y-96250047D01*
X195968047Y-96089139D01*
X196095703Y-95906824D01*
X196150278Y-95863201D01*
X196219776Y-95856007D01*
X196220476Y-95856138D01*
X196242676Y-95860373D01*
X196246462Y-95861219D01*
X196302081Y-95875500D01*
X196302088Y-95875500D01*
X196309309Y-95876413D01*
X196373353Y-95904345D01*
X196395340Y-95928310D01*
X196418752Y-95961746D01*
X196507954Y-96089141D01*
X196668858Y-96250045D01*
X196668861Y-96250047D01*
X196855266Y-96380568D01*
X197061504Y-96476739D01*
X197281308Y-96535635D01*
X197443230Y-96549801D01*
X197507998Y-96555468D01*
X197508000Y-96555468D01*
X197508002Y-96555468D01*
X197564807Y-96550498D01*
X197734692Y-96535635D01*
X197954496Y-96476739D01*
X198160734Y-96380568D01*
X198347139Y-96250047D01*
X198508047Y-96089139D01*
X198638568Y-95902734D01*
X198665618Y-95844724D01*
X198711790Y-95792285D01*
X198778983Y-95773133D01*
X198845865Y-95793348D01*
X198890382Y-95844725D01*
X198917429Y-95902728D01*
X198917432Y-95902734D01*
X199047954Y-96089141D01*
X199208858Y-96250045D01*
X199208861Y-96250047D01*
X199395266Y-96380568D01*
X199601504Y-96476739D01*
X199821308Y-96535635D01*
X199983230Y-96549801D01*
X200047998Y-96555468D01*
X200048000Y-96555468D01*
X200048002Y-96555468D01*
X200104807Y-96550498D01*
X200274692Y-96535635D01*
X200494496Y-96476739D01*
X200700734Y-96380568D01*
X200887139Y-96250047D01*
X201048047Y-96089139D01*
X201178568Y-95902734D01*
X201205618Y-95844724D01*
X201251790Y-95792285D01*
X201318983Y-95773133D01*
X201385865Y-95793348D01*
X201430382Y-95844725D01*
X201457429Y-95902728D01*
X201457432Y-95902734D01*
X201587954Y-96089141D01*
X201748858Y-96250045D01*
X201748861Y-96250047D01*
X201935266Y-96380568D01*
X202141504Y-96476739D01*
X202361308Y-96535635D01*
X202523230Y-96549801D01*
X202587998Y-96555468D01*
X202588000Y-96555468D01*
X202588002Y-96555468D01*
X202644807Y-96550498D01*
X202814692Y-96535635D01*
X203034496Y-96476739D01*
X203240734Y-96380568D01*
X203427139Y-96250047D01*
X203588047Y-96089139D01*
X203718568Y-95902734D01*
X203745618Y-95844724D01*
X203791790Y-95792285D01*
X203858983Y-95773133D01*
X203925865Y-95793348D01*
X203970382Y-95844725D01*
X203997429Y-95902728D01*
X203997432Y-95902734D01*
X204127954Y-96089141D01*
X204288858Y-96250045D01*
X204288861Y-96250047D01*
X204475266Y-96380568D01*
X204681504Y-96476739D01*
X204901308Y-96535635D01*
X205063230Y-96549801D01*
X205127998Y-96555468D01*
X205128000Y-96555468D01*
X205128002Y-96555468D01*
X205184807Y-96550498D01*
X205354692Y-96535635D01*
X205574496Y-96476739D01*
X205780734Y-96380568D01*
X205967139Y-96250047D01*
X206128047Y-96089139D01*
X206258568Y-95902734D01*
X206285618Y-95844724D01*
X206331790Y-95792285D01*
X206398983Y-95773133D01*
X206465865Y-95793348D01*
X206510382Y-95844725D01*
X206537429Y-95902728D01*
X206537432Y-95902734D01*
X206667954Y-96089141D01*
X206828858Y-96250045D01*
X206828861Y-96250047D01*
X207015266Y-96380568D01*
X207221504Y-96476739D01*
X207441308Y-96535635D01*
X207603230Y-96549801D01*
X207667998Y-96555468D01*
X207668000Y-96555468D01*
X207668002Y-96555468D01*
X207724807Y-96550498D01*
X207894692Y-96535635D01*
X208114496Y-96476739D01*
X208320734Y-96380568D01*
X208507139Y-96250047D01*
X208668047Y-96089139D01*
X208685271Y-96064539D01*
X208739848Y-96020913D01*
X208809346Y-96013718D01*
X208871701Y-96045239D01*
X208907116Y-96105468D01*
X208910138Y-96122406D01*
X208913908Y-96157483D01*
X208964202Y-96292328D01*
X208964206Y-96292335D01*
X209050452Y-96407544D01*
X209050455Y-96407547D01*
X209165664Y-96493793D01*
X209165671Y-96493797D01*
X209300517Y-96544091D01*
X209300516Y-96544091D01*
X209307444Y-96544835D01*
X209360127Y-96550500D01*
X211055872Y-96550499D01*
X211115483Y-96544091D01*
X211250331Y-96493796D01*
X211365546Y-96407546D01*
X211451796Y-96292331D01*
X211502091Y-96157483D01*
X211508500Y-96097873D01*
X211508499Y-94402128D01*
X211502091Y-94342517D01*
X211483964Y-94293917D01*
X211451797Y-94207671D01*
X211451793Y-94207664D01*
X211365547Y-94092455D01*
X211365544Y-94092452D01*
X211250335Y-94006206D01*
X211250328Y-94006202D01*
X211115482Y-93955908D01*
X211115483Y-93955908D01*
X211055883Y-93949501D01*
X211055881Y-93949500D01*
X211055873Y-93949500D01*
X211055864Y-93949500D01*
X209360129Y-93949500D01*
X209360123Y-93949501D01*
X209300516Y-93955908D01*
X209165671Y-94006202D01*
X209165664Y-94006206D01*
X209050455Y-94092452D01*
X209050452Y-94092455D01*
X208964206Y-94207664D01*
X208964202Y-94207671D01*
X208913908Y-94342516D01*
X208910137Y-94377596D01*
X208883398Y-94442146D01*
X208826006Y-94481994D01*
X208756180Y-94484487D01*
X208696092Y-94448834D01*
X208685273Y-94435462D01*
X208668045Y-94410858D01*
X208507141Y-94249954D01*
X208320734Y-94119432D01*
X208320732Y-94119431D01*
X208114497Y-94023261D01*
X208114488Y-94023258D01*
X207894697Y-93964366D01*
X207894693Y-93964365D01*
X207894692Y-93964365D01*
X207894691Y-93964364D01*
X207894686Y-93964364D01*
X207668002Y-93944532D01*
X207667998Y-93944532D01*
X207441313Y-93964364D01*
X207441302Y-93964366D01*
X207221511Y-94023258D01*
X207221502Y-94023261D01*
X207015267Y-94119431D01*
X207015265Y-94119432D01*
X206828858Y-94249954D01*
X206667954Y-94410858D01*
X206537432Y-94597265D01*
X206537431Y-94597267D01*
X206510382Y-94655275D01*
X206464209Y-94707714D01*
X206397016Y-94726866D01*
X206330135Y-94706650D01*
X206285618Y-94655275D01*
X206278641Y-94640313D01*
X206258568Y-94597266D01*
X206128047Y-94410861D01*
X206128045Y-94410858D01*
X205967141Y-94249954D01*
X205780734Y-94119432D01*
X205780732Y-94119431D01*
X205574497Y-94023261D01*
X205574488Y-94023258D01*
X205354697Y-93964366D01*
X205354693Y-93964365D01*
X205354692Y-93964365D01*
X205354691Y-93964364D01*
X205354686Y-93964364D01*
X205128002Y-93944532D01*
X205127998Y-93944532D01*
X204901313Y-93964364D01*
X204901302Y-93964366D01*
X204681511Y-94023258D01*
X204681502Y-94023261D01*
X204475267Y-94119431D01*
X204475265Y-94119432D01*
X204288858Y-94249954D01*
X204127954Y-94410858D01*
X203997432Y-94597265D01*
X203997431Y-94597267D01*
X203970382Y-94655275D01*
X203924209Y-94707714D01*
X203857016Y-94726866D01*
X203790135Y-94706650D01*
X203745618Y-94655275D01*
X203738641Y-94640313D01*
X203718568Y-94597266D01*
X203588047Y-94410861D01*
X203588045Y-94410858D01*
X203427141Y-94249954D01*
X203240734Y-94119432D01*
X203240732Y-94119431D01*
X203034497Y-94023261D01*
X203034488Y-94023258D01*
X202814697Y-93964366D01*
X202814693Y-93964365D01*
X202814692Y-93964365D01*
X202814691Y-93964364D01*
X202814686Y-93964364D01*
X202588002Y-93944532D01*
X202587998Y-93944532D01*
X202361313Y-93964364D01*
X202361302Y-93964366D01*
X202141511Y-94023258D01*
X202141502Y-94023261D01*
X201935267Y-94119431D01*
X201935265Y-94119432D01*
X201748858Y-94249954D01*
X201587954Y-94410858D01*
X201457432Y-94597265D01*
X201457431Y-94597267D01*
X201430382Y-94655275D01*
X201384209Y-94707714D01*
X201317016Y-94726866D01*
X201250135Y-94706650D01*
X201205618Y-94655275D01*
X201198641Y-94640313D01*
X201178568Y-94597266D01*
X201048047Y-94410861D01*
X201048045Y-94410858D01*
X200887141Y-94249954D01*
X200700734Y-94119432D01*
X200700732Y-94119431D01*
X200494497Y-94023261D01*
X200494488Y-94023258D01*
X200274697Y-93964366D01*
X200274693Y-93964365D01*
X200274692Y-93964365D01*
X200274691Y-93964364D01*
X200274686Y-93964364D01*
X200048002Y-93944532D01*
X200047998Y-93944532D01*
X199821313Y-93964364D01*
X199821302Y-93964366D01*
X199601511Y-94023258D01*
X199601502Y-94023261D01*
X199395267Y-94119431D01*
X199395265Y-94119432D01*
X199208858Y-94249954D01*
X199047954Y-94410858D01*
X198917432Y-94597265D01*
X198917431Y-94597267D01*
X198890382Y-94655275D01*
X198844209Y-94707714D01*
X198777016Y-94726866D01*
X198710135Y-94706650D01*
X198665618Y-94655275D01*
X198658641Y-94640313D01*
X198638568Y-94597266D01*
X198508047Y-94410861D01*
X198508045Y-94410858D01*
X198347141Y-94249954D01*
X198160734Y-94119432D01*
X198160732Y-94119431D01*
X197954497Y-94023261D01*
X197954488Y-94023258D01*
X197734697Y-93964366D01*
X197734693Y-93964365D01*
X197734692Y-93964365D01*
X197734691Y-93964364D01*
X197734686Y-93964364D01*
X197508002Y-93944532D01*
X197507998Y-93944532D01*
X197281313Y-93964364D01*
X197281302Y-93964366D01*
X197061511Y-94023258D01*
X197061502Y-94023261D01*
X196855267Y-94119431D01*
X196682618Y-94240319D01*
X196616412Y-94262646D01*
X196548645Y-94245634D01*
X196523815Y-94226424D01*
X196005703Y-93708312D01*
X195995880Y-93696050D01*
X195995659Y-93696234D01*
X195990686Y-93690223D01*
X195990685Y-93690222D01*
X195940264Y-93642873D01*
X195929819Y-93632428D01*
X195919375Y-93621983D01*
X195913886Y-93617725D01*
X195909461Y-93613947D01*
X195875482Y-93582038D01*
X195875480Y-93582036D01*
X195875477Y-93582035D01*
X195857929Y-93572388D01*
X195841663Y-93561704D01*
X195825833Y-93549425D01*
X195783068Y-93530918D01*
X195777822Y-93528348D01*
X195736993Y-93505903D01*
X195736992Y-93505902D01*
X195717593Y-93500922D01*
X195699181Y-93494618D01*
X195680798Y-93486662D01*
X195680792Y-93486660D01*
X195634774Y-93479372D01*
X195629052Y-93478187D01*
X195583921Y-93466600D01*
X195583919Y-93466600D01*
X195563884Y-93466600D01*
X195544486Y-93465073D01*
X195537062Y-93463897D01*
X195524705Y-93461940D01*
X195524704Y-93461940D01*
X195478316Y-93466325D01*
X195472478Y-93466600D01*
X194587937Y-93466600D01*
X194572320Y-93464876D01*
X194572293Y-93465162D01*
X194564531Y-93464427D01*
X194495403Y-93466600D01*
X194465850Y-93466600D01*
X194465129Y-93466690D01*
X194458957Y-93467469D01*
X194453145Y-93467926D01*
X194406573Y-93469390D01*
X194406572Y-93469390D01*
X194387329Y-93474981D01*
X194368279Y-93478925D01*
X194348411Y-93481434D01*
X194348409Y-93481435D01*
X194305084Y-93498588D01*
X194299557Y-93500480D01*
X194254810Y-93513481D01*
X194254809Y-93513482D01*
X194237567Y-93523679D01*
X194220099Y-93532237D01*
X194201469Y-93539613D01*
X194201467Y-93539614D01*
X194163776Y-93566998D01*
X194158894Y-93570205D01*
X194118779Y-93593930D01*
X194104608Y-93608100D01*
X194089823Y-93620728D01*
X194073612Y-93632507D01*
X194043909Y-93668410D01*
X194039977Y-93672731D01*
X193452274Y-94260432D01*
X193390951Y-94293917D01*
X193321259Y-94288933D01*
X193276915Y-94260435D01*
X193266821Y-94250341D01*
X193080482Y-94119866D01*
X192874328Y-94023734D01*
X192678000Y-93971127D01*
X192678000Y-94739424D01*
X192658315Y-94806463D01*
X192605511Y-94852218D01*
X192536353Y-94862162D01*
X192534602Y-94861897D01*
X192459486Y-94850000D01*
X192459481Y-94850000D01*
X192396519Y-94850000D01*
X192396514Y-94850000D01*
X192321398Y-94861897D01*
X192252104Y-94852942D01*
X192198652Y-94807946D01*
X192178013Y-94741194D01*
X192178000Y-94739424D01*
X192178000Y-93971127D01*
X191981671Y-94023734D01*
X191775517Y-94119865D01*
X191589179Y-94250342D01*
X191428342Y-94411179D01*
X191297867Y-94597515D01*
X191270657Y-94655867D01*
X191224484Y-94708306D01*
X191157290Y-94727457D01*
X191090409Y-94707241D01*
X191045893Y-94655865D01*
X191038185Y-94639336D01*
X191018568Y-94597266D01*
X190888047Y-94410861D01*
X190888045Y-94410858D01*
X190727140Y-94249953D01*
X190566377Y-94137386D01*
X190522752Y-94082809D01*
X190513500Y-94035811D01*
X190513500Y-91644452D01*
X190533185Y-91577413D01*
X190549819Y-91556771D01*
X194935656Y-87170934D01*
X199345441Y-82761148D01*
X199406762Y-82727665D01*
X199476453Y-82732649D01*
X199673322Y-82806077D01*
X199673325Y-82806077D01*
X199673326Y-82806078D01*
X199838449Y-82841998D01*
X199931974Y-82862343D01*
X200175660Y-82879772D01*
X200195999Y-82881227D01*
X200196000Y-82881227D01*
X200196001Y-82881227D01*
X200214884Y-82879876D01*
X200460026Y-82862343D01*
X200718678Y-82806077D01*
X200966689Y-82713574D01*
X201199011Y-82586716D01*
X201410915Y-82428087D01*
X201598087Y-82240915D01*
X201756716Y-82029011D01*
X201883574Y-81796689D01*
X201976077Y-81548678D01*
X202032343Y-81290026D01*
X202051227Y-81026000D01*
X202032343Y-80761974D01*
X201999863Y-80612664D01*
X201976078Y-80503326D01*
X201973888Y-80497455D01*
X201883574Y-80255311D01*
X201861212Y-80214359D01*
X201756719Y-80022994D01*
X201756714Y-80022986D01*
X201598093Y-79811092D01*
X201598077Y-79811074D01*
X201410925Y-79623922D01*
X201410907Y-79623906D01*
X201199013Y-79465285D01*
X201199005Y-79465280D01*
X200966694Y-79338428D01*
X200966690Y-79338426D01*
X200718673Y-79245921D01*
X200460034Y-79189658D01*
X200460027Y-79189657D01*
X200196001Y-79170773D01*
X200195999Y-79170773D01*
X199931972Y-79189657D01*
X199931965Y-79189658D01*
X199673326Y-79245921D01*
X199425309Y-79338426D01*
X199425305Y-79338428D01*
X199192994Y-79465280D01*
X199192986Y-79465285D01*
X198981092Y-79623906D01*
X198981074Y-79623922D01*
X198793922Y-79811074D01*
X198793906Y-79811092D01*
X198635285Y-80022986D01*
X198635280Y-80022994D01*
X198508428Y-80255305D01*
X198508426Y-80255309D01*
X198415921Y-80503326D01*
X198359658Y-80761965D01*
X198359657Y-80761972D01*
X198340773Y-81025998D01*
X198340773Y-81026001D01*
X198359657Y-81290027D01*
X198359658Y-81290034D01*
X198415921Y-81548673D01*
X198489350Y-81745544D01*
X198494334Y-81815235D01*
X198460849Y-81876558D01*
X189504208Y-90833199D01*
X189491951Y-90843020D01*
X189492134Y-90843241D01*
X189486123Y-90848213D01*
X189438772Y-90898636D01*
X189417889Y-90919518D01*
X189417877Y-90919532D01*
X189413621Y-90925017D01*
X189409837Y-90929447D01*
X189377937Y-90963418D01*
X189377936Y-90963420D01*
X189368284Y-90980976D01*
X189357610Y-90997226D01*
X189345329Y-91013061D01*
X189345324Y-91013068D01*
X189326815Y-91055838D01*
X189324245Y-91061084D01*
X189301803Y-91101906D01*
X189296822Y-91121307D01*
X189290521Y-91139710D01*
X189282562Y-91158102D01*
X189282561Y-91158105D01*
X189275271Y-91204127D01*
X189274087Y-91209846D01*
X189262501Y-91254972D01*
X189262499Y-91254984D01*
X189262499Y-91275020D01*
X189260973Y-91294411D01*
X189257840Y-91314194D01*
X189257840Y-91314195D01*
X189262225Y-91360583D01*
X189262500Y-91366421D01*
X189262500Y-94035811D01*
X189242815Y-94102850D01*
X189209623Y-94137386D01*
X189048859Y-94249953D01*
X188887954Y-94410858D01*
X188757432Y-94597265D01*
X188757431Y-94597267D01*
X188730382Y-94655275D01*
X188684209Y-94707714D01*
X188617016Y-94726866D01*
X188550135Y-94706650D01*
X188505618Y-94655275D01*
X188498641Y-94640313D01*
X188478568Y-94597266D01*
X188348047Y-94410861D01*
X188348045Y-94410858D01*
X188187140Y-94249953D01*
X188026377Y-94137386D01*
X187982752Y-94082809D01*
X187973500Y-94035811D01*
X187973500Y-92596044D01*
X187975697Y-92572808D01*
X187977227Y-92564787D01*
X187976934Y-92560136D01*
X187973620Y-92507474D01*
X187973499Y-92503598D01*
X187973500Y-92485849D01*
X187973500Y-82988270D01*
X187993185Y-82921231D01*
X188045989Y-82875476D01*
X188088653Y-82864586D01*
X188120026Y-82862343D01*
X188378678Y-82806077D01*
X188626689Y-82713574D01*
X188859011Y-82586716D01*
X189070915Y-82428087D01*
X189258087Y-82240915D01*
X189416716Y-82029011D01*
X189543574Y-81796689D01*
X189636077Y-81548678D01*
X189692343Y-81290026D01*
X189711227Y-81026000D01*
X189692343Y-80761974D01*
X189659863Y-80612664D01*
X189636078Y-80503326D01*
X189633888Y-80497455D01*
X189543574Y-80255311D01*
X189521212Y-80214359D01*
X189416719Y-80022994D01*
X189416714Y-80022986D01*
X189258093Y-79811092D01*
X189258077Y-79811074D01*
X189070925Y-79623922D01*
X189070907Y-79623906D01*
X188859013Y-79465285D01*
X188859005Y-79465280D01*
X188626694Y-79338428D01*
X188626690Y-79338426D01*
X188378673Y-79245921D01*
X188120034Y-79189658D01*
X188120027Y-79189657D01*
X187856001Y-79170773D01*
X187855999Y-79170773D01*
X187591972Y-79189657D01*
X187591965Y-79189658D01*
X187333326Y-79245921D01*
X187085309Y-79338426D01*
X187085305Y-79338428D01*
X186852994Y-79465280D01*
X186852986Y-79465285D01*
X186641092Y-79623906D01*
X186641074Y-79623922D01*
X186453922Y-79811074D01*
X186453906Y-79811092D01*
X186295285Y-80022986D01*
X186295280Y-80022994D01*
X186168428Y-80255305D01*
X186168426Y-80255309D01*
X186075921Y-80503326D01*
X186019658Y-80761965D01*
X186019657Y-80761972D01*
X186000773Y-81025998D01*
X186000773Y-81026001D01*
X186019657Y-81290027D01*
X186019658Y-81290034D01*
X186075921Y-81548673D01*
X186168426Y-81796690D01*
X186168428Y-81796694D01*
X186295280Y-82029005D01*
X186295285Y-82029013D01*
X186453906Y-82240907D01*
X186453922Y-82240925D01*
X186641071Y-82428074D01*
X186641078Y-82428080D01*
X186641085Y-82428087D01*
X186672810Y-82451836D01*
X186714681Y-82507767D01*
X186722500Y-82551102D01*
X186722500Y-91775700D01*
X186702815Y-91842739D01*
X186650011Y-91888494D01*
X186598500Y-91899700D01*
X155631538Y-91899700D01*
X155615921Y-91897976D01*
X155615894Y-91898262D01*
X155608132Y-91897527D01*
X155539004Y-91899700D01*
X155509450Y-91899700D01*
X155508729Y-91899790D01*
X155502557Y-91900569D01*
X155496745Y-91901026D01*
X155450173Y-91902490D01*
X155450172Y-91902490D01*
X155430929Y-91908081D01*
X155411879Y-91912025D01*
X155392011Y-91914534D01*
X155348684Y-91931688D01*
X155343158Y-91933579D01*
X155298414Y-91946579D01*
X155298410Y-91946581D01*
X155281166Y-91956779D01*
X155263705Y-91965333D01*
X155245074Y-91972710D01*
X155245062Y-91972717D01*
X155207370Y-92000102D01*
X155202487Y-92003309D01*
X155162380Y-92027029D01*
X155148214Y-92041195D01*
X155133424Y-92053827D01*
X155117214Y-92065604D01*
X155117211Y-92065607D01*
X155087510Y-92101509D01*
X155083577Y-92105831D01*
X154759229Y-92430179D01*
X154697906Y-92463664D01*
X154631286Y-92459780D01*
X154551613Y-92432428D01*
X154306335Y-92391500D01*
X154057665Y-92391500D01*
X153812383Y-92432429D01*
X153577197Y-92513169D01*
X153577188Y-92513172D01*
X153358493Y-92631524D01*
X153162257Y-92784261D01*
X152993833Y-92967217D01*
X152857826Y-93175393D01*
X152757936Y-93403118D01*
X152696892Y-93644175D01*
X152696890Y-93644187D01*
X152676357Y-93891994D01*
X152676357Y-93892005D01*
X152696890Y-94139812D01*
X152696892Y-94139824D01*
X152757936Y-94380881D01*
X152857826Y-94608606D01*
X152993833Y-94816782D01*
X152993836Y-94816785D01*
X153162256Y-94999738D01*
X153358491Y-95152474D01*
X153358493Y-95152475D01*
X153576332Y-95270364D01*
X153577190Y-95270828D01*
X153796141Y-95345994D01*
X153810964Y-95351083D01*
X153812386Y-95351571D01*
X154057665Y-95392500D01*
X154306335Y-95392500D01*
X154551614Y-95351571D01*
X154786810Y-95270828D01*
X155005509Y-95152474D01*
X155201744Y-94999738D01*
X155370164Y-94816785D01*
X155506173Y-94608607D01*
X155606063Y-94380881D01*
X155667108Y-94139821D01*
X155667310Y-94137386D01*
X155687643Y-93892005D01*
X155687643Y-93891994D01*
X155667109Y-93644187D01*
X155667108Y-93644184D01*
X155667108Y-93644179D01*
X155613136Y-93431049D01*
X155615761Y-93361230D01*
X155645660Y-93312929D01*
X155771572Y-93187018D01*
X155832897Y-93153534D01*
X155859254Y-93150700D01*
X157679408Y-93150700D01*
X157746447Y-93170385D01*
X157792202Y-93223189D01*
X157802146Y-93292347D01*
X157792964Y-93324509D01*
X157758413Y-93403279D01*
X157758412Y-93403281D01*
X157697387Y-93644261D01*
X157697385Y-93644270D01*
X157676859Y-93891994D01*
X157676859Y-93892005D01*
X157697385Y-94139729D01*
X157697387Y-94139738D01*
X157758412Y-94380717D01*
X157858266Y-94608364D01*
X157958564Y-94761882D01*
X158573050Y-94147395D01*
X158634373Y-94113910D01*
X158704064Y-94118894D01*
X158759998Y-94160765D01*
X158765039Y-94168025D01*
X158800239Y-94222798D01*
X158901697Y-94310711D01*
X158915602Y-94322759D01*
X158913293Y-94325422D01*
X158948006Y-94365499D01*
X158957935Y-94434660D01*
X158928898Y-94498210D01*
X158922882Y-94504669D01*
X158311942Y-95115609D01*
X158358768Y-95152055D01*
X158358770Y-95152056D01*
X158577385Y-95270364D01*
X158577396Y-95270369D01*
X158812506Y-95351083D01*
X159057707Y-95392000D01*
X159306293Y-95392000D01*
X159551493Y-95351083D01*
X159786603Y-95270369D01*
X159786614Y-95270364D01*
X160005228Y-95152057D01*
X160005231Y-95152055D01*
X160052056Y-95115609D01*
X159441116Y-94504669D01*
X159407631Y-94443346D01*
X159412615Y-94373654D01*
X159449641Y-94324193D01*
X159448398Y-94322759D01*
X159455100Y-94316952D01*
X159563761Y-94222798D01*
X159598954Y-94168037D01*
X159651755Y-94122283D01*
X159720914Y-94112339D01*
X159784470Y-94141363D01*
X159790949Y-94147396D01*
X160405434Y-94761882D01*
X160505731Y-94608369D01*
X160605587Y-94380717D01*
X160666612Y-94139738D01*
X160666614Y-94139729D01*
X160687141Y-93892005D01*
X160687141Y-93891994D01*
X160666614Y-93644270D01*
X160666612Y-93644261D01*
X160605587Y-93403281D01*
X160605586Y-93403279D01*
X160571036Y-93324509D01*
X160562133Y-93255209D01*
X160592111Y-93192097D01*
X160651451Y-93155211D01*
X160684592Y-93150700D01*
X186598500Y-93150700D01*
X186665539Y-93170385D01*
X186711294Y-93223189D01*
X186722500Y-93274700D01*
X186722500Y-94035811D01*
X186702815Y-94102850D01*
X186669623Y-94137386D01*
X186508859Y-94249953D01*
X186347954Y-94410858D01*
X186217432Y-94597265D01*
X186217431Y-94597267D01*
X186190382Y-94655275D01*
X186144209Y-94707714D01*
X186077016Y-94726866D01*
X186010135Y-94706650D01*
X185965618Y-94655275D01*
X185958641Y-94640313D01*
X185938568Y-94597266D01*
X185808047Y-94410861D01*
X185808045Y-94410858D01*
X185647141Y-94249954D01*
X185460734Y-94119432D01*
X185460732Y-94119431D01*
X185254497Y-94023261D01*
X185254488Y-94023258D01*
X185034697Y-93964366D01*
X185034693Y-93964365D01*
X185034692Y-93964365D01*
X185034691Y-93964364D01*
X185034686Y-93964364D01*
X184808002Y-93944532D01*
X184807998Y-93944532D01*
X184581313Y-93964364D01*
X184581302Y-93964366D01*
X184361511Y-94023258D01*
X184361502Y-94023261D01*
X184155267Y-94119431D01*
X184155265Y-94119432D01*
X183968858Y-94249954D01*
X183807956Y-94410856D01*
X183692449Y-94575818D01*
X183637872Y-94619442D01*
X183598663Y-94628449D01*
X183562959Y-94630696D01*
X183555185Y-94633222D01*
X183532420Y-94638310D01*
X183516571Y-94640313D01*
X183516356Y-94638613D01*
X183456017Y-94636537D01*
X183398573Y-94596764D01*
X183393459Y-94589970D01*
X183268047Y-94410861D01*
X183268045Y-94410858D01*
X183107141Y-94249954D01*
X182920734Y-94119432D01*
X182920732Y-94119431D01*
X182714497Y-94023261D01*
X182714488Y-94023258D01*
X182494697Y-93964366D01*
X182494693Y-93964365D01*
X182494692Y-93964365D01*
X182494691Y-93964364D01*
X182494686Y-93964364D01*
X182268002Y-93944532D01*
X182267998Y-93944532D01*
X182041313Y-93964364D01*
X182041302Y-93964366D01*
X181821511Y-94023258D01*
X181821502Y-94023261D01*
X181615267Y-94119431D01*
X181615265Y-94119432D01*
X181428858Y-94249954D01*
X181267954Y-94410858D01*
X181137432Y-94597265D01*
X181137431Y-94597267D01*
X181110382Y-94655275D01*
X181064209Y-94707714D01*
X180997016Y-94726866D01*
X180930135Y-94706650D01*
X180885618Y-94655275D01*
X180878641Y-94640313D01*
X180858568Y-94597266D01*
X180728047Y-94410861D01*
X180728045Y-94410858D01*
X180567141Y-94249954D01*
X180380734Y-94119432D01*
X180380732Y-94119431D01*
X180174497Y-94023261D01*
X180174488Y-94023258D01*
X179954697Y-93964366D01*
X179954693Y-93964365D01*
X179954692Y-93964365D01*
X179954691Y-93964364D01*
X179954686Y-93964364D01*
X179728002Y-93944532D01*
X179727998Y-93944532D01*
X179501313Y-93964364D01*
X179501302Y-93964366D01*
X179281511Y-94023258D01*
X179281502Y-94023261D01*
X179075267Y-94119431D01*
X179075265Y-94119432D01*
X178888858Y-94249954D01*
X178727954Y-94410858D01*
X178597432Y-94597265D01*
X178597431Y-94597267D01*
X178570382Y-94655275D01*
X178524209Y-94707714D01*
X178457016Y-94726866D01*
X178390135Y-94706650D01*
X178345618Y-94655275D01*
X178338641Y-94640313D01*
X178318568Y-94597266D01*
X178188047Y-94410861D01*
X178188045Y-94410858D01*
X178027141Y-94249954D01*
X177840734Y-94119432D01*
X177840732Y-94119431D01*
X177634497Y-94023261D01*
X177634488Y-94023258D01*
X177414697Y-93964366D01*
X177414693Y-93964365D01*
X177414692Y-93964365D01*
X177414691Y-93964364D01*
X177414686Y-93964364D01*
X177188002Y-93944532D01*
X177187998Y-93944532D01*
X176961313Y-93964364D01*
X176961302Y-93964366D01*
X176741511Y-94023258D01*
X176741502Y-94023261D01*
X176535267Y-94119431D01*
X176535265Y-94119432D01*
X176348858Y-94249954D01*
X176187954Y-94410858D01*
X176057432Y-94597265D01*
X176057431Y-94597267D01*
X175961261Y-94803502D01*
X175961258Y-94803511D01*
X175902366Y-95023302D01*
X175902364Y-95023313D01*
X175882532Y-95249998D01*
X175882532Y-95250001D01*
X175902364Y-95476686D01*
X175902366Y-95476697D01*
X175961258Y-95696488D01*
X175961261Y-95696497D01*
X176057431Y-95902732D01*
X176057432Y-95902734D01*
X176187954Y-96089141D01*
X176348858Y-96250045D01*
X176348861Y-96250047D01*
X176535266Y-96380568D01*
X176741504Y-96476739D01*
X176961308Y-96535635D01*
X177123230Y-96549801D01*
X177187998Y-96555468D01*
X177188000Y-96555468D01*
X177188002Y-96555468D01*
X177244807Y-96550498D01*
X177414692Y-96535635D01*
X177634496Y-96476739D01*
X177840734Y-96380568D01*
X178027139Y-96250047D01*
X178188047Y-96089139D01*
X178318568Y-95902734D01*
X178345618Y-95844724D01*
X178391790Y-95792285D01*
X178458983Y-95773133D01*
X178525865Y-95793348D01*
X178570382Y-95844725D01*
X178597429Y-95902728D01*
X178597432Y-95902734D01*
X178727954Y-96089141D01*
X178888858Y-96250045D01*
X178888861Y-96250047D01*
X179075266Y-96380568D01*
X179281504Y-96476739D01*
X179501308Y-96535635D01*
X179663230Y-96549801D01*
X179727998Y-96555468D01*
X179728000Y-96555468D01*
X179728002Y-96555468D01*
X179784807Y-96550498D01*
X179954692Y-96535635D01*
X180174496Y-96476739D01*
X180380734Y-96380568D01*
X180567139Y-96250047D01*
X180728047Y-96089139D01*
X180858568Y-95902734D01*
X180885618Y-95844724D01*
X180931790Y-95792285D01*
X180998983Y-95773133D01*
X181065865Y-95793348D01*
X181110382Y-95844725D01*
X181137429Y-95902728D01*
X181137432Y-95902734D01*
X181267954Y-96089141D01*
X181428858Y-96250045D01*
X181428861Y-96250047D01*
X181615266Y-96380568D01*
X181648572Y-96396099D01*
X181701010Y-96442271D01*
X181720161Y-96509465D01*
X181699945Y-96576346D01*
X181683846Y-96596161D01*
X181296428Y-96983581D01*
X181235105Y-97017066D01*
X181208747Y-97019900D01*
X180849843Y-97019900D01*
X180834222Y-97018175D01*
X180834196Y-97018461D01*
X180826434Y-97017727D01*
X180826433Y-97017727D01*
X180757286Y-97019900D01*
X180727749Y-97019900D01*
X180720866Y-97020769D01*
X180715049Y-97021226D01*
X180668473Y-97022690D01*
X180649229Y-97028281D01*
X180630179Y-97032225D01*
X180610311Y-97034734D01*
X180566984Y-97051888D01*
X180561458Y-97053779D01*
X180516714Y-97066779D01*
X180516710Y-97066781D01*
X180499466Y-97076979D01*
X180482005Y-97085533D01*
X180463374Y-97092910D01*
X180463362Y-97092917D01*
X180425670Y-97120302D01*
X180420787Y-97123509D01*
X180380680Y-97147229D01*
X180366514Y-97161395D01*
X180351724Y-97174027D01*
X180335514Y-97185804D01*
X180335511Y-97185807D01*
X180305810Y-97221709D01*
X180301877Y-97226031D01*
X149812180Y-127715728D01*
X149750857Y-127749213D01*
X149681165Y-127744229D01*
X149625232Y-127702357D01*
X149600815Y-127636893D01*
X149600499Y-127628047D01*
X149600499Y-127478129D01*
X149600498Y-127478123D01*
X149594091Y-127418516D01*
X149543797Y-127283671D01*
X149543793Y-127283664D01*
X149457547Y-127168455D01*
X149457544Y-127168452D01*
X149342335Y-127082206D01*
X149342328Y-127082202D01*
X149207482Y-127031908D01*
X149207483Y-127031908D01*
X149147883Y-127025501D01*
X149147881Y-127025500D01*
X149147873Y-127025500D01*
X149147864Y-127025500D01*
X148052129Y-127025500D01*
X148052123Y-127025501D01*
X147992516Y-127031908D01*
X147857671Y-127082202D01*
X147857664Y-127082206D01*
X147742455Y-127168452D01*
X147742452Y-127168455D01*
X147656206Y-127283664D01*
X147656203Y-127283669D01*
X147642715Y-127319834D01*
X147600843Y-127375767D01*
X147535379Y-127400184D01*
X147526533Y-127400500D01*
X134168352Y-127400500D01*
X134101313Y-127380815D01*
X134080671Y-127364181D01*
X120041819Y-113325328D01*
X120008334Y-113264005D01*
X120005500Y-113237647D01*
X120005500Y-108504499D01*
X120025185Y-108437460D01*
X120077989Y-108391705D01*
X120129500Y-108380499D01*
X120627871Y-108380499D01*
X120627872Y-108380499D01*
X120687483Y-108374091D01*
X120822331Y-108323796D01*
X120937546Y-108237546D01*
X121023796Y-108122331D01*
X121074091Y-107987483D01*
X121080500Y-107927873D01*
X121080500Y-106680004D01*
X122675233Y-106680004D01*
X122694273Y-106934079D01*
X122750968Y-107182477D01*
X122750973Y-107182494D01*
X122844058Y-107419671D01*
X122844057Y-107419671D01*
X122971457Y-107640332D01*
X123013452Y-107692993D01*
X123698590Y-107007855D01*
X123759913Y-106974370D01*
X123829604Y-106979354D01*
X123884645Y-107020049D01*
X123929658Y-107078710D01*
X123952075Y-107107925D01*
X124039948Y-107175353D01*
X124081150Y-107231781D01*
X124085305Y-107301527D01*
X124052142Y-107361409D01*
X123366813Y-108046737D01*
X123527623Y-108156375D01*
X123527624Y-108156376D01*
X123757176Y-108266921D01*
X123757174Y-108266921D01*
X124000652Y-108342024D01*
X124000658Y-108342026D01*
X124252595Y-108379999D01*
X124252604Y-108380000D01*
X124507396Y-108380000D01*
X124507404Y-108379999D01*
X124759341Y-108342026D01*
X124759347Y-108342024D01*
X125002824Y-108266921D01*
X125232381Y-108156373D01*
X125393185Y-108046737D01*
X124707856Y-107361409D01*
X124674371Y-107300086D01*
X124679355Y-107230395D01*
X124720049Y-107175353D01*
X124807925Y-107107925D01*
X124875354Y-107020048D01*
X124931779Y-106978848D01*
X125001525Y-106974693D01*
X125061409Y-107007856D01*
X125746545Y-107692993D01*
X125788545Y-107640327D01*
X125915941Y-107419671D01*
X126009026Y-107182494D01*
X126009031Y-107182477D01*
X126065726Y-106934079D01*
X126084767Y-106680004D01*
X126084767Y-106679995D01*
X126065726Y-106425920D01*
X126009031Y-106177522D01*
X126009026Y-106177505D01*
X125915941Y-105940328D01*
X125915942Y-105940328D01*
X125788544Y-105719671D01*
X125746545Y-105667005D01*
X125061409Y-106352142D01*
X125000086Y-106385627D01*
X124930394Y-106380643D01*
X124875353Y-106339948D01*
X124807925Y-106252075D01*
X124807925Y-106252074D01*
X124720049Y-106184645D01*
X124678847Y-106128219D01*
X124674692Y-106058473D01*
X124707855Y-105998590D01*
X125393185Y-105313261D01*
X125232377Y-105203624D01*
X125232376Y-105203623D01*
X125002823Y-105093078D01*
X125002825Y-105093078D01*
X124759347Y-105017975D01*
X124759341Y-105017973D01*
X124507404Y-104980000D01*
X124252595Y-104980000D01*
X124000658Y-105017973D01*
X124000652Y-105017975D01*
X123757175Y-105093078D01*
X123527624Y-105203623D01*
X123527616Y-105203628D01*
X123366813Y-105313261D01*
X124052143Y-105998590D01*
X124085628Y-106059913D01*
X124080644Y-106129604D01*
X124039949Y-106184646D01*
X123952075Y-106252074D01*
X123952074Y-106252075D01*
X123884646Y-106339949D01*
X123828218Y-106381151D01*
X123758472Y-106385306D01*
X123698590Y-106352143D01*
X123013453Y-105667006D01*
X122971455Y-105719670D01*
X122844058Y-105940328D01*
X122750973Y-106177505D01*
X122750968Y-106177522D01*
X122694273Y-106425920D01*
X122675233Y-106679995D01*
X122675233Y-106680004D01*
X121080500Y-106680004D01*
X121080499Y-105432128D01*
X121074091Y-105372517D01*
X121058705Y-105331266D01*
X121023797Y-105237671D01*
X121023793Y-105237664D01*
X120937547Y-105122455D01*
X120937544Y-105122452D01*
X120822335Y-105036206D01*
X120822328Y-105036202D01*
X120687482Y-104985908D01*
X120687483Y-104985908D01*
X120627883Y-104979501D01*
X120627881Y-104979500D01*
X120627873Y-104979500D01*
X120627864Y-104979500D01*
X118132129Y-104979500D01*
X118132123Y-104979501D01*
X118072516Y-104985908D01*
X117937671Y-105036202D01*
X117937664Y-105036206D01*
X117822455Y-105122452D01*
X117822452Y-105122455D01*
X117736206Y-105237664D01*
X117736202Y-105237671D01*
X117685908Y-105372517D01*
X117682261Y-105406445D01*
X117679501Y-105432123D01*
X117679500Y-105432135D01*
X117679500Y-107927870D01*
X117679501Y-107927876D01*
X117685908Y-107987483D01*
X117736202Y-108122328D01*
X117736206Y-108122335D01*
X117822452Y-108237544D01*
X117822455Y-108237547D01*
X117937664Y-108323793D01*
X117937671Y-108323797D01*
X117982618Y-108340560D01*
X118072517Y-108374091D01*
X118132127Y-108380500D01*
X118630500Y-108380499D01*
X118697539Y-108400183D01*
X118743294Y-108452987D01*
X118754500Y-108504499D01*
X118754499Y-113237646D01*
X118734814Y-113304685D01*
X118718180Y-113325327D01*
X101216208Y-130827299D01*
X101203951Y-130837120D01*
X101204134Y-130837341D01*
X101198123Y-130842313D01*
X101150772Y-130892736D01*
X101129889Y-130913619D01*
X101129877Y-130913632D01*
X101125621Y-130919117D01*
X101121837Y-130923547D01*
X101089937Y-130957518D01*
X101089936Y-130957520D01*
X101080284Y-130975076D01*
X101069610Y-130991326D01*
X101057329Y-131007161D01*
X101057324Y-131007168D01*
X101038815Y-131049938D01*
X101036245Y-131055184D01*
X101013802Y-131096009D01*
X101012752Y-131100099D01*
X101011053Y-131102952D01*
X101010932Y-131103259D01*
X101010882Y-131103239D01*
X100977013Y-131160136D01*
X100914488Y-131191320D01*
X100866868Y-131190548D01*
X100697274Y-131154500D01*
X100502726Y-131154500D01*
X100312430Y-131194948D01*
X100312427Y-131194949D01*
X100150434Y-131267072D01*
X100081184Y-131276356D01*
X100049566Y-131267072D01*
X99887572Y-131194949D01*
X99887569Y-131194948D01*
X99697274Y-131154500D01*
X99502726Y-131154500D01*
X99312432Y-131194948D01*
X99306250Y-131196957D01*
X99305384Y-131194294D01*
X99248267Y-131201892D01*
X99223876Y-131195529D01*
X99132379Y-131161403D01*
X99132372Y-131161401D01*
X99072844Y-131155000D01*
X98850000Y-131155000D01*
X98850000Y-131494811D01*
X98833387Y-131556810D01*
X98749858Y-131701486D01*
X98749852Y-131701500D01*
X98735941Y-131744317D01*
X98696504Y-131801993D01*
X98632146Y-131829192D01*
X98618010Y-131830000D01*
X98575371Y-131830000D01*
X98498191Y-131845352D01*
X98428599Y-131839125D01*
X98373422Y-131796261D01*
X98350178Y-131730372D01*
X98350000Y-131723735D01*
X98350000Y-131155000D01*
X98127155Y-131155000D01*
X98067627Y-131161401D01*
X98067620Y-131161403D01*
X97932913Y-131211645D01*
X97932906Y-131211649D01*
X97817812Y-131297809D01*
X97817809Y-131297812D01*
X97731649Y-131412906D01*
X97731645Y-131412913D01*
X97681403Y-131547620D01*
X97681401Y-131547627D01*
X97675000Y-131607155D01*
X97675000Y-131830000D01*
X98243735Y-131830000D01*
X98310774Y-131849685D01*
X98356529Y-131902489D01*
X98366473Y-131971647D01*
X98365353Y-131978191D01*
X98345102Y-132079999D01*
X98365353Y-132181809D01*
X98359125Y-132251401D01*
X98316261Y-132306578D01*
X98250371Y-132329822D01*
X98243735Y-132330000D01*
X97675000Y-132330000D01*
X97675000Y-132552844D01*
X83820500Y-132552844D01*
X83820500Y-119380000D01*
X87894659Y-119380000D01*
X87913975Y-119576129D01*
X87913976Y-119576132D01*
X87950833Y-119697634D01*
X87971188Y-119764733D01*
X88064086Y-119938532D01*
X88064090Y-119938539D01*
X88189116Y-120090883D01*
X88341460Y-120215909D01*
X88341467Y-120215913D01*
X88388155Y-120240868D01*
X88515273Y-120308814D01*
X88545937Y-120318116D01*
X88549436Y-120319294D01*
X88551796Y-120320168D01*
X88551799Y-120320170D01*
X88558005Y-120321776D01*
X88703868Y-120366024D01*
X88734662Y-120369056D01*
X88741911Y-120370344D01*
X88741955Y-120370063D01*
X88748178Y-120371016D01*
X88748182Y-120371017D01*
X88756787Y-120371453D01*
X88756805Y-120371459D01*
X88759946Y-120371618D01*
X88762861Y-120371834D01*
X88900000Y-120385341D01*
X88935203Y-120381873D01*
X88944500Y-120381653D01*
X88944498Y-120381610D01*
X88950766Y-120381291D01*
X88950780Y-120381292D01*
X88951208Y-120381226D01*
X88966546Y-120378877D01*
X88969846Y-120378461D01*
X89096132Y-120366024D01*
X89134291Y-120354448D01*
X89150809Y-120350699D01*
X89151290Y-120350574D01*
X89151299Y-120350573D01*
X89168703Y-120344127D01*
X89172227Y-120342940D01*
X89284727Y-120308814D01*
X89327653Y-120285869D01*
X89335333Y-120282415D01*
X89347671Y-120277846D01*
X89349294Y-120277733D01*
X89353361Y-120275739D01*
X89370806Y-120269278D01*
X89395763Y-120249463D01*
X89458538Y-120215910D01*
X89499629Y-120182186D01*
X89506133Y-120177521D01*
X89513096Y-120173181D01*
X89516523Y-120172226D01*
X89524385Y-120166141D01*
X89538415Y-120157395D01*
X89557847Y-120134407D01*
X89610883Y-120090883D01*
X89644967Y-120049351D01*
X89653340Y-120043647D01*
X89653512Y-120043401D01*
X89669861Y-120024357D01*
X89680284Y-120014448D01*
X89693949Y-119989667D01*
X89735910Y-119938538D01*
X89761697Y-119890293D01*
X89770069Y-119881769D01*
X89771629Y-119878136D01*
X89783806Y-119856197D01*
X89790791Y-119846160D01*
X89798745Y-119820980D01*
X89828814Y-119764727D01*
X89845082Y-119711098D01*
X89852588Y-119699642D01*
X89854058Y-119692494D01*
X89861570Y-119668552D01*
X89865511Y-119659366D01*
X89868148Y-119635058D01*
X89886024Y-119576132D01*
X89893116Y-119504122D01*
X89894083Y-119497739D01*
X89897435Y-119481429D01*
X89897435Y-119481426D01*
X89901518Y-119461560D01*
X89899506Y-119439240D01*
X89905341Y-119380000D01*
X100594659Y-119380000D01*
X100613975Y-119576129D01*
X100613976Y-119576132D01*
X100650833Y-119697634D01*
X100671188Y-119764733D01*
X100764086Y-119938532D01*
X100764090Y-119938539D01*
X100889116Y-120090883D01*
X101041460Y-120215909D01*
X101041467Y-120215913D01*
X101088155Y-120240868D01*
X101215273Y-120308814D01*
X101245937Y-120318116D01*
X101249436Y-120319294D01*
X101251796Y-120320168D01*
X101251799Y-120320170D01*
X101258005Y-120321776D01*
X101403868Y-120366024D01*
X101434662Y-120369056D01*
X101441911Y-120370344D01*
X101441955Y-120370063D01*
X101448178Y-120371016D01*
X101448182Y-120371017D01*
X101456787Y-120371453D01*
X101456805Y-120371459D01*
X101459946Y-120371618D01*
X101462861Y-120371834D01*
X101600000Y-120385341D01*
X101635203Y-120381873D01*
X101644500Y-120381653D01*
X101644498Y-120381610D01*
X101650766Y-120381291D01*
X101650780Y-120381292D01*
X101651208Y-120381226D01*
X101666546Y-120378877D01*
X101669846Y-120378461D01*
X101796132Y-120366024D01*
X101834291Y-120354448D01*
X101850809Y-120350699D01*
X101851290Y-120350574D01*
X101851299Y-120350573D01*
X101868703Y-120344127D01*
X101872227Y-120342940D01*
X101984727Y-120308814D01*
X102027653Y-120285869D01*
X102035333Y-120282415D01*
X102047671Y-120277846D01*
X102049294Y-120277733D01*
X102053361Y-120275739D01*
X102070806Y-120269278D01*
X102095763Y-120249463D01*
X102158538Y-120215910D01*
X102199629Y-120182186D01*
X102206133Y-120177521D01*
X102213096Y-120173181D01*
X102216523Y-120172226D01*
X102224385Y-120166141D01*
X102238415Y-120157395D01*
X102257847Y-120134407D01*
X102310883Y-120090883D01*
X102344967Y-120049351D01*
X102353340Y-120043647D01*
X102353512Y-120043401D01*
X102369861Y-120024357D01*
X102380284Y-120014448D01*
X102393949Y-119989667D01*
X102435910Y-119938538D01*
X102461697Y-119890293D01*
X102470069Y-119881769D01*
X102471629Y-119878136D01*
X102483806Y-119856197D01*
X102490791Y-119846160D01*
X102498745Y-119820980D01*
X102528814Y-119764727D01*
X102545082Y-119711098D01*
X102552588Y-119699642D01*
X102554058Y-119692494D01*
X102561570Y-119668552D01*
X102565511Y-119659366D01*
X102568148Y-119635058D01*
X102586024Y-119576132D01*
X102593116Y-119504122D01*
X102594083Y-119497739D01*
X102597435Y-119481429D01*
X102597435Y-119481426D01*
X102601518Y-119461560D01*
X102599506Y-119439240D01*
X102605341Y-119380000D01*
X102599506Y-119320759D01*
X102602673Y-119304058D01*
X102594085Y-119262270D01*
X102593114Y-119255860D01*
X102586024Y-119183868D01*
X102568149Y-119124945D01*
X102567984Y-119106392D01*
X102561570Y-119091446D01*
X102554058Y-119067506D01*
X102553519Y-119064885D01*
X102545083Y-119048904D01*
X102528814Y-118995273D01*
X102528813Y-118995272D01*
X102528813Y-118995270D01*
X102498746Y-118939019D01*
X102494660Y-118919395D01*
X102483807Y-118903802D01*
X102471691Y-118881974D01*
X102461696Y-118869705D01*
X102435910Y-118821462D01*
X102393947Y-118770331D01*
X102385547Y-118750551D01*
X102369858Y-118735638D01*
X102356720Y-118720334D01*
X102344964Y-118710645D01*
X102310882Y-118669115D01*
X102257848Y-118625591D01*
X102244973Y-118606689D01*
X102224384Y-118593856D01*
X102218403Y-118589226D01*
X102213073Y-118586804D01*
X102206145Y-118582485D01*
X102199611Y-118577798D01*
X102158538Y-118544090D01*
X102158537Y-118544089D01*
X102158532Y-118544085D01*
X102095761Y-118510534D01*
X102078483Y-118493562D01*
X102053359Y-118484258D01*
X102050287Y-118482751D01*
X102047673Y-118482152D01*
X102035330Y-118477582D01*
X102027624Y-118474115D01*
X101984726Y-118451185D01*
X101872253Y-118417066D01*
X101868721Y-118415878D01*
X101851295Y-118409425D01*
X101850874Y-118409316D01*
X101834276Y-118405547D01*
X101796130Y-118393975D01*
X101669867Y-118381539D01*
X101666555Y-118381123D01*
X101650804Y-118378709D01*
X101644504Y-118378390D01*
X101644506Y-118378347D01*
X101635205Y-118378125D01*
X101600003Y-118374659D01*
X101599999Y-118374659D01*
X101462932Y-118388157D01*
X101460014Y-118388375D01*
X101456830Y-118388537D01*
X101456797Y-118388546D01*
X101448177Y-118388983D01*
X101441974Y-118389934D01*
X101441931Y-118389654D01*
X101434679Y-118390941D01*
X101403869Y-118393975D01*
X101258009Y-118438221D01*
X101251793Y-118439831D01*
X101249430Y-118440706D01*
X101245903Y-118441893D01*
X101215270Y-118451186D01*
X101041467Y-118544086D01*
X101041460Y-118544090D01*
X100889116Y-118669116D01*
X100764090Y-118821460D01*
X100764086Y-118821467D01*
X100671188Y-118995266D01*
X100613975Y-119183870D01*
X100594659Y-119380000D01*
X89905341Y-119380000D01*
X89899506Y-119320759D01*
X89902673Y-119304058D01*
X89894085Y-119262270D01*
X89893114Y-119255860D01*
X89886024Y-119183868D01*
X89868149Y-119124945D01*
X89867984Y-119106392D01*
X89861570Y-119091446D01*
X89854058Y-119067506D01*
X89853519Y-119064885D01*
X89845083Y-119048904D01*
X89828814Y-118995273D01*
X89828813Y-118995272D01*
X89828813Y-118995270D01*
X89798746Y-118939019D01*
X89794660Y-118919395D01*
X89783807Y-118903802D01*
X89771691Y-118881974D01*
X89761696Y-118869705D01*
X89735910Y-118821462D01*
X89693947Y-118770331D01*
X89685547Y-118750551D01*
X89669858Y-118735638D01*
X89656720Y-118720334D01*
X89644964Y-118710645D01*
X89610882Y-118669115D01*
X89557848Y-118625591D01*
X89544973Y-118606689D01*
X89524384Y-118593856D01*
X89518403Y-118589226D01*
X89513073Y-118586804D01*
X89506145Y-118582485D01*
X89499611Y-118577798D01*
X89458538Y-118544090D01*
X89458537Y-118544089D01*
X89458532Y-118544085D01*
X89395761Y-118510534D01*
X89378483Y-118493562D01*
X89353359Y-118484258D01*
X89350287Y-118482751D01*
X89347673Y-118482152D01*
X89335330Y-118477582D01*
X89327624Y-118474115D01*
X89284726Y-118451185D01*
X89172253Y-118417066D01*
X89168721Y-118415878D01*
X89151295Y-118409425D01*
X89150874Y-118409316D01*
X89134276Y-118405547D01*
X89096130Y-118393975D01*
X88969867Y-118381539D01*
X88966555Y-118381123D01*
X88950804Y-118378709D01*
X88944504Y-118378390D01*
X88944506Y-118378347D01*
X88935205Y-118378125D01*
X88900003Y-118374659D01*
X88899999Y-118374659D01*
X88762932Y-118388157D01*
X88760014Y-118388375D01*
X88756830Y-118388537D01*
X88756797Y-118388546D01*
X88748177Y-118388983D01*
X88741974Y-118389934D01*
X88741931Y-118389654D01*
X88734679Y-118390941D01*
X88703869Y-118393975D01*
X88558009Y-118438221D01*
X88551793Y-118439831D01*
X88549430Y-118440706D01*
X88545903Y-118441893D01*
X88515270Y-118451186D01*
X88341467Y-118544086D01*
X88341460Y-118544090D01*
X88189116Y-118669116D01*
X88064090Y-118821460D01*
X88064086Y-118821467D01*
X87971188Y-118995266D01*
X87913975Y-119183870D01*
X87894659Y-119380000D01*
X83820500Y-119380000D01*
X83820500Y-111760000D01*
X87894659Y-111760000D01*
X87913975Y-111956129D01*
X87913976Y-111956132D01*
X87942011Y-112048552D01*
X87971188Y-112144733D01*
X88064086Y-112318532D01*
X88064090Y-112318539D01*
X88189116Y-112470883D01*
X88341460Y-112595909D01*
X88341467Y-112595913D01*
X88341469Y-112595914D01*
X88515273Y-112688814D01*
X88545937Y-112698116D01*
X88549436Y-112699294D01*
X88551796Y-112700168D01*
X88551799Y-112700170D01*
X88558005Y-112701776D01*
X88703868Y-112746024D01*
X88734662Y-112749056D01*
X88741911Y-112750344D01*
X88741955Y-112750063D01*
X88748178Y-112751016D01*
X88748182Y-112751017D01*
X88756787Y-112751453D01*
X88756805Y-112751459D01*
X88759946Y-112751618D01*
X88762861Y-112751834D01*
X88900000Y-112765341D01*
X88935203Y-112761873D01*
X88944500Y-112761653D01*
X88944498Y-112761610D01*
X88950766Y-112761291D01*
X88950780Y-112761292D01*
X88951208Y-112761226D01*
X88966546Y-112758877D01*
X88969846Y-112758461D01*
X89096132Y-112746024D01*
X89134291Y-112734448D01*
X89150809Y-112730699D01*
X89151290Y-112730574D01*
X89151299Y-112730573D01*
X89168703Y-112724127D01*
X89172227Y-112722940D01*
X89284727Y-112688814D01*
X89327653Y-112665869D01*
X89335333Y-112662415D01*
X89347671Y-112657846D01*
X89349294Y-112657733D01*
X89353361Y-112655739D01*
X89370806Y-112649278D01*
X89395763Y-112629463D01*
X89458538Y-112595910D01*
X89499629Y-112562186D01*
X89506133Y-112557521D01*
X89513096Y-112553181D01*
X89516523Y-112552226D01*
X89524385Y-112546141D01*
X89538415Y-112537395D01*
X89557847Y-112514407D01*
X89610883Y-112470883D01*
X89644967Y-112429351D01*
X89653340Y-112423647D01*
X89653512Y-112423401D01*
X89669861Y-112404357D01*
X89680284Y-112394448D01*
X89693949Y-112369667D01*
X89735910Y-112318538D01*
X89761697Y-112270293D01*
X89770069Y-112261769D01*
X89771629Y-112258136D01*
X89783806Y-112236197D01*
X89790791Y-112226160D01*
X89798745Y-112200980D01*
X89828814Y-112144727D01*
X89845082Y-112091098D01*
X89852588Y-112079642D01*
X89854058Y-112072494D01*
X89861570Y-112048552D01*
X89865511Y-112039366D01*
X89868148Y-112015058D01*
X89886024Y-111956132D01*
X89893116Y-111884122D01*
X89894083Y-111877739D01*
X89897435Y-111861429D01*
X89897435Y-111861426D01*
X89901518Y-111841560D01*
X89899506Y-111819240D01*
X89905341Y-111760000D01*
X100594659Y-111760000D01*
X100613975Y-111956129D01*
X100613976Y-111956132D01*
X100642011Y-112048552D01*
X100671188Y-112144733D01*
X100764086Y-112318532D01*
X100764090Y-112318539D01*
X100889116Y-112470883D01*
X101041460Y-112595909D01*
X101041467Y-112595913D01*
X101041469Y-112595914D01*
X101215273Y-112688814D01*
X101245937Y-112698116D01*
X101249436Y-112699294D01*
X101251796Y-112700168D01*
X101251799Y-112700170D01*
X101258005Y-112701776D01*
X101403868Y-112746024D01*
X101434662Y-112749056D01*
X101441911Y-112750344D01*
X101441955Y-112750063D01*
X101448178Y-112751016D01*
X101448182Y-112751017D01*
X101456787Y-112751453D01*
X101456805Y-112751459D01*
X101459946Y-112751618D01*
X101462861Y-112751834D01*
X101600000Y-112765341D01*
X101635203Y-112761873D01*
X101644500Y-112761653D01*
X101644498Y-112761610D01*
X101650766Y-112761291D01*
X101650780Y-112761292D01*
X101651208Y-112761226D01*
X101666546Y-112758877D01*
X101669846Y-112758461D01*
X101796132Y-112746024D01*
X101834291Y-112734448D01*
X101850809Y-112730699D01*
X101851290Y-112730574D01*
X101851299Y-112730573D01*
X101868703Y-112724127D01*
X101872227Y-112722940D01*
X101984727Y-112688814D01*
X102027653Y-112665869D01*
X102035333Y-112662415D01*
X102047671Y-112657846D01*
X102049294Y-112657733D01*
X102053361Y-112655739D01*
X102070806Y-112649278D01*
X102095763Y-112629463D01*
X102158538Y-112595910D01*
X102199629Y-112562186D01*
X102206133Y-112557521D01*
X102213096Y-112553181D01*
X102216523Y-112552226D01*
X102224385Y-112546141D01*
X102238415Y-112537395D01*
X102257847Y-112514407D01*
X102310883Y-112470883D01*
X102344967Y-112429351D01*
X102353340Y-112423647D01*
X102353512Y-112423401D01*
X102369861Y-112404357D01*
X102380284Y-112394448D01*
X102393949Y-112369667D01*
X102435910Y-112318538D01*
X102461697Y-112270293D01*
X102470069Y-112261769D01*
X102471629Y-112258136D01*
X102483806Y-112236197D01*
X102490791Y-112226160D01*
X102498745Y-112200980D01*
X102528814Y-112144727D01*
X102545082Y-112091098D01*
X102552588Y-112079642D01*
X102554058Y-112072494D01*
X102561570Y-112048552D01*
X102565511Y-112039366D01*
X102568148Y-112015058D01*
X102586024Y-111956132D01*
X102593116Y-111884122D01*
X102594083Y-111877739D01*
X102597435Y-111861429D01*
X102597435Y-111861426D01*
X102601518Y-111841560D01*
X102599506Y-111819240D01*
X102605341Y-111760000D01*
X102599506Y-111700759D01*
X102602673Y-111684058D01*
X102594085Y-111642270D01*
X102593114Y-111635860D01*
X102586024Y-111563868D01*
X102586024Y-111563867D01*
X102568149Y-111504945D01*
X102567984Y-111486392D01*
X102561570Y-111471446D01*
X102554058Y-111447506D01*
X102553519Y-111444885D01*
X102545083Y-111428904D01*
X102528814Y-111375273D01*
X102528813Y-111375272D01*
X102528813Y-111375270D01*
X102498746Y-111319019D01*
X102494660Y-111299395D01*
X102483807Y-111283802D01*
X102471691Y-111261974D01*
X102461696Y-111249705D01*
X102435910Y-111201462D01*
X102393947Y-111150331D01*
X102385547Y-111130551D01*
X102369858Y-111115638D01*
X102356720Y-111100334D01*
X102344964Y-111090645D01*
X102310882Y-111049115D01*
X102257848Y-111005591D01*
X102244973Y-110986689D01*
X102224384Y-110973856D01*
X102218403Y-110969226D01*
X102213073Y-110966804D01*
X102206145Y-110962485D01*
X102199611Y-110957798D01*
X102158538Y-110924090D01*
X102158537Y-110924089D01*
X102158532Y-110924085D01*
X102095761Y-110890534D01*
X102078483Y-110873562D01*
X102053359Y-110864258D01*
X102050287Y-110862751D01*
X102047673Y-110862152D01*
X102035330Y-110857582D01*
X102027624Y-110854115D01*
X101984726Y-110831185D01*
X101872253Y-110797066D01*
X101868721Y-110795878D01*
X101851295Y-110789425D01*
X101850874Y-110789316D01*
X101834276Y-110785547D01*
X101796130Y-110773975D01*
X101669867Y-110761539D01*
X101666555Y-110761123D01*
X101650804Y-110758709D01*
X101644504Y-110758390D01*
X101644506Y-110758347D01*
X101635205Y-110758125D01*
X101600003Y-110754659D01*
X101599999Y-110754659D01*
X101462932Y-110768157D01*
X101460014Y-110768375D01*
X101456830Y-110768537D01*
X101456797Y-110768546D01*
X101448177Y-110768983D01*
X101441974Y-110769934D01*
X101441931Y-110769654D01*
X101434679Y-110770941D01*
X101403869Y-110773975D01*
X101258009Y-110818221D01*
X101251793Y-110819831D01*
X101249430Y-110820706D01*
X101245903Y-110821893D01*
X101215270Y-110831186D01*
X101041467Y-110924086D01*
X101041460Y-110924090D01*
X100889116Y-111049116D01*
X100764090Y-111201460D01*
X100764086Y-111201467D01*
X100671188Y-111375266D01*
X100613975Y-111563870D01*
X100594659Y-111760000D01*
X89905341Y-111760000D01*
X89899506Y-111700759D01*
X89902673Y-111684058D01*
X89894085Y-111642270D01*
X89893114Y-111635860D01*
X89886024Y-111563868D01*
X89886024Y-111563867D01*
X89868149Y-111504945D01*
X89867984Y-111486392D01*
X89861570Y-111471446D01*
X89854058Y-111447506D01*
X89853519Y-111444885D01*
X89845083Y-111428904D01*
X89828814Y-111375273D01*
X89828813Y-111375272D01*
X89828813Y-111375270D01*
X89798746Y-111319019D01*
X89794660Y-111299395D01*
X89783807Y-111283802D01*
X89771691Y-111261974D01*
X89761696Y-111249705D01*
X89735910Y-111201462D01*
X89693947Y-111150331D01*
X89685547Y-111130551D01*
X89669858Y-111115638D01*
X89656720Y-111100334D01*
X89644964Y-111090645D01*
X89610882Y-111049115D01*
X89557848Y-111005591D01*
X89544973Y-110986689D01*
X89524384Y-110973856D01*
X89518403Y-110969226D01*
X89513073Y-110966804D01*
X89506145Y-110962485D01*
X89499611Y-110957798D01*
X89458538Y-110924090D01*
X89458537Y-110924089D01*
X89458532Y-110924085D01*
X89395761Y-110890534D01*
X89378483Y-110873562D01*
X89353359Y-110864258D01*
X89350287Y-110862751D01*
X89347673Y-110862152D01*
X89335330Y-110857582D01*
X89327624Y-110854115D01*
X89284726Y-110831185D01*
X89172253Y-110797066D01*
X89168721Y-110795878D01*
X89151295Y-110789425D01*
X89150874Y-110789316D01*
X89134276Y-110785547D01*
X89096130Y-110773975D01*
X88969867Y-110761539D01*
X88966555Y-110761123D01*
X88950804Y-110758709D01*
X88944504Y-110758390D01*
X88944506Y-110758347D01*
X88935205Y-110758125D01*
X88900003Y-110754659D01*
X88899999Y-110754659D01*
X88762932Y-110768157D01*
X88760014Y-110768375D01*
X88756830Y-110768537D01*
X88756797Y-110768546D01*
X88748177Y-110768983D01*
X88741974Y-110769934D01*
X88741931Y-110769654D01*
X88734679Y-110770941D01*
X88703869Y-110773975D01*
X88558009Y-110818221D01*
X88551793Y-110819831D01*
X88549430Y-110820706D01*
X88545903Y-110821893D01*
X88515270Y-110831186D01*
X88341467Y-110924086D01*
X88341460Y-110924090D01*
X88189116Y-111049116D01*
X88064090Y-111201460D01*
X88064086Y-111201467D01*
X87971188Y-111375266D01*
X87913975Y-111563870D01*
X87894659Y-111760000D01*
X83820500Y-111760000D01*
X83820500Y-100442005D01*
X152676357Y-100442005D01*
X152696890Y-100689812D01*
X152696892Y-100689824D01*
X152757936Y-100930881D01*
X152857826Y-101158606D01*
X152993833Y-101366782D01*
X152999115Y-101372520D01*
X153162256Y-101549738D01*
X153358491Y-101702474D01*
X153358493Y-101702475D01*
X153576332Y-101820364D01*
X153577190Y-101820828D01*
X153796141Y-101895994D01*
X153810964Y-101901083D01*
X153812386Y-101901571D01*
X154057665Y-101942500D01*
X154306335Y-101942500D01*
X154551614Y-101901571D01*
X154786810Y-101820828D01*
X155005509Y-101702474D01*
X155201744Y-101549738D01*
X155370164Y-101366785D01*
X155506173Y-101158607D01*
X155606063Y-100930881D01*
X155667108Y-100689821D01*
X155667396Y-100686346D01*
X155687643Y-100442005D01*
X157676859Y-100442005D01*
X157697385Y-100689729D01*
X157697387Y-100689738D01*
X157758412Y-100930717D01*
X157858266Y-101158364D01*
X157958564Y-101311882D01*
X158573050Y-100697395D01*
X158634373Y-100663910D01*
X158704064Y-100668894D01*
X158759998Y-100710765D01*
X158765039Y-100718025D01*
X158800239Y-100772798D01*
X158881166Y-100842921D01*
X158915602Y-100872759D01*
X158913293Y-100875422D01*
X158948006Y-100915499D01*
X158957935Y-100984660D01*
X158928898Y-101048210D01*
X158922882Y-101054669D01*
X158311942Y-101665609D01*
X158358768Y-101702055D01*
X158358770Y-101702056D01*
X158577385Y-101820364D01*
X158577396Y-101820369D01*
X158812506Y-101901083D01*
X159057707Y-101942000D01*
X159306293Y-101942000D01*
X159551493Y-101901083D01*
X159786603Y-101820369D01*
X159786614Y-101820364D01*
X160005228Y-101702057D01*
X160005231Y-101702055D01*
X160052056Y-101665609D01*
X159441116Y-101054669D01*
X159407631Y-100993346D01*
X159412615Y-100923654D01*
X159449641Y-100874193D01*
X159448398Y-100872759D01*
X159455100Y-100866952D01*
X159563761Y-100772798D01*
X159598954Y-100718037D01*
X159651755Y-100672283D01*
X159720914Y-100662339D01*
X159784470Y-100691363D01*
X159790949Y-100697396D01*
X160405434Y-101311882D01*
X160505731Y-101158369D01*
X160605587Y-100930717D01*
X160666612Y-100689738D01*
X160666614Y-100689729D01*
X160687141Y-100442005D01*
X160687141Y-100441994D01*
X160666614Y-100194270D01*
X160666612Y-100194261D01*
X160605587Y-99953282D01*
X160505731Y-99725630D01*
X160405434Y-99572116D01*
X159790949Y-100186602D01*
X159729626Y-100220087D01*
X159659934Y-100215103D01*
X159604001Y-100173231D01*
X159598953Y-100165961D01*
X159563761Y-100111202D01*
X159448398Y-100011241D01*
X159450698Y-100008585D01*
X159415960Y-99968428D01*
X159406074Y-99899261D01*
X159435152Y-99835729D01*
X159441116Y-99829329D01*
X160052056Y-99218389D01*
X160005229Y-99181943D01*
X159786614Y-99063635D01*
X159786603Y-99063630D01*
X159551493Y-98982916D01*
X159306293Y-98942000D01*
X159057707Y-98942000D01*
X158812506Y-98982916D01*
X158577396Y-99063630D01*
X158577390Y-99063632D01*
X158358761Y-99181949D01*
X158311942Y-99218388D01*
X158311942Y-99218390D01*
X158922883Y-99829330D01*
X158956368Y-99890653D01*
X158951384Y-99960344D01*
X158914358Y-100009805D01*
X158915602Y-100011241D01*
X158800238Y-100111202D01*
X158765046Y-100165962D01*
X158712242Y-100211717D01*
X158643083Y-100221660D01*
X158579528Y-100192634D01*
X158573050Y-100186603D01*
X157958564Y-99572116D01*
X157858267Y-99725632D01*
X157758412Y-99953282D01*
X157697387Y-100194261D01*
X157697385Y-100194270D01*
X157676859Y-100441994D01*
X157676859Y-100442005D01*
X155687643Y-100442005D01*
X155687643Y-100441994D01*
X155667109Y-100194187D01*
X155667107Y-100194175D01*
X155606063Y-99953118D01*
X155506173Y-99725393D01*
X155370166Y-99517217D01*
X155348557Y-99493744D01*
X155201744Y-99334262D01*
X155005509Y-99181526D01*
X155005507Y-99181525D01*
X155005506Y-99181524D01*
X154786811Y-99063172D01*
X154786802Y-99063169D01*
X154551616Y-98982429D01*
X154306335Y-98941500D01*
X154057665Y-98941500D01*
X153812383Y-98982429D01*
X153577197Y-99063169D01*
X153577188Y-99063172D01*
X153358493Y-99181524D01*
X153162257Y-99334261D01*
X152993833Y-99517217D01*
X152857826Y-99725393D01*
X152757936Y-99953118D01*
X152696892Y-100194175D01*
X152696890Y-100194187D01*
X152676357Y-100441994D01*
X152676357Y-100442005D01*
X83820500Y-100442005D01*
X83820500Y-95250000D01*
X138694659Y-95250000D01*
X138713975Y-95446129D01*
X138771188Y-95634733D01*
X138864086Y-95808532D01*
X138867473Y-95813601D01*
X138865955Y-95814615D01*
X138889918Y-95871042D01*
X138878124Y-95939909D01*
X138867515Y-95956420D01*
X138867893Y-95956673D01*
X138864505Y-95961742D01*
X138771652Y-96135458D01*
X138730839Y-96269999D01*
X138730840Y-96270000D01*
X139268045Y-96270000D01*
X139335084Y-96289685D01*
X139380839Y-96342489D01*
X139390783Y-96411647D01*
X139384568Y-96436404D01*
X139375000Y-96462694D01*
X139375000Y-96577306D01*
X139384567Y-96603592D01*
X139388998Y-96673319D01*
X139355027Y-96734375D01*
X139293440Y-96767372D01*
X139268045Y-96770000D01*
X138730840Y-96770000D01*
X138771652Y-96904541D01*
X138864503Y-97078253D01*
X138864507Y-97078260D01*
X138989471Y-97230528D01*
X139141739Y-97355491D01*
X139315465Y-97448349D01*
X139450000Y-97489159D01*
X139450000Y-96953709D01*
X139469685Y-96886670D01*
X139522489Y-96840915D01*
X139591647Y-96830971D01*
X139595481Y-96831584D01*
X139671564Y-96845000D01*
X139671568Y-96845000D01*
X139728432Y-96845000D01*
X139728436Y-96845000D01*
X139804469Y-96831593D01*
X139873906Y-96839337D01*
X139928136Y-96883393D01*
X139949938Y-96949774D01*
X139950000Y-96953709D01*
X139950000Y-97489159D01*
X140084534Y-97448349D01*
X140258260Y-97355491D01*
X140410528Y-97230528D01*
X140535492Y-97078260D01*
X140535496Y-97078253D01*
X140628347Y-96904541D01*
X140669160Y-96770000D01*
X140131955Y-96770000D01*
X140064916Y-96750315D01*
X140019161Y-96697511D01*
X140009217Y-96628353D01*
X140015431Y-96603595D01*
X140025000Y-96577306D01*
X140025000Y-96462694D01*
X140015432Y-96436407D01*
X140011002Y-96366681D01*
X140044973Y-96305625D01*
X140106560Y-96272628D01*
X140131955Y-96270000D01*
X140669160Y-96270000D01*
X140669160Y-96269999D01*
X140628347Y-96135458D01*
X140535496Y-95961746D01*
X140532110Y-95956678D01*
X140533784Y-95955559D01*
X140510081Y-95899746D01*
X140521874Y-95830879D01*
X140532839Y-95813818D01*
X140532523Y-95813607D01*
X140535904Y-95808544D01*
X140535910Y-95808538D01*
X140628814Y-95634727D01*
X140686024Y-95446132D01*
X140705341Y-95250000D01*
X140686024Y-95053868D01*
X140628814Y-94865273D01*
X140627677Y-94863146D01*
X140627418Y-94861904D01*
X140626483Y-94859645D01*
X140626911Y-94859467D01*
X140613435Y-94794746D01*
X140637771Y-94730379D01*
X140643796Y-94722331D01*
X140694091Y-94587483D01*
X140700500Y-94527873D01*
X140700499Y-93432128D01*
X140694091Y-93372517D01*
X140694091Y-93372516D01*
X140643797Y-93237670D01*
X140639547Y-93229888D01*
X140641847Y-93228631D01*
X140622216Y-93175987D01*
X140637073Y-93107715D01*
X140658216Y-93079472D01*
X151324771Y-82412919D01*
X151386095Y-82379434D01*
X151412453Y-82376600D01*
X152490648Y-82376600D01*
X152557687Y-82396285D01*
X152578329Y-82412919D01*
X155247632Y-85082223D01*
X155281117Y-85143546D01*
X155276133Y-85213238D01*
X155234261Y-85269171D01*
X155180361Y-85292213D01*
X154944206Y-85331620D01*
X154716545Y-85409778D01*
X154716531Y-85409784D01*
X154504840Y-85524344D01*
X154504838Y-85524345D01*
X154362252Y-85635325D01*
X154297258Y-85660967D01*
X154228718Y-85647400D01*
X154178393Y-85598932D01*
X154169907Y-85580801D01*
X154158297Y-85549671D01*
X154158293Y-85549664D01*
X154072047Y-85434455D01*
X154072044Y-85434452D01*
X153956835Y-85348206D01*
X153956828Y-85348202D01*
X153821982Y-85297908D01*
X153821983Y-85297908D01*
X153762383Y-85291501D01*
X153762381Y-85291500D01*
X153762373Y-85291500D01*
X153762364Y-85291500D01*
X151761629Y-85291500D01*
X151761623Y-85291501D01*
X151702016Y-85297908D01*
X151567171Y-85348202D01*
X151567164Y-85348206D01*
X151451955Y-85434452D01*
X151451952Y-85434455D01*
X151365706Y-85549664D01*
X151365702Y-85549671D01*
X151315408Y-85684517D01*
X151309001Y-85744116D01*
X151309000Y-85744135D01*
X151309000Y-87839870D01*
X151309001Y-87839876D01*
X151315408Y-87899483D01*
X151365702Y-88034328D01*
X151365706Y-88034335D01*
X151451952Y-88149544D01*
X151451955Y-88149547D01*
X151567164Y-88235793D01*
X151567171Y-88235797D01*
X151702017Y-88286091D01*
X151702016Y-88286091D01*
X151708944Y-88286835D01*
X151761627Y-88292500D01*
X153762372Y-88292499D01*
X153821983Y-88286091D01*
X153956831Y-88235796D01*
X154072046Y-88149546D01*
X154158296Y-88034331D01*
X154158297Y-88034328D01*
X154158298Y-88034327D01*
X154169907Y-88003199D01*
X154211776Y-87947264D01*
X154277240Y-87922844D01*
X154345513Y-87937694D01*
X154362252Y-87948675D01*
X154504831Y-88059649D01*
X154504840Y-88059655D01*
X154716531Y-88174215D01*
X154716545Y-88174221D01*
X154944207Y-88252379D01*
X155052000Y-88270366D01*
X155052000Y-87456652D01*
X155071685Y-87389613D01*
X155124489Y-87343858D01*
X155193647Y-87333914D01*
X155209447Y-87337248D01*
X155226404Y-87342000D01*
X155226406Y-87342000D01*
X155339622Y-87342000D01*
X155411116Y-87332173D01*
X155480209Y-87342545D01*
X155532728Y-87388626D01*
X155551999Y-87455018D01*
X155551999Y-88270366D01*
X155659792Y-88252379D01*
X155887454Y-88174221D01*
X155887468Y-88174215D01*
X156099159Y-88059655D01*
X156099168Y-88059649D01*
X156289116Y-87911806D01*
X156289126Y-87911797D01*
X156452154Y-87734702D01*
X156452155Y-87734701D01*
X156467891Y-87710616D01*
X156521036Y-87665258D01*
X156590267Y-87655833D01*
X156653604Y-87685333D01*
X156675510Y-87710614D01*
X156691446Y-87735007D01*
X156691448Y-87735009D01*
X156691449Y-87735010D01*
X156854537Y-87912171D01*
X157010908Y-88033879D01*
X157044017Y-88059649D01*
X157044561Y-88060072D01*
X157209891Y-88149544D01*
X157255478Y-88174215D01*
X157256336Y-88174679D01*
X157374598Y-88215278D01*
X157484083Y-88252865D01*
X157484085Y-88252865D01*
X157484087Y-88252866D01*
X157721601Y-88292500D01*
X157721602Y-88292500D01*
X157962398Y-88292500D01*
X157962399Y-88292500D01*
X158199913Y-88252866D01*
X158427664Y-88174679D01*
X158639439Y-88060072D01*
X158829463Y-87912171D01*
X158992551Y-87735010D01*
X159124255Y-87533422D01*
X159220983Y-87312905D01*
X159280095Y-87079476D01*
X159295000Y-86899600D01*
X159295000Y-86684400D01*
X159280095Y-86504524D01*
X159220983Y-86271095D01*
X159124255Y-86050578D01*
X158992551Y-85848990D01*
X158829463Y-85671829D01*
X158639975Y-85524345D01*
X158639441Y-85523929D01*
X158427665Y-85409321D01*
X158427656Y-85409318D01*
X158199916Y-85331134D01*
X158000800Y-85297908D01*
X157962399Y-85291500D01*
X157721601Y-85291500D01*
X157602843Y-85311317D01*
X157484086Y-85331134D01*
X157394738Y-85361806D01*
X157324939Y-85364955D01*
X157266796Y-85332205D01*
X153301903Y-81367312D01*
X153292080Y-81355050D01*
X153291859Y-81355234D01*
X153286886Y-81349223D01*
X153286885Y-81349223D01*
X153236464Y-81301873D01*
X153224617Y-81290026D01*
X153215575Y-81280983D01*
X153210086Y-81276725D01*
X153205661Y-81272947D01*
X153171682Y-81241038D01*
X153171680Y-81241036D01*
X153171677Y-81241035D01*
X153154129Y-81231388D01*
X153137863Y-81220704D01*
X153122033Y-81208425D01*
X153079268Y-81189918D01*
X153074022Y-81187348D01*
X153033193Y-81164903D01*
X153033192Y-81164902D01*
X153013793Y-81159922D01*
X152995381Y-81153618D01*
X152976998Y-81145662D01*
X152976992Y-81145660D01*
X152930974Y-81138372D01*
X152925252Y-81137187D01*
X152880121Y-81125600D01*
X152880119Y-81125600D01*
X152860084Y-81125600D01*
X152840686Y-81124073D01*
X152833262Y-81122897D01*
X152820905Y-81120940D01*
X152820904Y-81120940D01*
X152774516Y-81125325D01*
X152768678Y-81125600D01*
X152453602Y-81125600D01*
X152386563Y-81105915D01*
X152340808Y-81053111D01*
X152330864Y-80983953D01*
X152333827Y-80969507D01*
X152387635Y-80768692D01*
X152407468Y-80542000D01*
X152404084Y-80503326D01*
X152396025Y-80411204D01*
X152387635Y-80315308D01*
X152381389Y-80291999D01*
X159823127Y-80291999D01*
X159823128Y-80292000D01*
X160591424Y-80292000D01*
X160658463Y-80311685D01*
X160704218Y-80364489D01*
X160714162Y-80433647D01*
X160713897Y-80435397D01*
X160697014Y-80541996D01*
X160697014Y-80542003D01*
X160713897Y-80648603D01*
X160704942Y-80717896D01*
X160659946Y-80771348D01*
X160593194Y-80791987D01*
X160591424Y-80792000D01*
X159823128Y-80792000D01*
X159875730Y-80988317D01*
X159875734Y-80988326D01*
X159971865Y-81194482D01*
X160102342Y-81380820D01*
X160263179Y-81541657D01*
X160449517Y-81672134D01*
X160655673Y-81768265D01*
X160655682Y-81768269D01*
X160851999Y-81820872D01*
X160852000Y-81820871D01*
X160852000Y-81052575D01*
X160871685Y-80985536D01*
X160924489Y-80939781D01*
X160993647Y-80929837D01*
X160995331Y-80930091D01*
X161027699Y-80935218D01*
X161070515Y-80942000D01*
X161070519Y-80942000D01*
X161133485Y-80942000D01*
X161176300Y-80935218D01*
X161208602Y-80930102D01*
X161277894Y-80939056D01*
X161331347Y-80984052D01*
X161351987Y-81050803D01*
X161352000Y-81052575D01*
X161352000Y-81820872D01*
X161548317Y-81768269D01*
X161548326Y-81768265D01*
X161754482Y-81672134D01*
X161940820Y-81541657D01*
X162101657Y-81380820D01*
X162232134Y-81194482D01*
X162328265Y-80988326D01*
X162328269Y-80988317D01*
X162380872Y-80792000D01*
X161612576Y-80792000D01*
X161545537Y-80772315D01*
X161499782Y-80719511D01*
X161489838Y-80650353D01*
X161490103Y-80648603D01*
X161506986Y-80542003D01*
X161506986Y-80541996D01*
X161490103Y-80435397D01*
X161499058Y-80366104D01*
X161544054Y-80312652D01*
X161610806Y-80292013D01*
X161612576Y-80292000D01*
X162380872Y-80292000D01*
X162380872Y-80291999D01*
X162328269Y-80095682D01*
X162328265Y-80095673D01*
X162232134Y-79889517D01*
X162101657Y-79703179D01*
X161940820Y-79542342D01*
X161754482Y-79411865D01*
X161548328Y-79315734D01*
X161352000Y-79263127D01*
X161352000Y-80031424D01*
X161332315Y-80098463D01*
X161279511Y-80144218D01*
X161210353Y-80154162D01*
X161208602Y-80153897D01*
X161133486Y-80142000D01*
X161133481Y-80142000D01*
X161070519Y-80142000D01*
X161070514Y-80142000D01*
X160995398Y-80153897D01*
X160926104Y-80144942D01*
X160872652Y-80099946D01*
X160852013Y-80033194D01*
X160852000Y-80031424D01*
X160852000Y-79263127D01*
X160655671Y-79315734D01*
X160449517Y-79411865D01*
X160263179Y-79542342D01*
X160102342Y-79703179D01*
X159971865Y-79889517D01*
X159875734Y-80095673D01*
X159875730Y-80095682D01*
X159823127Y-80291999D01*
X152381389Y-80291999D01*
X152328739Y-80095504D01*
X152232568Y-79889266D01*
X152102047Y-79702861D01*
X152102045Y-79702858D01*
X151941140Y-79541953D01*
X151780377Y-79429386D01*
X151736752Y-79374809D01*
X151727500Y-79327811D01*
X151727500Y-77106188D01*
X151747185Y-77039149D01*
X151780377Y-77004613D01*
X151828836Y-76970681D01*
X151941139Y-76892047D01*
X152102047Y-76731139D01*
X152232568Y-76544734D01*
X152328739Y-76338496D01*
X152387635Y-76118692D01*
X152407468Y-75892000D01*
X152387635Y-75665308D01*
X152381389Y-75641999D01*
X159823127Y-75641999D01*
X159823128Y-75642000D01*
X160591424Y-75642000D01*
X160658463Y-75661685D01*
X160704218Y-75714489D01*
X160714162Y-75783647D01*
X160713897Y-75785397D01*
X160697014Y-75891996D01*
X160697014Y-75892003D01*
X160713897Y-75998603D01*
X160704942Y-76067896D01*
X160659946Y-76121348D01*
X160593194Y-76141987D01*
X160591424Y-76142000D01*
X159823128Y-76142000D01*
X159875730Y-76338317D01*
X159875734Y-76338326D01*
X159971865Y-76544482D01*
X160102342Y-76730820D01*
X160263179Y-76891657D01*
X160449517Y-77022134D01*
X160655673Y-77118265D01*
X160655682Y-77118269D01*
X160851999Y-77170872D01*
X160852000Y-77170871D01*
X160852000Y-76402575D01*
X160871685Y-76335536D01*
X160924489Y-76289781D01*
X160993647Y-76279837D01*
X160995331Y-76280091D01*
X161027699Y-76285218D01*
X161070515Y-76292000D01*
X161070519Y-76292000D01*
X161133485Y-76292000D01*
X161176300Y-76285218D01*
X161208602Y-76280102D01*
X161277894Y-76289056D01*
X161331347Y-76334052D01*
X161351987Y-76400803D01*
X161352000Y-76402575D01*
X161352000Y-77170872D01*
X161548317Y-77118269D01*
X161548326Y-77118265D01*
X161754482Y-77022134D01*
X161940820Y-76891657D01*
X162101657Y-76730820D01*
X162232134Y-76544482D01*
X162328265Y-76338326D01*
X162328269Y-76338317D01*
X162380872Y-76142000D01*
X161612576Y-76142000D01*
X161545537Y-76122315D01*
X161499782Y-76069511D01*
X161489838Y-76000353D01*
X161490103Y-75998603D01*
X161506986Y-75892003D01*
X161506986Y-75891996D01*
X161490103Y-75785397D01*
X161499058Y-75716104D01*
X161544054Y-75662652D01*
X161610806Y-75642013D01*
X161612576Y-75642000D01*
X162380872Y-75642000D01*
X162380872Y-75641999D01*
X162328269Y-75445682D01*
X162328265Y-75445673D01*
X162232134Y-75239517D01*
X162101657Y-75053179D01*
X161940820Y-74892342D01*
X161754482Y-74761865D01*
X161548328Y-74665734D01*
X161352000Y-74613127D01*
X161352000Y-75381424D01*
X161332315Y-75448463D01*
X161279511Y-75494218D01*
X161210353Y-75504162D01*
X161208602Y-75503897D01*
X161133486Y-75492000D01*
X161133481Y-75492000D01*
X161070519Y-75492000D01*
X161070514Y-75492000D01*
X160995398Y-75503897D01*
X160926104Y-75494942D01*
X160872652Y-75449946D01*
X160852013Y-75383194D01*
X160852000Y-75381424D01*
X160852000Y-74613127D01*
X160655671Y-74665734D01*
X160449517Y-74761865D01*
X160263179Y-74892342D01*
X160102342Y-75053179D01*
X159971865Y-75239517D01*
X159875734Y-75445673D01*
X159875730Y-75445682D01*
X159823127Y-75641999D01*
X152381389Y-75641999D01*
X152328739Y-75445504D01*
X152232568Y-75239266D01*
X152102047Y-75052861D01*
X152102045Y-75052858D01*
X151941141Y-74891954D01*
X151754734Y-74761432D01*
X151754732Y-74761431D01*
X151548497Y-74665261D01*
X151548488Y-74665258D01*
X151328697Y-74606366D01*
X151328693Y-74606365D01*
X151328692Y-74606365D01*
X151328691Y-74606364D01*
X151328686Y-74606364D01*
X151102002Y-74586532D01*
X151101998Y-74586532D01*
X150875313Y-74606364D01*
X150875302Y-74606366D01*
X150655511Y-74665258D01*
X150655502Y-74665261D01*
X150449267Y-74761431D01*
X150449265Y-74761432D01*
X150262858Y-74891954D01*
X150101954Y-75052858D01*
X149971432Y-75239265D01*
X149971431Y-75239267D01*
X149875261Y-75445502D01*
X149875258Y-75445511D01*
X149816366Y-75665302D01*
X149816364Y-75665313D01*
X149796532Y-75891998D01*
X149796532Y-75892001D01*
X149816364Y-76118686D01*
X149816366Y-76118697D01*
X149875258Y-76338488D01*
X149875261Y-76338497D01*
X149971431Y-76544732D01*
X149971432Y-76544734D01*
X150101954Y-76731141D01*
X150262858Y-76892045D01*
X150423623Y-77004613D01*
X150467248Y-77059189D01*
X150476500Y-77106188D01*
X150476500Y-79327811D01*
X150456815Y-79394850D01*
X150423623Y-79429386D01*
X150262859Y-79541953D01*
X150101954Y-79702858D01*
X149971432Y-79889265D01*
X149971431Y-79889267D01*
X149875261Y-80095502D01*
X149875258Y-80095511D01*
X149816366Y-80315302D01*
X149816364Y-80315313D01*
X149796532Y-80541998D01*
X149796532Y-80542001D01*
X149816364Y-80768686D01*
X149816366Y-80768697D01*
X149875258Y-80988488D01*
X149875261Y-80988497D01*
X149971431Y-81194732D01*
X149971432Y-81194734D01*
X150101954Y-81381141D01*
X150256979Y-81536166D01*
X150290464Y-81597489D01*
X150285480Y-81667181D01*
X150256979Y-81711528D01*
X139316208Y-92652299D01*
X139303951Y-92662120D01*
X139304134Y-92662341D01*
X139298123Y-92667313D01*
X139250772Y-92717736D01*
X139229889Y-92738619D01*
X139229877Y-92738632D01*
X139225621Y-92744117D01*
X139221837Y-92748547D01*
X139189937Y-92782518D01*
X139189936Y-92782520D01*
X139180284Y-92800076D01*
X139169610Y-92816326D01*
X139157329Y-92832161D01*
X139157324Y-92832168D01*
X139138815Y-92874938D01*
X139136245Y-92880184D01*
X139113802Y-92921009D01*
X139113801Y-92921009D01*
X139113729Y-92921294D01*
X139113611Y-92921492D01*
X139110932Y-92928259D01*
X139109839Y-92927826D01*
X139077987Y-92981329D01*
X139036960Y-93006630D01*
X138957671Y-93036202D01*
X138957664Y-93036206D01*
X138842455Y-93122452D01*
X138842452Y-93122455D01*
X138756206Y-93237664D01*
X138756202Y-93237671D01*
X138705908Y-93372517D01*
X138699501Y-93432116D01*
X138699501Y-93432123D01*
X138699500Y-93432135D01*
X138699500Y-94527870D01*
X138699501Y-94527876D01*
X138705908Y-94587483D01*
X138756202Y-94722328D01*
X138756204Y-94722331D01*
X138762231Y-94730382D01*
X138786648Y-94795846D01*
X138773105Y-94859470D01*
X138773518Y-94859641D01*
X138772595Y-94861869D01*
X138772324Y-94863143D01*
X138771188Y-94865267D01*
X138771186Y-94865272D01*
X138771186Y-94865273D01*
X138753869Y-94922359D01*
X138713975Y-95053870D01*
X138694659Y-95250000D01*
X83820500Y-95250000D01*
X83820500Y-90147870D01*
X117679500Y-90147870D01*
X117679501Y-90147876D01*
X117685908Y-90207483D01*
X117736202Y-90342328D01*
X117736206Y-90342335D01*
X117822452Y-90457544D01*
X117822455Y-90457547D01*
X117937664Y-90543793D01*
X117937671Y-90543797D01*
X118072517Y-90594091D01*
X118072516Y-90594091D01*
X118079444Y-90594835D01*
X118132127Y-90600500D01*
X120627872Y-90600499D01*
X120687483Y-90594091D01*
X120822331Y-90543796D01*
X120937546Y-90457546D01*
X121023796Y-90342331D01*
X121074091Y-90207483D01*
X121080500Y-90147873D01*
X121080500Y-88900004D01*
X122675233Y-88900004D01*
X122694273Y-89154079D01*
X122750968Y-89402477D01*
X122750973Y-89402494D01*
X122844058Y-89639671D01*
X122844057Y-89639671D01*
X122971457Y-89860332D01*
X123013452Y-89912993D01*
X123698590Y-89227855D01*
X123759913Y-89194370D01*
X123829604Y-89199354D01*
X123884645Y-89240049D01*
X123952074Y-89327924D01*
X123952075Y-89327925D01*
X124039948Y-89395353D01*
X124081150Y-89451781D01*
X124085305Y-89521527D01*
X124052142Y-89581409D01*
X123366813Y-90266737D01*
X123527623Y-90376375D01*
X123527624Y-90376376D01*
X123757176Y-90486921D01*
X123757174Y-90486921D01*
X124000652Y-90562024D01*
X124000658Y-90562026D01*
X124252595Y-90599999D01*
X124252604Y-90600000D01*
X124507396Y-90600000D01*
X124507404Y-90599999D01*
X124759341Y-90562026D01*
X124759347Y-90562024D01*
X125002824Y-90486921D01*
X125232381Y-90376373D01*
X125393185Y-90266737D01*
X124707856Y-89581409D01*
X124674371Y-89520086D01*
X124679355Y-89450395D01*
X124720049Y-89395353D01*
X124807925Y-89327925D01*
X124875354Y-89240048D01*
X124931779Y-89198848D01*
X125001525Y-89194693D01*
X125061409Y-89227856D01*
X125746545Y-89912993D01*
X125788545Y-89860327D01*
X125915941Y-89639671D01*
X126009026Y-89402494D01*
X126009031Y-89402477D01*
X126065726Y-89154079D01*
X126084767Y-88900004D01*
X126084767Y-88899995D01*
X126065726Y-88645920D01*
X126009031Y-88397522D01*
X126009026Y-88397505D01*
X125915941Y-88160328D01*
X125915942Y-88160328D01*
X125788544Y-87939671D01*
X125746545Y-87887005D01*
X125061409Y-88572142D01*
X125000086Y-88605627D01*
X124930394Y-88600643D01*
X124875353Y-88559948D01*
X124807925Y-88472075D01*
X124807924Y-88472074D01*
X124720049Y-88404645D01*
X124678847Y-88348219D01*
X124674692Y-88278473D01*
X124707855Y-88218590D01*
X125393185Y-87533261D01*
X125232377Y-87423624D01*
X125232376Y-87423623D01*
X125002823Y-87313078D01*
X125002825Y-87313078D01*
X124759347Y-87237975D01*
X124759341Y-87237973D01*
X124507404Y-87200000D01*
X124252595Y-87200000D01*
X124000658Y-87237973D01*
X124000652Y-87237975D01*
X123757175Y-87313078D01*
X123527624Y-87423623D01*
X123527616Y-87423628D01*
X123366813Y-87533261D01*
X124052143Y-88218590D01*
X124085628Y-88279913D01*
X124080644Y-88349604D01*
X124039949Y-88404646D01*
X123952075Y-88472074D01*
X123952074Y-88472075D01*
X123884646Y-88559949D01*
X123828218Y-88601151D01*
X123758472Y-88605306D01*
X123698590Y-88572143D01*
X123013453Y-87887006D01*
X122971455Y-87939670D01*
X122844058Y-88160328D01*
X122750973Y-88397505D01*
X122750968Y-88397522D01*
X122694273Y-88645920D01*
X122675233Y-88899995D01*
X122675233Y-88900004D01*
X121080500Y-88900004D01*
X121080499Y-87652128D01*
X121074091Y-87592517D01*
X121023796Y-87457669D01*
X121023795Y-87457668D01*
X121023793Y-87457664D01*
X120937547Y-87342455D01*
X120937544Y-87342452D01*
X120822335Y-87256206D01*
X120822328Y-87256202D01*
X120687482Y-87205908D01*
X120687483Y-87205908D01*
X120627883Y-87199501D01*
X120627881Y-87199500D01*
X120627873Y-87199500D01*
X120627864Y-87199500D01*
X118132129Y-87199500D01*
X118132123Y-87199501D01*
X118072516Y-87205908D01*
X117937671Y-87256202D01*
X117937664Y-87256206D01*
X117822455Y-87342452D01*
X117822452Y-87342455D01*
X117736206Y-87457664D01*
X117736202Y-87457671D01*
X117685908Y-87592517D01*
X117679501Y-87652116D01*
X117679501Y-87652123D01*
X117679500Y-87652135D01*
X117679500Y-90147870D01*
X83820500Y-90147870D01*
X83820500Y-71244500D01*
X83840185Y-71177461D01*
X83892989Y-71131706D01*
X83944500Y-71120500D01*
X233555500Y-71120500D01*
X233622539Y-71140185D01*
G37*
%TD.AperFunction*%
%TD*%
M02*
