%TF.GenerationSoftware,KiCad,Pcbnew,7.0.7*%
%TF.CreationDate,2023-12-03T23:29:23-03:00*%
%TF.ProjectId,Chocadeira,43686f63-6164-4656-9972-612e6b696361,rev?*%
%TF.SameCoordinates,Original*%
%TF.FileFunction,Legend,Top*%
%TF.FilePolarity,Positive*%
%FSLAX46Y46*%
G04 Gerber Fmt 4.6, Leading zero omitted, Abs format (unit mm)*
G04 Created by KiCad (PCBNEW 7.0.7) date 2023-12-03 23:29:23*
%MOMM*%
%LPD*%
G01*
G04 APERTURE LIST*
%ADD10C,0.150000*%
%ADD11C,0.120000*%
G04 APERTURE END LIST*
D10*
X222472380Y-80174819D02*
X222139047Y-79698628D01*
X221900952Y-80174819D02*
X221900952Y-79174819D01*
X221900952Y-79174819D02*
X222281904Y-79174819D01*
X222281904Y-79174819D02*
X222377142Y-79222438D01*
X222377142Y-79222438D02*
X222424761Y-79270057D01*
X222424761Y-79270057D02*
X222472380Y-79365295D01*
X222472380Y-79365295D02*
X222472380Y-79508152D01*
X222472380Y-79508152D02*
X222424761Y-79603390D01*
X222424761Y-79603390D02*
X222377142Y-79651009D01*
X222377142Y-79651009D02*
X222281904Y-79698628D01*
X222281904Y-79698628D02*
X221900952Y-79698628D01*
X222758095Y-79174819D02*
X223329523Y-79174819D01*
X223043809Y-80174819D02*
X223043809Y-79174819D01*
X224234285Y-80079580D02*
X224186666Y-80127200D01*
X224186666Y-80127200D02*
X224043809Y-80174819D01*
X224043809Y-80174819D02*
X223948571Y-80174819D01*
X223948571Y-80174819D02*
X223805714Y-80127200D01*
X223805714Y-80127200D02*
X223710476Y-80031961D01*
X223710476Y-80031961D02*
X223662857Y-79936723D01*
X223662857Y-79936723D02*
X223615238Y-79746247D01*
X223615238Y-79746247D02*
X223615238Y-79603390D01*
X223615238Y-79603390D02*
X223662857Y-79412914D01*
X223662857Y-79412914D02*
X223710476Y-79317676D01*
X223710476Y-79317676D02*
X223805714Y-79222438D01*
X223805714Y-79222438D02*
X223948571Y-79174819D01*
X223948571Y-79174819D02*
X224043809Y-79174819D01*
X224043809Y-79174819D02*
X224186666Y-79222438D01*
X224186666Y-79222438D02*
X224234285Y-79270057D01*
X225186666Y-80174819D02*
X224615238Y-80174819D01*
X224900952Y-80174819D02*
X224900952Y-79174819D01*
X224900952Y-79174819D02*
X224805714Y-79317676D01*
X224805714Y-79317676D02*
X224710476Y-79412914D01*
X224710476Y-79412914D02*
X224615238Y-79460533D01*
X147153333Y-136784819D02*
X146820000Y-136308628D01*
X146581905Y-136784819D02*
X146581905Y-135784819D01*
X146581905Y-135784819D02*
X146962857Y-135784819D01*
X146962857Y-135784819D02*
X147058095Y-135832438D01*
X147058095Y-135832438D02*
X147105714Y-135880057D01*
X147105714Y-135880057D02*
X147153333Y-135975295D01*
X147153333Y-135975295D02*
X147153333Y-136118152D01*
X147153333Y-136118152D02*
X147105714Y-136213390D01*
X147105714Y-136213390D02*
X147058095Y-136261009D01*
X147058095Y-136261009D02*
X146962857Y-136308628D01*
X146962857Y-136308628D02*
X146581905Y-136308628D01*
X148010476Y-136118152D02*
X148010476Y-136784819D01*
X147772381Y-135737200D02*
X147534286Y-136451485D01*
X147534286Y-136451485D02*
X148153333Y-136451485D01*
X133677142Y-148224819D02*
X133200952Y-148224819D01*
X133200952Y-148224819D02*
X133200952Y-147224819D01*
X134010476Y-147701009D02*
X134343809Y-147701009D01*
X134486666Y-148224819D02*
X134010476Y-148224819D01*
X134010476Y-148224819D02*
X134010476Y-147224819D01*
X134010476Y-147224819D02*
X134486666Y-147224819D01*
X134915238Y-148224819D02*
X134915238Y-147224819D01*
X134915238Y-147224819D02*
X135153333Y-147224819D01*
X135153333Y-147224819D02*
X135296190Y-147272438D01*
X135296190Y-147272438D02*
X135391428Y-147367676D01*
X135391428Y-147367676D02*
X135439047Y-147462914D01*
X135439047Y-147462914D02*
X135486666Y-147653390D01*
X135486666Y-147653390D02*
X135486666Y-147796247D01*
X135486666Y-147796247D02*
X135439047Y-147986723D01*
X135439047Y-147986723D02*
X135391428Y-148081961D01*
X135391428Y-148081961D02*
X135296190Y-148177200D01*
X135296190Y-148177200D02*
X135153333Y-148224819D01*
X135153333Y-148224819D02*
X134915238Y-148224819D01*
X97494819Y-135127618D02*
X96494819Y-135127618D01*
X96494819Y-135127618D02*
X96494819Y-134889523D01*
X96494819Y-134889523D02*
X96542438Y-134746666D01*
X96542438Y-134746666D02*
X96637676Y-134651428D01*
X96637676Y-134651428D02*
X96732914Y-134603809D01*
X96732914Y-134603809D02*
X96923390Y-134556190D01*
X96923390Y-134556190D02*
X97066247Y-134556190D01*
X97066247Y-134556190D02*
X97256723Y-134603809D01*
X97256723Y-134603809D02*
X97351961Y-134651428D01*
X97351961Y-134651428D02*
X97447200Y-134746666D01*
X97447200Y-134746666D02*
X97494819Y-134889523D01*
X97494819Y-134889523D02*
X97494819Y-135127618D01*
X97494819Y-134127618D02*
X96828152Y-134127618D01*
X96494819Y-134127618D02*
X96542438Y-134175237D01*
X96542438Y-134175237D02*
X96590057Y-134127618D01*
X96590057Y-134127618D02*
X96542438Y-134079999D01*
X96542438Y-134079999D02*
X96494819Y-134127618D01*
X96494819Y-134127618D02*
X96590057Y-134127618D01*
X97494819Y-133651428D02*
X96828152Y-133651428D01*
X96923390Y-133651428D02*
X96875771Y-133603809D01*
X96875771Y-133603809D02*
X96828152Y-133508571D01*
X96828152Y-133508571D02*
X96828152Y-133365714D01*
X96828152Y-133365714D02*
X96875771Y-133270476D01*
X96875771Y-133270476D02*
X96971009Y-133222857D01*
X96971009Y-133222857D02*
X97494819Y-133222857D01*
X96971009Y-133222857D02*
X96875771Y-133175238D01*
X96875771Y-133175238D02*
X96828152Y-133080000D01*
X96828152Y-133080000D02*
X96828152Y-132937143D01*
X96828152Y-132937143D02*
X96875771Y-132841904D01*
X96875771Y-132841904D02*
X96971009Y-132794285D01*
X96971009Y-132794285D02*
X97494819Y-132794285D01*
X97494819Y-132318095D02*
X96828152Y-132318095D01*
X96923390Y-132318095D02*
X96875771Y-132270476D01*
X96875771Y-132270476D02*
X96828152Y-132175238D01*
X96828152Y-132175238D02*
X96828152Y-132032381D01*
X96828152Y-132032381D02*
X96875771Y-131937143D01*
X96875771Y-131937143D02*
X96971009Y-131889524D01*
X96971009Y-131889524D02*
X97494819Y-131889524D01*
X96971009Y-131889524D02*
X96875771Y-131841905D01*
X96875771Y-131841905D02*
X96828152Y-131746667D01*
X96828152Y-131746667D02*
X96828152Y-131603810D01*
X96828152Y-131603810D02*
X96875771Y-131508571D01*
X96875771Y-131508571D02*
X96971009Y-131460952D01*
X96971009Y-131460952D02*
X97494819Y-131460952D01*
X97447200Y-130603810D02*
X97494819Y-130699048D01*
X97494819Y-130699048D02*
X97494819Y-130889524D01*
X97494819Y-130889524D02*
X97447200Y-130984762D01*
X97447200Y-130984762D02*
X97351961Y-131032381D01*
X97351961Y-131032381D02*
X96971009Y-131032381D01*
X96971009Y-131032381D02*
X96875771Y-130984762D01*
X96875771Y-130984762D02*
X96828152Y-130889524D01*
X96828152Y-130889524D02*
X96828152Y-130699048D01*
X96828152Y-130699048D02*
X96875771Y-130603810D01*
X96875771Y-130603810D02*
X96971009Y-130556191D01*
X96971009Y-130556191D02*
X97066247Y-130556191D01*
X97066247Y-130556191D02*
X97161485Y-131032381D01*
X97494819Y-130127619D02*
X96828152Y-130127619D01*
X97018628Y-130127619D02*
X96923390Y-130080000D01*
X96923390Y-130080000D02*
X96875771Y-130032381D01*
X96875771Y-130032381D02*
X96828152Y-129937143D01*
X96828152Y-129937143D02*
X96828152Y-129841905D01*
X97494819Y-128984762D02*
X97494819Y-129556190D01*
X97494819Y-129270476D02*
X96494819Y-129270476D01*
X96494819Y-129270476D02*
X96637676Y-129365714D01*
X96637676Y-129365714D02*
X96732914Y-129460952D01*
X96732914Y-129460952D02*
X96780533Y-129556190D01*
X138057143Y-92739819D02*
X138057143Y-91739819D01*
X138057143Y-91739819D02*
X138295238Y-91739819D01*
X138295238Y-91739819D02*
X138438095Y-91787438D01*
X138438095Y-91787438D02*
X138533333Y-91882676D01*
X138533333Y-91882676D02*
X138580952Y-91977914D01*
X138580952Y-91977914D02*
X138628571Y-92168390D01*
X138628571Y-92168390D02*
X138628571Y-92311247D01*
X138628571Y-92311247D02*
X138580952Y-92501723D01*
X138580952Y-92501723D02*
X138533333Y-92596961D01*
X138533333Y-92596961D02*
X138438095Y-92692200D01*
X138438095Y-92692200D02*
X138295238Y-92739819D01*
X138295238Y-92739819D02*
X138057143Y-92739819D01*
X139057143Y-92739819D02*
X139057143Y-91739819D01*
X139057143Y-92216009D02*
X139628571Y-92216009D01*
X139628571Y-92739819D02*
X139628571Y-91739819D01*
X139961905Y-91739819D02*
X140533333Y-91739819D01*
X140247619Y-92739819D02*
X140247619Y-91739819D01*
X141390476Y-92739819D02*
X140819048Y-92739819D01*
X141104762Y-92739819D02*
X141104762Y-91739819D01*
X141104762Y-91739819D02*
X141009524Y-91882676D01*
X141009524Y-91882676D02*
X140914286Y-91977914D01*
X140914286Y-91977914D02*
X140819048Y-92025533D01*
X156515333Y-90501580D02*
X156467714Y-90549200D01*
X156467714Y-90549200D02*
X156324857Y-90596819D01*
X156324857Y-90596819D02*
X156229619Y-90596819D01*
X156229619Y-90596819D02*
X156086762Y-90549200D01*
X156086762Y-90549200D02*
X155991524Y-90453961D01*
X155991524Y-90453961D02*
X155943905Y-90358723D01*
X155943905Y-90358723D02*
X155896286Y-90168247D01*
X155896286Y-90168247D02*
X155896286Y-90025390D01*
X155896286Y-90025390D02*
X155943905Y-89834914D01*
X155943905Y-89834914D02*
X155991524Y-89739676D01*
X155991524Y-89739676D02*
X156086762Y-89644438D01*
X156086762Y-89644438D02*
X156229619Y-89596819D01*
X156229619Y-89596819D02*
X156324857Y-89596819D01*
X156324857Y-89596819D02*
X156467714Y-89644438D01*
X156467714Y-89644438D02*
X156515333Y-89692057D01*
X157467714Y-90596819D02*
X156896286Y-90596819D01*
X157182000Y-90596819D02*
X157182000Y-89596819D01*
X157182000Y-89596819D02*
X157086762Y-89739676D01*
X157086762Y-89739676D02*
X156991524Y-89834914D01*
X156991524Y-89834914D02*
X156896286Y-89882533D01*
X156515333Y-97051580D02*
X156467714Y-97099200D01*
X156467714Y-97099200D02*
X156324857Y-97146819D01*
X156324857Y-97146819D02*
X156229619Y-97146819D01*
X156229619Y-97146819D02*
X156086762Y-97099200D01*
X156086762Y-97099200D02*
X155991524Y-97003961D01*
X155991524Y-97003961D02*
X155943905Y-96908723D01*
X155943905Y-96908723D02*
X155896286Y-96718247D01*
X155896286Y-96718247D02*
X155896286Y-96575390D01*
X155896286Y-96575390D02*
X155943905Y-96384914D01*
X155943905Y-96384914D02*
X155991524Y-96289676D01*
X155991524Y-96289676D02*
X156086762Y-96194438D01*
X156086762Y-96194438D02*
X156229619Y-96146819D01*
X156229619Y-96146819D02*
X156324857Y-96146819D01*
X156324857Y-96146819D02*
X156467714Y-96194438D01*
X156467714Y-96194438D02*
X156515333Y-96242057D01*
X156896286Y-96242057D02*
X156943905Y-96194438D01*
X156943905Y-96194438D02*
X157039143Y-96146819D01*
X157039143Y-96146819D02*
X157277238Y-96146819D01*
X157277238Y-96146819D02*
X157372476Y-96194438D01*
X157372476Y-96194438D02*
X157420095Y-96242057D01*
X157420095Y-96242057D02*
X157467714Y-96337295D01*
X157467714Y-96337295D02*
X157467714Y-96432533D01*
X157467714Y-96432533D02*
X157420095Y-96575390D01*
X157420095Y-96575390D02*
X156848667Y-97146819D01*
X156848667Y-97146819D02*
X157467714Y-97146819D01*
X154540095Y-81976819D02*
X154540095Y-82786342D01*
X154540095Y-82786342D02*
X154587714Y-82881580D01*
X154587714Y-82881580D02*
X154635333Y-82929200D01*
X154635333Y-82929200D02*
X154730571Y-82976819D01*
X154730571Y-82976819D02*
X154921047Y-82976819D01*
X154921047Y-82976819D02*
X155016285Y-82929200D01*
X155016285Y-82929200D02*
X155063904Y-82881580D01*
X155063904Y-82881580D02*
X155111523Y-82786342D01*
X155111523Y-82786342D02*
X155111523Y-81976819D01*
X156111523Y-82976819D02*
X155540095Y-82976819D01*
X155825809Y-82976819D02*
X155825809Y-81976819D01*
X155825809Y-81976819D02*
X155730571Y-82119676D01*
X155730571Y-82119676D02*
X155635333Y-82214914D01*
X155635333Y-82214914D02*
X155540095Y-82262533D01*
X181189333Y-131450819D02*
X180856000Y-130974628D01*
X180617905Y-131450819D02*
X180617905Y-130450819D01*
X180617905Y-130450819D02*
X180998857Y-130450819D01*
X180998857Y-130450819D02*
X181094095Y-130498438D01*
X181094095Y-130498438D02*
X181141714Y-130546057D01*
X181141714Y-130546057D02*
X181189333Y-130641295D01*
X181189333Y-130641295D02*
X181189333Y-130784152D01*
X181189333Y-130784152D02*
X181141714Y-130879390D01*
X181141714Y-130879390D02*
X181094095Y-130927009D01*
X181094095Y-130927009D02*
X180998857Y-130974628D01*
X180998857Y-130974628D02*
X180617905Y-130974628D01*
X181570286Y-130546057D02*
X181617905Y-130498438D01*
X181617905Y-130498438D02*
X181713143Y-130450819D01*
X181713143Y-130450819D02*
X181951238Y-130450819D01*
X181951238Y-130450819D02*
X182046476Y-130498438D01*
X182046476Y-130498438D02*
X182094095Y-130546057D01*
X182094095Y-130546057D02*
X182141714Y-130641295D01*
X182141714Y-130641295D02*
X182141714Y-130736533D01*
X182141714Y-130736533D02*
X182094095Y-130879390D01*
X182094095Y-130879390D02*
X181522667Y-131450819D01*
X181522667Y-131450819D02*
X182141714Y-131450819D01*
X191859333Y-75810819D02*
X191287905Y-75810819D01*
X191573619Y-75810819D02*
X191573619Y-74810819D01*
X191573619Y-74810819D02*
X191478381Y-74953676D01*
X191478381Y-74953676D02*
X191383143Y-75048914D01*
X191383143Y-75048914D02*
X191287905Y-75096533D01*
X192716476Y-74810819D02*
X192526000Y-74810819D01*
X192526000Y-74810819D02*
X192430762Y-74858438D01*
X192430762Y-74858438D02*
X192383143Y-74906057D01*
X192383143Y-74906057D02*
X192287905Y-75048914D01*
X192287905Y-75048914D02*
X192240286Y-75239390D01*
X192240286Y-75239390D02*
X192240286Y-75620342D01*
X192240286Y-75620342D02*
X192287905Y-75715580D01*
X192287905Y-75715580D02*
X192335524Y-75763200D01*
X192335524Y-75763200D02*
X192430762Y-75810819D01*
X192430762Y-75810819D02*
X192621238Y-75810819D01*
X192621238Y-75810819D02*
X192716476Y-75763200D01*
X192716476Y-75763200D02*
X192764095Y-75715580D01*
X192764095Y-75715580D02*
X192811714Y-75620342D01*
X192811714Y-75620342D02*
X192811714Y-75382247D01*
X192811714Y-75382247D02*
X192764095Y-75287009D01*
X192764095Y-75287009D02*
X192716476Y-75239390D01*
X192716476Y-75239390D02*
X192621238Y-75191771D01*
X192621238Y-75191771D02*
X192430762Y-75191771D01*
X192430762Y-75191771D02*
X192335524Y-75239390D01*
X192335524Y-75239390D02*
X192287905Y-75287009D01*
X192287905Y-75287009D02*
X192240286Y-75382247D01*
X193240286Y-75810819D02*
X193240286Y-74810819D01*
X193240286Y-74810819D02*
X193573619Y-75525104D01*
X193573619Y-75525104D02*
X193906952Y-74810819D01*
X193906952Y-74810819D02*
X193906952Y-75810819D01*
X194383143Y-75810819D02*
X194383143Y-74810819D01*
X194383143Y-75287009D02*
X194954571Y-75287009D01*
X194954571Y-75810819D02*
X194954571Y-74810819D01*
X195335524Y-75144152D02*
X195859333Y-75144152D01*
X195859333Y-75144152D02*
X195335524Y-75810819D01*
X195335524Y-75810819D02*
X195859333Y-75810819D01*
X196764095Y-75810819D02*
X196192667Y-75810819D01*
X196478381Y-75810819D02*
X196478381Y-74810819D01*
X196478381Y-74810819D02*
X196383143Y-74953676D01*
X196383143Y-74953676D02*
X196287905Y-75048914D01*
X196287905Y-75048914D02*
X196192667Y-75096533D01*
X121713333Y-81759580D02*
X121665714Y-81807200D01*
X121665714Y-81807200D02*
X121522857Y-81854819D01*
X121522857Y-81854819D02*
X121427619Y-81854819D01*
X121427619Y-81854819D02*
X121284762Y-81807200D01*
X121284762Y-81807200D02*
X121189524Y-81711961D01*
X121189524Y-81711961D02*
X121141905Y-81616723D01*
X121141905Y-81616723D02*
X121094286Y-81426247D01*
X121094286Y-81426247D02*
X121094286Y-81283390D01*
X121094286Y-81283390D02*
X121141905Y-81092914D01*
X121141905Y-81092914D02*
X121189524Y-80997676D01*
X121189524Y-80997676D02*
X121284762Y-80902438D01*
X121284762Y-80902438D02*
X121427619Y-80854819D01*
X121427619Y-80854819D02*
X121522857Y-80854819D01*
X121522857Y-80854819D02*
X121665714Y-80902438D01*
X121665714Y-80902438D02*
X121713333Y-80950057D01*
X122618095Y-80854819D02*
X122141905Y-80854819D01*
X122141905Y-80854819D02*
X122094286Y-81331009D01*
X122094286Y-81331009D02*
X122141905Y-81283390D01*
X122141905Y-81283390D02*
X122237143Y-81235771D01*
X122237143Y-81235771D02*
X122475238Y-81235771D01*
X122475238Y-81235771D02*
X122570476Y-81283390D01*
X122570476Y-81283390D02*
X122618095Y-81331009D01*
X122618095Y-81331009D02*
X122665714Y-81426247D01*
X122665714Y-81426247D02*
X122665714Y-81664342D01*
X122665714Y-81664342D02*
X122618095Y-81759580D01*
X122618095Y-81759580D02*
X122570476Y-81807200D01*
X122570476Y-81807200D02*
X122475238Y-81854819D01*
X122475238Y-81854819D02*
X122237143Y-81854819D01*
X122237143Y-81854819D02*
X122141905Y-81807200D01*
X122141905Y-81807200D02*
X122094286Y-81759580D01*
X155935333Y-78231580D02*
X155887714Y-78279200D01*
X155887714Y-78279200D02*
X155744857Y-78326819D01*
X155744857Y-78326819D02*
X155649619Y-78326819D01*
X155649619Y-78326819D02*
X155506762Y-78279200D01*
X155506762Y-78279200D02*
X155411524Y-78183961D01*
X155411524Y-78183961D02*
X155363905Y-78088723D01*
X155363905Y-78088723D02*
X155316286Y-77898247D01*
X155316286Y-77898247D02*
X155316286Y-77755390D01*
X155316286Y-77755390D02*
X155363905Y-77564914D01*
X155363905Y-77564914D02*
X155411524Y-77469676D01*
X155411524Y-77469676D02*
X155506762Y-77374438D01*
X155506762Y-77374438D02*
X155649619Y-77326819D01*
X155649619Y-77326819D02*
X155744857Y-77326819D01*
X155744857Y-77326819D02*
X155887714Y-77374438D01*
X155887714Y-77374438D02*
X155935333Y-77422057D01*
X156792476Y-77660152D02*
X156792476Y-78326819D01*
X156554381Y-77279200D02*
X156316286Y-77993485D01*
X156316286Y-77993485D02*
X156935333Y-77993485D01*
X191191428Y-125162819D02*
X191191428Y-124162819D01*
X191191428Y-124162819D02*
X191429523Y-124162819D01*
X191429523Y-124162819D02*
X191572380Y-124210438D01*
X191572380Y-124210438D02*
X191667618Y-124305676D01*
X191667618Y-124305676D02*
X191715237Y-124400914D01*
X191715237Y-124400914D02*
X191762856Y-124591390D01*
X191762856Y-124591390D02*
X191762856Y-124734247D01*
X191762856Y-124734247D02*
X191715237Y-124924723D01*
X191715237Y-124924723D02*
X191667618Y-125019961D01*
X191667618Y-125019961D02*
X191572380Y-125115200D01*
X191572380Y-125115200D02*
X191429523Y-125162819D01*
X191429523Y-125162819D02*
X191191428Y-125162819D01*
X192191428Y-125162819D02*
X192191428Y-124496152D01*
X192191428Y-124162819D02*
X192143809Y-124210438D01*
X192143809Y-124210438D02*
X192191428Y-124258057D01*
X192191428Y-124258057D02*
X192239047Y-124210438D01*
X192239047Y-124210438D02*
X192191428Y-124162819D01*
X192191428Y-124162819D02*
X192191428Y-124258057D01*
X192619999Y-125115200D02*
X192715237Y-125162819D01*
X192715237Y-125162819D02*
X192905713Y-125162819D01*
X192905713Y-125162819D02*
X193000951Y-125115200D01*
X193000951Y-125115200D02*
X193048570Y-125019961D01*
X193048570Y-125019961D02*
X193048570Y-124972342D01*
X193048570Y-124972342D02*
X193000951Y-124877104D01*
X193000951Y-124877104D02*
X192905713Y-124829485D01*
X192905713Y-124829485D02*
X192762856Y-124829485D01*
X192762856Y-124829485D02*
X192667618Y-124781866D01*
X192667618Y-124781866D02*
X192619999Y-124686628D01*
X192619999Y-124686628D02*
X192619999Y-124639009D01*
X192619999Y-124639009D02*
X192667618Y-124543771D01*
X192667618Y-124543771D02*
X192762856Y-124496152D01*
X192762856Y-124496152D02*
X192905713Y-124496152D01*
X192905713Y-124496152D02*
X193000951Y-124543771D01*
X193477142Y-124496152D02*
X193477142Y-125496152D01*
X193477142Y-124543771D02*
X193572380Y-124496152D01*
X193572380Y-124496152D02*
X193762856Y-124496152D01*
X193762856Y-124496152D02*
X193858094Y-124543771D01*
X193858094Y-124543771D02*
X193905713Y-124591390D01*
X193905713Y-124591390D02*
X193953332Y-124686628D01*
X193953332Y-124686628D02*
X193953332Y-124972342D01*
X193953332Y-124972342D02*
X193905713Y-125067580D01*
X193905713Y-125067580D02*
X193858094Y-125115200D01*
X193858094Y-125115200D02*
X193762856Y-125162819D01*
X193762856Y-125162819D02*
X193572380Y-125162819D01*
X193572380Y-125162819D02*
X193477142Y-125115200D01*
X194524761Y-125162819D02*
X194429523Y-125115200D01*
X194429523Y-125115200D02*
X194381904Y-125019961D01*
X194381904Y-125019961D02*
X194381904Y-124162819D01*
X195334285Y-125162819D02*
X195334285Y-124639009D01*
X195334285Y-124639009D02*
X195286666Y-124543771D01*
X195286666Y-124543771D02*
X195191428Y-124496152D01*
X195191428Y-124496152D02*
X195000952Y-124496152D01*
X195000952Y-124496152D02*
X194905714Y-124543771D01*
X195334285Y-125115200D02*
X195239047Y-125162819D01*
X195239047Y-125162819D02*
X195000952Y-125162819D01*
X195000952Y-125162819D02*
X194905714Y-125115200D01*
X194905714Y-125115200D02*
X194858095Y-125019961D01*
X194858095Y-125019961D02*
X194858095Y-124924723D01*
X194858095Y-124924723D02*
X194905714Y-124829485D01*
X194905714Y-124829485D02*
X195000952Y-124781866D01*
X195000952Y-124781866D02*
X195239047Y-124781866D01*
X195239047Y-124781866D02*
X195334285Y-124734247D01*
X195715238Y-124496152D02*
X195953333Y-125162819D01*
X196191428Y-124496152D02*
X195953333Y-125162819D01*
X195953333Y-125162819D02*
X195858095Y-125400914D01*
X195858095Y-125400914D02*
X195810476Y-125448533D01*
X195810476Y-125448533D02*
X195715238Y-125496152D01*
X197096190Y-125162819D02*
X196524762Y-125162819D01*
X196810476Y-125162819D02*
X196810476Y-124162819D01*
X196810476Y-124162819D02*
X196715238Y-124305676D01*
X196715238Y-124305676D02*
X196620000Y-124400914D01*
X196620000Y-124400914D02*
X196524762Y-124448533D01*
X181189333Y-151144819D02*
X180856000Y-150668628D01*
X180617905Y-151144819D02*
X180617905Y-150144819D01*
X180617905Y-150144819D02*
X180998857Y-150144819D01*
X180998857Y-150144819D02*
X181094095Y-150192438D01*
X181094095Y-150192438D02*
X181141714Y-150240057D01*
X181141714Y-150240057D02*
X181189333Y-150335295D01*
X181189333Y-150335295D02*
X181189333Y-150478152D01*
X181189333Y-150478152D02*
X181141714Y-150573390D01*
X181141714Y-150573390D02*
X181094095Y-150621009D01*
X181094095Y-150621009D02*
X180998857Y-150668628D01*
X180998857Y-150668628D02*
X180617905Y-150668628D01*
X182141714Y-151144819D02*
X181570286Y-151144819D01*
X181856000Y-151144819D02*
X181856000Y-150144819D01*
X181856000Y-150144819D02*
X181760762Y-150287676D01*
X181760762Y-150287676D02*
X181665524Y-150382914D01*
X181665524Y-150382914D02*
X181570286Y-150430533D01*
X184052819Y-112521904D02*
X184862342Y-112521904D01*
X184862342Y-112521904D02*
X184957580Y-112474285D01*
X184957580Y-112474285D02*
X185005200Y-112426666D01*
X185005200Y-112426666D02*
X185052819Y-112331428D01*
X185052819Y-112331428D02*
X185052819Y-112140952D01*
X185052819Y-112140952D02*
X185005200Y-112045714D01*
X185005200Y-112045714D02*
X184957580Y-111998095D01*
X184957580Y-111998095D02*
X184862342Y-111950476D01*
X184862342Y-111950476D02*
X184052819Y-111950476D01*
X184148057Y-111521904D02*
X184100438Y-111474285D01*
X184100438Y-111474285D02*
X184052819Y-111379047D01*
X184052819Y-111379047D02*
X184052819Y-111140952D01*
X184052819Y-111140952D02*
X184100438Y-111045714D01*
X184100438Y-111045714D02*
X184148057Y-110998095D01*
X184148057Y-110998095D02*
X184243295Y-110950476D01*
X184243295Y-110950476D02*
X184338533Y-110950476D01*
X184338533Y-110950476D02*
X184481390Y-110998095D01*
X184481390Y-110998095D02*
X185052819Y-111569523D01*
X185052819Y-111569523D02*
X185052819Y-110950476D01*
X146266666Y-126738200D02*
X146409523Y-126785819D01*
X146409523Y-126785819D02*
X146647618Y-126785819D01*
X146647618Y-126785819D02*
X146742856Y-126738200D01*
X146742856Y-126738200D02*
X146790475Y-126690580D01*
X146790475Y-126690580D02*
X146838094Y-126595342D01*
X146838094Y-126595342D02*
X146838094Y-126500104D01*
X146838094Y-126500104D02*
X146790475Y-126404866D01*
X146790475Y-126404866D02*
X146742856Y-126357247D01*
X146742856Y-126357247D02*
X146647618Y-126309628D01*
X146647618Y-126309628D02*
X146457142Y-126262009D01*
X146457142Y-126262009D02*
X146361904Y-126214390D01*
X146361904Y-126214390D02*
X146314285Y-126166771D01*
X146314285Y-126166771D02*
X146266666Y-126071533D01*
X146266666Y-126071533D02*
X146266666Y-125976295D01*
X146266666Y-125976295D02*
X146314285Y-125881057D01*
X146314285Y-125881057D02*
X146361904Y-125833438D01*
X146361904Y-125833438D02*
X146457142Y-125785819D01*
X146457142Y-125785819D02*
X146695237Y-125785819D01*
X146695237Y-125785819D02*
X146838094Y-125833438D01*
X147647618Y-126738200D02*
X147552380Y-126785819D01*
X147552380Y-126785819D02*
X147361904Y-126785819D01*
X147361904Y-126785819D02*
X147266666Y-126738200D01*
X147266666Y-126738200D02*
X147219047Y-126642961D01*
X147219047Y-126642961D02*
X147219047Y-126262009D01*
X147219047Y-126262009D02*
X147266666Y-126166771D01*
X147266666Y-126166771D02*
X147361904Y-126119152D01*
X147361904Y-126119152D02*
X147552380Y-126119152D01*
X147552380Y-126119152D02*
X147647618Y-126166771D01*
X147647618Y-126166771D02*
X147695237Y-126262009D01*
X147695237Y-126262009D02*
X147695237Y-126357247D01*
X147695237Y-126357247D02*
X147219047Y-126452485D01*
X148123809Y-126785819D02*
X148123809Y-126119152D01*
X148123809Y-126309628D02*
X148171428Y-126214390D01*
X148171428Y-126214390D02*
X148219047Y-126166771D01*
X148219047Y-126166771D02*
X148314285Y-126119152D01*
X148314285Y-126119152D02*
X148409523Y-126119152D01*
X148647619Y-126119152D02*
X148885714Y-126785819D01*
X148885714Y-126785819D02*
X149123809Y-126119152D01*
X149647619Y-126785819D02*
X149552381Y-126738200D01*
X149552381Y-126738200D02*
X149504762Y-126690580D01*
X149504762Y-126690580D02*
X149457143Y-126595342D01*
X149457143Y-126595342D02*
X149457143Y-126309628D01*
X149457143Y-126309628D02*
X149504762Y-126214390D01*
X149504762Y-126214390D02*
X149552381Y-126166771D01*
X149552381Y-126166771D02*
X149647619Y-126119152D01*
X149647619Y-126119152D02*
X149790476Y-126119152D01*
X149790476Y-126119152D02*
X149885714Y-126166771D01*
X149885714Y-126166771D02*
X149933333Y-126214390D01*
X149933333Y-126214390D02*
X149980952Y-126309628D01*
X149980952Y-126309628D02*
X149980952Y-126595342D01*
X149980952Y-126595342D02*
X149933333Y-126690580D01*
X149933333Y-126690580D02*
X149885714Y-126738200D01*
X149885714Y-126738200D02*
X149790476Y-126785819D01*
X149790476Y-126785819D02*
X149647619Y-126785819D01*
X150933333Y-126785819D02*
X150361905Y-126785819D01*
X150647619Y-126785819D02*
X150647619Y-125785819D01*
X150647619Y-125785819D02*
X150552381Y-125928676D01*
X150552381Y-125928676D02*
X150457143Y-126023914D01*
X150457143Y-126023914D02*
X150361905Y-126071533D01*
X155935333Y-73581580D02*
X155887714Y-73629200D01*
X155887714Y-73629200D02*
X155744857Y-73676819D01*
X155744857Y-73676819D02*
X155649619Y-73676819D01*
X155649619Y-73676819D02*
X155506762Y-73629200D01*
X155506762Y-73629200D02*
X155411524Y-73533961D01*
X155411524Y-73533961D02*
X155363905Y-73438723D01*
X155363905Y-73438723D02*
X155316286Y-73248247D01*
X155316286Y-73248247D02*
X155316286Y-73105390D01*
X155316286Y-73105390D02*
X155363905Y-72914914D01*
X155363905Y-72914914D02*
X155411524Y-72819676D01*
X155411524Y-72819676D02*
X155506762Y-72724438D01*
X155506762Y-72724438D02*
X155649619Y-72676819D01*
X155649619Y-72676819D02*
X155744857Y-72676819D01*
X155744857Y-72676819D02*
X155887714Y-72724438D01*
X155887714Y-72724438D02*
X155935333Y-72772057D01*
X156268667Y-72676819D02*
X156887714Y-72676819D01*
X156887714Y-72676819D02*
X156554381Y-73057771D01*
X156554381Y-73057771D02*
X156697238Y-73057771D01*
X156697238Y-73057771D02*
X156792476Y-73105390D01*
X156792476Y-73105390D02*
X156840095Y-73153009D01*
X156840095Y-73153009D02*
X156887714Y-73248247D01*
X156887714Y-73248247D02*
X156887714Y-73486342D01*
X156887714Y-73486342D02*
X156840095Y-73581580D01*
X156840095Y-73581580D02*
X156792476Y-73629200D01*
X156792476Y-73629200D02*
X156697238Y-73676819D01*
X156697238Y-73676819D02*
X156411524Y-73676819D01*
X156411524Y-73676819D02*
X156316286Y-73629200D01*
X156316286Y-73629200D02*
X156268667Y-73581580D01*
X131661374Y-97761580D02*
X131613755Y-97809200D01*
X131613755Y-97809200D02*
X131470898Y-97856819D01*
X131470898Y-97856819D02*
X131375660Y-97856819D01*
X131375660Y-97856819D02*
X131232803Y-97809200D01*
X131232803Y-97809200D02*
X131137565Y-97713961D01*
X131137565Y-97713961D02*
X131089946Y-97618723D01*
X131089946Y-97618723D02*
X131042327Y-97428247D01*
X131042327Y-97428247D02*
X131042327Y-97285390D01*
X131042327Y-97285390D02*
X131089946Y-97094914D01*
X131089946Y-97094914D02*
X131137565Y-96999676D01*
X131137565Y-96999676D02*
X131232803Y-96904438D01*
X131232803Y-96904438D02*
X131375660Y-96856819D01*
X131375660Y-96856819D02*
X131470898Y-96856819D01*
X131470898Y-96856819D02*
X131613755Y-96904438D01*
X131613755Y-96904438D02*
X131661374Y-96952057D01*
X132518517Y-96856819D02*
X132328041Y-96856819D01*
X132328041Y-96856819D02*
X132232803Y-96904438D01*
X132232803Y-96904438D02*
X132185184Y-96952057D01*
X132185184Y-96952057D02*
X132089946Y-97094914D01*
X132089946Y-97094914D02*
X132042327Y-97285390D01*
X132042327Y-97285390D02*
X132042327Y-97666342D01*
X132042327Y-97666342D02*
X132089946Y-97761580D01*
X132089946Y-97761580D02*
X132137565Y-97809200D01*
X132137565Y-97809200D02*
X132232803Y-97856819D01*
X132232803Y-97856819D02*
X132423279Y-97856819D01*
X132423279Y-97856819D02*
X132518517Y-97809200D01*
X132518517Y-97809200D02*
X132566136Y-97761580D01*
X132566136Y-97761580D02*
X132613755Y-97666342D01*
X132613755Y-97666342D02*
X132613755Y-97428247D01*
X132613755Y-97428247D02*
X132566136Y-97333009D01*
X132566136Y-97333009D02*
X132518517Y-97285390D01*
X132518517Y-97285390D02*
X132423279Y-97237771D01*
X132423279Y-97237771D02*
X132232803Y-97237771D01*
X132232803Y-97237771D02*
X132137565Y-97285390D01*
X132137565Y-97285390D02*
X132089946Y-97333009D01*
X132089946Y-97333009D02*
X132042327Y-97428247D01*
X126581009Y-132264191D02*
X126628628Y-132121334D01*
X126628628Y-132121334D02*
X126676247Y-132073715D01*
X126676247Y-132073715D02*
X126771485Y-132026096D01*
X126771485Y-132026096D02*
X126914342Y-132026096D01*
X126914342Y-132026096D02*
X127009580Y-132073715D01*
X127009580Y-132073715D02*
X127057200Y-132121334D01*
X127057200Y-132121334D02*
X127104819Y-132216572D01*
X127104819Y-132216572D02*
X127104819Y-132597524D01*
X127104819Y-132597524D02*
X126104819Y-132597524D01*
X126104819Y-132597524D02*
X126104819Y-132264191D01*
X126104819Y-132264191D02*
X126152438Y-132168953D01*
X126152438Y-132168953D02*
X126200057Y-132121334D01*
X126200057Y-132121334D02*
X126295295Y-132073715D01*
X126295295Y-132073715D02*
X126390533Y-132073715D01*
X126390533Y-132073715D02*
X126485771Y-132121334D01*
X126485771Y-132121334D02*
X126533390Y-132168953D01*
X126533390Y-132168953D02*
X126581009Y-132264191D01*
X126581009Y-132264191D02*
X126581009Y-132597524D01*
X127104819Y-131454667D02*
X127057200Y-131549905D01*
X127057200Y-131549905D02*
X127009580Y-131597524D01*
X127009580Y-131597524D02*
X126914342Y-131645143D01*
X126914342Y-131645143D02*
X126628628Y-131645143D01*
X126628628Y-131645143D02*
X126533390Y-131597524D01*
X126533390Y-131597524D02*
X126485771Y-131549905D01*
X126485771Y-131549905D02*
X126438152Y-131454667D01*
X126438152Y-131454667D02*
X126438152Y-131311810D01*
X126438152Y-131311810D02*
X126485771Y-131216572D01*
X126485771Y-131216572D02*
X126533390Y-131168953D01*
X126533390Y-131168953D02*
X126628628Y-131121334D01*
X126628628Y-131121334D02*
X126914342Y-131121334D01*
X126914342Y-131121334D02*
X127009580Y-131168953D01*
X127009580Y-131168953D02*
X127057200Y-131216572D01*
X127057200Y-131216572D02*
X127104819Y-131311810D01*
X127104819Y-131311810D02*
X127104819Y-131454667D01*
X126438152Y-130835619D02*
X126438152Y-130454667D01*
X126104819Y-130692762D02*
X126961961Y-130692762D01*
X126961961Y-130692762D02*
X127057200Y-130645143D01*
X127057200Y-130645143D02*
X127104819Y-130549905D01*
X127104819Y-130549905D02*
X127104819Y-130454667D01*
X127104819Y-129692762D02*
X126581009Y-129692762D01*
X126581009Y-129692762D02*
X126485771Y-129740381D01*
X126485771Y-129740381D02*
X126438152Y-129835619D01*
X126438152Y-129835619D02*
X126438152Y-130026095D01*
X126438152Y-130026095D02*
X126485771Y-130121333D01*
X127057200Y-129692762D02*
X127104819Y-129788000D01*
X127104819Y-129788000D02*
X127104819Y-130026095D01*
X127104819Y-130026095D02*
X127057200Y-130121333D01*
X127057200Y-130121333D02*
X126961961Y-130168952D01*
X126961961Y-130168952D02*
X126866723Y-130168952D01*
X126866723Y-130168952D02*
X126771485Y-130121333D01*
X126771485Y-130121333D02*
X126723866Y-130026095D01*
X126723866Y-130026095D02*
X126723866Y-129788000D01*
X126723866Y-129788000D02*
X126676247Y-129692762D01*
X126200057Y-130168952D02*
X126152438Y-130121333D01*
X126152438Y-130121333D02*
X126104819Y-130026095D01*
X126104819Y-130026095D02*
X126200057Y-129835619D01*
X126200057Y-129835619D02*
X126152438Y-129740381D01*
X126152438Y-129740381D02*
X126104819Y-129692762D01*
X127104819Y-129073714D02*
X127057200Y-129168952D01*
X127057200Y-129168952D02*
X127009580Y-129216571D01*
X127009580Y-129216571D02*
X126914342Y-129264190D01*
X126914342Y-129264190D02*
X126628628Y-129264190D01*
X126628628Y-129264190D02*
X126533390Y-129216571D01*
X126533390Y-129216571D02*
X126485771Y-129168952D01*
X126485771Y-129168952D02*
X126438152Y-129073714D01*
X126438152Y-129073714D02*
X126438152Y-128930857D01*
X126438152Y-128930857D02*
X126485771Y-128835619D01*
X126485771Y-128835619D02*
X126533390Y-128788000D01*
X126533390Y-128788000D02*
X126628628Y-128740381D01*
X126628628Y-128740381D02*
X126914342Y-128740381D01*
X126914342Y-128740381D02*
X127009580Y-128788000D01*
X127009580Y-128788000D02*
X127057200Y-128835619D01*
X127057200Y-128835619D02*
X127104819Y-128930857D01*
X127104819Y-128930857D02*
X127104819Y-129073714D01*
X127200057Y-128549905D02*
X127200057Y-127788000D01*
X127104819Y-126978476D02*
X126628628Y-127311809D01*
X127104819Y-127549904D02*
X126104819Y-127549904D01*
X126104819Y-127549904D02*
X126104819Y-127168952D01*
X126104819Y-127168952D02*
X126152438Y-127073714D01*
X126152438Y-127073714D02*
X126200057Y-127026095D01*
X126200057Y-127026095D02*
X126295295Y-126978476D01*
X126295295Y-126978476D02*
X126438152Y-126978476D01*
X126438152Y-126978476D02*
X126533390Y-127026095D01*
X126533390Y-127026095D02*
X126581009Y-127073714D01*
X126581009Y-127073714D02*
X126628628Y-127168952D01*
X126628628Y-127168952D02*
X126628628Y-127549904D01*
X127057200Y-126168952D02*
X127104819Y-126264190D01*
X127104819Y-126264190D02*
X127104819Y-126454666D01*
X127104819Y-126454666D02*
X127057200Y-126549904D01*
X127057200Y-126549904D02*
X126961961Y-126597523D01*
X126961961Y-126597523D02*
X126581009Y-126597523D01*
X126581009Y-126597523D02*
X126485771Y-126549904D01*
X126485771Y-126549904D02*
X126438152Y-126454666D01*
X126438152Y-126454666D02*
X126438152Y-126264190D01*
X126438152Y-126264190D02*
X126485771Y-126168952D01*
X126485771Y-126168952D02*
X126581009Y-126121333D01*
X126581009Y-126121333D02*
X126676247Y-126121333D01*
X126676247Y-126121333D02*
X126771485Y-126597523D01*
X127057200Y-125740380D02*
X127104819Y-125645142D01*
X127104819Y-125645142D02*
X127104819Y-125454666D01*
X127104819Y-125454666D02*
X127057200Y-125359428D01*
X127057200Y-125359428D02*
X126961961Y-125311809D01*
X126961961Y-125311809D02*
X126914342Y-125311809D01*
X126914342Y-125311809D02*
X126819104Y-125359428D01*
X126819104Y-125359428D02*
X126771485Y-125454666D01*
X126771485Y-125454666D02*
X126771485Y-125597523D01*
X126771485Y-125597523D02*
X126723866Y-125692761D01*
X126723866Y-125692761D02*
X126628628Y-125740380D01*
X126628628Y-125740380D02*
X126581009Y-125740380D01*
X126581009Y-125740380D02*
X126485771Y-125692761D01*
X126485771Y-125692761D02*
X126438152Y-125597523D01*
X126438152Y-125597523D02*
X126438152Y-125454666D01*
X126438152Y-125454666D02*
X126485771Y-125359428D01*
X127057200Y-124502285D02*
X127104819Y-124597523D01*
X127104819Y-124597523D02*
X127104819Y-124787999D01*
X127104819Y-124787999D02*
X127057200Y-124883237D01*
X127057200Y-124883237D02*
X126961961Y-124930856D01*
X126961961Y-124930856D02*
X126581009Y-124930856D01*
X126581009Y-124930856D02*
X126485771Y-124883237D01*
X126485771Y-124883237D02*
X126438152Y-124787999D01*
X126438152Y-124787999D02*
X126438152Y-124597523D01*
X126438152Y-124597523D02*
X126485771Y-124502285D01*
X126485771Y-124502285D02*
X126581009Y-124454666D01*
X126581009Y-124454666D02*
X126676247Y-124454666D01*
X126676247Y-124454666D02*
X126771485Y-124930856D01*
X126438152Y-124168951D02*
X126438152Y-123787999D01*
X126104819Y-124026094D02*
X126961961Y-124026094D01*
X126961961Y-124026094D02*
X127057200Y-123978475D01*
X127057200Y-123978475D02*
X127104819Y-123883237D01*
X127104819Y-123883237D02*
X127104819Y-123787999D01*
X127104819Y-122930856D02*
X127104819Y-123502284D01*
X127104819Y-123216570D02*
X126104819Y-123216570D01*
X126104819Y-123216570D02*
X126247676Y-123311808D01*
X126247676Y-123311808D02*
X126342914Y-123407046D01*
X126342914Y-123407046D02*
X126390533Y-123502284D01*
D11*
%TO.C,RTC1*%
X222825000Y-80595000D02*
X223520000Y-80595000D01*
X222825000Y-81965000D02*
X222825000Y-84840000D01*
X222825000Y-81280000D02*
X222825000Y-80595000D01*
X222825000Y-81965000D02*
X222911724Y-81965000D01*
X223914493Y-84840000D02*
X224215000Y-84840000D01*
X224128276Y-81965000D02*
X224215000Y-81965000D01*
X222825000Y-84840000D02*
X223125507Y-84840000D01*
X224215000Y-81965000D02*
X224215000Y-84840000D01*
%TO.C,R4*%
X153390000Y-142070000D02*
X153390000Y-137330000D01*
X156040000Y-139700000D02*
X153390000Y-139700000D01*
X138600000Y-139700000D02*
X141250000Y-139700000D01*
X141250000Y-137330000D02*
X141250000Y-142070000D01*
X153390000Y-137330000D02*
X141250000Y-137330000D01*
X141250000Y-142070000D02*
X153390000Y-142070000D01*
%TO.C,LED*%
X133625000Y-150015000D02*
X133711724Y-150015000D01*
X133625000Y-148645000D02*
X134320000Y-148645000D01*
X133625000Y-150015000D02*
X133625000Y-150890000D01*
X133625000Y-150890000D02*
X133925507Y-150890000D01*
X134928276Y-150015000D02*
X135015000Y-150015000D01*
X134714493Y-150890000D02*
X135015000Y-150890000D01*
X133625000Y-149330000D02*
X133625000Y-148645000D01*
X135015000Y-150015000D02*
X135015000Y-150890000D01*
%TO.C,Dimmer1*%
X99285000Y-131385000D02*
X102160000Y-131385000D01*
X102160000Y-132775000D02*
X102160000Y-132474493D01*
X99285000Y-131471724D02*
X99285000Y-131385000D01*
X102160000Y-131685507D02*
X102160000Y-131385000D01*
X99285000Y-132775000D02*
X99285000Y-132688276D01*
X98600000Y-132775000D02*
X97915000Y-132775000D01*
X99285000Y-132775000D02*
X102160000Y-132775000D01*
X97915000Y-132775000D02*
X97915000Y-132080000D01*
%TO.C,DHT1*%
X138590000Y-97215000D02*
X139392470Y-97215000D01*
X140263471Y-94740000D02*
X140810000Y-94740000D01*
X140810000Y-94740000D02*
X140810000Y-97215000D01*
X138590000Y-94740000D02*
X139136529Y-94740000D01*
X138590000Y-93980000D02*
X138590000Y-93220000D01*
X138590000Y-93220000D02*
X139700000Y-93220000D01*
X138590000Y-94740000D02*
X138590000Y-97215000D01*
X140007530Y-97215000D02*
X140810000Y-97215000D01*
%TO.C,C1*%
X152812000Y-91272000D02*
X152812000Y-96512000D01*
X152812000Y-91272000D02*
X160552000Y-91272000D01*
X152812000Y-96512000D02*
X160552000Y-96512000D01*
X160552000Y-91272000D02*
X160552000Y-96512000D01*
%TO.C,C2*%
X152812000Y-97822000D02*
X152812000Y-103062000D01*
X152812000Y-97822000D02*
X160552000Y-97822000D01*
X152812000Y-103062000D02*
X160552000Y-103062000D01*
X160552000Y-97822000D02*
X160552000Y-103062000D01*
%TO.C,U1*%
X150182000Y-83522000D02*
X150182000Y-88163000D01*
X150182000Y-83522000D02*
X160422000Y-83522000D01*
X150182000Y-85032000D02*
X160422000Y-85032000D01*
X150182000Y-88163000D02*
X160422000Y-88163000D01*
X153452000Y-83522000D02*
X153452000Y-85032000D01*
X157153000Y-83522000D02*
X157153000Y-85032000D01*
X160422000Y-83522000D02*
X160422000Y-88163000D01*
%TO.C,R2*%
X172636000Y-134366000D02*
X175286000Y-134366000D01*
X175286000Y-131996000D02*
X175286000Y-136736000D01*
X175286000Y-136736000D02*
X187426000Y-136736000D01*
X187426000Y-131996000D02*
X175286000Y-131996000D01*
X187426000Y-136736000D02*
X187426000Y-131996000D01*
X190076000Y-134366000D02*
X187426000Y-134366000D01*
%TO.C,16MHz1*%
X188881000Y-76356000D02*
X199171000Y-76356000D01*
X188881000Y-85696000D02*
X199171000Y-85696000D01*
X188881000Y-76356000D02*
G75*
G03*
X188881000Y-85696000I0J-4670000D01*
G01*
X199171000Y-85696000D02*
G75*
G03*
X199171000Y-76356000I0J4670000D01*
G01*
%TO.C,C5*%
X115062918Y-85325000D02*
X116312918Y-85325000D01*
X115687918Y-84700000D02*
X115687918Y-85950000D01*
X121880000Y-82570000D02*
X121880000Y-95230000D01*
X121920000Y-82570000D02*
X121920000Y-95230000D01*
X121960000Y-82570000D02*
X121960000Y-95230000D01*
X122000000Y-82571000D02*
X122000000Y-95229000D01*
X122040000Y-82572000D02*
X122040000Y-95228000D01*
X122080000Y-82573000D02*
X122080000Y-95227000D01*
X122120000Y-82574000D02*
X122120000Y-95226000D01*
X122160000Y-82576000D02*
X122160000Y-95224000D01*
X122200000Y-82578000D02*
X122200000Y-95222000D01*
X122240000Y-82580000D02*
X122240000Y-95220000D01*
X122280000Y-82582000D02*
X122280000Y-95218000D01*
X122320000Y-82585000D02*
X122320000Y-95215000D01*
X122360000Y-82588000D02*
X122360000Y-95212000D01*
X122400000Y-82591000D02*
X122400000Y-95209000D01*
X122440000Y-82594000D02*
X122440000Y-95206000D01*
X122480000Y-82598000D02*
X122480000Y-95202000D01*
X122520000Y-82602000D02*
X122520000Y-95198000D01*
X122560000Y-82606000D02*
X122560000Y-95194000D01*
X122601000Y-82610000D02*
X122601000Y-95190000D01*
X122641000Y-82615000D02*
X122641000Y-95185000D01*
X122681000Y-82620000D02*
X122681000Y-95180000D01*
X122721000Y-82625000D02*
X122721000Y-95175000D01*
X122761000Y-82631000D02*
X122761000Y-95169000D01*
X122801000Y-82636000D02*
X122801000Y-95164000D01*
X122841000Y-82642000D02*
X122841000Y-95158000D01*
X122881000Y-82648000D02*
X122881000Y-95152000D01*
X122921000Y-82655000D02*
X122921000Y-95145000D01*
X122961000Y-82662000D02*
X122961000Y-87460000D01*
X122961000Y-90340000D02*
X122961000Y-95138000D01*
X123001000Y-82669000D02*
X123001000Y-87460000D01*
X123001000Y-90340000D02*
X123001000Y-95131000D01*
X123041000Y-82676000D02*
X123041000Y-87460000D01*
X123041000Y-90340000D02*
X123041000Y-95124000D01*
X123081000Y-82684000D02*
X123081000Y-87460000D01*
X123081000Y-90340000D02*
X123081000Y-95116000D01*
X123121000Y-82691000D02*
X123121000Y-87460000D01*
X123121000Y-90340000D02*
X123121000Y-95109000D01*
X123161000Y-82699000D02*
X123161000Y-87460000D01*
X123161000Y-90340000D02*
X123161000Y-95101000D01*
X123201000Y-82708000D02*
X123201000Y-87460000D01*
X123201000Y-90340000D02*
X123201000Y-95092000D01*
X123241000Y-82716000D02*
X123241000Y-87460000D01*
X123241000Y-90340000D02*
X123241000Y-95084000D01*
X123281000Y-82725000D02*
X123281000Y-87460000D01*
X123281000Y-90340000D02*
X123281000Y-95075000D01*
X123321000Y-82734000D02*
X123321000Y-87460000D01*
X123321000Y-90340000D02*
X123321000Y-95066000D01*
X123361000Y-82744000D02*
X123361000Y-87460000D01*
X123361000Y-90340000D02*
X123361000Y-95056000D01*
X123401000Y-82754000D02*
X123401000Y-87460000D01*
X123401000Y-90340000D02*
X123401000Y-95046000D01*
X123441000Y-82763000D02*
X123441000Y-87460000D01*
X123441000Y-90340000D02*
X123441000Y-95037000D01*
X123481000Y-82774000D02*
X123481000Y-87460000D01*
X123481000Y-90340000D02*
X123481000Y-95026000D01*
X123521000Y-82784000D02*
X123521000Y-87460000D01*
X123521000Y-90340000D02*
X123521000Y-95016000D01*
X123561000Y-82795000D02*
X123561000Y-87460000D01*
X123561000Y-90340000D02*
X123561000Y-95005000D01*
X123601000Y-82806000D02*
X123601000Y-87460000D01*
X123601000Y-90340000D02*
X123601000Y-94994000D01*
X123641000Y-82817000D02*
X123641000Y-87460000D01*
X123641000Y-90340000D02*
X123641000Y-94983000D01*
X123681000Y-82829000D02*
X123681000Y-87460000D01*
X123681000Y-90340000D02*
X123681000Y-94971000D01*
X123721000Y-82841000D02*
X123721000Y-87460000D01*
X123721000Y-90340000D02*
X123721000Y-94959000D01*
X123761000Y-82853000D02*
X123761000Y-87460000D01*
X123761000Y-90340000D02*
X123761000Y-94947000D01*
X123801000Y-82866000D02*
X123801000Y-87460000D01*
X123801000Y-90340000D02*
X123801000Y-94934000D01*
X123841000Y-82879000D02*
X123841000Y-87460000D01*
X123841000Y-90340000D02*
X123841000Y-94921000D01*
X123881000Y-82892000D02*
X123881000Y-87460000D01*
X123881000Y-90340000D02*
X123881000Y-94908000D01*
X123921000Y-82905000D02*
X123921000Y-87460000D01*
X123921000Y-90340000D02*
X123921000Y-94895000D01*
X123961000Y-82919000D02*
X123961000Y-87460000D01*
X123961000Y-90340000D02*
X123961000Y-94881000D01*
X124001000Y-82933000D02*
X124001000Y-87460000D01*
X124001000Y-90340000D02*
X124001000Y-94867000D01*
X124041000Y-82947000D02*
X124041000Y-87460000D01*
X124041000Y-90340000D02*
X124041000Y-94853000D01*
X124081000Y-82961000D02*
X124081000Y-87460000D01*
X124081000Y-90340000D02*
X124081000Y-94839000D01*
X124121000Y-82976000D02*
X124121000Y-87460000D01*
X124121000Y-90340000D02*
X124121000Y-94824000D01*
X124161000Y-82992000D02*
X124161000Y-87460000D01*
X124161000Y-90340000D02*
X124161000Y-94808000D01*
X124201000Y-83007000D02*
X124201000Y-87460000D01*
X124201000Y-90340000D02*
X124201000Y-94793000D01*
X124241000Y-83023000D02*
X124241000Y-87460000D01*
X124241000Y-90340000D02*
X124241000Y-94777000D01*
X124281000Y-83039000D02*
X124281000Y-87460000D01*
X124281000Y-90340000D02*
X124281000Y-94761000D01*
X124321000Y-83055000D02*
X124321000Y-87460000D01*
X124321000Y-90340000D02*
X124321000Y-94745000D01*
X124361000Y-83072000D02*
X124361000Y-87460000D01*
X124361000Y-90340000D02*
X124361000Y-94728000D01*
X124401000Y-83089000D02*
X124401000Y-87460000D01*
X124401000Y-90340000D02*
X124401000Y-94711000D01*
X124441000Y-83107000D02*
X124441000Y-87460000D01*
X124441000Y-90340000D02*
X124441000Y-94693000D01*
X124481000Y-83124000D02*
X124481000Y-87460000D01*
X124481000Y-90340000D02*
X124481000Y-94676000D01*
X124521000Y-83142000D02*
X124521000Y-87460000D01*
X124521000Y-90340000D02*
X124521000Y-94658000D01*
X124561000Y-83161000D02*
X124561000Y-87460000D01*
X124561000Y-90340000D02*
X124561000Y-94639000D01*
X124601000Y-83179000D02*
X124601000Y-87460000D01*
X124601000Y-90340000D02*
X124601000Y-94621000D01*
X124641000Y-83198000D02*
X124641000Y-87460000D01*
X124641000Y-90340000D02*
X124641000Y-94602000D01*
X124681000Y-83218000D02*
X124681000Y-87460000D01*
X124681000Y-90340000D02*
X124681000Y-94582000D01*
X124721000Y-83238000D02*
X124721000Y-87460000D01*
X124721000Y-90340000D02*
X124721000Y-94562000D01*
X124761000Y-83258000D02*
X124761000Y-87460000D01*
X124761000Y-90340000D02*
X124761000Y-94542000D01*
X124801000Y-83278000D02*
X124801000Y-87460000D01*
X124801000Y-90340000D02*
X124801000Y-94522000D01*
X124841000Y-83299000D02*
X124841000Y-87460000D01*
X124841000Y-90340000D02*
X124841000Y-94501000D01*
X124881000Y-83320000D02*
X124881000Y-87460000D01*
X124881000Y-90340000D02*
X124881000Y-94480000D01*
X124921000Y-83342000D02*
X124921000Y-87460000D01*
X124921000Y-90340000D02*
X124921000Y-94458000D01*
X124961000Y-83364000D02*
X124961000Y-87460000D01*
X124961000Y-90340000D02*
X124961000Y-94436000D01*
X125001000Y-83386000D02*
X125001000Y-87460000D01*
X125001000Y-90340000D02*
X125001000Y-94414000D01*
X125041000Y-83409000D02*
X125041000Y-87460000D01*
X125041000Y-90340000D02*
X125041000Y-94391000D01*
X125081000Y-83432000D02*
X125081000Y-87460000D01*
X125081000Y-90340000D02*
X125081000Y-94368000D01*
X125121000Y-83455000D02*
X125121000Y-87460000D01*
X125121000Y-90340000D02*
X125121000Y-94345000D01*
X125161000Y-83479000D02*
X125161000Y-87460000D01*
X125161000Y-90340000D02*
X125161000Y-94321000D01*
X125201000Y-83503000D02*
X125201000Y-87460000D01*
X125201000Y-90340000D02*
X125201000Y-94297000D01*
X125241000Y-83528000D02*
X125241000Y-87460000D01*
X125241000Y-90340000D02*
X125241000Y-94272000D01*
X125281000Y-83553000D02*
X125281000Y-87460000D01*
X125281000Y-90340000D02*
X125281000Y-94247000D01*
X125321000Y-83578000D02*
X125321000Y-87460000D01*
X125321000Y-90340000D02*
X125321000Y-94222000D01*
X125361000Y-83604000D02*
X125361000Y-87460000D01*
X125361000Y-90340000D02*
X125361000Y-94196000D01*
X125401000Y-83630000D02*
X125401000Y-87460000D01*
X125401000Y-90340000D02*
X125401000Y-94170000D01*
X125441000Y-83657000D02*
X125441000Y-87460000D01*
X125441000Y-90340000D02*
X125441000Y-94143000D01*
X125481000Y-83684000D02*
X125481000Y-87460000D01*
X125481000Y-90340000D02*
X125481000Y-94116000D01*
X125521000Y-83712000D02*
X125521000Y-87460000D01*
X125521000Y-90340000D02*
X125521000Y-94088000D01*
X125561000Y-83740000D02*
X125561000Y-87460000D01*
X125561000Y-90340000D02*
X125561000Y-94060000D01*
X125601000Y-83769000D02*
X125601000Y-87460000D01*
X125601000Y-90340000D02*
X125601000Y-94031000D01*
X125641000Y-83798000D02*
X125641000Y-87460000D01*
X125641000Y-90340000D02*
X125641000Y-94002000D01*
X125681000Y-83827000D02*
X125681000Y-87460000D01*
X125681000Y-90340000D02*
X125681000Y-93973000D01*
X125721000Y-83857000D02*
X125721000Y-87460000D01*
X125721000Y-90340000D02*
X125721000Y-93943000D01*
X125761000Y-83888000D02*
X125761000Y-87460000D01*
X125761000Y-90340000D02*
X125761000Y-93912000D01*
X125801000Y-83918000D02*
X125801000Y-87460000D01*
X125801000Y-90340000D02*
X125801000Y-93882000D01*
X125841000Y-83950000D02*
X125841000Y-93850000D01*
X125881000Y-83982000D02*
X125881000Y-93818000D01*
X125921000Y-84015000D02*
X125921000Y-93785000D01*
X125961000Y-84048000D02*
X125961000Y-93752000D01*
X126001000Y-84081000D02*
X126001000Y-93719000D01*
X126041000Y-84115000D02*
X126041000Y-93685000D01*
X126081000Y-84150000D02*
X126081000Y-93650000D01*
X126121000Y-84186000D02*
X126121000Y-93614000D01*
X126161000Y-84222000D02*
X126161000Y-93578000D01*
X126201000Y-84258000D02*
X126201000Y-93542000D01*
X126241000Y-84295000D02*
X126241000Y-93505000D01*
X126281000Y-84333000D02*
X126281000Y-93467000D01*
X126321000Y-84372000D02*
X126321000Y-93428000D01*
X126361000Y-84411000D02*
X126361000Y-93389000D01*
X126401000Y-84451000D02*
X126401000Y-93349000D01*
X126441000Y-84492000D02*
X126441000Y-93308000D01*
X126481000Y-84533000D02*
X126481000Y-93267000D01*
X126521000Y-84575000D02*
X126521000Y-93225000D01*
X126561000Y-84618000D02*
X126561000Y-93182000D01*
X126601000Y-84662000D02*
X126601000Y-93138000D01*
X126641000Y-84706000D02*
X126641000Y-93094000D01*
X126681000Y-84752000D02*
X126681000Y-93048000D01*
X126721000Y-84798000D02*
X126721000Y-93002000D01*
X126761000Y-84845000D02*
X126761000Y-92955000D01*
X126801000Y-84893000D02*
X126801000Y-92907000D01*
X126841000Y-84943000D02*
X126841000Y-92857000D01*
X126881000Y-84993000D02*
X126881000Y-92807000D01*
X126921000Y-85044000D02*
X126921000Y-92756000D01*
X126961000Y-85096000D02*
X126961000Y-92704000D01*
X127001000Y-85150000D02*
X127001000Y-92650000D01*
X127041000Y-85204000D02*
X127041000Y-92596000D01*
X127081000Y-85260000D02*
X127081000Y-92540000D01*
X127121000Y-85317000D02*
X127121000Y-92483000D01*
X127161000Y-85376000D02*
X127161000Y-92424000D01*
X127201000Y-85436000D02*
X127201000Y-92364000D01*
X127241000Y-85498000D02*
X127241000Y-92302000D01*
X127281000Y-85561000D02*
X127281000Y-92239000D01*
X127321000Y-85625000D02*
X127321000Y-92175000D01*
X127361000Y-85692000D02*
X127361000Y-92108000D01*
X127401000Y-85760000D02*
X127401000Y-92040000D01*
X127441000Y-85831000D02*
X127441000Y-91969000D01*
X127481000Y-85904000D02*
X127481000Y-91896000D01*
X127521000Y-85979000D02*
X127521000Y-91821000D01*
X127561000Y-86056000D02*
X127561000Y-91744000D01*
X127601000Y-86136000D02*
X127601000Y-91664000D01*
X127641000Y-86219000D02*
X127641000Y-91581000D01*
X127681000Y-86306000D02*
X127681000Y-91494000D01*
X127721000Y-86396000D02*
X127721000Y-91404000D01*
X127761000Y-86490000D02*
X127761000Y-91310000D01*
X127801000Y-86588000D02*
X127801000Y-91212000D01*
X127841000Y-86691000D02*
X127841000Y-91109000D01*
X127881000Y-86800000D02*
X127881000Y-91000000D01*
X127921000Y-86916000D02*
X127921000Y-90884000D01*
X127961000Y-87039000D02*
X127961000Y-90761000D01*
X128001000Y-87172000D02*
X128001000Y-90628000D01*
X128041000Y-87317000D02*
X128041000Y-90483000D01*
X128081000Y-87478000D02*
X128081000Y-90322000D01*
X128121000Y-87659000D02*
X128121000Y-90141000D01*
X128161000Y-87872000D02*
X128161000Y-89928000D01*
X128201000Y-88143000D02*
X128201000Y-89657000D01*
X128241000Y-88583000D02*
X128241000Y-89217000D01*
X128250000Y-88900000D02*
G75*
G03*
X128250000Y-88900000I-6370000J0D01*
G01*
%TO.C,C4*%
X152142000Y-80542000D02*
X153432000Y-80542000D01*
X153432000Y-78872000D02*
X153432000Y-82212000D01*
X153432000Y-82212000D02*
X158772000Y-82212000D01*
X158772000Y-78872000D02*
X153432000Y-78872000D01*
X158772000Y-82212000D02*
X158772000Y-78872000D01*
X160062000Y-80542000D02*
X158772000Y-80542000D01*
%TO.C,Display1*%
X199470000Y-123758000D02*
X193720000Y-123758000D01*
X199470000Y-117758000D02*
X199470000Y-123758000D01*
X198120000Y-118868000D02*
X193040000Y-118868000D01*
X198120000Y-117858000D02*
X198120000Y-118868000D01*
X193040000Y-118868000D02*
X193040000Y-117858000D01*
X192370000Y-123708000D02*
X189170000Y-123708000D01*
X189170000Y-123708000D02*
X189170000Y-117758000D01*
X189170000Y-117758000D02*
X199470000Y-117758000D01*
%TO.C,R1*%
X190076000Y-147320000D02*
X187426000Y-147320000D01*
X187426000Y-149690000D02*
X187426000Y-144950000D01*
X187426000Y-144950000D02*
X175286000Y-144950000D01*
X175286000Y-149690000D02*
X187426000Y-149690000D01*
X175286000Y-144950000D02*
X175286000Y-149690000D01*
X172636000Y-147320000D02*
X175286000Y-147320000D01*
%TO.C,U2*%
X211538000Y-96410000D02*
X175858000Y-96410000D01*
X175858000Y-96410000D02*
X175858000Y-101710000D01*
X211538000Y-98060000D02*
X211538000Y-96410000D01*
X211538000Y-101710000D02*
X211538000Y-100060000D01*
X175858000Y-101710000D02*
X211538000Y-101710000D01*
X211538000Y-98060000D02*
G75*
G03*
X211538000Y-100060000I0J-1000000D01*
G01*
%TO.C,Servo1*%
X147490000Y-127266000D02*
X148600000Y-127266000D01*
X147490000Y-128026000D02*
X147490000Y-127266000D01*
X147490000Y-128786000D02*
X147490000Y-131261000D01*
X147490000Y-128786000D02*
X148036529Y-128786000D01*
X147490000Y-131261000D02*
X148292470Y-131261000D01*
X148907530Y-131261000D02*
X149710000Y-131261000D01*
X149163471Y-128786000D02*
X149710000Y-128786000D01*
X149710000Y-128786000D02*
X149710000Y-131261000D01*
%TO.C,C3*%
X152142000Y-75892000D02*
X153432000Y-75892000D01*
X153432000Y-74222000D02*
X153432000Y-77562000D01*
X153432000Y-77562000D02*
X158772000Y-77562000D01*
X158772000Y-74222000D02*
X153432000Y-74222000D01*
X158772000Y-77562000D02*
X158772000Y-74222000D01*
X160062000Y-75892000D02*
X158772000Y-75892000D01*
%TO.C,C6*%
X115062918Y-103105000D02*
X116312918Y-103105000D01*
X115687918Y-102480000D02*
X115687918Y-103730000D01*
X121880000Y-100350000D02*
X121880000Y-113010000D01*
X121920000Y-100350000D02*
X121920000Y-113010000D01*
X121960000Y-100350000D02*
X121960000Y-113010000D01*
X122000000Y-100351000D02*
X122000000Y-113009000D01*
X122040000Y-100352000D02*
X122040000Y-113008000D01*
X122080000Y-100353000D02*
X122080000Y-113007000D01*
X122120000Y-100354000D02*
X122120000Y-113006000D01*
X122160000Y-100356000D02*
X122160000Y-113004000D01*
X122200000Y-100358000D02*
X122200000Y-113002000D01*
X122240000Y-100360000D02*
X122240000Y-113000000D01*
X122280000Y-100362000D02*
X122280000Y-112998000D01*
X122320000Y-100365000D02*
X122320000Y-112995000D01*
X122360000Y-100368000D02*
X122360000Y-112992000D01*
X122400000Y-100371000D02*
X122400000Y-112989000D01*
X122440000Y-100374000D02*
X122440000Y-112986000D01*
X122480000Y-100378000D02*
X122480000Y-112982000D01*
X122520000Y-100382000D02*
X122520000Y-112978000D01*
X122560000Y-100386000D02*
X122560000Y-112974000D01*
X122601000Y-100390000D02*
X122601000Y-112970000D01*
X122641000Y-100395000D02*
X122641000Y-112965000D01*
X122681000Y-100400000D02*
X122681000Y-112960000D01*
X122721000Y-100405000D02*
X122721000Y-112955000D01*
X122761000Y-100411000D02*
X122761000Y-112949000D01*
X122801000Y-100416000D02*
X122801000Y-112944000D01*
X122841000Y-100422000D02*
X122841000Y-112938000D01*
X122881000Y-100428000D02*
X122881000Y-112932000D01*
X122921000Y-100435000D02*
X122921000Y-112925000D01*
X122961000Y-100442000D02*
X122961000Y-105240000D01*
X122961000Y-108120000D02*
X122961000Y-112918000D01*
X123001000Y-100449000D02*
X123001000Y-105240000D01*
X123001000Y-108120000D02*
X123001000Y-112911000D01*
X123041000Y-100456000D02*
X123041000Y-105240000D01*
X123041000Y-108120000D02*
X123041000Y-112904000D01*
X123081000Y-100464000D02*
X123081000Y-105240000D01*
X123081000Y-108120000D02*
X123081000Y-112896000D01*
X123121000Y-100471000D02*
X123121000Y-105240000D01*
X123121000Y-108120000D02*
X123121000Y-112889000D01*
X123161000Y-100479000D02*
X123161000Y-105240000D01*
X123161000Y-108120000D02*
X123161000Y-112881000D01*
X123201000Y-100488000D02*
X123201000Y-105240000D01*
X123201000Y-108120000D02*
X123201000Y-112872000D01*
X123241000Y-100496000D02*
X123241000Y-105240000D01*
X123241000Y-108120000D02*
X123241000Y-112864000D01*
X123281000Y-100505000D02*
X123281000Y-105240000D01*
X123281000Y-108120000D02*
X123281000Y-112855000D01*
X123321000Y-100514000D02*
X123321000Y-105240000D01*
X123321000Y-108120000D02*
X123321000Y-112846000D01*
X123361000Y-100524000D02*
X123361000Y-105240000D01*
X123361000Y-108120000D02*
X123361000Y-112836000D01*
X123401000Y-100534000D02*
X123401000Y-105240000D01*
X123401000Y-108120000D02*
X123401000Y-112826000D01*
X123441000Y-100543000D02*
X123441000Y-105240000D01*
X123441000Y-108120000D02*
X123441000Y-112817000D01*
X123481000Y-100554000D02*
X123481000Y-105240000D01*
X123481000Y-108120000D02*
X123481000Y-112806000D01*
X123521000Y-100564000D02*
X123521000Y-105240000D01*
X123521000Y-108120000D02*
X123521000Y-112796000D01*
X123561000Y-100575000D02*
X123561000Y-105240000D01*
X123561000Y-108120000D02*
X123561000Y-112785000D01*
X123601000Y-100586000D02*
X123601000Y-105240000D01*
X123601000Y-108120000D02*
X123601000Y-112774000D01*
X123641000Y-100597000D02*
X123641000Y-105240000D01*
X123641000Y-108120000D02*
X123641000Y-112763000D01*
X123681000Y-100609000D02*
X123681000Y-105240000D01*
X123681000Y-108120000D02*
X123681000Y-112751000D01*
X123721000Y-100621000D02*
X123721000Y-105240000D01*
X123721000Y-108120000D02*
X123721000Y-112739000D01*
X123761000Y-100633000D02*
X123761000Y-105240000D01*
X123761000Y-108120000D02*
X123761000Y-112727000D01*
X123801000Y-100646000D02*
X123801000Y-105240000D01*
X123801000Y-108120000D02*
X123801000Y-112714000D01*
X123841000Y-100659000D02*
X123841000Y-105240000D01*
X123841000Y-108120000D02*
X123841000Y-112701000D01*
X123881000Y-100672000D02*
X123881000Y-105240000D01*
X123881000Y-108120000D02*
X123881000Y-112688000D01*
X123921000Y-100685000D02*
X123921000Y-105240000D01*
X123921000Y-108120000D02*
X123921000Y-112675000D01*
X123961000Y-100699000D02*
X123961000Y-105240000D01*
X123961000Y-108120000D02*
X123961000Y-112661000D01*
X124001000Y-100713000D02*
X124001000Y-105240000D01*
X124001000Y-108120000D02*
X124001000Y-112647000D01*
X124041000Y-100727000D02*
X124041000Y-105240000D01*
X124041000Y-108120000D02*
X124041000Y-112633000D01*
X124081000Y-100741000D02*
X124081000Y-105240000D01*
X124081000Y-108120000D02*
X124081000Y-112619000D01*
X124121000Y-100756000D02*
X124121000Y-105240000D01*
X124121000Y-108120000D02*
X124121000Y-112604000D01*
X124161000Y-100772000D02*
X124161000Y-105240000D01*
X124161000Y-108120000D02*
X124161000Y-112588000D01*
X124201000Y-100787000D02*
X124201000Y-105240000D01*
X124201000Y-108120000D02*
X124201000Y-112573000D01*
X124241000Y-100803000D02*
X124241000Y-105240000D01*
X124241000Y-108120000D02*
X124241000Y-112557000D01*
X124281000Y-100819000D02*
X124281000Y-105240000D01*
X124281000Y-108120000D02*
X124281000Y-112541000D01*
X124321000Y-100835000D02*
X124321000Y-105240000D01*
X124321000Y-108120000D02*
X124321000Y-112525000D01*
X124361000Y-100852000D02*
X124361000Y-105240000D01*
X124361000Y-108120000D02*
X124361000Y-112508000D01*
X124401000Y-100869000D02*
X124401000Y-105240000D01*
X124401000Y-108120000D02*
X124401000Y-112491000D01*
X124441000Y-100887000D02*
X124441000Y-105240000D01*
X124441000Y-108120000D02*
X124441000Y-112473000D01*
X124481000Y-100904000D02*
X124481000Y-105240000D01*
X124481000Y-108120000D02*
X124481000Y-112456000D01*
X124521000Y-100922000D02*
X124521000Y-105240000D01*
X124521000Y-108120000D02*
X124521000Y-112438000D01*
X124561000Y-100941000D02*
X124561000Y-105240000D01*
X124561000Y-108120000D02*
X124561000Y-112419000D01*
X124601000Y-100959000D02*
X124601000Y-105240000D01*
X124601000Y-108120000D02*
X124601000Y-112401000D01*
X124641000Y-100978000D02*
X124641000Y-105240000D01*
X124641000Y-108120000D02*
X124641000Y-112382000D01*
X124681000Y-100998000D02*
X124681000Y-105240000D01*
X124681000Y-108120000D02*
X124681000Y-112362000D01*
X124721000Y-101018000D02*
X124721000Y-105240000D01*
X124721000Y-108120000D02*
X124721000Y-112342000D01*
X124761000Y-101038000D02*
X124761000Y-105240000D01*
X124761000Y-108120000D02*
X124761000Y-112322000D01*
X124801000Y-101058000D02*
X124801000Y-105240000D01*
X124801000Y-108120000D02*
X124801000Y-112302000D01*
X124841000Y-101079000D02*
X124841000Y-105240000D01*
X124841000Y-108120000D02*
X124841000Y-112281000D01*
X124881000Y-101100000D02*
X124881000Y-105240000D01*
X124881000Y-108120000D02*
X124881000Y-112260000D01*
X124921000Y-101122000D02*
X124921000Y-105240000D01*
X124921000Y-108120000D02*
X124921000Y-112238000D01*
X124961000Y-101144000D02*
X124961000Y-105240000D01*
X124961000Y-108120000D02*
X124961000Y-112216000D01*
X125001000Y-101166000D02*
X125001000Y-105240000D01*
X125001000Y-108120000D02*
X125001000Y-112194000D01*
X125041000Y-101189000D02*
X125041000Y-105240000D01*
X125041000Y-108120000D02*
X125041000Y-112171000D01*
X125081000Y-101212000D02*
X125081000Y-105240000D01*
X125081000Y-108120000D02*
X125081000Y-112148000D01*
X125121000Y-101235000D02*
X125121000Y-105240000D01*
X125121000Y-108120000D02*
X125121000Y-112125000D01*
X125161000Y-101259000D02*
X125161000Y-105240000D01*
X125161000Y-108120000D02*
X125161000Y-112101000D01*
X125201000Y-101283000D02*
X125201000Y-105240000D01*
X125201000Y-108120000D02*
X125201000Y-112077000D01*
X125241000Y-101308000D02*
X125241000Y-105240000D01*
X125241000Y-108120000D02*
X125241000Y-112052000D01*
X125281000Y-101333000D02*
X125281000Y-105240000D01*
X125281000Y-108120000D02*
X125281000Y-112027000D01*
X125321000Y-101358000D02*
X125321000Y-105240000D01*
X125321000Y-108120000D02*
X125321000Y-112002000D01*
X125361000Y-101384000D02*
X125361000Y-105240000D01*
X125361000Y-108120000D02*
X125361000Y-111976000D01*
X125401000Y-101410000D02*
X125401000Y-105240000D01*
X125401000Y-108120000D02*
X125401000Y-111950000D01*
X125441000Y-101437000D02*
X125441000Y-105240000D01*
X125441000Y-108120000D02*
X125441000Y-111923000D01*
X125481000Y-101464000D02*
X125481000Y-105240000D01*
X125481000Y-108120000D02*
X125481000Y-111896000D01*
X125521000Y-101492000D02*
X125521000Y-105240000D01*
X125521000Y-108120000D02*
X125521000Y-111868000D01*
X125561000Y-101520000D02*
X125561000Y-105240000D01*
X125561000Y-108120000D02*
X125561000Y-111840000D01*
X125601000Y-101549000D02*
X125601000Y-105240000D01*
X125601000Y-108120000D02*
X125601000Y-111811000D01*
X125641000Y-101578000D02*
X125641000Y-105240000D01*
X125641000Y-108120000D02*
X125641000Y-111782000D01*
X125681000Y-101607000D02*
X125681000Y-105240000D01*
X125681000Y-108120000D02*
X125681000Y-111753000D01*
X125721000Y-101637000D02*
X125721000Y-105240000D01*
X125721000Y-108120000D02*
X125721000Y-111723000D01*
X125761000Y-101668000D02*
X125761000Y-105240000D01*
X125761000Y-108120000D02*
X125761000Y-111692000D01*
X125801000Y-101698000D02*
X125801000Y-105240000D01*
X125801000Y-108120000D02*
X125801000Y-111662000D01*
X125841000Y-101730000D02*
X125841000Y-111630000D01*
X125881000Y-101762000D02*
X125881000Y-111598000D01*
X125921000Y-101795000D02*
X125921000Y-111565000D01*
X125961000Y-101828000D02*
X125961000Y-111532000D01*
X126001000Y-101861000D02*
X126001000Y-111499000D01*
X126041000Y-101895000D02*
X126041000Y-111465000D01*
X126081000Y-101930000D02*
X126081000Y-111430000D01*
X126121000Y-101966000D02*
X126121000Y-111394000D01*
X126161000Y-102002000D02*
X126161000Y-111358000D01*
X126201000Y-102038000D02*
X126201000Y-111322000D01*
X126241000Y-102075000D02*
X126241000Y-111285000D01*
X126281000Y-102113000D02*
X126281000Y-111247000D01*
X126321000Y-102152000D02*
X126321000Y-111208000D01*
X126361000Y-102191000D02*
X126361000Y-111169000D01*
X126401000Y-102231000D02*
X126401000Y-111129000D01*
X126441000Y-102272000D02*
X126441000Y-111088000D01*
X126481000Y-102313000D02*
X126481000Y-111047000D01*
X126521000Y-102355000D02*
X126521000Y-111005000D01*
X126561000Y-102398000D02*
X126561000Y-110962000D01*
X126601000Y-102442000D02*
X126601000Y-110918000D01*
X126641000Y-102486000D02*
X126641000Y-110874000D01*
X126681000Y-102532000D02*
X126681000Y-110828000D01*
X126721000Y-102578000D02*
X126721000Y-110782000D01*
X126761000Y-102625000D02*
X126761000Y-110735000D01*
X126801000Y-102673000D02*
X126801000Y-110687000D01*
X126841000Y-102723000D02*
X126841000Y-110637000D01*
X126881000Y-102773000D02*
X126881000Y-110587000D01*
X126921000Y-102824000D02*
X126921000Y-110536000D01*
X126961000Y-102876000D02*
X126961000Y-110484000D01*
X127001000Y-102930000D02*
X127001000Y-110430000D01*
X127041000Y-102984000D02*
X127041000Y-110376000D01*
X127081000Y-103040000D02*
X127081000Y-110320000D01*
X127121000Y-103097000D02*
X127121000Y-110263000D01*
X127161000Y-103156000D02*
X127161000Y-110204000D01*
X127201000Y-103216000D02*
X127201000Y-110144000D01*
X127241000Y-103278000D02*
X127241000Y-110082000D01*
X127281000Y-103341000D02*
X127281000Y-110019000D01*
X127321000Y-103405000D02*
X127321000Y-109955000D01*
X127361000Y-103472000D02*
X127361000Y-109888000D01*
X127401000Y-103540000D02*
X127401000Y-109820000D01*
X127441000Y-103611000D02*
X127441000Y-109749000D01*
X127481000Y-103684000D02*
X127481000Y-109676000D01*
X127521000Y-103759000D02*
X127521000Y-109601000D01*
X127561000Y-103836000D02*
X127561000Y-109524000D01*
X127601000Y-103916000D02*
X127601000Y-109444000D01*
X127641000Y-103999000D02*
X127641000Y-109361000D01*
X127681000Y-104086000D02*
X127681000Y-109274000D01*
X127721000Y-104176000D02*
X127721000Y-109184000D01*
X127761000Y-104270000D02*
X127761000Y-109090000D01*
X127801000Y-104368000D02*
X127801000Y-108992000D01*
X127841000Y-104471000D02*
X127841000Y-108889000D01*
X127881000Y-104580000D02*
X127881000Y-108780000D01*
X127921000Y-104696000D02*
X127921000Y-108664000D01*
X127961000Y-104819000D02*
X127961000Y-108541000D01*
X128001000Y-104952000D02*
X128001000Y-108408000D01*
X128041000Y-105097000D02*
X128041000Y-108263000D01*
X128081000Y-105258000D02*
X128081000Y-108102000D01*
X128121000Y-105439000D02*
X128121000Y-107921000D01*
X128161000Y-105652000D02*
X128161000Y-107708000D01*
X128201000Y-105923000D02*
X128201000Y-107437000D01*
X128241000Y-106363000D02*
X128241000Y-106997000D01*
X128250000Y-106680000D02*
G75*
G03*
X128250000Y-106680000I-6370000J0D01*
G01*
%TO.C,Bot\u00E3o_Reset1*%
X127440000Y-131148000D02*
X128690000Y-131148000D01*
X127740000Y-130848000D02*
X132460000Y-130848000D01*
X129050000Y-130848000D02*
X129050000Y-130238000D01*
X130350000Y-130848000D02*
X130350000Y-130238000D01*
X132460000Y-130848000D02*
X132460000Y-124728000D01*
X128350000Y-130238000D02*
X131850000Y-130238000D01*
X131850000Y-130238000D02*
X131850000Y-125338000D01*
X127440000Y-129898000D02*
X127440000Y-131148000D01*
X127540000Y-129388000D02*
X127740000Y-129388000D01*
X127540000Y-129088000D02*
X127540000Y-129388000D01*
X127640000Y-129088000D02*
X127640000Y-129388000D01*
X127740000Y-129088000D02*
X127540000Y-129088000D01*
X127740000Y-128288000D02*
X128350000Y-128288000D01*
X128350000Y-128288000D02*
X128350000Y-130238000D01*
X131350000Y-127888000D02*
X131350000Y-127688000D01*
X131850000Y-127888000D02*
X131350000Y-127888000D01*
X131850000Y-127788000D02*
X131350000Y-127788000D01*
X131350000Y-127688000D02*
X131850000Y-127688000D01*
X128350000Y-127288000D02*
X127740000Y-127288000D01*
X128350000Y-125338000D02*
X128350000Y-127288000D01*
X131850000Y-125338000D02*
X128350000Y-125338000D01*
X127740000Y-124728000D02*
X127740000Y-130848000D01*
X129050000Y-124728000D02*
X129050000Y-125338000D01*
X130350000Y-124728000D02*
X130350000Y-125338000D01*
X132460000Y-124728000D02*
X127740000Y-124728000D01*
%TD*%
M02*
