%TF.GenerationSoftware,KiCad,Pcbnew,7.0.7*%
%TF.CreationDate,2023-12-03T23:29:23-03:00*%
%TF.ProjectId,Chocadeira,43686f63-6164-4656-9972-612e6b696361,rev?*%
%TF.SameCoordinates,Original*%
%TF.FileFunction,Soldermask,Top*%
%TF.FilePolarity,Negative*%
%FSLAX46Y46*%
G04 Gerber Fmt 4.6, Leading zero omitted, Abs format (unit mm)*
G04 Created by KiCad (PCBNEW 7.0.7) date 2023-12-03 23:29:23*
%MOMM*%
%LPD*%
G01*
G04 APERTURE LIST*
G04 Aperture macros list*
%AMRoundRect*
0 Rectangle with rounded corners*
0 $1 Rounding radius*
0 $2 $3 $4 $5 $6 $7 $8 $9 X,Y pos of 4 corners*
0 Add a 4 corners polygon primitive as box body*
4,1,4,$2,$3,$4,$5,$6,$7,$8,$9,$2,$3,0*
0 Add four circle primitives for the rounded corners*
1,1,$1+$1,$2,$3*
1,1,$1+$1,$4,$5*
1,1,$1+$1,$6,$7*
1,1,$1+$1,$8,$9*
0 Add four rect primitives between the rounded corners*
20,1,$1+$1,$2,$3,$4,$5,0*
20,1,$1+$1,$4,$5,$6,$7,0*
20,1,$1+$1,$6,$7,$8,$9,0*
20,1,$1+$1,$8,$9,$2,$3,0*%
G04 Aperture macros list end*
%ADD10R,0.850000X0.850000*%
%ADD11O,0.850000X0.850000*%
%ADD12C,2.400000*%
%ADD13O,2.400000X2.400000*%
%ADD14R,1.000000X1.000000*%
%ADD15O,1.000000X1.000000*%
%ADD16C,2.000000*%
%ADD17R,1.905000X2.000000*%
%ADD18O,1.905000X2.000000*%
%ADD19C,2.700000*%
%ADD20R,2.400000X2.400000*%
%ADD21C,1.600000*%
%ADD22O,1.600000X1.600000*%
%ADD23C,1.100000*%
%ADD24R,1.730000X2.030000*%
%ADD25O,1.730000X2.030000*%
%ADD26R,1.600000X1.600000*%
%ADD27RoundRect,0.250000X0.625000X-0.350000X0.625000X0.350000X-0.625000X0.350000X-0.625000X-0.350000X0*%
%ADD28O,1.750000X1.200000*%
G04 APERTURE END LIST*
D10*
%TO.C,RTC1*%
X223520000Y-81280000D03*
D11*
X223520000Y-82280000D03*
X223520000Y-83280000D03*
X223520000Y-84280000D03*
%TD*%
D12*
%TO.C,R4*%
X137160000Y-139700000D03*
D13*
X157480000Y-139700000D03*
%TD*%
D10*
%TO.C,LED*%
X134320000Y-149330000D03*
D11*
X134320000Y-150330000D03*
%TD*%
%TO.C,Dimmer1*%
X101600000Y-132080000D03*
X100600000Y-132080000D03*
X99600000Y-132080000D03*
D10*
X98600000Y-132080000D03*
%TD*%
D14*
%TO.C,DHT1*%
X139700000Y-93980000D03*
D15*
X139700000Y-95250000D03*
X139700000Y-96520000D03*
%TD*%
D16*
%TO.C,C1*%
X154182000Y-93892000D03*
X159182000Y-93892000D03*
%TD*%
%TO.C,C2*%
X154182000Y-100442000D03*
X159182000Y-100442000D03*
%TD*%
D17*
%TO.C,U1*%
X152762000Y-86792000D03*
D18*
X155302000Y-86792000D03*
X157842000Y-86792000D03*
%TD*%
D12*
%TO.C,R2*%
X171196000Y-134366000D03*
D13*
X191516000Y-134366000D03*
%TD*%
D19*
%TO.C,16MHz1*%
X187856000Y-81026000D03*
X200196000Y-81026000D03*
%TD*%
D20*
%TO.C,C5*%
X119380000Y-88900000D03*
D12*
X124380000Y-88900000D03*
%TD*%
D21*
%TO.C,C4*%
X151102000Y-80542000D03*
D22*
X161102000Y-80542000D03*
%TD*%
D23*
%TO.C,Display1*%
X193040000Y-123318000D03*
D24*
X198120000Y-121158000D03*
D25*
X195580000Y-121158000D03*
X193040000Y-121158000D03*
X190500000Y-121158000D03*
%TD*%
D12*
%TO.C,R1*%
X191516000Y-147320000D03*
D13*
X171196000Y-147320000D03*
%TD*%
D26*
%TO.C,U2*%
X210208000Y-95250000D03*
D22*
X207668000Y-95250000D03*
X205128000Y-95250000D03*
X202588000Y-95250000D03*
X200048000Y-95250000D03*
X197508000Y-95250000D03*
X194968000Y-95250000D03*
X192428000Y-95250000D03*
X189888000Y-95250000D03*
X187348000Y-95250000D03*
X184808000Y-95250000D03*
X182268000Y-95250000D03*
X179728000Y-95250000D03*
X177188000Y-95250000D03*
X177188000Y-102870000D03*
X179728000Y-102870000D03*
X182268000Y-102870000D03*
X184808000Y-102870000D03*
X187348000Y-102870000D03*
X189888000Y-102870000D03*
X192428000Y-102870000D03*
X194968000Y-102870000D03*
X197508000Y-102870000D03*
X200048000Y-102870000D03*
X202588000Y-102870000D03*
X205128000Y-102870000D03*
X207668000Y-102870000D03*
X210208000Y-102870000D03*
%TD*%
D14*
%TO.C,Servo1*%
X148600000Y-128026000D03*
D15*
X148600000Y-129296000D03*
X148600000Y-130566000D03*
%TD*%
D21*
%TO.C,C3*%
X151102000Y-75892000D03*
D22*
X161102000Y-75892000D03*
%TD*%
D20*
%TO.C,C6*%
X119380000Y-106680000D03*
D12*
X124380000Y-106680000D03*
%TD*%
D27*
%TO.C,Bot\u00E3o_Reset1*%
X129550000Y-128788000D03*
D28*
X129550000Y-126788000D03*
%TD*%
M02*
