%TF.GenerationSoftware,KiCad,Pcbnew,7.0.7*%
%TF.CreationDate,2023-12-03T23:29:23-03:00*%
%TF.ProjectId,Chocadeira,43686f63-6164-4656-9972-612e6b696361,rev?*%
%TF.SameCoordinates,Original*%
%TF.FileFunction,Copper,L1,Top*%
%TF.FilePolarity,Positive*%
%FSLAX46Y46*%
G04 Gerber Fmt 4.6, Leading zero omitted, Abs format (unit mm)*
G04 Created by KiCad (PCBNEW 7.0.7) date 2023-12-03 23:29:23*
%MOMM*%
%LPD*%
G01*
G04 APERTURE LIST*
G04 Aperture macros list*
%AMRoundRect*
0 Rectangle with rounded corners*
0 $1 Rounding radius*
0 $2 $3 $4 $5 $6 $7 $8 $9 X,Y pos of 4 corners*
0 Add a 4 corners polygon primitive as box body*
4,1,4,$2,$3,$4,$5,$6,$7,$8,$9,$2,$3,0*
0 Add four circle primitives for the rounded corners*
1,1,$1+$1,$2,$3*
1,1,$1+$1,$4,$5*
1,1,$1+$1,$6,$7*
1,1,$1+$1,$8,$9*
0 Add four rect primitives between the rounded corners*
20,1,$1+$1,$2,$3,$4,$5,0*
20,1,$1+$1,$4,$5,$6,$7,0*
20,1,$1+$1,$6,$7,$8,$9,0*
20,1,$1+$1,$8,$9,$2,$3,0*%
G04 Aperture macros list end*
%TA.AperFunction,ComponentPad*%
%ADD10R,0.850000X0.850000*%
%TD*%
%TA.AperFunction,ComponentPad*%
%ADD11O,0.850000X0.850000*%
%TD*%
%TA.AperFunction,ComponentPad*%
%ADD12C,2.400000*%
%TD*%
%TA.AperFunction,ComponentPad*%
%ADD13O,2.400000X2.400000*%
%TD*%
%TA.AperFunction,ComponentPad*%
%ADD14R,1.000000X1.000000*%
%TD*%
%TA.AperFunction,ComponentPad*%
%ADD15O,1.000000X1.000000*%
%TD*%
%TA.AperFunction,ComponentPad*%
%ADD16C,2.000000*%
%TD*%
%TA.AperFunction,ComponentPad*%
%ADD17R,1.905000X2.000000*%
%TD*%
%TA.AperFunction,ComponentPad*%
%ADD18O,1.905000X2.000000*%
%TD*%
%TA.AperFunction,ComponentPad*%
%ADD19C,2.700000*%
%TD*%
%TA.AperFunction,ComponentPad*%
%ADD20R,2.400000X2.400000*%
%TD*%
%TA.AperFunction,ComponentPad*%
%ADD21C,1.600000*%
%TD*%
%TA.AperFunction,ComponentPad*%
%ADD22O,1.600000X1.600000*%
%TD*%
%TA.AperFunction,ComponentPad*%
%ADD23R,1.730000X2.030000*%
%TD*%
%TA.AperFunction,ComponentPad*%
%ADD24O,1.730000X2.030000*%
%TD*%
%TA.AperFunction,ComponentPad*%
%ADD25R,1.600000X1.600000*%
%TD*%
%TA.AperFunction,ComponentPad*%
%ADD26RoundRect,0.250000X0.625000X-0.350000X0.625000X0.350000X-0.625000X0.350000X-0.625000X-0.350000X0*%
%TD*%
%TA.AperFunction,ComponentPad*%
%ADD27O,1.750000X1.200000*%
%TD*%
%TA.AperFunction,Conductor*%
%ADD28C,0.250000*%
%TD*%
G04 APERTURE END LIST*
D10*
%TO.P,RTC1,1,Pin_1*%
%TO.N,VCC*%
X223520000Y-81280000D03*
D11*
%TO.P,RTC1,2,Pin_2*%
%TO.N,Net-(RTC1-Pin_2)*%
X223520000Y-82280000D03*
%TO.P,RTC1,3,Pin_3*%
%TO.N,Net-(RTC1-Pin_3)*%
X223520000Y-83280000D03*
%TO.P,RTC1,4,Pin_4*%
%TO.N,GND*%
X223520000Y-84280000D03*
%TD*%
D12*
%TO.P,R4,1*%
%TO.N,GND*%
X137160000Y-139700000D03*
D13*
%TO.P,R4,2*%
%TO.N,Net-(D1-A)*%
X157480000Y-139700000D03*
%TD*%
D10*
%TO.P,LED,1,K*%
%TO.N,Net-(D1-K)*%
X134320000Y-149330000D03*
D11*
%TO.P,LED,2,A*%
%TO.N,Net-(D1-A)*%
X134320000Y-150330000D03*
%TD*%
%TO.P,Dimmer1,4,Pin_4*%
%TO.N,VCC*%
X101600000Y-132080000D03*
%TO.P,Dimmer1,3,Pin_3*%
%TO.N,Net-(Dimmer1-Pin_3)*%
X100600000Y-132080000D03*
%TO.P,Dimmer1,2,Pin_2*%
%TO.N,Net-(Dimmer1-Pin_2)*%
X99600000Y-132080000D03*
D10*
%TO.P,Dimmer1,1,Pin_1*%
%TO.N,GND*%
X98600000Y-132080000D03*
%TD*%
D14*
%TO.P,DHT1,1,Pin_1*%
%TO.N,VCC*%
X139700000Y-93980000D03*
D15*
%TO.P,DHT1,2,Pin_2*%
%TO.N,Net-(DHT1-Pin_2)*%
X139700000Y-95250000D03*
%TO.P,DHT1,3,Pin_3*%
%TO.N,GND*%
X139700000Y-96520000D03*
%TD*%
D16*
%TO.P,C1,1*%
%TO.N,XTAL2*%
X154182000Y-93892000D03*
%TO.P,C1,2*%
%TO.N,GND*%
X159182000Y-93892000D03*
%TD*%
%TO.P,C2,1*%
%TO.N,XTAL1*%
X154182000Y-100442000D03*
%TO.P,C2,2*%
%TO.N,GND*%
X159182000Y-100442000D03*
%TD*%
D17*
%TO.P,U1,1,IN*%
%TO.N,Alimentacao*%
X152762000Y-86792000D03*
D18*
%TO.P,U1,2,GND*%
%TO.N,GND*%
X155302000Y-86792000D03*
%TO.P,U1,3,OUT*%
%TO.N,VCC*%
X157842000Y-86792000D03*
%TD*%
D12*
%TO.P,R2,1*%
%TO.N,GND*%
X171196000Y-134366000D03*
D13*
%TO.P,R2,2*%
%TO.N,Net-(D1-A)*%
X191516000Y-134366000D03*
%TD*%
D19*
%TO.P,16MHz1,1,1*%
%TO.N,XTAL2*%
X187856000Y-81026000D03*
%TO.P,16MHz1,2,2*%
%TO.N,XTAL1*%
X200196000Y-81026000D03*
%TD*%
D20*
%TO.P,C5,1*%
%TO.N,VCC*%
X119380000Y-88900000D03*
D12*
%TO.P,C5,2*%
%TO.N,GND*%
X124380000Y-88900000D03*
%TD*%
D21*
%TO.P,C4,1*%
%TO.N,VCC*%
X151102000Y-80542000D03*
D22*
%TO.P,C4,2*%
%TO.N,GND*%
X161102000Y-80542000D03*
%TD*%
D23*
%TO.P,Display1,1,Pin_1*%
%TO.N,Net-(Display1-Pin_1)*%
X198120000Y-121158000D03*
D24*
%TO.P,Display1,2,Pin_2*%
%TO.N,Net-(Display1-Pin_2)*%
X195580000Y-121158000D03*
%TO.P,Display1,3,Pin_3*%
%TO.N,VCC*%
X193040000Y-121158000D03*
%TO.P,Display1,4,Pin_4*%
%TO.N,GND*%
X190500000Y-121158000D03*
%TD*%
D12*
%TO.P,R1,1*%
%TO.N,VCC*%
X191516000Y-147320000D03*
D13*
%TO.P,R1,2*%
%TO.N,Reset*%
X171196000Y-147320000D03*
%TD*%
D25*
%TO.P,U2,1,~{RESET}/PC6*%
%TO.N,Reset*%
X210208000Y-95250000D03*
D22*
%TO.P,U2,2,PD0*%
%TO.N,TX*%
X207668000Y-95250000D03*
%TO.P,U2,3,PD1*%
%TO.N,RX*%
X205128000Y-95250000D03*
%TO.P,U2,4,PD2*%
%TO.N,Net-(Dimmer1-Pin_3)*%
X202588000Y-95250000D03*
%TO.P,U2,5,PD3*%
%TO.N,Net-(Dimmer1-Pin_2)*%
X200048000Y-95250000D03*
%TO.P,U2,6,PD4*%
%TO.N,Net-(D1-K)*%
X197508000Y-95250000D03*
%TO.P,U2,7,VCC*%
%TO.N,VCC*%
X194968000Y-95250000D03*
%TO.P,U2,8,GND*%
%TO.N,GND*%
X192428000Y-95250000D03*
%TO.P,U2,9,XTAL1/PB6*%
%TO.N,XTAL1*%
X189888000Y-95250000D03*
%TO.P,U2,10,XTAL2/PB7*%
%TO.N,XTAL2*%
X187348000Y-95250000D03*
%TO.P,U2,11,PD5*%
%TO.N,Net-(Servo1-Pin_2)*%
X184808000Y-95250000D03*
%TO.P,U2,12,PD6*%
%TO.N,Net-(DHT1-Pin_2)*%
X182268000Y-95250000D03*
%TO.P,U2,13,PD7*%
%TO.N,unconnected-(U2-PD7-Pad13)*%
X179728000Y-95250000D03*
%TO.P,U2,14,PB0*%
%TO.N,unconnected-(U2-PB0-Pad14)*%
X177188000Y-95250000D03*
%TO.P,U2,15,PB1*%
%TO.N,unconnected-(U2-PB1-Pad15)*%
X177188000Y-102870000D03*
%TO.P,U2,16,PB2*%
%TO.N,unconnected-(U2-PB2-Pad16)*%
X179728000Y-102870000D03*
%TO.P,U2,17,PB3*%
%TO.N,unconnected-(U2-PB3-Pad17)*%
X182268000Y-102870000D03*
%TO.P,U2,18,PB4*%
%TO.N,unconnected-(U2-PB4-Pad18)*%
X184808000Y-102870000D03*
%TO.P,U2,19,PB5*%
%TO.N,unconnected-(U2-PB5-Pad19)*%
X187348000Y-102870000D03*
%TO.P,U2,20,AVCC*%
%TO.N,VCC*%
X189888000Y-102870000D03*
%TO.P,U2,21,AREF*%
%TO.N,unconnected-(U2-AREF-Pad21)*%
X192428000Y-102870000D03*
%TO.P,U2,22,GND*%
%TO.N,GND*%
X194968000Y-102870000D03*
%TO.P,U2,23,PC0*%
%TO.N,Net-(Display1-Pin_1)*%
X197508000Y-102870000D03*
%TO.P,U2,24,PC1*%
%TO.N,Net-(Display1-Pin_2)*%
X200048000Y-102870000D03*
%TO.P,U2,25,PC2*%
%TO.N,unconnected-(U2-PC2-Pad25)*%
X202588000Y-102870000D03*
%TO.P,U2,26,PC3*%
%TO.N,unconnected-(U2-PC3-Pad26)*%
X205128000Y-102870000D03*
%TO.P,U2,27,PC4*%
%TO.N,Net-(RTC1-Pin_3)*%
X207668000Y-102870000D03*
%TO.P,U2,28,PC5*%
%TO.N,Net-(RTC1-Pin_2)*%
X210208000Y-102870000D03*
%TD*%
D14*
%TO.P,Servo1,1,Pin_1*%
%TO.N,VCC*%
X148600000Y-128026000D03*
D15*
%TO.P,Servo1,2,Pin_2*%
%TO.N,Net-(Servo1-Pin_2)*%
X148600000Y-129296000D03*
%TO.P,Servo1,3,Pin_3*%
%TO.N,GND*%
X148600000Y-130566000D03*
%TD*%
D21*
%TO.P,C3,1*%
%TO.N,VCC*%
X151102000Y-75892000D03*
D22*
%TO.P,C3,2*%
%TO.N,GND*%
X161102000Y-75892000D03*
%TD*%
D20*
%TO.P,C6,1*%
%TO.N,VCC*%
X119380000Y-106680000D03*
D12*
%TO.P,C6,2*%
%TO.N,GND*%
X124380000Y-106680000D03*
%TD*%
D26*
%TO.P,Bot\u00E3o_Reset1,1,Pin_1*%
%TO.N,Reset*%
X129550000Y-128788000D03*
D27*
%TO.P,Bot\u00E3o_Reset1,2,Pin_2*%
%TO.N,GND*%
X129550000Y-126788000D03*
%TD*%
D28*
%TO.N,Net-(RTC1-Pin_2)*%
X222768100Y-89183000D02*
X222768100Y-82280000D01*
X210208000Y-101743100D02*
X222768100Y-89183000D01*
X210208000Y-102870000D02*
X210208000Y-101743100D01*
X223520000Y-82280000D02*
X222768100Y-82280000D01*
%TO.N,Net-(Dimmer1-Pin_3)*%
X202588000Y-95250000D02*
X201461100Y-95250000D01*
X100600000Y-132080000D02*
X100600000Y-131328100D01*
X201461100Y-95531800D02*
X201461100Y-95250000D01*
X200195500Y-96797400D02*
X201461100Y-95531800D01*
X199443100Y-96797400D02*
X200195500Y-96797400D01*
X193698000Y-102542500D02*
X199443100Y-96797400D01*
X193698000Y-103213700D02*
X193698000Y-102542500D01*
X170598500Y-126313200D02*
X193698000Y-103213700D01*
X136099100Y-126313200D02*
X170598500Y-126313200D01*
X134676300Y-127736000D02*
X136099100Y-126313200D01*
X104192100Y-127736000D02*
X134676300Y-127736000D01*
X100600000Y-131328100D02*
X104192100Y-127736000D01*
%TO.N,Net-(Dimmer1-Pin_2)*%
X105453400Y-125474700D02*
X99600000Y-131328100D01*
X142631700Y-125474700D02*
X105453400Y-125474700D01*
X167598200Y-100508200D02*
X142631700Y-125474700D01*
X193944600Y-100508200D02*
X167598200Y-100508200D01*
X198921100Y-95531700D02*
X193944600Y-100508200D01*
X198921100Y-95250000D02*
X198921100Y-95531700D01*
X200048000Y-95250000D02*
X198921100Y-95250000D01*
X99600000Y-132080000D02*
X99600000Y-131328100D01*
%TO.N,Net-(DHT1-Pin_2)*%
X141654000Y-96377100D02*
X140526900Y-95250000D01*
X180295700Y-96377100D02*
X141654000Y-96377100D01*
X181141100Y-95531700D02*
X180295700Y-96377100D01*
X181141100Y-95250000D02*
X181141100Y-95531700D01*
X182268000Y-95250000D02*
X181141100Y-95250000D01*
X139700000Y-95250000D02*
X140526900Y-95250000D01*
%TO.N,Net-(D1-A)*%
X184655100Y-139700000D02*
X157480000Y-139700000D01*
X189989100Y-134366000D02*
X184655100Y-139700000D01*
X191516000Y-134366000D02*
X189989100Y-134366000D01*
%TO.N,Net-(Display1-Pin_1)*%
X197508000Y-119204100D02*
X198120000Y-119816100D01*
X197508000Y-102870000D02*
X197508000Y-119204100D01*
X198120000Y-121158000D02*
X198120000Y-119816100D01*
%TO.N,VCC*%
X119380000Y-88900000D02*
X120906900Y-88900000D01*
X119380000Y-100586900D02*
X119380000Y-106680000D01*
X125986900Y-93980000D02*
X119380000Y-100586900D01*
X120906900Y-88900000D02*
X125986900Y-93980000D01*
X125986900Y-93980000D02*
X139700000Y-93980000D01*
X193841100Y-95016500D02*
X193841100Y-95250000D01*
X185616600Y-86792000D02*
X193841100Y-95016500D01*
X157842000Y-86792000D02*
X185616600Y-86792000D01*
X194968000Y-95250000D02*
X194404600Y-95250000D01*
X194404600Y-95250000D02*
X193841100Y-95250000D01*
X208374600Y-81280000D02*
X223520000Y-81280000D01*
X194404600Y-95250000D02*
X208374600Y-81280000D01*
%TO.N,Reset*%
X148082000Y-147320000D02*
X171196000Y-147320000D01*
X129550000Y-128788000D02*
X148082000Y-147320000D01*
X209081100Y-97503800D02*
X210208000Y-96376900D01*
X209081100Y-119005700D02*
X209081100Y-97503800D01*
X180766800Y-147320000D02*
X209081100Y-119005700D01*
X171196000Y-147320000D02*
X180766800Y-147320000D01*
X210208000Y-95250000D02*
X210208000Y-96376900D01*
%TO.N,XTAL1*%
X156329800Y-98294200D02*
X154182000Y-100442000D01*
X185998600Y-98294200D02*
X156329800Y-98294200D01*
X188761100Y-95531700D02*
X185998600Y-98294200D01*
X188761100Y-95250000D02*
X188761100Y-95531700D01*
X189888000Y-95250000D02*
X188761100Y-95250000D01*
%TD*%
%TA.AperFunction,Conductor*%
%TO.N,GND*%
G36*
X194861331Y-103258091D02*
G01*
X194891848Y-103262925D01*
X194936515Y-103270000D01*
X194936519Y-103270000D01*
X194999485Y-103270000D01*
X195036960Y-103264064D01*
X195074602Y-103258102D01*
X195143893Y-103267056D01*
X195197346Y-103312052D01*
X195217986Y-103378803D01*
X195217999Y-103380575D01*
X195217999Y-104148871D01*
X195218000Y-104148872D01*
X195414317Y-104096269D01*
X195414326Y-104096265D01*
X195620482Y-104000134D01*
X195806820Y-103869657D01*
X195967657Y-103708820D01*
X196098132Y-103522484D01*
X196125341Y-103464134D01*
X196171513Y-103411695D01*
X196238707Y-103392542D01*
X196305588Y-103412757D01*
X196350106Y-103464133D01*
X196377431Y-103522732D01*
X196377432Y-103522734D01*
X196507954Y-103709141D01*
X196668857Y-103870044D01*
X196668860Y-103870046D01*
X196668861Y-103870047D01*
X196829623Y-103982613D01*
X196873247Y-104037187D01*
X196882499Y-104084186D01*
X196882499Y-119121355D01*
X196880776Y-119136972D01*
X196881061Y-119136999D01*
X196880326Y-119144765D01*
X196882500Y-119213914D01*
X196882500Y-119243443D01*
X196882501Y-119243460D01*
X196883368Y-119250331D01*
X196883826Y-119256150D01*
X196885290Y-119302724D01*
X196885291Y-119302727D01*
X196890880Y-119321967D01*
X196894824Y-119341011D01*
X196896568Y-119354809D01*
X196897336Y-119360891D01*
X196914490Y-119404219D01*
X196916382Y-119409747D01*
X196929381Y-119454488D01*
X196939580Y-119471734D01*
X196948138Y-119489203D01*
X196955514Y-119507832D01*
X196982898Y-119545524D01*
X196986106Y-119550407D01*
X196998635Y-119571591D01*
X197015818Y-119639315D01*
X196993659Y-119705578D01*
X196966215Y-119733979D01*
X196897452Y-119785455D01*
X196811206Y-119900664D01*
X196811203Y-119900669D01*
X196767866Y-120016862D01*
X196725994Y-120072795D01*
X196660530Y-120097212D01*
X196592257Y-120082360D01*
X196562162Y-120059329D01*
X196485413Y-119979251D01*
X196430357Y-119938532D01*
X196298530Y-119841033D01*
X196258751Y-119820977D01*
X196090977Y-119736387D01*
X195947652Y-119692494D01*
X195868723Y-119668322D01*
X195868721Y-119668321D01*
X195868722Y-119668321D01*
X195638157Y-119638797D01*
X195405933Y-119648662D01*
X195405932Y-119648662D01*
X195178703Y-119697634D01*
X194963027Y-119784299D01*
X194765096Y-119906170D01*
X194590599Y-120059746D01*
X194444584Y-120240583D01*
X194444577Y-120240593D01*
X194418301Y-120287630D01*
X194368422Y-120336556D01*
X194300008Y-120350748D01*
X194234783Y-120325700D01*
X194207313Y-120296592D01*
X194106250Y-120147065D01*
X193945413Y-119979251D01*
X193890357Y-119938532D01*
X193758530Y-119841033D01*
X193718751Y-119820977D01*
X193550977Y-119736387D01*
X193407652Y-119692494D01*
X193328723Y-119668322D01*
X193328721Y-119668321D01*
X193328722Y-119668321D01*
X193098157Y-119638797D01*
X192865933Y-119648662D01*
X192865932Y-119648662D01*
X192638703Y-119697634D01*
X192423027Y-119784299D01*
X192225096Y-119906170D01*
X192050599Y-120059746D01*
X191904584Y-120240583D01*
X191904580Y-120240589D01*
X191878027Y-120288120D01*
X191828146Y-120337045D01*
X191759733Y-120351237D01*
X191694508Y-120326188D01*
X191667039Y-120297081D01*
X191565857Y-120147378D01*
X191565855Y-120147375D01*
X191405080Y-119979627D01*
X191405079Y-119979626D01*
X191218271Y-119841462D01*
X191010794Y-119736855D01*
X191010788Y-119736852D01*
X190788615Y-119668812D01*
X190750000Y-119663866D01*
X190750000Y-120535596D01*
X190730315Y-120602635D01*
X190677511Y-120648390D01*
X190608355Y-120658334D01*
X190536476Y-120648000D01*
X190536473Y-120648000D01*
X190463527Y-120648000D01*
X190463523Y-120648000D01*
X190391645Y-120658334D01*
X190322487Y-120648390D01*
X190269684Y-120602634D01*
X190250000Y-120535596D01*
X190250000Y-119665539D01*
X190249999Y-119665539D01*
X190098850Y-119698114D01*
X190098849Y-119698114D01*
X189883253Y-119784748D01*
X189685389Y-119906577D01*
X189510971Y-120060085D01*
X189510969Y-120060087D01*
X189364997Y-120240868D01*
X189251675Y-120443722D01*
X189174271Y-120662798D01*
X189174268Y-120662810D01*
X189135000Y-120891812D01*
X189135000Y-120908000D01*
X189876231Y-120908000D01*
X189943270Y-120927685D01*
X189989025Y-120980489D01*
X189998969Y-121049647D01*
X189995208Y-121066936D01*
X189990000Y-121084672D01*
X189990000Y-121231327D01*
X189995208Y-121249064D01*
X189995208Y-121318934D01*
X189957434Y-121377712D01*
X189893879Y-121406738D01*
X189876231Y-121408000D01*
X189138576Y-121408000D01*
X189149768Y-121539515D01*
X189208318Y-121764379D01*
X189304023Y-121976104D01*
X189304028Y-121976112D01*
X189434142Y-122168621D01*
X189434144Y-122168624D01*
X189594919Y-122336372D01*
X189594920Y-122336373D01*
X189781728Y-122474537D01*
X189989205Y-122579144D01*
X189989211Y-122579147D01*
X190211387Y-122647187D01*
X190250000Y-122652131D01*
X190250000Y-121780403D01*
X190269685Y-121713364D01*
X190322489Y-121667609D01*
X190391646Y-121657665D01*
X190463527Y-121668000D01*
X190463530Y-121668000D01*
X190536470Y-121668000D01*
X190536473Y-121668000D01*
X190608353Y-121657665D01*
X190677512Y-121667609D01*
X190730316Y-121713364D01*
X190750000Y-121780403D01*
X190750000Y-122650459D01*
X190901148Y-122617885D01*
X190901149Y-122617885D01*
X191116746Y-122531251D01*
X191314610Y-122409422D01*
X191489028Y-122255914D01*
X191489030Y-122255912D01*
X191635003Y-122075129D01*
X191635007Y-122075124D01*
X191661384Y-122027907D01*
X191711263Y-121978980D01*
X191779676Y-121964787D01*
X191844902Y-121989834D01*
X191872373Y-122018943D01*
X191973749Y-122168934D01*
X191973751Y-122168936D01*
X192134587Y-122336749D01*
X192321470Y-122474967D01*
X192453919Y-122541746D01*
X192504916Y-122589502D01*
X192522000Y-122657251D01*
X192499743Y-122723481D01*
X192485774Y-122740148D01*
X192410183Y-122815739D01*
X192314211Y-122968476D01*
X192254631Y-123138745D01*
X192254630Y-123138750D01*
X192234435Y-123317996D01*
X192234435Y-123318003D01*
X192254630Y-123497249D01*
X192254631Y-123497254D01*
X192314211Y-123667523D01*
X192410184Y-123820262D01*
X192537738Y-123947816D01*
X192690478Y-124043789D01*
X192860744Y-124103368D01*
X192860745Y-124103368D01*
X192860750Y-124103369D01*
X192951246Y-124113565D01*
X192995040Y-124118499D01*
X192995043Y-124118500D01*
X192995046Y-124118500D01*
X193084957Y-124118500D01*
X193084958Y-124118499D01*
X193152104Y-124110933D01*
X193219249Y-124103369D01*
X193219252Y-124103368D01*
X193219255Y-124103368D01*
X193389522Y-124043789D01*
X193542262Y-123947816D01*
X193669816Y-123820262D01*
X193765789Y-123667522D01*
X193825368Y-123497255D01*
X193845565Y-123318000D01*
X193825368Y-123138745D01*
X193765789Y-122968478D01*
X193669816Y-122815738D01*
X193596258Y-122742180D01*
X193562774Y-122680858D01*
X193567758Y-122611166D01*
X193609630Y-122555233D01*
X193637705Y-122539442D01*
X193656976Y-122531699D01*
X193854907Y-122409827D01*
X194029395Y-122256259D01*
X194175420Y-122075410D01*
X194201698Y-122028369D01*
X194251578Y-121979444D01*
X194319991Y-121965251D01*
X194385216Y-121990298D01*
X194412687Y-122019407D01*
X194513749Y-122168934D01*
X194513751Y-122168936D01*
X194674587Y-122336749D01*
X194861470Y-122474967D01*
X195069024Y-122579613D01*
X195291277Y-122647678D01*
X195521837Y-122677202D01*
X195754070Y-122667337D01*
X195981295Y-122618366D01*
X196196976Y-122531699D01*
X196394907Y-122409827D01*
X196569395Y-122256259D01*
X196569400Y-122256253D01*
X196571599Y-122254318D01*
X196634929Y-122224803D01*
X196704162Y-122234212D01*
X196757318Y-122279558D01*
X196769705Y-122304068D01*
X196811202Y-122415328D01*
X196811206Y-122415335D01*
X196897452Y-122530544D01*
X196897455Y-122530547D01*
X197012664Y-122616793D01*
X197012671Y-122616797D01*
X197147517Y-122667091D01*
X197147516Y-122667091D01*
X197154444Y-122667835D01*
X197207127Y-122673500D01*
X199032872Y-122673499D01*
X199092483Y-122667091D01*
X199227331Y-122616796D01*
X199342546Y-122530546D01*
X199428796Y-122415331D01*
X199479091Y-122280483D01*
X199485500Y-122220873D01*
X199485499Y-120095128D01*
X199479091Y-120035517D01*
X199461988Y-119989662D01*
X199428797Y-119900671D01*
X199428793Y-119900664D01*
X199342547Y-119785455D01*
X199342544Y-119785452D01*
X199227335Y-119699206D01*
X199227328Y-119699202D01*
X199092482Y-119648908D01*
X199092483Y-119648908D01*
X199032883Y-119642501D01*
X199032881Y-119642500D01*
X199032873Y-119642500D01*
X199032865Y-119642500D01*
X198813301Y-119642500D01*
X198746262Y-119622815D01*
X198702598Y-119572424D01*
X198702592Y-119572428D01*
X198702571Y-119572394D01*
X198700507Y-119570011D01*
X198699497Y-119567741D01*
X198698616Y-119565706D01*
X198688423Y-119548471D01*
X198679861Y-119530994D01*
X198672487Y-119512370D01*
X198669190Y-119507832D01*
X198645079Y-119474645D01*
X198641888Y-119469786D01*
X198637023Y-119461560D01*
X198618170Y-119429680D01*
X198618168Y-119429678D01*
X198618165Y-119429674D01*
X198604006Y-119415515D01*
X198591368Y-119400719D01*
X198579594Y-119384513D01*
X198574137Y-119379999D01*
X198543688Y-119354809D01*
X198539376Y-119350886D01*
X198169819Y-118981328D01*
X198136334Y-118920005D01*
X198133500Y-118893647D01*
X198133500Y-104084188D01*
X198153185Y-104017149D01*
X198186377Y-103982613D01*
X198234836Y-103948681D01*
X198347139Y-103870047D01*
X198508047Y-103709139D01*
X198638568Y-103522734D01*
X198665618Y-103464724D01*
X198711790Y-103412285D01*
X198778983Y-103393133D01*
X198845865Y-103413348D01*
X198890382Y-103464725D01*
X198917429Y-103522728D01*
X198917432Y-103522734D01*
X199047954Y-103709141D01*
X199208858Y-103870045D01*
X199208861Y-103870047D01*
X199395266Y-104000568D01*
X199601504Y-104096739D01*
X199821308Y-104155635D01*
X199983230Y-104169801D01*
X200047998Y-104175468D01*
X200048000Y-104175468D01*
X200048002Y-104175468D01*
X200104673Y-104170509D01*
X200274692Y-104155635D01*
X200494496Y-104096739D01*
X200700734Y-104000568D01*
X200887139Y-103870047D01*
X201048047Y-103709139D01*
X201178568Y-103522734D01*
X201205618Y-103464724D01*
X201251790Y-103412285D01*
X201318983Y-103393133D01*
X201385865Y-103413348D01*
X201430382Y-103464725D01*
X201457429Y-103522728D01*
X201457432Y-103522734D01*
X201587954Y-103709141D01*
X201748858Y-103870045D01*
X201748861Y-103870047D01*
X201935266Y-104000568D01*
X202141504Y-104096739D01*
X202361308Y-104155635D01*
X202523230Y-104169801D01*
X202587998Y-104175468D01*
X202588000Y-104175468D01*
X202588002Y-104175468D01*
X202644672Y-104170509D01*
X202814692Y-104155635D01*
X203034496Y-104096739D01*
X203240734Y-104000568D01*
X203427139Y-103870047D01*
X203588047Y-103709139D01*
X203718568Y-103522734D01*
X203745618Y-103464724D01*
X203791790Y-103412285D01*
X203858983Y-103393133D01*
X203925865Y-103413348D01*
X203970382Y-103464725D01*
X203997429Y-103522728D01*
X203997432Y-103522734D01*
X204127954Y-103709141D01*
X204288858Y-103870045D01*
X204288861Y-103870047D01*
X204475266Y-104000568D01*
X204681504Y-104096739D01*
X204901308Y-104155635D01*
X205063230Y-104169801D01*
X205127998Y-104175468D01*
X205128000Y-104175468D01*
X205128002Y-104175468D01*
X205184672Y-104170509D01*
X205354692Y-104155635D01*
X205574496Y-104096739D01*
X205780734Y-104000568D01*
X205967139Y-103870047D01*
X206128047Y-103709139D01*
X206258568Y-103522734D01*
X206285618Y-103464724D01*
X206331790Y-103412285D01*
X206398983Y-103393133D01*
X206465865Y-103413348D01*
X206510382Y-103464725D01*
X206537429Y-103522728D01*
X206537432Y-103522734D01*
X206667954Y-103709141D01*
X206828858Y-103870045D01*
X206828861Y-103870047D01*
X207015266Y-104000568D01*
X207221504Y-104096739D01*
X207441308Y-104155635D01*
X207603230Y-104169801D01*
X207667998Y-104175468D01*
X207668000Y-104175468D01*
X207668002Y-104175468D01*
X207724673Y-104170509D01*
X207894692Y-104155635D01*
X208114496Y-104096739D01*
X208279195Y-104019937D01*
X208348273Y-104009446D01*
X208412057Y-104037966D01*
X208450296Y-104096442D01*
X208455600Y-104132320D01*
X208455599Y-118695246D01*
X208435914Y-118762285D01*
X208419280Y-118782927D01*
X193333917Y-133868290D01*
X193272594Y-133901775D01*
X193202902Y-133896791D01*
X193146969Y-133854919D01*
X193130811Y-133825917D01*
X193052393Y-133626112D01*
X192924959Y-133405388D01*
X192766050Y-133206123D01*
X192579217Y-133032768D01*
X192368634Y-132889195D01*
X192368630Y-132889193D01*
X192368627Y-132889191D01*
X192368626Y-132889190D01*
X192139006Y-132778612D01*
X192139008Y-132778612D01*
X191895466Y-132703489D01*
X191895462Y-132703488D01*
X191895458Y-132703487D01*
X191774231Y-132685214D01*
X191643440Y-132665500D01*
X191643435Y-132665500D01*
X191388565Y-132665500D01*
X191388559Y-132665500D01*
X191231609Y-132689157D01*
X191136542Y-132703487D01*
X191136538Y-132703488D01*
X191136539Y-132703488D01*
X191136533Y-132703489D01*
X190892992Y-132778612D01*
X190663373Y-132889190D01*
X190663372Y-132889191D01*
X190452782Y-133032768D01*
X190265952Y-133206121D01*
X190265950Y-133206123D01*
X190107041Y-133405388D01*
X189979608Y-133626109D01*
X189979606Y-133626112D01*
X189961445Y-133672384D01*
X189918627Y-133727596D01*
X189880615Y-133746154D01*
X189871236Y-133748879D01*
X189852179Y-133752825D01*
X189832311Y-133755334D01*
X189832309Y-133755335D01*
X189788984Y-133772488D01*
X189783457Y-133774380D01*
X189738710Y-133787381D01*
X189738709Y-133787382D01*
X189721467Y-133797579D01*
X189703999Y-133806137D01*
X189685369Y-133813513D01*
X189685367Y-133813514D01*
X189647676Y-133840898D01*
X189642794Y-133844105D01*
X189602679Y-133867830D01*
X189588508Y-133882000D01*
X189573723Y-133894628D01*
X189557512Y-133906407D01*
X189527809Y-133942310D01*
X189523877Y-133946631D01*
X184432328Y-139038181D01*
X184371005Y-139071666D01*
X184344647Y-139074500D01*
X159145828Y-139074500D01*
X159078789Y-139054815D01*
X159033034Y-139002011D01*
X159030411Y-138995829D01*
X159016393Y-138960112D01*
X158888959Y-138739388D01*
X158730050Y-138540123D01*
X158543217Y-138366768D01*
X158332634Y-138223195D01*
X158332630Y-138223193D01*
X158332627Y-138223191D01*
X158332626Y-138223190D01*
X158103006Y-138112612D01*
X158103008Y-138112612D01*
X157859466Y-138037489D01*
X157859462Y-138037488D01*
X157859458Y-138037487D01*
X157738231Y-138019214D01*
X157607440Y-137999500D01*
X157607435Y-137999500D01*
X157352565Y-137999500D01*
X157352559Y-137999500D01*
X157195609Y-138023157D01*
X157100542Y-138037487D01*
X157100538Y-138037488D01*
X157100539Y-138037488D01*
X157100533Y-138037489D01*
X156856992Y-138112612D01*
X156627373Y-138223190D01*
X156627372Y-138223191D01*
X156416782Y-138366768D01*
X156229952Y-138540121D01*
X156229950Y-138540123D01*
X156071041Y-138739388D01*
X155943608Y-138960109D01*
X155850492Y-139197362D01*
X155850490Y-139197369D01*
X155793777Y-139445845D01*
X155774732Y-139699995D01*
X155774732Y-139700004D01*
X155793777Y-139954154D01*
X155840667Y-140159594D01*
X155850492Y-140202637D01*
X155943607Y-140439888D01*
X156071041Y-140660612D01*
X156229950Y-140859877D01*
X156416783Y-141033232D01*
X156627366Y-141176805D01*
X156627371Y-141176807D01*
X156627372Y-141176808D01*
X156627373Y-141176809D01*
X156749328Y-141235538D01*
X156856992Y-141287387D01*
X156856993Y-141287387D01*
X156856996Y-141287389D01*
X157100542Y-141362513D01*
X157352565Y-141400500D01*
X157607435Y-141400500D01*
X157859458Y-141362513D01*
X158103004Y-141287389D01*
X158332634Y-141176805D01*
X158543217Y-141033232D01*
X158730050Y-140859877D01*
X158888959Y-140660612D01*
X159016393Y-140439888D01*
X159030400Y-140404196D01*
X159073215Y-140348985D01*
X159139085Y-140325683D01*
X159145828Y-140325500D01*
X184572357Y-140325500D01*
X184587977Y-140327224D01*
X184588004Y-140326939D01*
X184595760Y-140327671D01*
X184595767Y-140327673D01*
X184664914Y-140325500D01*
X184694450Y-140325500D01*
X184701328Y-140324630D01*
X184707141Y-140324172D01*
X184753727Y-140322709D01*
X184772969Y-140317117D01*
X184792012Y-140313174D01*
X184811892Y-140310664D01*
X184855222Y-140293507D01*
X184860746Y-140291617D01*
X184864496Y-140290527D01*
X184905490Y-140278618D01*
X184922729Y-140268422D01*
X184940203Y-140259862D01*
X184958827Y-140252488D01*
X184958827Y-140252487D01*
X184958832Y-140252486D01*
X184996549Y-140225082D01*
X185001405Y-140221892D01*
X185041520Y-140198170D01*
X185055689Y-140183999D01*
X185070479Y-140171368D01*
X185086687Y-140159594D01*
X185116399Y-140123676D01*
X185120312Y-140119376D01*
X189922873Y-135316816D01*
X189984194Y-135283333D01*
X190053886Y-135288317D01*
X190107498Y-135327185D01*
X190265950Y-135525877D01*
X190452783Y-135699232D01*
X190663366Y-135842805D01*
X190663371Y-135842807D01*
X190663372Y-135842808D01*
X190663373Y-135842809D01*
X190785328Y-135901538D01*
X190892992Y-135953387D01*
X190892993Y-135953387D01*
X190892996Y-135953389D01*
X190968290Y-135976614D01*
X191026549Y-136015185D01*
X191054707Y-136079129D01*
X191043823Y-136148146D01*
X191019421Y-136182786D01*
X180544028Y-146658181D01*
X180482705Y-146691666D01*
X180456347Y-146694500D01*
X172861828Y-146694500D01*
X172794789Y-146674815D01*
X172749034Y-146622011D01*
X172746411Y-146615829D01*
X172732393Y-146580112D01*
X172604959Y-146359388D01*
X172446050Y-146160123D01*
X172259217Y-145986768D01*
X172048634Y-145843195D01*
X172048630Y-145843193D01*
X172048627Y-145843191D01*
X172048626Y-145843190D01*
X171819006Y-145732612D01*
X171819008Y-145732612D01*
X171575466Y-145657489D01*
X171575462Y-145657488D01*
X171575458Y-145657487D01*
X171454231Y-145639214D01*
X171323440Y-145619500D01*
X171323435Y-145619500D01*
X171068565Y-145619500D01*
X171068559Y-145619500D01*
X170911609Y-145643157D01*
X170816542Y-145657487D01*
X170816538Y-145657488D01*
X170816539Y-145657488D01*
X170816533Y-145657489D01*
X170572992Y-145732612D01*
X170343373Y-145843190D01*
X170343372Y-145843191D01*
X170132782Y-145986768D01*
X169945952Y-146160121D01*
X169945950Y-146160123D01*
X169787041Y-146359388D01*
X169659609Y-146580107D01*
X169659607Y-146580111D01*
X169659607Y-146580112D01*
X169645599Y-146615803D01*
X169602785Y-146671015D01*
X169536915Y-146694317D01*
X169530172Y-146694500D01*
X148392452Y-146694500D01*
X148325413Y-146674815D01*
X148304771Y-146658181D01*
X136012595Y-134366004D01*
X169491233Y-134366004D01*
X169510273Y-134620079D01*
X169566968Y-134868477D01*
X169566973Y-134868494D01*
X169660058Y-135105671D01*
X169660057Y-135105671D01*
X169787457Y-135326332D01*
X169829452Y-135378993D01*
X170514590Y-134693855D01*
X170575913Y-134660370D01*
X170645604Y-134665354D01*
X170700645Y-134706049D01*
X170768074Y-134793924D01*
X170768075Y-134793925D01*
X170855948Y-134861353D01*
X170897150Y-134917781D01*
X170901305Y-134987527D01*
X170868142Y-135047409D01*
X170182813Y-135732737D01*
X170343623Y-135842375D01*
X170343624Y-135842376D01*
X170573176Y-135952921D01*
X170573174Y-135952921D01*
X170816652Y-136028024D01*
X170816658Y-136028026D01*
X171068595Y-136065999D01*
X171068604Y-136066000D01*
X171323396Y-136066000D01*
X171323404Y-136065999D01*
X171575341Y-136028026D01*
X171575347Y-136028024D01*
X171818824Y-135952921D01*
X172048381Y-135842373D01*
X172209185Y-135732737D01*
X171523856Y-135047409D01*
X171490371Y-134986086D01*
X171495355Y-134916395D01*
X171536049Y-134861353D01*
X171623925Y-134793925D01*
X171691354Y-134706048D01*
X171747779Y-134664848D01*
X171817525Y-134660693D01*
X171877409Y-134693856D01*
X172562545Y-135378993D01*
X172604545Y-135326327D01*
X172731941Y-135105671D01*
X172825026Y-134868494D01*
X172825031Y-134868477D01*
X172881726Y-134620079D01*
X172900767Y-134366004D01*
X172900767Y-134365995D01*
X172881726Y-134111920D01*
X172825031Y-133863522D01*
X172825026Y-133863505D01*
X172731941Y-133626328D01*
X172731942Y-133626328D01*
X172604544Y-133405671D01*
X172562545Y-133353005D01*
X171877409Y-134038142D01*
X171816086Y-134071627D01*
X171746394Y-134066643D01*
X171691353Y-134025948D01*
X171623925Y-133938075D01*
X171582653Y-133906406D01*
X171536049Y-133870645D01*
X171494847Y-133814219D01*
X171490692Y-133744473D01*
X171523855Y-133684590D01*
X172209185Y-132999261D01*
X172048377Y-132889624D01*
X172048376Y-132889623D01*
X171818823Y-132779078D01*
X171818825Y-132779078D01*
X171575347Y-132703975D01*
X171575341Y-132703973D01*
X171323404Y-132666000D01*
X171068595Y-132666000D01*
X170816658Y-132703973D01*
X170816652Y-132703975D01*
X170573175Y-132779078D01*
X170343624Y-132889623D01*
X170343616Y-132889628D01*
X170182813Y-132999261D01*
X170868143Y-133684590D01*
X170901628Y-133745913D01*
X170896644Y-133815604D01*
X170855949Y-133870646D01*
X170768075Y-133938074D01*
X170768074Y-133938075D01*
X170700646Y-134025949D01*
X170644218Y-134067151D01*
X170574472Y-134071306D01*
X170514590Y-134038143D01*
X169829453Y-133353006D01*
X169787455Y-133405670D01*
X169660058Y-133626328D01*
X169566973Y-133863505D01*
X169566968Y-133863522D01*
X169510273Y-134111920D01*
X169491233Y-134365995D01*
X169491233Y-134366004D01*
X136012595Y-134366004D01*
X130958739Y-129312148D01*
X130925254Y-129250825D01*
X130923063Y-129211860D01*
X130925498Y-129188025D01*
X130925500Y-129188009D01*
X130925499Y-128485499D01*
X130945183Y-128418461D01*
X130997987Y-128372706D01*
X131049499Y-128361500D01*
X134593557Y-128361500D01*
X134609177Y-128363224D01*
X134609204Y-128362939D01*
X134616960Y-128363671D01*
X134616967Y-128363673D01*
X134686114Y-128361500D01*
X134715650Y-128361500D01*
X134722528Y-128360630D01*
X134728341Y-128360172D01*
X134774927Y-128358709D01*
X134794169Y-128353117D01*
X134813212Y-128349174D01*
X134833092Y-128346664D01*
X134876422Y-128329507D01*
X134881946Y-128327617D01*
X134885696Y-128326527D01*
X134926690Y-128314618D01*
X134943929Y-128304422D01*
X134961403Y-128295862D01*
X134980027Y-128288488D01*
X134980027Y-128288487D01*
X134980032Y-128288486D01*
X135017749Y-128261082D01*
X135022605Y-128257892D01*
X135062720Y-128234170D01*
X135076889Y-128219999D01*
X135091679Y-128207368D01*
X135107887Y-128195594D01*
X135137599Y-128159676D01*
X135141512Y-128155376D01*
X136321871Y-126975019D01*
X136383195Y-126941534D01*
X136409553Y-126938700D01*
X147676809Y-126938700D01*
X147743848Y-126958385D01*
X147789603Y-127011189D01*
X147799547Y-127080347D01*
X147770522Y-127143903D01*
X147751121Y-127161966D01*
X147742452Y-127168455D01*
X147656206Y-127283664D01*
X147656202Y-127283671D01*
X147605908Y-127418517D01*
X147599501Y-127478116D01*
X147599501Y-127478123D01*
X147599500Y-127478135D01*
X147599500Y-128573870D01*
X147599501Y-128573876D01*
X147605908Y-128633483D01*
X147656202Y-128768328D01*
X147656204Y-128768331D01*
X147662231Y-128776382D01*
X147686648Y-128841846D01*
X147673105Y-128905470D01*
X147673518Y-128905641D01*
X147672595Y-128907869D01*
X147672324Y-128909143D01*
X147671188Y-128911267D01*
X147613975Y-129099870D01*
X147594659Y-129296000D01*
X147613975Y-129492129D01*
X147671188Y-129680733D01*
X147764086Y-129854532D01*
X147767473Y-129859601D01*
X147765955Y-129860615D01*
X147789918Y-129917042D01*
X147778124Y-129985909D01*
X147767515Y-130002420D01*
X147767893Y-130002673D01*
X147764505Y-130007742D01*
X147671652Y-130181458D01*
X147630839Y-130315999D01*
X147630840Y-130316000D01*
X148168045Y-130316000D01*
X148235084Y-130335685D01*
X148280839Y-130388489D01*
X148290783Y-130457647D01*
X148284568Y-130482404D01*
X148275000Y-130508694D01*
X148275000Y-130623306D01*
X148284567Y-130649592D01*
X148288998Y-130719319D01*
X148255027Y-130780375D01*
X148193440Y-130813372D01*
X148168045Y-130816000D01*
X147630840Y-130816000D01*
X147671652Y-130950541D01*
X147764503Y-131124253D01*
X147764507Y-131124260D01*
X147889471Y-131276528D01*
X148041739Y-131401491D01*
X148215465Y-131494349D01*
X148350000Y-131535159D01*
X148350000Y-130999709D01*
X148369685Y-130932670D01*
X148422489Y-130886915D01*
X148491647Y-130876971D01*
X148495481Y-130877584D01*
X148571564Y-130891000D01*
X148571568Y-130891000D01*
X148628432Y-130891000D01*
X148628436Y-130891000D01*
X148704469Y-130877593D01*
X148773906Y-130885337D01*
X148828136Y-130929393D01*
X148849938Y-130995774D01*
X148850000Y-130999709D01*
X148850000Y-131535159D01*
X148984534Y-131494349D01*
X149158260Y-131401491D01*
X149310528Y-131276528D01*
X149435492Y-131124260D01*
X149435496Y-131124253D01*
X149528347Y-130950541D01*
X149569160Y-130816000D01*
X149031955Y-130816000D01*
X148964916Y-130796315D01*
X148919161Y-130743511D01*
X148909217Y-130674353D01*
X148915431Y-130649595D01*
X148925000Y-130623306D01*
X148925000Y-130508694D01*
X148915432Y-130482407D01*
X148911002Y-130412681D01*
X148944973Y-130351625D01*
X149006560Y-130318628D01*
X149031955Y-130316000D01*
X149569160Y-130316000D01*
X149569160Y-130315999D01*
X149528347Y-130181458D01*
X149435496Y-130007746D01*
X149432110Y-130002678D01*
X149433784Y-130001559D01*
X149410081Y-129945746D01*
X149421874Y-129876879D01*
X149432839Y-129859818D01*
X149432523Y-129859607D01*
X149435904Y-129854544D01*
X149435910Y-129854538D01*
X149528814Y-129680727D01*
X149586024Y-129492132D01*
X149605341Y-129296000D01*
X149586024Y-129099868D01*
X149528814Y-128911273D01*
X149527677Y-128909146D01*
X149527418Y-128907904D01*
X149526483Y-128905645D01*
X149526911Y-128905467D01*
X149513435Y-128840746D01*
X149537771Y-128776379D01*
X149543796Y-128768331D01*
X149594091Y-128633483D01*
X149600500Y-128573873D01*
X149600499Y-127478128D01*
X149594091Y-127418517D01*
X149543796Y-127283669D01*
X149543795Y-127283668D01*
X149543793Y-127283664D01*
X149457547Y-127168455D01*
X149448879Y-127161966D01*
X149407008Y-127106031D01*
X149402025Y-127036340D01*
X149435511Y-126975017D01*
X149496835Y-126941533D01*
X149523191Y-126938700D01*
X170515757Y-126938700D01*
X170531377Y-126940424D01*
X170531404Y-126940139D01*
X170539160Y-126940871D01*
X170539167Y-126940873D01*
X170608314Y-126938700D01*
X170637850Y-126938700D01*
X170644728Y-126937830D01*
X170650541Y-126937372D01*
X170697127Y-126935909D01*
X170716369Y-126930317D01*
X170735412Y-126926374D01*
X170755292Y-126923864D01*
X170798622Y-126906707D01*
X170804146Y-126904817D01*
X170807896Y-126903727D01*
X170848890Y-126891818D01*
X170866129Y-126881622D01*
X170883603Y-126873062D01*
X170902227Y-126865688D01*
X170902227Y-126865687D01*
X170902232Y-126865686D01*
X170939949Y-126838282D01*
X170944805Y-126835092D01*
X170984920Y-126811370D01*
X170999089Y-126797199D01*
X171013879Y-126784568D01*
X171030087Y-126772794D01*
X171059799Y-126736876D01*
X171063712Y-126732576D01*
X193940228Y-103856061D01*
X194001547Y-103822579D01*
X194071239Y-103827563D01*
X194115586Y-103856064D01*
X194129179Y-103869657D01*
X194315517Y-104000134D01*
X194521673Y-104096265D01*
X194521682Y-104096269D01*
X194717999Y-104148872D01*
X194718000Y-104148871D01*
X194718000Y-103380575D01*
X194737685Y-103313536D01*
X194790489Y-103267781D01*
X194859647Y-103257837D01*
X194861331Y-103258091D01*
G37*
%TD.AperFunction*%
%TA.AperFunction,Conductor*%
G36*
X128254195Y-126119885D02*
G01*
X128299950Y-126172689D01*
X128309894Y-126241847D01*
X128294543Y-126286200D01*
X128269855Y-126328960D01*
X128269852Y-126328967D01*
X128201144Y-126527482D01*
X128201144Y-126527484D01*
X128199632Y-126538000D01*
X129061808Y-126538000D01*
X129128847Y-126557685D01*
X129174602Y-126610489D01*
X129184546Y-126679647D01*
X129182013Y-126692441D01*
X129181448Y-126694670D01*
X129171113Y-126819392D01*
X129171113Y-126819395D01*
X129171114Y-126819395D01*
X129187362Y-126883559D01*
X129187363Y-126883560D01*
X129184738Y-126953381D01*
X129144781Y-127010698D01*
X129080180Y-127037314D01*
X129067157Y-127038000D01*
X128203742Y-127038000D01*
X128183961Y-127063153D01*
X128127046Y-127103681D01*
X128086491Y-127110500D01*
X105001552Y-127110500D01*
X104934513Y-127090815D01*
X104888758Y-127038011D01*
X104878814Y-126968853D01*
X104907839Y-126905297D01*
X104913871Y-126898819D01*
X105676171Y-126136519D01*
X105737494Y-126103034D01*
X105763852Y-126100200D01*
X128187156Y-126100200D01*
X128254195Y-126119885D01*
G37*
%TD.AperFunction*%
%TA.AperFunction,Conductor*%
G36*
X135195187Y-126119885D02*
G01*
X135240942Y-126172689D01*
X135250886Y-126241847D01*
X135221861Y-126305403D01*
X135215831Y-126311877D01*
X134833039Y-126694670D01*
X134453528Y-127074181D01*
X134392205Y-127107666D01*
X134365847Y-127110500D01*
X131019818Y-127110500D01*
X130952779Y-127090815D01*
X130926104Y-127067702D01*
X130900368Y-127038000D01*
X130038192Y-127038000D01*
X129971153Y-127018315D01*
X129925398Y-126965511D01*
X129915454Y-126896353D01*
X129917987Y-126883559D01*
X129918551Y-126881329D01*
X129918939Y-126876653D01*
X129928886Y-126756605D01*
X129912637Y-126692438D01*
X129915262Y-126622619D01*
X129955219Y-126565302D01*
X130019820Y-126538686D01*
X130032843Y-126538000D01*
X130896257Y-126538000D01*
X130869229Y-126426590D01*
X130800327Y-126275711D01*
X130790384Y-126206552D01*
X130819410Y-126142997D01*
X130878188Y-126105223D01*
X130913122Y-126100200D01*
X135128148Y-126100200D01*
X135195187Y-126119885D01*
G37*
%TD.AperFunction*%
%TA.AperFunction,Conductor*%
G36*
X233622539Y-71140185D02*
G01*
X233668294Y-71192989D01*
X233679500Y-71244500D01*
X233679500Y-157355500D01*
X233659815Y-157422539D01*
X233607011Y-157468294D01*
X233555500Y-157479500D01*
X83944500Y-157479500D01*
X83877461Y-157459815D01*
X83831706Y-157407011D01*
X83820500Y-157355500D01*
X83820500Y-150330000D01*
X133389402Y-150330000D01*
X133409738Y-150523483D01*
X133469856Y-150708510D01*
X133469857Y-150708511D01*
X133550159Y-150847597D01*
X133567130Y-150876992D01*
X133612476Y-150927354D01*
X133697302Y-151021564D01*
X133697305Y-151021566D01*
X133697308Y-151021569D01*
X133815352Y-151107333D01*
X133854702Y-151135923D01*
X133922926Y-151166297D01*
X134032429Y-151215051D01*
X134222726Y-151255500D01*
X134417274Y-151255500D01*
X134607571Y-151215051D01*
X134785299Y-151135922D01*
X134942692Y-151021569D01*
X135072870Y-150876992D01*
X135170144Y-150708508D01*
X135230262Y-150523482D01*
X135250598Y-150330000D01*
X135230262Y-150136518D01*
X135200150Y-150043844D01*
X135198156Y-149974006D01*
X135201895Y-149962210D01*
X135239091Y-149862483D01*
X135245500Y-149802873D01*
X135245499Y-148857128D01*
X135239091Y-148797517D01*
X135238825Y-148796805D01*
X135188797Y-148662671D01*
X135188793Y-148662664D01*
X135102547Y-148547455D01*
X135102544Y-148547452D01*
X134987335Y-148461206D01*
X134987328Y-148461202D01*
X134852482Y-148410908D01*
X134852483Y-148410908D01*
X134792883Y-148404501D01*
X134792881Y-148404500D01*
X134792873Y-148404500D01*
X134792864Y-148404500D01*
X133847129Y-148404500D01*
X133847123Y-148404501D01*
X133787516Y-148410908D01*
X133652671Y-148461202D01*
X133652664Y-148461206D01*
X133537455Y-148547452D01*
X133537452Y-148547455D01*
X133451206Y-148662664D01*
X133451202Y-148662671D01*
X133400908Y-148797517D01*
X133394501Y-148857116D01*
X133394501Y-148857123D01*
X133394500Y-148857135D01*
X133394500Y-149802870D01*
X133394501Y-149802876D01*
X133400908Y-149862483D01*
X133438099Y-149962195D01*
X133443083Y-150031887D01*
X133439848Y-150043845D01*
X133409740Y-150136511D01*
X133409738Y-150136516D01*
X133389402Y-150330000D01*
X83820500Y-150330000D01*
X83820500Y-132552844D01*
X97675000Y-132552844D01*
X97681401Y-132612372D01*
X97681403Y-132612379D01*
X97731645Y-132747086D01*
X97731649Y-132747093D01*
X97817809Y-132862187D01*
X97817812Y-132862190D01*
X97932906Y-132948350D01*
X97932913Y-132948354D01*
X98067620Y-132998596D01*
X98067627Y-132998598D01*
X98127155Y-133004999D01*
X98127172Y-133005000D01*
X98350000Y-133005000D01*
X98350000Y-132436264D01*
X98369685Y-132369225D01*
X98422489Y-132323470D01*
X98491647Y-132313526D01*
X98498192Y-132314647D01*
X98575373Y-132330000D01*
X98618010Y-132330000D01*
X98685049Y-132349685D01*
X98730804Y-132402489D01*
X98735941Y-132415682D01*
X98749856Y-132458509D01*
X98749857Y-132458511D01*
X98833387Y-132603189D01*
X98850000Y-132665189D01*
X98850000Y-133005000D01*
X99072828Y-133005000D01*
X99072844Y-133004999D01*
X99132372Y-132998598D01*
X99132383Y-132998595D01*
X99223874Y-132964471D01*
X99293565Y-132959486D01*
X99306068Y-132963585D01*
X99306245Y-132963042D01*
X99312428Y-132965050D01*
X99312429Y-132965051D01*
X99502726Y-133005500D01*
X99697274Y-133005500D01*
X99887566Y-132965052D01*
X99887565Y-132965052D01*
X99887571Y-132965051D01*
X100049569Y-132892925D01*
X100118815Y-132883642D01*
X100150425Y-132892922D01*
X100312429Y-132965051D01*
X100312432Y-132965051D01*
X100312433Y-132965052D01*
X100502726Y-133005500D01*
X100697274Y-133005500D01*
X100887566Y-132965052D01*
X100887565Y-132965052D01*
X100887571Y-132965051D01*
X101049569Y-132892925D01*
X101118815Y-132883642D01*
X101150425Y-132892922D01*
X101312429Y-132965051D01*
X101312432Y-132965051D01*
X101312433Y-132965052D01*
X101502726Y-133005500D01*
X101697274Y-133005500D01*
X101887571Y-132965051D01*
X102065299Y-132885922D01*
X102222692Y-132771569D01*
X102352870Y-132626992D01*
X102450144Y-132458508D01*
X102510262Y-132273482D01*
X102530598Y-132080000D01*
X102510262Y-131886518D01*
X102450144Y-131701492D01*
X102450143Y-131701491D01*
X102450143Y-131701489D01*
X102450142Y-131701488D01*
X102416202Y-131642703D01*
X102352870Y-131533008D01*
X102301882Y-131476381D01*
X102222697Y-131388435D01*
X102222694Y-131388433D01*
X102222693Y-131388432D01*
X102222692Y-131388431D01*
X102071899Y-131278873D01*
X102065297Y-131274076D01*
X101925071Y-131211645D01*
X101887571Y-131194949D01*
X101887569Y-131194948D01*
X101887568Y-131194948D01*
X101881391Y-131192941D01*
X101881835Y-131191572D01*
X101826945Y-131161936D01*
X101793170Y-131100772D01*
X101797824Y-131031058D01*
X101826527Y-130986162D01*
X104414870Y-128397819D01*
X104476194Y-128364334D01*
X104502552Y-128361500D01*
X128050500Y-128361500D01*
X128117539Y-128381185D01*
X128163294Y-128433989D01*
X128174500Y-128485500D01*
X128174500Y-129188001D01*
X128174501Y-129188019D01*
X128185000Y-129290796D01*
X128185001Y-129290799D01*
X128240185Y-129457331D01*
X128240186Y-129457334D01*
X128332288Y-129606656D01*
X128456344Y-129730712D01*
X128605666Y-129822814D01*
X128772203Y-129877999D01*
X128874991Y-129888500D01*
X129714547Y-129888499D01*
X129781586Y-129908183D01*
X129802228Y-129924818D01*
X137729568Y-137852158D01*
X137763053Y-137913481D01*
X137758069Y-137983173D01*
X137716197Y-138039106D01*
X137650733Y-138063523D01*
X137605338Y-138058330D01*
X137539351Y-138037976D01*
X137539341Y-138037973D01*
X137287404Y-138000000D01*
X137032595Y-138000000D01*
X136780658Y-138037973D01*
X136780652Y-138037975D01*
X136537175Y-138113078D01*
X136307624Y-138223623D01*
X136307616Y-138223628D01*
X136146813Y-138333261D01*
X136832143Y-139018590D01*
X136865628Y-139079913D01*
X136860644Y-139149604D01*
X136819949Y-139204646D01*
X136732075Y-139272074D01*
X136732074Y-139272075D01*
X136664646Y-139359949D01*
X136608218Y-139401151D01*
X136538472Y-139405306D01*
X136478590Y-139372143D01*
X135793453Y-138687006D01*
X135751455Y-138739670D01*
X135624058Y-138960328D01*
X135530973Y-139197505D01*
X135530968Y-139197522D01*
X135474273Y-139445920D01*
X135455233Y-139699995D01*
X135455233Y-139700004D01*
X135474273Y-139954079D01*
X135530968Y-140202477D01*
X135530973Y-140202494D01*
X135624058Y-140439671D01*
X135624057Y-140439671D01*
X135751457Y-140660332D01*
X135793452Y-140712993D01*
X136478590Y-140027855D01*
X136539913Y-139994370D01*
X136609604Y-139999354D01*
X136664645Y-140040049D01*
X136725507Y-140119365D01*
X136732075Y-140127925D01*
X136819948Y-140195353D01*
X136861150Y-140251781D01*
X136865305Y-140321527D01*
X136832142Y-140381409D01*
X136146813Y-141066737D01*
X136307623Y-141176375D01*
X136307624Y-141176376D01*
X136537176Y-141286921D01*
X136537174Y-141286921D01*
X136780652Y-141362024D01*
X136780658Y-141362026D01*
X137032595Y-141399999D01*
X137032604Y-141400000D01*
X137287396Y-141400000D01*
X137287404Y-141399999D01*
X137539341Y-141362026D01*
X137539347Y-141362024D01*
X137782824Y-141286921D01*
X138012381Y-141176373D01*
X138173185Y-141066737D01*
X137487856Y-140381409D01*
X137454371Y-140320086D01*
X137459355Y-140250395D01*
X137500049Y-140195353D01*
X137587925Y-140127925D01*
X137655354Y-140040048D01*
X137711779Y-139998848D01*
X137781525Y-139994693D01*
X137841409Y-140027856D01*
X138526545Y-140712993D01*
X138568545Y-140660327D01*
X138695941Y-140439671D01*
X138789026Y-140202494D01*
X138789031Y-140202477D01*
X138845726Y-139954079D01*
X138864767Y-139700004D01*
X138864767Y-139699995D01*
X138845726Y-139445920D01*
X138800254Y-139246690D01*
X138804527Y-139176951D01*
X138845826Y-139120593D01*
X138911038Y-139095510D01*
X138979459Y-139109664D01*
X139008826Y-139131416D01*
X147581194Y-147703784D01*
X147591019Y-147716048D01*
X147591240Y-147715866D01*
X147596210Y-147721873D01*
X147596213Y-147721876D01*
X147596214Y-147721877D01*
X147646651Y-147769241D01*
X147667530Y-147790120D01*
X147673004Y-147794366D01*
X147677442Y-147798156D01*
X147711418Y-147830062D01*
X147711422Y-147830064D01*
X147728973Y-147839713D01*
X147745231Y-147850392D01*
X147761064Y-147862674D01*
X147783015Y-147872172D01*
X147803837Y-147881183D01*
X147809081Y-147883752D01*
X147849908Y-147906197D01*
X147869312Y-147911179D01*
X147887710Y-147917478D01*
X147906105Y-147925438D01*
X147952129Y-147932726D01*
X147957832Y-147933907D01*
X148002981Y-147945500D01*
X148023016Y-147945500D01*
X148042413Y-147947026D01*
X148062196Y-147950160D01*
X148108583Y-147945775D01*
X148114422Y-147945500D01*
X169530172Y-147945500D01*
X169597211Y-147965185D01*
X169642966Y-148017989D01*
X169645588Y-148024170D01*
X169659607Y-148059888D01*
X169787041Y-148280612D01*
X169945950Y-148479877D01*
X170132783Y-148653232D01*
X170343366Y-148796805D01*
X170343371Y-148796807D01*
X170343372Y-148796808D01*
X170343373Y-148796809D01*
X170465328Y-148855538D01*
X170572992Y-148907387D01*
X170572993Y-148907387D01*
X170572996Y-148907389D01*
X170816542Y-148982513D01*
X171068565Y-149020500D01*
X171323435Y-149020500D01*
X171575458Y-148982513D01*
X171819004Y-148907389D01*
X172048634Y-148796805D01*
X172259217Y-148653232D01*
X172446050Y-148479877D01*
X172604959Y-148280612D01*
X172732393Y-148059888D01*
X172746400Y-148024196D01*
X172789215Y-147968985D01*
X172855085Y-147945683D01*
X172861828Y-147945500D01*
X180684057Y-147945500D01*
X180699677Y-147947224D01*
X180699704Y-147946939D01*
X180707460Y-147947671D01*
X180707467Y-147947673D01*
X180776614Y-147945500D01*
X180806150Y-147945500D01*
X180813028Y-147944630D01*
X180818841Y-147944172D01*
X180865427Y-147942709D01*
X180884669Y-147937117D01*
X180903712Y-147933174D01*
X180923592Y-147930664D01*
X180966922Y-147913507D01*
X180972446Y-147911617D01*
X180976196Y-147910527D01*
X181017190Y-147898618D01*
X181034429Y-147888422D01*
X181051903Y-147879862D01*
X181070527Y-147872488D01*
X181070527Y-147872487D01*
X181070532Y-147872486D01*
X181108249Y-147845082D01*
X181113105Y-147841892D01*
X181153220Y-147818170D01*
X181167389Y-147803999D01*
X181182179Y-147791368D01*
X181198387Y-147779594D01*
X181228099Y-147743676D01*
X181232012Y-147739376D01*
X181651384Y-147320004D01*
X189810732Y-147320004D01*
X189829777Y-147574154D01*
X189880448Y-147796159D01*
X189886492Y-147822637D01*
X189979607Y-148059888D01*
X190107041Y-148280612D01*
X190265950Y-148479877D01*
X190452783Y-148653232D01*
X190663366Y-148796805D01*
X190663371Y-148796807D01*
X190663372Y-148796808D01*
X190663373Y-148796809D01*
X190785328Y-148855538D01*
X190892992Y-148907387D01*
X190892993Y-148907387D01*
X190892996Y-148907389D01*
X191136542Y-148982513D01*
X191388565Y-149020500D01*
X191643435Y-149020500D01*
X191895458Y-148982513D01*
X192139004Y-148907389D01*
X192368634Y-148796805D01*
X192579217Y-148653232D01*
X192766050Y-148479877D01*
X192924959Y-148280612D01*
X193052393Y-148059888D01*
X193145508Y-147822637D01*
X193202222Y-147574157D01*
X193221268Y-147320000D01*
X193202222Y-147065843D01*
X193145508Y-146817363D01*
X193052393Y-146580112D01*
X192924959Y-146359388D01*
X192766050Y-146160123D01*
X192579217Y-145986768D01*
X192368634Y-145843195D01*
X192368630Y-145843193D01*
X192368627Y-145843191D01*
X192368626Y-145843190D01*
X192139006Y-145732612D01*
X192139008Y-145732612D01*
X191895466Y-145657489D01*
X191895462Y-145657488D01*
X191895458Y-145657487D01*
X191774231Y-145639214D01*
X191643440Y-145619500D01*
X191643435Y-145619500D01*
X191388565Y-145619500D01*
X191388559Y-145619500D01*
X191231609Y-145643157D01*
X191136542Y-145657487D01*
X191136538Y-145657488D01*
X191136539Y-145657488D01*
X191136533Y-145657489D01*
X190892992Y-145732612D01*
X190663373Y-145843190D01*
X190663372Y-145843191D01*
X190452782Y-145986768D01*
X190265952Y-146160121D01*
X190265950Y-146160123D01*
X190107041Y-146359388D01*
X189979608Y-146580109D01*
X189886492Y-146817362D01*
X189886490Y-146817369D01*
X189829777Y-147065845D01*
X189810732Y-147319995D01*
X189810732Y-147320004D01*
X181651384Y-147320004D01*
X209464888Y-119506501D01*
X209477142Y-119496686D01*
X209476959Y-119496464D01*
X209482966Y-119491492D01*
X209482977Y-119491486D01*
X209517720Y-119454488D01*
X209530327Y-119441064D01*
X209540771Y-119430618D01*
X209551220Y-119420171D01*
X209555479Y-119414678D01*
X209559252Y-119410261D01*
X209591162Y-119376282D01*
X209600815Y-119358720D01*
X209611489Y-119342470D01*
X209623773Y-119326636D01*
X209642280Y-119283867D01*
X209644849Y-119278624D01*
X209657364Y-119255860D01*
X209667297Y-119237792D01*
X209672277Y-119218391D01*
X209678578Y-119199988D01*
X209686538Y-119181596D01*
X209693830Y-119135549D01*
X209695011Y-119129852D01*
X209706600Y-119084719D01*
X209706600Y-119064683D01*
X209708127Y-119045282D01*
X209711260Y-119025504D01*
X209706875Y-118979115D01*
X209706600Y-118973277D01*
X209706600Y-104243627D01*
X209726285Y-104176588D01*
X209779089Y-104130833D01*
X209848247Y-104120889D01*
X209862683Y-104123849D01*
X209981308Y-104155635D01*
X210143230Y-104169801D01*
X210207998Y-104175468D01*
X210208000Y-104175468D01*
X210208002Y-104175468D01*
X210264673Y-104170509D01*
X210434692Y-104155635D01*
X210654496Y-104096739D01*
X210860734Y-104000568D01*
X211047139Y-103870047D01*
X211208047Y-103709139D01*
X211338568Y-103522734D01*
X211434739Y-103316496D01*
X211493635Y-103096692D01*
X211513468Y-102870000D01*
X211493635Y-102643308D01*
X211434739Y-102423504D01*
X211338568Y-102217266D01*
X211208047Y-102030861D01*
X211094116Y-101916930D01*
X211060633Y-101855610D01*
X211065617Y-101785918D01*
X211094116Y-101741572D01*
X223151886Y-89683802D01*
X223164148Y-89673980D01*
X223163965Y-89673759D01*
X223169967Y-89668792D01*
X223169977Y-89668786D01*
X223217341Y-89618348D01*
X223238220Y-89597470D01*
X223242473Y-89591986D01*
X223246250Y-89587563D01*
X223278162Y-89553582D01*
X223287814Y-89536023D01*
X223298489Y-89519772D01*
X223310774Y-89503936D01*
X223329286Y-89461152D01*
X223331842Y-89455935D01*
X223354297Y-89415092D01*
X223359280Y-89395680D01*
X223365577Y-89377291D01*
X223373538Y-89358895D01*
X223380829Y-89312853D01*
X223382006Y-89307166D01*
X223393600Y-89262019D01*
X223393599Y-89241986D01*
X223395127Y-89222583D01*
X223398259Y-89202808D01*
X223398260Y-89202806D01*
X223398239Y-89202589D01*
X223393875Y-89156415D01*
X223393600Y-89150577D01*
X223393600Y-84654000D01*
X223413285Y-84586961D01*
X223466089Y-84541206D01*
X223517600Y-84530000D01*
X223544626Y-84530000D01*
X223621808Y-84514647D01*
X223691400Y-84520874D01*
X223746577Y-84563736D01*
X223769822Y-84629626D01*
X223770000Y-84636264D01*
X223769999Y-85172524D01*
X223770000Y-85172524D01*
X223807412Y-85164573D01*
X223985049Y-85085484D01*
X224142357Y-84971192D01*
X224142360Y-84971190D01*
X224272463Y-84826694D01*
X224369682Y-84658307D01*
X224369683Y-84658306D01*
X224411372Y-84530000D01*
X223876265Y-84530000D01*
X223809226Y-84510315D01*
X223763471Y-84457511D01*
X223753527Y-84388353D01*
X223754647Y-84381809D01*
X223759062Y-84359608D01*
X223774898Y-84280000D01*
X223774897Y-84279998D01*
X223774898Y-84279997D01*
X223774898Y-84267787D01*
X223777416Y-84267787D01*
X223782102Y-84215361D01*
X223824958Y-84160179D01*
X223847063Y-84147468D01*
X223985295Y-84085924D01*
X223985295Y-84085923D01*
X223985299Y-84085922D01*
X224029673Y-84053681D01*
X224095480Y-84030202D01*
X224102559Y-84030000D01*
X224411372Y-84030000D01*
X224411371Y-84029999D01*
X224369684Y-83901697D01*
X224335507Y-83842500D01*
X224319034Y-83774600D01*
X224335506Y-83718502D01*
X224370144Y-83658508D01*
X224430262Y-83473482D01*
X224450598Y-83280000D01*
X224430262Y-83086518D01*
X224370144Y-82901492D01*
X224335794Y-82841997D01*
X224319323Y-82774098D01*
X224335797Y-82717998D01*
X224341908Y-82707412D01*
X224370144Y-82658508D01*
X224430262Y-82473482D01*
X224450598Y-82280000D01*
X224430262Y-82086518D01*
X224400150Y-81993844D01*
X224398156Y-81924006D01*
X224401895Y-81912210D01*
X224439091Y-81812483D01*
X224445500Y-81752873D01*
X224445499Y-80807128D01*
X224439091Y-80747517D01*
X224431630Y-80727514D01*
X224388797Y-80612671D01*
X224388793Y-80612664D01*
X224302547Y-80497455D01*
X224302544Y-80497452D01*
X224187335Y-80411206D01*
X224187328Y-80411202D01*
X224052482Y-80360908D01*
X224052483Y-80360908D01*
X223992883Y-80354501D01*
X223992881Y-80354500D01*
X223992873Y-80354500D01*
X223992864Y-80354500D01*
X223047129Y-80354500D01*
X223047123Y-80354501D01*
X222987516Y-80360908D01*
X222852671Y-80411202D01*
X222852664Y-80411206D01*
X222737456Y-80497452D01*
X222737455Y-80497453D01*
X222737454Y-80497454D01*
X222704105Y-80542003D01*
X222657087Y-80604811D01*
X222601153Y-80646682D01*
X222557820Y-80654500D01*
X208457337Y-80654500D01*
X208441720Y-80652776D01*
X208441693Y-80653062D01*
X208433931Y-80652327D01*
X208364803Y-80654500D01*
X208335250Y-80654500D01*
X208334529Y-80654590D01*
X208328357Y-80655369D01*
X208322545Y-80655826D01*
X208275972Y-80657290D01*
X208275969Y-80657291D01*
X208256726Y-80662881D01*
X208237683Y-80666825D01*
X208217804Y-80669336D01*
X208217803Y-80669337D01*
X208174478Y-80686490D01*
X208168952Y-80688382D01*
X208124208Y-80701383D01*
X208124204Y-80701385D01*
X208106965Y-80711580D01*
X208089498Y-80720137D01*
X208070869Y-80727512D01*
X208070867Y-80727513D01*
X208033164Y-80754906D01*
X208028282Y-80758112D01*
X207988180Y-80781828D01*
X207974008Y-80796000D01*
X207959223Y-80808628D01*
X207943012Y-80820407D01*
X207913309Y-80856310D01*
X207909377Y-80860631D01*
X194843725Y-93926282D01*
X194782402Y-93959767D01*
X194766856Y-93962129D01*
X194741307Y-93964365D01*
X194521511Y-94023258D01*
X194521502Y-94023261D01*
X194315267Y-94119431D01*
X194315265Y-94119432D01*
X194128866Y-94249948D01*
X194124718Y-94253430D01*
X194123289Y-94251728D01*
X194070300Y-94280628D01*
X194000611Y-94275609D01*
X193956321Y-94247130D01*
X186117403Y-86408212D01*
X186107580Y-86395950D01*
X186107359Y-86396134D01*
X186102386Y-86390123D01*
X186071744Y-86361348D01*
X186051964Y-86342773D01*
X186041519Y-86332328D01*
X186031075Y-86321883D01*
X186025586Y-86317625D01*
X186021161Y-86313847D01*
X185987182Y-86281938D01*
X185987180Y-86281936D01*
X185987177Y-86281935D01*
X185969629Y-86272288D01*
X185953363Y-86261604D01*
X185947964Y-86257416D01*
X185937536Y-86249327D01*
X185937535Y-86249326D01*
X185937533Y-86249325D01*
X185894768Y-86230818D01*
X185889522Y-86228248D01*
X185848693Y-86205803D01*
X185848692Y-86205802D01*
X185829293Y-86200822D01*
X185810881Y-86194518D01*
X185792498Y-86186562D01*
X185792492Y-86186560D01*
X185746474Y-86179272D01*
X185740752Y-86178087D01*
X185695621Y-86166500D01*
X185695619Y-86166500D01*
X185675584Y-86166500D01*
X185656186Y-86164973D01*
X185648762Y-86163797D01*
X185636405Y-86161840D01*
X185636404Y-86161840D01*
X185590016Y-86166225D01*
X185584178Y-86166500D01*
X159256116Y-86166500D01*
X159189077Y-86146815D01*
X159143322Y-86094011D01*
X159142560Y-86092309D01*
X159124257Y-86050583D01*
X159124255Y-86050578D01*
X158992551Y-85848990D01*
X158829463Y-85671829D01*
X158672505Y-85549664D01*
X158639441Y-85523929D01*
X158427665Y-85409321D01*
X158427656Y-85409318D01*
X158199916Y-85331134D01*
X158000800Y-85297908D01*
X157962399Y-85291500D01*
X157721601Y-85291500D01*
X157683200Y-85297908D01*
X157484083Y-85331134D01*
X157256343Y-85409318D01*
X157256334Y-85409321D01*
X157044558Y-85523929D01*
X156948195Y-85598932D01*
X156854537Y-85671829D01*
X156854534Y-85671831D01*
X156854534Y-85671832D01*
X156691450Y-85848988D01*
X156691446Y-85848994D01*
X156675507Y-85873389D01*
X156622359Y-85918744D01*
X156553127Y-85928165D01*
X156489793Y-85898661D01*
X156467892Y-85873385D01*
X156452154Y-85849296D01*
X156289126Y-85672202D01*
X156289116Y-85672193D01*
X156099168Y-85524350D01*
X156099159Y-85524344D01*
X155887468Y-85409784D01*
X155887454Y-85409778D01*
X155659791Y-85331619D01*
X155552000Y-85313633D01*
X155552000Y-86127347D01*
X155532315Y-86194386D01*
X155479511Y-86240141D01*
X155410353Y-86250085D01*
X155394547Y-86246749D01*
X155377598Y-86242000D01*
X155377596Y-86242000D01*
X155264378Y-86242000D01*
X155264376Y-86242000D01*
X155192884Y-86251826D01*
X155123789Y-86241453D01*
X155071270Y-86195371D01*
X155052000Y-86128981D01*
X155052000Y-85313633D01*
X155051999Y-85313633D01*
X154944208Y-85331619D01*
X154716545Y-85409778D01*
X154716531Y-85409784D01*
X154504840Y-85524344D01*
X154504838Y-85524345D01*
X154362252Y-85635325D01*
X154297258Y-85660967D01*
X154228718Y-85647400D01*
X154178393Y-85598932D01*
X154169907Y-85580801D01*
X154158297Y-85549671D01*
X154158293Y-85549664D01*
X154072047Y-85434455D01*
X154072044Y-85434452D01*
X153956835Y-85348206D01*
X153956828Y-85348202D01*
X153821982Y-85297908D01*
X153821983Y-85297908D01*
X153762383Y-85291501D01*
X153762381Y-85291500D01*
X153762373Y-85291500D01*
X153762364Y-85291500D01*
X151761629Y-85291500D01*
X151761623Y-85291501D01*
X151702016Y-85297908D01*
X151567171Y-85348202D01*
X151567164Y-85348206D01*
X151451955Y-85434452D01*
X151451952Y-85434455D01*
X151365706Y-85549664D01*
X151365702Y-85549671D01*
X151315408Y-85684517D01*
X151309001Y-85744116D01*
X151309000Y-85744135D01*
X151309000Y-87839870D01*
X151309001Y-87839876D01*
X151315408Y-87899483D01*
X151365702Y-88034328D01*
X151365706Y-88034335D01*
X151451952Y-88149544D01*
X151451955Y-88149547D01*
X151567164Y-88235793D01*
X151567171Y-88235797D01*
X151702017Y-88286091D01*
X151702016Y-88286091D01*
X151708944Y-88286835D01*
X151761627Y-88292500D01*
X153762372Y-88292499D01*
X153821983Y-88286091D01*
X153956831Y-88235796D01*
X154072046Y-88149546D01*
X154158296Y-88034331D01*
X154158297Y-88034328D01*
X154158298Y-88034327D01*
X154169907Y-88003199D01*
X154211776Y-87947264D01*
X154277240Y-87922844D01*
X154345513Y-87937694D01*
X154362252Y-87948675D01*
X154504831Y-88059649D01*
X154504840Y-88059655D01*
X154716531Y-88174215D01*
X154716545Y-88174221D01*
X154944207Y-88252379D01*
X155052000Y-88270366D01*
X155052000Y-87456652D01*
X155071685Y-87389613D01*
X155124489Y-87343858D01*
X155193647Y-87333914D01*
X155209447Y-87337248D01*
X155226404Y-87342000D01*
X155226406Y-87342000D01*
X155339622Y-87342000D01*
X155411116Y-87332173D01*
X155480209Y-87342545D01*
X155532728Y-87388626D01*
X155551999Y-87455018D01*
X155551999Y-88270366D01*
X155659792Y-88252379D01*
X155887454Y-88174221D01*
X155887468Y-88174215D01*
X156099159Y-88059655D01*
X156099168Y-88059649D01*
X156289116Y-87911806D01*
X156289126Y-87911797D01*
X156452154Y-87734702D01*
X156452155Y-87734701D01*
X156467891Y-87710616D01*
X156521036Y-87665258D01*
X156590267Y-87655833D01*
X156653604Y-87685333D01*
X156675510Y-87710614D01*
X156691446Y-87735007D01*
X156691448Y-87735009D01*
X156691449Y-87735010D01*
X156854537Y-87912171D01*
X157010908Y-88033879D01*
X157044017Y-88059649D01*
X157044561Y-88060072D01*
X157209891Y-88149544D01*
X157255478Y-88174215D01*
X157256336Y-88174679D01*
X157354306Y-88208312D01*
X157484083Y-88252865D01*
X157484085Y-88252865D01*
X157484087Y-88252866D01*
X157721601Y-88292500D01*
X157721602Y-88292500D01*
X157962398Y-88292500D01*
X157962399Y-88292500D01*
X158199913Y-88252866D01*
X158427664Y-88174679D01*
X158639439Y-88060072D01*
X158829463Y-87912171D01*
X158992551Y-87735010D01*
X159124255Y-87533422D01*
X159142559Y-87491691D01*
X159187515Y-87438205D01*
X159254251Y-87417514D01*
X159256116Y-87417500D01*
X185306148Y-87417500D01*
X185373187Y-87437185D01*
X185393829Y-87453819D01*
X191844223Y-93904213D01*
X191877708Y-93965536D01*
X191872724Y-94035228D01*
X191830852Y-94091161D01*
X191808949Y-94104275D01*
X191775520Y-94119863D01*
X191589179Y-94250342D01*
X191428342Y-94411179D01*
X191297867Y-94597515D01*
X191270657Y-94655867D01*
X191224484Y-94708306D01*
X191157290Y-94727457D01*
X191090409Y-94707241D01*
X191045893Y-94655865D01*
X191045617Y-94655274D01*
X191018568Y-94597266D01*
X190888047Y-94410861D01*
X190888045Y-94410858D01*
X190727141Y-94249954D01*
X190540734Y-94119432D01*
X190540732Y-94119431D01*
X190334497Y-94023261D01*
X190334488Y-94023258D01*
X190114697Y-93964366D01*
X190114693Y-93964365D01*
X190114692Y-93964365D01*
X190114691Y-93964364D01*
X190114686Y-93964364D01*
X189888002Y-93944532D01*
X189887998Y-93944532D01*
X189661313Y-93964364D01*
X189661302Y-93964366D01*
X189441511Y-94023258D01*
X189441502Y-94023261D01*
X189235267Y-94119431D01*
X189235265Y-94119432D01*
X189048858Y-94249954D01*
X188887956Y-94410856D01*
X188772449Y-94575818D01*
X188717872Y-94619442D01*
X188678663Y-94628449D01*
X188642959Y-94630696D01*
X188635185Y-94633222D01*
X188612420Y-94638310D01*
X188596571Y-94640313D01*
X188596356Y-94638613D01*
X188536017Y-94636537D01*
X188478573Y-94596764D01*
X188473459Y-94589970D01*
X188348047Y-94410861D01*
X188348045Y-94410858D01*
X188187141Y-94249954D01*
X188000734Y-94119432D01*
X188000732Y-94119431D01*
X187794497Y-94023261D01*
X187794488Y-94023258D01*
X187574697Y-93964366D01*
X187574693Y-93964365D01*
X187574692Y-93964365D01*
X187574691Y-93964364D01*
X187574686Y-93964364D01*
X187348002Y-93944532D01*
X187347998Y-93944532D01*
X187121313Y-93964364D01*
X187121302Y-93964366D01*
X186901511Y-94023258D01*
X186901502Y-94023261D01*
X186695267Y-94119431D01*
X186695265Y-94119432D01*
X186508858Y-94249954D01*
X186347954Y-94410858D01*
X186217432Y-94597265D01*
X186217431Y-94597267D01*
X186198977Y-94636842D01*
X186196657Y-94641819D01*
X186190382Y-94655275D01*
X186144209Y-94707714D01*
X186077016Y-94726866D01*
X186010135Y-94706650D01*
X185965618Y-94655275D01*
X185965618Y-94655274D01*
X185938568Y-94597266D01*
X185808047Y-94410861D01*
X185808045Y-94410858D01*
X185647141Y-94249954D01*
X185460734Y-94119432D01*
X185460732Y-94119431D01*
X185254497Y-94023261D01*
X185254488Y-94023258D01*
X185034697Y-93964366D01*
X185034693Y-93964365D01*
X185034692Y-93964365D01*
X185034691Y-93964364D01*
X185034686Y-93964364D01*
X184808002Y-93944532D01*
X184807998Y-93944532D01*
X184581313Y-93964364D01*
X184581302Y-93964366D01*
X184361511Y-94023258D01*
X184361502Y-94023261D01*
X184155267Y-94119431D01*
X184155265Y-94119432D01*
X183968858Y-94249954D01*
X183807954Y-94410858D01*
X183677432Y-94597265D01*
X183677431Y-94597267D01*
X183658977Y-94636842D01*
X183656657Y-94641819D01*
X183650382Y-94655275D01*
X183604209Y-94707714D01*
X183537016Y-94726866D01*
X183470135Y-94706650D01*
X183425618Y-94655275D01*
X183425618Y-94655274D01*
X183398568Y-94597266D01*
X183268047Y-94410861D01*
X183268045Y-94410858D01*
X183107141Y-94249954D01*
X182920734Y-94119432D01*
X182920732Y-94119431D01*
X182714497Y-94023261D01*
X182714488Y-94023258D01*
X182494697Y-93964366D01*
X182494693Y-93964365D01*
X182494692Y-93964365D01*
X182494691Y-93964364D01*
X182494686Y-93964364D01*
X182268002Y-93944532D01*
X182267998Y-93944532D01*
X182041313Y-93964364D01*
X182041302Y-93964366D01*
X181821511Y-94023258D01*
X181821502Y-94023261D01*
X181615267Y-94119431D01*
X181615265Y-94119432D01*
X181428858Y-94249954D01*
X181267956Y-94410856D01*
X181152449Y-94575818D01*
X181097872Y-94619442D01*
X181058663Y-94628449D01*
X181022959Y-94630696D01*
X181015185Y-94633222D01*
X180992420Y-94638310D01*
X180976571Y-94640313D01*
X180976356Y-94638613D01*
X180916017Y-94636537D01*
X180858573Y-94596764D01*
X180853459Y-94589970D01*
X180728047Y-94410861D01*
X180728045Y-94410858D01*
X180567141Y-94249954D01*
X180380734Y-94119432D01*
X180380732Y-94119431D01*
X180174497Y-94023261D01*
X180174488Y-94023258D01*
X179954697Y-93964366D01*
X179954693Y-93964365D01*
X179954692Y-93964365D01*
X179954691Y-93964364D01*
X179954686Y-93964364D01*
X179728002Y-93944532D01*
X179727998Y-93944532D01*
X179501313Y-93964364D01*
X179501302Y-93964366D01*
X179281511Y-94023258D01*
X179281502Y-94023261D01*
X179075267Y-94119431D01*
X179075265Y-94119432D01*
X178888858Y-94249954D01*
X178727954Y-94410858D01*
X178597432Y-94597265D01*
X178597431Y-94597267D01*
X178578977Y-94636842D01*
X178576657Y-94641819D01*
X178570382Y-94655275D01*
X178524209Y-94707714D01*
X178457016Y-94726866D01*
X178390135Y-94706650D01*
X178345618Y-94655275D01*
X178345618Y-94655274D01*
X178318568Y-94597266D01*
X178188047Y-94410861D01*
X178188045Y-94410858D01*
X178027141Y-94249954D01*
X177840734Y-94119432D01*
X177840732Y-94119431D01*
X177634497Y-94023261D01*
X177634488Y-94023258D01*
X177414697Y-93964366D01*
X177414693Y-93964365D01*
X177414692Y-93964365D01*
X177414691Y-93964364D01*
X177414686Y-93964364D01*
X177188002Y-93944532D01*
X177187998Y-93944532D01*
X176961313Y-93964364D01*
X176961302Y-93964366D01*
X176741511Y-94023258D01*
X176741502Y-94023261D01*
X176535267Y-94119431D01*
X176535265Y-94119432D01*
X176348858Y-94249954D01*
X176187954Y-94410858D01*
X176057432Y-94597265D01*
X176057431Y-94597267D01*
X175961261Y-94803502D01*
X175961258Y-94803511D01*
X175902366Y-95023302D01*
X175902364Y-95023313D01*
X175882532Y-95249998D01*
X175882532Y-95250001D01*
X175902364Y-95476686D01*
X175902366Y-95476697D01*
X175934201Y-95595507D01*
X175932538Y-95665357D01*
X175893375Y-95723219D01*
X175829147Y-95750723D01*
X175814426Y-95751600D01*
X141964452Y-95751600D01*
X141897413Y-95731915D01*
X141876771Y-95715281D01*
X141027703Y-94866212D01*
X141017880Y-94853950D01*
X141017659Y-94854134D01*
X141012686Y-94848123D01*
X141012685Y-94848122D01*
X140962264Y-94800773D01*
X140951819Y-94790328D01*
X140941375Y-94779883D01*
X140935886Y-94775625D01*
X140931461Y-94771847D01*
X140897482Y-94739938D01*
X140897480Y-94739936D01*
X140897477Y-94739935D01*
X140879929Y-94730288D01*
X140863663Y-94719604D01*
X140847832Y-94707324D01*
X140805069Y-94688818D01*
X140799823Y-94686249D01*
X140775147Y-94672684D01*
X140762347Y-94665647D01*
X140713084Y-94616104D01*
X140698425Y-94547789D01*
X140698795Y-94543728D01*
X140700499Y-94527878D01*
X140700500Y-94527873D01*
X140700499Y-93892005D01*
X152676357Y-93892005D01*
X152696890Y-94139812D01*
X152696892Y-94139824D01*
X152757936Y-94380881D01*
X152857826Y-94608606D01*
X152993833Y-94816782D01*
X152993836Y-94816785D01*
X153162256Y-94999738D01*
X153358491Y-95152474D01*
X153358493Y-95152475D01*
X153576332Y-95270364D01*
X153577190Y-95270828D01*
X153688064Y-95308891D01*
X153810964Y-95351083D01*
X153812386Y-95351571D01*
X154057665Y-95392500D01*
X154306335Y-95392500D01*
X154551614Y-95351571D01*
X154786810Y-95270828D01*
X155005509Y-95152474D01*
X155201744Y-94999738D01*
X155370164Y-94816785D01*
X155506173Y-94608607D01*
X155606063Y-94380881D01*
X155667108Y-94139821D01*
X155667116Y-94139729D01*
X155687643Y-93892005D01*
X157676859Y-93892005D01*
X157697385Y-94139729D01*
X157697387Y-94139738D01*
X157758412Y-94380717D01*
X157858266Y-94608364D01*
X157958564Y-94761882D01*
X158573050Y-94147395D01*
X158634373Y-94113910D01*
X158704064Y-94118894D01*
X158759998Y-94160765D01*
X158765039Y-94168025D01*
X158800239Y-94222798D01*
X158833626Y-94251728D01*
X158915602Y-94322759D01*
X158913293Y-94325422D01*
X158948006Y-94365499D01*
X158957935Y-94434660D01*
X158928898Y-94498210D01*
X158922882Y-94504669D01*
X158311942Y-95115609D01*
X158358768Y-95152055D01*
X158358770Y-95152056D01*
X158577385Y-95270364D01*
X158577396Y-95270369D01*
X158812506Y-95351083D01*
X159057707Y-95392000D01*
X159306293Y-95392000D01*
X159551493Y-95351083D01*
X159786603Y-95270369D01*
X159786614Y-95270364D01*
X160005228Y-95152057D01*
X160005231Y-95152055D01*
X160052056Y-95115609D01*
X159441116Y-94504669D01*
X159407631Y-94443346D01*
X159412615Y-94373654D01*
X159449641Y-94324193D01*
X159448398Y-94322759D01*
X159455100Y-94316952D01*
X159563761Y-94222798D01*
X159598954Y-94168037D01*
X159651755Y-94122283D01*
X159720914Y-94112339D01*
X159784470Y-94141363D01*
X159790949Y-94147396D01*
X160405434Y-94761882D01*
X160505731Y-94608369D01*
X160605587Y-94380717D01*
X160666612Y-94139738D01*
X160666614Y-94139729D01*
X160687141Y-93892005D01*
X160687141Y-93891994D01*
X160666614Y-93644270D01*
X160666612Y-93644261D01*
X160605587Y-93403282D01*
X160505731Y-93175630D01*
X160405434Y-93022116D01*
X159790949Y-93636602D01*
X159729626Y-93670087D01*
X159659934Y-93665103D01*
X159604001Y-93623231D01*
X159598953Y-93615961D01*
X159563761Y-93561202D01*
X159448398Y-93461241D01*
X159450698Y-93458585D01*
X159415960Y-93418428D01*
X159406074Y-93349261D01*
X159435152Y-93285729D01*
X159441116Y-93279329D01*
X160052056Y-92668389D01*
X160005229Y-92631943D01*
X159786614Y-92513635D01*
X159786603Y-92513630D01*
X159551493Y-92432916D01*
X159306293Y-92392000D01*
X159057707Y-92392000D01*
X158812506Y-92432916D01*
X158577396Y-92513630D01*
X158577390Y-92513632D01*
X158358761Y-92631949D01*
X158311942Y-92668388D01*
X158311942Y-92668390D01*
X158922883Y-93279330D01*
X158956368Y-93340653D01*
X158951384Y-93410344D01*
X158914358Y-93459805D01*
X158915602Y-93461241D01*
X158800238Y-93561202D01*
X158765046Y-93615962D01*
X158712242Y-93661717D01*
X158643083Y-93671660D01*
X158579528Y-93642634D01*
X158573050Y-93636603D01*
X157958564Y-93022116D01*
X157858267Y-93175632D01*
X157758412Y-93403282D01*
X157697387Y-93644261D01*
X157697385Y-93644270D01*
X157676859Y-93891994D01*
X157676859Y-93892005D01*
X155687643Y-93892005D01*
X155687643Y-93891994D01*
X155667109Y-93644187D01*
X155667107Y-93644175D01*
X155606063Y-93403118D01*
X155506173Y-93175393D01*
X155370166Y-92967217D01*
X155348557Y-92943744D01*
X155201744Y-92784262D01*
X155005509Y-92631526D01*
X155005507Y-92631525D01*
X155005506Y-92631524D01*
X154786811Y-92513172D01*
X154786802Y-92513169D01*
X154551616Y-92432429D01*
X154306335Y-92391500D01*
X154057665Y-92391500D01*
X153812383Y-92432429D01*
X153577197Y-92513169D01*
X153577188Y-92513172D01*
X153358493Y-92631524D01*
X153162257Y-92784261D01*
X152993833Y-92967217D01*
X152857826Y-93175393D01*
X152757936Y-93403118D01*
X152696892Y-93644175D01*
X152696890Y-93644187D01*
X152676357Y-93891994D01*
X152676357Y-93892005D01*
X140700499Y-93892005D01*
X140700499Y-93432128D01*
X140694091Y-93372517D01*
X140687253Y-93354184D01*
X140643797Y-93237671D01*
X140643793Y-93237664D01*
X140557547Y-93122455D01*
X140557544Y-93122452D01*
X140442335Y-93036206D01*
X140442328Y-93036202D01*
X140307482Y-92985908D01*
X140307483Y-92985908D01*
X140247883Y-92979501D01*
X140247881Y-92979500D01*
X140247873Y-92979500D01*
X140247864Y-92979500D01*
X139152129Y-92979500D01*
X139152123Y-92979501D01*
X139092516Y-92985908D01*
X138957671Y-93036202D01*
X138957664Y-93036206D01*
X138842455Y-93122452D01*
X138842452Y-93122455D01*
X138756206Y-93237664D01*
X138756203Y-93237669D01*
X138742715Y-93273834D01*
X138700843Y-93329767D01*
X138635379Y-93354184D01*
X138626533Y-93354500D01*
X126297352Y-93354500D01*
X126230313Y-93334815D01*
X126209671Y-93318181D01*
X123542625Y-90651134D01*
X123509140Y-90589811D01*
X123514124Y-90520119D01*
X123555996Y-90464186D01*
X123621460Y-90439769D01*
X123684108Y-90451733D01*
X123757178Y-90486922D01*
X124000652Y-90562024D01*
X124000658Y-90562026D01*
X124252595Y-90599999D01*
X124252604Y-90600000D01*
X124507396Y-90600000D01*
X124507404Y-90599999D01*
X124759341Y-90562026D01*
X124759347Y-90562024D01*
X125002824Y-90486921D01*
X125232381Y-90376373D01*
X125393185Y-90266737D01*
X124707856Y-89581409D01*
X124674371Y-89520086D01*
X124679355Y-89450395D01*
X124720049Y-89395353D01*
X124807925Y-89327925D01*
X124875354Y-89240048D01*
X124931779Y-89198848D01*
X125001525Y-89194693D01*
X125061409Y-89227856D01*
X125746545Y-89912993D01*
X125788545Y-89860327D01*
X125915941Y-89639671D01*
X126009026Y-89402494D01*
X126009031Y-89402477D01*
X126065726Y-89154079D01*
X126084767Y-88900004D01*
X126084767Y-88899995D01*
X126065726Y-88645920D01*
X126009031Y-88397522D01*
X126009026Y-88397505D01*
X125915941Y-88160328D01*
X125915942Y-88160328D01*
X125788544Y-87939671D01*
X125746545Y-87887005D01*
X125061409Y-88572142D01*
X125000086Y-88605627D01*
X124930394Y-88600643D01*
X124875353Y-88559948D01*
X124807925Y-88472075D01*
X124807924Y-88472074D01*
X124720049Y-88404645D01*
X124678847Y-88348219D01*
X124674692Y-88278473D01*
X124707855Y-88218590D01*
X125393185Y-87533261D01*
X125232377Y-87423624D01*
X125232376Y-87423623D01*
X125002823Y-87313078D01*
X125002825Y-87313078D01*
X124759347Y-87237975D01*
X124759341Y-87237973D01*
X124507404Y-87200000D01*
X124252595Y-87200000D01*
X124000658Y-87237973D01*
X124000652Y-87237975D01*
X123757175Y-87313078D01*
X123527624Y-87423623D01*
X123527616Y-87423628D01*
X123366813Y-87533261D01*
X124052143Y-88218590D01*
X124085628Y-88279913D01*
X124080644Y-88349604D01*
X124039949Y-88404646D01*
X123952075Y-88472074D01*
X123952074Y-88472075D01*
X123884646Y-88559949D01*
X123828218Y-88601151D01*
X123758472Y-88605306D01*
X123698590Y-88572143D01*
X123013453Y-87887006D01*
X122971455Y-87939670D01*
X122844058Y-88160328D01*
X122750973Y-88397505D01*
X122750968Y-88397522D01*
X122694273Y-88645920D01*
X122675233Y-88899995D01*
X122675233Y-88900004D01*
X122694273Y-89154079D01*
X122750968Y-89402477D01*
X122750973Y-89402494D01*
X122829073Y-89601490D01*
X122835242Y-89671087D01*
X122802804Y-89732970D01*
X122742059Y-89767493D01*
X122672293Y-89763694D01*
X122625964Y-89734473D01*
X121407703Y-88516212D01*
X121397880Y-88503950D01*
X121397659Y-88504134D01*
X121392686Y-88498123D01*
X121342264Y-88450773D01*
X121331819Y-88440328D01*
X121321375Y-88429883D01*
X121315886Y-88425625D01*
X121311461Y-88421847D01*
X121277482Y-88389938D01*
X121277480Y-88389936D01*
X121277477Y-88389935D01*
X121259929Y-88380288D01*
X121243663Y-88369604D01*
X121227833Y-88357325D01*
X121185068Y-88338818D01*
X121179822Y-88336248D01*
X121144763Y-88316975D01*
X121095498Y-88267429D01*
X121080499Y-88208312D01*
X121080499Y-87652129D01*
X121080498Y-87652123D01*
X121080497Y-87652116D01*
X121074091Y-87592517D01*
X121036485Y-87491691D01*
X121023797Y-87457671D01*
X121023793Y-87457664D01*
X120937547Y-87342455D01*
X120937544Y-87342452D01*
X120822335Y-87256206D01*
X120822328Y-87256202D01*
X120687482Y-87205908D01*
X120687483Y-87205908D01*
X120627883Y-87199501D01*
X120627881Y-87199500D01*
X120627873Y-87199500D01*
X120627864Y-87199500D01*
X118132129Y-87199500D01*
X118132123Y-87199501D01*
X118072516Y-87205908D01*
X117937671Y-87256202D01*
X117937664Y-87256206D01*
X117822455Y-87342452D01*
X117822452Y-87342455D01*
X117736206Y-87457664D01*
X117736202Y-87457671D01*
X117685908Y-87592517D01*
X117679501Y-87652116D01*
X117679501Y-87652123D01*
X117679500Y-87652135D01*
X117679500Y-90147870D01*
X117679501Y-90147876D01*
X117685908Y-90207483D01*
X117736202Y-90342328D01*
X117736206Y-90342335D01*
X117822452Y-90457544D01*
X117822455Y-90457547D01*
X117937664Y-90543793D01*
X117937671Y-90543797D01*
X118072517Y-90594091D01*
X118072516Y-90594091D01*
X118079444Y-90594835D01*
X118132127Y-90600500D01*
X120627872Y-90600499D01*
X120687483Y-90594091D01*
X120822331Y-90543796D01*
X120937546Y-90457546D01*
X121023796Y-90342331D01*
X121074091Y-90207483D01*
X121074091Y-90207480D01*
X121076125Y-90202028D01*
X121117995Y-90146094D01*
X121183459Y-90121676D01*
X121251732Y-90136527D01*
X121279988Y-90157679D01*
X125014627Y-93892318D01*
X125048112Y-93953641D01*
X125043128Y-94023333D01*
X125014627Y-94067680D01*
X118996208Y-100086099D01*
X118983951Y-100095920D01*
X118984134Y-100096141D01*
X118978123Y-100101113D01*
X118930772Y-100151536D01*
X118909889Y-100172419D01*
X118909877Y-100172432D01*
X118905621Y-100177917D01*
X118901837Y-100182347D01*
X118869937Y-100216318D01*
X118869936Y-100216320D01*
X118860284Y-100233876D01*
X118849610Y-100250126D01*
X118837329Y-100265961D01*
X118837324Y-100265968D01*
X118818815Y-100308738D01*
X118816245Y-100313984D01*
X118793803Y-100354806D01*
X118788822Y-100374207D01*
X118782521Y-100392610D01*
X118774562Y-100411002D01*
X118774561Y-100411005D01*
X118767271Y-100457027D01*
X118766087Y-100462746D01*
X118754501Y-100507872D01*
X118754500Y-100507882D01*
X118754500Y-100527916D01*
X118752973Y-100547316D01*
X118749839Y-100567094D01*
X118754224Y-100613480D01*
X118754499Y-100619317D01*
X118754499Y-104855500D01*
X118734814Y-104922539D01*
X118682010Y-104968294D01*
X118630499Y-104979500D01*
X118132129Y-104979500D01*
X118132123Y-104979501D01*
X118072516Y-104985908D01*
X117937671Y-105036202D01*
X117937664Y-105036206D01*
X117822455Y-105122452D01*
X117822452Y-105122455D01*
X117736206Y-105237664D01*
X117736202Y-105237671D01*
X117685908Y-105372517D01*
X117679501Y-105432116D01*
X117679501Y-105432123D01*
X117679500Y-105432135D01*
X117679500Y-107927870D01*
X117679501Y-107927876D01*
X117685908Y-107987483D01*
X117736202Y-108122328D01*
X117736206Y-108122335D01*
X117822452Y-108237544D01*
X117822455Y-108237547D01*
X117937664Y-108323793D01*
X117937671Y-108323797D01*
X118072517Y-108374091D01*
X118072516Y-108374091D01*
X118079444Y-108374835D01*
X118132127Y-108380500D01*
X120627872Y-108380499D01*
X120687483Y-108374091D01*
X120822331Y-108323796D01*
X120937546Y-108237546D01*
X121023796Y-108122331D01*
X121074091Y-107987483D01*
X121080500Y-107927873D01*
X121080500Y-106680004D01*
X122675233Y-106680004D01*
X122694273Y-106934079D01*
X122750968Y-107182477D01*
X122750973Y-107182494D01*
X122844058Y-107419671D01*
X122844057Y-107419671D01*
X122971457Y-107640332D01*
X123013452Y-107692993D01*
X123698590Y-107007855D01*
X123759913Y-106974370D01*
X123829604Y-106979354D01*
X123884645Y-107020049D01*
X123952074Y-107107924D01*
X123952075Y-107107925D01*
X124039948Y-107175353D01*
X124081150Y-107231781D01*
X124085305Y-107301527D01*
X124052142Y-107361409D01*
X123366813Y-108046737D01*
X123527623Y-108156375D01*
X123527624Y-108156376D01*
X123757176Y-108266921D01*
X123757174Y-108266921D01*
X124000652Y-108342024D01*
X124000658Y-108342026D01*
X124252595Y-108379999D01*
X124252604Y-108380000D01*
X124507396Y-108380000D01*
X124507404Y-108379999D01*
X124759341Y-108342026D01*
X124759347Y-108342024D01*
X125002824Y-108266921D01*
X125232381Y-108156373D01*
X125393185Y-108046737D01*
X124707856Y-107361409D01*
X124674371Y-107300086D01*
X124679355Y-107230395D01*
X124720049Y-107175353D01*
X124807925Y-107107925D01*
X124875354Y-107020048D01*
X124931779Y-106978848D01*
X125001525Y-106974693D01*
X125061409Y-107007856D01*
X125746545Y-107692993D01*
X125788545Y-107640327D01*
X125915941Y-107419671D01*
X126009026Y-107182494D01*
X126009031Y-107182477D01*
X126065726Y-106934079D01*
X126084767Y-106680004D01*
X126084767Y-106679995D01*
X126065726Y-106425920D01*
X126009031Y-106177522D01*
X126009026Y-106177505D01*
X125915941Y-105940328D01*
X125915942Y-105940328D01*
X125788544Y-105719671D01*
X125746545Y-105667005D01*
X125061409Y-106352142D01*
X125000086Y-106385627D01*
X124930394Y-106380643D01*
X124875353Y-106339948D01*
X124807925Y-106252075D01*
X124807925Y-106252074D01*
X124720049Y-106184645D01*
X124678847Y-106128219D01*
X124674692Y-106058473D01*
X124707855Y-105998590D01*
X125393185Y-105313261D01*
X125232377Y-105203624D01*
X125232376Y-105203623D01*
X125002823Y-105093078D01*
X125002825Y-105093078D01*
X124759347Y-105017975D01*
X124759341Y-105017973D01*
X124507404Y-104980000D01*
X124252595Y-104980000D01*
X124000658Y-105017973D01*
X124000652Y-105017975D01*
X123757175Y-105093078D01*
X123527624Y-105203623D01*
X123527616Y-105203628D01*
X123366813Y-105313261D01*
X124052143Y-105998590D01*
X124085628Y-106059913D01*
X124080644Y-106129604D01*
X124039949Y-106184646D01*
X123952075Y-106252074D01*
X123952074Y-106252075D01*
X123884646Y-106339949D01*
X123828218Y-106381151D01*
X123758472Y-106385306D01*
X123698590Y-106352143D01*
X123013453Y-105667006D01*
X122971455Y-105719670D01*
X122844058Y-105940328D01*
X122750973Y-106177505D01*
X122750968Y-106177522D01*
X122694273Y-106425920D01*
X122675233Y-106679995D01*
X122675233Y-106680004D01*
X121080500Y-106680004D01*
X121080499Y-105432128D01*
X121074091Y-105372517D01*
X121023796Y-105237669D01*
X121023795Y-105237668D01*
X121023793Y-105237664D01*
X120937547Y-105122455D01*
X120937544Y-105122452D01*
X120822335Y-105036206D01*
X120822328Y-105036202D01*
X120687482Y-104985908D01*
X120687483Y-104985908D01*
X120627883Y-104979501D01*
X120627881Y-104979500D01*
X120627873Y-104979500D01*
X120627865Y-104979500D01*
X120129500Y-104979500D01*
X120062461Y-104959815D01*
X120016706Y-104907011D01*
X120005500Y-104855500D01*
X120005499Y-100897351D01*
X120025184Y-100830312D01*
X120041813Y-100809675D01*
X126209670Y-94641819D01*
X126270994Y-94608334D01*
X126297352Y-94605500D01*
X138626533Y-94605500D01*
X138693572Y-94625185D01*
X138739327Y-94677989D01*
X138742715Y-94686166D01*
X138756203Y-94722330D01*
X138756204Y-94722331D01*
X138762231Y-94730382D01*
X138786648Y-94795846D01*
X138773105Y-94859470D01*
X138773518Y-94859641D01*
X138772595Y-94861869D01*
X138772324Y-94863143D01*
X138771188Y-94865267D01*
X138713975Y-95053870D01*
X138694659Y-95250000D01*
X138713975Y-95446129D01*
X138771188Y-95634733D01*
X138864086Y-95808532D01*
X138867473Y-95813601D01*
X138865955Y-95814615D01*
X138889918Y-95871042D01*
X138878124Y-95939909D01*
X138867515Y-95956420D01*
X138867893Y-95956673D01*
X138864505Y-95961742D01*
X138771652Y-96135458D01*
X138730839Y-96269999D01*
X138730840Y-96270000D01*
X139268045Y-96270000D01*
X139335084Y-96289685D01*
X139380839Y-96342489D01*
X139390783Y-96411647D01*
X139384568Y-96436404D01*
X139375000Y-96462694D01*
X139375000Y-96577306D01*
X139384567Y-96603592D01*
X139388998Y-96673319D01*
X139355027Y-96734375D01*
X139293440Y-96767372D01*
X139268045Y-96770000D01*
X138730840Y-96770000D01*
X138771652Y-96904541D01*
X138864503Y-97078253D01*
X138864507Y-97078260D01*
X138989471Y-97230528D01*
X139141739Y-97355491D01*
X139315465Y-97448349D01*
X139450000Y-97489159D01*
X139450000Y-96953709D01*
X139469685Y-96886670D01*
X139522489Y-96840915D01*
X139591647Y-96830971D01*
X139595481Y-96831584D01*
X139671564Y-96845000D01*
X139671568Y-96845000D01*
X139728432Y-96845000D01*
X139728436Y-96845000D01*
X139804469Y-96831593D01*
X139873906Y-96839337D01*
X139928136Y-96883393D01*
X139949938Y-96949774D01*
X139950000Y-96953709D01*
X139950000Y-97489159D01*
X140084534Y-97448349D01*
X140258260Y-97355491D01*
X140410528Y-97230528D01*
X140535492Y-97078260D01*
X140535496Y-97078253D01*
X140628347Y-96904541D01*
X140669160Y-96770000D01*
X140131955Y-96770000D01*
X140064916Y-96750315D01*
X140019161Y-96697511D01*
X140009217Y-96628353D01*
X140015431Y-96603595D01*
X140025000Y-96577306D01*
X140025000Y-96462694D01*
X140015432Y-96436407D01*
X140011002Y-96366681D01*
X140044973Y-96305625D01*
X140106560Y-96272628D01*
X140131955Y-96270000D01*
X140610947Y-96270000D01*
X140677986Y-96289685D01*
X140698628Y-96306319D01*
X141153197Y-96760888D01*
X141163022Y-96773151D01*
X141163243Y-96772969D01*
X141168214Y-96778978D01*
X141189043Y-96798537D01*
X141218635Y-96826326D01*
X141239529Y-96847220D01*
X141245011Y-96851473D01*
X141249443Y-96855257D01*
X141283418Y-96887162D01*
X141300976Y-96896814D01*
X141317235Y-96907495D01*
X141333064Y-96919773D01*
X141375838Y-96938282D01*
X141381056Y-96940838D01*
X141421908Y-96963297D01*
X141441316Y-96968280D01*
X141459717Y-96974580D01*
X141478104Y-96982537D01*
X141521488Y-96989408D01*
X141524119Y-96989825D01*
X141529839Y-96991009D01*
X141574981Y-97002600D01*
X141595016Y-97002600D01*
X141614414Y-97004126D01*
X141634194Y-97007259D01*
X141634195Y-97007260D01*
X141634195Y-97007259D01*
X141634196Y-97007260D01*
X141680583Y-97002875D01*
X141686422Y-97002600D01*
X180212957Y-97002600D01*
X180228577Y-97004324D01*
X180228604Y-97004039D01*
X180236360Y-97004771D01*
X180236367Y-97004773D01*
X180305514Y-97002600D01*
X180335050Y-97002600D01*
X180341928Y-97001730D01*
X180347741Y-97001272D01*
X180394327Y-96999809D01*
X180413569Y-96994217D01*
X180432612Y-96990274D01*
X180452492Y-96987764D01*
X180495822Y-96970607D01*
X180501346Y-96968717D01*
X180505096Y-96967627D01*
X180546090Y-96955718D01*
X180563329Y-96945522D01*
X180580803Y-96936962D01*
X180599427Y-96929588D01*
X180599427Y-96929587D01*
X180599432Y-96929586D01*
X180637149Y-96902182D01*
X180642005Y-96898992D01*
X180682120Y-96875270D01*
X180696289Y-96861099D01*
X180711079Y-96848468D01*
X180727287Y-96836694D01*
X180756999Y-96800776D01*
X180760912Y-96796476D01*
X181283816Y-96273572D01*
X181345138Y-96240089D01*
X181414830Y-96245073D01*
X181442616Y-96259678D01*
X181615266Y-96380568D01*
X181821504Y-96476739D01*
X182041308Y-96535635D01*
X182203230Y-96549801D01*
X182267998Y-96555468D01*
X182268000Y-96555468D01*
X182268002Y-96555468D01*
X182324807Y-96550498D01*
X182494692Y-96535635D01*
X182714496Y-96476739D01*
X182920734Y-96380568D01*
X183107139Y-96250047D01*
X183268047Y-96089139D01*
X183398568Y-95902734D01*
X183425618Y-95844724D01*
X183471790Y-95792285D01*
X183538983Y-95773133D01*
X183605865Y-95793348D01*
X183650381Y-95844724D01*
X183657679Y-95860374D01*
X183677429Y-95902728D01*
X183677432Y-95902734D01*
X183807954Y-96089141D01*
X183968858Y-96250045D01*
X183968861Y-96250047D01*
X184155266Y-96380568D01*
X184361504Y-96476739D01*
X184581308Y-96535635D01*
X184743230Y-96549801D01*
X184807998Y-96555468D01*
X184808000Y-96555468D01*
X184808002Y-96555468D01*
X184864807Y-96550498D01*
X185034692Y-96535635D01*
X185254496Y-96476739D01*
X185460734Y-96380568D01*
X185647139Y-96250047D01*
X185808047Y-96089139D01*
X185938568Y-95902734D01*
X185965618Y-95844724D01*
X186011790Y-95792285D01*
X186078983Y-95773133D01*
X186145865Y-95793348D01*
X186190381Y-95844724D01*
X186197679Y-95860374D01*
X186217429Y-95902728D01*
X186217432Y-95902734D01*
X186347954Y-96089141D01*
X186508858Y-96250045D01*
X186508861Y-96250047D01*
X186695266Y-96380568D01*
X186761443Y-96411427D01*
X186813881Y-96457598D01*
X186833033Y-96524792D01*
X186812817Y-96591673D01*
X186796718Y-96611489D01*
X185775828Y-97632381D01*
X185714505Y-97665866D01*
X185688147Y-97668700D01*
X156412543Y-97668700D01*
X156396922Y-97666975D01*
X156396896Y-97667261D01*
X156389134Y-97666527D01*
X156389133Y-97666527D01*
X156319986Y-97668700D01*
X156290449Y-97668700D01*
X156283566Y-97669569D01*
X156277749Y-97670026D01*
X156231173Y-97671490D01*
X156211929Y-97677081D01*
X156192879Y-97681025D01*
X156173011Y-97683534D01*
X156129684Y-97700688D01*
X156124158Y-97702579D01*
X156079414Y-97715579D01*
X156079410Y-97715581D01*
X156062166Y-97725779D01*
X156044705Y-97734333D01*
X156026074Y-97741710D01*
X156026062Y-97741717D01*
X155988370Y-97769102D01*
X155983487Y-97772309D01*
X155943380Y-97796029D01*
X155929214Y-97810195D01*
X155914424Y-97822827D01*
X155898214Y-97834604D01*
X155898211Y-97834607D01*
X155868510Y-97870509D01*
X155864577Y-97874831D01*
X154759228Y-98980179D01*
X154697905Y-99013664D01*
X154631284Y-99009779D01*
X154551616Y-98982429D01*
X154306335Y-98941500D01*
X154057665Y-98941500D01*
X153812383Y-98982429D01*
X153577197Y-99063169D01*
X153577188Y-99063172D01*
X153358493Y-99181524D01*
X153162257Y-99334261D01*
X152993833Y-99517217D01*
X152857826Y-99725393D01*
X152757936Y-99953118D01*
X152696892Y-100194175D01*
X152696890Y-100194187D01*
X152676357Y-100441994D01*
X152676357Y-100442005D01*
X152696890Y-100689812D01*
X152696892Y-100689824D01*
X152757936Y-100930881D01*
X152857826Y-101158606D01*
X152993833Y-101366782D01*
X152993836Y-101366785D01*
X153162256Y-101549738D01*
X153358491Y-101702474D01*
X153358493Y-101702475D01*
X153576332Y-101820364D01*
X153577190Y-101820828D01*
X153783572Y-101891679D01*
X153810964Y-101901083D01*
X153812386Y-101901571D01*
X154057665Y-101942500D01*
X154306335Y-101942500D01*
X154551614Y-101901571D01*
X154786810Y-101820828D01*
X155005509Y-101702474D01*
X155201744Y-101549738D01*
X155370164Y-101366785D01*
X155506173Y-101158607D01*
X155606063Y-100930881D01*
X155667108Y-100689821D01*
X155667116Y-100689729D01*
X155687643Y-100442005D01*
X155687643Y-100441994D01*
X155667109Y-100194187D01*
X155667108Y-100194183D01*
X155667108Y-100194179D01*
X155665189Y-100186603D01*
X155622252Y-100017048D01*
X155613136Y-99981049D01*
X155615760Y-99911230D01*
X155645658Y-99862930D01*
X156552571Y-98956019D01*
X156613895Y-98922534D01*
X156640253Y-98919700D01*
X158353690Y-98919700D01*
X158420729Y-98939385D01*
X158466484Y-98992189D01*
X158476428Y-99061347D01*
X158447403Y-99124903D01*
X158412707Y-99152755D01*
X158358763Y-99181947D01*
X158311942Y-99218388D01*
X158311942Y-99218390D01*
X158922883Y-99829330D01*
X158956368Y-99890653D01*
X158951384Y-99960344D01*
X158914358Y-100009805D01*
X158915602Y-100011241D01*
X158800238Y-100111202D01*
X158765046Y-100165962D01*
X158712242Y-100211717D01*
X158643083Y-100221660D01*
X158579528Y-100192634D01*
X158573050Y-100186603D01*
X157958564Y-99572116D01*
X157858267Y-99725632D01*
X157758412Y-99953282D01*
X157697387Y-100194261D01*
X157697385Y-100194270D01*
X157676859Y-100441994D01*
X157676859Y-100442005D01*
X157697385Y-100689729D01*
X157697387Y-100689738D01*
X157758412Y-100930717D01*
X157858266Y-101158364D01*
X157958564Y-101311882D01*
X158573050Y-100697395D01*
X158634373Y-100663910D01*
X158704064Y-100668894D01*
X158759998Y-100710765D01*
X158765039Y-100718025D01*
X158765048Y-100718039D01*
X158800239Y-100772798D01*
X158915602Y-100872759D01*
X158913293Y-100875422D01*
X158948006Y-100915499D01*
X158957935Y-100984660D01*
X158928898Y-101048210D01*
X158922882Y-101054669D01*
X158311942Y-101665609D01*
X158358768Y-101702055D01*
X158358770Y-101702056D01*
X158577385Y-101820364D01*
X158577396Y-101820369D01*
X158812506Y-101901083D01*
X159057707Y-101942000D01*
X159306293Y-101942000D01*
X159551493Y-101901083D01*
X159786603Y-101820369D01*
X159786614Y-101820364D01*
X160005228Y-101702057D01*
X160005231Y-101702055D01*
X160052056Y-101665609D01*
X159441116Y-101054669D01*
X159407631Y-100993346D01*
X159412615Y-100923654D01*
X159449641Y-100874193D01*
X159448398Y-100872759D01*
X159455100Y-100866952D01*
X159563761Y-100772798D01*
X159598954Y-100718037D01*
X159651755Y-100672283D01*
X159720914Y-100662339D01*
X159784470Y-100691363D01*
X159790949Y-100697396D01*
X160405434Y-101311882D01*
X160505731Y-101158369D01*
X160605587Y-100930717D01*
X160666612Y-100689738D01*
X160666614Y-100689729D01*
X160687141Y-100442005D01*
X160687141Y-100441994D01*
X160666614Y-100194270D01*
X160666612Y-100194261D01*
X160605587Y-99953282D01*
X160505731Y-99725630D01*
X160405434Y-99572116D01*
X159790949Y-100186602D01*
X159729626Y-100220087D01*
X159659934Y-100215103D01*
X159604001Y-100173231D01*
X159598953Y-100165961D01*
X159563761Y-100111202D01*
X159552119Y-100101114D01*
X159455100Y-100017048D01*
X159455099Y-100017047D01*
X159448398Y-100011241D01*
X159450698Y-100008585D01*
X159415960Y-99968428D01*
X159406074Y-99899261D01*
X159435152Y-99835729D01*
X159441116Y-99829329D01*
X160052056Y-99218389D01*
X160005229Y-99181943D01*
X159951294Y-99152755D01*
X159901703Y-99103536D01*
X159886595Y-99035319D01*
X159910765Y-98969763D01*
X159966541Y-98927682D01*
X160010311Y-98919700D01*
X185915857Y-98919700D01*
X185931477Y-98921424D01*
X185931504Y-98921139D01*
X185939260Y-98921871D01*
X185939267Y-98921873D01*
X186008414Y-98919700D01*
X186037950Y-98919700D01*
X186044828Y-98918830D01*
X186050641Y-98918372D01*
X186097227Y-98916909D01*
X186116469Y-98911317D01*
X186135512Y-98907374D01*
X186155392Y-98904864D01*
X186198722Y-98887707D01*
X186204246Y-98885817D01*
X186207996Y-98884727D01*
X186248990Y-98872818D01*
X186266229Y-98862622D01*
X186283703Y-98854062D01*
X186302327Y-98846688D01*
X186302327Y-98846687D01*
X186302332Y-98846686D01*
X186340049Y-98819282D01*
X186344905Y-98816092D01*
X186385020Y-98792370D01*
X186399189Y-98778199D01*
X186413979Y-98765568D01*
X186430187Y-98753794D01*
X186459899Y-98717876D01*
X186463812Y-98713576D01*
X188903817Y-96273572D01*
X188965138Y-96240089D01*
X189034830Y-96245073D01*
X189062616Y-96259678D01*
X189235266Y-96380568D01*
X189441504Y-96476739D01*
X189661308Y-96535635D01*
X189823230Y-96549801D01*
X189887998Y-96555468D01*
X189888000Y-96555468D01*
X189888002Y-96555468D01*
X189944807Y-96550498D01*
X190114692Y-96535635D01*
X190334496Y-96476739D01*
X190540734Y-96380568D01*
X190727139Y-96250047D01*
X190888047Y-96089139D01*
X191018568Y-95902734D01*
X191045895Y-95844129D01*
X191092064Y-95791695D01*
X191159257Y-95772542D01*
X191226139Y-95792757D01*
X191270657Y-95844133D01*
X191297865Y-95902482D01*
X191428342Y-96088820D01*
X191589179Y-96249657D01*
X191775517Y-96380134D01*
X191981673Y-96476265D01*
X191981682Y-96476269D01*
X192177999Y-96528872D01*
X192178000Y-96528871D01*
X192178000Y-95760575D01*
X192197685Y-95693536D01*
X192250489Y-95647781D01*
X192319647Y-95637837D01*
X192321331Y-95638091D01*
X192353699Y-95643218D01*
X192396515Y-95650000D01*
X192396519Y-95650000D01*
X192459485Y-95650000D01*
X192502300Y-95643218D01*
X192534602Y-95638102D01*
X192603894Y-95647056D01*
X192657347Y-95692052D01*
X192677987Y-95758803D01*
X192678000Y-95760575D01*
X192678000Y-96528872D01*
X192874317Y-96476269D01*
X192874326Y-96476265D01*
X193080482Y-96380134D01*
X193266820Y-96249657D01*
X193427660Y-96088817D01*
X193555164Y-95906723D01*
X193609741Y-95863098D01*
X193679239Y-95855904D01*
X193679976Y-95856043D01*
X193702678Y-95860374D01*
X193706455Y-95861217D01*
X193762081Y-95875500D01*
X193762089Y-95875500D01*
X193769309Y-95876413D01*
X193833353Y-95904345D01*
X193855340Y-95928310D01*
X193896356Y-95986887D01*
X193967954Y-96089141D01*
X194128858Y-96250045D01*
X194128861Y-96250047D01*
X194315266Y-96380568D01*
X194521504Y-96476739D01*
X194741308Y-96535635D01*
X194903230Y-96549801D01*
X194967998Y-96555468D01*
X194968000Y-96555468D01*
X194968002Y-96555468D01*
X195024807Y-96550498D01*
X195194692Y-96535635D01*
X195414496Y-96476739D01*
X195620734Y-96380568D01*
X195807139Y-96250047D01*
X195968047Y-96089139D01*
X196098568Y-95902734D01*
X196125618Y-95844724D01*
X196171790Y-95792285D01*
X196238983Y-95773133D01*
X196305865Y-95793348D01*
X196350381Y-95844724D01*
X196357679Y-95860374D01*
X196377429Y-95902728D01*
X196377432Y-95902734D01*
X196507954Y-96089141D01*
X196668858Y-96250045D01*
X196668861Y-96250047D01*
X196855266Y-96380568D01*
X196921443Y-96411427D01*
X196973882Y-96457598D01*
X196993034Y-96524791D01*
X196972819Y-96591672D01*
X196956719Y-96611489D01*
X193721828Y-99846381D01*
X193660505Y-99879866D01*
X193634147Y-99882700D01*
X167680943Y-99882700D01*
X167665322Y-99880975D01*
X167665296Y-99881261D01*
X167657534Y-99880527D01*
X167657533Y-99880527D01*
X167588386Y-99882700D01*
X167558849Y-99882700D01*
X167551966Y-99883569D01*
X167546149Y-99884026D01*
X167499573Y-99885490D01*
X167480329Y-99891081D01*
X167461279Y-99895025D01*
X167441411Y-99897534D01*
X167398084Y-99914688D01*
X167392558Y-99916579D01*
X167347814Y-99929579D01*
X167347810Y-99929581D01*
X167330566Y-99939779D01*
X167313105Y-99948333D01*
X167294474Y-99955710D01*
X167294462Y-99955717D01*
X167256770Y-99983102D01*
X167251887Y-99986309D01*
X167211780Y-100010029D01*
X167197614Y-100024195D01*
X167182824Y-100036827D01*
X167166614Y-100048604D01*
X167166611Y-100048607D01*
X167136910Y-100084509D01*
X167132977Y-100088831D01*
X142408928Y-124812881D01*
X142347605Y-124846366D01*
X142321247Y-124849200D01*
X105536143Y-124849200D01*
X105520522Y-124847475D01*
X105520495Y-124847761D01*
X105512733Y-124847026D01*
X105443572Y-124849200D01*
X105414049Y-124849200D01*
X105407178Y-124850067D01*
X105401359Y-124850525D01*
X105354774Y-124851989D01*
X105354768Y-124851990D01*
X105335526Y-124857580D01*
X105316487Y-124861523D01*
X105296617Y-124864034D01*
X105296603Y-124864037D01*
X105253283Y-124881188D01*
X105247758Y-124883080D01*
X105203013Y-124896080D01*
X105203010Y-124896081D01*
X105185766Y-124906279D01*
X105168305Y-124914833D01*
X105149674Y-124922210D01*
X105149662Y-124922217D01*
X105111970Y-124949602D01*
X105107087Y-124952809D01*
X105066980Y-124976529D01*
X105052814Y-124990695D01*
X105038024Y-125003327D01*
X105021814Y-125015104D01*
X105021811Y-125015107D01*
X104992110Y-125051009D01*
X104988177Y-125055331D01*
X99216208Y-130827299D01*
X99203951Y-130837120D01*
X99204134Y-130837341D01*
X99198123Y-130842313D01*
X99150772Y-130892736D01*
X99129889Y-130913619D01*
X99129877Y-130913632D01*
X99125621Y-130919117D01*
X99121837Y-130923547D01*
X99089937Y-130957518D01*
X99089936Y-130957520D01*
X99080284Y-130975076D01*
X99069610Y-130991326D01*
X99057329Y-131007161D01*
X99057324Y-131007168D01*
X99038815Y-131049938D01*
X99036245Y-131055185D01*
X99016701Y-131090736D01*
X98967155Y-131140001D01*
X98908038Y-131155000D01*
X98850000Y-131155000D01*
X98850000Y-131494811D01*
X98833387Y-131556810D01*
X98749858Y-131701486D01*
X98749852Y-131701500D01*
X98735941Y-131744317D01*
X98696504Y-131801993D01*
X98632146Y-131829192D01*
X98618010Y-131830000D01*
X98575371Y-131830000D01*
X98498191Y-131845352D01*
X98428599Y-131839125D01*
X98373422Y-131796261D01*
X98350178Y-131730372D01*
X98350000Y-131723735D01*
X98350000Y-131155000D01*
X98127155Y-131155000D01*
X98067627Y-131161401D01*
X98067620Y-131161403D01*
X97932913Y-131211645D01*
X97932906Y-131211649D01*
X97817812Y-131297809D01*
X97817809Y-131297812D01*
X97731649Y-131412906D01*
X97731645Y-131412913D01*
X97681403Y-131547620D01*
X97681401Y-131547627D01*
X97675000Y-131607155D01*
X97675000Y-131830000D01*
X98243735Y-131830000D01*
X98310774Y-131849685D01*
X98356529Y-131902489D01*
X98366473Y-131971647D01*
X98365353Y-131978191D01*
X98345102Y-132079999D01*
X98365353Y-132181809D01*
X98359125Y-132251401D01*
X98316261Y-132306578D01*
X98250371Y-132329822D01*
X98243735Y-132330000D01*
X97675000Y-132330000D01*
X97675000Y-132552844D01*
X83820500Y-132552844D01*
X83820500Y-119380000D01*
X87894659Y-119380000D01*
X87913975Y-119576129D01*
X87913976Y-119576132D01*
X87950833Y-119697634D01*
X87971188Y-119764733D01*
X88064086Y-119938532D01*
X88064090Y-119938539D01*
X88189116Y-120090883D01*
X88341460Y-120215909D01*
X88341467Y-120215913D01*
X88388155Y-120240868D01*
X88515273Y-120308814D01*
X88545937Y-120318116D01*
X88549436Y-120319294D01*
X88551796Y-120320168D01*
X88551799Y-120320170D01*
X88558005Y-120321776D01*
X88703868Y-120366024D01*
X88734662Y-120369056D01*
X88741911Y-120370344D01*
X88741955Y-120370063D01*
X88748178Y-120371016D01*
X88748182Y-120371017D01*
X88756787Y-120371453D01*
X88756805Y-120371459D01*
X88759946Y-120371618D01*
X88762861Y-120371834D01*
X88900000Y-120385341D01*
X88935203Y-120381873D01*
X88944500Y-120381653D01*
X88944498Y-120381610D01*
X88950766Y-120381291D01*
X88950780Y-120381292D01*
X88951208Y-120381226D01*
X88966546Y-120378877D01*
X88969846Y-120378461D01*
X89096132Y-120366024D01*
X89134291Y-120354448D01*
X89150809Y-120350699D01*
X89151290Y-120350574D01*
X89151299Y-120350573D01*
X89168703Y-120344127D01*
X89172227Y-120342940D01*
X89284727Y-120308814D01*
X89327653Y-120285869D01*
X89335333Y-120282415D01*
X89347671Y-120277846D01*
X89349294Y-120277733D01*
X89353361Y-120275739D01*
X89370806Y-120269278D01*
X89395763Y-120249463D01*
X89458538Y-120215910D01*
X89499629Y-120182186D01*
X89506133Y-120177521D01*
X89513096Y-120173181D01*
X89516523Y-120172226D01*
X89524385Y-120166141D01*
X89538415Y-120157395D01*
X89557847Y-120134407D01*
X89610883Y-120090883D01*
X89644967Y-120049351D01*
X89653340Y-120043647D01*
X89653512Y-120043401D01*
X89669861Y-120024357D01*
X89680284Y-120014448D01*
X89693949Y-119989667D01*
X89735910Y-119938538D01*
X89761697Y-119890293D01*
X89770069Y-119881769D01*
X89771629Y-119878136D01*
X89783806Y-119856197D01*
X89790791Y-119846160D01*
X89798745Y-119820980D01*
X89828814Y-119764727D01*
X89845082Y-119711098D01*
X89852588Y-119699642D01*
X89854058Y-119692494D01*
X89861570Y-119668552D01*
X89865511Y-119659366D01*
X89868148Y-119635058D01*
X89886024Y-119576132D01*
X89893116Y-119504122D01*
X89894083Y-119497739D01*
X89897435Y-119481429D01*
X89897435Y-119481426D01*
X89901518Y-119461560D01*
X89899506Y-119439240D01*
X89905341Y-119380000D01*
X100594659Y-119380000D01*
X100613975Y-119576129D01*
X100613976Y-119576132D01*
X100650833Y-119697634D01*
X100671188Y-119764733D01*
X100764086Y-119938532D01*
X100764090Y-119938539D01*
X100889116Y-120090883D01*
X101041460Y-120215909D01*
X101041467Y-120215913D01*
X101088155Y-120240868D01*
X101215273Y-120308814D01*
X101245937Y-120318116D01*
X101249436Y-120319294D01*
X101251796Y-120320168D01*
X101251799Y-120320170D01*
X101258005Y-120321776D01*
X101403868Y-120366024D01*
X101434662Y-120369056D01*
X101441911Y-120370344D01*
X101441955Y-120370063D01*
X101448178Y-120371016D01*
X101448182Y-120371017D01*
X101456787Y-120371453D01*
X101456805Y-120371459D01*
X101459946Y-120371618D01*
X101462861Y-120371834D01*
X101600000Y-120385341D01*
X101635203Y-120381873D01*
X101644500Y-120381653D01*
X101644498Y-120381610D01*
X101650766Y-120381291D01*
X101650780Y-120381292D01*
X101651208Y-120381226D01*
X101666546Y-120378877D01*
X101669846Y-120378461D01*
X101796132Y-120366024D01*
X101834291Y-120354448D01*
X101850809Y-120350699D01*
X101851290Y-120350574D01*
X101851299Y-120350573D01*
X101868703Y-120344127D01*
X101872227Y-120342940D01*
X101984727Y-120308814D01*
X102027653Y-120285869D01*
X102035333Y-120282415D01*
X102047671Y-120277846D01*
X102049294Y-120277733D01*
X102053361Y-120275739D01*
X102070806Y-120269278D01*
X102095763Y-120249463D01*
X102158538Y-120215910D01*
X102199629Y-120182186D01*
X102206133Y-120177521D01*
X102213096Y-120173181D01*
X102216523Y-120172226D01*
X102224385Y-120166141D01*
X102238415Y-120157395D01*
X102257847Y-120134407D01*
X102310883Y-120090883D01*
X102344967Y-120049351D01*
X102353340Y-120043647D01*
X102353512Y-120043401D01*
X102369861Y-120024357D01*
X102380284Y-120014448D01*
X102393949Y-119989667D01*
X102435910Y-119938538D01*
X102461697Y-119890293D01*
X102470069Y-119881769D01*
X102471629Y-119878136D01*
X102483806Y-119856197D01*
X102490791Y-119846160D01*
X102498745Y-119820980D01*
X102528814Y-119764727D01*
X102545082Y-119711098D01*
X102552588Y-119699642D01*
X102554058Y-119692494D01*
X102561570Y-119668552D01*
X102565511Y-119659366D01*
X102568148Y-119635058D01*
X102586024Y-119576132D01*
X102593116Y-119504122D01*
X102594083Y-119497739D01*
X102597435Y-119481429D01*
X102597435Y-119481426D01*
X102601518Y-119461560D01*
X102599506Y-119439240D01*
X102605341Y-119380000D01*
X102599506Y-119320759D01*
X102602673Y-119304058D01*
X102594085Y-119262270D01*
X102593114Y-119255860D01*
X102592569Y-119250331D01*
X102586024Y-119183868D01*
X102568149Y-119124945D01*
X102567984Y-119106392D01*
X102561570Y-119091446D01*
X102554058Y-119067506D01*
X102553519Y-119064885D01*
X102545083Y-119048904D01*
X102528814Y-118995273D01*
X102528813Y-118995272D01*
X102528813Y-118995270D01*
X102498746Y-118939019D01*
X102494660Y-118919395D01*
X102483807Y-118903802D01*
X102471691Y-118881974D01*
X102461696Y-118869705D01*
X102435910Y-118821462D01*
X102393947Y-118770331D01*
X102385547Y-118750551D01*
X102369858Y-118735638D01*
X102356720Y-118720334D01*
X102344964Y-118710645D01*
X102310882Y-118669115D01*
X102257848Y-118625591D01*
X102244973Y-118606689D01*
X102224384Y-118593856D01*
X102218403Y-118589226D01*
X102213073Y-118586804D01*
X102206145Y-118582485D01*
X102199611Y-118577798D01*
X102158538Y-118544090D01*
X102158537Y-118544089D01*
X102158532Y-118544085D01*
X102095761Y-118510534D01*
X102078483Y-118493562D01*
X102053359Y-118484258D01*
X102050287Y-118482751D01*
X102047673Y-118482152D01*
X102035330Y-118477582D01*
X102027624Y-118474115D01*
X101984726Y-118451185D01*
X101872253Y-118417066D01*
X101868721Y-118415878D01*
X101851295Y-118409425D01*
X101850874Y-118409316D01*
X101834276Y-118405547D01*
X101796130Y-118393975D01*
X101669867Y-118381539D01*
X101666555Y-118381123D01*
X101650804Y-118378709D01*
X101644504Y-118378390D01*
X101644506Y-118378347D01*
X101635205Y-118378125D01*
X101600003Y-118374659D01*
X101599999Y-118374659D01*
X101462932Y-118388157D01*
X101460014Y-118388375D01*
X101456830Y-118388537D01*
X101456797Y-118388546D01*
X101448177Y-118388983D01*
X101441974Y-118389934D01*
X101441931Y-118389654D01*
X101434679Y-118390941D01*
X101403869Y-118393975D01*
X101258009Y-118438221D01*
X101251793Y-118439831D01*
X101249430Y-118440706D01*
X101245903Y-118441893D01*
X101215270Y-118451186D01*
X101041467Y-118544086D01*
X101041460Y-118544090D01*
X100889116Y-118669116D01*
X100764090Y-118821460D01*
X100764086Y-118821467D01*
X100671188Y-118995266D01*
X100613975Y-119183870D01*
X100594659Y-119380000D01*
X89905341Y-119380000D01*
X89899506Y-119320759D01*
X89902673Y-119304058D01*
X89894085Y-119262270D01*
X89893114Y-119255860D01*
X89892569Y-119250331D01*
X89886024Y-119183868D01*
X89868149Y-119124945D01*
X89867984Y-119106392D01*
X89861570Y-119091446D01*
X89854058Y-119067506D01*
X89853519Y-119064885D01*
X89845083Y-119048904D01*
X89828814Y-118995273D01*
X89828813Y-118995272D01*
X89828813Y-118995270D01*
X89798746Y-118939019D01*
X89794660Y-118919395D01*
X89783807Y-118903802D01*
X89771691Y-118881974D01*
X89761696Y-118869705D01*
X89735910Y-118821462D01*
X89693947Y-118770331D01*
X89685547Y-118750551D01*
X89669858Y-118735638D01*
X89656720Y-118720334D01*
X89644964Y-118710645D01*
X89610882Y-118669115D01*
X89557848Y-118625591D01*
X89544973Y-118606689D01*
X89524384Y-118593856D01*
X89518403Y-118589226D01*
X89513073Y-118586804D01*
X89506145Y-118582485D01*
X89499611Y-118577798D01*
X89458538Y-118544090D01*
X89458537Y-118544089D01*
X89458532Y-118544085D01*
X89395761Y-118510534D01*
X89378483Y-118493562D01*
X89353359Y-118484258D01*
X89350287Y-118482751D01*
X89347673Y-118482152D01*
X89335330Y-118477582D01*
X89327624Y-118474115D01*
X89284726Y-118451185D01*
X89172253Y-118417066D01*
X89168721Y-118415878D01*
X89151295Y-118409425D01*
X89150874Y-118409316D01*
X89134276Y-118405547D01*
X89096130Y-118393975D01*
X88969867Y-118381539D01*
X88966555Y-118381123D01*
X88950804Y-118378709D01*
X88944504Y-118378390D01*
X88944506Y-118378347D01*
X88935205Y-118378125D01*
X88900003Y-118374659D01*
X88899999Y-118374659D01*
X88762932Y-118388157D01*
X88760014Y-118388375D01*
X88756830Y-118388537D01*
X88756797Y-118388546D01*
X88748177Y-118388983D01*
X88741974Y-118389934D01*
X88741931Y-118389654D01*
X88734679Y-118390941D01*
X88703869Y-118393975D01*
X88558009Y-118438221D01*
X88551793Y-118439831D01*
X88549430Y-118440706D01*
X88545903Y-118441893D01*
X88515270Y-118451186D01*
X88341467Y-118544086D01*
X88341460Y-118544090D01*
X88189116Y-118669116D01*
X88064090Y-118821460D01*
X88064086Y-118821467D01*
X87971188Y-118995266D01*
X87913975Y-119183870D01*
X87894659Y-119380000D01*
X83820500Y-119380000D01*
X83820500Y-111760000D01*
X87894659Y-111760000D01*
X87913975Y-111956129D01*
X87913976Y-111956132D01*
X87942011Y-112048552D01*
X87971188Y-112144733D01*
X88064086Y-112318532D01*
X88064090Y-112318539D01*
X88189116Y-112470883D01*
X88341460Y-112595909D01*
X88341467Y-112595913D01*
X88341469Y-112595914D01*
X88515273Y-112688814D01*
X88545937Y-112698116D01*
X88549436Y-112699294D01*
X88551796Y-112700168D01*
X88551799Y-112700170D01*
X88558005Y-112701776D01*
X88703868Y-112746024D01*
X88734662Y-112749056D01*
X88741911Y-112750344D01*
X88741955Y-112750063D01*
X88748178Y-112751016D01*
X88748182Y-112751017D01*
X88756787Y-112751453D01*
X88756805Y-112751459D01*
X88759946Y-112751618D01*
X88762861Y-112751834D01*
X88900000Y-112765341D01*
X88935203Y-112761873D01*
X88944500Y-112761653D01*
X88944498Y-112761610D01*
X88950766Y-112761291D01*
X88950780Y-112761292D01*
X88951208Y-112761226D01*
X88966546Y-112758877D01*
X88969846Y-112758461D01*
X89096132Y-112746024D01*
X89134291Y-112734448D01*
X89150809Y-112730699D01*
X89151290Y-112730574D01*
X89151299Y-112730573D01*
X89168703Y-112724127D01*
X89172227Y-112722940D01*
X89284727Y-112688814D01*
X89327653Y-112665869D01*
X89335333Y-112662415D01*
X89347671Y-112657846D01*
X89349294Y-112657733D01*
X89353361Y-112655739D01*
X89370806Y-112649278D01*
X89395763Y-112629463D01*
X89458538Y-112595910D01*
X89499629Y-112562186D01*
X89506133Y-112557521D01*
X89513096Y-112553181D01*
X89516523Y-112552226D01*
X89524385Y-112546141D01*
X89538415Y-112537395D01*
X89557847Y-112514407D01*
X89610883Y-112470883D01*
X89644967Y-112429351D01*
X89653340Y-112423647D01*
X89653512Y-112423401D01*
X89669861Y-112404357D01*
X89680284Y-112394448D01*
X89693949Y-112369667D01*
X89735910Y-112318538D01*
X89761697Y-112270293D01*
X89770069Y-112261769D01*
X89771629Y-112258136D01*
X89783806Y-112236197D01*
X89790791Y-112226160D01*
X89798745Y-112200980D01*
X89828814Y-112144727D01*
X89845082Y-112091098D01*
X89852588Y-112079642D01*
X89854058Y-112072494D01*
X89861570Y-112048552D01*
X89865511Y-112039366D01*
X89868148Y-112015058D01*
X89886024Y-111956132D01*
X89893116Y-111884122D01*
X89894083Y-111877739D01*
X89897435Y-111861429D01*
X89897435Y-111861426D01*
X89901518Y-111841560D01*
X89899506Y-111819240D01*
X89905341Y-111760000D01*
X100594659Y-111760000D01*
X100613975Y-111956129D01*
X100613976Y-111956132D01*
X100642011Y-112048552D01*
X100671188Y-112144733D01*
X100764086Y-112318532D01*
X100764090Y-112318539D01*
X100889116Y-112470883D01*
X101041460Y-112595909D01*
X101041467Y-112595913D01*
X101041469Y-112595914D01*
X101215273Y-112688814D01*
X101245937Y-112698116D01*
X101249436Y-112699294D01*
X101251796Y-112700168D01*
X101251799Y-112700170D01*
X101258005Y-112701776D01*
X101403868Y-112746024D01*
X101434662Y-112749056D01*
X101441911Y-112750344D01*
X101441955Y-112750063D01*
X101448178Y-112751016D01*
X101448182Y-112751017D01*
X101456787Y-112751453D01*
X101456805Y-112751459D01*
X101459946Y-112751618D01*
X101462861Y-112751834D01*
X101600000Y-112765341D01*
X101635203Y-112761873D01*
X101644500Y-112761653D01*
X101644498Y-112761610D01*
X101650766Y-112761291D01*
X101650780Y-112761292D01*
X101651208Y-112761226D01*
X101666546Y-112758877D01*
X101669846Y-112758461D01*
X101796132Y-112746024D01*
X101834291Y-112734448D01*
X101850809Y-112730699D01*
X101851290Y-112730574D01*
X101851299Y-112730573D01*
X101868703Y-112724127D01*
X101872227Y-112722940D01*
X101984727Y-112688814D01*
X102027653Y-112665869D01*
X102035333Y-112662415D01*
X102047671Y-112657846D01*
X102049294Y-112657733D01*
X102053361Y-112655739D01*
X102070806Y-112649278D01*
X102095763Y-112629463D01*
X102158538Y-112595910D01*
X102199629Y-112562186D01*
X102206133Y-112557521D01*
X102213096Y-112553181D01*
X102216523Y-112552226D01*
X102224385Y-112546141D01*
X102238415Y-112537395D01*
X102257847Y-112514407D01*
X102310883Y-112470883D01*
X102344967Y-112429351D01*
X102353340Y-112423647D01*
X102353512Y-112423401D01*
X102369861Y-112404357D01*
X102380284Y-112394448D01*
X102393949Y-112369667D01*
X102435910Y-112318538D01*
X102461697Y-112270293D01*
X102470069Y-112261769D01*
X102471629Y-112258136D01*
X102483806Y-112236197D01*
X102490791Y-112226160D01*
X102498745Y-112200980D01*
X102528814Y-112144727D01*
X102545082Y-112091098D01*
X102552588Y-112079642D01*
X102554058Y-112072494D01*
X102561570Y-112048552D01*
X102565511Y-112039366D01*
X102568148Y-112015058D01*
X102586024Y-111956132D01*
X102593116Y-111884122D01*
X102594083Y-111877739D01*
X102597435Y-111861429D01*
X102597435Y-111861426D01*
X102601518Y-111841560D01*
X102599506Y-111819240D01*
X102605341Y-111760000D01*
X102599506Y-111700759D01*
X102602673Y-111684058D01*
X102594085Y-111642270D01*
X102593114Y-111635860D01*
X102586024Y-111563868D01*
X102586024Y-111563867D01*
X102568149Y-111504945D01*
X102567984Y-111486392D01*
X102561570Y-111471446D01*
X102554058Y-111447506D01*
X102553519Y-111444885D01*
X102545083Y-111428904D01*
X102528814Y-111375273D01*
X102528813Y-111375272D01*
X102528813Y-111375270D01*
X102498746Y-111319019D01*
X102494660Y-111299395D01*
X102483807Y-111283802D01*
X102471691Y-111261974D01*
X102461696Y-111249705D01*
X102435910Y-111201462D01*
X102393947Y-111150331D01*
X102385547Y-111130551D01*
X102369858Y-111115638D01*
X102356720Y-111100334D01*
X102344964Y-111090645D01*
X102310882Y-111049115D01*
X102257848Y-111005591D01*
X102244973Y-110986689D01*
X102224384Y-110973856D01*
X102218403Y-110969226D01*
X102213073Y-110966804D01*
X102206145Y-110962485D01*
X102199611Y-110957798D01*
X102158538Y-110924090D01*
X102158537Y-110924089D01*
X102158532Y-110924085D01*
X102095761Y-110890534D01*
X102078483Y-110873562D01*
X102053359Y-110864258D01*
X102050287Y-110862751D01*
X102047673Y-110862152D01*
X102035330Y-110857582D01*
X102027624Y-110854115D01*
X101984726Y-110831185D01*
X101872253Y-110797066D01*
X101868721Y-110795878D01*
X101851295Y-110789425D01*
X101850874Y-110789316D01*
X101834276Y-110785547D01*
X101796130Y-110773975D01*
X101669867Y-110761539D01*
X101666555Y-110761123D01*
X101650804Y-110758709D01*
X101644504Y-110758390D01*
X101644506Y-110758347D01*
X101635205Y-110758125D01*
X101600003Y-110754659D01*
X101599999Y-110754659D01*
X101462932Y-110768157D01*
X101460014Y-110768375D01*
X101456830Y-110768537D01*
X101456797Y-110768546D01*
X101448177Y-110768983D01*
X101441974Y-110769934D01*
X101441931Y-110769654D01*
X101434679Y-110770941D01*
X101403869Y-110773975D01*
X101258009Y-110818221D01*
X101251793Y-110819831D01*
X101249430Y-110820706D01*
X101245903Y-110821893D01*
X101215270Y-110831186D01*
X101041467Y-110924086D01*
X101041460Y-110924090D01*
X100889116Y-111049116D01*
X100764090Y-111201460D01*
X100764086Y-111201467D01*
X100671188Y-111375266D01*
X100613975Y-111563870D01*
X100594659Y-111760000D01*
X89905341Y-111760000D01*
X89899506Y-111700759D01*
X89902673Y-111684058D01*
X89894085Y-111642270D01*
X89893114Y-111635860D01*
X89886024Y-111563868D01*
X89886024Y-111563867D01*
X89868149Y-111504945D01*
X89867984Y-111486392D01*
X89861570Y-111471446D01*
X89854058Y-111447506D01*
X89853519Y-111444885D01*
X89845083Y-111428904D01*
X89828814Y-111375273D01*
X89828813Y-111375272D01*
X89828813Y-111375270D01*
X89798746Y-111319019D01*
X89794660Y-111299395D01*
X89783807Y-111283802D01*
X89771691Y-111261974D01*
X89761696Y-111249705D01*
X89735910Y-111201462D01*
X89693947Y-111150331D01*
X89685547Y-111130551D01*
X89669858Y-111115638D01*
X89656720Y-111100334D01*
X89644964Y-111090645D01*
X89610882Y-111049115D01*
X89557848Y-111005591D01*
X89544973Y-110986689D01*
X89524384Y-110973856D01*
X89518403Y-110969226D01*
X89513073Y-110966804D01*
X89506145Y-110962485D01*
X89499611Y-110957798D01*
X89458538Y-110924090D01*
X89458537Y-110924089D01*
X89458532Y-110924085D01*
X89395761Y-110890534D01*
X89378483Y-110873562D01*
X89353359Y-110864258D01*
X89350287Y-110862751D01*
X89347673Y-110862152D01*
X89335330Y-110857582D01*
X89327624Y-110854115D01*
X89284726Y-110831185D01*
X89172253Y-110797066D01*
X89168721Y-110795878D01*
X89151295Y-110789425D01*
X89150874Y-110789316D01*
X89134276Y-110785547D01*
X89096130Y-110773975D01*
X88969867Y-110761539D01*
X88966555Y-110761123D01*
X88950804Y-110758709D01*
X88944504Y-110758390D01*
X88944506Y-110758347D01*
X88935205Y-110758125D01*
X88900003Y-110754659D01*
X88899999Y-110754659D01*
X88762932Y-110768157D01*
X88760014Y-110768375D01*
X88756830Y-110768537D01*
X88756797Y-110768546D01*
X88748177Y-110768983D01*
X88741974Y-110769934D01*
X88741931Y-110769654D01*
X88734679Y-110770941D01*
X88703869Y-110773975D01*
X88558009Y-110818221D01*
X88551793Y-110819831D01*
X88549430Y-110820706D01*
X88545903Y-110821893D01*
X88515270Y-110831186D01*
X88341467Y-110924086D01*
X88341460Y-110924090D01*
X88189116Y-111049116D01*
X88064090Y-111201460D01*
X88064086Y-111201467D01*
X87971188Y-111375266D01*
X87913975Y-111563870D01*
X87894659Y-111760000D01*
X83820500Y-111760000D01*
X83820500Y-80542001D01*
X149796532Y-80542001D01*
X149816364Y-80768686D01*
X149816366Y-80768697D01*
X149875258Y-80988488D01*
X149875261Y-80988497D01*
X149971431Y-81194732D01*
X149971432Y-81194734D01*
X150101954Y-81381141D01*
X150262858Y-81542045D01*
X150262861Y-81542047D01*
X150449266Y-81672568D01*
X150655504Y-81768739D01*
X150875308Y-81827635D01*
X151037230Y-81841801D01*
X151101998Y-81847468D01*
X151102000Y-81847468D01*
X151102002Y-81847468D01*
X151158672Y-81842509D01*
X151328692Y-81827635D01*
X151548496Y-81768739D01*
X151754734Y-81672568D01*
X151941139Y-81542047D01*
X152102047Y-81381139D01*
X152232568Y-81194734D01*
X152328739Y-80988496D01*
X152387635Y-80768692D01*
X152407468Y-80542000D01*
X152404084Y-80503326D01*
X152396025Y-80411204D01*
X152387635Y-80315308D01*
X152381389Y-80291999D01*
X159823127Y-80291999D01*
X159823128Y-80292000D01*
X160591424Y-80292000D01*
X160658463Y-80311685D01*
X160704218Y-80364489D01*
X160714162Y-80433647D01*
X160713897Y-80435397D01*
X160697014Y-80541996D01*
X160697014Y-80542003D01*
X160713897Y-80648603D01*
X160704942Y-80717896D01*
X160659946Y-80771348D01*
X160593194Y-80791987D01*
X160591424Y-80792000D01*
X159823128Y-80792000D01*
X159875730Y-80988317D01*
X159875734Y-80988326D01*
X159971865Y-81194482D01*
X160102342Y-81380820D01*
X160263179Y-81541657D01*
X160449517Y-81672134D01*
X160655673Y-81768265D01*
X160655682Y-81768269D01*
X160851999Y-81820872D01*
X160852000Y-81820871D01*
X160852000Y-81052575D01*
X160871685Y-80985536D01*
X160924489Y-80939781D01*
X160993647Y-80929837D01*
X160995331Y-80930091D01*
X161027699Y-80935218D01*
X161070515Y-80942000D01*
X161070519Y-80942000D01*
X161133485Y-80942000D01*
X161176300Y-80935218D01*
X161208602Y-80930102D01*
X161277894Y-80939056D01*
X161331347Y-80984052D01*
X161351987Y-81050803D01*
X161352000Y-81052575D01*
X161352000Y-81820872D01*
X161548317Y-81768269D01*
X161548326Y-81768265D01*
X161754482Y-81672134D01*
X161940820Y-81541657D01*
X162101657Y-81380820D01*
X162232134Y-81194482D01*
X162310697Y-81026001D01*
X186000773Y-81026001D01*
X186019657Y-81290027D01*
X186019658Y-81290034D01*
X186075921Y-81548673D01*
X186168426Y-81796690D01*
X186168428Y-81796694D01*
X186295280Y-82029005D01*
X186295285Y-82029013D01*
X186453906Y-82240907D01*
X186453922Y-82240925D01*
X186641074Y-82428077D01*
X186641092Y-82428093D01*
X186852986Y-82586714D01*
X186852994Y-82586719D01*
X187085305Y-82713571D01*
X187085309Y-82713573D01*
X187085311Y-82713574D01*
X187333322Y-82806077D01*
X187333325Y-82806077D01*
X187333326Y-82806078D01*
X187498449Y-82841998D01*
X187591974Y-82862343D01*
X187835660Y-82879772D01*
X187855999Y-82881227D01*
X187856000Y-82881227D01*
X187856001Y-82881227D01*
X187874885Y-82879876D01*
X188120026Y-82862343D01*
X188378678Y-82806077D01*
X188626689Y-82713574D01*
X188859011Y-82586716D01*
X189070915Y-82428087D01*
X189258087Y-82240915D01*
X189416716Y-82029011D01*
X189543574Y-81796689D01*
X189636077Y-81548678D01*
X189692343Y-81290026D01*
X189711227Y-81026001D01*
X198340773Y-81026001D01*
X198359657Y-81290027D01*
X198359658Y-81290034D01*
X198415921Y-81548673D01*
X198508426Y-81796690D01*
X198508428Y-81796694D01*
X198635280Y-82029005D01*
X198635285Y-82029013D01*
X198793906Y-82240907D01*
X198793922Y-82240925D01*
X198981074Y-82428077D01*
X198981092Y-82428093D01*
X199192986Y-82586714D01*
X199192994Y-82586719D01*
X199425305Y-82713571D01*
X199425309Y-82713573D01*
X199425311Y-82713574D01*
X199673322Y-82806077D01*
X199673325Y-82806077D01*
X199673326Y-82806078D01*
X199838449Y-82841998D01*
X199931974Y-82862343D01*
X200175660Y-82879772D01*
X200195999Y-82881227D01*
X200196000Y-82881227D01*
X200196001Y-82881227D01*
X200214884Y-82879876D01*
X200460026Y-82862343D01*
X200718678Y-82806077D01*
X200966689Y-82713574D01*
X201199011Y-82586716D01*
X201410915Y-82428087D01*
X201598087Y-82240915D01*
X201756716Y-82029011D01*
X201883574Y-81796689D01*
X201976077Y-81548678D01*
X202032343Y-81290026D01*
X202051227Y-81026000D01*
X202032343Y-80761974D01*
X201999863Y-80612664D01*
X201976078Y-80503326D01*
X201973888Y-80497455D01*
X201883574Y-80255311D01*
X201861212Y-80214359D01*
X201756719Y-80022994D01*
X201756714Y-80022986D01*
X201598093Y-79811092D01*
X201598077Y-79811074D01*
X201410925Y-79623922D01*
X201410907Y-79623906D01*
X201199013Y-79465285D01*
X201199005Y-79465280D01*
X200966694Y-79338428D01*
X200966690Y-79338426D01*
X200718673Y-79245921D01*
X200460034Y-79189658D01*
X200460027Y-79189657D01*
X200196001Y-79170773D01*
X200195999Y-79170773D01*
X199931972Y-79189657D01*
X199931965Y-79189658D01*
X199673326Y-79245921D01*
X199425309Y-79338426D01*
X199425305Y-79338428D01*
X199192994Y-79465280D01*
X199192986Y-79465285D01*
X198981092Y-79623906D01*
X198981074Y-79623922D01*
X198793922Y-79811074D01*
X198793906Y-79811092D01*
X198635285Y-80022986D01*
X198635280Y-80022994D01*
X198508428Y-80255305D01*
X198508426Y-80255309D01*
X198415921Y-80503326D01*
X198359658Y-80761965D01*
X198359657Y-80761972D01*
X198340773Y-81025998D01*
X198340773Y-81026001D01*
X189711227Y-81026001D01*
X189711227Y-81026000D01*
X189692343Y-80761974D01*
X189659863Y-80612664D01*
X189636078Y-80503326D01*
X189633888Y-80497455D01*
X189543574Y-80255311D01*
X189521212Y-80214359D01*
X189416719Y-80022994D01*
X189416714Y-80022986D01*
X189258093Y-79811092D01*
X189258077Y-79811074D01*
X189070925Y-79623922D01*
X189070907Y-79623906D01*
X188859013Y-79465285D01*
X188859005Y-79465280D01*
X188626694Y-79338428D01*
X188626690Y-79338426D01*
X188378673Y-79245921D01*
X188120034Y-79189658D01*
X188120027Y-79189657D01*
X187856001Y-79170773D01*
X187855999Y-79170773D01*
X187591972Y-79189657D01*
X187591965Y-79189658D01*
X187333326Y-79245921D01*
X187085309Y-79338426D01*
X187085305Y-79338428D01*
X186852994Y-79465280D01*
X186852986Y-79465285D01*
X186641092Y-79623906D01*
X186641074Y-79623922D01*
X186453922Y-79811074D01*
X186453906Y-79811092D01*
X186295285Y-80022986D01*
X186295280Y-80022994D01*
X186168428Y-80255305D01*
X186168426Y-80255309D01*
X186075921Y-80503326D01*
X186019658Y-80761965D01*
X186019657Y-80761972D01*
X186000773Y-81025998D01*
X186000773Y-81026001D01*
X162310697Y-81026001D01*
X162328265Y-80988326D01*
X162328269Y-80988317D01*
X162380872Y-80792000D01*
X161612576Y-80792000D01*
X161545537Y-80772315D01*
X161499782Y-80719511D01*
X161489838Y-80650353D01*
X161490103Y-80648603D01*
X161506986Y-80542003D01*
X161506986Y-80541996D01*
X161490103Y-80435397D01*
X161499058Y-80366104D01*
X161544054Y-80312652D01*
X161610806Y-80292013D01*
X161612576Y-80292000D01*
X162380872Y-80292000D01*
X162380872Y-80291999D01*
X162328269Y-80095682D01*
X162328265Y-80095673D01*
X162232134Y-79889517D01*
X162101657Y-79703179D01*
X161940820Y-79542342D01*
X161754482Y-79411865D01*
X161548328Y-79315734D01*
X161352000Y-79263127D01*
X161352000Y-80031424D01*
X161332315Y-80098463D01*
X161279511Y-80144218D01*
X161210353Y-80154162D01*
X161208602Y-80153897D01*
X161133486Y-80142000D01*
X161133481Y-80142000D01*
X161070519Y-80142000D01*
X161070514Y-80142000D01*
X160995398Y-80153897D01*
X160926104Y-80144942D01*
X160872652Y-80099946D01*
X160852013Y-80033194D01*
X160852000Y-80031424D01*
X160852000Y-79263127D01*
X160655671Y-79315734D01*
X160449517Y-79411865D01*
X160263179Y-79542342D01*
X160102342Y-79703179D01*
X159971865Y-79889517D01*
X159875734Y-80095673D01*
X159875730Y-80095682D01*
X159823127Y-80291999D01*
X152381389Y-80291999D01*
X152328739Y-80095504D01*
X152232568Y-79889266D01*
X152102047Y-79702861D01*
X152102045Y-79702858D01*
X151941141Y-79541954D01*
X151754734Y-79411432D01*
X151754732Y-79411431D01*
X151548497Y-79315261D01*
X151548488Y-79315258D01*
X151328697Y-79256366D01*
X151328693Y-79256365D01*
X151328692Y-79256365D01*
X151328691Y-79256364D01*
X151328686Y-79256364D01*
X151102002Y-79236532D01*
X151101998Y-79236532D01*
X150875313Y-79256364D01*
X150875302Y-79256366D01*
X150655511Y-79315258D01*
X150655502Y-79315261D01*
X150449267Y-79411431D01*
X150449265Y-79411432D01*
X150262858Y-79541954D01*
X150101954Y-79702858D01*
X149971432Y-79889265D01*
X149971431Y-79889267D01*
X149875261Y-80095502D01*
X149875258Y-80095511D01*
X149816366Y-80315302D01*
X149816364Y-80315313D01*
X149796532Y-80541998D01*
X149796532Y-80542001D01*
X83820500Y-80542001D01*
X83820500Y-75892001D01*
X149796532Y-75892001D01*
X149816364Y-76118686D01*
X149816366Y-76118697D01*
X149875258Y-76338488D01*
X149875261Y-76338497D01*
X149971431Y-76544732D01*
X149971432Y-76544734D01*
X150101954Y-76731141D01*
X150262858Y-76892045D01*
X150262861Y-76892047D01*
X150449266Y-77022568D01*
X150655504Y-77118739D01*
X150875308Y-77177635D01*
X151037230Y-77191801D01*
X151101998Y-77197468D01*
X151102000Y-77197468D01*
X151102002Y-77197468D01*
X151158672Y-77192509D01*
X151328692Y-77177635D01*
X151548496Y-77118739D01*
X151754734Y-77022568D01*
X151941139Y-76892047D01*
X152102047Y-76731139D01*
X152232568Y-76544734D01*
X152328739Y-76338496D01*
X152387635Y-76118692D01*
X152407468Y-75892000D01*
X152387635Y-75665308D01*
X152381389Y-75641999D01*
X159823127Y-75641999D01*
X159823128Y-75642000D01*
X160591424Y-75642000D01*
X160658463Y-75661685D01*
X160704218Y-75714489D01*
X160714162Y-75783647D01*
X160713897Y-75785397D01*
X160697014Y-75891996D01*
X160697014Y-75892003D01*
X160713897Y-75998603D01*
X160704942Y-76067896D01*
X160659946Y-76121348D01*
X160593194Y-76141987D01*
X160591424Y-76142000D01*
X159823128Y-76142000D01*
X159875730Y-76338317D01*
X159875734Y-76338326D01*
X159971865Y-76544482D01*
X160102342Y-76730820D01*
X160263179Y-76891657D01*
X160449517Y-77022134D01*
X160655673Y-77118265D01*
X160655682Y-77118269D01*
X160851999Y-77170872D01*
X160852000Y-77170871D01*
X160852000Y-76402575D01*
X160871685Y-76335536D01*
X160924489Y-76289781D01*
X160993647Y-76279837D01*
X160995331Y-76280091D01*
X161027699Y-76285218D01*
X161070515Y-76292000D01*
X161070519Y-76292000D01*
X161133485Y-76292000D01*
X161176300Y-76285218D01*
X161208602Y-76280102D01*
X161277894Y-76289056D01*
X161331347Y-76334052D01*
X161351987Y-76400803D01*
X161352000Y-76402575D01*
X161352000Y-77170872D01*
X161548317Y-77118269D01*
X161548326Y-77118265D01*
X161754482Y-77022134D01*
X161940820Y-76891657D01*
X162101657Y-76730820D01*
X162232134Y-76544482D01*
X162328265Y-76338326D01*
X162328269Y-76338317D01*
X162380872Y-76142000D01*
X161612576Y-76142000D01*
X161545537Y-76122315D01*
X161499782Y-76069511D01*
X161489838Y-76000353D01*
X161490103Y-75998603D01*
X161506986Y-75892003D01*
X161506986Y-75891996D01*
X161490103Y-75785397D01*
X161499058Y-75716104D01*
X161544054Y-75662652D01*
X161610806Y-75642013D01*
X161612576Y-75642000D01*
X162380872Y-75642000D01*
X162380872Y-75641999D01*
X162328269Y-75445682D01*
X162328265Y-75445673D01*
X162232134Y-75239517D01*
X162101657Y-75053179D01*
X161940820Y-74892342D01*
X161754482Y-74761865D01*
X161548328Y-74665734D01*
X161352000Y-74613127D01*
X161352000Y-75381424D01*
X161332315Y-75448463D01*
X161279511Y-75494218D01*
X161210353Y-75504162D01*
X161208602Y-75503897D01*
X161133486Y-75492000D01*
X161133481Y-75492000D01*
X161070519Y-75492000D01*
X161070514Y-75492000D01*
X160995398Y-75503897D01*
X160926104Y-75494942D01*
X160872652Y-75449946D01*
X160852013Y-75383194D01*
X160852000Y-75381424D01*
X160852000Y-74613127D01*
X160655671Y-74665734D01*
X160449517Y-74761865D01*
X160263179Y-74892342D01*
X160102342Y-75053179D01*
X159971865Y-75239517D01*
X159875734Y-75445673D01*
X159875730Y-75445682D01*
X159823127Y-75641999D01*
X152381389Y-75641999D01*
X152328739Y-75445504D01*
X152232568Y-75239266D01*
X152102047Y-75052861D01*
X152102045Y-75052858D01*
X151941141Y-74891954D01*
X151754734Y-74761432D01*
X151754732Y-74761431D01*
X151548497Y-74665261D01*
X151548488Y-74665258D01*
X151328697Y-74606366D01*
X151328693Y-74606365D01*
X151328692Y-74606365D01*
X151328691Y-74606364D01*
X151328686Y-74606364D01*
X151102002Y-74586532D01*
X151101998Y-74586532D01*
X150875313Y-74606364D01*
X150875302Y-74606366D01*
X150655511Y-74665258D01*
X150655502Y-74665261D01*
X150449267Y-74761431D01*
X150449265Y-74761432D01*
X150262858Y-74891954D01*
X150101954Y-75052858D01*
X149971432Y-75239265D01*
X149971431Y-75239267D01*
X149875261Y-75445502D01*
X149875258Y-75445511D01*
X149816366Y-75665302D01*
X149816364Y-75665313D01*
X149796532Y-75891998D01*
X149796532Y-75892001D01*
X83820500Y-75892001D01*
X83820500Y-71244500D01*
X83840185Y-71177461D01*
X83892989Y-71131706D01*
X83944500Y-71120500D01*
X233555500Y-71120500D01*
X233622539Y-71140185D01*
G37*
%TD.AperFunction*%
%TD*%
M02*
