%TF.GenerationSoftware,KiCad,Pcbnew,7.0.7*%
%TF.CreationDate,2023-12-03T21:02:50-03:00*%
%TF.ProjectId,Chocadeira,43686f63-6164-4656-9972-612e6b696361,rev?*%
%TF.SameCoordinates,Original*%
%TF.FileFunction,Drillmap*%
%TF.FilePolarity,Positive*%
%FSLAX45Y45*%
G04 Gerber Fmt 4.5, Leading zero omitted, Abs format (unit mm)*
G04 Created by KiCad (PCBNEW 7.0.7) date 2023-12-03 21:02:50*
%MOMM*%
%LPD*%
G01*
G04 APERTURE LIST*
%ADD10C,0.200000*%
%ADD11C,0.050000*%
%ADD12C,0.065000*%
%ADD13C,0.075000*%
%ADD14C,0.080000*%
%ADD15C,0.100000*%
%ADD16C,0.102000*%
%ADD17C,0.110000*%
%ADD18C,0.120000*%
%ADD19C,0.170000*%
G04 APERTURE END LIST*
D10*
D11*
X15673200Y-12498200D02*
X15723200Y-12548200D01*
X15723200Y-12498200D02*
X15673200Y-12548200D01*
X15673200Y-12598200D02*
X15723200Y-12648200D01*
X15723200Y-12598200D02*
X15673200Y-12648200D01*
X16105000Y-12474400D02*
X16155000Y-12524400D01*
X16155000Y-12474400D02*
X16105000Y-12524400D01*
X16105000Y-12574400D02*
X16155000Y-12624400D01*
X16155000Y-12574400D02*
X16105000Y-12624400D01*
D12*
X14892500Y-12802600D02*
G75*
G03*
X14892500Y-12802600I-32500J0D01*
G01*
X14892500Y-12929600D02*
G75*
G03*
X14892500Y-12929600I-32500J0D01*
G01*
X14892500Y-13056600D02*
G75*
G03*
X14892500Y-13056600I-32500J0D01*
G01*
D13*
X12955000Y-12641300D02*
X12955000Y-12716300D01*
X12917500Y-12678800D02*
X12992500Y-12678800D01*
X12955000Y-12841300D02*
X12955000Y-12916300D01*
X12917500Y-12878800D02*
X12992500Y-12878800D01*
D14*
X12119684Y-10697285D02*
X12119684Y-10640716D01*
X12063115Y-10640716D01*
X12063115Y-10697285D01*
X12119684Y-10697285D01*
X12119684Y-10951285D02*
X12119684Y-10894716D01*
X12063115Y-10894716D01*
X12063115Y-10951285D01*
X12119684Y-10951285D01*
X12119684Y-11205284D02*
X12119684Y-11148716D01*
X12063115Y-11148716D01*
X12063115Y-11205284D01*
X12119684Y-11205284D01*
X12119684Y-11459284D02*
X12119684Y-11402715D01*
X12063115Y-11402715D01*
X12063115Y-11459284D01*
X12119684Y-11459284D01*
X12474284Y-8080084D02*
X12474284Y-8023515D01*
X12417715Y-8023515D01*
X12417715Y-8080084D01*
X12474284Y-8080084D01*
X12728284Y-8080084D02*
X12728284Y-8023515D01*
X12671715Y-8023515D01*
X12671715Y-8080084D01*
X12728284Y-8080084D01*
X12881684Y-10697285D02*
X12881684Y-10640716D01*
X12825115Y-10640716D01*
X12825115Y-10697285D01*
X12881684Y-10697285D01*
X12881684Y-10951285D02*
X12881684Y-10894716D01*
X12825115Y-10894716D01*
X12825115Y-10951285D01*
X12881684Y-10951285D01*
X12881684Y-11205284D02*
X12881684Y-11148716D01*
X12825115Y-11148716D01*
X12825115Y-11205284D01*
X12881684Y-11205284D01*
X12881684Y-11459284D02*
X12881684Y-11402715D01*
X12825115Y-11402715D01*
X12825115Y-11459284D01*
X12881684Y-11459284D01*
X12982284Y-8080084D02*
X12982284Y-8023515D01*
X12925715Y-8023515D01*
X12925715Y-8080084D01*
X12982284Y-8080084D01*
X13236284Y-8080084D02*
X13236284Y-8023515D01*
X13179715Y-8023515D01*
X13179715Y-8080084D01*
X13236284Y-8080084D01*
X15138484Y-7617484D02*
X15138484Y-7560915D01*
X15081915Y-7560915D01*
X15081915Y-7617484D01*
X15138484Y-7617484D01*
X15138484Y-8082484D02*
X15138484Y-8025915D01*
X15081915Y-8025915D01*
X15081915Y-8082484D01*
X15138484Y-8082484D01*
X16138484Y-7617484D02*
X16138484Y-7560915D01*
X16081915Y-7560915D01*
X16081915Y-7617484D01*
X16138484Y-7617484D01*
X16138484Y-8082484D02*
X16138484Y-8025915D01*
X16081915Y-8025915D01*
X16081915Y-8082484D01*
X16138484Y-8082484D01*
X17747085Y-9553285D02*
X17747085Y-9496716D01*
X17690516Y-9496716D01*
X17690516Y-9553285D01*
X17747085Y-9553285D01*
X17747085Y-10315285D02*
X17747085Y-10258716D01*
X17690516Y-10258716D01*
X17690516Y-10315285D01*
X17747085Y-10315285D01*
X18001085Y-9553285D02*
X18001085Y-9496716D01*
X17944516Y-9496716D01*
X17944516Y-9553285D01*
X18001085Y-9553285D01*
X18001085Y-10315285D02*
X18001085Y-10258716D01*
X17944516Y-10258716D01*
X17944516Y-10315285D01*
X18001085Y-10315285D01*
X18255085Y-9553285D02*
X18255085Y-9496716D01*
X18198516Y-9496716D01*
X18198516Y-9553285D01*
X18255085Y-9553285D01*
X18255085Y-10315285D02*
X18255085Y-10258716D01*
X18198516Y-10258716D01*
X18198516Y-10315285D01*
X18255085Y-10315285D01*
X18509085Y-9553285D02*
X18509085Y-9496716D01*
X18452516Y-9496716D01*
X18452516Y-9553285D01*
X18509085Y-9553285D01*
X18509085Y-10315285D02*
X18509085Y-10258716D01*
X18452516Y-10258716D01*
X18452516Y-10315285D01*
X18509085Y-10315285D01*
X18763085Y-9553285D02*
X18763085Y-9496716D01*
X18706516Y-9496716D01*
X18706516Y-9553285D01*
X18763085Y-9553285D01*
X18763085Y-10315285D02*
X18763085Y-10258716D01*
X18706516Y-10258716D01*
X18706516Y-10315285D01*
X18763085Y-10315285D01*
X19017085Y-9553285D02*
X19017085Y-9496716D01*
X18960516Y-9496716D01*
X18960516Y-9553285D01*
X19017085Y-9553285D01*
X19017085Y-10315285D02*
X19017085Y-10258716D01*
X18960516Y-10258716D01*
X18960516Y-10315285D01*
X19017085Y-10315285D01*
X19271085Y-9553285D02*
X19271085Y-9496716D01*
X19214516Y-9496716D01*
X19214516Y-9553285D01*
X19271085Y-9553285D01*
X19271085Y-10315285D02*
X19271085Y-10258716D01*
X19214516Y-10258716D01*
X19214516Y-10315285D01*
X19271085Y-10315285D01*
X19525085Y-9553285D02*
X19525085Y-9496716D01*
X19468516Y-9496716D01*
X19468516Y-9553285D01*
X19525085Y-9553285D01*
X19525085Y-10315285D02*
X19525085Y-10258716D01*
X19468516Y-10258716D01*
X19468516Y-10315285D01*
X19525085Y-10315285D01*
X19779085Y-9553285D02*
X19779085Y-9496716D01*
X19722516Y-9496716D01*
X19722516Y-9553285D01*
X19779085Y-9553285D01*
X19779085Y-10315285D02*
X19779085Y-10258716D01*
X19722516Y-10258716D01*
X19722516Y-10315285D01*
X19779085Y-10315285D01*
X20033085Y-9553285D02*
X20033085Y-9496716D01*
X19976516Y-9496716D01*
X19976516Y-9553285D01*
X20033085Y-9553285D01*
X20033085Y-10315285D02*
X20033085Y-10258716D01*
X19976516Y-10258716D01*
X19976516Y-10315285D01*
X20033085Y-10315285D01*
X20287085Y-9553285D02*
X20287085Y-9496716D01*
X20230516Y-9496716D01*
X20230516Y-9553285D01*
X20287085Y-9553285D01*
X20287085Y-10315285D02*
X20287085Y-10258716D01*
X20230516Y-10258716D01*
X20230516Y-10315285D01*
X20287085Y-10315285D01*
X20541085Y-9553285D02*
X20541085Y-9496716D01*
X20484516Y-9496716D01*
X20484516Y-9553285D01*
X20541085Y-9553285D01*
X20541085Y-10315285D02*
X20541085Y-10258716D01*
X20484516Y-10258716D01*
X20484516Y-10315285D01*
X20541085Y-10315285D01*
X20795085Y-9553285D02*
X20795085Y-9496716D01*
X20738516Y-9496716D01*
X20738516Y-9553285D01*
X20795085Y-9553285D01*
X20795085Y-10315285D02*
X20795085Y-10258716D01*
X20738516Y-10258716D01*
X20738516Y-10315285D01*
X20795085Y-10315285D01*
X21049085Y-9553285D02*
X21049085Y-9496716D01*
X20992516Y-9496716D01*
X20992516Y-9553285D01*
X21049085Y-9553285D01*
X21049085Y-10315285D02*
X21049085Y-10258716D01*
X20992516Y-10258716D01*
X20992516Y-10315285D01*
X21049085Y-10315285D01*
D15*
X15418200Y-9439200D02*
X15468200Y-9389200D01*
X15418200Y-9339200D01*
X15368200Y-9389200D01*
X15418200Y-9439200D01*
X15418200Y-10094200D02*
X15468200Y-10044200D01*
X15418200Y-9994200D01*
X15368200Y-10044200D01*
X15418200Y-10094200D01*
X15918200Y-9439200D02*
X15968200Y-9389200D01*
X15918200Y-9339200D01*
X15868200Y-9389200D01*
X15918200Y-9439200D01*
X15918200Y-10094200D02*
X15968200Y-10044200D01*
X15918200Y-9994200D01*
X15868200Y-10044200D01*
X15918200Y-10094200D01*
D16*
X18999000Y-12064800D02*
X19101000Y-12166800D01*
X19101000Y-12064800D02*
X18999000Y-12166800D01*
X19101000Y-12115800D02*
G75*
G03*
X19101000Y-12115800I-51000J0D01*
G01*
X19253000Y-12064800D02*
X19355000Y-12166800D01*
X19355000Y-12064800D02*
X19253000Y-12166800D01*
X19355000Y-12115800D02*
G75*
G03*
X19355000Y-12115800I-51000J0D01*
G01*
X19507000Y-12064800D02*
X19609000Y-12166800D01*
X19609000Y-12064800D02*
X19507000Y-12166800D01*
X19609000Y-12115800D02*
G75*
G03*
X19609000Y-12115800I-51000J0D01*
G01*
X19761000Y-12064800D02*
X19863000Y-12166800D01*
X19863000Y-12064800D02*
X19761000Y-12166800D01*
X19863000Y-12115800D02*
G75*
G03*
X19863000Y-12115800I-51000J0D01*
G01*
D17*
X15221200Y-8624200D02*
X15331200Y-8734200D01*
X15331200Y-8624200D02*
X15221200Y-8734200D01*
X15276200Y-8624200D02*
X15276200Y-8734200D01*
X15221200Y-8679200D02*
X15331200Y-8679200D01*
X15475200Y-8624200D02*
X15585200Y-8734200D01*
X15585200Y-8624200D02*
X15475200Y-8734200D01*
X15530200Y-8624200D02*
X15530200Y-8734200D01*
X15475200Y-8679200D02*
X15585200Y-8679200D01*
X15729200Y-8624200D02*
X15839200Y-8734200D01*
X15839200Y-8624200D02*
X15729200Y-8734200D01*
X15784200Y-8624200D02*
X15784200Y-8734200D01*
X15729200Y-8679200D02*
X15839200Y-8679200D01*
D18*
X9664000Y-10836600D02*
X9784000Y-10956600D01*
X9784000Y-10836600D02*
X9664000Y-10956600D01*
X9766427Y-10939027D02*
X9766427Y-10854173D01*
X9681573Y-10854173D01*
X9681573Y-10939027D01*
X9766427Y-10939027D01*
X9689800Y-8322000D02*
X9809800Y-8442000D01*
X9809800Y-8322000D02*
X9689800Y-8442000D01*
X9792227Y-8424427D02*
X9792227Y-8339573D01*
X9707373Y-8339573D01*
X9707373Y-8424427D01*
X9792227Y-8424427D01*
X10164000Y-10836600D02*
X10284000Y-10956600D01*
X10284000Y-10836600D02*
X10164000Y-10956600D01*
X10266427Y-10939027D02*
X10266427Y-10854173D01*
X10181573Y-10854173D01*
X10181573Y-10939027D01*
X10266427Y-10939027D01*
X10189800Y-8322000D02*
X10309800Y-8442000D01*
X10309800Y-8322000D02*
X10189800Y-8442000D01*
X10292227Y-8424427D02*
X10292227Y-8339573D01*
X10207373Y-8339573D01*
X10207373Y-8424427D01*
X10292227Y-8424427D01*
X17034200Y-14037000D02*
X17154200Y-14157000D01*
X17154200Y-14037000D02*
X17034200Y-14157000D01*
X17136627Y-14139427D02*
X17136627Y-14054573D01*
X17051773Y-14054573D01*
X17051773Y-14139427D01*
X17136627Y-14139427D01*
X17059600Y-13376600D02*
X17179600Y-13496600D01*
X17179600Y-13376600D02*
X17059600Y-13496600D01*
X17162027Y-13479027D02*
X17162027Y-13394173D01*
X17077173Y-13394173D01*
X17077173Y-13479027D01*
X17162027Y-13479027D01*
X17059600Y-14672000D02*
X17179600Y-14792000D01*
X17179600Y-14672000D02*
X17059600Y-14792000D01*
X17162027Y-14774427D02*
X17162027Y-14689573D01*
X17077173Y-14689573D01*
X17077173Y-14774427D01*
X17162027Y-14774427D01*
X19066200Y-14037000D02*
X19186200Y-14157000D01*
X19186200Y-14037000D02*
X19066200Y-14157000D01*
X19168627Y-14139427D02*
X19168627Y-14054573D01*
X19083773Y-14054573D01*
X19083773Y-14139427D01*
X19168627Y-14139427D01*
X19091600Y-13376600D02*
X19211600Y-13496600D01*
X19211600Y-13376600D02*
X19091600Y-13496600D01*
X19194027Y-13479027D02*
X19194027Y-13394173D01*
X19109173Y-13394173D01*
X19109173Y-13479027D01*
X19194027Y-13479027D01*
X19091600Y-14672000D02*
X19211600Y-14792000D01*
X19211600Y-14672000D02*
X19091600Y-14792000D01*
X19194027Y-14774427D02*
X19194027Y-14689573D01*
X19109173Y-14689573D01*
X19109173Y-14774427D01*
X19194027Y-14774427D01*
D19*
X18700600Y-8017600D02*
X18870600Y-8187600D01*
X18870600Y-8017600D02*
X18700600Y-8187600D01*
X18785600Y-8187600D02*
X18870600Y-8102600D01*
X18785600Y-8017600D01*
X18700600Y-8102600D01*
X18785600Y-8187600D01*
X19934600Y-8017600D02*
X20104600Y-8187600D01*
X20104600Y-8017600D02*
X19934600Y-8187600D01*
X20019600Y-8187600D02*
X20104600Y-8102600D01*
X20019600Y-8017600D01*
X19934600Y-8102600D01*
X20019600Y-8187600D01*
D10*
X260777Y-311484D02*
X260777Y-111484D01*
X260777Y-111484D02*
X308396Y-111484D01*
X308396Y-111484D02*
X336967Y-121008D01*
X336967Y-121008D02*
X356015Y-140055D01*
X356015Y-140055D02*
X365539Y-159103D01*
X365539Y-159103D02*
X375062Y-197198D01*
X375062Y-197198D02*
X375062Y-225769D01*
X375062Y-225769D02*
X365539Y-263865D01*
X365539Y-263865D02*
X356015Y-282912D01*
X356015Y-282912D02*
X336967Y-301960D01*
X336967Y-301960D02*
X308396Y-311484D01*
X308396Y-311484D02*
X260777Y-311484D01*
X460777Y-311484D02*
X460777Y-178150D01*
X460777Y-216246D02*
X470301Y-197198D01*
X470301Y-197198D02*
X479824Y-187674D01*
X479824Y-187674D02*
X498872Y-178150D01*
X498872Y-178150D02*
X517920Y-178150D01*
X584586Y-311484D02*
X584586Y-178150D01*
X584586Y-111484D02*
X575063Y-121008D01*
X575063Y-121008D02*
X584586Y-130531D01*
X584586Y-130531D02*
X594110Y-121008D01*
X594110Y-121008D02*
X584586Y-111484D01*
X584586Y-111484D02*
X584586Y-130531D01*
X708396Y-311484D02*
X689348Y-301960D01*
X689348Y-301960D02*
X679824Y-282912D01*
X679824Y-282912D02*
X679824Y-111484D01*
X813158Y-311484D02*
X794110Y-301960D01*
X794110Y-301960D02*
X784586Y-282912D01*
X784586Y-282912D02*
X784586Y-111484D01*
X1041729Y-311484D02*
X1041729Y-111484D01*
X1041729Y-111484D02*
X1108396Y-254341D01*
X1108396Y-254341D02*
X1175063Y-111484D01*
X1175063Y-111484D02*
X1175063Y-311484D01*
X1356015Y-311484D02*
X1356015Y-206722D01*
X1356015Y-206722D02*
X1346491Y-187674D01*
X1346491Y-187674D02*
X1327444Y-178150D01*
X1327444Y-178150D02*
X1289348Y-178150D01*
X1289348Y-178150D02*
X1270301Y-187674D01*
X1356015Y-301960D02*
X1336967Y-311484D01*
X1336967Y-311484D02*
X1289348Y-311484D01*
X1289348Y-311484D02*
X1270301Y-301960D01*
X1270301Y-301960D02*
X1260777Y-282912D01*
X1260777Y-282912D02*
X1260777Y-263865D01*
X1260777Y-263865D02*
X1270301Y-244817D01*
X1270301Y-244817D02*
X1289348Y-235293D01*
X1289348Y-235293D02*
X1336967Y-235293D01*
X1336967Y-235293D02*
X1356015Y-225769D01*
X1451253Y-178150D02*
X1451253Y-378150D01*
X1451253Y-187674D02*
X1470301Y-178150D01*
X1470301Y-178150D02*
X1508396Y-178150D01*
X1508396Y-178150D02*
X1527443Y-187674D01*
X1527443Y-187674D02*
X1536967Y-197198D01*
X1536967Y-197198D02*
X1546491Y-216246D01*
X1546491Y-216246D02*
X1546491Y-273389D01*
X1546491Y-273389D02*
X1536967Y-292436D01*
X1536967Y-292436D02*
X1527443Y-301960D01*
X1527443Y-301960D02*
X1508396Y-311484D01*
X1508396Y-311484D02*
X1470301Y-311484D01*
X1470301Y-311484D02*
X1451253Y-301960D01*
X1632205Y-292436D02*
X1641729Y-301960D01*
X1641729Y-301960D02*
X1632205Y-311484D01*
X1632205Y-311484D02*
X1622682Y-301960D01*
X1622682Y-301960D02*
X1632205Y-292436D01*
X1632205Y-292436D02*
X1632205Y-311484D01*
X1632205Y-187674D02*
X1641729Y-197198D01*
X1641729Y-197198D02*
X1632205Y-206722D01*
X1632205Y-206722D02*
X1622682Y-197198D01*
X1622682Y-197198D02*
X1632205Y-187674D01*
X1632205Y-187674D02*
X1632205Y-206722D01*
D11*
X-50000Y-615000D02*
X0Y-665000D01*
X0Y-615000D02*
X-50000Y-665000D01*
D10*
X298872Y-531484D02*
X317920Y-531484D01*
X317920Y-531484D02*
X336967Y-541008D01*
X336967Y-541008D02*
X346491Y-550531D01*
X346491Y-550531D02*
X356015Y-569579D01*
X356015Y-569579D02*
X365539Y-607674D01*
X365539Y-607674D02*
X365539Y-655293D01*
X365539Y-655293D02*
X356015Y-693389D01*
X356015Y-693389D02*
X346491Y-712436D01*
X346491Y-712436D02*
X336967Y-721960D01*
X336967Y-721960D02*
X317920Y-731484D01*
X317920Y-731484D02*
X298872Y-731484D01*
X298872Y-731484D02*
X279824Y-721960D01*
X279824Y-721960D02*
X270301Y-712436D01*
X270301Y-712436D02*
X260777Y-693389D01*
X260777Y-693389D02*
X251253Y-655293D01*
X251253Y-655293D02*
X251253Y-607674D01*
X251253Y-607674D02*
X260777Y-569579D01*
X260777Y-569579D02*
X270301Y-550531D01*
X270301Y-550531D02*
X279824Y-541008D01*
X279824Y-541008D02*
X298872Y-531484D01*
X451253Y-712436D02*
X460777Y-721960D01*
X460777Y-721960D02*
X451253Y-731484D01*
X451253Y-731484D02*
X441729Y-721960D01*
X441729Y-721960D02*
X451253Y-712436D01*
X451253Y-712436D02*
X451253Y-731484D01*
X641729Y-531484D02*
X546491Y-531484D01*
X546491Y-531484D02*
X536967Y-626722D01*
X536967Y-626722D02*
X546491Y-617198D01*
X546491Y-617198D02*
X565539Y-607674D01*
X565539Y-607674D02*
X613158Y-607674D01*
X613158Y-607674D02*
X632205Y-617198D01*
X632205Y-617198D02*
X641729Y-626722D01*
X641729Y-626722D02*
X651253Y-645770D01*
X651253Y-645770D02*
X651253Y-693389D01*
X651253Y-693389D02*
X641729Y-712436D01*
X641729Y-712436D02*
X632205Y-721960D01*
X632205Y-721960D02*
X613158Y-731484D01*
X613158Y-731484D02*
X565539Y-731484D01*
X565539Y-731484D02*
X546491Y-721960D01*
X546491Y-721960D02*
X536967Y-712436D01*
X775062Y-531484D02*
X794110Y-531484D01*
X794110Y-531484D02*
X813158Y-541008D01*
X813158Y-541008D02*
X822682Y-550531D01*
X822682Y-550531D02*
X832205Y-569579D01*
X832205Y-569579D02*
X841729Y-607674D01*
X841729Y-607674D02*
X841729Y-655293D01*
X841729Y-655293D02*
X832205Y-693389D01*
X832205Y-693389D02*
X822682Y-712436D01*
X822682Y-712436D02*
X813158Y-721960D01*
X813158Y-721960D02*
X794110Y-731484D01*
X794110Y-731484D02*
X775062Y-731484D01*
X775062Y-731484D02*
X756015Y-721960D01*
X756015Y-721960D02*
X746491Y-712436D01*
X746491Y-712436D02*
X736967Y-693389D01*
X736967Y-693389D02*
X727443Y-655293D01*
X727443Y-655293D02*
X727443Y-607674D01*
X727443Y-607674D02*
X736967Y-569579D01*
X736967Y-569579D02*
X746491Y-550531D01*
X746491Y-550531D02*
X756015Y-541008D01*
X756015Y-541008D02*
X775062Y-531484D01*
X965539Y-531484D02*
X984586Y-531484D01*
X984586Y-531484D02*
X1003634Y-541008D01*
X1003634Y-541008D02*
X1013158Y-550531D01*
X1013158Y-550531D02*
X1022682Y-569579D01*
X1022682Y-569579D02*
X1032205Y-607674D01*
X1032205Y-607674D02*
X1032205Y-655293D01*
X1032205Y-655293D02*
X1022682Y-693389D01*
X1022682Y-693389D02*
X1013158Y-712436D01*
X1013158Y-712436D02*
X1003634Y-721960D01*
X1003634Y-721960D02*
X984586Y-731484D01*
X984586Y-731484D02*
X965539Y-731484D01*
X965539Y-731484D02*
X946491Y-721960D01*
X946491Y-721960D02*
X936967Y-712436D01*
X936967Y-712436D02*
X927443Y-693389D01*
X927443Y-693389D02*
X917920Y-655293D01*
X917920Y-655293D02*
X917920Y-607674D01*
X917920Y-607674D02*
X927443Y-569579D01*
X927443Y-569579D02*
X936967Y-550531D01*
X936967Y-550531D02*
X946491Y-541008D01*
X946491Y-541008D02*
X965539Y-531484D01*
X1117920Y-731484D02*
X1117920Y-598150D01*
X1117920Y-617198D02*
X1127444Y-607674D01*
X1127444Y-607674D02*
X1146491Y-598150D01*
X1146491Y-598150D02*
X1175063Y-598150D01*
X1175063Y-598150D02*
X1194110Y-607674D01*
X1194110Y-607674D02*
X1203634Y-626722D01*
X1203634Y-626722D02*
X1203634Y-731484D01*
X1203634Y-626722D02*
X1213158Y-607674D01*
X1213158Y-607674D02*
X1232205Y-598150D01*
X1232205Y-598150D02*
X1260777Y-598150D01*
X1260777Y-598150D02*
X1279825Y-607674D01*
X1279825Y-607674D02*
X1289348Y-626722D01*
X1289348Y-626722D02*
X1289348Y-731484D01*
X1384586Y-731484D02*
X1384586Y-598150D01*
X1384586Y-617198D02*
X1394110Y-607674D01*
X1394110Y-607674D02*
X1413158Y-598150D01*
X1413158Y-598150D02*
X1441729Y-598150D01*
X1441729Y-598150D02*
X1460777Y-607674D01*
X1460777Y-607674D02*
X1470301Y-626722D01*
X1470301Y-626722D02*
X1470301Y-731484D01*
X1470301Y-626722D02*
X1479824Y-607674D01*
X1479824Y-607674D02*
X1498872Y-598150D01*
X1498872Y-598150D02*
X1527443Y-598150D01*
X1527443Y-598150D02*
X1546491Y-607674D01*
X1546491Y-607674D02*
X1556015Y-626722D01*
X1556015Y-626722D02*
X1556015Y-731484D01*
X1946491Y-521960D02*
X1775063Y-779103D01*
X2203634Y-531484D02*
X2222682Y-531484D01*
X2222682Y-531484D02*
X2241729Y-541008D01*
X2241729Y-541008D02*
X2251253Y-550531D01*
X2251253Y-550531D02*
X2260777Y-569579D01*
X2260777Y-569579D02*
X2270301Y-607674D01*
X2270301Y-607674D02*
X2270301Y-655293D01*
X2270301Y-655293D02*
X2260777Y-693389D01*
X2260777Y-693389D02*
X2251253Y-712436D01*
X2251253Y-712436D02*
X2241729Y-721960D01*
X2241729Y-721960D02*
X2222682Y-731484D01*
X2222682Y-731484D02*
X2203634Y-731484D01*
X2203634Y-731484D02*
X2184587Y-721960D01*
X2184587Y-721960D02*
X2175063Y-712436D01*
X2175063Y-712436D02*
X2165539Y-693389D01*
X2165539Y-693389D02*
X2156015Y-655293D01*
X2156015Y-655293D02*
X2156015Y-607674D01*
X2156015Y-607674D02*
X2165539Y-569579D01*
X2165539Y-569579D02*
X2175063Y-550531D01*
X2175063Y-550531D02*
X2184587Y-541008D01*
X2184587Y-541008D02*
X2203634Y-531484D01*
X2356015Y-712436D02*
X2365539Y-721960D01*
X2365539Y-721960D02*
X2356015Y-731484D01*
X2356015Y-731484D02*
X2346491Y-721960D01*
X2346491Y-721960D02*
X2356015Y-712436D01*
X2356015Y-712436D02*
X2356015Y-731484D01*
X2489348Y-531484D02*
X2508396Y-531484D01*
X2508396Y-531484D02*
X2527444Y-541008D01*
X2527444Y-541008D02*
X2536968Y-550531D01*
X2536968Y-550531D02*
X2546491Y-569579D01*
X2546491Y-569579D02*
X2556015Y-607674D01*
X2556015Y-607674D02*
X2556015Y-655293D01*
X2556015Y-655293D02*
X2546491Y-693389D01*
X2546491Y-693389D02*
X2536968Y-712436D01*
X2536968Y-712436D02*
X2527444Y-721960D01*
X2527444Y-721960D02*
X2508396Y-731484D01*
X2508396Y-731484D02*
X2489348Y-731484D01*
X2489348Y-731484D02*
X2470301Y-721960D01*
X2470301Y-721960D02*
X2460777Y-712436D01*
X2460777Y-712436D02*
X2451253Y-693389D01*
X2451253Y-693389D02*
X2441729Y-655293D01*
X2441729Y-655293D02*
X2441729Y-607674D01*
X2441729Y-607674D02*
X2451253Y-569579D01*
X2451253Y-569579D02*
X2460777Y-550531D01*
X2460777Y-550531D02*
X2470301Y-541008D01*
X2470301Y-541008D02*
X2489348Y-531484D01*
X2746491Y-731484D02*
X2632206Y-731484D01*
X2689348Y-731484D02*
X2689348Y-531484D01*
X2689348Y-531484D02*
X2670301Y-560055D01*
X2670301Y-560055D02*
X2651253Y-579103D01*
X2651253Y-579103D02*
X2632206Y-588627D01*
X2841729Y-731484D02*
X2879825Y-731484D01*
X2879825Y-731484D02*
X2898872Y-721960D01*
X2898872Y-721960D02*
X2908396Y-712436D01*
X2908396Y-712436D02*
X2927444Y-683865D01*
X2927444Y-683865D02*
X2936967Y-645770D01*
X2936967Y-645770D02*
X2936967Y-569579D01*
X2936967Y-569579D02*
X2927444Y-550531D01*
X2927444Y-550531D02*
X2917920Y-541008D01*
X2917920Y-541008D02*
X2898872Y-531484D01*
X2898872Y-531484D02*
X2860777Y-531484D01*
X2860777Y-531484D02*
X2841729Y-541008D01*
X2841729Y-541008D02*
X2832206Y-550531D01*
X2832206Y-550531D02*
X2822682Y-569579D01*
X2822682Y-569579D02*
X2822682Y-617198D01*
X2822682Y-617198D02*
X2832206Y-636246D01*
X2832206Y-636246D02*
X2841729Y-645770D01*
X2841729Y-645770D02*
X2860777Y-655293D01*
X2860777Y-655293D02*
X2898872Y-655293D01*
X2898872Y-655293D02*
X2917920Y-645770D01*
X2917920Y-645770D02*
X2927444Y-636246D01*
X2927444Y-636246D02*
X2936967Y-617198D01*
X3003634Y-531484D02*
X3136967Y-531484D01*
X3136967Y-531484D02*
X3051253Y-731484D01*
X3203634Y-531484D02*
X3203634Y-569579D01*
X3279825Y-531484D02*
X3279825Y-569579D01*
X3575063Y-807674D02*
X3565539Y-798150D01*
X3565539Y-798150D02*
X3546491Y-769579D01*
X3546491Y-769579D02*
X3536968Y-750531D01*
X3536968Y-750531D02*
X3527444Y-721960D01*
X3527444Y-721960D02*
X3517920Y-674341D01*
X3517920Y-674341D02*
X3517920Y-636246D01*
X3517920Y-636246D02*
X3527444Y-588627D01*
X3527444Y-588627D02*
X3536968Y-560055D01*
X3536968Y-560055D02*
X3546491Y-541008D01*
X3546491Y-541008D02*
X3565539Y-512436D01*
X3565539Y-512436D02*
X3575063Y-502912D01*
X3736968Y-598150D02*
X3736968Y-731484D01*
X3689348Y-521960D02*
X3641729Y-664817D01*
X3641729Y-664817D02*
X3765539Y-664817D01*
X3994110Y-731484D02*
X3994110Y-531484D01*
X4079825Y-731484D02*
X4079825Y-626722D01*
X4079825Y-626722D02*
X4070301Y-607674D01*
X4070301Y-607674D02*
X4051253Y-598150D01*
X4051253Y-598150D02*
X4022682Y-598150D01*
X4022682Y-598150D02*
X4003634Y-607674D01*
X4003634Y-607674D02*
X3994110Y-617198D01*
X4203634Y-731484D02*
X4184587Y-721960D01*
X4184587Y-721960D02*
X4175063Y-712436D01*
X4175063Y-712436D02*
X4165539Y-693389D01*
X4165539Y-693389D02*
X4165539Y-636246D01*
X4165539Y-636246D02*
X4175063Y-617198D01*
X4175063Y-617198D02*
X4184587Y-607674D01*
X4184587Y-607674D02*
X4203634Y-598150D01*
X4203634Y-598150D02*
X4232206Y-598150D01*
X4232206Y-598150D02*
X4251253Y-607674D01*
X4251253Y-607674D02*
X4260777Y-617198D01*
X4260777Y-617198D02*
X4270301Y-636246D01*
X4270301Y-636246D02*
X4270301Y-693389D01*
X4270301Y-693389D02*
X4260777Y-712436D01*
X4260777Y-712436D02*
X4251253Y-721960D01*
X4251253Y-721960D02*
X4232206Y-731484D01*
X4232206Y-731484D02*
X4203634Y-731484D01*
X4384587Y-731484D02*
X4365539Y-721960D01*
X4365539Y-721960D02*
X4356015Y-702912D01*
X4356015Y-702912D02*
X4356015Y-531484D01*
X4536968Y-721960D02*
X4517920Y-731484D01*
X4517920Y-731484D02*
X4479825Y-731484D01*
X4479825Y-731484D02*
X4460777Y-721960D01*
X4460777Y-721960D02*
X4451253Y-702912D01*
X4451253Y-702912D02*
X4451253Y-626722D01*
X4451253Y-626722D02*
X4460777Y-607674D01*
X4460777Y-607674D02*
X4479825Y-598150D01*
X4479825Y-598150D02*
X4517920Y-598150D01*
X4517920Y-598150D02*
X4536968Y-607674D01*
X4536968Y-607674D02*
X4546492Y-626722D01*
X4546492Y-626722D02*
X4546492Y-645770D01*
X4546492Y-645770D02*
X4451253Y-664817D01*
X4622682Y-721960D02*
X4641730Y-731484D01*
X4641730Y-731484D02*
X4679825Y-731484D01*
X4679825Y-731484D02*
X4698873Y-721960D01*
X4698873Y-721960D02*
X4708396Y-702912D01*
X4708396Y-702912D02*
X4708396Y-693389D01*
X4708396Y-693389D02*
X4698873Y-674341D01*
X4698873Y-674341D02*
X4679825Y-664817D01*
X4679825Y-664817D02*
X4651253Y-664817D01*
X4651253Y-664817D02*
X4632206Y-655293D01*
X4632206Y-655293D02*
X4622682Y-636246D01*
X4622682Y-636246D02*
X4622682Y-626722D01*
X4622682Y-626722D02*
X4632206Y-607674D01*
X4632206Y-607674D02*
X4651253Y-598150D01*
X4651253Y-598150D02*
X4679825Y-598150D01*
X4679825Y-598150D02*
X4698873Y-607674D01*
X4775063Y-807674D02*
X4784587Y-798150D01*
X4784587Y-798150D02*
X4803634Y-769579D01*
X4803634Y-769579D02*
X4813158Y-750531D01*
X4813158Y-750531D02*
X4822682Y-721960D01*
X4822682Y-721960D02*
X4832206Y-674341D01*
X4832206Y-674341D02*
X4832206Y-636246D01*
X4832206Y-636246D02*
X4822682Y-588627D01*
X4822682Y-588627D02*
X4813158Y-560055D01*
X4813158Y-560055D02*
X4803634Y-541008D01*
X4803634Y-541008D02*
X4784587Y-512436D01*
X4784587Y-512436D02*
X4775063Y-502912D01*
D12*
X0Y-904000D02*
G75*
G03*
X0Y-904000I-32500J0D01*
G01*
D10*
X298872Y-795484D02*
X317920Y-795484D01*
X317920Y-795484D02*
X336967Y-805008D01*
X336967Y-805008D02*
X346491Y-814531D01*
X346491Y-814531D02*
X356015Y-833579D01*
X356015Y-833579D02*
X365539Y-871674D01*
X365539Y-871674D02*
X365539Y-919293D01*
X365539Y-919293D02*
X356015Y-957388D01*
X356015Y-957388D02*
X346491Y-976436D01*
X346491Y-976436D02*
X336967Y-985960D01*
X336967Y-985960D02*
X317920Y-995484D01*
X317920Y-995484D02*
X298872Y-995484D01*
X298872Y-995484D02*
X279824Y-985960D01*
X279824Y-985960D02*
X270301Y-976436D01*
X270301Y-976436D02*
X260777Y-957388D01*
X260777Y-957388D02*
X251253Y-919293D01*
X251253Y-919293D02*
X251253Y-871674D01*
X251253Y-871674D02*
X260777Y-833579D01*
X260777Y-833579D02*
X270301Y-814531D01*
X270301Y-814531D02*
X279824Y-805008D01*
X279824Y-805008D02*
X298872Y-795484D01*
X451253Y-976436D02*
X460777Y-985960D01*
X460777Y-985960D02*
X451253Y-995484D01*
X451253Y-995484D02*
X441729Y-985960D01*
X441729Y-985960D02*
X451253Y-976436D01*
X451253Y-976436D02*
X451253Y-995484D01*
X632205Y-795484D02*
X594110Y-795484D01*
X594110Y-795484D02*
X575063Y-805008D01*
X575063Y-805008D02*
X565539Y-814531D01*
X565539Y-814531D02*
X546491Y-843103D01*
X546491Y-843103D02*
X536967Y-881198D01*
X536967Y-881198D02*
X536967Y-957388D01*
X536967Y-957388D02*
X546491Y-976436D01*
X546491Y-976436D02*
X556015Y-985960D01*
X556015Y-985960D02*
X575063Y-995484D01*
X575063Y-995484D02*
X613158Y-995484D01*
X613158Y-995484D02*
X632205Y-985960D01*
X632205Y-985960D02*
X641729Y-976436D01*
X641729Y-976436D02*
X651253Y-957388D01*
X651253Y-957388D02*
X651253Y-909769D01*
X651253Y-909769D02*
X641729Y-890722D01*
X641729Y-890722D02*
X632205Y-881198D01*
X632205Y-881198D02*
X613158Y-871674D01*
X613158Y-871674D02*
X575063Y-871674D01*
X575063Y-871674D02*
X556015Y-881198D01*
X556015Y-881198D02*
X546491Y-890722D01*
X546491Y-890722D02*
X536967Y-909769D01*
X832205Y-795484D02*
X736967Y-795484D01*
X736967Y-795484D02*
X727443Y-890722D01*
X727443Y-890722D02*
X736967Y-881198D01*
X736967Y-881198D02*
X756015Y-871674D01*
X756015Y-871674D02*
X803634Y-871674D01*
X803634Y-871674D02*
X822682Y-881198D01*
X822682Y-881198D02*
X832205Y-890722D01*
X832205Y-890722D02*
X841729Y-909769D01*
X841729Y-909769D02*
X841729Y-957388D01*
X841729Y-957388D02*
X832205Y-976436D01*
X832205Y-976436D02*
X822682Y-985960D01*
X822682Y-985960D02*
X803634Y-995484D01*
X803634Y-995484D02*
X756015Y-995484D01*
X756015Y-995484D02*
X736967Y-985960D01*
X736967Y-985960D02*
X727443Y-976436D01*
X965539Y-795484D02*
X984586Y-795484D01*
X984586Y-795484D02*
X1003634Y-805008D01*
X1003634Y-805008D02*
X1013158Y-814531D01*
X1013158Y-814531D02*
X1022682Y-833579D01*
X1022682Y-833579D02*
X1032205Y-871674D01*
X1032205Y-871674D02*
X1032205Y-919293D01*
X1032205Y-919293D02*
X1022682Y-957388D01*
X1022682Y-957388D02*
X1013158Y-976436D01*
X1013158Y-976436D02*
X1003634Y-985960D01*
X1003634Y-985960D02*
X984586Y-995484D01*
X984586Y-995484D02*
X965539Y-995484D01*
X965539Y-995484D02*
X946491Y-985960D01*
X946491Y-985960D02*
X936967Y-976436D01*
X936967Y-976436D02*
X927443Y-957388D01*
X927443Y-957388D02*
X917920Y-919293D01*
X917920Y-919293D02*
X917920Y-871674D01*
X917920Y-871674D02*
X927443Y-833579D01*
X927443Y-833579D02*
X936967Y-814531D01*
X936967Y-814531D02*
X946491Y-805008D01*
X946491Y-805008D02*
X965539Y-795484D01*
X1117920Y-995484D02*
X1117920Y-862150D01*
X1117920Y-881198D02*
X1127444Y-871674D01*
X1127444Y-871674D02*
X1146491Y-862150D01*
X1146491Y-862150D02*
X1175063Y-862150D01*
X1175063Y-862150D02*
X1194110Y-871674D01*
X1194110Y-871674D02*
X1203634Y-890722D01*
X1203634Y-890722D02*
X1203634Y-995484D01*
X1203634Y-890722D02*
X1213158Y-871674D01*
X1213158Y-871674D02*
X1232205Y-862150D01*
X1232205Y-862150D02*
X1260777Y-862150D01*
X1260777Y-862150D02*
X1279825Y-871674D01*
X1279825Y-871674D02*
X1289348Y-890722D01*
X1289348Y-890722D02*
X1289348Y-995484D01*
X1384586Y-995484D02*
X1384586Y-862150D01*
X1384586Y-881198D02*
X1394110Y-871674D01*
X1394110Y-871674D02*
X1413158Y-862150D01*
X1413158Y-862150D02*
X1441729Y-862150D01*
X1441729Y-862150D02*
X1460777Y-871674D01*
X1460777Y-871674D02*
X1470301Y-890722D01*
X1470301Y-890722D02*
X1470301Y-995484D01*
X1470301Y-890722D02*
X1479824Y-871674D01*
X1479824Y-871674D02*
X1498872Y-862150D01*
X1498872Y-862150D02*
X1527443Y-862150D01*
X1527443Y-862150D02*
X1546491Y-871674D01*
X1546491Y-871674D02*
X1556015Y-890722D01*
X1556015Y-890722D02*
X1556015Y-995484D01*
X1946491Y-785960D02*
X1775063Y-1043103D01*
X2203634Y-795484D02*
X2222682Y-795484D01*
X2222682Y-795484D02*
X2241729Y-805008D01*
X2241729Y-805008D02*
X2251253Y-814531D01*
X2251253Y-814531D02*
X2260777Y-833579D01*
X2260777Y-833579D02*
X2270301Y-871674D01*
X2270301Y-871674D02*
X2270301Y-919293D01*
X2270301Y-919293D02*
X2260777Y-957388D01*
X2260777Y-957388D02*
X2251253Y-976436D01*
X2251253Y-976436D02*
X2241729Y-985960D01*
X2241729Y-985960D02*
X2222682Y-995484D01*
X2222682Y-995484D02*
X2203634Y-995484D01*
X2203634Y-995484D02*
X2184587Y-985960D01*
X2184587Y-985960D02*
X2175063Y-976436D01*
X2175063Y-976436D02*
X2165539Y-957388D01*
X2165539Y-957388D02*
X2156015Y-919293D01*
X2156015Y-919293D02*
X2156015Y-871674D01*
X2156015Y-871674D02*
X2165539Y-833579D01*
X2165539Y-833579D02*
X2175063Y-814531D01*
X2175063Y-814531D02*
X2184587Y-805008D01*
X2184587Y-805008D02*
X2203634Y-795484D01*
X2356015Y-976436D02*
X2365539Y-985960D01*
X2365539Y-985960D02*
X2356015Y-995484D01*
X2356015Y-995484D02*
X2346491Y-985960D01*
X2346491Y-985960D02*
X2356015Y-976436D01*
X2356015Y-976436D02*
X2356015Y-995484D01*
X2489348Y-795484D02*
X2508396Y-795484D01*
X2508396Y-795484D02*
X2527444Y-805008D01*
X2527444Y-805008D02*
X2536968Y-814531D01*
X2536968Y-814531D02*
X2546491Y-833579D01*
X2546491Y-833579D02*
X2556015Y-871674D01*
X2556015Y-871674D02*
X2556015Y-919293D01*
X2556015Y-919293D02*
X2546491Y-957388D01*
X2546491Y-957388D02*
X2536968Y-976436D01*
X2536968Y-976436D02*
X2527444Y-985960D01*
X2527444Y-985960D02*
X2508396Y-995484D01*
X2508396Y-995484D02*
X2489348Y-995484D01*
X2489348Y-995484D02*
X2470301Y-985960D01*
X2470301Y-985960D02*
X2460777Y-976436D01*
X2460777Y-976436D02*
X2451253Y-957388D01*
X2451253Y-957388D02*
X2441729Y-919293D01*
X2441729Y-919293D02*
X2441729Y-871674D01*
X2441729Y-871674D02*
X2451253Y-833579D01*
X2451253Y-833579D02*
X2460777Y-814531D01*
X2460777Y-814531D02*
X2470301Y-805008D01*
X2470301Y-805008D02*
X2489348Y-795484D01*
X2632206Y-814531D02*
X2641729Y-805008D01*
X2641729Y-805008D02*
X2660777Y-795484D01*
X2660777Y-795484D02*
X2708396Y-795484D01*
X2708396Y-795484D02*
X2727444Y-805008D01*
X2727444Y-805008D02*
X2736968Y-814531D01*
X2736968Y-814531D02*
X2746491Y-833579D01*
X2746491Y-833579D02*
X2746491Y-852627D01*
X2746491Y-852627D02*
X2736968Y-881198D01*
X2736968Y-881198D02*
X2622682Y-995484D01*
X2622682Y-995484D02*
X2746491Y-995484D01*
X2927444Y-795484D02*
X2832206Y-795484D01*
X2832206Y-795484D02*
X2822682Y-890722D01*
X2822682Y-890722D02*
X2832206Y-881198D01*
X2832206Y-881198D02*
X2851253Y-871674D01*
X2851253Y-871674D02*
X2898872Y-871674D01*
X2898872Y-871674D02*
X2917920Y-881198D01*
X2917920Y-881198D02*
X2927444Y-890722D01*
X2927444Y-890722D02*
X2936967Y-909769D01*
X2936967Y-909769D02*
X2936967Y-957388D01*
X2936967Y-957388D02*
X2927444Y-976436D01*
X2927444Y-976436D02*
X2917920Y-985960D01*
X2917920Y-985960D02*
X2898872Y-995484D01*
X2898872Y-995484D02*
X2851253Y-995484D01*
X2851253Y-995484D02*
X2832206Y-985960D01*
X2832206Y-985960D02*
X2822682Y-976436D01*
X3108396Y-795484D02*
X3070301Y-795484D01*
X3070301Y-795484D02*
X3051253Y-805008D01*
X3051253Y-805008D02*
X3041729Y-814531D01*
X3041729Y-814531D02*
X3022682Y-843103D01*
X3022682Y-843103D02*
X3013158Y-881198D01*
X3013158Y-881198D02*
X3013158Y-957388D01*
X3013158Y-957388D02*
X3022682Y-976436D01*
X3022682Y-976436D02*
X3032206Y-985960D01*
X3032206Y-985960D02*
X3051253Y-995484D01*
X3051253Y-995484D02*
X3089348Y-995484D01*
X3089348Y-995484D02*
X3108396Y-985960D01*
X3108396Y-985960D02*
X3117920Y-976436D01*
X3117920Y-976436D02*
X3127444Y-957388D01*
X3127444Y-957388D02*
X3127444Y-909769D01*
X3127444Y-909769D02*
X3117920Y-890722D01*
X3117920Y-890722D02*
X3108396Y-881198D01*
X3108396Y-881198D02*
X3089348Y-871674D01*
X3089348Y-871674D02*
X3051253Y-871674D01*
X3051253Y-871674D02*
X3032206Y-881198D01*
X3032206Y-881198D02*
X3022682Y-890722D01*
X3022682Y-890722D02*
X3013158Y-909769D01*
X3203634Y-795484D02*
X3203634Y-833579D01*
X3279825Y-795484D02*
X3279825Y-833579D01*
X3575063Y-1071674D02*
X3565539Y-1062150D01*
X3565539Y-1062150D02*
X3546491Y-1033579D01*
X3546491Y-1033579D02*
X3536968Y-1014531D01*
X3536968Y-1014531D02*
X3527444Y-985960D01*
X3527444Y-985960D02*
X3517920Y-938341D01*
X3517920Y-938341D02*
X3517920Y-900246D01*
X3517920Y-900246D02*
X3527444Y-852627D01*
X3527444Y-852627D02*
X3536968Y-824055D01*
X3536968Y-824055D02*
X3546491Y-805008D01*
X3546491Y-805008D02*
X3565539Y-776436D01*
X3565539Y-776436D02*
X3575063Y-766912D01*
X3632206Y-795484D02*
X3756015Y-795484D01*
X3756015Y-795484D02*
X3689348Y-871674D01*
X3689348Y-871674D02*
X3717920Y-871674D01*
X3717920Y-871674D02*
X3736968Y-881198D01*
X3736968Y-881198D02*
X3746491Y-890722D01*
X3746491Y-890722D02*
X3756015Y-909769D01*
X3756015Y-909769D02*
X3756015Y-957388D01*
X3756015Y-957388D02*
X3746491Y-976436D01*
X3746491Y-976436D02*
X3736968Y-985960D01*
X3736968Y-985960D02*
X3717920Y-995484D01*
X3717920Y-995484D02*
X3660777Y-995484D01*
X3660777Y-995484D02*
X3641729Y-985960D01*
X3641729Y-985960D02*
X3632206Y-976436D01*
X3994110Y-995484D02*
X3994110Y-795484D01*
X4079825Y-995484D02*
X4079825Y-890722D01*
X4079825Y-890722D02*
X4070301Y-871674D01*
X4070301Y-871674D02*
X4051253Y-862150D01*
X4051253Y-862150D02*
X4022682Y-862150D01*
X4022682Y-862150D02*
X4003634Y-871674D01*
X4003634Y-871674D02*
X3994110Y-881198D01*
X4203634Y-995484D02*
X4184587Y-985960D01*
X4184587Y-985960D02*
X4175063Y-976436D01*
X4175063Y-976436D02*
X4165539Y-957388D01*
X4165539Y-957388D02*
X4165539Y-900246D01*
X4165539Y-900246D02*
X4175063Y-881198D01*
X4175063Y-881198D02*
X4184587Y-871674D01*
X4184587Y-871674D02*
X4203634Y-862150D01*
X4203634Y-862150D02*
X4232206Y-862150D01*
X4232206Y-862150D02*
X4251253Y-871674D01*
X4251253Y-871674D02*
X4260777Y-881198D01*
X4260777Y-881198D02*
X4270301Y-900246D01*
X4270301Y-900246D02*
X4270301Y-957388D01*
X4270301Y-957388D02*
X4260777Y-976436D01*
X4260777Y-976436D02*
X4251253Y-985960D01*
X4251253Y-985960D02*
X4232206Y-995484D01*
X4232206Y-995484D02*
X4203634Y-995484D01*
X4384587Y-995484D02*
X4365539Y-985960D01*
X4365539Y-985960D02*
X4356015Y-966912D01*
X4356015Y-966912D02*
X4356015Y-795484D01*
X4536968Y-985960D02*
X4517920Y-995484D01*
X4517920Y-995484D02*
X4479825Y-995484D01*
X4479825Y-995484D02*
X4460777Y-985960D01*
X4460777Y-985960D02*
X4451253Y-966912D01*
X4451253Y-966912D02*
X4451253Y-890722D01*
X4451253Y-890722D02*
X4460777Y-871674D01*
X4460777Y-871674D02*
X4479825Y-862150D01*
X4479825Y-862150D02*
X4517920Y-862150D01*
X4517920Y-862150D02*
X4536968Y-871674D01*
X4536968Y-871674D02*
X4546492Y-890722D01*
X4546492Y-890722D02*
X4546492Y-909769D01*
X4546492Y-909769D02*
X4451253Y-928817D01*
X4622682Y-985960D02*
X4641730Y-995484D01*
X4641730Y-995484D02*
X4679825Y-995484D01*
X4679825Y-995484D02*
X4698873Y-985960D01*
X4698873Y-985960D02*
X4708396Y-966912D01*
X4708396Y-966912D02*
X4708396Y-957388D01*
X4708396Y-957388D02*
X4698873Y-938341D01*
X4698873Y-938341D02*
X4679825Y-928817D01*
X4679825Y-928817D02*
X4651253Y-928817D01*
X4651253Y-928817D02*
X4632206Y-919293D01*
X4632206Y-919293D02*
X4622682Y-900246D01*
X4622682Y-900246D02*
X4622682Y-890722D01*
X4622682Y-890722D02*
X4632206Y-871674D01*
X4632206Y-871674D02*
X4651253Y-862150D01*
X4651253Y-862150D02*
X4679825Y-862150D01*
X4679825Y-862150D02*
X4698873Y-871674D01*
X4775063Y-1071674D02*
X4784587Y-1062150D01*
X4784587Y-1062150D02*
X4803634Y-1033579D01*
X4803634Y-1033579D02*
X4813158Y-1014531D01*
X4813158Y-1014531D02*
X4822682Y-985960D01*
X4822682Y-985960D02*
X4832206Y-938341D01*
X4832206Y-938341D02*
X4832206Y-900246D01*
X4832206Y-900246D02*
X4822682Y-852627D01*
X4822682Y-852627D02*
X4813158Y-824055D01*
X4813158Y-824055D02*
X4803634Y-805008D01*
X4803634Y-805008D02*
X4784587Y-776436D01*
X4784587Y-776436D02*
X4775063Y-766912D01*
D13*
X-37500Y-1130500D02*
X-37500Y-1205500D01*
X-75000Y-1168000D02*
X0Y-1168000D01*
D10*
X298872Y-1059484D02*
X317920Y-1059484D01*
X317920Y-1059484D02*
X336967Y-1069008D01*
X336967Y-1069008D02*
X346491Y-1078531D01*
X346491Y-1078531D02*
X356015Y-1097579D01*
X356015Y-1097579D02*
X365539Y-1135674D01*
X365539Y-1135674D02*
X365539Y-1183293D01*
X365539Y-1183293D02*
X356015Y-1221389D01*
X356015Y-1221389D02*
X346491Y-1240436D01*
X346491Y-1240436D02*
X336967Y-1249960D01*
X336967Y-1249960D02*
X317920Y-1259484D01*
X317920Y-1259484D02*
X298872Y-1259484D01*
X298872Y-1259484D02*
X279824Y-1249960D01*
X279824Y-1249960D02*
X270301Y-1240436D01*
X270301Y-1240436D02*
X260777Y-1221389D01*
X260777Y-1221389D02*
X251253Y-1183293D01*
X251253Y-1183293D02*
X251253Y-1135674D01*
X251253Y-1135674D02*
X260777Y-1097579D01*
X260777Y-1097579D02*
X270301Y-1078531D01*
X270301Y-1078531D02*
X279824Y-1069008D01*
X279824Y-1069008D02*
X298872Y-1059484D01*
X451253Y-1240436D02*
X460777Y-1249960D01*
X460777Y-1249960D02*
X451253Y-1259484D01*
X451253Y-1259484D02*
X441729Y-1249960D01*
X441729Y-1249960D02*
X451253Y-1240436D01*
X451253Y-1240436D02*
X451253Y-1259484D01*
X527444Y-1059484D02*
X660777Y-1059484D01*
X660777Y-1059484D02*
X575063Y-1259484D01*
X832205Y-1059484D02*
X736967Y-1059484D01*
X736967Y-1059484D02*
X727443Y-1154722D01*
X727443Y-1154722D02*
X736967Y-1145198D01*
X736967Y-1145198D02*
X756015Y-1135674D01*
X756015Y-1135674D02*
X803634Y-1135674D01*
X803634Y-1135674D02*
X822682Y-1145198D01*
X822682Y-1145198D02*
X832205Y-1154722D01*
X832205Y-1154722D02*
X841729Y-1173770D01*
X841729Y-1173770D02*
X841729Y-1221389D01*
X841729Y-1221389D02*
X832205Y-1240436D01*
X832205Y-1240436D02*
X822682Y-1249960D01*
X822682Y-1249960D02*
X803634Y-1259484D01*
X803634Y-1259484D02*
X756015Y-1259484D01*
X756015Y-1259484D02*
X736967Y-1249960D01*
X736967Y-1249960D02*
X727443Y-1240436D01*
X965539Y-1059484D02*
X984586Y-1059484D01*
X984586Y-1059484D02*
X1003634Y-1069008D01*
X1003634Y-1069008D02*
X1013158Y-1078531D01*
X1013158Y-1078531D02*
X1022682Y-1097579D01*
X1022682Y-1097579D02*
X1032205Y-1135674D01*
X1032205Y-1135674D02*
X1032205Y-1183293D01*
X1032205Y-1183293D02*
X1022682Y-1221389D01*
X1022682Y-1221389D02*
X1013158Y-1240436D01*
X1013158Y-1240436D02*
X1003634Y-1249960D01*
X1003634Y-1249960D02*
X984586Y-1259484D01*
X984586Y-1259484D02*
X965539Y-1259484D01*
X965539Y-1259484D02*
X946491Y-1249960D01*
X946491Y-1249960D02*
X936967Y-1240436D01*
X936967Y-1240436D02*
X927443Y-1221389D01*
X927443Y-1221389D02*
X917920Y-1183293D01*
X917920Y-1183293D02*
X917920Y-1135674D01*
X917920Y-1135674D02*
X927443Y-1097579D01*
X927443Y-1097579D02*
X936967Y-1078531D01*
X936967Y-1078531D02*
X946491Y-1069008D01*
X946491Y-1069008D02*
X965539Y-1059484D01*
X1117920Y-1259484D02*
X1117920Y-1126150D01*
X1117920Y-1145198D02*
X1127444Y-1135674D01*
X1127444Y-1135674D02*
X1146491Y-1126150D01*
X1146491Y-1126150D02*
X1175063Y-1126150D01*
X1175063Y-1126150D02*
X1194110Y-1135674D01*
X1194110Y-1135674D02*
X1203634Y-1154722D01*
X1203634Y-1154722D02*
X1203634Y-1259484D01*
X1203634Y-1154722D02*
X1213158Y-1135674D01*
X1213158Y-1135674D02*
X1232205Y-1126150D01*
X1232205Y-1126150D02*
X1260777Y-1126150D01*
X1260777Y-1126150D02*
X1279825Y-1135674D01*
X1279825Y-1135674D02*
X1289348Y-1154722D01*
X1289348Y-1154722D02*
X1289348Y-1259484D01*
X1384586Y-1259484D02*
X1384586Y-1126150D01*
X1384586Y-1145198D02*
X1394110Y-1135674D01*
X1394110Y-1135674D02*
X1413158Y-1126150D01*
X1413158Y-1126150D02*
X1441729Y-1126150D01*
X1441729Y-1126150D02*
X1460777Y-1135674D01*
X1460777Y-1135674D02*
X1470301Y-1154722D01*
X1470301Y-1154722D02*
X1470301Y-1259484D01*
X1470301Y-1154722D02*
X1479824Y-1135674D01*
X1479824Y-1135674D02*
X1498872Y-1126150D01*
X1498872Y-1126150D02*
X1527443Y-1126150D01*
X1527443Y-1126150D02*
X1546491Y-1135674D01*
X1546491Y-1135674D02*
X1556015Y-1154722D01*
X1556015Y-1154722D02*
X1556015Y-1259484D01*
X1946491Y-1049960D02*
X1775063Y-1307103D01*
X2203634Y-1059484D02*
X2222682Y-1059484D01*
X2222682Y-1059484D02*
X2241729Y-1069008D01*
X2241729Y-1069008D02*
X2251253Y-1078531D01*
X2251253Y-1078531D02*
X2260777Y-1097579D01*
X2260777Y-1097579D02*
X2270301Y-1135674D01*
X2270301Y-1135674D02*
X2270301Y-1183293D01*
X2270301Y-1183293D02*
X2260777Y-1221389D01*
X2260777Y-1221389D02*
X2251253Y-1240436D01*
X2251253Y-1240436D02*
X2241729Y-1249960D01*
X2241729Y-1249960D02*
X2222682Y-1259484D01*
X2222682Y-1259484D02*
X2203634Y-1259484D01*
X2203634Y-1259484D02*
X2184587Y-1249960D01*
X2184587Y-1249960D02*
X2175063Y-1240436D01*
X2175063Y-1240436D02*
X2165539Y-1221389D01*
X2165539Y-1221389D02*
X2156015Y-1183293D01*
X2156015Y-1183293D02*
X2156015Y-1135674D01*
X2156015Y-1135674D02*
X2165539Y-1097579D01*
X2165539Y-1097579D02*
X2175063Y-1078531D01*
X2175063Y-1078531D02*
X2184587Y-1069008D01*
X2184587Y-1069008D02*
X2203634Y-1059484D01*
X2356015Y-1240436D02*
X2365539Y-1249960D01*
X2365539Y-1249960D02*
X2356015Y-1259484D01*
X2356015Y-1259484D02*
X2346491Y-1249960D01*
X2346491Y-1249960D02*
X2356015Y-1240436D01*
X2356015Y-1240436D02*
X2356015Y-1259484D01*
X2489348Y-1059484D02*
X2508396Y-1059484D01*
X2508396Y-1059484D02*
X2527444Y-1069008D01*
X2527444Y-1069008D02*
X2536968Y-1078531D01*
X2536968Y-1078531D02*
X2546491Y-1097579D01*
X2546491Y-1097579D02*
X2556015Y-1135674D01*
X2556015Y-1135674D02*
X2556015Y-1183293D01*
X2556015Y-1183293D02*
X2546491Y-1221389D01*
X2546491Y-1221389D02*
X2536968Y-1240436D01*
X2536968Y-1240436D02*
X2527444Y-1249960D01*
X2527444Y-1249960D02*
X2508396Y-1259484D01*
X2508396Y-1259484D02*
X2489348Y-1259484D01*
X2489348Y-1259484D02*
X2470301Y-1249960D01*
X2470301Y-1249960D02*
X2460777Y-1240436D01*
X2460777Y-1240436D02*
X2451253Y-1221389D01*
X2451253Y-1221389D02*
X2441729Y-1183293D01*
X2441729Y-1183293D02*
X2441729Y-1135674D01*
X2441729Y-1135674D02*
X2451253Y-1097579D01*
X2451253Y-1097579D02*
X2460777Y-1078531D01*
X2460777Y-1078531D02*
X2470301Y-1069008D01*
X2470301Y-1069008D02*
X2489348Y-1059484D01*
X2632206Y-1078531D02*
X2641729Y-1069008D01*
X2641729Y-1069008D02*
X2660777Y-1059484D01*
X2660777Y-1059484D02*
X2708396Y-1059484D01*
X2708396Y-1059484D02*
X2727444Y-1069008D01*
X2727444Y-1069008D02*
X2736968Y-1078531D01*
X2736968Y-1078531D02*
X2746491Y-1097579D01*
X2746491Y-1097579D02*
X2746491Y-1116627D01*
X2746491Y-1116627D02*
X2736968Y-1145198D01*
X2736968Y-1145198D02*
X2622682Y-1259484D01*
X2622682Y-1259484D02*
X2746491Y-1259484D01*
X2841729Y-1259484D02*
X2879825Y-1259484D01*
X2879825Y-1259484D02*
X2898872Y-1249960D01*
X2898872Y-1249960D02*
X2908396Y-1240436D01*
X2908396Y-1240436D02*
X2927444Y-1211865D01*
X2927444Y-1211865D02*
X2936967Y-1173770D01*
X2936967Y-1173770D02*
X2936967Y-1097579D01*
X2936967Y-1097579D02*
X2927444Y-1078531D01*
X2927444Y-1078531D02*
X2917920Y-1069008D01*
X2917920Y-1069008D02*
X2898872Y-1059484D01*
X2898872Y-1059484D02*
X2860777Y-1059484D01*
X2860777Y-1059484D02*
X2841729Y-1069008D01*
X2841729Y-1069008D02*
X2832206Y-1078531D01*
X2832206Y-1078531D02*
X2822682Y-1097579D01*
X2822682Y-1097579D02*
X2822682Y-1145198D01*
X2822682Y-1145198D02*
X2832206Y-1164246D01*
X2832206Y-1164246D02*
X2841729Y-1173770D01*
X2841729Y-1173770D02*
X2860777Y-1183293D01*
X2860777Y-1183293D02*
X2898872Y-1183293D01*
X2898872Y-1183293D02*
X2917920Y-1173770D01*
X2917920Y-1173770D02*
X2927444Y-1164246D01*
X2927444Y-1164246D02*
X2936967Y-1145198D01*
X3117920Y-1059484D02*
X3022682Y-1059484D01*
X3022682Y-1059484D02*
X3013158Y-1154722D01*
X3013158Y-1154722D02*
X3022682Y-1145198D01*
X3022682Y-1145198D02*
X3041729Y-1135674D01*
X3041729Y-1135674D02*
X3089348Y-1135674D01*
X3089348Y-1135674D02*
X3108396Y-1145198D01*
X3108396Y-1145198D02*
X3117920Y-1154722D01*
X3117920Y-1154722D02*
X3127444Y-1173770D01*
X3127444Y-1173770D02*
X3127444Y-1221389D01*
X3127444Y-1221389D02*
X3117920Y-1240436D01*
X3117920Y-1240436D02*
X3108396Y-1249960D01*
X3108396Y-1249960D02*
X3089348Y-1259484D01*
X3089348Y-1259484D02*
X3041729Y-1259484D01*
X3041729Y-1259484D02*
X3022682Y-1249960D01*
X3022682Y-1249960D02*
X3013158Y-1240436D01*
X3203634Y-1059484D02*
X3203634Y-1097579D01*
X3279825Y-1059484D02*
X3279825Y-1097579D01*
X3575063Y-1335674D02*
X3565539Y-1326150D01*
X3565539Y-1326150D02*
X3546491Y-1297579D01*
X3546491Y-1297579D02*
X3536968Y-1278531D01*
X3536968Y-1278531D02*
X3527444Y-1249960D01*
X3527444Y-1249960D02*
X3517920Y-1202341D01*
X3517920Y-1202341D02*
X3517920Y-1164246D01*
X3517920Y-1164246D02*
X3527444Y-1116627D01*
X3527444Y-1116627D02*
X3536968Y-1088055D01*
X3536968Y-1088055D02*
X3546491Y-1069008D01*
X3546491Y-1069008D02*
X3565539Y-1040436D01*
X3565539Y-1040436D02*
X3575063Y-1030912D01*
X3641729Y-1078531D02*
X3651253Y-1069008D01*
X3651253Y-1069008D02*
X3670301Y-1059484D01*
X3670301Y-1059484D02*
X3717920Y-1059484D01*
X3717920Y-1059484D02*
X3736968Y-1069008D01*
X3736968Y-1069008D02*
X3746491Y-1078531D01*
X3746491Y-1078531D02*
X3756015Y-1097579D01*
X3756015Y-1097579D02*
X3756015Y-1116627D01*
X3756015Y-1116627D02*
X3746491Y-1145198D01*
X3746491Y-1145198D02*
X3632206Y-1259484D01*
X3632206Y-1259484D02*
X3756015Y-1259484D01*
X3994110Y-1259484D02*
X3994110Y-1059484D01*
X4079825Y-1259484D02*
X4079825Y-1154722D01*
X4079825Y-1154722D02*
X4070301Y-1135674D01*
X4070301Y-1135674D02*
X4051253Y-1126150D01*
X4051253Y-1126150D02*
X4022682Y-1126150D01*
X4022682Y-1126150D02*
X4003634Y-1135674D01*
X4003634Y-1135674D02*
X3994110Y-1145198D01*
X4203634Y-1259484D02*
X4184587Y-1249960D01*
X4184587Y-1249960D02*
X4175063Y-1240436D01*
X4175063Y-1240436D02*
X4165539Y-1221389D01*
X4165539Y-1221389D02*
X4165539Y-1164246D01*
X4165539Y-1164246D02*
X4175063Y-1145198D01*
X4175063Y-1145198D02*
X4184587Y-1135674D01*
X4184587Y-1135674D02*
X4203634Y-1126150D01*
X4203634Y-1126150D02*
X4232206Y-1126150D01*
X4232206Y-1126150D02*
X4251253Y-1135674D01*
X4251253Y-1135674D02*
X4260777Y-1145198D01*
X4260777Y-1145198D02*
X4270301Y-1164246D01*
X4270301Y-1164246D02*
X4270301Y-1221389D01*
X4270301Y-1221389D02*
X4260777Y-1240436D01*
X4260777Y-1240436D02*
X4251253Y-1249960D01*
X4251253Y-1249960D02*
X4232206Y-1259484D01*
X4232206Y-1259484D02*
X4203634Y-1259484D01*
X4384587Y-1259484D02*
X4365539Y-1249960D01*
X4365539Y-1249960D02*
X4356015Y-1230912D01*
X4356015Y-1230912D02*
X4356015Y-1059484D01*
X4536968Y-1249960D02*
X4517920Y-1259484D01*
X4517920Y-1259484D02*
X4479825Y-1259484D01*
X4479825Y-1259484D02*
X4460777Y-1249960D01*
X4460777Y-1249960D02*
X4451253Y-1230912D01*
X4451253Y-1230912D02*
X4451253Y-1154722D01*
X4451253Y-1154722D02*
X4460777Y-1135674D01*
X4460777Y-1135674D02*
X4479825Y-1126150D01*
X4479825Y-1126150D02*
X4517920Y-1126150D01*
X4517920Y-1126150D02*
X4536968Y-1135674D01*
X4536968Y-1135674D02*
X4546492Y-1154722D01*
X4546492Y-1154722D02*
X4546492Y-1173770D01*
X4546492Y-1173770D02*
X4451253Y-1192817D01*
X4622682Y-1249960D02*
X4641730Y-1259484D01*
X4641730Y-1259484D02*
X4679825Y-1259484D01*
X4679825Y-1259484D02*
X4698873Y-1249960D01*
X4698873Y-1249960D02*
X4708396Y-1230912D01*
X4708396Y-1230912D02*
X4708396Y-1221389D01*
X4708396Y-1221389D02*
X4698873Y-1202341D01*
X4698873Y-1202341D02*
X4679825Y-1192817D01*
X4679825Y-1192817D02*
X4651253Y-1192817D01*
X4651253Y-1192817D02*
X4632206Y-1183293D01*
X4632206Y-1183293D02*
X4622682Y-1164246D01*
X4622682Y-1164246D02*
X4622682Y-1154722D01*
X4622682Y-1154722D02*
X4632206Y-1135674D01*
X4632206Y-1135674D02*
X4651253Y-1126150D01*
X4651253Y-1126150D02*
X4679825Y-1126150D01*
X4679825Y-1126150D02*
X4698873Y-1135674D01*
X4775063Y-1335674D02*
X4784587Y-1326150D01*
X4784587Y-1326150D02*
X4803634Y-1297579D01*
X4803634Y-1297579D02*
X4813158Y-1278531D01*
X4813158Y-1278531D02*
X4822682Y-1249960D01*
X4822682Y-1249960D02*
X4832206Y-1202341D01*
X4832206Y-1202341D02*
X4832206Y-1164246D01*
X4832206Y-1164246D02*
X4822682Y-1116627D01*
X4822682Y-1116627D02*
X4813158Y-1088055D01*
X4813158Y-1088055D02*
X4803634Y-1069008D01*
X4803634Y-1069008D02*
X4784587Y-1040436D01*
X4784587Y-1040436D02*
X4775063Y-1030912D01*
D14*
X-11715Y-1460284D02*
X-11715Y-1403715D01*
X-68285Y-1403715D01*
X-68285Y-1460284D01*
X-11715Y-1460284D01*
D10*
X298872Y-1323484D02*
X317920Y-1323484D01*
X317920Y-1323484D02*
X336967Y-1333008D01*
X336967Y-1333008D02*
X346491Y-1342531D01*
X346491Y-1342531D02*
X356015Y-1361579D01*
X356015Y-1361579D02*
X365539Y-1399674D01*
X365539Y-1399674D02*
X365539Y-1447293D01*
X365539Y-1447293D02*
X356015Y-1485388D01*
X356015Y-1485388D02*
X346491Y-1504436D01*
X346491Y-1504436D02*
X336967Y-1513960D01*
X336967Y-1513960D02*
X317920Y-1523484D01*
X317920Y-1523484D02*
X298872Y-1523484D01*
X298872Y-1523484D02*
X279824Y-1513960D01*
X279824Y-1513960D02*
X270301Y-1504436D01*
X270301Y-1504436D02*
X260777Y-1485388D01*
X260777Y-1485388D02*
X251253Y-1447293D01*
X251253Y-1447293D02*
X251253Y-1399674D01*
X251253Y-1399674D02*
X260777Y-1361579D01*
X260777Y-1361579D02*
X270301Y-1342531D01*
X270301Y-1342531D02*
X279824Y-1333008D01*
X279824Y-1333008D02*
X298872Y-1323484D01*
X451253Y-1504436D02*
X460777Y-1513960D01*
X460777Y-1513960D02*
X451253Y-1523484D01*
X451253Y-1523484D02*
X441729Y-1513960D01*
X441729Y-1513960D02*
X451253Y-1504436D01*
X451253Y-1504436D02*
X451253Y-1523484D01*
X575063Y-1409198D02*
X556015Y-1399674D01*
X556015Y-1399674D02*
X546491Y-1390150D01*
X546491Y-1390150D02*
X536967Y-1371103D01*
X536967Y-1371103D02*
X536967Y-1361579D01*
X536967Y-1361579D02*
X546491Y-1342531D01*
X546491Y-1342531D02*
X556015Y-1333008D01*
X556015Y-1333008D02*
X575063Y-1323484D01*
X575063Y-1323484D02*
X613158Y-1323484D01*
X613158Y-1323484D02*
X632205Y-1333008D01*
X632205Y-1333008D02*
X641729Y-1342531D01*
X641729Y-1342531D02*
X651253Y-1361579D01*
X651253Y-1361579D02*
X651253Y-1371103D01*
X651253Y-1371103D02*
X641729Y-1390150D01*
X641729Y-1390150D02*
X632205Y-1399674D01*
X632205Y-1399674D02*
X613158Y-1409198D01*
X613158Y-1409198D02*
X575063Y-1409198D01*
X575063Y-1409198D02*
X556015Y-1418722D01*
X556015Y-1418722D02*
X546491Y-1428246D01*
X546491Y-1428246D02*
X536967Y-1447293D01*
X536967Y-1447293D02*
X536967Y-1485388D01*
X536967Y-1485388D02*
X546491Y-1504436D01*
X546491Y-1504436D02*
X556015Y-1513960D01*
X556015Y-1513960D02*
X575063Y-1523484D01*
X575063Y-1523484D02*
X613158Y-1523484D01*
X613158Y-1523484D02*
X632205Y-1513960D01*
X632205Y-1513960D02*
X641729Y-1504436D01*
X641729Y-1504436D02*
X651253Y-1485388D01*
X651253Y-1485388D02*
X651253Y-1447293D01*
X651253Y-1447293D02*
X641729Y-1428246D01*
X641729Y-1428246D02*
X632205Y-1418722D01*
X632205Y-1418722D02*
X613158Y-1409198D01*
X775062Y-1323484D02*
X794110Y-1323484D01*
X794110Y-1323484D02*
X813158Y-1333008D01*
X813158Y-1333008D02*
X822682Y-1342531D01*
X822682Y-1342531D02*
X832205Y-1361579D01*
X832205Y-1361579D02*
X841729Y-1399674D01*
X841729Y-1399674D02*
X841729Y-1447293D01*
X841729Y-1447293D02*
X832205Y-1485388D01*
X832205Y-1485388D02*
X822682Y-1504436D01*
X822682Y-1504436D02*
X813158Y-1513960D01*
X813158Y-1513960D02*
X794110Y-1523484D01*
X794110Y-1523484D02*
X775062Y-1523484D01*
X775062Y-1523484D02*
X756015Y-1513960D01*
X756015Y-1513960D02*
X746491Y-1504436D01*
X746491Y-1504436D02*
X736967Y-1485388D01*
X736967Y-1485388D02*
X727443Y-1447293D01*
X727443Y-1447293D02*
X727443Y-1399674D01*
X727443Y-1399674D02*
X736967Y-1361579D01*
X736967Y-1361579D02*
X746491Y-1342531D01*
X746491Y-1342531D02*
X756015Y-1333008D01*
X756015Y-1333008D02*
X775062Y-1323484D01*
X965539Y-1323484D02*
X984586Y-1323484D01*
X984586Y-1323484D02*
X1003634Y-1333008D01*
X1003634Y-1333008D02*
X1013158Y-1342531D01*
X1013158Y-1342531D02*
X1022682Y-1361579D01*
X1022682Y-1361579D02*
X1032205Y-1399674D01*
X1032205Y-1399674D02*
X1032205Y-1447293D01*
X1032205Y-1447293D02*
X1022682Y-1485388D01*
X1022682Y-1485388D02*
X1013158Y-1504436D01*
X1013158Y-1504436D02*
X1003634Y-1513960D01*
X1003634Y-1513960D02*
X984586Y-1523484D01*
X984586Y-1523484D02*
X965539Y-1523484D01*
X965539Y-1523484D02*
X946491Y-1513960D01*
X946491Y-1513960D02*
X936967Y-1504436D01*
X936967Y-1504436D02*
X927443Y-1485388D01*
X927443Y-1485388D02*
X917920Y-1447293D01*
X917920Y-1447293D02*
X917920Y-1399674D01*
X917920Y-1399674D02*
X927443Y-1361579D01*
X927443Y-1361579D02*
X936967Y-1342531D01*
X936967Y-1342531D02*
X946491Y-1333008D01*
X946491Y-1333008D02*
X965539Y-1323484D01*
X1117920Y-1523484D02*
X1117920Y-1390150D01*
X1117920Y-1409198D02*
X1127444Y-1399674D01*
X1127444Y-1399674D02*
X1146491Y-1390150D01*
X1146491Y-1390150D02*
X1175063Y-1390150D01*
X1175063Y-1390150D02*
X1194110Y-1399674D01*
X1194110Y-1399674D02*
X1203634Y-1418722D01*
X1203634Y-1418722D02*
X1203634Y-1523484D01*
X1203634Y-1418722D02*
X1213158Y-1399674D01*
X1213158Y-1399674D02*
X1232205Y-1390150D01*
X1232205Y-1390150D02*
X1260777Y-1390150D01*
X1260777Y-1390150D02*
X1279825Y-1399674D01*
X1279825Y-1399674D02*
X1289348Y-1418722D01*
X1289348Y-1418722D02*
X1289348Y-1523484D01*
X1384586Y-1523484D02*
X1384586Y-1390150D01*
X1384586Y-1409198D02*
X1394110Y-1399674D01*
X1394110Y-1399674D02*
X1413158Y-1390150D01*
X1413158Y-1390150D02*
X1441729Y-1390150D01*
X1441729Y-1390150D02*
X1460777Y-1399674D01*
X1460777Y-1399674D02*
X1470301Y-1418722D01*
X1470301Y-1418722D02*
X1470301Y-1523484D01*
X1470301Y-1418722D02*
X1479824Y-1399674D01*
X1479824Y-1399674D02*
X1498872Y-1390150D01*
X1498872Y-1390150D02*
X1527443Y-1390150D01*
X1527443Y-1390150D02*
X1546491Y-1399674D01*
X1546491Y-1399674D02*
X1556015Y-1418722D01*
X1556015Y-1418722D02*
X1556015Y-1523484D01*
X1946491Y-1313960D02*
X1775063Y-1571103D01*
X2203634Y-1323484D02*
X2222682Y-1323484D01*
X2222682Y-1323484D02*
X2241729Y-1333008D01*
X2241729Y-1333008D02*
X2251253Y-1342531D01*
X2251253Y-1342531D02*
X2260777Y-1361579D01*
X2260777Y-1361579D02*
X2270301Y-1399674D01*
X2270301Y-1399674D02*
X2270301Y-1447293D01*
X2270301Y-1447293D02*
X2260777Y-1485388D01*
X2260777Y-1485388D02*
X2251253Y-1504436D01*
X2251253Y-1504436D02*
X2241729Y-1513960D01*
X2241729Y-1513960D02*
X2222682Y-1523484D01*
X2222682Y-1523484D02*
X2203634Y-1523484D01*
X2203634Y-1523484D02*
X2184587Y-1513960D01*
X2184587Y-1513960D02*
X2175063Y-1504436D01*
X2175063Y-1504436D02*
X2165539Y-1485388D01*
X2165539Y-1485388D02*
X2156015Y-1447293D01*
X2156015Y-1447293D02*
X2156015Y-1399674D01*
X2156015Y-1399674D02*
X2165539Y-1361579D01*
X2165539Y-1361579D02*
X2175063Y-1342531D01*
X2175063Y-1342531D02*
X2184587Y-1333008D01*
X2184587Y-1333008D02*
X2203634Y-1323484D01*
X2356015Y-1504436D02*
X2365539Y-1513960D01*
X2365539Y-1513960D02*
X2356015Y-1523484D01*
X2356015Y-1523484D02*
X2346491Y-1513960D01*
X2346491Y-1513960D02*
X2356015Y-1504436D01*
X2356015Y-1504436D02*
X2356015Y-1523484D01*
X2489348Y-1323484D02*
X2508396Y-1323484D01*
X2508396Y-1323484D02*
X2527444Y-1333008D01*
X2527444Y-1333008D02*
X2536968Y-1342531D01*
X2536968Y-1342531D02*
X2546491Y-1361579D01*
X2546491Y-1361579D02*
X2556015Y-1399674D01*
X2556015Y-1399674D02*
X2556015Y-1447293D01*
X2556015Y-1447293D02*
X2546491Y-1485388D01*
X2546491Y-1485388D02*
X2536968Y-1504436D01*
X2536968Y-1504436D02*
X2527444Y-1513960D01*
X2527444Y-1513960D02*
X2508396Y-1523484D01*
X2508396Y-1523484D02*
X2489348Y-1523484D01*
X2489348Y-1523484D02*
X2470301Y-1513960D01*
X2470301Y-1513960D02*
X2460777Y-1504436D01*
X2460777Y-1504436D02*
X2451253Y-1485388D01*
X2451253Y-1485388D02*
X2441729Y-1447293D01*
X2441729Y-1447293D02*
X2441729Y-1399674D01*
X2441729Y-1399674D02*
X2451253Y-1361579D01*
X2451253Y-1361579D02*
X2460777Y-1342531D01*
X2460777Y-1342531D02*
X2470301Y-1333008D01*
X2470301Y-1333008D02*
X2489348Y-1323484D01*
X2622682Y-1323484D02*
X2746491Y-1323484D01*
X2746491Y-1323484D02*
X2679825Y-1399674D01*
X2679825Y-1399674D02*
X2708396Y-1399674D01*
X2708396Y-1399674D02*
X2727444Y-1409198D01*
X2727444Y-1409198D02*
X2736968Y-1418722D01*
X2736968Y-1418722D02*
X2746491Y-1437769D01*
X2746491Y-1437769D02*
X2746491Y-1485388D01*
X2746491Y-1485388D02*
X2736968Y-1504436D01*
X2736968Y-1504436D02*
X2727444Y-1513960D01*
X2727444Y-1513960D02*
X2708396Y-1523484D01*
X2708396Y-1523484D02*
X2651253Y-1523484D01*
X2651253Y-1523484D02*
X2632206Y-1513960D01*
X2632206Y-1513960D02*
X2622682Y-1504436D01*
X2936967Y-1523484D02*
X2822682Y-1523484D01*
X2879825Y-1523484D02*
X2879825Y-1323484D01*
X2879825Y-1323484D02*
X2860777Y-1352055D01*
X2860777Y-1352055D02*
X2841729Y-1371103D01*
X2841729Y-1371103D02*
X2822682Y-1380627D01*
X3117920Y-1323484D02*
X3022682Y-1323484D01*
X3022682Y-1323484D02*
X3013158Y-1418722D01*
X3013158Y-1418722D02*
X3022682Y-1409198D01*
X3022682Y-1409198D02*
X3041729Y-1399674D01*
X3041729Y-1399674D02*
X3089348Y-1399674D01*
X3089348Y-1399674D02*
X3108396Y-1409198D01*
X3108396Y-1409198D02*
X3117920Y-1418722D01*
X3117920Y-1418722D02*
X3127444Y-1437769D01*
X3127444Y-1437769D02*
X3127444Y-1485388D01*
X3127444Y-1485388D02*
X3117920Y-1504436D01*
X3117920Y-1504436D02*
X3108396Y-1513960D01*
X3108396Y-1513960D02*
X3089348Y-1523484D01*
X3089348Y-1523484D02*
X3041729Y-1523484D01*
X3041729Y-1523484D02*
X3022682Y-1513960D01*
X3022682Y-1513960D02*
X3013158Y-1504436D01*
X3203634Y-1323484D02*
X3203634Y-1361579D01*
X3279825Y-1323484D02*
X3279825Y-1361579D01*
X3575063Y-1599674D02*
X3565539Y-1590150D01*
X3565539Y-1590150D02*
X3546491Y-1561579D01*
X3546491Y-1561579D02*
X3536968Y-1542531D01*
X3536968Y-1542531D02*
X3527444Y-1513960D01*
X3527444Y-1513960D02*
X3517920Y-1466341D01*
X3517920Y-1466341D02*
X3517920Y-1428246D01*
X3517920Y-1428246D02*
X3527444Y-1380627D01*
X3527444Y-1380627D02*
X3536968Y-1352055D01*
X3536968Y-1352055D02*
X3546491Y-1333008D01*
X3546491Y-1333008D02*
X3565539Y-1304436D01*
X3565539Y-1304436D02*
X3575063Y-1294912D01*
X3736968Y-1390150D02*
X3736968Y-1523484D01*
X3689348Y-1313960D02*
X3641729Y-1456817D01*
X3641729Y-1456817D02*
X3765539Y-1456817D01*
X3927444Y-1390150D02*
X3927444Y-1523484D01*
X3879825Y-1313960D02*
X3832206Y-1456817D01*
X3832206Y-1456817D02*
X3956015Y-1456817D01*
X4184587Y-1523484D02*
X4184587Y-1323484D01*
X4270301Y-1523484D02*
X4270301Y-1418722D01*
X4270301Y-1418722D02*
X4260777Y-1399674D01*
X4260777Y-1399674D02*
X4241730Y-1390150D01*
X4241730Y-1390150D02*
X4213158Y-1390150D01*
X4213158Y-1390150D02*
X4194110Y-1399674D01*
X4194110Y-1399674D02*
X4184587Y-1409198D01*
X4394111Y-1523484D02*
X4375063Y-1513960D01*
X4375063Y-1513960D02*
X4365539Y-1504436D01*
X4365539Y-1504436D02*
X4356015Y-1485388D01*
X4356015Y-1485388D02*
X4356015Y-1428246D01*
X4356015Y-1428246D02*
X4365539Y-1409198D01*
X4365539Y-1409198D02*
X4375063Y-1399674D01*
X4375063Y-1399674D02*
X4394111Y-1390150D01*
X4394111Y-1390150D02*
X4422682Y-1390150D01*
X4422682Y-1390150D02*
X4441730Y-1399674D01*
X4441730Y-1399674D02*
X4451253Y-1409198D01*
X4451253Y-1409198D02*
X4460777Y-1428246D01*
X4460777Y-1428246D02*
X4460777Y-1485388D01*
X4460777Y-1485388D02*
X4451253Y-1504436D01*
X4451253Y-1504436D02*
X4441730Y-1513960D01*
X4441730Y-1513960D02*
X4422682Y-1523484D01*
X4422682Y-1523484D02*
X4394111Y-1523484D01*
X4575063Y-1523484D02*
X4556015Y-1513960D01*
X4556015Y-1513960D02*
X4546492Y-1494912D01*
X4546492Y-1494912D02*
X4546492Y-1323484D01*
X4727444Y-1513960D02*
X4708396Y-1523484D01*
X4708396Y-1523484D02*
X4670301Y-1523484D01*
X4670301Y-1523484D02*
X4651253Y-1513960D01*
X4651253Y-1513960D02*
X4641730Y-1494912D01*
X4641730Y-1494912D02*
X4641730Y-1418722D01*
X4641730Y-1418722D02*
X4651253Y-1399674D01*
X4651253Y-1399674D02*
X4670301Y-1390150D01*
X4670301Y-1390150D02*
X4708396Y-1390150D01*
X4708396Y-1390150D02*
X4727444Y-1399674D01*
X4727444Y-1399674D02*
X4736968Y-1418722D01*
X4736968Y-1418722D02*
X4736968Y-1437769D01*
X4736968Y-1437769D02*
X4641730Y-1456817D01*
X4813158Y-1513960D02*
X4832206Y-1523484D01*
X4832206Y-1523484D02*
X4870301Y-1523484D01*
X4870301Y-1523484D02*
X4889349Y-1513960D01*
X4889349Y-1513960D02*
X4898873Y-1494912D01*
X4898873Y-1494912D02*
X4898873Y-1485388D01*
X4898873Y-1485388D02*
X4889349Y-1466341D01*
X4889349Y-1466341D02*
X4870301Y-1456817D01*
X4870301Y-1456817D02*
X4841730Y-1456817D01*
X4841730Y-1456817D02*
X4822682Y-1447293D01*
X4822682Y-1447293D02*
X4813158Y-1428246D01*
X4813158Y-1428246D02*
X4813158Y-1418722D01*
X4813158Y-1418722D02*
X4822682Y-1399674D01*
X4822682Y-1399674D02*
X4841730Y-1390150D01*
X4841730Y-1390150D02*
X4870301Y-1390150D01*
X4870301Y-1390150D02*
X4889349Y-1399674D01*
X4965539Y-1599674D02*
X4975063Y-1590150D01*
X4975063Y-1590150D02*
X4994111Y-1561579D01*
X4994111Y-1561579D02*
X5003634Y-1542531D01*
X5003634Y-1542531D02*
X5013158Y-1513960D01*
X5013158Y-1513960D02*
X5022682Y-1466341D01*
X5022682Y-1466341D02*
X5022682Y-1428246D01*
X5022682Y-1428246D02*
X5013158Y-1380627D01*
X5013158Y-1380627D02*
X5003634Y-1352055D01*
X5003634Y-1352055D02*
X4994111Y-1333008D01*
X4994111Y-1333008D02*
X4975063Y-1304436D01*
X4975063Y-1304436D02*
X4965539Y-1294912D01*
D15*
X-50000Y-1746000D02*
X0Y-1696000D01*
X-50000Y-1646000D01*
X-100000Y-1696000D01*
X-50000Y-1746000D01*
D10*
X365539Y-1787484D02*
X251253Y-1787484D01*
X308396Y-1787484D02*
X308396Y-1587484D01*
X308396Y-1587484D02*
X289348Y-1616055D01*
X289348Y-1616055D02*
X270301Y-1635103D01*
X270301Y-1635103D02*
X251253Y-1644627D01*
X451253Y-1768436D02*
X460777Y-1777960D01*
X460777Y-1777960D02*
X451253Y-1787484D01*
X451253Y-1787484D02*
X441729Y-1777960D01*
X441729Y-1777960D02*
X451253Y-1768436D01*
X451253Y-1768436D02*
X451253Y-1787484D01*
X584586Y-1587484D02*
X603634Y-1587484D01*
X603634Y-1587484D02*
X622682Y-1597008D01*
X622682Y-1597008D02*
X632205Y-1606531D01*
X632205Y-1606531D02*
X641729Y-1625579D01*
X641729Y-1625579D02*
X651253Y-1663674D01*
X651253Y-1663674D02*
X651253Y-1711293D01*
X651253Y-1711293D02*
X641729Y-1749388D01*
X641729Y-1749388D02*
X632205Y-1768436D01*
X632205Y-1768436D02*
X622682Y-1777960D01*
X622682Y-1777960D02*
X603634Y-1787484D01*
X603634Y-1787484D02*
X584586Y-1787484D01*
X584586Y-1787484D02*
X565539Y-1777960D01*
X565539Y-1777960D02*
X556015Y-1768436D01*
X556015Y-1768436D02*
X546491Y-1749388D01*
X546491Y-1749388D02*
X536967Y-1711293D01*
X536967Y-1711293D02*
X536967Y-1663674D01*
X536967Y-1663674D02*
X546491Y-1625579D01*
X546491Y-1625579D02*
X556015Y-1606531D01*
X556015Y-1606531D02*
X565539Y-1597008D01*
X565539Y-1597008D02*
X584586Y-1587484D01*
X775062Y-1587484D02*
X794110Y-1587484D01*
X794110Y-1587484D02*
X813158Y-1597008D01*
X813158Y-1597008D02*
X822682Y-1606531D01*
X822682Y-1606531D02*
X832205Y-1625579D01*
X832205Y-1625579D02*
X841729Y-1663674D01*
X841729Y-1663674D02*
X841729Y-1711293D01*
X841729Y-1711293D02*
X832205Y-1749388D01*
X832205Y-1749388D02*
X822682Y-1768436D01*
X822682Y-1768436D02*
X813158Y-1777960D01*
X813158Y-1777960D02*
X794110Y-1787484D01*
X794110Y-1787484D02*
X775062Y-1787484D01*
X775062Y-1787484D02*
X756015Y-1777960D01*
X756015Y-1777960D02*
X746491Y-1768436D01*
X746491Y-1768436D02*
X736967Y-1749388D01*
X736967Y-1749388D02*
X727443Y-1711293D01*
X727443Y-1711293D02*
X727443Y-1663674D01*
X727443Y-1663674D02*
X736967Y-1625579D01*
X736967Y-1625579D02*
X746491Y-1606531D01*
X746491Y-1606531D02*
X756015Y-1597008D01*
X756015Y-1597008D02*
X775062Y-1587484D01*
X965539Y-1587484D02*
X984586Y-1587484D01*
X984586Y-1587484D02*
X1003634Y-1597008D01*
X1003634Y-1597008D02*
X1013158Y-1606531D01*
X1013158Y-1606531D02*
X1022682Y-1625579D01*
X1022682Y-1625579D02*
X1032205Y-1663674D01*
X1032205Y-1663674D02*
X1032205Y-1711293D01*
X1032205Y-1711293D02*
X1022682Y-1749388D01*
X1022682Y-1749388D02*
X1013158Y-1768436D01*
X1013158Y-1768436D02*
X1003634Y-1777960D01*
X1003634Y-1777960D02*
X984586Y-1787484D01*
X984586Y-1787484D02*
X965539Y-1787484D01*
X965539Y-1787484D02*
X946491Y-1777960D01*
X946491Y-1777960D02*
X936967Y-1768436D01*
X936967Y-1768436D02*
X927443Y-1749388D01*
X927443Y-1749388D02*
X917920Y-1711293D01*
X917920Y-1711293D02*
X917920Y-1663674D01*
X917920Y-1663674D02*
X927443Y-1625579D01*
X927443Y-1625579D02*
X936967Y-1606531D01*
X936967Y-1606531D02*
X946491Y-1597008D01*
X946491Y-1597008D02*
X965539Y-1587484D01*
X1117920Y-1787484D02*
X1117920Y-1654150D01*
X1117920Y-1673198D02*
X1127444Y-1663674D01*
X1127444Y-1663674D02*
X1146491Y-1654150D01*
X1146491Y-1654150D02*
X1175063Y-1654150D01*
X1175063Y-1654150D02*
X1194110Y-1663674D01*
X1194110Y-1663674D02*
X1203634Y-1682722D01*
X1203634Y-1682722D02*
X1203634Y-1787484D01*
X1203634Y-1682722D02*
X1213158Y-1663674D01*
X1213158Y-1663674D02*
X1232205Y-1654150D01*
X1232205Y-1654150D02*
X1260777Y-1654150D01*
X1260777Y-1654150D02*
X1279825Y-1663674D01*
X1279825Y-1663674D02*
X1289348Y-1682722D01*
X1289348Y-1682722D02*
X1289348Y-1787484D01*
X1384586Y-1787484D02*
X1384586Y-1654150D01*
X1384586Y-1673198D02*
X1394110Y-1663674D01*
X1394110Y-1663674D02*
X1413158Y-1654150D01*
X1413158Y-1654150D02*
X1441729Y-1654150D01*
X1441729Y-1654150D02*
X1460777Y-1663674D01*
X1460777Y-1663674D02*
X1470301Y-1682722D01*
X1470301Y-1682722D02*
X1470301Y-1787484D01*
X1470301Y-1682722D02*
X1479824Y-1663674D01*
X1479824Y-1663674D02*
X1498872Y-1654150D01*
X1498872Y-1654150D02*
X1527443Y-1654150D01*
X1527443Y-1654150D02*
X1546491Y-1663674D01*
X1546491Y-1663674D02*
X1556015Y-1682722D01*
X1556015Y-1682722D02*
X1556015Y-1787484D01*
X1946491Y-1577960D02*
X1775063Y-1835103D01*
X2203634Y-1587484D02*
X2222682Y-1587484D01*
X2222682Y-1587484D02*
X2241729Y-1597008D01*
X2241729Y-1597008D02*
X2251253Y-1606531D01*
X2251253Y-1606531D02*
X2260777Y-1625579D01*
X2260777Y-1625579D02*
X2270301Y-1663674D01*
X2270301Y-1663674D02*
X2270301Y-1711293D01*
X2270301Y-1711293D02*
X2260777Y-1749388D01*
X2260777Y-1749388D02*
X2251253Y-1768436D01*
X2251253Y-1768436D02*
X2241729Y-1777960D01*
X2241729Y-1777960D02*
X2222682Y-1787484D01*
X2222682Y-1787484D02*
X2203634Y-1787484D01*
X2203634Y-1787484D02*
X2184587Y-1777960D01*
X2184587Y-1777960D02*
X2175063Y-1768436D01*
X2175063Y-1768436D02*
X2165539Y-1749388D01*
X2165539Y-1749388D02*
X2156015Y-1711293D01*
X2156015Y-1711293D02*
X2156015Y-1663674D01*
X2156015Y-1663674D02*
X2165539Y-1625579D01*
X2165539Y-1625579D02*
X2175063Y-1606531D01*
X2175063Y-1606531D02*
X2184587Y-1597008D01*
X2184587Y-1597008D02*
X2203634Y-1587484D01*
X2356015Y-1768436D02*
X2365539Y-1777960D01*
X2365539Y-1777960D02*
X2356015Y-1787484D01*
X2356015Y-1787484D02*
X2346491Y-1777960D01*
X2346491Y-1777960D02*
X2356015Y-1768436D01*
X2356015Y-1768436D02*
X2356015Y-1787484D01*
X2489348Y-1587484D02*
X2508396Y-1587484D01*
X2508396Y-1587484D02*
X2527444Y-1597008D01*
X2527444Y-1597008D02*
X2536968Y-1606531D01*
X2536968Y-1606531D02*
X2546491Y-1625579D01*
X2546491Y-1625579D02*
X2556015Y-1663674D01*
X2556015Y-1663674D02*
X2556015Y-1711293D01*
X2556015Y-1711293D02*
X2546491Y-1749388D01*
X2546491Y-1749388D02*
X2536968Y-1768436D01*
X2536968Y-1768436D02*
X2527444Y-1777960D01*
X2527444Y-1777960D02*
X2508396Y-1787484D01*
X2508396Y-1787484D02*
X2489348Y-1787484D01*
X2489348Y-1787484D02*
X2470301Y-1777960D01*
X2470301Y-1777960D02*
X2460777Y-1768436D01*
X2460777Y-1768436D02*
X2451253Y-1749388D01*
X2451253Y-1749388D02*
X2441729Y-1711293D01*
X2441729Y-1711293D02*
X2441729Y-1663674D01*
X2441729Y-1663674D02*
X2451253Y-1625579D01*
X2451253Y-1625579D02*
X2460777Y-1606531D01*
X2460777Y-1606531D02*
X2470301Y-1597008D01*
X2470301Y-1597008D02*
X2489348Y-1587484D01*
X2622682Y-1587484D02*
X2746491Y-1587484D01*
X2746491Y-1587484D02*
X2679825Y-1663674D01*
X2679825Y-1663674D02*
X2708396Y-1663674D01*
X2708396Y-1663674D02*
X2727444Y-1673198D01*
X2727444Y-1673198D02*
X2736968Y-1682722D01*
X2736968Y-1682722D02*
X2746491Y-1701769D01*
X2746491Y-1701769D02*
X2746491Y-1749388D01*
X2746491Y-1749388D02*
X2736968Y-1768436D01*
X2736968Y-1768436D02*
X2727444Y-1777960D01*
X2727444Y-1777960D02*
X2708396Y-1787484D01*
X2708396Y-1787484D02*
X2651253Y-1787484D01*
X2651253Y-1787484D02*
X2632206Y-1777960D01*
X2632206Y-1777960D02*
X2622682Y-1768436D01*
X2841729Y-1787484D02*
X2879825Y-1787484D01*
X2879825Y-1787484D02*
X2898872Y-1777960D01*
X2898872Y-1777960D02*
X2908396Y-1768436D01*
X2908396Y-1768436D02*
X2927444Y-1739865D01*
X2927444Y-1739865D02*
X2936967Y-1701769D01*
X2936967Y-1701769D02*
X2936967Y-1625579D01*
X2936967Y-1625579D02*
X2927444Y-1606531D01*
X2927444Y-1606531D02*
X2917920Y-1597008D01*
X2917920Y-1597008D02*
X2898872Y-1587484D01*
X2898872Y-1587484D02*
X2860777Y-1587484D01*
X2860777Y-1587484D02*
X2841729Y-1597008D01*
X2841729Y-1597008D02*
X2832206Y-1606531D01*
X2832206Y-1606531D02*
X2822682Y-1625579D01*
X2822682Y-1625579D02*
X2822682Y-1673198D01*
X2822682Y-1673198D02*
X2832206Y-1692246D01*
X2832206Y-1692246D02*
X2841729Y-1701769D01*
X2841729Y-1701769D02*
X2860777Y-1711293D01*
X2860777Y-1711293D02*
X2898872Y-1711293D01*
X2898872Y-1711293D02*
X2917920Y-1701769D01*
X2917920Y-1701769D02*
X2927444Y-1692246D01*
X2927444Y-1692246D02*
X2936967Y-1673198D01*
X3108396Y-1654150D02*
X3108396Y-1787484D01*
X3060777Y-1577960D02*
X3013158Y-1720817D01*
X3013158Y-1720817D02*
X3136967Y-1720817D01*
X3203634Y-1587484D02*
X3203634Y-1625579D01*
X3279825Y-1587484D02*
X3279825Y-1625579D01*
X3575063Y-1863674D02*
X3565539Y-1854150D01*
X3565539Y-1854150D02*
X3546491Y-1825579D01*
X3546491Y-1825579D02*
X3536968Y-1806531D01*
X3536968Y-1806531D02*
X3527444Y-1777960D01*
X3527444Y-1777960D02*
X3517920Y-1730341D01*
X3517920Y-1730341D02*
X3517920Y-1692246D01*
X3517920Y-1692246D02*
X3527444Y-1644627D01*
X3527444Y-1644627D02*
X3536968Y-1616055D01*
X3536968Y-1616055D02*
X3546491Y-1597008D01*
X3546491Y-1597008D02*
X3565539Y-1568436D01*
X3565539Y-1568436D02*
X3575063Y-1558912D01*
X3736968Y-1654150D02*
X3736968Y-1787484D01*
X3689348Y-1577960D02*
X3641729Y-1720817D01*
X3641729Y-1720817D02*
X3765539Y-1720817D01*
X3994110Y-1787484D02*
X3994110Y-1587484D01*
X4079825Y-1787484D02*
X4079825Y-1682722D01*
X4079825Y-1682722D02*
X4070301Y-1663674D01*
X4070301Y-1663674D02*
X4051253Y-1654150D01*
X4051253Y-1654150D02*
X4022682Y-1654150D01*
X4022682Y-1654150D02*
X4003634Y-1663674D01*
X4003634Y-1663674D02*
X3994110Y-1673198D01*
X4203634Y-1787484D02*
X4184587Y-1777960D01*
X4184587Y-1777960D02*
X4175063Y-1768436D01*
X4175063Y-1768436D02*
X4165539Y-1749388D01*
X4165539Y-1749388D02*
X4165539Y-1692246D01*
X4165539Y-1692246D02*
X4175063Y-1673198D01*
X4175063Y-1673198D02*
X4184587Y-1663674D01*
X4184587Y-1663674D02*
X4203634Y-1654150D01*
X4203634Y-1654150D02*
X4232206Y-1654150D01*
X4232206Y-1654150D02*
X4251253Y-1663674D01*
X4251253Y-1663674D02*
X4260777Y-1673198D01*
X4260777Y-1673198D02*
X4270301Y-1692246D01*
X4270301Y-1692246D02*
X4270301Y-1749388D01*
X4270301Y-1749388D02*
X4260777Y-1768436D01*
X4260777Y-1768436D02*
X4251253Y-1777960D01*
X4251253Y-1777960D02*
X4232206Y-1787484D01*
X4232206Y-1787484D02*
X4203634Y-1787484D01*
X4384587Y-1787484D02*
X4365539Y-1777960D01*
X4365539Y-1777960D02*
X4356015Y-1758912D01*
X4356015Y-1758912D02*
X4356015Y-1587484D01*
X4536968Y-1777960D02*
X4517920Y-1787484D01*
X4517920Y-1787484D02*
X4479825Y-1787484D01*
X4479825Y-1787484D02*
X4460777Y-1777960D01*
X4460777Y-1777960D02*
X4451253Y-1758912D01*
X4451253Y-1758912D02*
X4451253Y-1682722D01*
X4451253Y-1682722D02*
X4460777Y-1663674D01*
X4460777Y-1663674D02*
X4479825Y-1654150D01*
X4479825Y-1654150D02*
X4517920Y-1654150D01*
X4517920Y-1654150D02*
X4536968Y-1663674D01*
X4536968Y-1663674D02*
X4546492Y-1682722D01*
X4546492Y-1682722D02*
X4546492Y-1701769D01*
X4546492Y-1701769D02*
X4451253Y-1720817D01*
X4622682Y-1777960D02*
X4641730Y-1787484D01*
X4641730Y-1787484D02*
X4679825Y-1787484D01*
X4679825Y-1787484D02*
X4698873Y-1777960D01*
X4698873Y-1777960D02*
X4708396Y-1758912D01*
X4708396Y-1758912D02*
X4708396Y-1749388D01*
X4708396Y-1749388D02*
X4698873Y-1730341D01*
X4698873Y-1730341D02*
X4679825Y-1720817D01*
X4679825Y-1720817D02*
X4651253Y-1720817D01*
X4651253Y-1720817D02*
X4632206Y-1711293D01*
X4632206Y-1711293D02*
X4622682Y-1692246D01*
X4622682Y-1692246D02*
X4622682Y-1682722D01*
X4622682Y-1682722D02*
X4632206Y-1663674D01*
X4632206Y-1663674D02*
X4651253Y-1654150D01*
X4651253Y-1654150D02*
X4679825Y-1654150D01*
X4679825Y-1654150D02*
X4698873Y-1663674D01*
X4775063Y-1863674D02*
X4784587Y-1854150D01*
X4784587Y-1854150D02*
X4803634Y-1825579D01*
X4803634Y-1825579D02*
X4813158Y-1806531D01*
X4813158Y-1806531D02*
X4822682Y-1777960D01*
X4822682Y-1777960D02*
X4832206Y-1730341D01*
X4832206Y-1730341D02*
X4832206Y-1692246D01*
X4832206Y-1692246D02*
X4822682Y-1644627D01*
X4822682Y-1644627D02*
X4813158Y-1616055D01*
X4813158Y-1616055D02*
X4803634Y-1597008D01*
X4803634Y-1597008D02*
X4784587Y-1568436D01*
X4784587Y-1568436D02*
X4775063Y-1558912D01*
D16*
X-102000Y-1909000D02*
X0Y-2011000D01*
X0Y-1909000D02*
X-102000Y-2011000D01*
X0Y-1960000D02*
G75*
G03*
X0Y-1960000I-51000J0D01*
G01*
D10*
X365539Y-2051484D02*
X251253Y-2051484D01*
X308396Y-2051484D02*
X308396Y-1851484D01*
X308396Y-1851484D02*
X289348Y-1880055D01*
X289348Y-1880055D02*
X270301Y-1899103D01*
X270301Y-1899103D02*
X251253Y-1908627D01*
X451253Y-2032436D02*
X460777Y-2041960D01*
X460777Y-2041960D02*
X451253Y-2051484D01*
X451253Y-2051484D02*
X441729Y-2041960D01*
X441729Y-2041960D02*
X451253Y-2032436D01*
X451253Y-2032436D02*
X451253Y-2051484D01*
X584586Y-1851484D02*
X603634Y-1851484D01*
X603634Y-1851484D02*
X622682Y-1861008D01*
X622682Y-1861008D02*
X632205Y-1870531D01*
X632205Y-1870531D02*
X641729Y-1889579D01*
X641729Y-1889579D02*
X651253Y-1927674D01*
X651253Y-1927674D02*
X651253Y-1975293D01*
X651253Y-1975293D02*
X641729Y-2013388D01*
X641729Y-2013388D02*
X632205Y-2032436D01*
X632205Y-2032436D02*
X622682Y-2041960D01*
X622682Y-2041960D02*
X603634Y-2051484D01*
X603634Y-2051484D02*
X584586Y-2051484D01*
X584586Y-2051484D02*
X565539Y-2041960D01*
X565539Y-2041960D02*
X556015Y-2032436D01*
X556015Y-2032436D02*
X546491Y-2013388D01*
X546491Y-2013388D02*
X536967Y-1975293D01*
X536967Y-1975293D02*
X536967Y-1927674D01*
X536967Y-1927674D02*
X546491Y-1889579D01*
X546491Y-1889579D02*
X556015Y-1870531D01*
X556015Y-1870531D02*
X565539Y-1861008D01*
X565539Y-1861008D02*
X584586Y-1851484D01*
X727443Y-1870531D02*
X736967Y-1861008D01*
X736967Y-1861008D02*
X756015Y-1851484D01*
X756015Y-1851484D02*
X803634Y-1851484D01*
X803634Y-1851484D02*
X822682Y-1861008D01*
X822682Y-1861008D02*
X832205Y-1870531D01*
X832205Y-1870531D02*
X841729Y-1889579D01*
X841729Y-1889579D02*
X841729Y-1908627D01*
X841729Y-1908627D02*
X832205Y-1937198D01*
X832205Y-1937198D02*
X717920Y-2051484D01*
X717920Y-2051484D02*
X841729Y-2051484D01*
X965539Y-1851484D02*
X984586Y-1851484D01*
X984586Y-1851484D02*
X1003634Y-1861008D01*
X1003634Y-1861008D02*
X1013158Y-1870531D01*
X1013158Y-1870531D02*
X1022682Y-1889579D01*
X1022682Y-1889579D02*
X1032205Y-1927674D01*
X1032205Y-1927674D02*
X1032205Y-1975293D01*
X1032205Y-1975293D02*
X1022682Y-2013388D01*
X1022682Y-2013388D02*
X1013158Y-2032436D01*
X1013158Y-2032436D02*
X1003634Y-2041960D01*
X1003634Y-2041960D02*
X984586Y-2051484D01*
X984586Y-2051484D02*
X965539Y-2051484D01*
X965539Y-2051484D02*
X946491Y-2041960D01*
X946491Y-2041960D02*
X936967Y-2032436D01*
X936967Y-2032436D02*
X927443Y-2013388D01*
X927443Y-2013388D02*
X917920Y-1975293D01*
X917920Y-1975293D02*
X917920Y-1927674D01*
X917920Y-1927674D02*
X927443Y-1889579D01*
X927443Y-1889579D02*
X936967Y-1870531D01*
X936967Y-1870531D02*
X946491Y-1861008D01*
X946491Y-1861008D02*
X965539Y-1851484D01*
X1117920Y-2051484D02*
X1117920Y-1918150D01*
X1117920Y-1937198D02*
X1127444Y-1927674D01*
X1127444Y-1927674D02*
X1146491Y-1918150D01*
X1146491Y-1918150D02*
X1175063Y-1918150D01*
X1175063Y-1918150D02*
X1194110Y-1927674D01*
X1194110Y-1927674D02*
X1203634Y-1946722D01*
X1203634Y-1946722D02*
X1203634Y-2051484D01*
X1203634Y-1946722D02*
X1213158Y-1927674D01*
X1213158Y-1927674D02*
X1232205Y-1918150D01*
X1232205Y-1918150D02*
X1260777Y-1918150D01*
X1260777Y-1918150D02*
X1279825Y-1927674D01*
X1279825Y-1927674D02*
X1289348Y-1946722D01*
X1289348Y-1946722D02*
X1289348Y-2051484D01*
X1384586Y-2051484D02*
X1384586Y-1918150D01*
X1384586Y-1937198D02*
X1394110Y-1927674D01*
X1394110Y-1927674D02*
X1413158Y-1918150D01*
X1413158Y-1918150D02*
X1441729Y-1918150D01*
X1441729Y-1918150D02*
X1460777Y-1927674D01*
X1460777Y-1927674D02*
X1470301Y-1946722D01*
X1470301Y-1946722D02*
X1470301Y-2051484D01*
X1470301Y-1946722D02*
X1479824Y-1927674D01*
X1479824Y-1927674D02*
X1498872Y-1918150D01*
X1498872Y-1918150D02*
X1527443Y-1918150D01*
X1527443Y-1918150D02*
X1546491Y-1927674D01*
X1546491Y-1927674D02*
X1556015Y-1946722D01*
X1556015Y-1946722D02*
X1556015Y-2051484D01*
X1946491Y-1841960D02*
X1775063Y-2099103D01*
X2203634Y-1851484D02*
X2222682Y-1851484D01*
X2222682Y-1851484D02*
X2241729Y-1861008D01*
X2241729Y-1861008D02*
X2251253Y-1870531D01*
X2251253Y-1870531D02*
X2260777Y-1889579D01*
X2260777Y-1889579D02*
X2270301Y-1927674D01*
X2270301Y-1927674D02*
X2270301Y-1975293D01*
X2270301Y-1975293D02*
X2260777Y-2013388D01*
X2260777Y-2013388D02*
X2251253Y-2032436D01*
X2251253Y-2032436D02*
X2241729Y-2041960D01*
X2241729Y-2041960D02*
X2222682Y-2051484D01*
X2222682Y-2051484D02*
X2203634Y-2051484D01*
X2203634Y-2051484D02*
X2184587Y-2041960D01*
X2184587Y-2041960D02*
X2175063Y-2032436D01*
X2175063Y-2032436D02*
X2165539Y-2013388D01*
X2165539Y-2013388D02*
X2156015Y-1975293D01*
X2156015Y-1975293D02*
X2156015Y-1927674D01*
X2156015Y-1927674D02*
X2165539Y-1889579D01*
X2165539Y-1889579D02*
X2175063Y-1870531D01*
X2175063Y-1870531D02*
X2184587Y-1861008D01*
X2184587Y-1861008D02*
X2203634Y-1851484D01*
X2356015Y-2032436D02*
X2365539Y-2041960D01*
X2365539Y-2041960D02*
X2356015Y-2051484D01*
X2356015Y-2051484D02*
X2346491Y-2041960D01*
X2346491Y-2041960D02*
X2356015Y-2032436D01*
X2356015Y-2032436D02*
X2356015Y-2051484D01*
X2489348Y-1851484D02*
X2508396Y-1851484D01*
X2508396Y-1851484D02*
X2527444Y-1861008D01*
X2527444Y-1861008D02*
X2536968Y-1870531D01*
X2536968Y-1870531D02*
X2546491Y-1889579D01*
X2546491Y-1889579D02*
X2556015Y-1927674D01*
X2556015Y-1927674D02*
X2556015Y-1975293D01*
X2556015Y-1975293D02*
X2546491Y-2013388D01*
X2546491Y-2013388D02*
X2536968Y-2032436D01*
X2536968Y-2032436D02*
X2527444Y-2041960D01*
X2527444Y-2041960D02*
X2508396Y-2051484D01*
X2508396Y-2051484D02*
X2489348Y-2051484D01*
X2489348Y-2051484D02*
X2470301Y-2041960D01*
X2470301Y-2041960D02*
X2460777Y-2032436D01*
X2460777Y-2032436D02*
X2451253Y-2013388D01*
X2451253Y-2013388D02*
X2441729Y-1975293D01*
X2441729Y-1975293D02*
X2441729Y-1927674D01*
X2441729Y-1927674D02*
X2451253Y-1889579D01*
X2451253Y-1889579D02*
X2460777Y-1870531D01*
X2460777Y-1870531D02*
X2470301Y-1861008D01*
X2470301Y-1861008D02*
X2489348Y-1851484D01*
X2727444Y-1918150D02*
X2727444Y-2051484D01*
X2679825Y-1841960D02*
X2632206Y-1984817D01*
X2632206Y-1984817D02*
X2756015Y-1984817D01*
X2870301Y-1851484D02*
X2889348Y-1851484D01*
X2889348Y-1851484D02*
X2908396Y-1861008D01*
X2908396Y-1861008D02*
X2917920Y-1870531D01*
X2917920Y-1870531D02*
X2927444Y-1889579D01*
X2927444Y-1889579D02*
X2936967Y-1927674D01*
X2936967Y-1927674D02*
X2936967Y-1975293D01*
X2936967Y-1975293D02*
X2927444Y-2013388D01*
X2927444Y-2013388D02*
X2917920Y-2032436D01*
X2917920Y-2032436D02*
X2908396Y-2041960D01*
X2908396Y-2041960D02*
X2889348Y-2051484D01*
X2889348Y-2051484D02*
X2870301Y-2051484D01*
X2870301Y-2051484D02*
X2851253Y-2041960D01*
X2851253Y-2041960D02*
X2841729Y-2032436D01*
X2841729Y-2032436D02*
X2832206Y-2013388D01*
X2832206Y-2013388D02*
X2822682Y-1975293D01*
X2822682Y-1975293D02*
X2822682Y-1927674D01*
X2822682Y-1927674D02*
X2832206Y-1889579D01*
X2832206Y-1889579D02*
X2841729Y-1870531D01*
X2841729Y-1870531D02*
X2851253Y-1861008D01*
X2851253Y-1861008D02*
X2870301Y-1851484D01*
X3013158Y-1870531D02*
X3022682Y-1861008D01*
X3022682Y-1861008D02*
X3041729Y-1851484D01*
X3041729Y-1851484D02*
X3089348Y-1851484D01*
X3089348Y-1851484D02*
X3108396Y-1861008D01*
X3108396Y-1861008D02*
X3117920Y-1870531D01*
X3117920Y-1870531D02*
X3127444Y-1889579D01*
X3127444Y-1889579D02*
X3127444Y-1908627D01*
X3127444Y-1908627D02*
X3117920Y-1937198D01*
X3117920Y-1937198D02*
X3003634Y-2051484D01*
X3003634Y-2051484D02*
X3127444Y-2051484D01*
X3203634Y-1851484D02*
X3203634Y-1889579D01*
X3279825Y-1851484D02*
X3279825Y-1889579D01*
X3575063Y-2127674D02*
X3565539Y-2118150D01*
X3565539Y-2118150D02*
X3546491Y-2089579D01*
X3546491Y-2089579D02*
X3536968Y-2070531D01*
X3536968Y-2070531D02*
X3527444Y-2041960D01*
X3527444Y-2041960D02*
X3517920Y-1994341D01*
X3517920Y-1994341D02*
X3517920Y-1956246D01*
X3517920Y-1956246D02*
X3527444Y-1908627D01*
X3527444Y-1908627D02*
X3536968Y-1880055D01*
X3536968Y-1880055D02*
X3546491Y-1861008D01*
X3546491Y-1861008D02*
X3565539Y-1832436D01*
X3565539Y-1832436D02*
X3575063Y-1822912D01*
X3736968Y-1918150D02*
X3736968Y-2051484D01*
X3689348Y-1841960D02*
X3641729Y-1984817D01*
X3641729Y-1984817D02*
X3765539Y-1984817D01*
X3994110Y-2051484D02*
X3994110Y-1851484D01*
X4079825Y-2051484D02*
X4079825Y-1946722D01*
X4079825Y-1946722D02*
X4070301Y-1927674D01*
X4070301Y-1927674D02*
X4051253Y-1918150D01*
X4051253Y-1918150D02*
X4022682Y-1918150D01*
X4022682Y-1918150D02*
X4003634Y-1927674D01*
X4003634Y-1927674D02*
X3994110Y-1937198D01*
X4203634Y-2051484D02*
X4184587Y-2041960D01*
X4184587Y-2041960D02*
X4175063Y-2032436D01*
X4175063Y-2032436D02*
X4165539Y-2013388D01*
X4165539Y-2013388D02*
X4165539Y-1956246D01*
X4165539Y-1956246D02*
X4175063Y-1937198D01*
X4175063Y-1937198D02*
X4184587Y-1927674D01*
X4184587Y-1927674D02*
X4203634Y-1918150D01*
X4203634Y-1918150D02*
X4232206Y-1918150D01*
X4232206Y-1918150D02*
X4251253Y-1927674D01*
X4251253Y-1927674D02*
X4260777Y-1937198D01*
X4260777Y-1937198D02*
X4270301Y-1956246D01*
X4270301Y-1956246D02*
X4270301Y-2013388D01*
X4270301Y-2013388D02*
X4260777Y-2032436D01*
X4260777Y-2032436D02*
X4251253Y-2041960D01*
X4251253Y-2041960D02*
X4232206Y-2051484D01*
X4232206Y-2051484D02*
X4203634Y-2051484D01*
X4384587Y-2051484D02*
X4365539Y-2041960D01*
X4365539Y-2041960D02*
X4356015Y-2022912D01*
X4356015Y-2022912D02*
X4356015Y-1851484D01*
X4536968Y-2041960D02*
X4517920Y-2051484D01*
X4517920Y-2051484D02*
X4479825Y-2051484D01*
X4479825Y-2051484D02*
X4460777Y-2041960D01*
X4460777Y-2041960D02*
X4451253Y-2022912D01*
X4451253Y-2022912D02*
X4451253Y-1946722D01*
X4451253Y-1946722D02*
X4460777Y-1927674D01*
X4460777Y-1927674D02*
X4479825Y-1918150D01*
X4479825Y-1918150D02*
X4517920Y-1918150D01*
X4517920Y-1918150D02*
X4536968Y-1927674D01*
X4536968Y-1927674D02*
X4546492Y-1946722D01*
X4546492Y-1946722D02*
X4546492Y-1965769D01*
X4546492Y-1965769D02*
X4451253Y-1984817D01*
X4622682Y-2041960D02*
X4641730Y-2051484D01*
X4641730Y-2051484D02*
X4679825Y-2051484D01*
X4679825Y-2051484D02*
X4698873Y-2041960D01*
X4698873Y-2041960D02*
X4708396Y-2022912D01*
X4708396Y-2022912D02*
X4708396Y-2013388D01*
X4708396Y-2013388D02*
X4698873Y-1994341D01*
X4698873Y-1994341D02*
X4679825Y-1984817D01*
X4679825Y-1984817D02*
X4651253Y-1984817D01*
X4651253Y-1984817D02*
X4632206Y-1975293D01*
X4632206Y-1975293D02*
X4622682Y-1956246D01*
X4622682Y-1956246D02*
X4622682Y-1946722D01*
X4622682Y-1946722D02*
X4632206Y-1927674D01*
X4632206Y-1927674D02*
X4651253Y-1918150D01*
X4651253Y-1918150D02*
X4679825Y-1918150D01*
X4679825Y-1918150D02*
X4698873Y-1927674D01*
X4775063Y-2127674D02*
X4784587Y-2118150D01*
X4784587Y-2118150D02*
X4803634Y-2089579D01*
X4803634Y-2089579D02*
X4813158Y-2070531D01*
X4813158Y-2070531D02*
X4822682Y-2041960D01*
X4822682Y-2041960D02*
X4832206Y-1994341D01*
X4832206Y-1994341D02*
X4832206Y-1956246D01*
X4832206Y-1956246D02*
X4822682Y-1908627D01*
X4822682Y-1908627D02*
X4813158Y-1880055D01*
X4813158Y-1880055D02*
X4803634Y-1861008D01*
X4803634Y-1861008D02*
X4784587Y-1832436D01*
X4784587Y-1832436D02*
X4775063Y-1822912D01*
D17*
X-110000Y-2169000D02*
X0Y-2279000D01*
X0Y-2169000D02*
X-110000Y-2279000D01*
X-55000Y-2169000D02*
X-55000Y-2279000D01*
X-110000Y-2224000D02*
X0Y-2224000D01*
D10*
X365539Y-2315484D02*
X251253Y-2315484D01*
X308396Y-2315484D02*
X308396Y-2115484D01*
X308396Y-2115484D02*
X289348Y-2144055D01*
X289348Y-2144055D02*
X270301Y-2163103D01*
X270301Y-2163103D02*
X251253Y-2172627D01*
X451253Y-2296436D02*
X460777Y-2305960D01*
X460777Y-2305960D02*
X451253Y-2315484D01*
X451253Y-2315484D02*
X441729Y-2305960D01*
X441729Y-2305960D02*
X451253Y-2296436D01*
X451253Y-2296436D02*
X451253Y-2315484D01*
X651253Y-2315484D02*
X536967Y-2315484D01*
X594110Y-2315484D02*
X594110Y-2115484D01*
X594110Y-2115484D02*
X575063Y-2144055D01*
X575063Y-2144055D02*
X556015Y-2163103D01*
X556015Y-2163103D02*
X536967Y-2172627D01*
X775062Y-2115484D02*
X794110Y-2115484D01*
X794110Y-2115484D02*
X813158Y-2125008D01*
X813158Y-2125008D02*
X822682Y-2134531D01*
X822682Y-2134531D02*
X832205Y-2153579D01*
X832205Y-2153579D02*
X841729Y-2191674D01*
X841729Y-2191674D02*
X841729Y-2239293D01*
X841729Y-2239293D02*
X832205Y-2277389D01*
X832205Y-2277389D02*
X822682Y-2296436D01*
X822682Y-2296436D02*
X813158Y-2305960D01*
X813158Y-2305960D02*
X794110Y-2315484D01*
X794110Y-2315484D02*
X775062Y-2315484D01*
X775062Y-2315484D02*
X756015Y-2305960D01*
X756015Y-2305960D02*
X746491Y-2296436D01*
X746491Y-2296436D02*
X736967Y-2277389D01*
X736967Y-2277389D02*
X727443Y-2239293D01*
X727443Y-2239293D02*
X727443Y-2191674D01*
X727443Y-2191674D02*
X736967Y-2153579D01*
X736967Y-2153579D02*
X746491Y-2134531D01*
X746491Y-2134531D02*
X756015Y-2125008D01*
X756015Y-2125008D02*
X775062Y-2115484D01*
X965539Y-2115484D02*
X984586Y-2115484D01*
X984586Y-2115484D02*
X1003634Y-2125008D01*
X1003634Y-2125008D02*
X1013158Y-2134531D01*
X1013158Y-2134531D02*
X1022682Y-2153579D01*
X1022682Y-2153579D02*
X1032205Y-2191674D01*
X1032205Y-2191674D02*
X1032205Y-2239293D01*
X1032205Y-2239293D02*
X1022682Y-2277389D01*
X1022682Y-2277389D02*
X1013158Y-2296436D01*
X1013158Y-2296436D02*
X1003634Y-2305960D01*
X1003634Y-2305960D02*
X984586Y-2315484D01*
X984586Y-2315484D02*
X965539Y-2315484D01*
X965539Y-2315484D02*
X946491Y-2305960D01*
X946491Y-2305960D02*
X936967Y-2296436D01*
X936967Y-2296436D02*
X927443Y-2277389D01*
X927443Y-2277389D02*
X917920Y-2239293D01*
X917920Y-2239293D02*
X917920Y-2191674D01*
X917920Y-2191674D02*
X927443Y-2153579D01*
X927443Y-2153579D02*
X936967Y-2134531D01*
X936967Y-2134531D02*
X946491Y-2125008D01*
X946491Y-2125008D02*
X965539Y-2115484D01*
X1117920Y-2315484D02*
X1117920Y-2182150D01*
X1117920Y-2201198D02*
X1127444Y-2191674D01*
X1127444Y-2191674D02*
X1146491Y-2182150D01*
X1146491Y-2182150D02*
X1175063Y-2182150D01*
X1175063Y-2182150D02*
X1194110Y-2191674D01*
X1194110Y-2191674D02*
X1203634Y-2210722D01*
X1203634Y-2210722D02*
X1203634Y-2315484D01*
X1203634Y-2210722D02*
X1213158Y-2191674D01*
X1213158Y-2191674D02*
X1232205Y-2182150D01*
X1232205Y-2182150D02*
X1260777Y-2182150D01*
X1260777Y-2182150D02*
X1279825Y-2191674D01*
X1279825Y-2191674D02*
X1289348Y-2210722D01*
X1289348Y-2210722D02*
X1289348Y-2315484D01*
X1384586Y-2315484D02*
X1384586Y-2182150D01*
X1384586Y-2201198D02*
X1394110Y-2191674D01*
X1394110Y-2191674D02*
X1413158Y-2182150D01*
X1413158Y-2182150D02*
X1441729Y-2182150D01*
X1441729Y-2182150D02*
X1460777Y-2191674D01*
X1460777Y-2191674D02*
X1470301Y-2210722D01*
X1470301Y-2210722D02*
X1470301Y-2315484D01*
X1470301Y-2210722D02*
X1479824Y-2191674D01*
X1479824Y-2191674D02*
X1498872Y-2182150D01*
X1498872Y-2182150D02*
X1527443Y-2182150D01*
X1527443Y-2182150D02*
X1546491Y-2191674D01*
X1546491Y-2191674D02*
X1556015Y-2210722D01*
X1556015Y-2210722D02*
X1556015Y-2315484D01*
X1946491Y-2105960D02*
X1775063Y-2363103D01*
X2203634Y-2115484D02*
X2222682Y-2115484D01*
X2222682Y-2115484D02*
X2241729Y-2125008D01*
X2241729Y-2125008D02*
X2251253Y-2134531D01*
X2251253Y-2134531D02*
X2260777Y-2153579D01*
X2260777Y-2153579D02*
X2270301Y-2191674D01*
X2270301Y-2191674D02*
X2270301Y-2239293D01*
X2270301Y-2239293D02*
X2260777Y-2277389D01*
X2260777Y-2277389D02*
X2251253Y-2296436D01*
X2251253Y-2296436D02*
X2241729Y-2305960D01*
X2241729Y-2305960D02*
X2222682Y-2315484D01*
X2222682Y-2315484D02*
X2203634Y-2315484D01*
X2203634Y-2315484D02*
X2184587Y-2305960D01*
X2184587Y-2305960D02*
X2175063Y-2296436D01*
X2175063Y-2296436D02*
X2165539Y-2277389D01*
X2165539Y-2277389D02*
X2156015Y-2239293D01*
X2156015Y-2239293D02*
X2156015Y-2191674D01*
X2156015Y-2191674D02*
X2165539Y-2153579D01*
X2165539Y-2153579D02*
X2175063Y-2134531D01*
X2175063Y-2134531D02*
X2184587Y-2125008D01*
X2184587Y-2125008D02*
X2203634Y-2115484D01*
X2356015Y-2296436D02*
X2365539Y-2305960D01*
X2365539Y-2305960D02*
X2356015Y-2315484D01*
X2356015Y-2315484D02*
X2346491Y-2305960D01*
X2346491Y-2305960D02*
X2356015Y-2296436D01*
X2356015Y-2296436D02*
X2356015Y-2315484D01*
X2489348Y-2115484D02*
X2508396Y-2115484D01*
X2508396Y-2115484D02*
X2527444Y-2125008D01*
X2527444Y-2125008D02*
X2536968Y-2134531D01*
X2536968Y-2134531D02*
X2546491Y-2153579D01*
X2546491Y-2153579D02*
X2556015Y-2191674D01*
X2556015Y-2191674D02*
X2556015Y-2239293D01*
X2556015Y-2239293D02*
X2546491Y-2277389D01*
X2546491Y-2277389D02*
X2536968Y-2296436D01*
X2536968Y-2296436D02*
X2527444Y-2305960D01*
X2527444Y-2305960D02*
X2508396Y-2315484D01*
X2508396Y-2315484D02*
X2489348Y-2315484D01*
X2489348Y-2315484D02*
X2470301Y-2305960D01*
X2470301Y-2305960D02*
X2460777Y-2296436D01*
X2460777Y-2296436D02*
X2451253Y-2277389D01*
X2451253Y-2277389D02*
X2441729Y-2239293D01*
X2441729Y-2239293D02*
X2441729Y-2191674D01*
X2441729Y-2191674D02*
X2451253Y-2153579D01*
X2451253Y-2153579D02*
X2460777Y-2134531D01*
X2460777Y-2134531D02*
X2470301Y-2125008D01*
X2470301Y-2125008D02*
X2489348Y-2115484D01*
X2727444Y-2182150D02*
X2727444Y-2315484D01*
X2679825Y-2105960D02*
X2632206Y-2248817D01*
X2632206Y-2248817D02*
X2756015Y-2248817D01*
X2813158Y-2115484D02*
X2936967Y-2115484D01*
X2936967Y-2115484D02*
X2870301Y-2191674D01*
X2870301Y-2191674D02*
X2898872Y-2191674D01*
X2898872Y-2191674D02*
X2917920Y-2201198D01*
X2917920Y-2201198D02*
X2927444Y-2210722D01*
X2927444Y-2210722D02*
X2936967Y-2229770D01*
X2936967Y-2229770D02*
X2936967Y-2277389D01*
X2936967Y-2277389D02*
X2927444Y-2296436D01*
X2927444Y-2296436D02*
X2917920Y-2305960D01*
X2917920Y-2305960D02*
X2898872Y-2315484D01*
X2898872Y-2315484D02*
X2841729Y-2315484D01*
X2841729Y-2315484D02*
X2822682Y-2305960D01*
X2822682Y-2305960D02*
X2813158Y-2296436D01*
X3003634Y-2115484D02*
X3127444Y-2115484D01*
X3127444Y-2115484D02*
X3060777Y-2191674D01*
X3060777Y-2191674D02*
X3089348Y-2191674D01*
X3089348Y-2191674D02*
X3108396Y-2201198D01*
X3108396Y-2201198D02*
X3117920Y-2210722D01*
X3117920Y-2210722D02*
X3127444Y-2229770D01*
X3127444Y-2229770D02*
X3127444Y-2277389D01*
X3127444Y-2277389D02*
X3117920Y-2296436D01*
X3117920Y-2296436D02*
X3108396Y-2305960D01*
X3108396Y-2305960D02*
X3089348Y-2315484D01*
X3089348Y-2315484D02*
X3032206Y-2315484D01*
X3032206Y-2315484D02*
X3013158Y-2305960D01*
X3013158Y-2305960D02*
X3003634Y-2296436D01*
X3203634Y-2115484D02*
X3203634Y-2153579D01*
X3279825Y-2115484D02*
X3279825Y-2153579D01*
X3575063Y-2391674D02*
X3565539Y-2382150D01*
X3565539Y-2382150D02*
X3546491Y-2353579D01*
X3546491Y-2353579D02*
X3536968Y-2334531D01*
X3536968Y-2334531D02*
X3527444Y-2305960D01*
X3527444Y-2305960D02*
X3517920Y-2258341D01*
X3517920Y-2258341D02*
X3517920Y-2220246D01*
X3517920Y-2220246D02*
X3527444Y-2172627D01*
X3527444Y-2172627D02*
X3536968Y-2144055D01*
X3536968Y-2144055D02*
X3546491Y-2125008D01*
X3546491Y-2125008D02*
X3565539Y-2096436D01*
X3565539Y-2096436D02*
X3575063Y-2086912D01*
X3632206Y-2115484D02*
X3756015Y-2115484D01*
X3756015Y-2115484D02*
X3689348Y-2191674D01*
X3689348Y-2191674D02*
X3717920Y-2191674D01*
X3717920Y-2191674D02*
X3736968Y-2201198D01*
X3736968Y-2201198D02*
X3746491Y-2210722D01*
X3746491Y-2210722D02*
X3756015Y-2229770D01*
X3756015Y-2229770D02*
X3756015Y-2277389D01*
X3756015Y-2277389D02*
X3746491Y-2296436D01*
X3746491Y-2296436D02*
X3736968Y-2305960D01*
X3736968Y-2305960D02*
X3717920Y-2315484D01*
X3717920Y-2315484D02*
X3660777Y-2315484D01*
X3660777Y-2315484D02*
X3641729Y-2305960D01*
X3641729Y-2305960D02*
X3632206Y-2296436D01*
X3994110Y-2315484D02*
X3994110Y-2115484D01*
X4079825Y-2315484D02*
X4079825Y-2210722D01*
X4079825Y-2210722D02*
X4070301Y-2191674D01*
X4070301Y-2191674D02*
X4051253Y-2182150D01*
X4051253Y-2182150D02*
X4022682Y-2182150D01*
X4022682Y-2182150D02*
X4003634Y-2191674D01*
X4003634Y-2191674D02*
X3994110Y-2201198D01*
X4203634Y-2315484D02*
X4184587Y-2305960D01*
X4184587Y-2305960D02*
X4175063Y-2296436D01*
X4175063Y-2296436D02*
X4165539Y-2277389D01*
X4165539Y-2277389D02*
X4165539Y-2220246D01*
X4165539Y-2220246D02*
X4175063Y-2201198D01*
X4175063Y-2201198D02*
X4184587Y-2191674D01*
X4184587Y-2191674D02*
X4203634Y-2182150D01*
X4203634Y-2182150D02*
X4232206Y-2182150D01*
X4232206Y-2182150D02*
X4251253Y-2191674D01*
X4251253Y-2191674D02*
X4260777Y-2201198D01*
X4260777Y-2201198D02*
X4270301Y-2220246D01*
X4270301Y-2220246D02*
X4270301Y-2277389D01*
X4270301Y-2277389D02*
X4260777Y-2296436D01*
X4260777Y-2296436D02*
X4251253Y-2305960D01*
X4251253Y-2305960D02*
X4232206Y-2315484D01*
X4232206Y-2315484D02*
X4203634Y-2315484D01*
X4384587Y-2315484D02*
X4365539Y-2305960D01*
X4365539Y-2305960D02*
X4356015Y-2286912D01*
X4356015Y-2286912D02*
X4356015Y-2115484D01*
X4536968Y-2305960D02*
X4517920Y-2315484D01*
X4517920Y-2315484D02*
X4479825Y-2315484D01*
X4479825Y-2315484D02*
X4460777Y-2305960D01*
X4460777Y-2305960D02*
X4451253Y-2286912D01*
X4451253Y-2286912D02*
X4451253Y-2210722D01*
X4451253Y-2210722D02*
X4460777Y-2191674D01*
X4460777Y-2191674D02*
X4479825Y-2182150D01*
X4479825Y-2182150D02*
X4517920Y-2182150D01*
X4517920Y-2182150D02*
X4536968Y-2191674D01*
X4536968Y-2191674D02*
X4546492Y-2210722D01*
X4546492Y-2210722D02*
X4546492Y-2229770D01*
X4546492Y-2229770D02*
X4451253Y-2248817D01*
X4622682Y-2305960D02*
X4641730Y-2315484D01*
X4641730Y-2315484D02*
X4679825Y-2315484D01*
X4679825Y-2315484D02*
X4698873Y-2305960D01*
X4698873Y-2305960D02*
X4708396Y-2286912D01*
X4708396Y-2286912D02*
X4708396Y-2277389D01*
X4708396Y-2277389D02*
X4698873Y-2258341D01*
X4698873Y-2258341D02*
X4679825Y-2248817D01*
X4679825Y-2248817D02*
X4651253Y-2248817D01*
X4651253Y-2248817D02*
X4632206Y-2239293D01*
X4632206Y-2239293D02*
X4622682Y-2220246D01*
X4622682Y-2220246D02*
X4622682Y-2210722D01*
X4622682Y-2210722D02*
X4632206Y-2191674D01*
X4632206Y-2191674D02*
X4651253Y-2182150D01*
X4651253Y-2182150D02*
X4679825Y-2182150D01*
X4679825Y-2182150D02*
X4698873Y-2191674D01*
X4775063Y-2391674D02*
X4784587Y-2382150D01*
X4784587Y-2382150D02*
X4803634Y-2353579D01*
X4803634Y-2353579D02*
X4813158Y-2334531D01*
X4813158Y-2334531D02*
X4822682Y-2305960D01*
X4822682Y-2305960D02*
X4832206Y-2258341D01*
X4832206Y-2258341D02*
X4832206Y-2220246D01*
X4832206Y-2220246D02*
X4822682Y-2172627D01*
X4822682Y-2172627D02*
X4813158Y-2144055D01*
X4813158Y-2144055D02*
X4803634Y-2125008D01*
X4803634Y-2125008D02*
X4784587Y-2096436D01*
X4784587Y-2096436D02*
X4775063Y-2086912D01*
D18*
X-120000Y-2428000D02*
X0Y-2548000D01*
X0Y-2428000D02*
X-120000Y-2548000D01*
X-17573Y-2530427D02*
X-17573Y-2445573D01*
X-102427Y-2445573D01*
X-102427Y-2530427D01*
X-17573Y-2530427D01*
D10*
X365539Y-2579484D02*
X251253Y-2579484D01*
X308396Y-2579484D02*
X308396Y-2379484D01*
X308396Y-2379484D02*
X289348Y-2408055D01*
X289348Y-2408055D02*
X270301Y-2427103D01*
X270301Y-2427103D02*
X251253Y-2436627D01*
X451253Y-2560436D02*
X460777Y-2569960D01*
X460777Y-2569960D02*
X451253Y-2579484D01*
X451253Y-2579484D02*
X441729Y-2569960D01*
X441729Y-2569960D02*
X451253Y-2560436D01*
X451253Y-2560436D02*
X451253Y-2579484D01*
X536967Y-2398531D02*
X546491Y-2389008D01*
X546491Y-2389008D02*
X565539Y-2379484D01*
X565539Y-2379484D02*
X613158Y-2379484D01*
X613158Y-2379484D02*
X632205Y-2389008D01*
X632205Y-2389008D02*
X641729Y-2398531D01*
X641729Y-2398531D02*
X651253Y-2417579D01*
X651253Y-2417579D02*
X651253Y-2436627D01*
X651253Y-2436627D02*
X641729Y-2465198D01*
X641729Y-2465198D02*
X527444Y-2579484D01*
X527444Y-2579484D02*
X651253Y-2579484D01*
X775062Y-2379484D02*
X794110Y-2379484D01*
X794110Y-2379484D02*
X813158Y-2389008D01*
X813158Y-2389008D02*
X822682Y-2398531D01*
X822682Y-2398531D02*
X832205Y-2417579D01*
X832205Y-2417579D02*
X841729Y-2455674D01*
X841729Y-2455674D02*
X841729Y-2503293D01*
X841729Y-2503293D02*
X832205Y-2541389D01*
X832205Y-2541389D02*
X822682Y-2560436D01*
X822682Y-2560436D02*
X813158Y-2569960D01*
X813158Y-2569960D02*
X794110Y-2579484D01*
X794110Y-2579484D02*
X775062Y-2579484D01*
X775062Y-2579484D02*
X756015Y-2569960D01*
X756015Y-2569960D02*
X746491Y-2560436D01*
X746491Y-2560436D02*
X736967Y-2541389D01*
X736967Y-2541389D02*
X727443Y-2503293D01*
X727443Y-2503293D02*
X727443Y-2455674D01*
X727443Y-2455674D02*
X736967Y-2417579D01*
X736967Y-2417579D02*
X746491Y-2398531D01*
X746491Y-2398531D02*
X756015Y-2389008D01*
X756015Y-2389008D02*
X775062Y-2379484D01*
X965539Y-2379484D02*
X984586Y-2379484D01*
X984586Y-2379484D02*
X1003634Y-2389008D01*
X1003634Y-2389008D02*
X1013158Y-2398531D01*
X1013158Y-2398531D02*
X1022682Y-2417579D01*
X1022682Y-2417579D02*
X1032205Y-2455674D01*
X1032205Y-2455674D02*
X1032205Y-2503293D01*
X1032205Y-2503293D02*
X1022682Y-2541389D01*
X1022682Y-2541389D02*
X1013158Y-2560436D01*
X1013158Y-2560436D02*
X1003634Y-2569960D01*
X1003634Y-2569960D02*
X984586Y-2579484D01*
X984586Y-2579484D02*
X965539Y-2579484D01*
X965539Y-2579484D02*
X946491Y-2569960D01*
X946491Y-2569960D02*
X936967Y-2560436D01*
X936967Y-2560436D02*
X927443Y-2541389D01*
X927443Y-2541389D02*
X917920Y-2503293D01*
X917920Y-2503293D02*
X917920Y-2455674D01*
X917920Y-2455674D02*
X927443Y-2417579D01*
X927443Y-2417579D02*
X936967Y-2398531D01*
X936967Y-2398531D02*
X946491Y-2389008D01*
X946491Y-2389008D02*
X965539Y-2379484D01*
X1117920Y-2579484D02*
X1117920Y-2446150D01*
X1117920Y-2465198D02*
X1127444Y-2455674D01*
X1127444Y-2455674D02*
X1146491Y-2446150D01*
X1146491Y-2446150D02*
X1175063Y-2446150D01*
X1175063Y-2446150D02*
X1194110Y-2455674D01*
X1194110Y-2455674D02*
X1203634Y-2474722D01*
X1203634Y-2474722D02*
X1203634Y-2579484D01*
X1203634Y-2474722D02*
X1213158Y-2455674D01*
X1213158Y-2455674D02*
X1232205Y-2446150D01*
X1232205Y-2446150D02*
X1260777Y-2446150D01*
X1260777Y-2446150D02*
X1279825Y-2455674D01*
X1279825Y-2455674D02*
X1289348Y-2474722D01*
X1289348Y-2474722D02*
X1289348Y-2579484D01*
X1384586Y-2579484D02*
X1384586Y-2446150D01*
X1384586Y-2465198D02*
X1394110Y-2455674D01*
X1394110Y-2455674D02*
X1413158Y-2446150D01*
X1413158Y-2446150D02*
X1441729Y-2446150D01*
X1441729Y-2446150D02*
X1460777Y-2455674D01*
X1460777Y-2455674D02*
X1470301Y-2474722D01*
X1470301Y-2474722D02*
X1470301Y-2579484D01*
X1470301Y-2474722D02*
X1479824Y-2455674D01*
X1479824Y-2455674D02*
X1498872Y-2446150D01*
X1498872Y-2446150D02*
X1527443Y-2446150D01*
X1527443Y-2446150D02*
X1546491Y-2455674D01*
X1546491Y-2455674D02*
X1556015Y-2474722D01*
X1556015Y-2474722D02*
X1556015Y-2579484D01*
X1946491Y-2369960D02*
X1775063Y-2627103D01*
X2203634Y-2379484D02*
X2222682Y-2379484D01*
X2222682Y-2379484D02*
X2241729Y-2389008D01*
X2241729Y-2389008D02*
X2251253Y-2398531D01*
X2251253Y-2398531D02*
X2260777Y-2417579D01*
X2260777Y-2417579D02*
X2270301Y-2455674D01*
X2270301Y-2455674D02*
X2270301Y-2503293D01*
X2270301Y-2503293D02*
X2260777Y-2541389D01*
X2260777Y-2541389D02*
X2251253Y-2560436D01*
X2251253Y-2560436D02*
X2241729Y-2569960D01*
X2241729Y-2569960D02*
X2222682Y-2579484D01*
X2222682Y-2579484D02*
X2203634Y-2579484D01*
X2203634Y-2579484D02*
X2184587Y-2569960D01*
X2184587Y-2569960D02*
X2175063Y-2560436D01*
X2175063Y-2560436D02*
X2165539Y-2541389D01*
X2165539Y-2541389D02*
X2156015Y-2503293D01*
X2156015Y-2503293D02*
X2156015Y-2455674D01*
X2156015Y-2455674D02*
X2165539Y-2417579D01*
X2165539Y-2417579D02*
X2175063Y-2398531D01*
X2175063Y-2398531D02*
X2184587Y-2389008D01*
X2184587Y-2389008D02*
X2203634Y-2379484D01*
X2356015Y-2560436D02*
X2365539Y-2569960D01*
X2365539Y-2569960D02*
X2356015Y-2579484D01*
X2356015Y-2579484D02*
X2346491Y-2569960D01*
X2346491Y-2569960D02*
X2356015Y-2560436D01*
X2356015Y-2560436D02*
X2356015Y-2579484D01*
X2489348Y-2379484D02*
X2508396Y-2379484D01*
X2508396Y-2379484D02*
X2527444Y-2389008D01*
X2527444Y-2389008D02*
X2536968Y-2398531D01*
X2536968Y-2398531D02*
X2546491Y-2417579D01*
X2546491Y-2417579D02*
X2556015Y-2455674D01*
X2556015Y-2455674D02*
X2556015Y-2503293D01*
X2556015Y-2503293D02*
X2546491Y-2541389D01*
X2546491Y-2541389D02*
X2536968Y-2560436D01*
X2536968Y-2560436D02*
X2527444Y-2569960D01*
X2527444Y-2569960D02*
X2508396Y-2579484D01*
X2508396Y-2579484D02*
X2489348Y-2579484D01*
X2489348Y-2579484D02*
X2470301Y-2569960D01*
X2470301Y-2569960D02*
X2460777Y-2560436D01*
X2460777Y-2560436D02*
X2451253Y-2541389D01*
X2451253Y-2541389D02*
X2441729Y-2503293D01*
X2441729Y-2503293D02*
X2441729Y-2455674D01*
X2441729Y-2455674D02*
X2451253Y-2417579D01*
X2451253Y-2417579D02*
X2460777Y-2398531D01*
X2460777Y-2398531D02*
X2470301Y-2389008D01*
X2470301Y-2389008D02*
X2489348Y-2379484D01*
X2727444Y-2446150D02*
X2727444Y-2579484D01*
X2679825Y-2369960D02*
X2632206Y-2512817D01*
X2632206Y-2512817D02*
X2756015Y-2512817D01*
X2813158Y-2379484D02*
X2946491Y-2379484D01*
X2946491Y-2379484D02*
X2860777Y-2579484D01*
X3013158Y-2398531D02*
X3022682Y-2389008D01*
X3022682Y-2389008D02*
X3041729Y-2379484D01*
X3041729Y-2379484D02*
X3089348Y-2379484D01*
X3089348Y-2379484D02*
X3108396Y-2389008D01*
X3108396Y-2389008D02*
X3117920Y-2398531D01*
X3117920Y-2398531D02*
X3127444Y-2417579D01*
X3127444Y-2417579D02*
X3127444Y-2436627D01*
X3127444Y-2436627D02*
X3117920Y-2465198D01*
X3117920Y-2465198D02*
X3003634Y-2579484D01*
X3003634Y-2579484D02*
X3127444Y-2579484D01*
X3203634Y-2379484D02*
X3203634Y-2417579D01*
X3279825Y-2379484D02*
X3279825Y-2417579D01*
X3575063Y-2655674D02*
X3565539Y-2646150D01*
X3565539Y-2646150D02*
X3546491Y-2617579D01*
X3546491Y-2617579D02*
X3536968Y-2598531D01*
X3536968Y-2598531D02*
X3527444Y-2569960D01*
X3527444Y-2569960D02*
X3517920Y-2522341D01*
X3517920Y-2522341D02*
X3517920Y-2484246D01*
X3517920Y-2484246D02*
X3527444Y-2436627D01*
X3527444Y-2436627D02*
X3536968Y-2408055D01*
X3536968Y-2408055D02*
X3546491Y-2389008D01*
X3546491Y-2389008D02*
X3565539Y-2360436D01*
X3565539Y-2360436D02*
X3575063Y-2350912D01*
X3756015Y-2579484D02*
X3641729Y-2579484D01*
X3698872Y-2579484D02*
X3698872Y-2379484D01*
X3698872Y-2379484D02*
X3679825Y-2408055D01*
X3679825Y-2408055D02*
X3660777Y-2427103D01*
X3660777Y-2427103D02*
X3641729Y-2436627D01*
X3879825Y-2379484D02*
X3898872Y-2379484D01*
X3898872Y-2379484D02*
X3917920Y-2389008D01*
X3917920Y-2389008D02*
X3927444Y-2398531D01*
X3927444Y-2398531D02*
X3936968Y-2417579D01*
X3936968Y-2417579D02*
X3946491Y-2455674D01*
X3946491Y-2455674D02*
X3946491Y-2503293D01*
X3946491Y-2503293D02*
X3936968Y-2541389D01*
X3936968Y-2541389D02*
X3927444Y-2560436D01*
X3927444Y-2560436D02*
X3917920Y-2569960D01*
X3917920Y-2569960D02*
X3898872Y-2579484D01*
X3898872Y-2579484D02*
X3879825Y-2579484D01*
X3879825Y-2579484D02*
X3860777Y-2569960D01*
X3860777Y-2569960D02*
X3851253Y-2560436D01*
X3851253Y-2560436D02*
X3841729Y-2541389D01*
X3841729Y-2541389D02*
X3832206Y-2503293D01*
X3832206Y-2503293D02*
X3832206Y-2455674D01*
X3832206Y-2455674D02*
X3841729Y-2417579D01*
X3841729Y-2417579D02*
X3851253Y-2398531D01*
X3851253Y-2398531D02*
X3860777Y-2389008D01*
X3860777Y-2389008D02*
X3879825Y-2379484D01*
X4184587Y-2579484D02*
X4184587Y-2379484D01*
X4270301Y-2579484D02*
X4270301Y-2474722D01*
X4270301Y-2474722D02*
X4260777Y-2455674D01*
X4260777Y-2455674D02*
X4241730Y-2446150D01*
X4241730Y-2446150D02*
X4213158Y-2446150D01*
X4213158Y-2446150D02*
X4194110Y-2455674D01*
X4194110Y-2455674D02*
X4184587Y-2465198D01*
X4394111Y-2579484D02*
X4375063Y-2569960D01*
X4375063Y-2569960D02*
X4365539Y-2560436D01*
X4365539Y-2560436D02*
X4356015Y-2541389D01*
X4356015Y-2541389D02*
X4356015Y-2484246D01*
X4356015Y-2484246D02*
X4365539Y-2465198D01*
X4365539Y-2465198D02*
X4375063Y-2455674D01*
X4375063Y-2455674D02*
X4394111Y-2446150D01*
X4394111Y-2446150D02*
X4422682Y-2446150D01*
X4422682Y-2446150D02*
X4441730Y-2455674D01*
X4441730Y-2455674D02*
X4451253Y-2465198D01*
X4451253Y-2465198D02*
X4460777Y-2484246D01*
X4460777Y-2484246D02*
X4460777Y-2541389D01*
X4460777Y-2541389D02*
X4451253Y-2560436D01*
X4451253Y-2560436D02*
X4441730Y-2569960D01*
X4441730Y-2569960D02*
X4422682Y-2579484D01*
X4422682Y-2579484D02*
X4394111Y-2579484D01*
X4575063Y-2579484D02*
X4556015Y-2569960D01*
X4556015Y-2569960D02*
X4546492Y-2550912D01*
X4546492Y-2550912D02*
X4546492Y-2379484D01*
X4727444Y-2569960D02*
X4708396Y-2579484D01*
X4708396Y-2579484D02*
X4670301Y-2579484D01*
X4670301Y-2579484D02*
X4651253Y-2569960D01*
X4651253Y-2569960D02*
X4641730Y-2550912D01*
X4641730Y-2550912D02*
X4641730Y-2474722D01*
X4641730Y-2474722D02*
X4651253Y-2455674D01*
X4651253Y-2455674D02*
X4670301Y-2446150D01*
X4670301Y-2446150D02*
X4708396Y-2446150D01*
X4708396Y-2446150D02*
X4727444Y-2455674D01*
X4727444Y-2455674D02*
X4736968Y-2474722D01*
X4736968Y-2474722D02*
X4736968Y-2493770D01*
X4736968Y-2493770D02*
X4641730Y-2512817D01*
X4813158Y-2569960D02*
X4832206Y-2579484D01*
X4832206Y-2579484D02*
X4870301Y-2579484D01*
X4870301Y-2579484D02*
X4889349Y-2569960D01*
X4889349Y-2569960D02*
X4898873Y-2550912D01*
X4898873Y-2550912D02*
X4898873Y-2541389D01*
X4898873Y-2541389D02*
X4889349Y-2522341D01*
X4889349Y-2522341D02*
X4870301Y-2512817D01*
X4870301Y-2512817D02*
X4841730Y-2512817D01*
X4841730Y-2512817D02*
X4822682Y-2503293D01*
X4822682Y-2503293D02*
X4813158Y-2484246D01*
X4813158Y-2484246D02*
X4813158Y-2474722D01*
X4813158Y-2474722D02*
X4822682Y-2455674D01*
X4822682Y-2455674D02*
X4841730Y-2446150D01*
X4841730Y-2446150D02*
X4870301Y-2446150D01*
X4870301Y-2446150D02*
X4889349Y-2455674D01*
X4965539Y-2655674D02*
X4975063Y-2646150D01*
X4975063Y-2646150D02*
X4994111Y-2617579D01*
X4994111Y-2617579D02*
X5003634Y-2598531D01*
X5003634Y-2598531D02*
X5013158Y-2569960D01*
X5013158Y-2569960D02*
X5022682Y-2522341D01*
X5022682Y-2522341D02*
X5022682Y-2484246D01*
X5022682Y-2484246D02*
X5013158Y-2436627D01*
X5013158Y-2436627D02*
X5003634Y-2408055D01*
X5003634Y-2408055D02*
X4994111Y-2389008D01*
X4994111Y-2389008D02*
X4975063Y-2360436D01*
X4975063Y-2360436D02*
X4965539Y-2350912D01*
D19*
X-170000Y-2667000D02*
X0Y-2837000D01*
X0Y-2667000D02*
X-170000Y-2837000D01*
X-85000Y-2837000D02*
X0Y-2752000D01*
X-85000Y-2667000D01*
X-170000Y-2752000D01*
X-85000Y-2837000D01*
D10*
X365539Y-2843484D02*
X251253Y-2843484D01*
X308396Y-2843484D02*
X308396Y-2643484D01*
X308396Y-2643484D02*
X289348Y-2672055D01*
X289348Y-2672055D02*
X270301Y-2691103D01*
X270301Y-2691103D02*
X251253Y-2700627D01*
X451253Y-2824436D02*
X460777Y-2833960D01*
X460777Y-2833960D02*
X451253Y-2843484D01*
X451253Y-2843484D02*
X441729Y-2833960D01*
X441729Y-2833960D02*
X451253Y-2824436D01*
X451253Y-2824436D02*
X451253Y-2843484D01*
X527444Y-2643484D02*
X660777Y-2643484D01*
X660777Y-2643484D02*
X575063Y-2843484D01*
X775062Y-2643484D02*
X794110Y-2643484D01*
X794110Y-2643484D02*
X813158Y-2653008D01*
X813158Y-2653008D02*
X822682Y-2662531D01*
X822682Y-2662531D02*
X832205Y-2681579D01*
X832205Y-2681579D02*
X841729Y-2719674D01*
X841729Y-2719674D02*
X841729Y-2767293D01*
X841729Y-2767293D02*
X832205Y-2805388D01*
X832205Y-2805388D02*
X822682Y-2824436D01*
X822682Y-2824436D02*
X813158Y-2833960D01*
X813158Y-2833960D02*
X794110Y-2843484D01*
X794110Y-2843484D02*
X775062Y-2843484D01*
X775062Y-2843484D02*
X756015Y-2833960D01*
X756015Y-2833960D02*
X746491Y-2824436D01*
X746491Y-2824436D02*
X736967Y-2805388D01*
X736967Y-2805388D02*
X727443Y-2767293D01*
X727443Y-2767293D02*
X727443Y-2719674D01*
X727443Y-2719674D02*
X736967Y-2681579D01*
X736967Y-2681579D02*
X746491Y-2662531D01*
X746491Y-2662531D02*
X756015Y-2653008D01*
X756015Y-2653008D02*
X775062Y-2643484D01*
X965539Y-2643484D02*
X984586Y-2643484D01*
X984586Y-2643484D02*
X1003634Y-2653008D01*
X1003634Y-2653008D02*
X1013158Y-2662531D01*
X1013158Y-2662531D02*
X1022682Y-2681579D01*
X1022682Y-2681579D02*
X1032205Y-2719674D01*
X1032205Y-2719674D02*
X1032205Y-2767293D01*
X1032205Y-2767293D02*
X1022682Y-2805388D01*
X1022682Y-2805388D02*
X1013158Y-2824436D01*
X1013158Y-2824436D02*
X1003634Y-2833960D01*
X1003634Y-2833960D02*
X984586Y-2843484D01*
X984586Y-2843484D02*
X965539Y-2843484D01*
X965539Y-2843484D02*
X946491Y-2833960D01*
X946491Y-2833960D02*
X936967Y-2824436D01*
X936967Y-2824436D02*
X927443Y-2805388D01*
X927443Y-2805388D02*
X917920Y-2767293D01*
X917920Y-2767293D02*
X917920Y-2719674D01*
X917920Y-2719674D02*
X927443Y-2681579D01*
X927443Y-2681579D02*
X936967Y-2662531D01*
X936967Y-2662531D02*
X946491Y-2653008D01*
X946491Y-2653008D02*
X965539Y-2643484D01*
X1117920Y-2843484D02*
X1117920Y-2710150D01*
X1117920Y-2729198D02*
X1127444Y-2719674D01*
X1127444Y-2719674D02*
X1146491Y-2710150D01*
X1146491Y-2710150D02*
X1175063Y-2710150D01*
X1175063Y-2710150D02*
X1194110Y-2719674D01*
X1194110Y-2719674D02*
X1203634Y-2738722D01*
X1203634Y-2738722D02*
X1203634Y-2843484D01*
X1203634Y-2738722D02*
X1213158Y-2719674D01*
X1213158Y-2719674D02*
X1232205Y-2710150D01*
X1232205Y-2710150D02*
X1260777Y-2710150D01*
X1260777Y-2710150D02*
X1279825Y-2719674D01*
X1279825Y-2719674D02*
X1289348Y-2738722D01*
X1289348Y-2738722D02*
X1289348Y-2843484D01*
X1384586Y-2843484D02*
X1384586Y-2710150D01*
X1384586Y-2729198D02*
X1394110Y-2719674D01*
X1394110Y-2719674D02*
X1413158Y-2710150D01*
X1413158Y-2710150D02*
X1441729Y-2710150D01*
X1441729Y-2710150D02*
X1460777Y-2719674D01*
X1460777Y-2719674D02*
X1470301Y-2738722D01*
X1470301Y-2738722D02*
X1470301Y-2843484D01*
X1470301Y-2738722D02*
X1479824Y-2719674D01*
X1479824Y-2719674D02*
X1498872Y-2710150D01*
X1498872Y-2710150D02*
X1527443Y-2710150D01*
X1527443Y-2710150D02*
X1546491Y-2719674D01*
X1546491Y-2719674D02*
X1556015Y-2738722D01*
X1556015Y-2738722D02*
X1556015Y-2843484D01*
X1946491Y-2633960D02*
X1775063Y-2891103D01*
X2203634Y-2643484D02*
X2222682Y-2643484D01*
X2222682Y-2643484D02*
X2241729Y-2653008D01*
X2241729Y-2653008D02*
X2251253Y-2662531D01*
X2251253Y-2662531D02*
X2260777Y-2681579D01*
X2260777Y-2681579D02*
X2270301Y-2719674D01*
X2270301Y-2719674D02*
X2270301Y-2767293D01*
X2270301Y-2767293D02*
X2260777Y-2805388D01*
X2260777Y-2805388D02*
X2251253Y-2824436D01*
X2251253Y-2824436D02*
X2241729Y-2833960D01*
X2241729Y-2833960D02*
X2222682Y-2843484D01*
X2222682Y-2843484D02*
X2203634Y-2843484D01*
X2203634Y-2843484D02*
X2184587Y-2833960D01*
X2184587Y-2833960D02*
X2175063Y-2824436D01*
X2175063Y-2824436D02*
X2165539Y-2805388D01*
X2165539Y-2805388D02*
X2156015Y-2767293D01*
X2156015Y-2767293D02*
X2156015Y-2719674D01*
X2156015Y-2719674D02*
X2165539Y-2681579D01*
X2165539Y-2681579D02*
X2175063Y-2662531D01*
X2175063Y-2662531D02*
X2184587Y-2653008D01*
X2184587Y-2653008D02*
X2203634Y-2643484D01*
X2356015Y-2824436D02*
X2365539Y-2833960D01*
X2365539Y-2833960D02*
X2356015Y-2843484D01*
X2356015Y-2843484D02*
X2346491Y-2833960D01*
X2346491Y-2833960D02*
X2356015Y-2824436D01*
X2356015Y-2824436D02*
X2356015Y-2843484D01*
X2489348Y-2643484D02*
X2508396Y-2643484D01*
X2508396Y-2643484D02*
X2527444Y-2653008D01*
X2527444Y-2653008D02*
X2536968Y-2662531D01*
X2536968Y-2662531D02*
X2546491Y-2681579D01*
X2546491Y-2681579D02*
X2556015Y-2719674D01*
X2556015Y-2719674D02*
X2556015Y-2767293D01*
X2556015Y-2767293D02*
X2546491Y-2805388D01*
X2546491Y-2805388D02*
X2536968Y-2824436D01*
X2536968Y-2824436D02*
X2527444Y-2833960D01*
X2527444Y-2833960D02*
X2508396Y-2843484D01*
X2508396Y-2843484D02*
X2489348Y-2843484D01*
X2489348Y-2843484D02*
X2470301Y-2833960D01*
X2470301Y-2833960D02*
X2460777Y-2824436D01*
X2460777Y-2824436D02*
X2451253Y-2805388D01*
X2451253Y-2805388D02*
X2441729Y-2767293D01*
X2441729Y-2767293D02*
X2441729Y-2719674D01*
X2441729Y-2719674D02*
X2451253Y-2681579D01*
X2451253Y-2681579D02*
X2460777Y-2662531D01*
X2460777Y-2662531D02*
X2470301Y-2653008D01*
X2470301Y-2653008D02*
X2489348Y-2643484D01*
X2727444Y-2643484D02*
X2689348Y-2643484D01*
X2689348Y-2643484D02*
X2670301Y-2653008D01*
X2670301Y-2653008D02*
X2660777Y-2662531D01*
X2660777Y-2662531D02*
X2641729Y-2691103D01*
X2641729Y-2691103D02*
X2632206Y-2729198D01*
X2632206Y-2729198D02*
X2632206Y-2805388D01*
X2632206Y-2805388D02*
X2641729Y-2824436D01*
X2641729Y-2824436D02*
X2651253Y-2833960D01*
X2651253Y-2833960D02*
X2670301Y-2843484D01*
X2670301Y-2843484D02*
X2708396Y-2843484D01*
X2708396Y-2843484D02*
X2727444Y-2833960D01*
X2727444Y-2833960D02*
X2736968Y-2824436D01*
X2736968Y-2824436D02*
X2746491Y-2805388D01*
X2746491Y-2805388D02*
X2746491Y-2757770D01*
X2746491Y-2757770D02*
X2736968Y-2738722D01*
X2736968Y-2738722D02*
X2727444Y-2729198D01*
X2727444Y-2729198D02*
X2708396Y-2719674D01*
X2708396Y-2719674D02*
X2670301Y-2719674D01*
X2670301Y-2719674D02*
X2651253Y-2729198D01*
X2651253Y-2729198D02*
X2641729Y-2738722D01*
X2641729Y-2738722D02*
X2632206Y-2757770D01*
X2917920Y-2643484D02*
X2879825Y-2643484D01*
X2879825Y-2643484D02*
X2860777Y-2653008D01*
X2860777Y-2653008D02*
X2851253Y-2662531D01*
X2851253Y-2662531D02*
X2832206Y-2691103D01*
X2832206Y-2691103D02*
X2822682Y-2729198D01*
X2822682Y-2729198D02*
X2822682Y-2805388D01*
X2822682Y-2805388D02*
X2832206Y-2824436D01*
X2832206Y-2824436D02*
X2841729Y-2833960D01*
X2841729Y-2833960D02*
X2860777Y-2843484D01*
X2860777Y-2843484D02*
X2898872Y-2843484D01*
X2898872Y-2843484D02*
X2917920Y-2833960D01*
X2917920Y-2833960D02*
X2927444Y-2824436D01*
X2927444Y-2824436D02*
X2936967Y-2805388D01*
X2936967Y-2805388D02*
X2936967Y-2757770D01*
X2936967Y-2757770D02*
X2927444Y-2738722D01*
X2927444Y-2738722D02*
X2917920Y-2729198D01*
X2917920Y-2729198D02*
X2898872Y-2719674D01*
X2898872Y-2719674D02*
X2860777Y-2719674D01*
X2860777Y-2719674D02*
X2841729Y-2729198D01*
X2841729Y-2729198D02*
X2832206Y-2738722D01*
X2832206Y-2738722D02*
X2822682Y-2757770D01*
X3032206Y-2843484D02*
X3070301Y-2843484D01*
X3070301Y-2843484D02*
X3089348Y-2833960D01*
X3089348Y-2833960D02*
X3098872Y-2824436D01*
X3098872Y-2824436D02*
X3117920Y-2795865D01*
X3117920Y-2795865D02*
X3127444Y-2757770D01*
X3127444Y-2757770D02*
X3127444Y-2681579D01*
X3127444Y-2681579D02*
X3117920Y-2662531D01*
X3117920Y-2662531D02*
X3108396Y-2653008D01*
X3108396Y-2653008D02*
X3089348Y-2643484D01*
X3089348Y-2643484D02*
X3051253Y-2643484D01*
X3051253Y-2643484D02*
X3032206Y-2653008D01*
X3032206Y-2653008D02*
X3022682Y-2662531D01*
X3022682Y-2662531D02*
X3013158Y-2681579D01*
X3013158Y-2681579D02*
X3013158Y-2729198D01*
X3013158Y-2729198D02*
X3022682Y-2748246D01*
X3022682Y-2748246D02*
X3032206Y-2757770D01*
X3032206Y-2757770D02*
X3051253Y-2767293D01*
X3051253Y-2767293D02*
X3089348Y-2767293D01*
X3089348Y-2767293D02*
X3108396Y-2757770D01*
X3108396Y-2757770D02*
X3117920Y-2748246D01*
X3117920Y-2748246D02*
X3127444Y-2729198D01*
X3203634Y-2643484D02*
X3203634Y-2681579D01*
X3279825Y-2643484D02*
X3279825Y-2681579D01*
X3575063Y-2919674D02*
X3565539Y-2910150D01*
X3565539Y-2910150D02*
X3546491Y-2881579D01*
X3546491Y-2881579D02*
X3536968Y-2862531D01*
X3536968Y-2862531D02*
X3527444Y-2833960D01*
X3527444Y-2833960D02*
X3517920Y-2786341D01*
X3517920Y-2786341D02*
X3517920Y-2748246D01*
X3517920Y-2748246D02*
X3527444Y-2700627D01*
X3527444Y-2700627D02*
X3536968Y-2672055D01*
X3536968Y-2672055D02*
X3546491Y-2653008D01*
X3546491Y-2653008D02*
X3565539Y-2624436D01*
X3565539Y-2624436D02*
X3575063Y-2614912D01*
X3641729Y-2662531D02*
X3651253Y-2653008D01*
X3651253Y-2653008D02*
X3670301Y-2643484D01*
X3670301Y-2643484D02*
X3717920Y-2643484D01*
X3717920Y-2643484D02*
X3736968Y-2653008D01*
X3736968Y-2653008D02*
X3746491Y-2662531D01*
X3746491Y-2662531D02*
X3756015Y-2681579D01*
X3756015Y-2681579D02*
X3756015Y-2700627D01*
X3756015Y-2700627D02*
X3746491Y-2729198D01*
X3746491Y-2729198D02*
X3632206Y-2843484D01*
X3632206Y-2843484D02*
X3756015Y-2843484D01*
X3994110Y-2843484D02*
X3994110Y-2643484D01*
X4079825Y-2843484D02*
X4079825Y-2738722D01*
X4079825Y-2738722D02*
X4070301Y-2719674D01*
X4070301Y-2719674D02*
X4051253Y-2710150D01*
X4051253Y-2710150D02*
X4022682Y-2710150D01*
X4022682Y-2710150D02*
X4003634Y-2719674D01*
X4003634Y-2719674D02*
X3994110Y-2729198D01*
X4203634Y-2843484D02*
X4184587Y-2833960D01*
X4184587Y-2833960D02*
X4175063Y-2824436D01*
X4175063Y-2824436D02*
X4165539Y-2805388D01*
X4165539Y-2805388D02*
X4165539Y-2748246D01*
X4165539Y-2748246D02*
X4175063Y-2729198D01*
X4175063Y-2729198D02*
X4184587Y-2719674D01*
X4184587Y-2719674D02*
X4203634Y-2710150D01*
X4203634Y-2710150D02*
X4232206Y-2710150D01*
X4232206Y-2710150D02*
X4251253Y-2719674D01*
X4251253Y-2719674D02*
X4260777Y-2729198D01*
X4260777Y-2729198D02*
X4270301Y-2748246D01*
X4270301Y-2748246D02*
X4270301Y-2805388D01*
X4270301Y-2805388D02*
X4260777Y-2824436D01*
X4260777Y-2824436D02*
X4251253Y-2833960D01*
X4251253Y-2833960D02*
X4232206Y-2843484D01*
X4232206Y-2843484D02*
X4203634Y-2843484D01*
X4384587Y-2843484D02*
X4365539Y-2833960D01*
X4365539Y-2833960D02*
X4356015Y-2814912D01*
X4356015Y-2814912D02*
X4356015Y-2643484D01*
X4536968Y-2833960D02*
X4517920Y-2843484D01*
X4517920Y-2843484D02*
X4479825Y-2843484D01*
X4479825Y-2843484D02*
X4460777Y-2833960D01*
X4460777Y-2833960D02*
X4451253Y-2814912D01*
X4451253Y-2814912D02*
X4451253Y-2738722D01*
X4451253Y-2738722D02*
X4460777Y-2719674D01*
X4460777Y-2719674D02*
X4479825Y-2710150D01*
X4479825Y-2710150D02*
X4517920Y-2710150D01*
X4517920Y-2710150D02*
X4536968Y-2719674D01*
X4536968Y-2719674D02*
X4546492Y-2738722D01*
X4546492Y-2738722D02*
X4546492Y-2757770D01*
X4546492Y-2757770D02*
X4451253Y-2776817D01*
X4622682Y-2833960D02*
X4641730Y-2843484D01*
X4641730Y-2843484D02*
X4679825Y-2843484D01*
X4679825Y-2843484D02*
X4698873Y-2833960D01*
X4698873Y-2833960D02*
X4708396Y-2814912D01*
X4708396Y-2814912D02*
X4708396Y-2805388D01*
X4708396Y-2805388D02*
X4698873Y-2786341D01*
X4698873Y-2786341D02*
X4679825Y-2776817D01*
X4679825Y-2776817D02*
X4651253Y-2776817D01*
X4651253Y-2776817D02*
X4632206Y-2767293D01*
X4632206Y-2767293D02*
X4622682Y-2748246D01*
X4622682Y-2748246D02*
X4622682Y-2738722D01*
X4622682Y-2738722D02*
X4632206Y-2719674D01*
X4632206Y-2719674D02*
X4651253Y-2710150D01*
X4651253Y-2710150D02*
X4679825Y-2710150D01*
X4679825Y-2710150D02*
X4698873Y-2719674D01*
X4775063Y-2919674D02*
X4784587Y-2910150D01*
X4784587Y-2910150D02*
X4803634Y-2881579D01*
X4803634Y-2881579D02*
X4813158Y-2862531D01*
X4813158Y-2862531D02*
X4822682Y-2833960D01*
X4822682Y-2833960D02*
X4832206Y-2786341D01*
X4832206Y-2786341D02*
X4832206Y-2748246D01*
X4832206Y-2748246D02*
X4822682Y-2700627D01*
X4822682Y-2700627D02*
X4813158Y-2672055D01*
X4813158Y-2672055D02*
X4803634Y-2653008D01*
X4803634Y-2653008D02*
X4784587Y-2624436D01*
X4784587Y-2624436D02*
X4775063Y-2614912D01*
M02*
