%TF.GenerationSoftware,KiCad,Pcbnew,7.0.7-7.0.7~ubuntu20.04.1*%
%TF.CreationDate,2023-12-04T12:54:59-03:00*%
%TF.ProjectId,EA075,45413037-352e-46b6-9963-61645f706362,rev?*%
%TF.SameCoordinates,Original*%
%TF.FileFunction,Copper,L1,Top*%
%TF.FilePolarity,Positive*%
%FSLAX46Y46*%
G04 Gerber Fmt 4.6, Leading zero omitted, Abs format (unit mm)*
G04 Created by KiCad (PCBNEW 7.0.7-7.0.7~ubuntu20.04.1) date 2023-12-04 12:54:59*
%MOMM*%
%LPD*%
G01*
G04 APERTURE LIST*
%TA.AperFunction,SMDPad,CuDef*%
%ADD10R,0.700000X0.250000*%
%TD*%
%TA.AperFunction,ComponentPad*%
%ADD11C,0.500000*%
%TD*%
%TA.AperFunction,SMDPad,CuDef*%
%ADD12R,1.780000X2.350000*%
%TD*%
%TA.AperFunction,ComponentPad*%
%ADD13R,0.850000X0.850000*%
%TD*%
%TA.AperFunction,SMDPad,CuDef*%
%ADD14R,3.800000X3.800000*%
%TD*%
%TA.AperFunction,SMDPad,CuDef*%
%ADD15R,1.500000X0.900000*%
%TD*%
%TA.AperFunction,SMDPad,CuDef*%
%ADD16R,0.900000X1.500000*%
%TD*%
%TA.AperFunction,ComponentPad*%
%ADD17C,1.500000*%
%TD*%
%TA.AperFunction,ComponentPad*%
%ADD18C,2.000000*%
%TD*%
%TA.AperFunction,ComponentPad*%
%ADD19O,1.600000X1.600000*%
%TD*%
%TA.AperFunction,ComponentPad*%
%ADD20C,1.600000*%
%TD*%
%TA.AperFunction,Conductor*%
%ADD21C,0.400000*%
%TD*%
%TA.AperFunction,Conductor*%
%ADD22C,0.300000*%
%TD*%
G04 APERTURE END LIST*
D10*
%TO.P,U2,1,CT*%
%TO.N,unconnected-(U2-CT-Pad1)*%
X69710000Y-96520000D03*
%TO.P,U2,2,~{SHDN}*%
%TO.N,unconnected-(U2-~{SHDN}-Pad2)*%
X69710000Y-96920000D03*
%TO.P,U2,3,CG*%
%TO.N,unconnected-(U2-CG-Pad3)*%
X69710000Y-97320000D03*
%TO.P,U2,4,GND*%
%TO.N,GND*%
X69710000Y-97720000D03*
D11*
%TO.P,U2,5,VDD*%
%TO.N,+3V3*%
X72660000Y-97120000D03*
%TO.P,U2,6,MICOUT*%
%TO.N,Net-(U1-IO34)*%
X72660000Y-98320000D03*
%TO.P,U2,7,GND*%
%TO.N,GND*%
X72660000Y-96520000D03*
D10*
%TO.P,U2,8,MICIN*%
%TO.N,unconnected-(U2-MICIN-Pad8)*%
X71485000Y-96220000D03*
%TO.P,U2,9,A/R*%
%TO.N,unconnected-(U2-A{slash}R-Pad9)*%
X69710000Y-98920000D03*
D11*
%TO.P,U2,10,GAIN*%
%TO.N,unconnected-(U2-GAIN-Pad10)*%
X72660000Y-98920000D03*
D10*
%TO.P,U2,11,GND*%
%TO.N,GND*%
X69710000Y-98120000D03*
%TO.P,U2,12,BIAS*%
%TO.N,unconnected-(U2-BIAS-Pad12)*%
X70485000Y-96220000D03*
%TO.P,U2,13,MICBIAS*%
%TO.N,unconnected-(U2-MICBIAS-Pad13)*%
X69710000Y-98520000D03*
D11*
%TO.P,U2,14,TH*%
%TO.N,unconnected-(U2-TH-Pad14)*%
X72660000Y-97720000D03*
D12*
%TO.P,U2,15,GND*%
%TO.N,GND*%
X71185000Y-97720000D03*
%TD*%
D13*
%TO.P,J4,1,Pin_1*%
%TO.N,GND*%
X57010000Y-114810000D03*
%TD*%
%TO.P,J3,1,Pin_1*%
%TO.N,+3V3*%
X57010000Y-111760000D03*
%TD*%
D14*
%TO.P,U1,39,GND*%
%TO.N,GND*%
X96520000Y-108585000D03*
D15*
%TO.P,U1,38,GND*%
X105270000Y-100330000D03*
%TO.P,U1,37,IO23*%
%TO.N,Net-(M1-PWM)*%
X105270000Y-101600000D03*
%TO.P,U1,36,IO22*%
%TO.N,Net-(M2-PWM)*%
X105270000Y-102870000D03*
%TO.P,U1,35,TXD0/IO1*%
%TO.N,unconnected-(U1-TXD0{slash}IO1-Pad35)*%
X105270000Y-104140000D03*
%TO.P,U1,34,RXD0/IO3*%
%TO.N,Net-(M3-PWM)*%
X105270000Y-105410000D03*
%TO.P,U1,33,IO21*%
%TO.N,Net-(M13-PWM)*%
X105270000Y-106680000D03*
%TO.P,U1,32,NC*%
%TO.N,unconnected-(U1-NC-Pad32)*%
X105270000Y-107950000D03*
%TO.P,U1,31,IO19*%
%TO.N,Net-(M4-PWM)*%
X105270000Y-109220000D03*
%TO.P,U1,30,IO18*%
%TO.N,Net-(M5-PWM)*%
X105270000Y-110490000D03*
%TO.P,U1,29,IO5*%
%TO.N,Net-(M6-PWM)*%
X105270000Y-111760000D03*
%TO.P,U1,28,IO17*%
%TO.N,Net-(M7-PWM)*%
X105270000Y-113030000D03*
%TO.P,U1,27,IO16*%
%TO.N,Net-(M8-PWM)*%
X105270000Y-114300000D03*
%TO.P,U1,26,IO4*%
%TO.N,Net-(M9-PWM)*%
X105270000Y-115570000D03*
%TO.P,U1,25,IO0*%
%TO.N,Net-(M10-PWM)*%
X105270000Y-116840000D03*
D16*
%TO.P,U1,24,IO2*%
%TO.N,Net-(M11-PWM)*%
X102235000Y-117935000D03*
%TO.P,U1,23,IO15*%
%TO.N,Net-(M12-PWM)*%
X100965000Y-117935000D03*
%TO.P,U1,22,SDI/SD1*%
%TO.N,unconnected-(U1-SDI{slash}SD1-Pad22)*%
X99695000Y-117935000D03*
%TO.P,U1,21,SDO/SD0*%
%TO.N,unconnected-(U1-SDO{slash}SD0-Pad21)*%
X98425000Y-117935000D03*
%TO.P,U1,20,SCK/CLK*%
%TO.N,unconnected-(U1-SCK{slash}CLK-Pad20)*%
X97155000Y-117935000D03*
%TO.P,U1,19,SCS/CMD*%
%TO.N,unconnected-(U1-SCS{slash}CMD-Pad19)*%
X95885000Y-117935000D03*
%TO.P,U1,18,SWP/SD3*%
%TO.N,unconnected-(U1-SWP{slash}SD3-Pad18)*%
X94615000Y-117935000D03*
%TO.P,U1,17,SHD/SD2*%
%TO.N,unconnected-(U1-SHD{slash}SD2-Pad17)*%
X93345000Y-117935000D03*
%TO.P,U1,16,IO13*%
%TO.N,unconnected-(U1-IO13-Pad16)*%
X92075000Y-117935000D03*
%TO.P,U1,15,GND*%
%TO.N,GND*%
X90805000Y-117935000D03*
D15*
%TO.P,U1,14,IO12*%
%TO.N,unconnected-(U1-IO12-Pad14)*%
X87770000Y-116840000D03*
%TO.P,U1,13,IO14*%
%TO.N,unconnected-(U1-IO14-Pad13)*%
X87770000Y-115570000D03*
%TO.P,U1,12,IO27*%
%TO.N,unconnected-(U1-IO27-Pad12)*%
X87770000Y-114300000D03*
%TO.P,U1,11,IO26*%
%TO.N,unconnected-(U1-IO26-Pad11)*%
X87770000Y-113030000D03*
%TO.P,U1,10,IO25*%
%TO.N,unconnected-(U1-IO25-Pad10)*%
X87770000Y-111760000D03*
%TO.P,U1,9,IO33*%
%TO.N,Net-(U1-IO33)*%
X87770000Y-110490000D03*
%TO.P,U1,8,IO32*%
%TO.N,unconnected-(U1-IO32-Pad8)*%
X87770000Y-109220000D03*
%TO.P,U1,7,IO35*%
%TO.N,unconnected-(U1-IO35-Pad7)*%
X87770000Y-107950000D03*
%TO.P,U1,6,IO34*%
%TO.N,Net-(U1-IO34)*%
X87770000Y-106680000D03*
%TO.P,U1,5,SENSOR_VN*%
%TO.N,unconnected-(U1-SENSOR_VN-Pad5)*%
X87770000Y-105410000D03*
%TO.P,U1,4,SENSOR_VP*%
%TO.N,unconnected-(U1-SENSOR_VP-Pad4)*%
X87770000Y-104140000D03*
%TO.P,U1,3,EN*%
%TO.N,unconnected-(U1-EN-Pad3)*%
X87770000Y-102870000D03*
%TO.P,U1,2,VDD*%
%TO.N,+3V3*%
X87770000Y-101600000D03*
%TO.P,U1,1,GND*%
%TO.N,GND*%
X87770000Y-100330000D03*
%TD*%
D17*
%TO.P,M13,3,-*%
%TO.N,GND*%
X134920000Y-185420000D03*
%TO.P,M13,2,+*%
%TO.N,+5V*%
X131470000Y-185420000D03*
%TO.P,M13,1,PWM*%
%TO.N,Net-(M13-PWM)*%
X128130000Y-185420000D03*
%TD*%
%TO.P,M11,3,-*%
%TO.N,GND*%
X167940000Y-149860000D03*
%TO.P,M11,2,+*%
%TO.N,+5V*%
X164490000Y-149860000D03*
%TO.P,M11,1,PWM*%
%TO.N,Net-(M11-PWM)*%
X161150000Y-149860000D03*
%TD*%
%TO.P,M1,3,-*%
%TO.N,GND*%
X134920000Y-43180000D03*
%TO.P,M1,2,+*%
%TO.N,+5V*%
X131470000Y-43180000D03*
%TO.P,M1,1,PWM*%
%TO.N,Net-(M1-PWM)*%
X128130000Y-43180000D03*
%TD*%
%TO.P,M10,3,-*%
%TO.N,GND*%
X134920000Y-149860000D03*
%TO.P,M10,2,+*%
%TO.N,+5V*%
X131470000Y-149860000D03*
%TO.P,M10,1,PWM*%
%TO.N,Net-(M10-PWM)*%
X128130000Y-149860000D03*
%TD*%
%TO.P,M2,3,-*%
%TO.N,GND*%
X167940000Y-43180000D03*
%TO.P,M2,2,+*%
%TO.N,+5V*%
X164490000Y-43180000D03*
%TO.P,M2,1,PWM*%
%TO.N,Net-(M2-PWM)*%
X161150000Y-43180000D03*
%TD*%
D13*
%TO.P,J1,1,Pin_1*%
%TO.N,+5V*%
X237350000Y-106170000D03*
%TD*%
D17*
%TO.P,M12,3,-*%
%TO.N,GND*%
X200960000Y-149860000D03*
%TO.P,M12,2,+*%
%TO.N,+5V*%
X197510000Y-149860000D03*
%TO.P,M12,1,PWM*%
%TO.N,Net-(M12-PWM)*%
X194170000Y-149860000D03*
%TD*%
D18*
%TO.P,SW2,2,2*%
%TO.N,Net-(U1-IO33)*%
X72960000Y-124170000D03*
X66460000Y-124170000D03*
%TO.P,SW2,1,1*%
%TO.N,GND*%
X72960000Y-119670000D03*
X66460000Y-119670000D03*
%TD*%
D17*
%TO.P,M5,3,-*%
%TO.N,GND*%
X167940000Y-78740000D03*
%TO.P,M5,2,+*%
%TO.N,+5V*%
X164490000Y-78740000D03*
%TO.P,M5,1,PWM*%
%TO.N,Net-(M5-PWM)*%
X161150000Y-78740000D03*
%TD*%
%TO.P,M4,3,-*%
%TO.N,GND*%
X134920000Y-78740000D03*
%TO.P,M4,2,+*%
%TO.N,+5V*%
X131470000Y-78740000D03*
%TO.P,M4,1,PWM*%
%TO.N,Net-(M4-PWM)*%
X128130000Y-78740000D03*
%TD*%
D19*
%TO.P,R1,2*%
%TO.N,Net-(U1-IO33)*%
X74790000Y-109220000D03*
D20*
%TO.P,R1,1*%
%TO.N,+3V3*%
X64630000Y-109220000D03*
%TD*%
D17*
%TO.P,M3,3,-*%
%TO.N,GND*%
X200960000Y-43180000D03*
%TO.P,M3,2,+*%
%TO.N,+5V*%
X197510000Y-43180000D03*
%TO.P,M3,1,PWM*%
%TO.N,Net-(M3-PWM)*%
X194170000Y-43180000D03*
%TD*%
%TO.P,M6,3,-*%
%TO.N,GND*%
X200960000Y-78740000D03*
%TO.P,M6,2,+*%
%TO.N,+5V*%
X197510000Y-78740000D03*
%TO.P,M6,1,PWM*%
%TO.N,Net-(M6-PWM)*%
X194170000Y-78740000D03*
%TD*%
%TO.P,M9,3,-*%
%TO.N,GND*%
X200960000Y-114300000D03*
%TO.P,M9,2,+*%
%TO.N,+5V*%
X197510000Y-114300000D03*
%TO.P,M9,1,PWM*%
%TO.N,Net-(M9-PWM)*%
X194170000Y-114300000D03*
%TD*%
%TO.P,M7,3,-*%
%TO.N,GND*%
X134920000Y-114300000D03*
%TO.P,M7,2,+*%
%TO.N,+5V*%
X131470000Y-114300000D03*
%TO.P,M7,1,PWM*%
%TO.N,Net-(M7-PWM)*%
X128130000Y-114300000D03*
%TD*%
%TO.P,M8,3,-*%
%TO.N,GND*%
X167940000Y-114300000D03*
%TO.P,M8,2,+*%
%TO.N,+5V*%
X164490000Y-114300000D03*
%TO.P,M8,1,PWM*%
%TO.N,Net-(M8-PWM)*%
X161150000Y-114300000D03*
%TD*%
D13*
%TO.P,J2,1,Pin_1*%
%TO.N,GND*%
X237350000Y-109220000D03*
%TD*%
D21*
%TO.N,GND*%
X79200000Y-129540000D02*
X90805000Y-117935000D01*
X62090000Y-129540000D02*
X79200000Y-129540000D01*
X62090000Y-124040000D02*
X62090000Y-129540000D01*
X66460000Y-119670000D02*
X62090000Y-124040000D01*
X62090000Y-124040000D02*
X57010000Y-118960000D01*
%TO.N,+3V3*%
X87770000Y-101600000D02*
X83295000Y-101600000D01*
X83295000Y-101600000D02*
X78740000Y-97045000D01*
X78740000Y-97045000D02*
X73089594Y-97045000D01*
D22*
%TO.N,Net-(U1-IO34)*%
X87770000Y-106680000D02*
X81303883Y-106680000D01*
X81303883Y-106680000D02*
X72918883Y-98295000D01*
%TO.N,GND*%
X87770000Y-100330000D02*
X83935000Y-96495000D01*
X83935000Y-96495000D02*
X72660000Y-96495000D01*
%TO.N,+3V3*%
X57010000Y-111760000D02*
X62090000Y-106680000D01*
D21*
%TO.N,GND*%
X57010000Y-118960000D02*
X57010000Y-114810000D01*
%TO.N,Net-(M1-PWM)*%
X128130000Y-43180000D02*
X106420000Y-64890000D01*
X106000000Y-101600000D02*
X105270000Y-101600000D01*
X106420000Y-64890000D02*
X106420000Y-101180000D01*
X106420000Y-101180000D02*
X106000000Y-101600000D01*
%TO.N,Net-(M2-PWM)*%
X105270000Y-102870000D02*
X106420000Y-102870000D01*
X106420000Y-102870000D02*
X120510000Y-88780000D01*
X153530000Y-50800000D02*
X161150000Y-43180000D01*
X120510000Y-55880000D02*
X125590000Y-50800000D01*
X125590000Y-50800000D02*
X153530000Y-50800000D01*
X120510000Y-88780000D02*
X120510000Y-55880000D01*
%TO.N,Net-(M3-PWM)*%
X194170000Y-43180000D02*
X184010000Y-53340000D01*
X106540000Y-105410000D02*
X105270000Y-105410000D01*
X123050000Y-88900000D02*
X106540000Y-105410000D01*
X123050000Y-56728528D02*
X123050000Y-88900000D01*
X184010000Y-53340000D02*
X126438528Y-53340000D01*
X126438528Y-53340000D02*
X123050000Y-56728528D01*
%TO.N,Net-(M4-PWM)*%
X106000000Y-109220000D02*
X105270000Y-109220000D01*
X128130000Y-78740000D02*
X128130000Y-87090000D01*
X128130000Y-87090000D02*
X106000000Y-109220000D01*
%TO.N,Net-(M5-PWM)*%
X133210000Y-83820000D02*
X156070000Y-83820000D01*
X105270000Y-110490000D02*
X106540000Y-110490000D01*
X106540000Y-110490000D02*
X133210000Y-83820000D01*
X156070000Y-83820000D02*
X161150000Y-78740000D01*
%TO.N,Net-(M6-PWM)*%
X107810000Y-111760000D02*
X105270000Y-111760000D01*
X184010000Y-88900000D02*
X130670000Y-88900000D01*
X194170000Y-78740000D02*
X184010000Y-88900000D01*
X130670000Y-88900000D02*
X107810000Y-111760000D01*
%TO.N,Net-(M7-PWM)*%
X126860000Y-113030000D02*
X128130000Y-114300000D01*
X105270000Y-113030000D02*
X126860000Y-113030000D01*
%TO.N,Net-(M8-PWM)*%
X105270000Y-114300000D02*
X120510000Y-114300000D01*
X120510000Y-114300000D02*
X125590000Y-119380000D01*
X156070000Y-119380000D02*
X161150000Y-114300000D01*
X125590000Y-119380000D02*
X156070000Y-119380000D01*
%TO.N,Net-(M9-PWM)*%
X120510000Y-116840000D02*
X125590000Y-121920000D01*
X125590000Y-121920000D02*
X184010000Y-121920000D01*
X105270000Y-115570000D02*
X106000000Y-115570000D01*
X191630000Y-114300000D02*
X194170000Y-114300000D01*
X184010000Y-121920000D02*
X191630000Y-114300000D01*
X106000000Y-115570000D02*
X107270000Y-116840000D01*
X107270000Y-116840000D02*
X120510000Y-116840000D01*
%TO.N,Net-(M10-PWM)*%
X105270000Y-127000000D02*
X128130000Y-149860000D01*
X105270000Y-116840000D02*
X105270000Y-127000000D01*
%TO.N,Net-(M11-PWM)*%
X102235000Y-167145000D02*
X125590000Y-190500000D01*
X138290000Y-190500000D02*
X161150000Y-167640000D01*
X125590000Y-190500000D02*
X138290000Y-190500000D01*
X161150000Y-167640000D02*
X161150000Y-149860000D01*
X102235000Y-117935000D02*
X102235000Y-167145000D01*
%TO.N,Net-(M12-PWM)*%
X173850000Y-157480000D02*
X186550000Y-157480000D01*
X100965000Y-117935000D02*
X100965000Y-168415000D01*
X186550000Y-157480000D02*
X194170000Y-149860000D01*
X125590000Y-193040000D02*
X138290000Y-193040000D01*
X100965000Y-168415000D02*
X125590000Y-193040000D01*
X138290000Y-193040000D02*
X173850000Y-157480000D01*
%TO.N,Net-(M13-PWM)*%
X104120000Y-161410000D02*
X128130000Y-185420000D01*
X104540000Y-106680000D02*
X104120000Y-107100000D01*
X105270000Y-106680000D02*
X104540000Y-106680000D01*
X104120000Y-107100000D02*
X104120000Y-161410000D01*
%TO.N,Net-(U1-IO33)*%
X81350000Y-115780000D02*
X72960000Y-124170000D01*
X86640000Y-110490000D02*
X81350000Y-115780000D01*
X74790000Y-109220000D02*
X81350000Y-115780000D01*
X87770000Y-110490000D02*
X86640000Y-110490000D01*
%TO.N,+3V3*%
X90030000Y-93980000D02*
X67170000Y-93980000D01*
X88920000Y-101600000D02*
X90030000Y-100490000D01*
X87770000Y-101600000D02*
X88920000Y-101600000D01*
X62090000Y-93980000D02*
X67170000Y-93980000D01*
X64630000Y-109220000D02*
X62090000Y-106680000D01*
X90030000Y-100490000D02*
X90030000Y-93980000D01*
X62090000Y-106680000D02*
X62090000Y-93980000D01*
%TD*%
M02*
