%TF.GenerationSoftware,KiCad,Pcbnew,7.0.7-7.0.7~ubuntu20.04.1*%
%TF.CreationDate,2023-12-04T12:54:59-03:00*%
%TF.ProjectId,EA075,45413037-352e-46b6-9963-61645f706362,rev?*%
%TF.SameCoordinates,Original*%
%TF.FileFunction,Soldermask,Bot*%
%TF.FilePolarity,Negative*%
%FSLAX46Y46*%
G04 Gerber Fmt 4.6, Leading zero omitted, Abs format (unit mm)*
G04 Created by KiCad (PCBNEW 7.0.7-7.0.7~ubuntu20.04.1) date 2023-12-04 12:54:59*
%MOMM*%
%LPD*%
G01*
G04 APERTURE LIST*
%ADD10C,0.500000*%
%ADD11R,0.850000X0.850000*%
%ADD12C,1.500000*%
%ADD13C,2.000000*%
%ADD14O,1.600000X1.600000*%
%ADD15C,1.600000*%
G04 APERTURE END LIST*
D10*
%TO.C,U2*%
X72660000Y-97120000D03*
X72660000Y-98320000D03*
X72660000Y-96520000D03*
X72660000Y-98920000D03*
X72660000Y-97720000D03*
%TD*%
D11*
%TO.C,J4*%
X57010000Y-114810000D03*
%TD*%
%TO.C,J3*%
X57010000Y-111760000D03*
%TD*%
D12*
%TO.C,M13*%
X134920000Y-185420000D03*
X131470000Y-185420000D03*
X128130000Y-185420000D03*
%TD*%
%TO.C,M11*%
X167940000Y-149860000D03*
X164490000Y-149860000D03*
X161150000Y-149860000D03*
%TD*%
%TO.C,M1*%
X134920000Y-43180000D03*
X131470000Y-43180000D03*
X128130000Y-43180000D03*
%TD*%
%TO.C,M10*%
X134920000Y-149860000D03*
X131470000Y-149860000D03*
X128130000Y-149860000D03*
%TD*%
%TO.C,M2*%
X167940000Y-43180000D03*
X164490000Y-43180000D03*
X161150000Y-43180000D03*
%TD*%
D11*
%TO.C,J1*%
X237350000Y-106170000D03*
%TD*%
D12*
%TO.C,M12*%
X200960000Y-149860000D03*
X197510000Y-149860000D03*
X194170000Y-149860000D03*
%TD*%
D13*
%TO.C,SW2*%
X72960000Y-124170000D03*
X66460000Y-124170000D03*
X72960000Y-119670000D03*
X66460000Y-119670000D03*
%TD*%
D12*
%TO.C,M5*%
X167940000Y-78740000D03*
X164490000Y-78740000D03*
X161150000Y-78740000D03*
%TD*%
%TO.C,M4*%
X134920000Y-78740000D03*
X131470000Y-78740000D03*
X128130000Y-78740000D03*
%TD*%
D14*
%TO.C,R1*%
X74790000Y-109220000D03*
D15*
X64630000Y-109220000D03*
%TD*%
D12*
%TO.C,M3*%
X200960000Y-43180000D03*
X197510000Y-43180000D03*
X194170000Y-43180000D03*
%TD*%
%TO.C,M6*%
X200960000Y-78740000D03*
X197510000Y-78740000D03*
X194170000Y-78740000D03*
%TD*%
%TO.C,M9*%
X200960000Y-114300000D03*
X197510000Y-114300000D03*
X194170000Y-114300000D03*
%TD*%
%TO.C,M7*%
X134920000Y-114300000D03*
X131470000Y-114300000D03*
X128130000Y-114300000D03*
%TD*%
%TO.C,M8*%
X167940000Y-114300000D03*
X164490000Y-114300000D03*
X161150000Y-114300000D03*
%TD*%
D11*
%TO.C,J2*%
X237350000Y-109220000D03*
%TD*%
M02*
