%TF.GenerationSoftware,KiCad,Pcbnew,7.0.7-7.0.7~ubuntu20.04.1*%
%TF.CreationDate,2023-12-04T12:54:59-03:00*%
%TF.ProjectId,EA075,45413037-352e-46b6-9963-61645f706362,rev?*%
%TF.SameCoordinates,Original*%
%TF.FileFunction,Paste,Top*%
%TF.FilePolarity,Positive*%
%FSLAX46Y46*%
G04 Gerber Fmt 4.6, Leading zero omitted, Abs format (unit mm)*
G04 Created by KiCad (PCBNEW 7.0.7-7.0.7~ubuntu20.04.1) date 2023-12-04 12:54:59*
%MOMM*%
%LPD*%
G01*
G04 APERTURE LIST*
%ADD10R,0.700000X0.970000*%
%ADD11R,0.700000X0.250000*%
%ADD12R,1.500000X0.900000*%
%ADD13R,0.900000X1.500000*%
G04 APERTURE END LIST*
D10*
%TO.C,U2*%
X70740000Y-97132500D03*
X70740000Y-98307500D03*
X71635000Y-97132500D03*
X71635000Y-98307500D03*
D11*
X69710000Y-96520000D03*
X69710000Y-96920000D03*
X69710000Y-97320000D03*
X69710000Y-97720000D03*
X71485000Y-96220000D03*
X69710000Y-98920000D03*
X69710000Y-98120000D03*
X70485000Y-96220000D03*
X69710000Y-98520000D03*
%TD*%
D12*
%TO.C,U1*%
X105270000Y-100330000D03*
X105270000Y-101600000D03*
X105270000Y-102870000D03*
X105270000Y-104140000D03*
X105270000Y-105410000D03*
X105270000Y-106680000D03*
X105270000Y-107950000D03*
X105270000Y-109220000D03*
X105270000Y-110490000D03*
X105270000Y-111760000D03*
X105270000Y-113030000D03*
X105270000Y-114300000D03*
X105270000Y-115570000D03*
X105270000Y-116840000D03*
D13*
X102235000Y-117935000D03*
X100965000Y-117935000D03*
X99695000Y-117935000D03*
X98425000Y-117935000D03*
X97155000Y-117935000D03*
X95885000Y-117935000D03*
X94615000Y-117935000D03*
X93345000Y-117935000D03*
X92075000Y-117935000D03*
X90805000Y-117935000D03*
D12*
X87770000Y-116840000D03*
X87770000Y-115570000D03*
X87770000Y-114300000D03*
X87770000Y-113030000D03*
X87770000Y-111760000D03*
X87770000Y-110490000D03*
X87770000Y-109220000D03*
X87770000Y-107950000D03*
X87770000Y-106680000D03*
X87770000Y-105410000D03*
X87770000Y-104140000D03*
X87770000Y-102870000D03*
X87770000Y-101600000D03*
X87770000Y-100330000D03*
%TD*%
M02*
