%TF.GenerationSoftware,KiCad,Pcbnew,7.0.7-7.0.7~ubuntu20.04.1*%
%TF.CreationDate,2023-12-04T12:54:59-03:00*%
%TF.ProjectId,EA075,45413037-352e-46b6-9963-61645f706362,rev?*%
%TF.SameCoordinates,Original*%
%TF.FileFunction,Copper,L2,Bot*%
%TF.FilePolarity,Positive*%
%FSLAX46Y46*%
G04 Gerber Fmt 4.6, Leading zero omitted, Abs format (unit mm)*
G04 Created by KiCad (PCBNEW 7.0.7-7.0.7~ubuntu20.04.1) date 2023-12-04 12:54:59*
%MOMM*%
%LPD*%
G01*
G04 APERTURE LIST*
%TA.AperFunction,ComponentPad*%
%ADD10C,0.500000*%
%TD*%
%TA.AperFunction,ComponentPad*%
%ADD11R,0.850000X0.850000*%
%TD*%
%TA.AperFunction,ComponentPad*%
%ADD12C,1.500000*%
%TD*%
%TA.AperFunction,ComponentPad*%
%ADD13C,2.000000*%
%TD*%
%TA.AperFunction,ComponentPad*%
%ADD14O,1.600000X1.600000*%
%TD*%
%TA.AperFunction,ComponentPad*%
%ADD15C,1.600000*%
%TD*%
%TA.AperFunction,Conductor*%
%ADD16C,0.400000*%
%TD*%
G04 APERTURE END LIST*
D10*
%TO.P,U2,5,VDD*%
%TO.N,+3V3*%
X72660000Y-97120000D03*
%TO.P,U2,6,MICOUT*%
%TO.N,Net-(U1-IO34)*%
X72660000Y-98320000D03*
%TO.P,U2,7,GND*%
%TO.N,GND*%
X72660000Y-96520000D03*
%TO.P,U2,10,GAIN*%
%TO.N,unconnected-(U2-GAIN-Pad10)*%
X72660000Y-98920000D03*
%TO.P,U2,14,TH*%
%TO.N,unconnected-(U2-TH-Pad14)*%
X72660000Y-97720000D03*
%TD*%
D11*
%TO.P,J4,1,Pin_1*%
%TO.N,GND*%
X57010000Y-114810000D03*
%TD*%
%TO.P,J3,1,Pin_1*%
%TO.N,+3V3*%
X57010000Y-111760000D03*
%TD*%
D12*
%TO.P,M13,3,-*%
%TO.N,GND*%
X134920000Y-185420000D03*
%TO.P,M13,2,+*%
%TO.N,+5V*%
X131470000Y-185420000D03*
%TO.P,M13,1,PWM*%
%TO.N,Net-(M13-PWM)*%
X128130000Y-185420000D03*
%TD*%
%TO.P,M11,3,-*%
%TO.N,GND*%
X167940000Y-149860000D03*
%TO.P,M11,2,+*%
%TO.N,+5V*%
X164490000Y-149860000D03*
%TO.P,M11,1,PWM*%
%TO.N,Net-(M11-PWM)*%
X161150000Y-149860000D03*
%TD*%
%TO.P,M1,3,-*%
%TO.N,GND*%
X134920000Y-43180000D03*
%TO.P,M1,2,+*%
%TO.N,+5V*%
X131470000Y-43180000D03*
%TO.P,M1,1,PWM*%
%TO.N,Net-(M1-PWM)*%
X128130000Y-43180000D03*
%TD*%
%TO.P,M10,3,-*%
%TO.N,GND*%
X134920000Y-149860000D03*
%TO.P,M10,2,+*%
%TO.N,+5V*%
X131470000Y-149860000D03*
%TO.P,M10,1,PWM*%
%TO.N,Net-(M10-PWM)*%
X128130000Y-149860000D03*
%TD*%
%TO.P,M2,3,-*%
%TO.N,GND*%
X167940000Y-43180000D03*
%TO.P,M2,2,+*%
%TO.N,+5V*%
X164490000Y-43180000D03*
%TO.P,M2,1,PWM*%
%TO.N,Net-(M2-PWM)*%
X161150000Y-43180000D03*
%TD*%
D11*
%TO.P,J1,1,Pin_1*%
%TO.N,+5V*%
X237350000Y-106170000D03*
%TD*%
D12*
%TO.P,M12,3,-*%
%TO.N,GND*%
X200960000Y-149860000D03*
%TO.P,M12,2,+*%
%TO.N,+5V*%
X197510000Y-149860000D03*
%TO.P,M12,1,PWM*%
%TO.N,Net-(M12-PWM)*%
X194170000Y-149860000D03*
%TD*%
D13*
%TO.P,SW2,2,2*%
%TO.N,Net-(U1-IO33)*%
X72960000Y-124170000D03*
X66460000Y-124170000D03*
%TO.P,SW2,1,1*%
%TO.N,GND*%
X72960000Y-119670000D03*
X66460000Y-119670000D03*
%TD*%
D12*
%TO.P,M5,3,-*%
%TO.N,GND*%
X167940000Y-78740000D03*
%TO.P,M5,2,+*%
%TO.N,+5V*%
X164490000Y-78740000D03*
%TO.P,M5,1,PWM*%
%TO.N,Net-(M5-PWM)*%
X161150000Y-78740000D03*
%TD*%
%TO.P,M4,3,-*%
%TO.N,GND*%
X134920000Y-78740000D03*
%TO.P,M4,2,+*%
%TO.N,+5V*%
X131470000Y-78740000D03*
%TO.P,M4,1,PWM*%
%TO.N,Net-(M4-PWM)*%
X128130000Y-78740000D03*
%TD*%
D14*
%TO.P,R1,2*%
%TO.N,Net-(U1-IO33)*%
X74790000Y-109220000D03*
D15*
%TO.P,R1,1*%
%TO.N,+3V3*%
X64630000Y-109220000D03*
%TD*%
D12*
%TO.P,M3,3,-*%
%TO.N,GND*%
X200960000Y-43180000D03*
%TO.P,M3,2,+*%
%TO.N,+5V*%
X197510000Y-43180000D03*
%TO.P,M3,1,PWM*%
%TO.N,Net-(M3-PWM)*%
X194170000Y-43180000D03*
%TD*%
%TO.P,M6,3,-*%
%TO.N,GND*%
X200960000Y-78740000D03*
%TO.P,M6,2,+*%
%TO.N,+5V*%
X197510000Y-78740000D03*
%TO.P,M6,1,PWM*%
%TO.N,Net-(M6-PWM)*%
X194170000Y-78740000D03*
%TD*%
%TO.P,M9,3,-*%
%TO.N,GND*%
X200960000Y-114300000D03*
%TO.P,M9,2,+*%
%TO.N,+5V*%
X197510000Y-114300000D03*
%TO.P,M9,1,PWM*%
%TO.N,Net-(M9-PWM)*%
X194170000Y-114300000D03*
%TD*%
%TO.P,M7,3,-*%
%TO.N,GND*%
X134920000Y-114300000D03*
%TO.P,M7,2,+*%
%TO.N,+5V*%
X131470000Y-114300000D03*
%TO.P,M7,1,PWM*%
%TO.N,Net-(M7-PWM)*%
X128130000Y-114300000D03*
%TD*%
%TO.P,M8,3,-*%
%TO.N,GND*%
X167940000Y-114300000D03*
%TO.P,M8,2,+*%
%TO.N,+5V*%
X164490000Y-114300000D03*
%TO.P,M8,1,PWM*%
%TO.N,Net-(M8-PWM)*%
X161150000Y-114300000D03*
%TD*%
D11*
%TO.P,J2,1,Pin_1*%
%TO.N,GND*%
X237350000Y-109220000D03*
%TD*%
D16*
%TO.N,+5V*%
X131470000Y-114300000D02*
X121310000Y-124460000D01*
X159410000Y-154940000D02*
X126390000Y-154940000D01*
X110350000Y-164300000D02*
X131470000Y-185420000D01*
X110350000Y-121920000D02*
X110350000Y-154940000D01*
X153530000Y-86360000D02*
X120510000Y-86360000D01*
X131470000Y-149860000D02*
X126390000Y-154940000D01*
X154330000Y-124460000D02*
X150990000Y-124460000D01*
X156870000Y-86360000D02*
X153530000Y-86360000D01*
X237350000Y-17780000D02*
X110350000Y-17780000D01*
X164490000Y-114300000D02*
X154330000Y-124460000D01*
X110350000Y-86360000D02*
X110350000Y-83820000D01*
X192430000Y-48260000D02*
X156070000Y-48260000D01*
X187350000Y-124460000D02*
X150990000Y-124460000D01*
X237350000Y-106170000D02*
X237350000Y-17780000D01*
X189890000Y-86360000D02*
X153530000Y-86360000D01*
X120510000Y-86360000D02*
X110350000Y-86360000D01*
X156070000Y-48260000D02*
X123050000Y-48260000D01*
X110350000Y-17780000D02*
X110350000Y-48260000D01*
X159410000Y-48260000D02*
X156070000Y-48260000D01*
X131470000Y-43180000D02*
X126390000Y-48260000D01*
X131470000Y-78740000D02*
X123850000Y-86360000D01*
X164490000Y-149860000D02*
X159410000Y-154940000D01*
X126390000Y-154940000D02*
X110350000Y-154940000D01*
X150990000Y-124460000D02*
X120510000Y-124460000D01*
X164490000Y-78740000D02*
X156870000Y-86360000D01*
X110350000Y-48260000D02*
X110350000Y-83820000D01*
X110350000Y-83820000D02*
X110350000Y-121920000D01*
X197510000Y-149860000D02*
X192430000Y-154940000D01*
X197510000Y-78740000D02*
X189890000Y-86360000D01*
X120510000Y-124460000D02*
X110350000Y-124460000D01*
X126390000Y-48260000D02*
X123050000Y-48260000D01*
X123850000Y-86360000D02*
X120510000Y-86360000D01*
X164490000Y-43180000D02*
X159410000Y-48260000D01*
X197510000Y-43180000D02*
X192430000Y-48260000D01*
X123050000Y-48260000D02*
X110350000Y-48260000D01*
X197510000Y-114300000D02*
X187350000Y-124460000D01*
X121310000Y-124460000D02*
X120510000Y-124460000D01*
X110350000Y-124460000D02*
X110350000Y-121920000D01*
X192430000Y-154940000D02*
X159410000Y-154940000D01*
X110350000Y-154940000D02*
X110350000Y-164300000D01*
%TO.N,GND*%
X224650000Y-58420000D02*
X222110000Y-55880000D01*
X173850000Y-160020000D02*
X148450000Y-185420000D01*
X167940000Y-110050000D02*
X186550000Y-91440000D01*
X143370000Y-34730000D02*
X134920000Y-43180000D01*
X237350000Y-149860000D02*
X227190000Y-160020000D01*
X167940000Y-43180000D02*
X181470000Y-29650000D01*
X167940000Y-78740000D02*
X181470000Y-65210000D01*
X217030000Y-98230000D02*
X217030000Y-96520000D01*
X145910000Y-55880000D02*
X145910000Y-67750000D01*
X134920000Y-148150000D02*
X156070000Y-127000000D01*
X166230000Y-91440000D02*
X196710000Y-91440000D01*
X224650000Y-60960000D02*
X224650000Y-58420000D01*
X167940000Y-114300000D02*
X167940000Y-110050000D01*
X181470000Y-65210000D02*
X181470000Y-55880000D01*
X224650000Y-20320000D02*
X181470000Y-20320000D01*
X145910000Y-67750000D02*
X134920000Y-78740000D01*
X224650000Y-68580000D02*
X224650000Y-60960000D01*
X227190000Y-160020000D02*
X173850000Y-160020000D01*
X237350000Y-109220000D02*
X237350000Y-116840000D01*
X214490000Y-78740000D02*
X224650000Y-68580000D01*
X209410000Y-43180000D02*
X224650000Y-27940000D01*
X145910000Y-91440000D02*
X145910000Y-103310000D01*
X237350000Y-116840000D02*
X237350000Y-127000000D01*
X181470000Y-20320000D02*
X143370000Y-20320000D01*
X186550000Y-127000000D02*
X201790000Y-127000000D01*
X143370000Y-20320000D02*
X143370000Y-34730000D01*
X167940000Y-149860000D02*
X167940000Y-145610000D01*
X224650000Y-104140000D02*
X224650000Y-60960000D01*
X148450000Y-185420000D02*
X134920000Y-185420000D01*
X167940000Y-145610000D02*
X186550000Y-127000000D01*
X166230000Y-91440000D02*
X145910000Y-91440000D01*
X196710000Y-91440000D02*
X186550000Y-91440000D01*
X224650000Y-58420000D02*
X224650000Y-27940000D01*
X181470000Y-29650000D02*
X181470000Y-20320000D01*
X145910000Y-103310000D02*
X134920000Y-114300000D01*
X222110000Y-55880000D02*
X181470000Y-55880000D01*
X200960000Y-149860000D02*
X237350000Y-149860000D01*
X200960000Y-43180000D02*
X209410000Y-43180000D01*
X156070000Y-127000000D02*
X201790000Y-127000000D01*
X237350000Y-127000000D02*
X237350000Y-149860000D01*
X217030000Y-96520000D02*
X211950000Y-91440000D01*
X211950000Y-91440000D02*
X196710000Y-91440000D01*
X186550000Y-91440000D02*
X166230000Y-91440000D01*
X237350000Y-116840000D02*
X224650000Y-104140000D01*
X134920000Y-114300000D02*
X135335000Y-113885000D01*
X224650000Y-27940000D02*
X224650000Y-20320000D01*
X200960000Y-78740000D02*
X214490000Y-78740000D01*
X181470000Y-55880000D02*
X145910000Y-55880000D01*
X201790000Y-127000000D02*
X237350000Y-127000000D01*
X200960000Y-114300000D02*
X217030000Y-98230000D01*
X134920000Y-149860000D02*
X134920000Y-148150000D01*
X224650000Y-104140000D02*
X217030000Y-96520000D01*
%TD*%
M02*
