M48
; DRILL file {KiCad 7.0.7-7.0.7~ubuntu20.04.1} date seg 04 dez 2023 12:54:55
; FORMAT={-:-/ absolute / inch / decimal}
; #@! TF.CreationDate,2023-12-04T12:54:55-03:00
; #@! TF.GenerationSoftware,Kicad,Pcbnew,7.0.7-7.0.7~ubuntu20.04.1
; #@! TF.FileFunction,Plated,1,2,PTH
FMAT,2
INCH
; #@! TA.AperFunction,Plated,PTH,ComponentDrill
T1C0.0098
; #@! TA.AperFunction,Plated,PTH,ComponentDrill
T2C0.0197
; #@! TA.AperFunction,Plated,PTH,ComponentDrill
T3C0.0315
; #@! TA.AperFunction,Plated,PTH,ComponentDrill
T4C0.0394
; #@! TA.AperFunction,Plated,PTH,ComponentDrill
T5C0.0433
%
G90
G05
T1
X2.8606Y-3.8
X2.8606Y-3.8236
X2.8606Y-3.8472
X2.8606Y-3.8709
X2.8606Y-3.8945
T2
X2.2445Y-4.4
X2.2445Y-4.5201
X9.3445Y-4.1799
X9.3445Y-4.3
T3
X2.5445Y-4.3
X2.9445Y-4.3
T4
X5.0445Y-1.7
X5.0445Y-3.1
X5.0445Y-4.5
X5.0445Y-5.9
X5.0445Y-7.3
X5.176Y-1.7
X5.176Y-3.1
X5.176Y-4.5
X5.176Y-5.9
X5.176Y-7.3
X5.3118Y-1.7
X5.3118Y-3.1
X5.3118Y-4.5
X5.3118Y-5.9
X5.3118Y-7.3
X6.3445Y-1.7
X6.3445Y-3.1
X6.3445Y-4.5
X6.3445Y-5.9
X6.476Y-1.7
X6.476Y-3.1
X6.476Y-4.5
X6.476Y-5.9
X6.6118Y-1.7
X6.6118Y-3.1
X6.6118Y-4.5
X6.6118Y-5.9
X7.6445Y-1.7
X7.6445Y-3.1
X7.6445Y-4.5
X7.6445Y-5.9
X7.776Y-1.7
X7.776Y-3.1
X7.776Y-4.5
X7.776Y-5.9
X7.9118Y-1.7
X7.9118Y-3.1
X7.9118Y-4.5
X7.9118Y-5.9
T5
X2.6165Y-4.7114
X2.6165Y-4.8886
X2.8724Y-4.7114
X2.8724Y-4.8886
T0
M30
