%TF.GenerationSoftware,KiCad,Pcbnew,7.0.9*%
%TF.CreationDate,2023-12-04T17:48:11-03:00*%
%TF.ProjectId,aussistente,61757373-6973-4746-956e-74652e6b6963,1*%
%TF.SameCoordinates,Original*%
%TF.FileFunction,Copper,L1,Top*%
%TF.FilePolarity,Positive*%
%FSLAX46Y46*%
G04 Gerber Fmt 4.6, Leading zero omitted, Abs format (unit mm)*
G04 Created by KiCad (PCBNEW 7.0.9) date 2023-12-04 17:48:11*
%MOMM*%
%LPD*%
G01*
G04 APERTURE LIST*
G04 Aperture macros list*
%AMRoundRect*
0 Rectangle with rounded corners*
0 $1 Rounding radius*
0 $2 $3 $4 $5 $6 $7 $8 $9 X,Y pos of 4 corners*
0 Add a 4 corners polygon primitive as box body*
4,1,4,$2,$3,$4,$5,$6,$7,$8,$9,$2,$3,0*
0 Add four circle primitives for the rounded corners*
1,1,$1+$1,$2,$3*
1,1,$1+$1,$4,$5*
1,1,$1+$1,$6,$7*
1,1,$1+$1,$8,$9*
0 Add four rect primitives between the rounded corners*
20,1,$1+$1,$2,$3,$4,$5,0*
20,1,$1+$1,$4,$5,$6,$7,0*
20,1,$1+$1,$6,$7,$8,$9,0*
20,1,$1+$1,$8,$9,$2,$3,0*%
G04 Aperture macros list end*
%TA.AperFunction,ComponentPad*%
%ADD10C,2.000000*%
%TD*%
%TA.AperFunction,ComponentPad*%
%ADD11R,3.000000X3.000000*%
%TD*%
%TA.AperFunction,ComponentPad*%
%ADD12C,3.000000*%
%TD*%
%TA.AperFunction,SMDPad,CuDef*%
%ADD13RoundRect,0.100000X0.130000X0.100000X-0.130000X0.100000X-0.130000X-0.100000X0.130000X-0.100000X0*%
%TD*%
%TA.AperFunction,SMDPad,CuDef*%
%ADD14RoundRect,0.093750X-0.093750X-0.106250X0.093750X-0.106250X0.093750X0.106250X-0.093750X0.106250X0*%
%TD*%
%TA.AperFunction,SMDPad,CuDef*%
%ADD15R,1.000000X1.600000*%
%TD*%
%TA.AperFunction,SMDPad,CuDef*%
%ADD16R,1.500000X0.900000*%
%TD*%
%TA.AperFunction,SMDPad,CuDef*%
%ADD17R,0.900000X1.500000*%
%TD*%
%TA.AperFunction,SMDPad,CuDef*%
%ADD18R,1.050000X1.050000*%
%TD*%
%TA.AperFunction,HeatsinkPad*%
%ADD19C,0.600000*%
%TD*%
%TA.AperFunction,SMDPad,CuDef*%
%ADD20R,4.200000X4.200000*%
%TD*%
%TA.AperFunction,SMDPad,CuDef*%
%ADD21RoundRect,0.100000X-0.130000X-0.100000X0.130000X-0.100000X0.130000X0.100000X-0.130000X0.100000X0*%
%TD*%
%TA.AperFunction,SMDPad,CuDef*%
%ADD22RoundRect,0.087500X-0.287500X-0.087500X0.287500X-0.087500X0.287500X0.087500X-0.287500X0.087500X0*%
%TD*%
%TA.AperFunction,SMDPad,CuDef*%
%ADD23RoundRect,0.140000X-0.170000X0.140000X-0.170000X-0.140000X0.170000X-0.140000X0.170000X0.140000X0*%
%TD*%
%TA.AperFunction,SMDPad,CuDef*%
%ADD24RoundRect,0.140000X0.140000X0.170000X-0.140000X0.170000X-0.140000X-0.170000X0.140000X-0.170000X0*%
%TD*%
%TA.AperFunction,SMDPad,CuDef*%
%ADD25R,0.250000X0.475000*%
%TD*%
%TA.AperFunction,SMDPad,CuDef*%
%ADD26R,0.475000X0.250000*%
%TD*%
%TA.AperFunction,SMDPad,CuDef*%
%ADD27RoundRect,0.140000X0.170000X-0.140000X0.170000X0.140000X-0.170000X0.140000X-0.170000X-0.140000X0*%
%TD*%
%TA.AperFunction,SMDPad,CuDef*%
%ADD28R,1.900000X1.750000*%
%TD*%
%TA.AperFunction,SMDPad,CuDef*%
%ADD29R,0.750000X0.300000*%
%TD*%
%TA.AperFunction,SMDPad,CuDef*%
%ADD30RoundRect,0.175000X-0.725000X-0.175000X0.725000X-0.175000X0.725000X0.175000X-0.725000X0.175000X0*%
%TD*%
%TA.AperFunction,SMDPad,CuDef*%
%ADD31RoundRect,0.200000X-0.700000X-0.200000X0.700000X-0.200000X0.700000X0.200000X-0.700000X0.200000X0*%
%TD*%
%TA.AperFunction,SMDPad,CuDef*%
%ADD32RoundRect,0.100000X-0.100000X0.130000X-0.100000X-0.130000X0.100000X-0.130000X0.100000X0.130000X0*%
%TD*%
%TA.AperFunction,ViaPad*%
%ADD33C,0.800000*%
%TD*%
%TA.AperFunction,Conductor*%
%ADD34C,0.250000*%
%TD*%
G04 APERTURE END LIST*
D10*
%TO.P,SW1,1,1*%
%TO.N,GND*%
X88190000Y-72680000D03*
X94690000Y-72680000D03*
%TO.P,SW1,2,2*%
%TO.N,/RESET*%
X88190000Y-77180000D03*
X94690000Y-77180000D03*
%TD*%
D11*
%TO.P,BT1,1,+*%
%TO.N,VDDIO*%
X90150000Y-139700000D03*
D12*
%TO.P,BT1,2,-*%
%TO.N,GND*%
X90150000Y-152400000D03*
%TD*%
D13*
%TO.P,R2,1*%
%TO.N,VDDIO*%
X140365000Y-110490000D03*
%TO.P,R2,2*%
%TO.N,SDA*%
X139725000Y-110490000D03*
%TD*%
D14*
%TO.P,U3,1,SCL*%
%TO.N,SCL*%
X132080000Y-111730000D03*
%TO.P,U3,2,GND*%
%TO.N,GND*%
X132080000Y-112380000D03*
%TO.P,U3,3,ALERT*%
%TO.N,TEMP*%
X132080000Y-113030000D03*
%TO.P,U3,4,ADD0*%
%TO.N,GND*%
X133855000Y-113030000D03*
%TO.P,U3,5,V+*%
%TO.N,VDDIO*%
X133855000Y-112380000D03*
%TO.P,U3,6,SDA*%
%TO.N,SDA*%
X133855000Y-111730000D03*
D15*
%TO.P,U3,7*%
%TO.N,N/C*%
X132967500Y-112380000D03*
%TD*%
D13*
%TO.P,R9,1*%
%TO.N,VDDIO*%
X100995000Y-120650000D03*
%TO.P,R9,2*%
%TO.N,Net-(IC1-VDD)*%
X100355000Y-120650000D03*
%TD*%
D16*
%TO.P,U1,1,GND*%
%TO.N,GND*%
X104452500Y-66555000D03*
%TO.P,U1,2,VDD*%
%TO.N,VDDIO*%
X104452500Y-67825000D03*
%TO.P,U1,3,EN*%
%TO.N,/RESET*%
X104452500Y-69095000D03*
%TO.P,U1,4,SENSOR_VP*%
%TO.N,unconnected-(U1-SENSOR_VP-Pad4)*%
X104452500Y-70365000D03*
%TO.P,U1,5,SENSOR_VN*%
%TO.N,unconnected-(U1-SENSOR_VN-Pad5)*%
X104452500Y-71635000D03*
%TO.P,U1,6,IO34*%
%TO.N,SDA*%
X104452500Y-72905000D03*
%TO.P,U1,7,IO35*%
%TO.N,SCL*%
X104452500Y-74175000D03*
%TO.P,U1,8,IO32*%
%TO.N,unconnected-(U1-IO32-Pad8)*%
X104452500Y-75445000D03*
%TO.P,U1,9,IO33*%
%TO.N,unconnected-(U1-IO33-Pad9)*%
X104452500Y-76715000D03*
%TO.P,U1,10,IO25*%
%TO.N,unconnected-(U1-IO25-Pad10)*%
X104452500Y-77985000D03*
%TO.P,U1,11,IO26*%
%TO.N,unconnected-(U1-IO26-Pad11)*%
X104452500Y-79255000D03*
%TO.P,U1,12,IO27*%
%TO.N,unconnected-(U1-IO27-Pad12)*%
X104452500Y-80525000D03*
%TO.P,U1,13,IO14*%
%TO.N,unconnected-(U1-IO14-Pad13)*%
X104452500Y-81795000D03*
%TO.P,U1,14,IO12*%
%TO.N,unconnected-(U1-IO12-Pad14)*%
X104452500Y-83065000D03*
D17*
%TO.P,U1,15,GND*%
%TO.N,GND*%
X107492500Y-84315000D03*
%TO.P,U1,16,IO13*%
%TO.N,unconnected-(U1-IO13-Pad16)*%
X108762500Y-84315000D03*
%TO.P,U1,17,SHD/SD2*%
%TO.N,unconnected-(U1-SHD{slash}SD2-Pad17)*%
X110032500Y-84315000D03*
%TO.P,U1,18,SWP/SD3*%
%TO.N,unconnected-(U1-SWP{slash}SD3-Pad18)*%
X111302500Y-84315000D03*
%TO.P,U1,19,SCS/CMD*%
%TO.N,unconnected-(U1-SCS{slash}CMD-Pad19)*%
X112572500Y-84315000D03*
%TO.P,U1,20,SCK/CLK*%
%TO.N,unconnected-(U1-SCK{slash}CLK-Pad20)*%
X113842500Y-84315000D03*
%TO.P,U1,21,SDO/SD0*%
%TO.N,unconnected-(U1-SDO{slash}SD0-Pad21)*%
X115112500Y-84315000D03*
%TO.P,U1,22,SDI/SD1*%
%TO.N,unconnected-(U1-SDI{slash}SD1-Pad22)*%
X116382500Y-84315000D03*
%TO.P,U1,23,IO15*%
%TO.N,unconnected-(U1-IO15-Pad23)*%
X117652500Y-84315000D03*
%TO.P,U1,24,IO2*%
%TO.N,BAT*%
X118922500Y-84315000D03*
D16*
%TO.P,U1,25,IO0*%
%TO.N,TEMP*%
X121952500Y-83065000D03*
%TO.P,U1,26,IO4*%
%TO.N,unconnected-(U1-IO4-Pad26)*%
X121952500Y-81795000D03*
%TO.P,U1,27,IO16*%
%TO.N,IMU1*%
X121952500Y-80525000D03*
%TO.P,U1,28,IO17*%
%TO.N,unconnected-(U1-IO17-Pad28)*%
X121952500Y-79255000D03*
%TO.P,U1,29,IO5*%
%TO.N,unconnected-(U1-IO5-Pad29)*%
X121952500Y-77985000D03*
%TO.P,U1,30,IO18*%
%TO.N,unconnected-(U1-IO18-Pad30)*%
X121952500Y-76715000D03*
%TO.P,U1,31,IO19*%
%TO.N,GPSRX*%
X121952500Y-75445000D03*
%TO.P,U1,32,NC*%
%TO.N,unconnected-(U1-NC-Pad32)*%
X121952500Y-74175000D03*
%TO.P,U1,33,IO21*%
%TO.N,GPSTX*%
X121952500Y-72905000D03*
%TO.P,U1,34,RXD0/IO3*%
%TO.N,unconnected-(U1-RXD0{slash}IO3-Pad34)*%
X121952500Y-71635000D03*
%TO.P,U1,35,TXD0/IO1*%
%TO.N,unconnected-(U1-TXD0{slash}IO1-Pad35)*%
X121952500Y-70365000D03*
%TO.P,U1,36,IO22*%
%TO.N,unconnected-(U1-IO22-Pad36)*%
X121952500Y-69095000D03*
%TO.P,U1,37,IO23*%
%TO.N,unconnected-(U1-IO23-Pad37)*%
X121952500Y-67825000D03*
%TO.P,U1,38,GND*%
%TO.N,GND*%
X121952500Y-66555000D03*
D18*
%TO.P,U1,39,GND*%
X110997500Y-72370000D03*
D19*
X110997500Y-73132500D03*
D18*
X110997500Y-73895000D03*
D19*
X110997500Y-74657500D03*
D18*
X110997500Y-75420000D03*
D19*
X111760000Y-72370000D03*
X111760000Y-73895000D03*
X111760000Y-75420000D03*
D18*
X112522500Y-72370000D03*
D19*
X112522500Y-73132500D03*
D18*
X112522500Y-73895000D03*
D20*
X112522500Y-73895000D03*
D19*
X112522500Y-74657500D03*
D18*
X112522500Y-75420000D03*
D19*
X113285000Y-72370000D03*
X113285000Y-73895000D03*
X113285000Y-75420000D03*
D18*
X114047500Y-72370000D03*
D19*
X114047500Y-73132500D03*
D18*
X114047500Y-73895000D03*
D19*
X114047500Y-74657500D03*
D18*
X114047500Y-75420000D03*
%TD*%
D13*
%TO.P,R8,1*%
%TO.N,VDDIO*%
X141635000Y-91440000D03*
%TO.P,R8,2*%
%TO.N,SDA*%
X140995000Y-91440000D03*
%TD*%
D21*
%TO.P,R13,2*%
%TO.N,SCL*%
X85755000Y-120650000D03*
%TO.P,R13,1*%
%TO.N,VDDIO*%
X85115000Y-120650000D03*
%TD*%
D22*
%TO.P,U4,1,NC*%
%TO.N,unconnected-(U4-NC-Pad1)*%
X90240000Y-89040000D03*
%TO.P,U4,2,SCL*%
%TO.N,SCL*%
X90240000Y-89840000D03*
%TO.P,U4,3,SDA*%
%TO.N,SDA*%
X90240000Y-90640000D03*
%TO.P,U4,4,PGND*%
%TO.N,GND*%
X90240000Y-91440000D03*
%TO.P,U4,5,NC*%
%TO.N,unconnected-(U4-NC-Pad5)*%
X90240000Y-92240000D03*
%TO.P,U4,6,NC*%
%TO.N,unconnected-(U4-NC-Pad6)*%
X90240000Y-93040000D03*
%TO.P,U4,7,NC*%
%TO.N,unconnected-(U4-NC-Pad7)*%
X90240000Y-93840000D03*
%TO.P,U4,8,NC*%
%TO.N,unconnected-(U4-NC-Pad8)*%
X92640000Y-93840000D03*
%TO.P,U4,9,VLED+*%
%TO.N,GND*%
X92640000Y-93040000D03*
%TO.P,U4,10,VLED+*%
X92640000Y-92240000D03*
%TO.P,U4,11,VDD*%
%TO.N,VDDIO*%
X92640000Y-91440000D03*
%TO.P,U4,12,GND*%
%TO.N,GND*%
X92640000Y-90640000D03*
%TO.P,U4,13,~{INT}*%
%TO.N,unconnected-(U4-~{INT}-Pad13)*%
X92640000Y-89840000D03*
%TO.P,U4,14,NC*%
%TO.N,unconnected-(U4-NC-Pad14)*%
X92640000Y-89040000D03*
%TD*%
D23*
%TO.P,C7,1*%
%TO.N,Net-(IC1-CELL)*%
X99060000Y-123500000D03*
%TO.P,C7,2*%
%TO.N,GND*%
X99060000Y-124460000D03*
%TD*%
%TO.P,C3,1*%
%TO.N,VDDIO*%
X97790000Y-91790000D03*
%TO.P,C3,2*%
%TO.N,GND*%
X97790000Y-92750000D03*
%TD*%
%TO.P,C5,1*%
%TO.N,VDDIO*%
X132080000Y-96520000D03*
%TO.P,C5,2*%
%TO.N,GND*%
X132080000Y-97480000D03*
%TD*%
%TO.P,C4,1*%
%TO.N,VDDIO*%
X134620000Y-96830000D03*
%TO.P,C4,2*%
%TO.N,GND*%
X134620000Y-97790000D03*
%TD*%
D13*
%TO.P,R15,1*%
%TO.N,VDDIO*%
X140945000Y-87630000D03*
%TO.P,R15,2*%
%TO.N,Net-(U2-SDO)*%
X140305000Y-87630000D03*
%TD*%
D21*
%TO.P,R11,2*%
%TO.N,BAT*%
X85755000Y-118110000D03*
%TO.P,R11,1*%
%TO.N,VDDIO*%
X85115000Y-118110000D03*
%TD*%
D24*
%TO.P,C8,1*%
%TO.N,/RESET*%
X98750000Y-72390000D03*
%TO.P,C8,2*%
%TO.N,GND*%
X97790000Y-72390000D03*
%TD*%
D25*
%TO.P,U2,1,SDO*%
%TO.N,Net-(U2-SDO)*%
X134457500Y-89007500D03*
%TO.P,U2,2,ASDX*%
%TO.N,unconnected-(U2-ASDX-Pad2)*%
X133957500Y-89007500D03*
%TO.P,U2,3,ASCX*%
%TO.N,unconnected-(U2-ASCX-Pad3)*%
X133457500Y-89007500D03*
%TO.P,U2,4,INT1*%
%TO.N,IMU1*%
X132957500Y-89007500D03*
D26*
%TO.P,U2,5,VDDIO*%
%TO.N,VDDIO*%
X132795000Y-89670000D03*
%TO.P,U2,6,GNDIO*%
%TO.N,GND*%
X132795000Y-90170000D03*
%TO.P,U2,7,GND*%
X132795000Y-90670000D03*
D25*
%TO.P,U2,8,VDD*%
%TO.N,VDDIO*%
X132957500Y-91332500D03*
%TO.P,U2,9,INT2*%
%TO.N,unconnected-(U2-INT2-Pad9)*%
X133457500Y-91332500D03*
%TO.P,U2,10,OSCB*%
%TO.N,unconnected-(U2-OSCB-Pad10)*%
X133957500Y-91332500D03*
%TO.P,U2,11,OSDO*%
%TO.N,unconnected-(U2-OSDO-Pad11)*%
X134457500Y-91332500D03*
D26*
%TO.P,U2,12,CSB*%
%TO.N,VDDIO*%
X134620000Y-90670000D03*
%TO.P,U2,13,SCX*%
%TO.N,SCL*%
X134620000Y-90170000D03*
%TO.P,U2,14,SDX*%
%TO.N,SDA*%
X134620000Y-89670000D03*
%TD*%
D23*
%TO.P,C2,1*%
%TO.N,VDDIO*%
X95250000Y-91790000D03*
%TO.P,C2,2*%
%TO.N,GND*%
X95250000Y-92750000D03*
%TD*%
D13*
%TO.P,R1,1*%
%TO.N,VDDIO*%
X140365000Y-106680000D03*
%TO.P,R1,2*%
%TO.N,SCL*%
X139725000Y-106680000D03*
%TD*%
D27*
%TO.P,C6,1*%
%TO.N,Net-(IC1-VDD)*%
X99060000Y-118110000D03*
%TO.P,C6,2*%
%TO.N,GND*%
X99060000Y-117150000D03*
%TD*%
D13*
%TO.P,R4,1*%
%TO.N,VDDIO*%
X98455000Y-87630000D03*
%TO.P,R4,2*%
%TO.N,SCL*%
X97815000Y-87630000D03*
%TD*%
D21*
%TO.P,R5,1*%
%TO.N,VDDIO*%
X85695000Y-90170000D03*
%TO.P,R5,2*%
%TO.N,SDA*%
X86335000Y-90170000D03*
%TD*%
D13*
%TO.P,R10,1*%
%TO.N,VDDIO*%
X100995000Y-121920000D03*
%TO.P,R10,2*%
%TO.N,Net-(IC1-CELL)*%
X100355000Y-121920000D03*
%TD*%
D28*
%TO.P,IC1,9,EP*%
%TO.N,GND*%
X94210000Y-122440000D03*
D29*
%TO.P,IC1,8,SDA*%
%TO.N,SDA*%
X92710000Y-123190000D03*
%TO.P,IC1,7,SCL*%
%TO.N,SCL*%
X92710000Y-122690000D03*
%TO.P,IC1,6,QSTRT*%
%TO.N,GND*%
X92710000Y-122190000D03*
%TO.P,IC1,5,~{ALRT}*%
%TO.N,BAT*%
X92710000Y-121690000D03*
%TO.P,IC1,4,GND*%
%TO.N,GND*%
X95710000Y-121690000D03*
%TO.P,IC1,3,VDD*%
%TO.N,Net-(IC1-VDD)*%
X95710000Y-122190000D03*
%TO.P,IC1,2,CELL*%
%TO.N,Net-(IC1-CELL)*%
X95710000Y-122690000D03*
%TO.P,IC1,1,CTG*%
%TO.N,GND*%
X95710000Y-123190000D03*
%TD*%
D30*
%TO.P,U5,1,GND*%
%TO.N,GND*%
X132410000Y-70510000D03*
D31*
%TO.P,U5,2,TXD*%
%TO.N,GPSTX*%
X132410000Y-71610000D03*
%TO.P,U5,3,RXD*%
%TO.N,GPSRX*%
X132410000Y-72710000D03*
%TO.P,U5,4,TIMEPULSE*%
%TO.N,unconnected-(U5-TIMEPULSE-Pad4)*%
X132410000Y-73810000D03*
%TO.P,U5,5,EXTINT*%
%TO.N,unconnected-(U5-EXTINT-Pad5)*%
X132410000Y-74910000D03*
%TO.P,U5,6,V_BCKP*%
%TO.N,VDDIO*%
X132410000Y-76010000D03*
%TO.P,U5,7,VCC_IO*%
X132410000Y-77110000D03*
%TO.P,U5,8,VCC*%
X132410000Y-78210000D03*
D30*
%TO.P,U5,9,~{RESET}*%
%TO.N,unconnected-(U5-~{RESET}-Pad9)*%
X132410000Y-79310000D03*
%TO.P,U5,10,GND*%
%TO.N,GND*%
X141910000Y-79310000D03*
D31*
%TO.P,U5,11,RF_IN*%
%TO.N,unconnected-(U5-RF_IN-Pad11)*%
X141910000Y-78210000D03*
%TO.P,U5,12,GND*%
%TO.N,GND*%
X141910000Y-77110000D03*
%TO.P,U5,13,LNA_EN*%
%TO.N,unconnected-(U5-LNA_EN-Pad13)*%
X141910000Y-76010000D03*
%TO.P,U5,14,VCC_RF*%
%TO.N,unconnected-(U5-VCC_RF-Pad14)*%
X141910000Y-74910000D03*
%TO.P,U5,15,VIO_SEL*%
%TO.N,unconnected-(U5-VIO_SEL-Pad15)*%
X141910000Y-73810000D03*
%TO.P,U5,16,SDA*%
%TO.N,unconnected-(U5-SDA-Pad16)*%
X141910000Y-72710000D03*
%TO.P,U5,17,SCL*%
%TO.N,unconnected-(U5-SCL-Pad17)*%
X141910000Y-71610000D03*
D30*
%TO.P,U5,18,~{SAFEBOOT}*%
%TO.N,unconnected-(U5-~{SAFEBOOT}-Pad18)*%
X141910000Y-70510000D03*
%TD*%
D13*
%TO.P,R3,1*%
%TO.N,VDDIO*%
X140365000Y-114300000D03*
%TO.P,R3,2*%
%TO.N,TEMP*%
X139725000Y-114300000D03*
%TD*%
%TO.P,R7,1*%
%TO.N,VDDIO*%
X141635000Y-95250000D03*
%TO.P,R7,2*%
%TO.N,SCL*%
X140995000Y-95250000D03*
%TD*%
D27*
%TO.P,C1,1*%
%TO.N,GND*%
X143510000Y-117320000D03*
%TO.P,C1,2*%
%TO.N,VDDIO*%
X143510000Y-116360000D03*
%TD*%
D21*
%TO.P,R12,2*%
%TO.N,SDA*%
X85755000Y-123190000D03*
%TO.P,R12,1*%
%TO.N,VDDIO*%
X85115000Y-123190000D03*
%TD*%
D32*
%TO.P,R14,1*%
%TO.N,VDDIO*%
X98715000Y-69530000D03*
%TO.P,R14,2*%
%TO.N,/RESET*%
X98715000Y-70170000D03*
%TD*%
D33*
%TO.N,GND*%
X111760000Y-69850000D03*
X133419880Y-90252536D03*
%TO.N,SCL*%
X139700000Y-95250000D03*
%TO.N,SDA*%
X139700000Y-91440000D03*
%TO.N,GND*%
X132080000Y-100330000D03*
%TO.N,SDA*%
X135890000Y-111655500D03*
%TO.N,SCL*%
X130810000Y-111760000D03*
%TO.N,GND*%
X130810000Y-113030000D03*
X134620000Y-113104500D03*
X143030000Y-118110000D03*
X99060000Y-125730000D03*
X99060000Y-115570000D03*
%TO.N,SDA*%
X106680000Y-90170000D03*
%TO.N,SCL*%
X104140000Y-90170000D03*
X88900000Y-120650000D03*
%TO.N,SDA*%
X88900000Y-123190000D03*
%TO.N,GND*%
X88900000Y-69850000D03*
X99060000Y-93060000D03*
X93980000Y-90520000D03*
X143510000Y-78740000D03*
X88900000Y-91790000D03*
X93980000Y-92164500D03*
X83820000Y-152400000D03*
%TD*%
D34*
%TO.N,GND*%
X107492500Y-84315000D02*
X107492500Y-79687500D01*
X107492500Y-79687500D02*
X111760000Y-75420000D01*
X99060000Y-124460000D02*
X99060000Y-125730000D01*
X95710000Y-121690000D02*
X94960000Y-121690000D01*
X94960000Y-121690000D02*
X94210000Y-122440000D01*
%TO.N,SCL*%
X139700000Y-95250000D02*
X140995000Y-95250000D01*
%TO.N,GND*%
X111760000Y-72370000D02*
X111760000Y-69850000D01*
X104452500Y-66555000D02*
X105452500Y-66555000D01*
X105452500Y-66555000D02*
X110997500Y-72100000D01*
X110997500Y-72100000D02*
X110997500Y-72370000D01*
%TO.N,/RESET*%
X104452500Y-69095000D02*
X103452500Y-69095000D01*
X103452500Y-69095000D02*
X102377500Y-70170000D01*
X102377500Y-70170000D02*
X98715000Y-70170000D01*
%TO.N,GND*%
X121952500Y-66555000D02*
X119100000Y-66555000D01*
X119100000Y-66555000D02*
X113285000Y-72370000D01*
X121952500Y-66555000D02*
X128455000Y-66555000D01*
X128455000Y-66555000D02*
X132410000Y-70510000D01*
X133337344Y-90170000D02*
X133419880Y-90252536D01*
X132795000Y-90170000D02*
X133337344Y-90170000D01*
X132795000Y-90670000D02*
X132795000Y-90170000D01*
X94210000Y-122440000D02*
X94960000Y-123190000D01*
X94960000Y-123190000D02*
X95710000Y-123190000D01*
X92710000Y-122190000D02*
X93960000Y-122190000D01*
X93960000Y-122190000D02*
X94210000Y-122440000D01*
%TO.N,IMU1*%
X132957500Y-89007500D02*
X132957500Y-85967500D01*
X132957500Y-85967500D02*
X130810000Y-83820000D01*
X130810000Y-83820000D02*
X125970000Y-83820000D01*
X125970000Y-83820000D02*
X122675000Y-80525000D01*
X122675000Y-80525000D02*
X121952500Y-80525000D01*
%TO.N,VDDIO*%
X144780000Y-134620000D02*
X145385000Y-134620000D01*
X145385000Y-134620000D02*
X146050000Y-133955000D01*
%TO.N,SDA*%
X139700000Y-91440000D02*
X140995000Y-91440000D01*
%TO.N,SCL*%
X134620000Y-90170000D02*
X135915000Y-90170000D01*
X135915000Y-90170000D02*
X140995000Y-95250000D01*
%TO.N,SDA*%
X134620000Y-89670000D02*
X134620000Y-89720000D01*
X134620000Y-89720000D02*
X139275000Y-89720000D01*
X139275000Y-89720000D02*
X140995000Y-91440000D01*
%TO.N,Net-(U2-SDO)*%
X134457500Y-89007500D02*
X138927500Y-89007500D01*
X138927500Y-89007500D02*
X140305000Y-87630000D01*
%TO.N,VDDIO*%
X146050000Y-87630000D02*
X140945000Y-87630000D01*
X146050000Y-95250000D02*
X141635000Y-95250000D01*
X135890000Y-92710000D02*
X135890000Y-91440000D01*
X135120000Y-90670000D02*
X134620000Y-90670000D01*
X132957500Y-94372500D02*
X134620000Y-92710000D01*
X134620000Y-92710000D02*
X135890000Y-92710000D01*
X135890000Y-91440000D02*
X135120000Y-90670000D01*
X132080000Y-95250000D02*
X132080000Y-89872500D01*
X132080000Y-89872500D02*
X132282500Y-89670000D01*
X132282500Y-89670000D02*
X132795000Y-89670000D01*
X132080000Y-96520000D02*
X132080000Y-92710000D01*
X132080000Y-95250000D02*
X132957500Y-94372500D01*
X132957500Y-94372500D02*
X132957500Y-91332500D01*
%TO.N,GND*%
X132080000Y-97790000D02*
X132080000Y-100330000D01*
X132080000Y-97480000D02*
X134310000Y-97480000D01*
X134310000Y-97480000D02*
X134620000Y-97790000D01*
X132080000Y-97480000D02*
X132080000Y-97790000D01*
%TO.N,VDDIO*%
X141635000Y-91440000D02*
X146050000Y-91440000D01*
X146050000Y-91440000D02*
X146050000Y-87630000D01*
X146050000Y-87630000D02*
X146050000Y-83820000D01*
X146050000Y-95250000D02*
X146050000Y-91440000D01*
X146050000Y-97790000D02*
X146050000Y-95250000D01*
X146050000Y-106680000D02*
X146050000Y-97790000D01*
X134620000Y-96830000D02*
X145090000Y-96830000D01*
X145090000Y-96830000D02*
X146050000Y-97790000D01*
X132080000Y-96520000D02*
X134310000Y-96520000D01*
X134310000Y-96520000D02*
X134620000Y-96830000D01*
%TO.N,SDA*%
X135890000Y-111655500D02*
X135890000Y-111760000D01*
X135890000Y-111760000D02*
X135860000Y-111730000D01*
X135860000Y-111730000D02*
X133855000Y-111730000D01*
%TO.N,SCL*%
X130810000Y-111760000D02*
X132050000Y-111760000D01*
X132050000Y-111760000D02*
X132080000Y-111730000D01*
%TO.N,TEMP*%
X127000000Y-110490000D02*
X127000000Y-86360000D01*
X130265000Y-113755000D02*
X127000000Y-110490000D01*
X131355000Y-113755000D02*
X130265000Y-113755000D01*
X132080000Y-113030000D02*
X131355000Y-113755000D01*
X127000000Y-86360000D02*
X123705000Y-83065000D01*
X123705000Y-83065000D02*
X121952500Y-83065000D01*
%TO.N,BAT*%
X85755000Y-118110000D02*
X118922500Y-84942500D01*
X118922500Y-84942500D02*
X118922500Y-84315000D01*
%TO.N,SDA*%
X133855000Y-111255000D02*
X134620000Y-110490000D01*
X133855000Y-111730000D02*
X133855000Y-111255000D01*
X134620000Y-110490000D02*
X139725000Y-110490000D01*
%TO.N,SCL*%
X132080000Y-111730000D02*
X132080000Y-111317500D01*
X136717500Y-106680000D02*
X139725000Y-106680000D01*
X132080000Y-111317500D02*
X136717500Y-106680000D01*
%TO.N,GND*%
X131460000Y-112380000D02*
X130810000Y-113030000D01*
X132080000Y-112380000D02*
X131460000Y-112380000D01*
%TO.N,TEMP*%
X139725000Y-114300000D02*
X132937500Y-114300000D01*
X132937500Y-114300000D02*
X132080000Y-113442500D01*
X132080000Y-113442500D02*
X132080000Y-113030000D01*
%TO.N,GND*%
X134545500Y-113030000D02*
X134620000Y-113104500D01*
X133855000Y-113030000D02*
X134545500Y-113030000D01*
%TO.N,VDDIO*%
X146050000Y-114300000D02*
X146050000Y-113030000D01*
X133855000Y-112380000D02*
X145400000Y-112380000D01*
X146050000Y-113030000D02*
X146050000Y-110490000D01*
X145400000Y-112380000D02*
X146050000Y-113030000D01*
X143510000Y-114300000D02*
X146050000Y-114300000D01*
X140365000Y-114300000D02*
X143510000Y-114300000D01*
X143510000Y-114300000D02*
X143510000Y-116360000D01*
%TO.N,GND*%
X143510000Y-117630000D02*
X143030000Y-118110000D01*
X143510000Y-117320000D02*
X143510000Y-117630000D01*
%TO.N,VDDIO*%
X146050000Y-133955000D02*
X146050000Y-114300000D01*
X146050000Y-110490000D02*
X146050000Y-106680000D01*
X140365000Y-110490000D02*
X146050000Y-110490000D01*
X140365000Y-106680000D02*
X146050000Y-106680000D01*
%TO.N,Net-(IC1-CELL)*%
X99585000Y-122690000D02*
X99060000Y-122690000D01*
X99060000Y-122690000D02*
X95710000Y-122690000D01*
X99060000Y-123500000D02*
X99060000Y-122690000D01*
%TO.N,VDDIO*%
X81280000Y-123190000D02*
X81280000Y-127000000D01*
X81280000Y-127000000D02*
X81280000Y-135890000D01*
X99060000Y-127000000D02*
X81280000Y-127000000D01*
%TO.N,GND*%
X99060000Y-117150000D02*
X99060000Y-115570000D01*
%TO.N,Net-(IC1-VDD)*%
X99060000Y-118110000D02*
X99060000Y-119355000D01*
X99060000Y-119355000D02*
X100355000Y-120650000D01*
%TO.N,Net-(IC1-CELL)*%
X100355000Y-121920000D02*
X99585000Y-122690000D01*
%TO.N,Net-(IC1-VDD)*%
X100355000Y-120650000D02*
X98815000Y-122190000D01*
X98815000Y-122190000D02*
X95710000Y-122190000D01*
%TO.N,VDDIO*%
X100995000Y-120650000D02*
X100995000Y-121920000D01*
X100995000Y-121920000D02*
X100995000Y-125065000D01*
X100995000Y-125065000D02*
X99060000Y-127000000D01*
%TO.N,BAT*%
X85755000Y-118110000D02*
X87630000Y-118110000D01*
X87630000Y-118110000D02*
X91210000Y-121690000D01*
X91210000Y-121690000D02*
X92710000Y-121690000D01*
%TO.N,SDA*%
X88900000Y-123190000D02*
X92710000Y-123190000D01*
X85755000Y-123190000D02*
X88900000Y-123190000D01*
%TO.N,SCL*%
X88900000Y-120650000D02*
X90940000Y-122690000D01*
X90940000Y-122690000D02*
X92710000Y-122690000D01*
X85755000Y-120650000D02*
X88900000Y-120650000D01*
%TO.N,SDA*%
X106680000Y-88900000D02*
X106680000Y-90170000D01*
X106680000Y-77470000D02*
X106680000Y-88900000D01*
%TO.N,SCL*%
X106230000Y-88080000D02*
X104140000Y-90170000D01*
X106230000Y-74952500D02*
X106230000Y-88080000D01*
X105452500Y-74175000D02*
X106230000Y-74952500D01*
X104452500Y-74175000D02*
X105452500Y-74175000D01*
%TO.N,VDDIO*%
X81280000Y-96520000D02*
X81280000Y-118110000D01*
X81280000Y-118110000D02*
X81280000Y-120650000D01*
X85115000Y-118110000D02*
X81280000Y-118110000D01*
X81280000Y-120650000D02*
X81280000Y-123190000D01*
X85115000Y-123190000D02*
X81280000Y-123190000D01*
X85115000Y-120650000D02*
X81280000Y-120650000D01*
X85090000Y-139700000D02*
X90150000Y-139700000D01*
X134430000Y-76010000D02*
X139700000Y-81280000D01*
X85695000Y-90170000D02*
X81280000Y-90170000D01*
X139700000Y-83820000D02*
X146050000Y-83820000D01*
X98455000Y-91125000D02*
X97790000Y-91790000D01*
X85845000Y-67825000D02*
X81280000Y-72390000D01*
X98815305Y-91790000D02*
X100330000Y-93304695D01*
X81280000Y-92710000D02*
X81280000Y-96520000D01*
X139700000Y-81280000D02*
X146050000Y-81280000D01*
X85845000Y-67825000D02*
X104452500Y-67825000D01*
X97790000Y-91790000D02*
X98815305Y-91790000D01*
X134090000Y-78210000D02*
X139700000Y-83820000D01*
X97790000Y-91790000D02*
X95250000Y-91790000D01*
X146050000Y-82550000D02*
X146050000Y-81280000D01*
X81280000Y-88900000D02*
X81280000Y-90170000D01*
X100330000Y-93304695D02*
X100330000Y-95250000D01*
X98715000Y-69530000D02*
X98715000Y-67825000D01*
X81280000Y-87630000D02*
X81280000Y-88900000D01*
X134260000Y-77110000D02*
X139700000Y-82550000D01*
X132410000Y-76010000D02*
X134430000Y-76010000D01*
X139700000Y-139700000D02*
X144780000Y-134620000D01*
X146050000Y-83820000D02*
X146050000Y-82550000D01*
X81280000Y-135890000D02*
X85090000Y-139700000D01*
X99060000Y-96520000D02*
X81280000Y-96520000D01*
X100330000Y-95250000D02*
X99060000Y-96520000D01*
X132410000Y-78210000D02*
X134090000Y-78210000D01*
X98455000Y-87630000D02*
X98455000Y-91125000D01*
X90150000Y-139700000D02*
X139700000Y-139700000D01*
X132410000Y-77110000D02*
X134260000Y-77110000D01*
X94900000Y-91440000D02*
X95250000Y-91790000D01*
X81280000Y-90170000D02*
X81280000Y-92710000D01*
X139700000Y-82550000D02*
X146050000Y-82550000D01*
X92640000Y-91440000D02*
X94900000Y-91440000D01*
X81280000Y-72390000D02*
X81280000Y-87630000D01*
%TO.N,GND*%
X88190000Y-70560000D02*
X88900000Y-69850000D01*
X89250000Y-91440000D02*
X88900000Y-91790000D01*
X97790000Y-92750000D02*
X98750000Y-92750000D01*
X97500000Y-72680000D02*
X97790000Y-72390000D01*
X88190000Y-72680000D02*
X94690000Y-72680000D01*
X141910000Y-77140000D02*
X142240000Y-77470000D01*
X94960000Y-93040000D02*
X95250000Y-92750000D01*
X141910000Y-79310000D02*
X142940000Y-79310000D01*
X90240000Y-91440000D02*
X89250000Y-91440000D01*
X142810000Y-77110000D02*
X143510000Y-77810000D01*
X95250000Y-92750000D02*
X97790000Y-92750000D01*
X141910000Y-77110000D02*
X141910000Y-77140000D01*
X142940000Y-79310000D02*
X143510000Y-78740000D01*
X94690000Y-72680000D02*
X97500000Y-72680000D01*
X92640000Y-93040000D02*
X94960000Y-93040000D01*
X88190000Y-72680000D02*
X88190000Y-70560000D01*
X90150000Y-152400000D02*
X83820000Y-152400000D01*
X92640000Y-90640000D02*
X93860000Y-90640000D01*
X98750000Y-92750000D02*
X99060000Y-93060000D01*
X92640000Y-92240000D02*
X93904500Y-92240000D01*
X141910000Y-77110000D02*
X142810000Y-77110000D01*
X93860000Y-90640000D02*
X93980000Y-90520000D01*
X143510000Y-77810000D02*
X143510000Y-78740000D01*
X93904500Y-92240000D02*
X93980000Y-92164500D01*
%TO.N,/RESET*%
X96810000Y-77180000D02*
X98750000Y-75239999D01*
X98750000Y-74620001D02*
X98750000Y-74930000D01*
X94690000Y-77180000D02*
X96810000Y-77180000D01*
X98750000Y-75239999D02*
X98750000Y-74930000D01*
X98715000Y-74895000D02*
X98750000Y-74930000D01*
X88190000Y-77180000D02*
X94690000Y-77180000D01*
X98715000Y-70170000D02*
X98715000Y-74895000D01*
%TO.N,SCL*%
X90240000Y-89840000D02*
X90614999Y-89840000D01*
X90240000Y-89840000D02*
X90500000Y-89840000D01*
X100330000Y-80010000D02*
X100330000Y-77297500D01*
X97815000Y-87630000D02*
X97815000Y-82525000D01*
X103452500Y-74175000D02*
X104452500Y-74175000D01*
X100330000Y-77297500D02*
X103452500Y-74175000D01*
X90614999Y-89840000D02*
X92824999Y-87630000D01*
X97815000Y-82525000D02*
X100330000Y-80010000D01*
X92824999Y-87630000D02*
X97790000Y-87630000D01*
%TO.N,SDA*%
X105452500Y-72905000D02*
X106680000Y-74132500D01*
X92710000Y-81280000D02*
X96520000Y-81280000D01*
X104452500Y-72905000D02*
X105452500Y-72905000D01*
X97790000Y-80010000D02*
X97790000Y-77997500D01*
X96520000Y-81280000D02*
X97790000Y-80010000D01*
X102882500Y-72905000D02*
X104452500Y-72905000D01*
X86335000Y-90170000D02*
X86805000Y-90640000D01*
X86805000Y-90640000D02*
X90240000Y-90640000D01*
X86335000Y-90170000D02*
X86335000Y-87655000D01*
X86335000Y-87655000D02*
X92710000Y-81280000D01*
X106680000Y-74132500D02*
X106680000Y-77470000D01*
X97790000Y-77997500D02*
X102882500Y-72905000D01*
%TO.N,GPSTX*%
X126485000Y-72905000D02*
X121952500Y-72905000D01*
X127780000Y-71610000D02*
X126485000Y-72905000D01*
X132410000Y-71610000D02*
X127780000Y-71610000D01*
%TO.N,GPSRX*%
X126485000Y-75445000D02*
X121952500Y-75445000D01*
X129220000Y-72710000D02*
X126485000Y-75445000D01*
X132410000Y-72710000D02*
X129220000Y-72710000D01*
%TO.N,unconnected-(U1-IO27-Pad12)*%
X104377500Y-80600000D02*
X104452500Y-80525000D01*
%TD*%
M02*
