%TF.GenerationSoftware,KiCad,Pcbnew,7.0.9*%
%TF.CreationDate,2023-12-04T17:48:11-03:00*%
%TF.ProjectId,aussistente,61757373-6973-4746-956e-74652e6b6963,1*%
%TF.SameCoordinates,Original*%
%TF.FileFunction,Copper,L3,Inr*%
%TF.FilePolarity,Positive*%
%FSLAX46Y46*%
G04 Gerber Fmt 4.6, Leading zero omitted, Abs format (unit mm)*
G04 Created by KiCad (PCBNEW 7.0.9) date 2023-12-04 17:48:11*
%MOMM*%
%LPD*%
G01*
G04 APERTURE LIST*
%TA.AperFunction,ComponentPad*%
%ADD10C,2.000000*%
%TD*%
%TA.AperFunction,ComponentPad*%
%ADD11R,3.000000X3.000000*%
%TD*%
%TA.AperFunction,ComponentPad*%
%ADD12C,3.000000*%
%TD*%
%TA.AperFunction,HeatsinkPad*%
%ADD13C,0.600000*%
%TD*%
%TA.AperFunction,ViaPad*%
%ADD14C,0.800000*%
%TD*%
G04 APERTURE END LIST*
D10*
%TO.N,GND*%
%TO.C,SW1*%
X88190000Y-72680000D03*
X94690000Y-72680000D03*
%TO.N,/RESET*%
X88190000Y-77180000D03*
X94690000Y-77180000D03*
%TD*%
D11*
%TO.N,VDDIO*%
%TO.C,BT1*%
X90150000Y-139700000D03*
D12*
%TO.N,GND*%
X90150000Y-152400000D03*
%TD*%
D13*
%TO.N,GND*%
%TO.C,U1*%
X110997500Y-73132500D03*
X110997500Y-74657500D03*
X111760000Y-72370000D03*
X111760000Y-73895000D03*
X111760000Y-75420000D03*
X112522500Y-73132500D03*
X112522500Y-74657500D03*
X113285000Y-72370000D03*
X113285000Y-73895000D03*
X113285000Y-75420000D03*
X114047500Y-73132500D03*
X114047500Y-74657500D03*
%TD*%
D14*
%TO.N,GND*%
X111760000Y-69850000D03*
X133419880Y-90252536D03*
%TO.N,SCL*%
X139700000Y-95250000D03*
%TO.N,SDA*%
X139700000Y-91440000D03*
%TO.N,GND*%
X132080000Y-100330000D03*
%TO.N,SDA*%
X135890000Y-111655500D03*
%TO.N,SCL*%
X130810000Y-111760000D03*
%TO.N,GND*%
X130810000Y-113030000D03*
X134620000Y-113104500D03*
X143030000Y-118110000D03*
X99060000Y-125730000D03*
X99060000Y-115570000D03*
%TO.N,SDA*%
X106680000Y-90170000D03*
%TO.N,SCL*%
X104140000Y-90170000D03*
X88900000Y-120650000D03*
%TO.N,SDA*%
X88900000Y-123190000D03*
%TO.N,GND*%
X88900000Y-69850000D03*
X99060000Y-93060000D03*
X93980000Y-90520000D03*
X143510000Y-78740000D03*
X88900000Y-91790000D03*
X93980000Y-92164500D03*
X83820000Y-152400000D03*
%TD*%
M02*
