%TF.GenerationSoftware,KiCad,Pcbnew,7.0.9*%
%TF.CreationDate,2023-12-04T17:48:11-03:00*%
%TF.ProjectId,aussistente,61757373-6973-4746-956e-74652e6b6963,1*%
%TF.SameCoordinates,Original*%
%TF.FileFunction,Paste,Top*%
%TF.FilePolarity,Positive*%
%FSLAX46Y46*%
G04 Gerber Fmt 4.6, Leading zero omitted, Abs format (unit mm)*
G04 Created by KiCad (PCBNEW 7.0.9) date 2023-12-04 17:48:11*
%MOMM*%
%LPD*%
G01*
G04 APERTURE LIST*
G04 Aperture macros list*
%AMRoundRect*
0 Rectangle with rounded corners*
0 $1 Rounding radius*
0 $2 $3 $4 $5 $6 $7 $8 $9 X,Y pos of 4 corners*
0 Add a 4 corners polygon primitive as box body*
4,1,4,$2,$3,$4,$5,$6,$7,$8,$9,$2,$3,0*
0 Add four circle primitives for the rounded corners*
1,1,$1+$1,$2,$3*
1,1,$1+$1,$4,$5*
1,1,$1+$1,$6,$7*
1,1,$1+$1,$8,$9*
0 Add four rect primitives between the rounded corners*
20,1,$1+$1,$2,$3,$4,$5,0*
20,1,$1+$1,$4,$5,$6,$7,0*
20,1,$1+$1,$6,$7,$8,$9,0*
20,1,$1+$1,$8,$9,$2,$3,0*%
G04 Aperture macros list end*
%ADD10RoundRect,0.079500X0.079500X0.100500X-0.079500X0.100500X-0.079500X-0.100500X0.079500X-0.100500X0*%
%ADD11RoundRect,0.160000X-0.245000X-0.160000X0.245000X-0.160000X0.245000X0.160000X-0.245000X0.160000X0*%
%ADD12RoundRect,0.093750X-0.093750X-0.106250X0.093750X-0.106250X0.093750X0.106250X-0.093750X0.106250X0*%
%ADD13R,1.500000X0.900000*%
%ADD14R,0.900000X1.500000*%
%ADD15R,1.050000X1.050000*%
%ADD16RoundRect,0.079500X-0.079500X-0.100500X0.079500X-0.100500X0.079500X0.100500X-0.079500X0.100500X0*%
%ADD17RoundRect,0.087500X-0.287500X-0.087500X0.287500X-0.087500X0.287500X0.087500X-0.287500X0.087500X0*%
%ADD18RoundRect,0.140000X-0.170000X0.140000X-0.170000X-0.140000X0.170000X-0.140000X0.170000X0.140000X0*%
%ADD19RoundRect,0.140000X0.140000X0.170000X-0.140000X0.170000X-0.140000X-0.170000X0.140000X-0.170000X0*%
%ADD20R,0.250000X0.475000*%
%ADD21R,0.475000X0.250000*%
%ADD22RoundRect,0.140000X0.170000X-0.140000X0.170000X0.140000X-0.170000X0.140000X-0.170000X-0.140000X0*%
%ADD23R,1.900000X1.750000*%
%ADD24R,0.750000X0.300000*%
%ADD25RoundRect,0.175000X-0.725000X-0.175000X0.725000X-0.175000X0.725000X0.175000X-0.725000X0.175000X0*%
%ADD26RoundRect,0.200000X-0.700000X-0.200000X0.700000X-0.200000X0.700000X0.200000X-0.700000X0.200000X0*%
%ADD27RoundRect,0.079500X-0.100500X0.079500X-0.100500X-0.079500X0.100500X-0.079500X0.100500X0.079500X0*%
G04 APERTURE END LIST*
D10*
%TO.C,R2*%
X140390000Y-110490000D03*
X139700000Y-110490000D03*
%TD*%
D11*
%TO.C,U3*%
X132967500Y-111980000D03*
X132967500Y-112780000D03*
D12*
X132080000Y-111730000D03*
X132080000Y-112380000D03*
X132080000Y-113030000D03*
X133855000Y-113030000D03*
X133855000Y-112380000D03*
X133855000Y-111730000D03*
%TD*%
D10*
%TO.C,R9*%
X101020000Y-120650000D03*
X100330000Y-120650000D03*
%TD*%
D13*
%TO.C,U1*%
X104452500Y-66555000D03*
X104452500Y-67825000D03*
X104452500Y-69095000D03*
X104452500Y-70365000D03*
X104452500Y-71635000D03*
X104452500Y-72905000D03*
X104452500Y-74175000D03*
X104452500Y-75445000D03*
X104452500Y-76715000D03*
X104452500Y-77985000D03*
X104452500Y-79255000D03*
X104452500Y-80525000D03*
X104452500Y-81795000D03*
X104452500Y-83065000D03*
D14*
X107492500Y-84315000D03*
X108762500Y-84315000D03*
X110032500Y-84315000D03*
X111302500Y-84315000D03*
X112572500Y-84315000D03*
X113842500Y-84315000D03*
X115112500Y-84315000D03*
X116382500Y-84315000D03*
X117652500Y-84315000D03*
X118922500Y-84315000D03*
D13*
X121952500Y-83065000D03*
X121952500Y-81795000D03*
X121952500Y-80525000D03*
X121952500Y-79255000D03*
X121952500Y-77985000D03*
X121952500Y-76715000D03*
X121952500Y-75445000D03*
X121952500Y-74175000D03*
X121952500Y-72905000D03*
X121952500Y-71635000D03*
X121952500Y-70365000D03*
X121952500Y-69095000D03*
X121952500Y-67825000D03*
X121952500Y-66555000D03*
D15*
X110997500Y-72370000D03*
X110997500Y-73895000D03*
X110997500Y-75420000D03*
X112522500Y-72370000D03*
X112522500Y-73895000D03*
X112522500Y-75420000D03*
X114047500Y-72370000D03*
X114047500Y-73895000D03*
X114047500Y-75420000D03*
%TD*%
D10*
%TO.C,R8*%
X141660000Y-91440000D03*
X140970000Y-91440000D03*
%TD*%
D16*
%TO.C,R13*%
X85780000Y-120650000D03*
X85090000Y-120650000D03*
%TD*%
D17*
%TO.C,U4*%
X90240000Y-89040000D03*
X90240000Y-89840000D03*
X90240000Y-90640000D03*
X90240000Y-91440000D03*
X90240000Y-92240000D03*
X90240000Y-93040000D03*
X90240000Y-93840000D03*
X92640000Y-93840000D03*
X92640000Y-93040000D03*
X92640000Y-92240000D03*
X92640000Y-91440000D03*
X92640000Y-90640000D03*
X92640000Y-89840000D03*
X92640000Y-89040000D03*
%TD*%
D18*
%TO.C,C7*%
X99060000Y-123500000D03*
X99060000Y-124460000D03*
%TD*%
%TO.C,C3*%
X97790000Y-91790000D03*
X97790000Y-92750000D03*
%TD*%
%TO.C,C5*%
X132080000Y-96520000D03*
X132080000Y-97480000D03*
%TD*%
%TO.C,C4*%
X134620000Y-96830000D03*
X134620000Y-97790000D03*
%TD*%
D10*
%TO.C,R15*%
X140970000Y-87630000D03*
X140280000Y-87630000D03*
%TD*%
D16*
%TO.C,R11*%
X85780000Y-118110000D03*
X85090000Y-118110000D03*
%TD*%
D19*
%TO.C,C8*%
X98750000Y-72390000D03*
X97790000Y-72390000D03*
%TD*%
D20*
%TO.C,U2*%
X134457500Y-89007500D03*
X133957500Y-89007500D03*
X133457500Y-89007500D03*
X132957500Y-89007500D03*
D21*
X132795000Y-89670000D03*
X132795000Y-90170000D03*
X132795000Y-90670000D03*
D20*
X132957500Y-91332500D03*
X133457500Y-91332500D03*
X133957500Y-91332500D03*
X134457500Y-91332500D03*
D21*
X134620000Y-90670000D03*
X134620000Y-90170000D03*
X134620000Y-89670000D03*
%TD*%
D18*
%TO.C,C2*%
X95250000Y-91790000D03*
X95250000Y-92750000D03*
%TD*%
D10*
%TO.C,R1*%
X140390000Y-106680000D03*
X139700000Y-106680000D03*
%TD*%
D22*
%TO.C,C6*%
X99060000Y-118110000D03*
X99060000Y-117150000D03*
%TD*%
D10*
%TO.C,R4*%
X98480000Y-87630000D03*
X97790000Y-87630000D03*
%TD*%
D16*
%TO.C,R5*%
X85670000Y-90170000D03*
X86360000Y-90170000D03*
%TD*%
D10*
%TO.C,R10*%
X101020000Y-121920000D03*
X100330000Y-121920000D03*
%TD*%
D23*
%TO.C,IC1*%
X94210000Y-122440000D03*
D24*
X92710000Y-123190000D03*
X92710000Y-122690000D03*
X92710000Y-122190000D03*
X92710000Y-121690000D03*
X95710000Y-121690000D03*
X95710000Y-122190000D03*
X95710000Y-122690000D03*
X95710000Y-123190000D03*
%TD*%
D25*
%TO.C,U5*%
X132410000Y-70510000D03*
D26*
X132410000Y-71610000D03*
X132410000Y-72710000D03*
X132410000Y-73810000D03*
X132410000Y-74910000D03*
X132410000Y-76010000D03*
X132410000Y-77110000D03*
X132410000Y-78210000D03*
D25*
X132410000Y-79310000D03*
X141910000Y-79310000D03*
D26*
X141910000Y-78210000D03*
X141910000Y-77110000D03*
X141910000Y-76010000D03*
X141910000Y-74910000D03*
X141910000Y-73810000D03*
X141910000Y-72710000D03*
X141910000Y-71610000D03*
D25*
X141910000Y-70510000D03*
%TD*%
D10*
%TO.C,R3*%
X140390000Y-114300000D03*
X139700000Y-114300000D03*
%TD*%
%TO.C,R7*%
X141660000Y-95250000D03*
X140970000Y-95250000D03*
%TD*%
D22*
%TO.C,C1*%
X143510000Y-117320000D03*
X143510000Y-116360000D03*
%TD*%
D16*
%TO.C,R12*%
X85780000Y-123190000D03*
X85090000Y-123190000D03*
%TD*%
D27*
%TO.C,R14*%
X98715000Y-69505000D03*
X98715000Y-70195000D03*
%TD*%
M02*
