M48
METRIC,LZ,000.000
;FILE_FORMAT=3:3
;TYPE=PLATED
;Layer: PTH_Through
;EasyEDA v6.5.37, 2023-12-04 20:02:08
;2e98f3c38e0144009ebeba7f84222000,10
;Gerber Generator version 0.2
;Holesize 1 = 0.305 mm
T01C0.305
;Holesize 2 = 0.458 mm
T02C0.458
;Holesize 3 = 0.501 mm
T03C0.501
;Holesize 4 = 0.508 mm
T04C0.508
;Holesize 5 = 0.701 mm
T05C0.701
;Holesize 6 = 0.813 mm
T06C0.813
;Holesize 7 = 0.901 mm
T07C0.901
;Holesize 8 = 0.915 mm
T08C0.915
;Holesize 9 = 1.000 mm
T09C1.000
;Holesize 10 = 1.199 mm
T10C1.199
;Holesize 11 = 1.200 mm
T11C1.200
;Holesize 12 = 1.701 mm
T12C1.701
;Holesize 13 = 2.000 mm
T13C2.000
%
G05
G90
T01
X146300Y-014304
X111180Y-046058
X177557Y-006552
X168603Y-007162
X186548Y-008629
X186887Y004215
X164779Y004215
X158012Y010274
X109254Y-047371
X174223Y016309
X191216Y022264
X141659Y022264
X121467Y008942
X114089Y021414
X154479Y-000841
T02
X125603Y-025273
X128143Y-025273
X130683Y-025273
X133223Y-025273
X130683Y-017653
X128143Y-017653
X125603Y-017653
X133223Y-017653
T03
X103493Y-024257
X100953Y-021717
X103493Y-019177
X106033Y-021717
X116193Y-024257
X113653Y-021717
X116193Y-019177
X118733Y-021717
T04
X190833Y-036703
X190833Y-033782
X198453Y-036703
X198453Y-033782
T05
X130913Y-035481
X140913Y-035481
X146153Y-035481
X156153Y-035481
T06
X168783Y019430
X171323Y019430
X173863Y019430
X176403Y019430
X178943Y019430
X181483Y019430
X184023Y019430
X186563Y019430
X189103Y019430
X189103Y011810
X186563Y011810
X184023Y011810
X181483Y011810
X178943Y011810
X176403Y011810
X173863Y011810
X171323Y011810
X168783Y011810
X087503Y-025527
X090043Y-025527
X090043Y-017907
X087503Y-017907
X092583Y-025527
X095123Y-025527
X092583Y-017907
X095123Y-017907
T07
X209677Y-009525
X213741Y-009525
X217297Y-009525
T08
X056213Y-020193
X066713Y-020193
X073713Y-020193
X080713Y-020193
X188209Y068995
X185669Y068995
X183129Y068995
X180589Y068995
X178049Y068995
X175509Y068995
X172969Y068995
X170429Y068995
X167889Y068995
X165349Y068995
X162809Y068995
X160269Y068995
X157729Y068995
X155189Y068995
X152649Y068995
X150109Y068995
X160960Y-033655
X168580Y-033655
X168580Y-038735
X160960Y-038735
X107973Y036195
X107973Y061195
X133073Y056195
X132973Y041195
X122606Y015113
X122606Y012573
X122606Y010033
X122606Y007493
X122606Y004953
X122606Y002413
X122606Y-000127
X130861Y015113
X130861Y012573
X130861Y010033
X130861Y007493
X130861Y004953
X130861Y002413
X130861Y-000127
X219583Y015367
X219583Y019685
T09
X054815Y015875
X054815Y-007239
X217632Y-020320
X215133Y-020320
X176992Y-035560
X174493Y-035560
X184612Y-035560
X182113Y-035560
X142977Y027305
X150596Y027305
X155677Y027305
X163296Y027305
X168377Y027305
X175996Y027305
X197613Y014097
X200153Y016637
X195073Y016637
X210313Y014097
X212853Y016637
X207773Y016637
X164211Y016891G85X164211Y016891
X164211Y014351G85X164211Y014351
X164211Y011811G85X164211Y011811
T10
X168504Y-009271
X183744Y-009271
X188824Y-009271
X204064Y-009271
X204064Y-034671
X219304Y-034671
X054204Y-047371
X069444Y-047371
T11
X122895Y-009017
X140675Y-009017
X145755Y-009017
X163535Y-009017
X138808Y016891G85X138814Y016891
X138808Y011811G85X138814Y011811
T12
X063711Y052614
X083711Y052614
X073690Y037625
T13
X055014Y-035941
X075014Y-035941
X080414Y-035941
X100414Y-035941
X105814Y-035941
X125814Y-035941
X138834Y-020701
X158834Y-020701
X164234Y-020701
X184234Y-020701
X189634Y-020701
X209634Y-020701
M30
