G04 Layer: TopSilkscreenLayer*
G04 EasyEDA v6.5.37, 2023-12-04 20:02:08*
G04 2e98f3c38e0144009ebeba7f84222000,10*
G04 Gerber Generator version 0.2*
G04 Scale: 100 percent, Rotated: No, Reflected: No *
G04 Dimensions in millimeters *
G04 leading zeros omitted , absolute positions ,4 integer and 5 decimal *
%FSLAX45Y45*%
%MOMM*%

%ADD10C,0.1524*%
%ADD11C,0.2032*%
%ADD12C,0.4064*%
%ADD13C,0.2540*%
%ADD14C,0.2286*%
%ADD15C,0.1270*%
%ADD16C,0.1016*%
%ADD17C,0.0135*%

%LPD*%
D10*
X8656459Y2236215D02*
G01*
X8656459Y2127250D01*
X8656459Y2236215D02*
G01*
X8703195Y2236215D01*
X8718689Y2231136D01*
X8724023Y2225802D01*
X8729103Y2215387D01*
X8729103Y2204973D01*
X8724023Y2194560D01*
X8718689Y2189479D01*
X8703195Y2184400D01*
X8656459Y2184400D02*
G01*
X8703195Y2184400D01*
X8718689Y2179065D01*
X8724023Y2173986D01*
X8729103Y2163571D01*
X8729103Y2147823D01*
X8724023Y2137410D01*
X8718689Y2132329D01*
X8703195Y2127250D01*
X8656459Y2127250D01*
X8805049Y2236215D02*
G01*
X8763393Y2127250D01*
X8805049Y2236215D02*
G01*
X8846705Y2127250D01*
X8779141Y2163571D02*
G01*
X8830957Y2163571D01*
X8917317Y2236215D02*
G01*
X8917317Y2127250D01*
X8880995Y2236215D02*
G01*
X8953639Y2236215D01*
X8987929Y2215387D02*
G01*
X8998343Y2220721D01*
X9013837Y2236215D01*
X9013837Y2127250D01*
X13652677Y-3123692D02*
G01*
X13647343Y-3113278D01*
X13636929Y-3102863D01*
X13626769Y-3097784D01*
X13605941Y-3097784D01*
X13595527Y-3102863D01*
X13585113Y-3113278D01*
X13579779Y-3123692D01*
X13574699Y-3139439D01*
X13574699Y-3165347D01*
X13579779Y-3180842D01*
X13585113Y-3191255D01*
X13595527Y-3201670D01*
X13605941Y-3206750D01*
X13626769Y-3206750D01*
X13636929Y-3201670D01*
X13647343Y-3191255D01*
X13652677Y-3180842D01*
X13697381Y-3097784D02*
G01*
X13754531Y-3097784D01*
X13723289Y-3139439D01*
X13738783Y-3139439D01*
X13749197Y-3144520D01*
X13754531Y-3149600D01*
X13759611Y-3165347D01*
X13759611Y-3175762D01*
X13754531Y-3191255D01*
X13744117Y-3201670D01*
X13728369Y-3206750D01*
X13712875Y-3206750D01*
X13697381Y-3201670D01*
X13692047Y-3196589D01*
X13686967Y-3186176D01*
D11*
X13441311Y-3442970D02*
G01*
X13441311Y-3637026D01*
X13441311Y-3442970D02*
G01*
X13524369Y-3442970D01*
X13552055Y-3452368D01*
X13561453Y-3461512D01*
X13570597Y-3480054D01*
X13570597Y-3507739D01*
X13561453Y-3526281D01*
X13552055Y-3535426D01*
X13524369Y-3544570D01*
X13441311Y-3544570D01*
X13631557Y-3442970D02*
G01*
X13631557Y-3637026D01*
X13631557Y-3442970D02*
G01*
X13751699Y-3442970D01*
X13631557Y-3535426D02*
G01*
X13705471Y-3535426D01*
D10*
X15176677Y-3123692D02*
G01*
X15171343Y-3113278D01*
X15160929Y-3102863D01*
X15150769Y-3097784D01*
X15129941Y-3097784D01*
X15119527Y-3102863D01*
X15109113Y-3113278D01*
X15103779Y-3123692D01*
X15098699Y-3139439D01*
X15098699Y-3165347D01*
X15103779Y-3180842D01*
X15109113Y-3191255D01*
X15119527Y-3201670D01*
X15129941Y-3206750D01*
X15150769Y-3206750D01*
X15160929Y-3201670D01*
X15171343Y-3191255D01*
X15176677Y-3180842D01*
X15262783Y-3097784D02*
G01*
X15210967Y-3170428D01*
X15288945Y-3170428D01*
X15262783Y-3097784D02*
G01*
X15262783Y-3206750D01*
D11*
X14965311Y-3442970D02*
G01*
X14965311Y-3637026D01*
X14965311Y-3442970D02*
G01*
X15048369Y-3442970D01*
X15076055Y-3452368D01*
X15085453Y-3461512D01*
X15094597Y-3480054D01*
X15094597Y-3507739D01*
X15085453Y-3526281D01*
X15076055Y-3535426D01*
X15048369Y-3544570D01*
X14965311Y-3544570D01*
X15155557Y-3442970D02*
G01*
X15155557Y-3637026D01*
X15155557Y-3442970D02*
G01*
X15275699Y-3442970D01*
X15155557Y-3535426D02*
G01*
X15229471Y-3535426D01*
D10*
X21714200Y-1599692D02*
G01*
X21708866Y-1589278D01*
X21698452Y-1578863D01*
X21688292Y-1573784D01*
X21667464Y-1573784D01*
X21657050Y-1578863D01*
X21646636Y-1589278D01*
X21641302Y-1599692D01*
X21636222Y-1615439D01*
X21636222Y-1641347D01*
X21641302Y-1656842D01*
X21646636Y-1667255D01*
X21657050Y-1677670D01*
X21667464Y-1682750D01*
X21688292Y-1682750D01*
X21698452Y-1677670D01*
X21708866Y-1667255D01*
X21714200Y-1656842D01*
X21810720Y-1573784D02*
G01*
X21758904Y-1573784D01*
X21753570Y-1620520D01*
X21758904Y-1615439D01*
X21774398Y-1610105D01*
X21789892Y-1610105D01*
X21805640Y-1615439D01*
X21816054Y-1625600D01*
X21821134Y-1641347D01*
X21821134Y-1651762D01*
X21816054Y-1667255D01*
X21805640Y-1677670D01*
X21789892Y-1682750D01*
X21774398Y-1682750D01*
X21758904Y-1677670D01*
X21753570Y-1672589D01*
X21748490Y-1662176D01*
X17650200Y-3123692D02*
G01*
X17644866Y-3113278D01*
X17634452Y-3102863D01*
X17624292Y-3097784D01*
X17603464Y-3097784D01*
X17593050Y-3102863D01*
X17582636Y-3113278D01*
X17577302Y-3123692D01*
X17572222Y-3139439D01*
X17572222Y-3165347D01*
X17577302Y-3180842D01*
X17582636Y-3191255D01*
X17593050Y-3201670D01*
X17603464Y-3206750D01*
X17624292Y-3206750D01*
X17634452Y-3201670D01*
X17644866Y-3191255D01*
X17650200Y-3180842D01*
X17746720Y-3113278D02*
G01*
X17741640Y-3102863D01*
X17725892Y-3097784D01*
X17715732Y-3097784D01*
X17699984Y-3102863D01*
X17689570Y-3118612D01*
X17684490Y-3144520D01*
X17684490Y-3170428D01*
X17689570Y-3191255D01*
X17699984Y-3201670D01*
X17715732Y-3206750D01*
X17720812Y-3206750D01*
X17736306Y-3201670D01*
X17746720Y-3191255D01*
X17752054Y-3175762D01*
X17752054Y-3170428D01*
X17746720Y-3154934D01*
X17736306Y-3144520D01*
X17720812Y-3139439D01*
X17715732Y-3139439D01*
X17699984Y-3144520D01*
X17689570Y-3154934D01*
X17684490Y-3170428D01*
X18412200Y-3123692D02*
G01*
X18406866Y-3113278D01*
X18396452Y-3102863D01*
X18386292Y-3097784D01*
X18365464Y-3097784D01*
X18355050Y-3102863D01*
X18344636Y-3113278D01*
X18339302Y-3123692D01*
X18334222Y-3139439D01*
X18334222Y-3165347D01*
X18339302Y-3180842D01*
X18344636Y-3191255D01*
X18355050Y-3201670D01*
X18365464Y-3206750D01*
X18386292Y-3206750D01*
X18396452Y-3201670D01*
X18406866Y-3191255D01*
X18412200Y-3180842D01*
X18519134Y-3097784D02*
G01*
X18467318Y-3206750D01*
X18446490Y-3097784D02*
G01*
X18519134Y-3097784D01*
X19057899Y-3097784D02*
G01*
X19057899Y-3206750D01*
X19057899Y-3097784D02*
G01*
X19094221Y-3097784D01*
X19109969Y-3102863D01*
X19120129Y-3113278D01*
X19125463Y-3123692D01*
X19130543Y-3139439D01*
X19130543Y-3165347D01*
X19125463Y-3180842D01*
X19120129Y-3191255D01*
X19109969Y-3201670D01*
X19094221Y-3206750D01*
X19057899Y-3206750D01*
X19164833Y-3118612D02*
G01*
X19175247Y-3113278D01*
X19190995Y-3097784D01*
X19190995Y-3206750D01*
X19819899Y-3097784D02*
G01*
X19819899Y-3206750D01*
X19819899Y-3097784D02*
G01*
X19856221Y-3097784D01*
X19871969Y-3102863D01*
X19882129Y-3113278D01*
X19887463Y-3123692D01*
X19892543Y-3139439D01*
X19892543Y-3165347D01*
X19887463Y-3180842D01*
X19882129Y-3191255D01*
X19871969Y-3201670D01*
X19856221Y-3206750D01*
X19819899Y-3206750D01*
X19932167Y-3123692D02*
G01*
X19932167Y-3118612D01*
X19937247Y-3108197D01*
X19942581Y-3102863D01*
X19952995Y-3097784D01*
X19973569Y-3097784D01*
X19983983Y-3102863D01*
X19989317Y-3108197D01*
X19994397Y-3118612D01*
X19994397Y-3129026D01*
X19989317Y-3139439D01*
X19978903Y-3154934D01*
X19926833Y-3206750D01*
X19999731Y-3206750D01*
X6865899Y-1573784D02*
G01*
X6865899Y-1682750D01*
X6865899Y-1573784D02*
G01*
X6902221Y-1573784D01*
X6917969Y-1578863D01*
X6928129Y-1589278D01*
X6933463Y-1599692D01*
X6938543Y-1615439D01*
X6938543Y-1641347D01*
X6933463Y-1656842D01*
X6928129Y-1667255D01*
X6917969Y-1677670D01*
X6902221Y-1682750D01*
X6865899Y-1682750D01*
X6983247Y-1573784D02*
G01*
X7040397Y-1573784D01*
X7009409Y-1615439D01*
X7024903Y-1615439D01*
X7035317Y-1620520D01*
X7040397Y-1625600D01*
X7045731Y-1641347D01*
X7045731Y-1651762D01*
X7040397Y-1667255D01*
X7029983Y-1677670D01*
X7014489Y-1682750D01*
X6998995Y-1682750D01*
X6983247Y-1677670D01*
X6978167Y-1672589D01*
X6972833Y-1662176D01*
D11*
X7971269Y-2575052D02*
G01*
X8137639Y-2575052D01*
X5604459Y-2492032D02*
G01*
X5604459Y-2658148D01*
X5521401Y-2575090D02*
G01*
X5687517Y-2575090D01*
X6593992Y-2540012D02*
G01*
X6575450Y-2558554D01*
X6566306Y-2586240D01*
X6566306Y-2623070D01*
X6575450Y-2650756D01*
X6593992Y-2669298D01*
X6612534Y-2669298D01*
X6630822Y-2660154D01*
X6640220Y-2650756D01*
X6649364Y-2632468D01*
X6667906Y-2576842D01*
X6677050Y-2558554D01*
X6686448Y-2549156D01*
X6704736Y-2540012D01*
X6732422Y-2540012D01*
X6750964Y-2558554D01*
X6760108Y-2586240D01*
X6760108Y-2623070D01*
X6750964Y-2650756D01*
X6732422Y-2669298D01*
X7293990Y-2540012D02*
G01*
X7275449Y-2558554D01*
X7266304Y-2586240D01*
X7266304Y-2623070D01*
X7275449Y-2650756D01*
X7293990Y-2669298D01*
X7312533Y-2669298D01*
X7330820Y-2660154D01*
X7340218Y-2650756D01*
X7349363Y-2632468D01*
X7367904Y-2576842D01*
X7377049Y-2558554D01*
X7386447Y-2549156D01*
X7404734Y-2540012D01*
X7432420Y-2540012D01*
X7450963Y-2558554D01*
X7460106Y-2586240D01*
X7460106Y-2623070D01*
X7450963Y-2650756D01*
X7432420Y-2669298D01*
D10*
X14678657Y2998215D02*
G01*
X14678657Y2889250D01*
X14678657Y2998215D02*
G01*
X14714979Y2998215D01*
X14730727Y2993136D01*
X14740887Y2982721D01*
X14746221Y2972307D01*
X14751301Y2956560D01*
X14751301Y2930652D01*
X14746221Y2915157D01*
X14740887Y2904744D01*
X14730727Y2894329D01*
X14714979Y2889250D01*
X14678657Y2889250D01*
X14837661Y2998215D02*
G01*
X14785591Y2925571D01*
X14863569Y2925571D01*
X14837661Y2998215D02*
G01*
X14837661Y2889250D01*
X15948657Y2998215D02*
G01*
X15948657Y2889250D01*
X15948657Y2998215D02*
G01*
X15984979Y2998215D01*
X16000727Y2993136D01*
X16010887Y2982721D01*
X16016221Y2972307D01*
X16021301Y2956560D01*
X16021301Y2930652D01*
X16016221Y2915157D01*
X16010887Y2904744D01*
X16000727Y2894329D01*
X15984979Y2889250D01*
X15948657Y2889250D01*
X16118075Y2998215D02*
G01*
X16066005Y2998215D01*
X16060925Y2951479D01*
X16066005Y2956560D01*
X16081753Y2961894D01*
X16097247Y2961894D01*
X16112741Y2956560D01*
X16123155Y2946400D01*
X16128489Y2930652D01*
X16128489Y2920237D01*
X16123155Y2904744D01*
X16112741Y2894329D01*
X16097247Y2889250D01*
X16081753Y2889250D01*
X16066005Y2894329D01*
X16060925Y2899410D01*
X16055591Y2909823D01*
X17218657Y2998215D02*
G01*
X17218657Y2889250D01*
X17218657Y2998215D02*
G01*
X17254979Y2998215D01*
X17270727Y2993136D01*
X17280887Y2982721D01*
X17286221Y2972307D01*
X17291301Y2956560D01*
X17291301Y2930652D01*
X17286221Y2915157D01*
X17280887Y2904744D01*
X17270727Y2894329D01*
X17254979Y2889250D01*
X17218657Y2889250D01*
X17388075Y2982721D02*
G01*
X17382741Y2993136D01*
X17367247Y2998215D01*
X17356833Y2998215D01*
X17341339Y2993136D01*
X17330925Y2977387D01*
X17325591Y2951479D01*
X17325591Y2925571D01*
X17330925Y2904744D01*
X17341339Y2894329D01*
X17356833Y2889250D01*
X17362167Y2889250D01*
X17377661Y2894329D01*
X17388075Y2904744D01*
X17393155Y2920237D01*
X17393155Y2925571D01*
X17388075Y2941065D01*
X17377661Y2951479D01*
X17362167Y2956560D01*
X17356833Y2956560D01*
X17341339Y2951479D01*
X17330925Y2941065D01*
X17325591Y2925571D01*
X13178459Y-557784D02*
G01*
X13178459Y-666750D01*
X13178459Y-557784D02*
G01*
X13246023Y-557784D01*
X13178459Y-609600D02*
G01*
X13220115Y-609600D01*
X13280313Y-578612D02*
G01*
X13290727Y-573278D01*
X13306221Y-557784D01*
X13306221Y-666750D01*
X15464459Y-557784D02*
G01*
X15464459Y-666750D01*
X15464459Y-557784D02*
G01*
X15532023Y-557784D01*
X15464459Y-609600D02*
G01*
X15506115Y-609600D01*
X15571393Y-583692D02*
G01*
X15571393Y-578612D01*
X15576727Y-568197D01*
X15581807Y-562863D01*
X15592221Y-557784D01*
X15613049Y-557784D01*
X15623463Y-562863D01*
X15628543Y-568197D01*
X15633877Y-578612D01*
X15633877Y-589026D01*
X15628543Y-599439D01*
X15618129Y-614934D01*
X15566313Y-666750D01*
X15638957Y-666750D01*
X7659370Y7316215D02*
G01*
X7659370Y7233158D01*
X7654036Y7217410D01*
X7648956Y7212329D01*
X7638541Y7207250D01*
X7628127Y7207250D01*
X7617713Y7212329D01*
X7612379Y7217410D01*
X7607300Y7233158D01*
X7607300Y7243571D01*
X7693659Y7295387D02*
G01*
X7703820Y7300721D01*
X7719568Y7316215D01*
X7719568Y7207250D01*
D11*
X6671056Y6411620D02*
G01*
X6671056Y6217564D01*
X6671056Y6411620D02*
G01*
X6800341Y6217564D01*
X6800341Y6411620D02*
G01*
X6800341Y6217564D01*
X8521954Y6411112D02*
G01*
X8521954Y6217310D01*
X8521954Y6217310D02*
G01*
X8632697Y6217310D01*
X5859525Y6826148D02*
G01*
X5850127Y6844690D01*
X5831840Y6863232D01*
X5813297Y6872376D01*
X5776213Y6872376D01*
X5757925Y6863232D01*
X5739384Y6844690D01*
X5730240Y6826148D01*
X5720841Y6798462D01*
X5720841Y6752488D01*
X5730240Y6724548D01*
X5739384Y6706260D01*
X5757925Y6687718D01*
X5776213Y6678574D01*
X5813297Y6678574D01*
X5831840Y6687718D01*
X5850127Y6706260D01*
X5859525Y6724548D01*
X5859525Y6752488D01*
X5813297Y6752488D02*
G01*
X5859525Y6752488D01*
X5920486Y6872376D02*
G01*
X5920486Y6678574D01*
X5920486Y6872376D02*
G01*
X6040374Y6872376D01*
X5920486Y6780174D02*
G01*
X5994400Y6780174D01*
X5920486Y6678574D02*
G01*
X6040374Y6678574D01*
X6101334Y6872376D02*
G01*
X6147561Y6678574D01*
X6193790Y6872376D02*
G01*
X6147561Y6678574D01*
X6193790Y6872376D02*
G01*
X6240018Y6678574D01*
X6286245Y6872376D02*
G01*
X6240018Y6678574D01*
X6347206Y6872376D02*
G01*
X6347206Y6678574D01*
X6537452Y6844690D02*
G01*
X6518909Y6863232D01*
X6491224Y6872376D01*
X6454393Y6872376D01*
X6426454Y6863232D01*
X6408165Y6844690D01*
X6408165Y6826148D01*
X6417309Y6807860D01*
X6426454Y6798462D01*
X6444995Y6789318D01*
X6500368Y6770776D01*
X6518909Y6761632D01*
X6528054Y6752488D01*
X6537452Y6733946D01*
X6537452Y6706260D01*
X6518909Y6687718D01*
X6491224Y6678574D01*
X6454393Y6678574D01*
X6426454Y6687718D01*
X6408165Y6706260D01*
X6727697Y6844690D02*
G01*
X6709156Y6863232D01*
X6681470Y6872376D01*
X6644640Y6872376D01*
X6616954Y6863232D01*
X6598411Y6844690D01*
X6598411Y6826148D01*
X6607556Y6807860D01*
X6616954Y6798462D01*
X6635241Y6789318D01*
X6690613Y6770776D01*
X6709156Y6761632D01*
X6718554Y6752488D01*
X6727697Y6733946D01*
X6727697Y6706260D01*
X6709156Y6687718D01*
X6681470Y6678574D01*
X6644640Y6678574D01*
X6616954Y6687718D01*
X6598411Y6706260D01*
D10*
X18186400Y7316215D02*
G01*
X18186400Y7207250D01*
X18186400Y7316215D02*
G01*
X18228056Y7207250D01*
X18269458Y7316215D02*
G01*
X18228056Y7207250D01*
X18269458Y7316215D02*
G01*
X18269458Y7207250D01*
X18303748Y7316215D02*
G01*
X18303748Y7207250D01*
X18303748Y7316215D02*
G01*
X18340070Y7316215D01*
X18355818Y7311136D01*
X18366231Y7300721D01*
X18371311Y7290308D01*
X18376645Y7274560D01*
X18376645Y7248652D01*
X18371311Y7233158D01*
X18366231Y7222744D01*
X18355818Y7212329D01*
X18340070Y7207250D01*
X18303748Y7207250D01*
X18410936Y7295387D02*
G01*
X18421350Y7300721D01*
X18436843Y7316215D01*
X18436843Y7207250D01*
X19735899Y2236215D02*
G01*
X19735899Y2127250D01*
X19735899Y2236215D02*
G01*
X19782635Y2236215D01*
X19798129Y2231136D01*
X19803463Y2225802D01*
X19808543Y2215387D01*
X19808543Y2199894D01*
X19803463Y2189479D01*
X19798129Y2184400D01*
X19782635Y2179065D01*
X19735899Y2179065D01*
X19842833Y2215387D02*
G01*
X19853247Y2220721D01*
X19868995Y2236215D01*
X19868995Y2127250D01*
X21005899Y2236215D02*
G01*
X21005899Y2127250D01*
X21005899Y2236215D02*
G01*
X21052635Y2236215D01*
X21068129Y2231136D01*
X21073463Y2225802D01*
X21078543Y2215387D01*
X21078543Y2199894D01*
X21073463Y2189479D01*
X21068129Y2184400D01*
X21052635Y2179065D01*
X21005899Y2179065D01*
X21118167Y2210307D02*
G01*
X21118167Y2215387D01*
X21123247Y2225802D01*
X21128581Y2231136D01*
X21138995Y2236215D01*
X21159569Y2236215D01*
X21169983Y2231136D01*
X21175317Y2225802D01*
X21180397Y2215387D01*
X21180397Y2204973D01*
X21175317Y2194560D01*
X21164903Y2179065D01*
X21112833Y2127250D01*
X21185731Y2127250D01*
X17612359Y-557784D02*
G01*
X17612359Y-666750D01*
X17612359Y-557784D02*
G01*
X17659095Y-557784D01*
X17674590Y-562863D01*
X17679924Y-568197D01*
X17685004Y-578612D01*
X17685004Y-589026D01*
X17679924Y-599439D01*
X17674590Y-604520D01*
X17659095Y-609600D01*
X17612359Y-609600D01*
X17648681Y-609600D02*
G01*
X17685004Y-666750D01*
X17729708Y-557784D02*
G01*
X17786858Y-557784D01*
X17755870Y-599439D01*
X17771363Y-599439D01*
X17781777Y-604520D01*
X17786858Y-609600D01*
X17792191Y-625347D01*
X17792191Y-635762D01*
X17786858Y-651255D01*
X17776443Y-661670D01*
X17760950Y-666750D01*
X17745456Y-666750D01*
X17729708Y-661670D01*
X17724627Y-656589D01*
X17719293Y-646176D01*
X19644359Y-557784D02*
G01*
X19644359Y-666750D01*
X19644359Y-557784D02*
G01*
X19691095Y-557784D01*
X19706590Y-562863D01*
X19711924Y-568197D01*
X19717004Y-578612D01*
X19717004Y-589026D01*
X19711924Y-599439D01*
X19706590Y-604520D01*
X19691095Y-609600D01*
X19644359Y-609600D01*
X19680681Y-609600D02*
G01*
X19717004Y-666750D01*
X19803363Y-557784D02*
G01*
X19751293Y-630428D01*
X19829272Y-630428D01*
X19803363Y-557784D02*
G01*
X19803363Y-666750D01*
X21168359Y-3097784D02*
G01*
X21168359Y-3206750D01*
X21168359Y-3097784D02*
G01*
X21215095Y-3097784D01*
X21230590Y-3102863D01*
X21235924Y-3108197D01*
X21241004Y-3118612D01*
X21241004Y-3129026D01*
X21235924Y-3139439D01*
X21230590Y-3144520D01*
X21215095Y-3149600D01*
X21168359Y-3149600D01*
X21204681Y-3149600D02*
G01*
X21241004Y-3206750D01*
X21337777Y-3097784D02*
G01*
X21285708Y-3097784D01*
X21280627Y-3144520D01*
X21285708Y-3139439D01*
X21301456Y-3134105D01*
X21316950Y-3134105D01*
X21332443Y-3139439D01*
X21342858Y-3149600D01*
X21348191Y-3165347D01*
X21348191Y-3175762D01*
X21342858Y-3191255D01*
X21332443Y-3201670D01*
X21316950Y-3206750D01*
X21301456Y-3206750D01*
X21285708Y-3201670D01*
X21280627Y-3196589D01*
X21275293Y-3186176D01*
X6182359Y-4367784D02*
G01*
X6182359Y-4476750D01*
X6182359Y-4367784D02*
G01*
X6229095Y-4367784D01*
X6244590Y-4372863D01*
X6249924Y-4378197D01*
X6255004Y-4388612D01*
X6255004Y-4399026D01*
X6249924Y-4409439D01*
X6244590Y-4414520D01*
X6229095Y-4419600D01*
X6182359Y-4419600D01*
X6218681Y-4419600D02*
G01*
X6255004Y-4476750D01*
X6351777Y-4383278D02*
G01*
X6346443Y-4372863D01*
X6330950Y-4367784D01*
X6320536Y-4367784D01*
X6305041Y-4372863D01*
X6294627Y-4388612D01*
X6289293Y-4414520D01*
X6289293Y-4440428D01*
X6294627Y-4461255D01*
X6305041Y-4471670D01*
X6320536Y-4476750D01*
X6325870Y-4476750D01*
X6341363Y-4471670D01*
X6351777Y-4461255D01*
X6356858Y-4445762D01*
X6356858Y-4440428D01*
X6351777Y-4424934D01*
X6341363Y-4414520D01*
X6325870Y-4409439D01*
X6320536Y-4409439D01*
X6305041Y-4414520D01*
X6294627Y-4424934D01*
X6289293Y-4440428D01*
X6488684Y-3097784D02*
G01*
X6488684Y-3206750D01*
X6488684Y-3097784D02*
G01*
X6535420Y-3097784D01*
X6550913Y-3102863D01*
X6556247Y-3108197D01*
X6561327Y-3118612D01*
X6561327Y-3129026D01*
X6556247Y-3139439D01*
X6550913Y-3144520D01*
X6535420Y-3149600D01*
X6488684Y-3149600D01*
X6525006Y-3149600D02*
G01*
X6561327Y-3206750D01*
X6668515Y-3097784D02*
G01*
X6616445Y-3206750D01*
X6595618Y-3097784D02*
G01*
X6668515Y-3097784D01*
X9028684Y-3097784D02*
G01*
X9028684Y-3206750D01*
X9028684Y-3097784D02*
G01*
X9075420Y-3097784D01*
X9090913Y-3102863D01*
X9096247Y-3108197D01*
X9101327Y-3118612D01*
X9101327Y-3129026D01*
X9096247Y-3139439D01*
X9090913Y-3144520D01*
X9075420Y-3149600D01*
X9028684Y-3149600D01*
X9065006Y-3149600D02*
G01*
X9101327Y-3206750D01*
X9161779Y-3097784D02*
G01*
X9146031Y-3102863D01*
X9140952Y-3113278D01*
X9140952Y-3123692D01*
X9146031Y-3134105D01*
X9156445Y-3139439D01*
X9177274Y-3144520D01*
X9192768Y-3149600D01*
X9203181Y-3160013D01*
X9208515Y-3170428D01*
X9208515Y-3186176D01*
X9203181Y-3196589D01*
X9198102Y-3201670D01*
X9182354Y-3206750D01*
X9161779Y-3206750D01*
X9146031Y-3201670D01*
X9140952Y-3196589D01*
X9135618Y-3186176D01*
X9135618Y-3170428D01*
X9140952Y-3160013D01*
X9151365Y-3149600D01*
X9166859Y-3144520D01*
X9187688Y-3139439D01*
X9198102Y-3134105D01*
X9203181Y-3123692D01*
X9203181Y-3113278D01*
X9198102Y-3102863D01*
X9182354Y-3097784D01*
X9161779Y-3097784D01*
X11568684Y-3097784D02*
G01*
X11568684Y-3206750D01*
X11568684Y-3097784D02*
G01*
X11615420Y-3097784D01*
X11630913Y-3102863D01*
X11636247Y-3108197D01*
X11641327Y-3118612D01*
X11641327Y-3129026D01*
X11636247Y-3139439D01*
X11630913Y-3144520D01*
X11615420Y-3149600D01*
X11568684Y-3149600D01*
X11605006Y-3149600D02*
G01*
X11641327Y-3206750D01*
X11743181Y-3134105D02*
G01*
X11738102Y-3149600D01*
X11727688Y-3160013D01*
X11712193Y-3165347D01*
X11706859Y-3165347D01*
X11691365Y-3160013D01*
X11680952Y-3149600D01*
X11675618Y-3134105D01*
X11675618Y-3129026D01*
X11680952Y-3113278D01*
X11691365Y-3102863D01*
X11706859Y-3097784D01*
X11712193Y-3097784D01*
X11727688Y-3102863D01*
X11738102Y-3113278D01*
X11743181Y-3134105D01*
X11743181Y-3160013D01*
X11738102Y-3186176D01*
X11727688Y-3201670D01*
X11712193Y-3206750D01*
X11701779Y-3206750D01*
X11686031Y-3201670D01*
X11680952Y-3191255D01*
X14870684Y-1573784D02*
G01*
X14870684Y-1682750D01*
X14870684Y-1573784D02*
G01*
X14917420Y-1573784D01*
X14932913Y-1578863D01*
X14938247Y-1584197D01*
X14943327Y-1594612D01*
X14943327Y-1605026D01*
X14938247Y-1615439D01*
X14932913Y-1620520D01*
X14917420Y-1625600D01*
X14870684Y-1625600D01*
X14907006Y-1625600D02*
G01*
X14943327Y-1682750D01*
X14977618Y-1594612D02*
G01*
X14988031Y-1589278D01*
X15003779Y-1573784D01*
X15003779Y-1682750D01*
X15069058Y-1573784D02*
G01*
X15053563Y-1578863D01*
X15043150Y-1594612D01*
X15038070Y-1620520D01*
X15038070Y-1636013D01*
X15043150Y-1662176D01*
X15053563Y-1677670D01*
X15069058Y-1682750D01*
X15079472Y-1682750D01*
X15095220Y-1677670D01*
X15105634Y-1662176D01*
X15110713Y-1636013D01*
X15110713Y-1620520D01*
X15105634Y-1594612D01*
X15095220Y-1578863D01*
X15079472Y-1573784D01*
X15069058Y-1573784D01*
X17410684Y-1573784D02*
G01*
X17410684Y-1682750D01*
X17410684Y-1573784D02*
G01*
X17457420Y-1573784D01*
X17472913Y-1578863D01*
X17478248Y-1584197D01*
X17483327Y-1594612D01*
X17483327Y-1605026D01*
X17478248Y-1615439D01*
X17472913Y-1620520D01*
X17457420Y-1625600D01*
X17410684Y-1625600D01*
X17447006Y-1625600D02*
G01*
X17483327Y-1682750D01*
X17517618Y-1594612D02*
G01*
X17528031Y-1589278D01*
X17543779Y-1573784D01*
X17543779Y-1682750D01*
X17578070Y-1594612D02*
G01*
X17588484Y-1589278D01*
X17603977Y-1573784D01*
X17603977Y-1682750D01*
X19950684Y-1573784D02*
G01*
X19950684Y-1682750D01*
X19950684Y-1573784D02*
G01*
X19997420Y-1573784D01*
X20012913Y-1578863D01*
X20018248Y-1584197D01*
X20023327Y-1594612D01*
X20023327Y-1605026D01*
X20018248Y-1615439D01*
X20012913Y-1620520D01*
X19997420Y-1625600D01*
X19950684Y-1625600D01*
X19987006Y-1625600D02*
G01*
X20023327Y-1682750D01*
X20057618Y-1594612D02*
G01*
X20068031Y-1589278D01*
X20083779Y-1573784D01*
X20083779Y-1682750D01*
X20123150Y-1599692D02*
G01*
X20123150Y-1594612D01*
X20128484Y-1584197D01*
X20133563Y-1578863D01*
X20143977Y-1573784D01*
X20164806Y-1573784D01*
X20175220Y-1578863D01*
X20180300Y-1584197D01*
X20185634Y-1594612D01*
X20185634Y-1605026D01*
X20180300Y-1615439D01*
X20169886Y-1630934D01*
X20118070Y-1682750D01*
X20190713Y-1682750D01*
X16524224Y-3113278D02*
G01*
X16513809Y-3102863D01*
X16498316Y-3097784D01*
X16477488Y-3097784D01*
X16461993Y-3102863D01*
X16451579Y-3113278D01*
X16451579Y-3123692D01*
X16456659Y-3134105D01*
X16461993Y-3139439D01*
X16472408Y-3144520D01*
X16503650Y-3154934D01*
X16513809Y-3160013D01*
X16519143Y-3165347D01*
X16524224Y-3175762D01*
X16524224Y-3191255D01*
X16513809Y-3201670D01*
X16498316Y-3206750D01*
X16477488Y-3206750D01*
X16461993Y-3201670D01*
X16451579Y-3191255D01*
X16558513Y-3097784D02*
G01*
X16584675Y-3206750D01*
X16610584Y-3097784D02*
G01*
X16584675Y-3206750D01*
X16610584Y-3097784D02*
G01*
X16636491Y-3206750D01*
X16662400Y-3097784D02*
G01*
X16636491Y-3206750D01*
X16696690Y-3118612D02*
G01*
X16707104Y-3113278D01*
X16722852Y-3097784D01*
X16722852Y-3206750D01*
X12041913Y7316215D02*
G01*
X12041913Y7238237D01*
X12046993Y7222744D01*
X12057407Y7212329D01*
X12073155Y7207250D01*
X12083569Y7207250D01*
X12099063Y7212329D01*
X12109477Y7222744D01*
X12114557Y7238237D01*
X12114557Y7316215D01*
X12148847Y7295387D02*
G01*
X12159261Y7300721D01*
X12175009Y7316215D01*
X12175009Y7207250D01*
X10400103Y-1573784D02*
G01*
X10400103Y-1651762D01*
X10405183Y-1667255D01*
X10415597Y-1677670D01*
X10431345Y-1682750D01*
X10441759Y-1682750D01*
X10457253Y-1677670D01*
X10467667Y-1667255D01*
X10472747Y-1651762D01*
X10472747Y-1573784D01*
X10517451Y-1573784D02*
G01*
X10574601Y-1573784D01*
X10543613Y-1615439D01*
X10559107Y-1615439D01*
X10569521Y-1620520D01*
X10574601Y-1625600D01*
X10579935Y-1641347D01*
X10579935Y-1651762D01*
X10574601Y-1667255D01*
X10564187Y-1677670D01*
X10548693Y-1682750D01*
X10533199Y-1682750D01*
X10517451Y-1677670D01*
X10512371Y-1672589D01*
X10507037Y-1662176D01*
X11670103Y-1573784D02*
G01*
X11670103Y-1651762D01*
X11675183Y-1667255D01*
X11685597Y-1677670D01*
X11701345Y-1682750D01*
X11711759Y-1682750D01*
X11727253Y-1677670D01*
X11737667Y-1667255D01*
X11742747Y-1651762D01*
X11742747Y-1573784D01*
X11839521Y-1589278D02*
G01*
X11834187Y-1578863D01*
X11818693Y-1573784D01*
X11808279Y-1573784D01*
X11792785Y-1578863D01*
X11782371Y-1594612D01*
X11777037Y-1620520D01*
X11777037Y-1646428D01*
X11782371Y-1667255D01*
X11792785Y-1677670D01*
X11808279Y-1682750D01*
X11813613Y-1682750D01*
X11829107Y-1677670D01*
X11839521Y-1667255D01*
X11844601Y-1651762D01*
X11844601Y-1646428D01*
X11839521Y-1630934D01*
X11829107Y-1620520D01*
X11813613Y-1615439D01*
X11808279Y-1615439D01*
X11792785Y-1620520D01*
X11782371Y-1630934D01*
X11777037Y-1646428D01*
X17894300Y2236215D02*
G01*
X17894300Y2158237D01*
X17899379Y2142744D01*
X17909793Y2132329D01*
X17925541Y2127250D01*
X17935956Y2127250D01*
X17951450Y2132329D01*
X17961863Y2142744D01*
X17966943Y2158237D01*
X17966943Y2236215D01*
X18053304Y2236215D02*
G01*
X18001234Y2163571D01*
X18079211Y2163571D01*
X18053304Y2236215D02*
G01*
X18053304Y2127250D01*
X16878300Y1603755D02*
G01*
X16878300Y1530857D01*
X16878300Y1603755D02*
G01*
X16909541Y1603755D01*
X16919956Y1600200D01*
X16923258Y1596644D01*
X16926813Y1589786D01*
X16926813Y1579371D01*
X16923258Y1572513D01*
X16919956Y1568957D01*
X16909541Y1565655D01*
X16878300Y1565655D01*
X16949674Y1603755D02*
G01*
X16949674Y1530857D01*
X17024350Y1586229D02*
G01*
X17021048Y1593342D01*
X17014190Y1600200D01*
X17007077Y1603755D01*
X16993361Y1603755D01*
X16986250Y1600200D01*
X16979391Y1593342D01*
X16976090Y1586229D01*
X16972534Y1576070D01*
X16972534Y1558544D01*
X16976090Y1548129D01*
X16979391Y1541271D01*
X16986250Y1534413D01*
X16993361Y1530857D01*
X17007077Y1530857D01*
X17014190Y1534413D01*
X17021048Y1541271D01*
X17024350Y1548129D01*
X17100550Y1589786D02*
G01*
X17107661Y1593342D01*
X17118075Y1603755D01*
X17118075Y1530857D01*
X17182338Y1593342D02*
G01*
X17179036Y1600200D01*
X17168622Y1603755D01*
X17161509Y1603755D01*
X17151350Y1600200D01*
X17144238Y1589786D01*
X17140936Y1572513D01*
X17140936Y1555242D01*
X17144238Y1541271D01*
X17151350Y1534413D01*
X17161509Y1530857D01*
X17165066Y1530857D01*
X17175479Y1534413D01*
X17182338Y1541271D01*
X17185893Y1551686D01*
X17185893Y1555242D01*
X17182338Y1565655D01*
X17175479Y1572513D01*
X17165066Y1576070D01*
X17161509Y1576070D01*
X17151350Y1572513D01*
X17144238Y1565655D01*
X17140936Y1555242D01*
X17208754Y1603755D02*
G01*
X17208754Y1530857D01*
X17208754Y1603755D02*
G01*
X17253711Y1603755D01*
X17208754Y1568957D02*
G01*
X17236440Y1568957D01*
X17318227Y1593342D02*
G01*
X17314672Y1600200D01*
X17304258Y1603755D01*
X17297400Y1603755D01*
X17286986Y1600200D01*
X17280127Y1589786D01*
X17276572Y1572513D01*
X17276572Y1555242D01*
X17280127Y1541271D01*
X17286986Y1534413D01*
X17297400Y1530857D01*
X17300956Y1530857D01*
X17311370Y1534413D01*
X17318227Y1541271D01*
X17321529Y1551686D01*
X17321529Y1555242D01*
X17318227Y1565655D01*
X17311370Y1572513D01*
X17300956Y1576070D01*
X17297400Y1576070D01*
X17286986Y1572513D01*
X17280127Y1565655D01*
X17276572Y1555242D01*
X17347945Y1586229D02*
G01*
X17347945Y1589786D01*
X17351502Y1596644D01*
X17354804Y1600200D01*
X17361916Y1603755D01*
X17375631Y1603755D01*
X17382490Y1600200D01*
X17386045Y1596644D01*
X17389602Y1589786D01*
X17389602Y1582928D01*
X17386045Y1576070D01*
X17379188Y1565655D01*
X17344390Y1530857D01*
X17392904Y1530857D01*
X17433290Y1603755D02*
G01*
X17422875Y1600200D01*
X17419320Y1593342D01*
X17419320Y1586229D01*
X17422875Y1579371D01*
X17429734Y1576070D01*
X17443450Y1572513D01*
X17453863Y1568957D01*
X17460975Y1562100D01*
X17464277Y1555242D01*
X17464277Y1544828D01*
X17460975Y1537970D01*
X17457420Y1534413D01*
X17447006Y1530857D01*
X17433290Y1530857D01*
X17422875Y1534413D01*
X17419320Y1537970D01*
X17415763Y1544828D01*
X17415763Y1555242D01*
X17419320Y1562100D01*
X17426177Y1568957D01*
X17436591Y1572513D01*
X17450561Y1576070D01*
X17457420Y1579371D01*
X17460975Y1586229D01*
X17460975Y1593342D01*
X17457420Y1600200D01*
X17447006Y1603755D01*
X17433290Y1603755D01*
X17540477Y1589786D02*
G01*
X17547590Y1593342D01*
X17557750Y1603755D01*
X17557750Y1530857D01*
X17598136Y1603755D02*
G01*
X17587722Y1600200D01*
X17584166Y1593342D01*
X17584166Y1586229D01*
X17587722Y1579371D01*
X17594579Y1576070D01*
X17608550Y1572513D01*
X17618709Y1568957D01*
X17625822Y1562100D01*
X17629124Y1555242D01*
X17629124Y1544828D01*
X17625822Y1537970D01*
X17622266Y1534413D01*
X17611852Y1530857D01*
X17598136Y1530857D01*
X17587722Y1534413D01*
X17584166Y1537970D01*
X17580609Y1544828D01*
X17580609Y1555242D01*
X17584166Y1562100D01*
X17591024Y1568957D01*
X17601438Y1572513D01*
X17615408Y1576070D01*
X17622266Y1579371D01*
X17625822Y1586229D01*
X17625822Y1593342D01*
X17622266Y1600200D01*
X17611852Y1603755D01*
X17598136Y1603755D01*
X17651984Y1562100D02*
G01*
X17714468Y1562100D01*
X17737327Y1603755D02*
G01*
X17737327Y1530857D01*
X17737327Y1530857D02*
G01*
X17778729Y1530857D01*
X17801590Y1603755D02*
G01*
X17801590Y1530857D01*
X17801590Y1603755D02*
G01*
X17846802Y1603755D01*
X17801590Y1568957D02*
G01*
X17829529Y1568957D01*
X17801590Y1530857D02*
G01*
X17846802Y1530857D01*
X17897348Y1603755D02*
G01*
X17869661Y1530857D01*
X17897348Y1603755D02*
G01*
X17925034Y1530857D01*
X17880075Y1555242D02*
G01*
X17914620Y1555242D01*
X17947893Y1603755D02*
G01*
X17947893Y1530857D01*
X17947893Y1603755D02*
G01*
X17972024Y1603755D01*
X17982438Y1600200D01*
X17989550Y1593342D01*
X17992852Y1586229D01*
X17996408Y1576070D01*
X17996408Y1558544D01*
X17992852Y1548129D01*
X17989550Y1541271D01*
X17982438Y1534413D01*
X17972024Y1530857D01*
X17947893Y1530857D01*
X18072608Y1603755D02*
G01*
X18072608Y1530857D01*
X18072608Y1603755D02*
G01*
X18103850Y1603755D01*
X18114009Y1600200D01*
X18117566Y1596644D01*
X18121122Y1589786D01*
X18121122Y1579371D01*
X18117566Y1572513D01*
X18114009Y1568957D01*
X18103850Y1565655D01*
X18072608Y1565655D01*
X18143981Y1603755D02*
G01*
X18143981Y1530857D01*
X18143981Y1603755D02*
G01*
X18168111Y1603755D01*
X18178525Y1600200D01*
X18185384Y1593342D01*
X18188940Y1586229D01*
X18192495Y1576070D01*
X18192495Y1558544D01*
X18188940Y1548129D01*
X18185384Y1541271D01*
X18178525Y1534413D01*
X18168111Y1530857D01*
X18143981Y1530857D01*
X18215356Y1603755D02*
G01*
X18215356Y1530857D01*
X18238216Y1603755D02*
G01*
X18238216Y1530857D01*
X18238216Y1603755D02*
G01*
X18269204Y1603755D01*
X18279618Y1600200D01*
X18283174Y1596644D01*
X18286729Y1589786D01*
X18286729Y1579371D01*
X18283174Y1572513D01*
X18279618Y1568957D01*
X18269204Y1565655D01*
X18238216Y1565655D01*
X21348700Y-557784D02*
G01*
X21348700Y-635762D01*
X21353779Y-651255D01*
X21364193Y-661670D01*
X21379941Y-666750D01*
X21390356Y-666750D01*
X21405850Y-661670D01*
X21416263Y-651255D01*
X21421343Y-635762D01*
X21421343Y-557784D01*
X21518118Y-557784D02*
G01*
X21466048Y-557784D01*
X21460968Y-604520D01*
X21466048Y-599439D01*
X21481795Y-594105D01*
X21497290Y-594105D01*
X21512784Y-599439D01*
X21523198Y-609600D01*
X21528531Y-625347D01*
X21528531Y-635762D01*
X21523198Y-651255D01*
X21512784Y-661670D01*
X21497290Y-666750D01*
X21481795Y-666750D01*
X21466048Y-661670D01*
X21460968Y-656589D01*
X21455634Y-646176D01*
X12941300Y-1573784D02*
G01*
X12941300Y-1651762D01*
X12946379Y-1667255D01*
X12956793Y-1677670D01*
X12972541Y-1682750D01*
X12982956Y-1682750D01*
X12998450Y-1677670D01*
X13008863Y-1667255D01*
X13013943Y-1651762D01*
X13013943Y-1573784D01*
X13121131Y-1573784D02*
G01*
X13069061Y-1682750D01*
X13048234Y-1573784D02*
G01*
X13121131Y-1573784D01*
X15024100Y2236215D02*
G01*
X15024100Y2158237D01*
X15029179Y2142744D01*
X15039593Y2132329D01*
X15055341Y2127250D01*
X15065756Y2127250D01*
X15081250Y2132329D01*
X15091663Y2142744D01*
X15096743Y2158237D01*
X15096743Y2236215D01*
X15157195Y2236215D02*
G01*
X15141447Y2231136D01*
X15136368Y2220721D01*
X15136368Y2210307D01*
X15141447Y2199894D01*
X15151861Y2194560D01*
X15172690Y2189479D01*
X15188184Y2184400D01*
X15198597Y2173986D01*
X15203931Y2163571D01*
X15203931Y2147823D01*
X15198597Y2137410D01*
X15193518Y2132329D01*
X15177770Y2127250D01*
X15157195Y2127250D01*
X15141447Y2132329D01*
X15136368Y2137410D01*
X15131034Y2147823D01*
X15131034Y2163571D01*
X15136368Y2173986D01*
X15146781Y2184400D01*
X15162275Y2189479D01*
X15183104Y2194560D01*
X15193518Y2199894D01*
X15198597Y2210307D01*
X15198597Y2220721D01*
X15193518Y2231136D01*
X15177770Y2236215D01*
X15157195Y2236215D01*
X12666979Y2236215D02*
G01*
X12666979Y2158237D01*
X12672059Y2142744D01*
X12682474Y2132329D01*
X12698222Y2127250D01*
X12708636Y2127250D01*
X12724129Y2132329D01*
X12734543Y2142744D01*
X12739624Y2158237D01*
X12739624Y2236215D01*
X12841477Y2199894D02*
G01*
X12836397Y2184400D01*
X12825984Y2173986D01*
X12810490Y2168652D01*
X12805156Y2168652D01*
X12789661Y2173986D01*
X12779247Y2184400D01*
X12773913Y2199894D01*
X12773913Y2204973D01*
X12779247Y2220721D01*
X12789661Y2231136D01*
X12805156Y2236215D01*
X12810490Y2236215D01*
X12825984Y2231136D01*
X12836397Y2220721D01*
X12841477Y2199894D01*
X12841477Y2173986D01*
X12836397Y2147823D01*
X12825984Y2132329D01*
X12810490Y2127250D01*
X12800075Y2127250D01*
X12784327Y2132329D01*
X12779247Y2142744D01*
D11*
X12567665Y2084578D02*
G01*
X12475209Y1890776D01*
X12438379Y2084578D02*
G01*
X12567665Y2084578D01*
X12721081Y2084578D02*
G01*
X12628625Y1955292D01*
X12767309Y1955292D01*
X12721081Y2084578D02*
G01*
X12721081Y1890776D01*
X12883641Y2084578D02*
G01*
X12855956Y2075434D01*
X12837413Y2047747D01*
X12828270Y2001520D01*
X12828270Y1973834D01*
X12837413Y1927605D01*
X12855956Y1899920D01*
X12883641Y1890776D01*
X12901929Y1890776D01*
X12929870Y1899920D01*
X12948158Y1927605D01*
X12957556Y1973834D01*
X12957556Y2001520D01*
X12948158Y2047747D01*
X12929870Y2075434D01*
X12901929Y2084578D01*
X12883641Y2084578D01*
X13110718Y2084578D02*
G01*
X13018515Y1955292D01*
X13156945Y1955292D01*
X13110718Y2084578D02*
G01*
X13110718Y1890776D01*
D10*
X9131300Y-1573784D02*
G01*
X9131300Y-1651762D01*
X9136379Y-1667255D01*
X9146793Y-1677670D01*
X9162541Y-1682750D01*
X9172956Y-1682750D01*
X9188450Y-1677670D01*
X9198863Y-1667255D01*
X9203943Y-1651762D01*
X9203943Y-1573784D01*
X9238234Y-1594612D02*
G01*
X9248647Y-1589278D01*
X9264395Y-1573784D01*
X9264395Y-1682750D01*
X9329674Y-1573784D02*
G01*
X9314179Y-1578863D01*
X9303765Y-1594612D01*
X9298686Y-1620520D01*
X9298686Y-1636013D01*
X9303765Y-1662176D01*
X9314179Y-1677670D01*
X9329674Y-1682750D01*
X9340088Y-1682750D01*
X9355836Y-1677670D01*
X9366250Y-1662176D01*
X9371329Y-1636013D01*
X9371329Y-1620520D01*
X9366250Y-1594612D01*
X9355836Y-1578863D01*
X9340088Y-1573784D01*
X9329674Y-1573784D01*
X21945600Y2236215D02*
G01*
X21987256Y2184400D01*
X21987256Y2127250D01*
X22028658Y2236215D02*
G01*
X21987256Y2184400D01*
X22062948Y2215387D02*
G01*
X22073361Y2220721D01*
X22089109Y2236215D01*
X22089109Y2127250D01*
D11*
X21831300Y1376171D02*
G01*
X21882100Y1299718D01*
X21882100Y1376171D02*
G01*
X21831300Y1299718D01*
X21931629Y1376171D02*
G01*
X21931629Y1299718D01*
X21906229Y1376171D02*
G01*
X21957029Y1376171D01*
X22010116Y1376171D02*
G01*
X21981159Y1299718D01*
X22010116Y1376171D02*
G01*
X22039325Y1299718D01*
X21992081Y1325118D02*
G01*
X22028404Y1325118D01*
X22063202Y1376171D02*
G01*
X22063202Y1299718D01*
X22063202Y1299718D02*
G01*
X22106890Y1299718D01*
G36*
X21892260Y-1866900D02*
G01*
X21892260Y-2209800D01*
X21930360Y-2120900D01*
X21943060Y-2032000D01*
X21943060Y-1943100D01*
X21917660Y-1892300D01*
G37*
G36*
X17828260Y-3390900D02*
G01*
X17828260Y-3733800D01*
X17866360Y-3644900D01*
X17879060Y-3556000D01*
X17879060Y-3467100D01*
X17853660Y-3416300D01*
G37*
G36*
X18590260Y-3390900D02*
G01*
X18590260Y-3733800D01*
X18628360Y-3644900D01*
X18641060Y-3556000D01*
X18641060Y-3467100D01*
X18615660Y-3416300D01*
G37*
D12*
X6903859Y-393700D02*
G01*
X6603860Y-393700D01*
X6700659Y1409700D02*
G01*
X6700659Y1109700D01*
X11196459Y1257300D02*
G01*
X10896460Y1257300D01*
X11196459Y-393700D02*
G01*
X10896460Y-393700D01*
X11044059Y-241300D02*
G01*
X11044059Y-541299D01*
X6853059Y1257300D02*
G01*
X6553060Y1257300D01*
X5633859Y-368300D02*
G01*
X5333860Y-368300D01*
X5481459Y1308100D02*
G01*
X5481459Y1008100D01*
X5631459Y1155700D02*
G01*
X5331459Y1155700D01*
D13*
X5735459Y2095500D02*
G01*
X12035472Y2095500D01*
X12035472Y-1204493D01*
X5735459Y-1204493D01*
X5735459Y2095500D01*
X6395859Y2007311D02*
G01*
X11395849Y2007311D01*
X11395849Y507314D01*
X6395859Y507314D01*
X6395859Y2007311D01*
X6395859Y368300D02*
G01*
X11395849Y368300D01*
X11395849Y-1131696D01*
X6395859Y-1131696D01*
X6395859Y368300D01*
X6194259Y1507286D02*
G01*
X6394259Y1507286D01*
X6394259Y1007287D01*
X6194259Y1007287D01*
X6194259Y1507286D01*
X11399659Y-139700D02*
G01*
X11599659Y-139700D01*
X11599659Y-639698D01*
X11399659Y-639698D01*
X11399659Y-139700D01*
X12941300Y-3248101D02*
G01*
X14241297Y-3248101D01*
X14241297Y-3848100D01*
X12941300Y-3848100D01*
X12941300Y-3248101D01*
X14465300Y-3248101D02*
G01*
X15765297Y-3248101D01*
X15765297Y-3848100D01*
X14465300Y-3848100D01*
X14465300Y-3248101D01*
X21511254Y-1828800D02*
G01*
X21511254Y-1930400D01*
X21460454Y-1879600D02*
G01*
X21562054Y-1879600D01*
X17447254Y-3352800D02*
G01*
X17447254Y-3454400D01*
X17396454Y-3403600D02*
G01*
X17498054Y-3403600D01*
X18209254Y-3352800D02*
G01*
X18209254Y-3454400D01*
X18158454Y-3403600D02*
G01*
X18260054Y-3403600D01*
X19234099Y-3247743D02*
G01*
X18929299Y-3247743D01*
X19996099Y-3247743D02*
G01*
X19691299Y-3247743D01*
X5321300Y-1719300D02*
G01*
X8421293Y-1719300D01*
X8421293Y-2319299D01*
X5321300Y-2319299D01*
X5321300Y-1719300D01*
X5921298Y-1719300D01*
X5921298Y-2319299D01*
X14805657Y2857500D02*
G01*
X14805657Y2603500D01*
X14932657Y2857500D02*
G01*
X14932657Y2603500D01*
X14424657Y2603500D01*
X14424657Y2857500D01*
X14932657Y2857500D01*
X16075657Y2857500D02*
G01*
X16075657Y2603500D01*
X16202657Y2857500D02*
G01*
X16202657Y2603500D01*
X15694657Y2603500D01*
X15694657Y2857500D01*
X16202657Y2857500D01*
X17345657Y2857500D02*
G01*
X17345657Y2603500D01*
X17472657Y2857500D02*
G01*
X17472657Y2603500D01*
X16964657Y2603500D01*
X16964657Y2857500D01*
X17472657Y2857500D01*
X12628473Y-701700D02*
G01*
X13728471Y-701700D01*
X12628473Y-701700D02*
G01*
X12628473Y-1101699D01*
X13728471Y-1101699D02*
G01*
X12628473Y-1101699D01*
X13728471Y-1101699D02*
G01*
X13728471Y-701700D01*
X13940459Y-901700D02*
G01*
X12416459Y-901700D01*
X14914473Y-701700D02*
G01*
X16014471Y-701700D01*
X14914473Y-701700D02*
G01*
X14914473Y-1101699D01*
X16014471Y-1101699D02*
G01*
X14914473Y-1101699D01*
X16014471Y-1101699D02*
G01*
X16014471Y-701700D01*
X16226459Y-901700D02*
G01*
X14702459Y-901700D01*
X5470906Y6911594D02*
G01*
X5621020Y7061606D01*
X5621020Y7061606D02*
G01*
X9620910Y7061606D01*
X9771024Y6911492D02*
G01*
X9620910Y7061606D01*
X5470906Y6911492D02*
G01*
X5470906Y2961614D01*
X5670905Y2761614D02*
G01*
X5470906Y2961614D01*
X5670804Y2761513D02*
G01*
X9620910Y2761614D01*
X9620884Y2761589D02*
G01*
X9770897Y2911602D01*
X9770897Y2911602D02*
G01*
X9770872Y6911492D01*
X6270828Y6061608D02*
G01*
X6270904Y5861608D01*
X8420861Y3261512D02*
G01*
X8720836Y3261512D01*
X8720912Y3261588D02*
G01*
X8720912Y3261613D01*
X6070904Y6061608D02*
G01*
X7170902Y6061608D01*
X6270904Y5861608D02*
G01*
X6970902Y5861608D01*
X6971029Y5861710D02*
G01*
X6970902Y6061608D01*
X6070854Y6061608D02*
G01*
X6070904Y4511598D01*
X6070904Y4761611D02*
G01*
X7171004Y4761712D01*
X7170902Y4511598D02*
G01*
X7170927Y6061608D01*
X6070904Y4511598D02*
G01*
X7170902Y4511598D01*
X8270646Y6061506D02*
G01*
X8270900Y5861608D01*
X8070824Y6061608D02*
G01*
X9170898Y6061608D01*
X8271129Y5861608D02*
G01*
X8970899Y5861608D01*
X8971152Y5861710D02*
G01*
X8970899Y6061608D01*
X8070900Y6061608D02*
G01*
X8070900Y4511700D01*
X8070824Y4761611D02*
G01*
X9170898Y4761611D01*
X9170898Y4511598D02*
G01*
X9170898Y6061506D01*
X8070900Y4511598D02*
G01*
X9170974Y4511598D01*
X7970900Y3161614D02*
G01*
X7970647Y3361512D01*
X8170976Y3161614D02*
G01*
X7070902Y3161614D01*
X7970672Y3361613D02*
G01*
X7270902Y3361613D01*
X7270648Y3361512D02*
G01*
X7270902Y3161614D01*
X8170925Y3161690D02*
G01*
X8170900Y4511598D01*
X7070852Y4511700D02*
G01*
X7070902Y3161614D01*
X8170925Y4511700D02*
G01*
X7070902Y4511598D01*
X8570899Y3261613D02*
G01*
X8570899Y3411601D01*
X8470900Y3211601D02*
G01*
X8670899Y3211601D01*
X8520887Y3161614D02*
G01*
X8620912Y3161614D01*
X5970904Y3561613D02*
G01*
X5971031Y2961538D01*
X6270904Y3261613D02*
G01*
X5670804Y3261512D01*
X14211300Y7162800D02*
G01*
X22211309Y7162800D01*
X22211309Y3562807D01*
X14211300Y3562807D01*
X14211300Y7162800D01*
X14883891Y7026503D02*
G01*
X18947891Y7026503D01*
X18947891Y6772503D01*
X14883891Y6772503D01*
X14883891Y7026503D01*
X14655291Y6670903D02*
G01*
X21755303Y6670903D01*
X21755303Y3990898D01*
X14655291Y3990898D01*
X14655291Y6670903D01*
X15036291Y6086703D02*
G01*
X21336304Y6086703D01*
X21336304Y4706696D01*
X15036291Y4706696D01*
X15036291Y6086703D01*
X19291300Y2083699D02*
G01*
X19291300Y1143899D01*
X20231100Y1143899D02*
G01*
X20231100Y2083699D01*
X20231100Y1143899D02*
G01*
X20142200Y1143899D01*
X20231100Y2083699D02*
G01*
X19291300Y2083699D01*
X19291300Y1143899D02*
G01*
X19380200Y1143899D01*
X19380200Y1143899D02*
G01*
X19380200Y1197239D01*
X19380200Y1197239D02*
G01*
X20142200Y1197239D01*
X20142200Y1197239D02*
G01*
X20142200Y1143899D01*
X20561300Y2083699D02*
G01*
X20561300Y1143899D01*
X21501100Y1143899D02*
G01*
X21501100Y2083699D01*
X21501100Y1143899D02*
G01*
X21412200Y1143899D01*
X21501100Y2083699D02*
G01*
X20561300Y2083699D01*
X20561300Y1143899D02*
G01*
X20650200Y1143899D01*
X20650200Y1143899D02*
G01*
X20650200Y1197239D01*
X20650200Y1197239D02*
G01*
X21412200Y1197239D01*
X21412200Y1197239D02*
G01*
X21412200Y1143899D01*
X17038320Y-1153160D02*
G01*
X17038320Y-701039D01*
X17038320Y-701039D02*
G01*
X18186400Y-701039D01*
X18186400Y-701039D02*
G01*
X18186400Y-1153160D01*
X18186400Y-1153160D02*
G01*
X17038320Y-1153160D01*
X19070320Y-1153160D02*
G01*
X19070320Y-701039D01*
X19070320Y-701039D02*
G01*
X20218400Y-701039D01*
X20218400Y-701039D02*
G01*
X20218400Y-1153160D01*
X20218400Y-1153160D02*
G01*
X19070320Y-1153160D01*
X20594320Y-3693160D02*
G01*
X20594320Y-3241039D01*
X20594320Y-3241039D02*
G01*
X21742400Y-3241039D01*
X21742400Y-3241039D02*
G01*
X21742400Y-3693160D01*
X21742400Y-3693160D02*
G01*
X20594320Y-3693160D01*
X5608320Y-4963160D02*
G01*
X5608320Y-4511039D01*
X5608320Y-4511039D02*
G01*
X6756400Y-4511039D01*
X6756400Y-4511039D02*
G01*
X6756400Y-4963160D01*
X6756400Y-4963160D02*
G01*
X5608320Y-4963160D01*
X5701383Y-3244100D02*
G01*
X5701383Y-3944099D01*
X7301384Y-3244100D02*
G01*
X7301384Y-3944099D01*
X7301384Y-3944099D02*
G01*
X5701383Y-3944099D01*
X7301384Y-3244100D02*
G01*
X5701383Y-3244100D01*
X8241383Y-3244100D02*
G01*
X8241383Y-3944099D01*
X9841384Y-3244100D02*
G01*
X9841384Y-3944099D01*
X9841384Y-3944099D02*
G01*
X8241383Y-3944099D01*
X9841384Y-3244100D02*
G01*
X8241383Y-3244100D01*
X10781383Y-3244100D02*
G01*
X10781383Y-3944099D01*
X12381384Y-3244100D02*
G01*
X12381384Y-3944099D01*
X12381384Y-3944099D02*
G01*
X10781383Y-3944099D01*
X12381384Y-3244100D02*
G01*
X10781383Y-3244100D01*
X14083383Y-1720100D02*
G01*
X14083383Y-2420099D01*
X15683384Y-1720100D02*
G01*
X15683384Y-2420099D01*
X15683384Y-2420099D02*
G01*
X14083383Y-2420099D01*
X15683384Y-1720100D02*
G01*
X14083383Y-1720100D01*
X16623383Y-1720100D02*
G01*
X16623383Y-2420099D01*
X18223384Y-1720100D02*
G01*
X18223384Y-2420099D01*
X18223384Y-2420099D02*
G01*
X16623383Y-2420099D01*
X18223384Y-1720100D02*
G01*
X16623383Y-1720100D01*
X19163383Y-1720100D02*
G01*
X19163383Y-2420099D01*
X20763384Y-1720100D02*
G01*
X20763384Y-2420099D01*
X20763384Y-2420099D02*
G01*
X19163383Y-2420099D01*
X20763384Y-1720100D02*
G01*
X19163383Y-1720100D01*
X16032479Y-3302000D02*
G01*
X16921479Y-3302000D01*
X16921479Y-3937000D01*
X16032479Y-3937000D01*
X16032479Y-3302000D01*
X10147302Y7144486D02*
G01*
X13947294Y7144486D01*
X13947294Y2594482D01*
X10147302Y2594482D01*
X10147302Y7144486D01*
X10649303Y-2521699D02*
G01*
X10699302Y-2571699D01*
X10749302Y-2521699D01*
X10699302Y-2471699D01*
X10649303Y-2521699D01*
X11919303Y-2521699D02*
G01*
X11969302Y-2571699D01*
X12019302Y-2521699D01*
X11969302Y-2471699D01*
X11919303Y-2521699D01*
X16751300Y1308100D02*
G01*
X19037300Y1308100D01*
X19037300Y1308100D02*
G01*
X19037300Y1816100D01*
X19037300Y1816100D02*
G01*
X16751300Y1816100D01*
X16751300Y1625600D02*
G01*
X16751300Y1816100D01*
X16751300Y1498600D02*
G01*
X16751300Y1308100D01*
X21882100Y-1155700D02*
G01*
X20815300Y-1155700D01*
X20815300Y-1143000D02*
G01*
X20815300Y-762000D01*
X20815300Y-762000D02*
G01*
X20815300Y-698500D01*
X20815300Y-698500D02*
G01*
X21882100Y-698500D01*
X21882100Y-698500D02*
G01*
X21882100Y-762000D01*
X21882100Y-723900D02*
G01*
X21882100Y-1155700D01*
X21882100Y-749300D02*
G01*
X20815300Y-749300D01*
D14*
X12433300Y-2400300D02*
G01*
X13449300Y-2400300D01*
X13449300Y-1892300D01*
X12433300Y-1892300D01*
X12433300Y-2400300D01*
D15*
X13449300Y2095500D02*
G01*
X16598900Y2095500D01*
X16598900Y774700D01*
X13449300Y774700D01*
X13449300Y2095500D01*
X16294100Y1752600D02*
G01*
X16357600Y1816100D01*
X16484600Y1816100D01*
X16548100Y1752600D01*
X16548100Y1625600D01*
X16484600Y1562100D01*
X16548100Y1498600D01*
X16548100Y1371600D01*
X16484600Y1308100D01*
X16548100Y1244600D01*
X16548100Y1117600D01*
X16484600Y1054100D01*
X16357600Y1054100D01*
X16294100Y1117600D01*
X16294100Y1244600D01*
X16357600Y1308100D01*
X16294100Y1371600D01*
X16294100Y1498600D01*
X16357600Y1562100D01*
X16294100Y1625600D01*
X16294100Y1752600D01*
X13563600Y1943100D02*
G01*
X14198600Y1943100D01*
X14325600Y1943100D01*
X14325600Y1435100D01*
X14325600Y927100D01*
X14198600Y927100D01*
X13563600Y927100D01*
X13563600Y1435100D01*
X13563600Y1943100D01*
X14325600Y1435100D02*
G01*
X13563600Y1435100D01*
X14198600Y1943100D02*
G01*
X14198600Y927100D01*
D13*
X12362179Y1701800D02*
G01*
X12984479Y1701800D01*
X12984479Y-196850D01*
X12362179Y-196850D01*
X12362179Y1701800D01*
X9639300Y-1879600D02*
G01*
X8623300Y-1879600D01*
X8623300Y-2463800D02*
G01*
X9639300Y-2463800D01*
X9639300Y-1879600D02*
G01*
X9639300Y-2463800D01*
X8623300Y-1879600D02*
G01*
X8623300Y-2070100D01*
X8623300Y-2463800D02*
G01*
X8623300Y-2273300D01*
X21844000Y2095500D02*
G01*
X22072600Y2095500D01*
X22072600Y1422400D01*
X21844000Y1422400D01*
X21844000Y2095500D01*
D16*
X10349303Y-2171700D02*
G01*
X10857303Y-2171700D01*
X10349303Y-2171700D02*
G01*
X10708513Y-2530909D01*
G75*
G01*
X10603304Y-2171700D02*
G02*
X10528910Y-2351306I-254000J-2D01*
X10745289Y-2250694D02*
G01*
X10693473Y-2323592D01*
X10771451Y-2323592D01*
X10745289Y-2250694D02*
G01*
X10745289Y-2359913D01*
X10867971Y-2250694D02*
G01*
X10816155Y-2250694D01*
X10810821Y-2297429D01*
X10816155Y-2292350D01*
X10831649Y-2287015D01*
X10847143Y-2287015D01*
X10862891Y-2292350D01*
X10873305Y-2302763D01*
X10878385Y-2318257D01*
X10878385Y-2328671D01*
X10873305Y-2344165D01*
X10862891Y-2354579D01*
X10847143Y-2359913D01*
X10831649Y-2359913D01*
X10816155Y-2354579D01*
X10810821Y-2349500D01*
X10805741Y-2339086D01*
X10912675Y-2256028D02*
G01*
X10897181Y-2271521D01*
X10912675Y-2287015D01*
X10928169Y-2271521D01*
X10912675Y-2256028D01*
X11619303Y-2171700D02*
G01*
X12127303Y-2171700D01*
X11619303Y-2171700D02*
G01*
X11978513Y-2530909D01*
G75*
G01*
X11873304Y-2171700D02*
G02*
X11798910Y-2351306I-254000J-2D01*
X12015289Y-2250694D02*
G01*
X11963473Y-2323592D01*
X12041451Y-2323592D01*
X12015289Y-2250694D02*
G01*
X12015289Y-2359913D01*
X12137971Y-2250694D02*
G01*
X12086155Y-2250694D01*
X12080821Y-2297429D01*
X12086155Y-2292350D01*
X12101649Y-2287015D01*
X12117143Y-2287015D01*
X12132891Y-2292350D01*
X12143305Y-2302763D01*
X12148385Y-2318257D01*
X12148385Y-2328671D01*
X12143305Y-2344165D01*
X12132891Y-2354579D01*
X12117143Y-2359913D01*
X12101649Y-2359913D01*
X12086155Y-2354579D01*
X12080821Y-2349500D01*
X12075741Y-2339086D01*
X12182675Y-2256028D02*
G01*
X12167181Y-2271521D01*
X12182675Y-2287015D01*
X12198169Y-2271521D01*
X12182675Y-2256028D01*
D13*
G75*
G01*
X18929299Y-3247743D02*
G03*
X19237300Y-3247743I154000J-257456D01*
G75*
G01*
X19691299Y-3247743D02*
G03*
X19999300Y-3247743I154000J-257456D01*
G01*
X6021324Y4875530D02*
X6021324Y4875530D01*
G75*
G01*
X6120892Y5261508D02*
G02*
X6621018Y5261508I250063J0D01*
G75*
G01*
X6621018Y5261508D02*
G02*
X7120890Y5261508I249936J-5634D01*
G01*
X7871968Y4875276D02*
X7871968Y4875276D01*
G75*
G01*
X8120888Y5261508D02*
G02*
X8621014Y5261508I250063J0D01*
G75*
G01*
X8621014Y5261508D02*
G02*
X9120886Y5261508I249936J-5634D01*
G01*
X7919212Y4376674D02*
X7919212Y4376674D01*
G75*
G01*
X8118856Y3762908D02*
G02*
X7618730Y3762908I-250063J0D01*
G75*
G01*
X7618730Y3762908D02*
G02*
X7118858Y3762908I-249936J5635D01*
G01*
X8571230Y3375406D02*
X8571230Y3375406D01*
G75*
G01*
X16751303Y1625600D02*
G02*
X16751303Y1498600I0J-63500D01*
D15*
G75*
G01*
X14300200Y1689100D02*
G03*
X14300200Y1688694I-38099J-203D01*
G75*
G01*
X14300200Y1181100D02*
G03*
X14300200Y1180694I-38099J-203D01*
D13*
G75*
G01*
X8623300Y-2070100D02*
G02*
X8623300Y-2273300I0J-101600D01*
G75*
G01
X21953215Y-2032000D02*
G03X21953215Y-2032000I-314960J0D01*
G75*
G01
X17889215Y-3556000D02*
G03X17889215Y-3556000I-314960J0D01*
G75*
G01
X18651215Y-3556000D02*
G03X18651215Y-3556000I-314960J0D01*
G75*
G01
X16603980Y-3619500D02*
G03X16603980Y-3619500I-127000J0D01*
G75*
G01
X10805310Y-2171700D02*
G03X10805310Y-2171700I-456006J0D01*
G75*
G01
X10603304Y-2171700D02*
G03X10603304Y-2171700I-254000J0D01*
G75*
G01
X12075310Y-2171700D02*
G03X12075310Y-2171700I-456006J0D01*
G75*
G01
X11873304Y-2171700D02*
G03X11873304Y-2171700I-254000J0D01*
D15*
G75*
G01
X12573000Y-2298700D02*
G03X12573000Y-2298700I-12700J0D01*
D13*
G75*
G01
X12528855Y1600200D02*
G03X12528855Y1600200I-52375J0D01*
M02*
