G04 Layer: TopSolderMaskLayer*
G04 EasyEDA v6.5.37, 2023-12-04 20:02:08*
G04 2e98f3c38e0144009ebeba7f84222000,10*
G04 Gerber Generator version 0.2*
G04 Scale: 100 percent, Rotated: No, Reflected: No *
G04 Dimensions in millimeters *
G04 leading zeros omitted , absolute positions ,4 integer and 5 decimal *
%FSLAX45Y45*%
%MOMM*%

%AMMACRO1*1,1,$1,$2,$3*1,1,$1,$4,$5*1,1,$1,0-$2,0-$3*1,1,$1,0-$4,0-$5*20,1,$1,$2,$3,$4,$5,0*20,1,$1,$4,$5,0-$2,0-$3,0*20,1,$1,0-$2,0-$3,0-$4,0-$5,0*20,1,$1,0-$4,0-$5,$2,$3,0*4,1,4,$2,$3,$4,$5,0-$2,0-$3,0-$4,0-$5,$2,$3,0*%
%ADD10MACRO1,0.2032X-1.5X1.5X1.5X1.5*%
%ADD11C,3.2032*%
%ADD12C,1.6256*%
%ADD13C,1.8032*%
%ADD14C,2.4892*%
%ADD15C,3.6016*%
%ADD16C,1.7272*%
%ADD17C,2.2032*%
%ADD18C,3.1016*%
%ADD19C,2.0032*%
%ADD20MACRO1,0.2032X0.9X-0.9X-0.9X-0.9*%
%ADD21C,1.9812*%
%ADD22C,1.9812*%
%ADD23C,2.1336*%
%ADD24O,2.2031959999999997X4.203192*%
%ADD25O,2.101596X4.101592*%
%ADD26C,1.7016*%
%ADD27MACRO1,0.2032X-0.762X-1.524X-0.762X1.524*%
%ADD28MACRO1,0.1016X-1.1001X1.1001X1.1001X1.1001*%
%ADD29C,2.3016*%
%ADD30R,0.8382X0.8382*%
%ADD31C,0.8382*%
%ADD32MACRO1,0.1016X-0.754X0.754X0.754X0.754*%
%ADD33C,1.6096*%
%ADD34MACRO1,0.1016X-1.2499X1.2499X1.2499X1.2499*%
%ADD35C,2.6015*%
%ADD36O,1.9812X2.7432000000000003*%
%ADD37MACRO1,0.2032X-0.762X0.762X0.762X0.762*%

%LPD*%
D10*
G01*
X5481459Y1587500D03*
D11*
G01*
X5481459Y-723900D03*
D12*
G01*
X13091312Y-3548100D03*
G01*
X14091310Y-3548100D03*
G01*
X14615312Y-3548100D03*
G01*
X15615310Y-3548100D03*
D13*
G01*
X21763222Y-2032000D03*
G01*
X21513286Y-2032000D03*
G01*
X17699222Y-3556000D03*
G01*
X17449286Y-3556000D03*
G01*
X18461222Y-3556000D03*
G01*
X18211286Y-3556000D03*
D14*
G01*
X19083299Y-3670300D03*
G01*
X19083299Y-3378200D03*
G01*
X19845299Y-3670300D03*
G01*
X19845299Y-3378200D03*
D15*
G01*
X5621299Y-2019300D03*
G01*
X6671309Y-2019300D03*
G01*
X7371308Y-2019300D03*
G01*
X8071307Y-2019300D03*
D16*
G01*
X14297657Y2730500D03*
G01*
X15059657Y2730500D03*
G01*
X15567657Y2730500D03*
G01*
X16329657Y2730500D03*
G01*
X16837657Y2730500D03*
G01*
X17599657Y2730500D03*
D17*
G01*
X12289459Y-901700D03*
G01*
X14067459Y-901700D03*
G01*
X14575459Y-901700D03*
G01*
X16353459Y-901700D03*
D18*
G01*
X6371081Y5261355D03*
G01*
X8371077Y5261355D03*
G01*
X7369047Y3762502D03*
D19*
G01*
X18820891Y6899503D03*
G01*
X18566891Y6899503D03*
G01*
X18312891Y6899503D03*
G01*
X18058891Y6899503D03*
G01*
X17804891Y6899503D03*
G01*
X17550891Y6899503D03*
G01*
X17296891Y6899503D03*
G01*
X17042891Y6899503D03*
G01*
X16788891Y6899503D03*
G01*
X16534891Y6899503D03*
G01*
X16280891Y6899503D03*
G01*
X16026891Y6899503D03*
G01*
X15772891Y6899503D03*
G01*
X15518891Y6899503D03*
G01*
X15264891Y6899503D03*
D20*
G01*
X15010892Y6899503D03*
D21*
G01*
X19761299Y1409700D03*
G01*
X20015299Y1663700D03*
G01*
X19507299Y1663700D03*
G01*
X21031299Y1409700D03*
G01*
X21285299Y1663700D03*
G01*
X20777299Y1663700D03*
D22*
G01*
X16850359Y-927100D03*
G01*
X18374359Y-927100D03*
G01*
X18882359Y-927100D03*
G01*
X20406359Y-927100D03*
G01*
X20406359Y-3467100D03*
G01*
X21930359Y-3467100D03*
G01*
X5420359Y-4737100D03*
G01*
X6944359Y-4737100D03*
D15*
G01*
X5501386Y-3594100D03*
G01*
X7501381Y-3594100D03*
G01*
X8041386Y-3594100D03*
G01*
X10041381Y-3594100D03*
G01*
X10581386Y-3594100D03*
G01*
X12581381Y-3594100D03*
G01*
X13883386Y-2070100D03*
G01*
X15883381Y-2070100D03*
G01*
X16423386Y-2070100D03*
G01*
X18423381Y-2070100D03*
G01*
X18963386Y-2070100D03*
G01*
X20963381Y-2070100D03*
D23*
G01*
X16095979Y-3365500D03*
G01*
X16857979Y-3365500D03*
G01*
X16857979Y-3873500D03*
G01*
X16095979Y-3873500D03*
D24*
G01*
X10797313Y3619500D03*
D25*
G01*
X10797313Y6119495D03*
D24*
G01*
X13307316Y5619495D03*
G01*
X13297308Y4119498D03*
D26*
G01*
X10349303Y-2425700D03*
G01*
X10095303Y-2171700D03*
G01*
X10349303Y-1917700D03*
G01*
X10603303Y-2171700D03*
G01*
X11619303Y-2425700D03*
G01*
X11365303Y-2171700D03*
G01*
X11619303Y-1917700D03*
G01*
X11873303Y-2171700D03*
D27*
G01*
X16878300Y1943023D03*
G01*
X17132300Y1943023D03*
G01*
X17386300Y1943023D03*
G01*
X17640300Y1943023D03*
G01*
X17894300Y1943023D03*
G01*
X18148300Y1943023D03*
G01*
X18402300Y1943023D03*
G01*
X18656300Y1943023D03*
G01*
X18910300Y1943023D03*
G01*
X18910300Y1181023D03*
G01*
X18656300Y1181023D03*
G01*
X18402300Y1181023D03*
G01*
X18148300Y1181023D03*
G01*
X17894300Y1181023D03*
G01*
X17640300Y1181023D03*
G01*
X17386300Y1181023D03*
G01*
X17132300Y1181023D03*
G01*
X16878300Y1181023D03*
D28*
G01*
X20967700Y-952500D03*
D29*
G01*
X21374100Y-952500D03*
G01*
X21729700Y-952500D03*
D30*
G01*
X12560300Y-2527300D03*
D31*
G01*
X12814300Y-2527300D03*
G01*
X13068300Y-2527300D03*
G01*
X13322300Y-2527300D03*
G01*
X13068300Y-1765300D03*
G01*
X12814300Y-1765300D03*
G01*
X12560300Y-1765300D03*
G01*
X13322300Y-1765300D03*
D32*
G01*
X16421100Y1689100D03*
D33*
G01*
X16421100Y1435100D03*
G01*
X16421100Y1181100D03*
D34*
G01*
X13881100Y1689100D03*
D35*
G01*
X13881100Y1181100D03*
D12*
G01*
X12260579Y1511300D03*
G01*
X12260579Y1257300D03*
G01*
X12260579Y1003300D03*
G01*
X12260579Y749300D03*
G01*
X12260579Y495300D03*
G01*
X12260579Y241300D03*
G01*
X12260579Y-12700D03*
G01*
X13086079Y1511300D03*
G01*
X13086079Y1257300D03*
G01*
X13086079Y1003300D03*
G01*
X13086079Y749300D03*
G01*
X13086079Y495300D03*
G01*
X13086079Y241300D03*
G01*
X13086079Y-12700D03*
D36*
G01*
X8750300Y-2552700D03*
G01*
X9004300Y-2552700D03*
G01*
X9004300Y-1790700D03*
G01*
X8750300Y-1790700D03*
G01*
X9258300Y-2552700D03*
G01*
X9512300Y-2552700D03*
G01*
X9258300Y-1790700D03*
G01*
X9512300Y-1790700D03*
D37*
G01*
X21958300Y1536700D03*
G01*
X21958300Y1968500D03*
M02*
