G04 Layer: BottomLayer*
G04 EasyEDA v6.5.37, 2023-12-04 20:02:08*
G04 2e98f3c38e0144009ebeba7f84222000,10*
G04 Gerber Generator version 0.2*
G04 Scale: 100 percent, Rotated: No, Reflected: No *
G04 Dimensions in millimeters *
G04 leading zeros omitted , absolute positions ,4 integer and 5 decimal *
%FSLAX45Y45*%
%MOMM*%

%ADD10C,0.2540*%
%ADD11R,3.0000X3.0000*%
%ADD12C,3.0000*%
%ADD13C,1.5240*%
%ADD14C,1.6000*%
%ADD15C,2.2860*%
%ADD16C,3.5000*%
%ADD17C,2.0000*%
%ADD18C,1.8000*%
%ADD19R,1.8000X1.8000*%
%ADD20C,1.7780*%
%ADD21C,1.8796*%
%ADD22C,2.0320*%
%ADD23O,1.9999959999999999X3.9999919999999998*%
%ADD24R,1.5240X3.0480*%
%ADD25R,2.2000X2.2000*%
%ADD26C,2.2000*%
%ADD27R,0.8382X0.8382*%
%ADD28C,0.8382*%
%ADD29R,1.5080X1.5080*%
%ADD30C,1.5080*%
%ADD31R,2.4999X2.4999*%
%ADD32C,2.4999*%
%ADD33O,1.778X2.54*%
%ADD34R,1.5240X1.5240*%
%ADD35C,0.6096*%
%ADD36C,0.0144*%

%LPD*%
D10*
X12814302Y-2527302D02*
G01*
X13011304Y-2330300D01*
X15109243Y-2330300D01*
X16536469Y-903074D01*
X16536469Y1319730D01*
X16421102Y1435097D01*
X13322302Y-1765302D02*
G01*
X14381660Y-1765302D01*
X15447876Y-699086D01*
X15447876Y-84076D01*
X9258302Y-2552702D02*
G01*
X8618273Y-1912673D01*
X8618273Y-649277D01*
X11408920Y2141369D01*
X10349308Y-1917702D02*
G01*
X10349308Y-903150D01*
X12146663Y894204D01*
X9258302Y-1790702D02*
G01*
X12179302Y1130297D01*
X13169343Y1130297D01*
X13728143Y1689097D01*
X13881102Y1689097D02*
G01*
X13804623Y1689097D01*
X13804623Y1689097D02*
G01*
X13728143Y1689097D01*
X13804623Y1689097D02*
G01*
X13804623Y1865119D01*
X14165861Y2226358D01*
X20963384Y-2070102D02*
G01*
X20731025Y-1837743D01*
X20731025Y616938D01*
X19121605Y2226358D01*
X12560302Y-2527302D02*
G01*
X12560302Y-3573020D01*
X12581384Y-3594102D01*
X17386302Y1181021D02*
G01*
X17386302Y-3345182D01*
X16857982Y-3873502D01*
X15518894Y6899501D02*
G01*
X17490594Y4927800D01*
X17490594Y1699181D01*
X17422294Y1630880D01*
X18910302Y1000655D02*
G01*
X18900701Y991054D01*
X18577206Y991054D01*
X18552010Y1016251D01*
X18552010Y1305049D01*
X18242866Y1614192D01*
X18123029Y1614192D01*
X17998569Y1738652D01*
X17998569Y4673826D01*
X15772894Y6899501D01*
X18910302Y1181021D02*
G01*
X18910302Y1000655D01*
X18656302Y1181021D02*
G01*
X18656302Y1361386D01*
X16280894Y6899501D02*
G01*
X18044010Y5136385D01*
X18044010Y1769361D01*
X18140276Y1673095D01*
X18344593Y1673095D01*
X18656302Y1361386D01*
X17550894Y6899501D02*
G01*
X18910302Y5540093D01*
X18910302Y1943021D01*
X17804894Y6899501D02*
G01*
X17678224Y7026170D01*
X17507841Y7026170D01*
X17423894Y6942223D01*
X17423894Y6021372D01*
X18656302Y4788964D01*
X18656302Y1943021D01*
X18402302Y1943021D02*
G01*
X18402302Y4839713D01*
X17169894Y6072121D01*
X17169894Y6948370D01*
X17300298Y7078774D01*
X17879621Y7078774D01*
X18058894Y6899501D01*
X18312894Y6899501D02*
G01*
X19024424Y6187970D01*
X19024424Y1781426D01*
X19002834Y1759836D01*
X18151121Y1759836D01*
X18148302Y1762655D01*
X18148302Y1943021D02*
G01*
X18148302Y1762655D01*
X13881102Y1181097D02*
G01*
X14270662Y1181097D01*
X16353462Y-901702D01*
X15567662Y2730497D02*
G01*
X14327583Y1490418D01*
X13910134Y1490418D01*
X13652502Y1232786D01*
X13652502Y902942D01*
X13123801Y374241D01*
X13057228Y374241D01*
X12030509Y-652477D01*
X12030509Y-2280820D01*
X10925380Y-3385949D01*
X10925380Y-4737102D01*
X13297308Y4119496D02*
G01*
X7371311Y-1806501D01*
X7371311Y-2019302D01*
X13307316Y5619493D02*
G01*
X6671312Y-1016510D01*
X6671312Y-2019302D01*
X19845301Y-3378202D02*
G01*
X19845301Y-735078D01*
X18688687Y421535D01*
X16477922Y421535D02*
G01*
X15872106Y1027351D01*
X15801190Y1027351D01*
X20406362Y-927102D02*
G01*
X20406362Y-3109241D01*
X19845301Y-3670302D01*
X19083301Y-3378202D02*
G01*
X18760290Y-3055190D01*
X18760290Y-968402D01*
X18654753Y-862865D01*
X16860319Y-716155D02*
G01*
X16774010Y-629846D01*
X16774010Y1658363D01*
X16878302Y1762655D01*
X16878302Y1943021D02*
G01*
X16878302Y1762655D01*
X18374362Y-927102D02*
G01*
X18626990Y-1179730D01*
X18626990Y-3213991D01*
X19083301Y-3670302D01*
X10095308Y-2171702D02*
G01*
X10095308Y-3108022D01*
X10581388Y-3594102D01*
X21729702Y-952502D02*
G01*
X21729702Y1219299D01*
X21285304Y1663697D01*
X21285304Y1663697D02*
G01*
X21157491Y1535884D01*
X20143116Y1535884D01*
X20015304Y1663697D01*
X18566894Y6899501D02*
G01*
X20015304Y5451091D01*
X20015304Y1663697D01*
X16421102Y1689097D02*
G01*
X16524480Y1689097D01*
X18882362Y-927102D02*
G01*
X18759578Y-804318D01*
X18324146Y-804318D01*
X18211294Y-917171D01*
X18211294Y-3556002D01*
X16850362Y-927102D02*
G01*
X16577236Y-653976D01*
X16577236Y1636341D01*
X16524480Y1689097D01*
X9004302Y-1790702D02*
G01*
X12179302Y1384297D01*
X12300409Y1384297D01*
X13227433Y2311321D01*
X14640486Y2311321D01*
X15059662Y2730497D01*
X17449294Y-3556002D02*
G01*
X17755745Y-3249551D01*
X17755745Y-655246D01*
X17755745Y-655246D02*
G01*
X17755745Y2574414D01*
X17599662Y2730497D01*
X11117963Y-4605835D02*
G01*
X12289462Y-3434336D01*
X12289462Y-901702D01*
X13176709Y171345D02*
G01*
X14354202Y-1006172D01*
X14354202Y-1154584D01*
X14629996Y-1430378D01*
X12289462Y-901702D02*
G01*
X12289462Y-645187D01*
X13048947Y114297D01*
X13119661Y114297D01*
X13176709Y171345D01*
X13176709Y171345D02*
G01*
X13728042Y722678D01*
X13728042Y1244470D01*
X13839827Y1356255D01*
X15463420Y1356255D01*
X16837662Y2730497D01*
X12814302Y-1765302D02*
G01*
X12722303Y-1857301D01*
X12722303Y-3327453D01*
X13103557Y-3708707D01*
X14454710Y-3708707D01*
X14615314Y-3548103D01*
X14615314Y-3548103D02*
G01*
X14714374Y-3548103D01*
X16156739Y-2105738D01*
X16156739Y-1867004D01*
X17236594Y-787148D01*
X17236594Y1358948D01*
X17640302Y1762655D01*
X17640302Y1943021D02*
G01*
X17640302Y1762655D01*
X13091314Y-3548103D02*
G01*
X13199849Y-3656637D01*
X14136601Y-3656637D01*
X14222478Y-3570759D01*
X14222478Y-3434971D01*
X16266949Y-1390500D01*
X16575559Y-1390500D01*
X16982594Y-983465D01*
X16982594Y1358948D01*
X17386302Y1762655D01*
X17386302Y1943021D02*
G01*
X17386302Y1762655D01*
X12260582Y-12702D02*
G01*
X11765206Y-508078D01*
X11765206Y-2279804D01*
X11619308Y-2425702D01*
X13322302Y-2527302D02*
G01*
X14091312Y-3296312D01*
X14091312Y-3548103D01*
X16423388Y-2070102D02*
G01*
X16423388Y-3038096D01*
X16095982Y-3365502D01*
X21930362Y-3467102D02*
G01*
X21763230Y-3299970D01*
X21763230Y-2032002D01*
X17894302Y1181021D02*
G01*
X17894302Y1000655D01*
X18820894Y6899501D02*
G01*
X20777304Y4943091D01*
X20777304Y1663697D01*
X7501384Y-3594102D02*
G01*
X7501384Y-2589227D01*
X7501384Y-2589227D02*
G01*
X8071309Y-2019302D01*
X21374102Y-952502D02*
G01*
X21763230Y-1341630D01*
X21763230Y-2032002D01*
X17699230Y-3556002D02*
G01*
X17948963Y-3306269D01*
X17948963Y945995D01*
X19507304Y1663697D02*
G01*
X19507304Y1494304D01*
X18958994Y945995D01*
X17948963Y945995D01*
X17948963Y945995D02*
G01*
X17894302Y1000655D01*
X7501384Y-2589227D02*
G01*
X6935294Y-2589227D01*
X5481449Y-1135382D01*
X5481449Y-723902D01*
X5481449Y-723902D02*
G01*
X7369050Y1163698D01*
X7369050Y3762499D01*
D11*
G01*
X5481459Y1587500D03*
D12*
G01*
X5481459Y-723900D03*
D13*
G01*
X13091312Y-3548100D03*
G01*
X14091310Y-3548100D03*
G01*
X14615312Y-3548100D03*
G01*
X15615310Y-3548100D03*
D14*
G01*
X21763222Y-2032000D03*
G01*
X21513286Y-2032000D03*
G01*
X17699222Y-3556000D03*
G01*
X17449286Y-3556000D03*
G01*
X18461222Y-3556000D03*
G01*
X18211286Y-3556000D03*
D15*
G01*
X19083299Y-3670300D03*
G01*
X19083299Y-3378200D03*
G01*
X19845299Y-3670300D03*
G01*
X19845299Y-3378200D03*
D16*
G01*
X5621299Y-2019300D03*
G01*
X6671309Y-2019300D03*
G01*
X7371308Y-2019300D03*
G01*
X8071307Y-2019300D03*
D13*
G01*
X14297657Y2730500D03*
G01*
X15059657Y2730500D03*
G01*
X15567657Y2730500D03*
G01*
X16329657Y2730500D03*
G01*
X16837657Y2730500D03*
G01*
X17599657Y2730500D03*
D17*
G01*
X12289459Y-901700D03*
G01*
X14067459Y-901700D03*
G01*
X14575459Y-901700D03*
G01*
X16353459Y-901700D03*
D12*
G01*
X6371081Y5261355D03*
G01*
X8371077Y5261355D03*
G01*
X7369047Y3762502D03*
D18*
G01*
X18820891Y6899503D03*
G01*
X18566891Y6899503D03*
G01*
X18312891Y6899503D03*
G01*
X18058891Y6899503D03*
G01*
X17804891Y6899503D03*
G01*
X17550891Y6899503D03*
G01*
X17296891Y6899503D03*
G01*
X17042891Y6899503D03*
G01*
X16788891Y6899503D03*
G01*
X16534891Y6899503D03*
G01*
X16280891Y6899503D03*
G01*
X16026891Y6899503D03*
G01*
X15772891Y6899503D03*
G01*
X15518891Y6899503D03*
G01*
X15264891Y6899503D03*
D19*
G01*
X15010891Y6899503D03*
D20*
G01*
X19761299Y1409700D03*
G01*
X20015299Y1663700D03*
G01*
X19507299Y1663700D03*
G01*
X21031299Y1409700D03*
G01*
X21285299Y1663700D03*
G01*
X20777299Y1663700D03*
D21*
G01*
X16850359Y-927100D03*
G01*
X18374359Y-927100D03*
G01*
X18882359Y-927100D03*
G01*
X20406359Y-927100D03*
G01*
X20406359Y-3467100D03*
G01*
X21930359Y-3467100D03*
G01*
X5420359Y-4737100D03*
G01*
X6944359Y-4737100D03*
D16*
G01*
X5501386Y-3594100D03*
G01*
X7501381Y-3594100D03*
G01*
X8041386Y-3594100D03*
G01*
X10041381Y-3594100D03*
G01*
X10581386Y-3594100D03*
G01*
X12581381Y-3594100D03*
G01*
X13883386Y-2070100D03*
G01*
X15883381Y-2070100D03*
G01*
X16423386Y-2070100D03*
G01*
X18423381Y-2070100D03*
G01*
X18963386Y-2070100D03*
G01*
X20963381Y-2070100D03*
D22*
G01*
X16095979Y-3365500D03*
G01*
X16857979Y-3365500D03*
G01*
X16857979Y-3873500D03*
G01*
X16095979Y-3873500D03*
D23*
G01*
X10797313Y3619500D03*
G01*
X10797313Y6119495D03*
G01*
X13307316Y5619495D03*
G01*
X13297308Y4119498D03*
D14*
G01*
X10349303Y-2425700D03*
G01*
X10095303Y-2171700D03*
G01*
X10349303Y-1917700D03*
G01*
X10603303Y-2171700D03*
G01*
X11619303Y-2425700D03*
G01*
X11365303Y-2171700D03*
G01*
X11619303Y-1917700D03*
G01*
X11873303Y-2171700D03*
D24*
G01*
X16878300Y1943023D03*
G01*
X17132300Y1943023D03*
G01*
X17386300Y1943023D03*
G01*
X17640300Y1943023D03*
G01*
X17894300Y1943023D03*
G01*
X18148300Y1943023D03*
G01*
X18402300Y1943023D03*
G01*
X18656300Y1943023D03*
G01*
X18910300Y1943023D03*
G01*
X18910300Y1181023D03*
G01*
X18656300Y1181023D03*
G01*
X18402300Y1181023D03*
G01*
X18148300Y1181023D03*
G01*
X17894300Y1181023D03*
G01*
X17640300Y1181023D03*
G01*
X17386300Y1181023D03*
G01*
X17132300Y1181023D03*
G01*
X16878300Y1181023D03*
D25*
G01*
X20967700Y-952500D03*
D26*
G01*
X21374100Y-952500D03*
G01*
X21729700Y-952500D03*
D27*
G01*
X12560300Y-2527300D03*
D28*
G01*
X12814300Y-2527300D03*
G01*
X13068300Y-2527300D03*
G01*
X13322300Y-2527300D03*
G01*
X13068300Y-1765300D03*
G01*
X12814300Y-1765300D03*
G01*
X12560300Y-1765300D03*
G01*
X13322300Y-1765300D03*
D29*
G01*
X16421100Y1689100D03*
D30*
G01*
X16421100Y1435100D03*
G01*
X16421100Y1181100D03*
D31*
G01*
X13881100Y1689100D03*
D32*
G01*
X13881100Y1181100D03*
D13*
G01*
X12260579Y1511300D03*
G01*
X12260579Y1257300D03*
G01*
X12260579Y1003300D03*
G01*
X12260579Y749300D03*
G01*
X12260579Y495300D03*
G01*
X12260579Y241300D03*
G01*
X12260579Y-12700D03*
G01*
X13086079Y1511300D03*
G01*
X13086079Y1257300D03*
G01*
X13086079Y1003300D03*
G01*
X13086079Y749300D03*
G01*
X13086079Y495300D03*
G01*
X13086079Y241300D03*
G01*
X13086079Y-12700D03*
D33*
G01*
X8750300Y-2552700D03*
G01*
X9004300Y-2552700D03*
G01*
X9004300Y-1790700D03*
G01*
X8750300Y-1790700D03*
G01*
X9258300Y-2552700D03*
G01*
X9512300Y-2552700D03*
G01*
X9258300Y-1790700D03*
G01*
X9512300Y-1790700D03*
D34*
G01*
X21958300Y1536700D03*
G01*
X21958300Y1968500D03*
D35*
G01*
X14629996Y-1430378D03*
G01*
X11117963Y-4605835D03*
G01*
X17755745Y-655246D03*
G01*
X16860319Y-716155D03*
G01*
X18654753Y-862865D03*
G01*
X18688687Y421535D03*
G01*
X16477922Y421535D03*
G01*
X15801190Y1027351D03*
G01*
X10925380Y-4737102D03*
G01*
X17422294Y1630880D03*
G01*
X19121605Y2226358D03*
G01*
X14165861Y2226358D03*
G01*
X12146663Y894204D03*
G01*
X11408920Y2141369D03*
G01*
X15447876Y-84076D03*
M02*
