G04 Layer: TopLayer*
G04 EasyEDA v6.5.37, 2023-12-04 20:02:08*
G04 2e98f3c38e0144009ebeba7f84222000,10*
G04 Gerber Generator version 0.2*
G04 Scale: 100 percent, Rotated: No, Reflected: No *
G04 Dimensions in millimeters *
G04 leading zeros omitted , absolute positions ,4 integer and 5 decimal *
%FSLAX45Y45*%
%MOMM*%

%ADD10C,0.2032*%
%ADD11C,0.2540*%
%ADD12R,3.0000X3.0000*%
%ADD13C,3.0000*%
%ADD14C,1.5240*%
%ADD15C,1.6000*%
%ADD16C,2.2860*%
%ADD17C,3.5000*%
%ADD18C,2.0000*%
%ADD19C,1.8000*%
%ADD20R,1.8000X1.8000*%
%ADD21C,1.7780*%
%ADD22C,1.8796*%
%ADD23C,2.0320*%
%ADD24O,1.9999959999999999X3.9999919999999998*%
%ADD25R,1.5240X3.0480*%
%ADD26R,2.2000X2.2000*%
%ADD27C,2.2000*%
%ADD28R,0.8382X0.8382*%
%ADD29C,0.8382*%
%ADD30R,1.5080X1.5080*%
%ADD31C,1.5080*%
%ADD32R,2.4999X2.4999*%
%ADD33C,2.4999*%
%ADD34O,1.778X2.54*%
%ADD35R,1.5240X1.5240*%
%ADD36C,0.6096*%
%ADD37C,0.0159*%

%LPD*%
D10*
X11604932Y5054648D02*
G01*
X11604932Y4897422D01*
X11614330Y4869736D01*
X11632618Y4860592D01*
X11651160Y4860592D01*
X11577246Y4989878D02*
G01*
X11642016Y4989878D01*
X11712120Y4989878D02*
G01*
X11712120Y4860592D01*
X11712120Y4934506D02*
G01*
X11721518Y4962192D01*
X11739806Y4980734D01*
X11758348Y4989878D01*
X11786034Y4989878D01*
X11939450Y5054648D02*
G01*
X11846994Y4925362D01*
X11985678Y4925362D01*
X11939450Y5054648D02*
G01*
X11939450Y4860592D01*
X12157382Y5054648D02*
G01*
X12064926Y5054648D01*
X12055782Y4971336D01*
X12064926Y4980734D01*
X12092612Y4989878D01*
X12120298Y4989878D01*
X12148238Y4980734D01*
X12166526Y4962192D01*
X12175924Y4934506D01*
X12175924Y4915964D01*
X12166526Y4888278D01*
X12148238Y4869736D01*
X12120298Y4860592D01*
X12092612Y4860592D01*
X12064926Y4869736D01*
X12055782Y4879134D01*
X12046638Y4897422D01*
X12236884Y5017564D02*
G01*
X12255172Y5026962D01*
X12282858Y5054648D01*
X12282858Y4860592D01*
X12353216Y5008420D02*
G01*
X12353216Y5017564D01*
X12362360Y5036106D01*
X12371758Y5045250D01*
X12390046Y5054648D01*
X12427130Y5054648D01*
X12445418Y5045250D01*
X12454816Y5036106D01*
X12463960Y5017564D01*
X12463960Y4999022D01*
X12454816Y4980734D01*
X12436274Y4953048D01*
X12343818Y4860592D01*
X12473358Y4860592D01*
D11*
X18148302Y1181021D02*
G01*
X18148302Y1000655D01*
X15447876Y-84076D02*
G01*
X16407589Y875637D01*
X18023283Y875637D01*
X18148302Y1000655D01*
X18402302Y1181021D02*
G01*
X18402302Y1000655D01*
X13068302Y-1765302D02*
G01*
X13285574Y-1548030D01*
X14306831Y-1548030D01*
X16414777Y559915D01*
X17961587Y559915D01*
X17961587Y559940D01*
X18402302Y1000655D01*
X17132302Y1943021D02*
G01*
X17132302Y2123386D01*
X11408920Y2141369D02*
G01*
X17114319Y2141369D01*
X17132302Y2123386D01*
X16878302Y1361386D02*
G01*
X16781553Y1361386D01*
X16712389Y1292222D01*
X16358085Y1292222D01*
X14718337Y-347525D01*
X14718337Y-948667D01*
X14479323Y-1187681D01*
X12349330Y-1187681D01*
X11619308Y-1917702D01*
X16878302Y1181021D02*
G01*
X16878302Y1361386D01*
X17132302Y1181021D02*
G01*
X17132302Y1361386D01*
X12146663Y894204D02*
G01*
X15750872Y894204D01*
X15961489Y1104821D01*
X15961489Y1123261D01*
X16379700Y1541472D01*
X16952216Y1541472D01*
X17132302Y1361386D01*
X14165861Y2226358D02*
G01*
X19121605Y2226358D01*
X9004302Y-2552702D02*
G01*
X9166303Y-2714703D01*
X17778783Y-2714703D01*
X18423384Y-2070102D01*
X18963388Y-2070102D02*
G01*
X18423384Y-2070102D01*
X13068302Y-2527302D02*
G01*
X13260199Y-2335405D01*
X15618081Y-2335405D01*
X15883384Y-2070102D01*
X16857982Y-3873502D02*
G01*
X16728290Y-3743810D01*
X15300937Y-3743810D01*
X15246657Y-3798089D01*
X10245371Y-3798089D01*
X10041384Y-3594102D01*
X17640302Y1181021D02*
G01*
X17640302Y1361386D01*
X17640302Y1361386D02*
G01*
X17640429Y1361513D01*
X19401309Y1361513D01*
X19482310Y1280513D01*
X20902119Y1280513D01*
X21031304Y1409697D01*
X19761304Y1409697D02*
G01*
X17643477Y1409697D01*
X17422294Y1630880D01*
X10797313Y6119492D02*
G01*
X9229219Y6119492D01*
X8371080Y5261353D01*
X10797313Y3619497D02*
G01*
X8012940Y3619497D01*
X6371084Y5261353D01*
X5501388Y-3594102D02*
G01*
X7948602Y-1146888D01*
X14330276Y-1146888D01*
X14575462Y-901702D01*
X6944362Y-4737102D02*
G01*
X10925380Y-4737102D01*
X10925380Y-4737102D02*
G01*
X19136362Y-4737102D01*
X20406362Y-3467102D01*
X14067462Y-901702D02*
G01*
X13892761Y-1076403D01*
X6564200Y-1076403D01*
X5621301Y-2019302D01*
X16477922Y421535D02*
G01*
X18688687Y421535D01*
X12260582Y1257297D02*
G01*
X12387582Y1130297D01*
X13702718Y1130297D01*
X13805664Y1027351D01*
X15801190Y1027351D01*
X16878302Y1943021D02*
G01*
X16878302Y1762655D01*
X16878302Y1762655D02*
G01*
X16774137Y1762655D01*
X16683941Y1852851D01*
X12602136Y1852851D01*
X12260582Y1511297D01*
X18654753Y-862865D02*
G01*
X18508042Y-716155D01*
X16860319Y-716155D01*
X13086082Y1511297D02*
G01*
X16139949Y1511297D01*
X16317749Y1689097D01*
X11365308Y-2171702D02*
G01*
X11365308Y-2049630D01*
X12560302Y-1765302D02*
G01*
X12275974Y-2049630D01*
X11365308Y-2049630D01*
X11365308Y-2049630D02*
G01*
X10217381Y-2049630D01*
X10095308Y-2171702D01*
X10581388Y-3594102D02*
G01*
X10377832Y-3390546D01*
X8244944Y-3390546D01*
X8041388Y-3594102D01*
X12560302Y-1765302D02*
G01*
X12634318Y-1691286D01*
X12878132Y-1691286D01*
X13256948Y-2070102D01*
X13883388Y-2070102D01*
X13883388Y-2070102D02*
G01*
X14626668Y-1326822D01*
X16450642Y-1326822D01*
X16850362Y-927102D01*
X18882362Y-927102D02*
G01*
X18748428Y-1061036D01*
X16984296Y-1061036D01*
X16850362Y-927102D01*
X18882362Y-927102D02*
G01*
X19053329Y-1098069D01*
X21584135Y-1098069D01*
X21729702Y-952502D01*
X15264894Y6899501D02*
G01*
X15393215Y6771180D01*
X18438573Y6771180D01*
X18566894Y6899501D01*
X16369438Y1689097D02*
G01*
X16317749Y1689097D01*
X16369438Y1689097D02*
G01*
X16421102Y1689097D01*
X16421102Y1689097D02*
G01*
X17163214Y1689097D01*
X17281730Y1807613D01*
X17281730Y2116096D01*
X17300907Y2135273D01*
X17882415Y2135273D01*
X17894302Y2123386D01*
X17894302Y1943021D02*
G01*
X17894302Y2123386D01*
X15059662Y2730497D02*
G01*
X15170076Y2840911D01*
X17489248Y2840911D01*
X17599662Y2730497D01*
X20967702Y-952502D02*
G01*
X20829729Y-952502D01*
X20829729Y-952502D02*
G01*
X20532473Y-655246D01*
X17755745Y-655246D01*
X11117963Y-4605835D02*
G01*
X5551629Y-4605835D01*
X5420362Y-4737102D01*
X14629996Y-1430378D02*
G01*
X20911670Y-1430378D01*
X21513294Y-2032002D01*
X21958302Y1968497D02*
G01*
X19596280Y1968497D01*
X19390311Y1762528D01*
X17640429Y1762528D01*
X17640302Y1762655D01*
X17640302Y1943021D02*
G01*
X17640302Y1762655D01*
X12814302Y-1765302D02*
G01*
X12407902Y-2171702D01*
X11873308Y-2171702D01*
X11873308Y-2171702D02*
G01*
X11765206Y-2279804D01*
X10711411Y-2279804D01*
X10603308Y-2171702D01*
X17386302Y1943021D02*
G01*
X17386302Y1762655D01*
X21958302Y1536697D02*
G01*
X17612260Y1536697D01*
X17386302Y1762655D01*
X9512302Y-2552702D02*
G01*
X10222308Y-2552702D01*
X10349308Y-2425702D01*
X16421102Y1181097D02*
G01*
X16601671Y1000528D01*
X17894175Y1000528D01*
X17894302Y1000655D01*
X17894302Y1181021D02*
G01*
X17894302Y1000655D01*
X10349308Y-2425702D02*
G01*
X11619308Y-2425702D01*
X11619308Y-2425702D02*
G01*
X11797591Y-2603985D01*
X13245619Y-2603985D01*
X13322302Y-2527302D01*
X20777304Y1663697D02*
G01*
X20649237Y1791764D01*
X19635370Y1791764D01*
X19507304Y1663697D01*
X15010894Y6899501D02*
G01*
X15128852Y6899501D01*
X15128852Y6899501D02*
G01*
X15128852Y6958479D01*
X15198168Y7027796D01*
X15898599Y7027796D01*
X16026894Y6899501D01*
X16026894Y6899501D02*
G01*
X16156688Y7029295D01*
X18691100Y7029295D01*
X18820894Y6899501D01*
X8071309Y-2019302D02*
G01*
X8978902Y-2019302D01*
X9512302Y-2552702D01*
X17699230Y-3674645D02*
G01*
X17699230Y-3556002D01*
X17699230Y-3674645D02*
G01*
X16405125Y-3674645D01*
X16095982Y-3365502D01*
X16095982Y-3365502D02*
G01*
X15797913Y-3365502D01*
X15615312Y-3548103D01*
X15615312Y-3548103D02*
G01*
X15508353Y-3655062D01*
X14198272Y-3655062D01*
X14091312Y-3548103D01*
X17699230Y-3674645D02*
G01*
X18342587Y-3674645D01*
X18461230Y-3556002D01*
X18461230Y-3556002D02*
G01*
X18697958Y-3556002D01*
X19018150Y-3235810D01*
X21699070Y-3235810D01*
X21930362Y-3467102D01*
X16329662Y2730497D02*
G01*
X16217496Y2618331D01*
X14409828Y2618331D01*
X14297662Y2730497D01*
X14297662Y2730497D02*
G01*
X6802427Y2730497D01*
X5659427Y1587497D01*
X5481449Y1587497D02*
G01*
X5659427Y1587497D01*
D12*
G01*
X5481459Y1587500D03*
D13*
G01*
X5481459Y-723900D03*
D14*
G01*
X13091312Y-3548100D03*
G01*
X14091310Y-3548100D03*
G01*
X14615312Y-3548100D03*
G01*
X15615310Y-3548100D03*
D15*
G01*
X21763222Y-2032000D03*
G01*
X21513286Y-2032000D03*
G01*
X17699222Y-3556000D03*
G01*
X17449286Y-3556000D03*
G01*
X18461222Y-3556000D03*
G01*
X18211286Y-3556000D03*
D16*
G01*
X19083299Y-3670300D03*
G01*
X19083299Y-3378200D03*
G01*
X19845299Y-3670300D03*
G01*
X19845299Y-3378200D03*
D17*
G01*
X5621299Y-2019300D03*
G01*
X6671309Y-2019300D03*
G01*
X7371308Y-2019300D03*
G01*
X8071307Y-2019300D03*
D14*
G01*
X14297657Y2730500D03*
G01*
X15059657Y2730500D03*
G01*
X15567657Y2730500D03*
G01*
X16329657Y2730500D03*
G01*
X16837657Y2730500D03*
G01*
X17599657Y2730500D03*
D18*
G01*
X12289459Y-901700D03*
G01*
X14067459Y-901700D03*
G01*
X14575459Y-901700D03*
G01*
X16353459Y-901700D03*
D13*
G01*
X6371081Y5261355D03*
G01*
X8371077Y5261355D03*
G01*
X7369047Y3762502D03*
D19*
G01*
X18820891Y6899503D03*
G01*
X18566891Y6899503D03*
G01*
X18312891Y6899503D03*
G01*
X18058891Y6899503D03*
G01*
X17804891Y6899503D03*
G01*
X17550891Y6899503D03*
G01*
X17296891Y6899503D03*
G01*
X17042891Y6899503D03*
G01*
X16788891Y6899503D03*
G01*
X16534891Y6899503D03*
G01*
X16280891Y6899503D03*
G01*
X16026891Y6899503D03*
G01*
X15772891Y6899503D03*
G01*
X15518891Y6899503D03*
G01*
X15264891Y6899503D03*
D20*
G01*
X15010891Y6899503D03*
D21*
G01*
X19761299Y1409700D03*
G01*
X20015299Y1663700D03*
G01*
X19507299Y1663700D03*
G01*
X21031299Y1409700D03*
G01*
X21285299Y1663700D03*
G01*
X20777299Y1663700D03*
D22*
G01*
X16850359Y-927100D03*
G01*
X18374359Y-927100D03*
G01*
X18882359Y-927100D03*
G01*
X20406359Y-927100D03*
G01*
X20406359Y-3467100D03*
G01*
X21930359Y-3467100D03*
G01*
X5420359Y-4737100D03*
G01*
X6944359Y-4737100D03*
D17*
G01*
X5501386Y-3594100D03*
G01*
X7501381Y-3594100D03*
G01*
X8041386Y-3594100D03*
G01*
X10041381Y-3594100D03*
G01*
X10581386Y-3594100D03*
G01*
X12581381Y-3594100D03*
G01*
X13883386Y-2070100D03*
G01*
X15883381Y-2070100D03*
G01*
X16423386Y-2070100D03*
G01*
X18423381Y-2070100D03*
G01*
X18963386Y-2070100D03*
G01*
X20963381Y-2070100D03*
D23*
G01*
X16095979Y-3365500D03*
G01*
X16857979Y-3365500D03*
G01*
X16857979Y-3873500D03*
G01*
X16095979Y-3873500D03*
D24*
G01*
X10797313Y3619500D03*
G01*
X10797313Y6119495D03*
G01*
X13307316Y5619495D03*
G01*
X13297308Y4119498D03*
D15*
G01*
X10349303Y-2425700D03*
G01*
X10095303Y-2171700D03*
G01*
X10349303Y-1917700D03*
G01*
X10603303Y-2171700D03*
G01*
X11619303Y-2425700D03*
G01*
X11365303Y-2171700D03*
G01*
X11619303Y-1917700D03*
G01*
X11873303Y-2171700D03*
D25*
G01*
X16878300Y1943023D03*
G01*
X17132300Y1943023D03*
G01*
X17386300Y1943023D03*
G01*
X17640300Y1943023D03*
G01*
X17894300Y1943023D03*
G01*
X18148300Y1943023D03*
G01*
X18402300Y1943023D03*
G01*
X18656300Y1943023D03*
G01*
X18910300Y1943023D03*
G01*
X18910300Y1181023D03*
G01*
X18656300Y1181023D03*
G01*
X18402300Y1181023D03*
G01*
X18148300Y1181023D03*
G01*
X17894300Y1181023D03*
G01*
X17640300Y1181023D03*
G01*
X17386300Y1181023D03*
G01*
X17132300Y1181023D03*
G01*
X16878300Y1181023D03*
D26*
G01*
X20967700Y-952500D03*
D27*
G01*
X21374100Y-952500D03*
G01*
X21729700Y-952500D03*
D28*
G01*
X12560300Y-2527300D03*
D29*
G01*
X12814300Y-2527300D03*
G01*
X13068300Y-2527300D03*
G01*
X13322300Y-2527300D03*
G01*
X13068300Y-1765300D03*
G01*
X12814300Y-1765300D03*
G01*
X12560300Y-1765300D03*
G01*
X13322300Y-1765300D03*
D30*
G01*
X16421100Y1689100D03*
D31*
G01*
X16421100Y1435100D03*
G01*
X16421100Y1181100D03*
D32*
G01*
X13881100Y1689100D03*
D33*
G01*
X13881100Y1181100D03*
D14*
G01*
X12260579Y1511300D03*
G01*
X12260579Y1257300D03*
G01*
X12260579Y1003300D03*
G01*
X12260579Y749300D03*
G01*
X12260579Y495300D03*
G01*
X12260579Y241300D03*
G01*
X12260579Y-12700D03*
G01*
X13086079Y1511300D03*
G01*
X13086079Y1257300D03*
G01*
X13086079Y1003300D03*
G01*
X13086079Y749300D03*
G01*
X13086079Y495300D03*
G01*
X13086079Y241300D03*
G01*
X13086079Y-12700D03*
D34*
G01*
X8750300Y-2552700D03*
G01*
X9004300Y-2552700D03*
G01*
X9004300Y-1790700D03*
G01*
X8750300Y-1790700D03*
G01*
X9258300Y-2552700D03*
G01*
X9512300Y-2552700D03*
G01*
X9258300Y-1790700D03*
G01*
X9512300Y-1790700D03*
D35*
G01*
X21958300Y1536700D03*
G01*
X21958300Y1968500D03*
D36*
G01*
X14629996Y-1430378D03*
G01*
X11117963Y-4605835D03*
G01*
X17755745Y-655246D03*
G01*
X16860319Y-716155D03*
G01*
X18654753Y-862865D03*
G01*
X18688687Y421535D03*
G01*
X16477922Y421535D03*
G01*
X15801190Y1027351D03*
G01*
X10925380Y-4737102D03*
G01*
X17422294Y1630880D03*
G01*
X19121605Y2226358D03*
G01*
X14165861Y2226358D03*
G01*
X12146663Y894204D03*
G01*
X11408920Y2141369D03*
G01*
X15447876Y-84076D03*
M02*
