<?xml version="1.0" standalone="no"?>
 <!DOCTYPE svg PUBLIC "-//W3C//DTD SVG 1.1//EN" 
 "http://www.w3.org/Graphics/SVG/1.1/DTD/svg11.dtd"> 
<svg
  xmlns:svg="http://www.w3.org/2000/svg"
  xmlns="http://www.w3.org/2000/svg"
  xmlns:xlink="http://www.w3.org/1999/xlink"
  version="1.1"
  width="29.700220cm" height="21.000720cm" viewBox="0 0 116930 82680">
<title>SVG Picture created as BlackBox-B_Cu.svg date 2023/10/17 18:40:15 </title>
  <desc>Picture generated by PCBNEW </desc>
<g style="fill:#000000; fill-opacity:1;stroke:#000000; stroke-opacity:1;
stroke-linecap:round; stroke-linejoin:round;"
 transform="translate(0 0) scale(1 1)">
</g>
<g style="fill:#000000; fill-opacity:0.0; 
stroke:#000000; stroke-width:-0.000393701; stroke-opacity:1; 
stroke-linecap:round; stroke-linejoin:round;">
</g>
<g style="fill:#000000; fill-opacity:0.0; 
stroke:#000000; stroke-width:39.3701; stroke-opacity:1; 
stroke-linecap:round; stroke-linejoin:round;">
</g>
<g style="fill:#000000; fill-opacity:0.0; 
stroke:#000000; stroke-width:59.0551; stroke-opacity:1; 
stroke-linecap:round; stroke-linejoin:round;">
<rect x="69685.9" y="65357.2" width="42519.7" height="12598.4" rx="0" />
</g>
<g style="fill:#000000; fill-opacity:0.0; 
stroke:#000000; stroke-width:39.3701; stroke-opacity:1; 
stroke-linecap:round; stroke-linejoin:round;">
</g>
<g style="fill:#000000; fill-opacity:0.0; 
stroke:#000000; stroke-width:59.0551; stroke-opacity:1; 
stroke-linecap:round; stroke-linejoin:round;">
<rect x="3937.01" y="3937.01" width="109056" height="74806" rx="0" />
</g>
<g style="fill:#000000; fill-opacity:0.0; 
stroke:#000000; stroke-width:39.3701; stroke-opacity:1; 
stroke-linecap:round; stroke-linejoin:round;">
</g>
<g style="fill:#000000; fill-opacity:0.0; 
stroke:#000000; stroke-width:59.0551; stroke-opacity:1; 
stroke-linecap:round; stroke-linejoin:round;">
<rect x="4724.41" y="4724.41" width="107481" height="73231.2" rx="0" />
</g>
<g style="fill:#000000; fill-opacity:0.0; 
stroke:#000000; stroke-width:39.3701; stroke-opacity:1; 
stroke-linecap:round; stroke-linejoin:round;">
</g>
<g style="fill:#000000; fill-opacity:0.0; 
stroke:#000000; stroke-width:59.0551; stroke-opacity:1; 
stroke-linecap:round; stroke-linejoin:round;">
<path d="M23622 4724
L23622 3937
" />
</g>
<g style="fill:#000000; fill-opacity:0.0; 
stroke:#000000; stroke-width:39.3701; stroke-opacity:1; 
stroke-linecap:round; stroke-linejoin:round;">
</g>
<g style="fill:#000000; fill-opacity:0.0; 
stroke:#000000; stroke-width:59.0551; stroke-opacity:1; 
stroke-linecap:round; stroke-linejoin:round;">
<path d="M43307 4724
L43307 3937
" />
</g>
<g style="fill:#000000; fill-opacity:0.0; 
stroke:#000000; stroke-width:39.3701; stroke-opacity:1; 
stroke-linecap:round; stroke-linejoin:round;">
</g>
<g style="fill:#000000; fill-opacity:0.0; 
stroke:#000000; stroke-width:59.0551; stroke-opacity:1; 
stroke-linecap:round; stroke-linejoin:round;">
<path d="M62992 4724
L62992 3937
" />
</g>
<g style="fill:#000000; fill-opacity:0.0; 
stroke:#000000; stroke-width:39.3701; stroke-opacity:1; 
stroke-linecap:round; stroke-linejoin:round;">
</g>
<g style="fill:#000000; fill-opacity:0.0; 
stroke:#000000; stroke-width:59.0551; stroke-opacity:1; 
stroke-linecap:round; stroke-linejoin:round;">
<path d="M82677 4724
L82677 3937
" />
</g>
<g style="fill:#000000; fill-opacity:0.0; 
stroke:#000000; stroke-width:39.3701; stroke-opacity:1; 
stroke-linecap:round; stroke-linejoin:round;">
</g>
<g style="fill:#000000; fill-opacity:0.0; 
stroke:#000000; stroke-width:59.0551; stroke-opacity:1; 
stroke-linecap:round; stroke-linejoin:round;">
<path d="M102362 4724
L102362 3937
" />
</g>
<g style="fill:#000000; fill-opacity:0.0; 
stroke:#000000; stroke-width:39.3701; stroke-opacity:1; 
stroke-linecap:round; stroke-linejoin:round;">
</g>
<g style="fill:#000000; fill-opacity:0.0; 
stroke:#000000; stroke-width:59.0551; stroke-opacity:1; 
stroke-linecap:round; stroke-linejoin:round;">
<text x="13779.5" y="4586.61"
textLength="640.982" font-size="682.415" lengthAdjust="spacingAndGlyphs"
text-anchor="start" opacity="0">1</text>
<path d="M14199 4562
L13906 4562
" />
<path d="M14052 4562
L14052 4050
L14004 4123
L13955 4172
L13906 4196
" />
</g>
<g style="fill:#000000; fill-opacity:0.0; 
stroke:#000000; stroke-width:39.3701; stroke-opacity:1; 
stroke-linecap:round; stroke-linejoin:round;">
</g>
<g style="fill:#000000; fill-opacity:0.0; 
stroke:#000000; stroke-width:59.0551; stroke-opacity:1; 
stroke-linecap:round; stroke-linejoin:round;">
<text x="33464.6" y="4586.61"
textLength="546.494" font-size="682.415" lengthAdjust="spacingAndGlyphs"
text-anchor="start" opacity="0">2</text>
<path d="M33591 4099
L33615 4074
L33664 4050
L33786 4050
L33835 4074
L33859 4099
L33884 4147
L33884 4196
L33859 4269
L33567 4562
L33884 4562
" />
</g>
<g style="fill:#000000; fill-opacity:0.0; 
stroke:#000000; stroke-width:39.3701; stroke-opacity:1; 
stroke-linecap:round; stroke-linejoin:round;">
</g>
<g style="fill:#000000; fill-opacity:0.0; 
stroke:#000000; stroke-width:59.0551; stroke-opacity:1; 
stroke-linecap:round; stroke-linejoin:round;">
<text x="53149.6" y="4586.61"
textLength="546.494" font-size="682.415" lengthAdjust="spacingAndGlyphs"
text-anchor="start" opacity="0">3</text>
<path d="M53252 4050
L53569 4050
L53398 4245
L53471 4245
L53520 4269
L53544 4294
L53569 4342
L53569 4464
L53544 4513
L53520 4537
L53471 4562
L53325 4562
L53276 4537
L53252 4513
" />
</g>
<g style="fill:#000000; fill-opacity:0.0; 
stroke:#000000; stroke-width:39.3701; stroke-opacity:1; 
stroke-linecap:round; stroke-linejoin:round;">
</g>
<g style="fill:#000000; fill-opacity:0.0; 
stroke:#000000; stroke-width:59.0551; stroke-opacity:1; 
stroke-linecap:round; stroke-linejoin:round;">
<text x="72834.6" y="4586.61"
textLength="546.494" font-size="682.415" lengthAdjust="spacingAndGlyphs"
text-anchor="start" opacity="0">4</text>
<path d="M73205 4221
L73205 4562
" />
<path d="M73083 4026
L72961 4391
L73278 4391
" />
</g>
<g style="fill:#000000; fill-opacity:0.0; 
stroke:#000000; stroke-width:39.3701; stroke-opacity:1; 
stroke-linecap:round; stroke-linejoin:round;">
</g>
<g style="fill:#000000; fill-opacity:0.0; 
stroke:#000000; stroke-width:59.0551; stroke-opacity:1; 
stroke-linecap:round; stroke-linejoin:round;">
<text x="92519.7" y="4586.61"
textLength="546.494" font-size="682.415" lengthAdjust="spacingAndGlyphs"
text-anchor="start" opacity="0">5</text>
<path d="M92914 4050
L92671 4050
L92646 4294
L92671 4269
L92719 4245
L92841 4245
L92890 4269
L92914 4294
L92939 4342
L92939 4464
L92914 4513
L92890 4537
L92841 4562
L92719 4562
L92671 4537
L92646 4513
" />
</g>
<g style="fill:#000000; fill-opacity:0.0; 
stroke:#000000; stroke-width:39.3701; stroke-opacity:1; 
stroke-linecap:round; stroke-linejoin:round;">
</g>
<g style="fill:#000000; fill-opacity:0.0; 
stroke:#000000; stroke-width:59.0551; stroke-opacity:1; 
stroke-linecap:round; stroke-linejoin:round;">
<text x="112205" y="4586.61"
textLength="546.494" font-size="682.415" lengthAdjust="spacingAndGlyphs"
text-anchor="start" opacity="0">6</text>
<path d="M112575 4050
L112477 4050
L112429 4074
L112404 4099
L112356 4172
L112331 4269
L112331 4464
L112356 4513
L112380 4537
L112429 4562
L112526 4562
L112575 4537
L112599 4513
L112624 4464
L112624 4342
L112599 4294
L112575 4269
L112526 4245
L112429 4245
L112380 4269
L112356 4294
L112331 4342
" />
</g>
<g style="fill:#000000; fill-opacity:0.0; 
stroke:#000000; stroke-width:39.3701; stroke-opacity:1; 
stroke-linecap:round; stroke-linejoin:round;">
</g>
<g style="fill:#000000; fill-opacity:0.0; 
stroke:#000000; stroke-width:59.0551; stroke-opacity:1; 
stroke-linecap:round; stroke-linejoin:round;">
<path d="M23622 77955
L23622 78742
" />
</g>
<g style="fill:#000000; fill-opacity:0.0; 
stroke:#000000; stroke-width:39.3701; stroke-opacity:1; 
stroke-linecap:round; stroke-linejoin:round;">
</g>
<g style="fill:#000000; fill-opacity:0.0; 
stroke:#000000; stroke-width:59.0551; stroke-opacity:1; 
stroke-linecap:round; stroke-linejoin:round;">
<path d="M43307 77955
L43307 78742
" />
</g>
<g style="fill:#000000; fill-opacity:0.0; 
stroke:#000000; stroke-width:39.3701; stroke-opacity:1; 
stroke-linecap:round; stroke-linejoin:round;">
</g>
<g style="fill:#000000; fill-opacity:0.0; 
stroke:#000000; stroke-width:59.0551; stroke-opacity:1; 
stroke-linecap:round; stroke-linejoin:round;">
<path d="M62992 77955
L62992 78742
" />
</g>
<g style="fill:#000000; fill-opacity:0.0; 
stroke:#000000; stroke-width:39.3701; stroke-opacity:1; 
stroke-linecap:round; stroke-linejoin:round;">
</g>
<g style="fill:#000000; fill-opacity:0.0; 
stroke:#000000; stroke-width:59.0551; stroke-opacity:1; 
stroke-linecap:round; stroke-linejoin:round;">
<path d="M82677 77955
L82677 78742
" />
</g>
<g style="fill:#000000; fill-opacity:0.0; 
stroke:#000000; stroke-width:39.3701; stroke-opacity:1; 
stroke-linecap:round; stroke-linejoin:round;">
</g>
<g style="fill:#000000; fill-opacity:0.0; 
stroke:#000000; stroke-width:59.0551; stroke-opacity:1; 
stroke-linecap:round; stroke-linejoin:round;">
<path d="M102362 77955
L102362 78742
" />
</g>
<g style="fill:#000000; fill-opacity:0.0; 
stroke:#000000; stroke-width:39.3701; stroke-opacity:1; 
stroke-linecap:round; stroke-linejoin:round;">
</g>
<g style="fill:#000000; fill-opacity:0.0; 
stroke:#000000; stroke-width:59.0551; stroke-opacity:1; 
stroke-linecap:round; stroke-linejoin:round;">
<text x="13779.5" y="78605.2"
textLength="546.494" font-size="682.415" lengthAdjust="spacingAndGlyphs"
text-anchor="start" opacity="0">1</text>
<path d="M14199 78580
L13906 78580
" />
<path d="M14052 78580
L14052 78069
L14004 78142
L13955 78190
L13906 78215
" />
</g>
<g style="fill:#000000; fill-opacity:0.0; 
stroke:#000000; stroke-width:39.3701; stroke-opacity:1; 
stroke-linecap:round; stroke-linejoin:round;">
</g>
<g style="fill:#000000; fill-opacity:0.0; 
stroke:#000000; stroke-width:59.0551; stroke-opacity:1; 
stroke-linecap:round; stroke-linejoin:round;">
<text x="33464.6" y="78605.2"
textLength="546.494" font-size="682.415" lengthAdjust="spacingAndGlyphs"
text-anchor="start" opacity="0">2</text>
<path d="M33591 78117
L33615 78093
L33664 78069
L33786 78069
L33835 78093
L33859 78117
L33884 78166
L33884 78215
L33859 78288
L33567 78580
L33884 78580
" />
</g>
<g style="fill:#000000; fill-opacity:0.0; 
stroke:#000000; stroke-width:39.3701; stroke-opacity:1; 
stroke-linecap:round; stroke-linejoin:round;">
</g>
<g style="fill:#000000; fill-opacity:0.0; 
stroke:#000000; stroke-width:59.0551; stroke-opacity:1; 
stroke-linecap:round; stroke-linejoin:round;">
<text x="53149.6" y="78605.2"
textLength="546.494" font-size="682.415" lengthAdjust="spacingAndGlyphs"
text-anchor="start" opacity="0">3</text>
<path d="M53252 78069
L53569 78069
L53398 78263
L53471 78263
L53520 78288
L53544 78312
L53569 78361
L53569 78483
L53544 78532
L53520 78556
L53471 78580
L53325 78580
L53276 78556
L53252 78532
" />
</g>
<g style="fill:#000000; fill-opacity:0.0; 
stroke:#000000; stroke-width:39.3701; stroke-opacity:1; 
stroke-linecap:round; stroke-linejoin:round;">
</g>
<g style="fill:#000000; fill-opacity:0.0; 
stroke:#000000; stroke-width:59.0551; stroke-opacity:1; 
stroke-linecap:round; stroke-linejoin:round;">
<text x="72834.6" y="78605.2"
textLength="546.494" font-size="682.415" lengthAdjust="spacingAndGlyphs"
text-anchor="start" opacity="0">4</text>
<path d="M73205 78239
L73205 78580
" />
<path d="M73083 78044
L72961 78410
L73278 78410
" />
</g>
<g style="fill:#000000; fill-opacity:0.0; 
stroke:#000000; stroke-width:39.3701; stroke-opacity:1; 
stroke-linecap:round; stroke-linejoin:round;">
</g>
<g style="fill:#000000; fill-opacity:0.0; 
stroke:#000000; stroke-width:59.0551; stroke-opacity:1; 
stroke-linecap:round; stroke-linejoin:round;">
<text x="92519.7" y="78605.2"
textLength="546.494" font-size="682.415" lengthAdjust="spacingAndGlyphs"
text-anchor="start" opacity="0">5</text>
<path d="M92914 78069
L92671 78069
L92646 78312
L92671 78288
L92719 78263
L92841 78263
L92890 78288
L92914 78312
L92939 78361
L92939 78483
L92914 78532
L92890 78556
L92841 78580
L92719 78580
L92671 78556
L92646 78532
" />
</g>
<g style="fill:#000000; fill-opacity:0.0; 
stroke:#000000; stroke-width:39.3701; stroke-opacity:1; 
stroke-linecap:round; stroke-linejoin:round;">
</g>
<g style="fill:#000000; fill-opacity:0.0; 
stroke:#000000; stroke-width:59.0551; stroke-opacity:1; 
stroke-linecap:round; stroke-linejoin:round;">
<text x="112205" y="78605.2"
textLength="546.494" font-size="682.415" lengthAdjust="spacingAndGlyphs"
text-anchor="start" opacity="0">6</text>
<path d="M112575 78069
L112477 78069
L112429 78093
L112404 78117
L112356 78190
L112331 78288
L112331 78483
L112356 78532
L112380 78556
L112429 78580
L112526 78580
L112575 78556
L112599 78532
L112624 78483
L112624 78361
L112599 78312
L112575 78288
L112526 78263
L112429 78263
L112380 78288
L112356 78312
L112331 78361
" />
</g>
<g style="fill:#000000; fill-opacity:0.0; 
stroke:#000000; stroke-width:39.3701; stroke-opacity:1; 
stroke-linecap:round; stroke-linejoin:round;">
</g>
<g style="fill:#000000; fill-opacity:0.0; 
stroke:#000000; stroke-width:59.0551; stroke-opacity:1; 
stroke-linecap:round; stroke-linejoin:round;">
<path d="M3937 23622
L4724 23622
" />
</g>
<g style="fill:#000000; fill-opacity:0.0; 
stroke:#000000; stroke-width:39.3701; stroke-opacity:1; 
stroke-linecap:round; stroke-linejoin:round;">
</g>
<g style="fill:#000000; fill-opacity:0.0; 
stroke:#000000; stroke-width:59.0551; stroke-opacity:1; 
stroke-linecap:round; stroke-linejoin:round;">
<path d="M3937 43307
L4724 43307
" />
</g>
<g style="fill:#000000; fill-opacity:0.0; 
stroke:#000000; stroke-width:39.3701; stroke-opacity:1; 
stroke-linecap:round; stroke-linejoin:round;">
</g>
<g style="fill:#000000; fill-opacity:0.0; 
stroke:#000000; stroke-width:59.0551; stroke-opacity:1; 
stroke-linecap:round; stroke-linejoin:round;">
<path d="M3937 62992
L4724 62992
" />
</g>
<g style="fill:#000000; fill-opacity:0.0; 
stroke:#000000; stroke-width:39.3701; stroke-opacity:1; 
stroke-linecap:round; stroke-linejoin:round;">
</g>
<g style="fill:#000000; fill-opacity:0.0; 
stroke:#000000; stroke-width:59.0551; stroke-opacity:1; 
stroke-linecap:round; stroke-linejoin:round;">
<text x="4330.71" y="14035.4"
textLength="497.75" font-size="682.415" lengthAdjust="spacingAndGlyphs"
text-anchor="middle" opacity="0">A</text>
<path d="M4208 13864
L4452 13864
" />
<path d="M4160 14011
L4330 13499
L4501 14011
" />
</g>
<g style="fill:#000000; fill-opacity:0.0; 
stroke:#000000; stroke-width:39.3701; stroke-opacity:1; 
stroke-linecap:round; stroke-linejoin:round;">
</g>
<g style="fill:#000000; fill-opacity:0.0; 
stroke:#000000; stroke-width:59.0551; stroke-opacity:1; 
stroke-linecap:round; stroke-linejoin:round;">
<text x="4330.71" y="33720.5"
textLength="570.866" font-size="682.415" lengthAdjust="spacingAndGlyphs"
text-anchor="middle" opacity="0">B</text>
<path d="M4367 33428
L4440 33452
L4464 33476
L4489 33525
L4489 33598
L4464 33647
L4440 33671
L4391 33696
L4196 33696
L4196 33184
L4367 33184
L4416 33208
L4440 33233
L4464 33281
L4464 33330
L4440 33379
L4416 33403
L4367 33428
L4196 33428
" />
</g>
<g style="fill:#000000; fill-opacity:0.0; 
stroke:#000000; stroke-width:39.3701; stroke-opacity:1; 
stroke-linecap:round; stroke-linejoin:round;">
</g>
<g style="fill:#000000; fill-opacity:0.0; 
stroke:#000000; stroke-width:59.0551; stroke-opacity:1; 
stroke-linecap:round; stroke-linejoin:round;">
<text x="4330.71" y="53405.5"
textLength="570.866" font-size="682.415" lengthAdjust="spacingAndGlyphs"
text-anchor="middle" opacity="0">C</text>
<path d="M4489 53332
L4464 53356
L4391 53381
L4342 53381
L4269 53356
L4221 53308
L4196 53259
L4172 53161
L4172 53088
L4196 52991
L4221 52942
L4269 52893
L4342 52869
L4391 52869
L4464 52893
L4489 52918
" />
</g>
<g style="fill:#000000; fill-opacity:0.0; 
stroke:#000000; stroke-width:39.3701; stroke-opacity:1; 
stroke-linecap:round; stroke-linejoin:round;">
</g>
<g style="fill:#000000; fill-opacity:0.0; 
stroke:#000000; stroke-width:59.0551; stroke-opacity:1; 
stroke-linecap:round; stroke-linejoin:round;">
<text x="4330.71" y="73090.6"
textLength="570.866" font-size="682.415" lengthAdjust="spacingAndGlyphs"
text-anchor="middle" opacity="0">D</text>
<path d="M4196 73066
L4196 72554
L4318 72554
L4391 72578
L4440 72627
L4464 72676
L4489 72773
L4489 72846
L4464 72944
L4440 72993
L4391 73041
L4318 73066
L4196 73066
" />
</g>
<g style="fill:#000000; fill-opacity:0.0; 
stroke:#000000; stroke-width:39.3701; stroke-opacity:1; 
stroke-linecap:round; stroke-linejoin:round;">
</g>
<g style="fill:#000000; fill-opacity:0.0; 
stroke:#000000; stroke-width:59.0551; stroke-opacity:1; 
stroke-linecap:round; stroke-linejoin:round;">
<path d="M112992 23622
L112205 23622
" />
</g>
<g style="fill:#000000; fill-opacity:0.0; 
stroke:#000000; stroke-width:39.3701; stroke-opacity:1; 
stroke-linecap:round; stroke-linejoin:round;">
</g>
<g style="fill:#000000; fill-opacity:0.0; 
stroke:#000000; stroke-width:59.0551; stroke-opacity:1; 
stroke-linecap:round; stroke-linejoin:round;">
<path d="M112992 43307
L112205 43307
" />
</g>
<g style="fill:#000000; fill-opacity:0.0; 
stroke:#000000; stroke-width:39.3701; stroke-opacity:1; 
stroke-linecap:round; stroke-linejoin:round;">
</g>
<g style="fill:#000000; fill-opacity:0.0; 
stroke:#000000; stroke-width:59.0551; stroke-opacity:1; 
stroke-linecap:round; stroke-linejoin:round;">
<path d="M112992 62992
L112205 62992
" />
</g>
<g style="fill:#000000; fill-opacity:0.0; 
stroke:#000000; stroke-width:39.3701; stroke-opacity:1; 
stroke-linecap:round; stroke-linejoin:round;">
</g>
<g style="fill:#000000; fill-opacity:0.0; 
stroke:#000000; stroke-width:59.0551; stroke-opacity:1; 
stroke-linecap:round; stroke-linejoin:round;">
<text x="112599" y="14035.4"
textLength="497.75" font-size="682.415" lengthAdjust="spacingAndGlyphs"
text-anchor="middle" opacity="0">A</text>
<path d="M112477 13864
L112721 13864
" />
<path d="M112428 14011
L112599 13499
L112769 14011
" />
</g>
<g style="fill:#000000; fill-opacity:0.0; 
stroke:#000000; stroke-width:39.3701; stroke-opacity:1; 
stroke-linecap:round; stroke-linejoin:round;">
</g>
<g style="fill:#000000; fill-opacity:0.0; 
stroke:#000000; stroke-width:59.0551; stroke-opacity:1; 
stroke-linecap:round; stroke-linejoin:round;">
<text x="112599" y="33720.5"
textLength="570.866" font-size="682.415" lengthAdjust="spacingAndGlyphs"
text-anchor="middle" opacity="0">B</text>
<path d="M112635 33428
L112708 33452
L112733 33476
L112757 33525
L112757 33598
L112733 33647
L112708 33671
L112660 33696
L112465 33696
L112465 33184
L112635 33184
L112684 33208
L112708 33233
L112733 33281
L112733 33330
L112708 33379
L112684 33403
L112635 33428
L112465 33428
" />
</g>
<g style="fill:#000000; fill-opacity:0.0; 
stroke:#000000; stroke-width:39.3701; stroke-opacity:1; 
stroke-linecap:round; stroke-linejoin:round;">
</g>
<g style="fill:#000000; fill-opacity:0.0; 
stroke:#000000; stroke-width:59.0551; stroke-opacity:1; 
stroke-linecap:round; stroke-linejoin:round;">
<text x="112599" y="53405.5"
textLength="570.866" font-size="682.415" lengthAdjust="spacingAndGlyphs"
text-anchor="middle" opacity="0">C</text>
<path d="M112757 53332
L112733 53356
L112660 53381
L112611 53381
L112538 53356
L112489 53308
L112465 53259
L112440 53161
L112440 53088
L112465 52991
L112489 52942
L112538 52893
L112611 52869
L112660 52869
L112733 52893
L112757 52918
" />
</g>
<g style="fill:#000000; fill-opacity:0.0; 
stroke:#000000; stroke-width:39.3701; stroke-opacity:1; 
stroke-linecap:round; stroke-linejoin:round;">
</g>
<g style="fill:#000000; fill-opacity:0.0; 
stroke:#000000; stroke-width:59.0551; stroke-opacity:1; 
stroke-linecap:round; stroke-linejoin:round;">
<text x="112599" y="73090.6"
textLength="570.866" font-size="682.415" lengthAdjust="spacingAndGlyphs"
text-anchor="middle" opacity="0">D</text>
<path d="M112465 73066
L112465 72554
L112587 72554
L112660 72578
L112708 72627
L112733 72676
L112757 72773
L112757 72846
L112733 72944
L112708 72993
L112660 73041
L112587 73066
L112465 73066
" />
</g>
<g style="fill:#000000; fill-opacity:0.0; 
stroke:#000000; stroke-width:39.3701; stroke-opacity:1; 
stroke-linecap:round; stroke-linejoin:round;">
</g>
<g style="fill:#000000; fill-opacity:0.0; 
stroke:#000000; stroke-width:59.0551; stroke-opacity:1; 
stroke-linecap:round; stroke-linejoin:round;">
<text x="78741" y="76321.7"
textLength="2758.72" font-size="787.402" lengthAdjust="spacingAndGlyphs"
text-anchor="start" opacity="0">Date: </text>
<path d="M78911 76293
L78911 75703
L79051 75703
L79136 75731
L79192 75787
L79220 75843
L79248 75956
L79248 76040
L79220 76153
L79192 76209
L79136 76265
L79051 76293
L78911 76293
" />
<path d="M79754 76293
L79754 75984
L79726 75928
L79670 75899
L79557 75899
L79501 75928
" />
<path d="M79754 76265
L79698 76293
L79557 76293
L79501 76265
L79473 76209
L79473 76153
L79501 76096
L79557 76068
L79698 76068
L79754 76040
" />
<path d="M79951 75899
L80176 75899
" />
<path d="M80036 75703
L80036 76209
L80064 76265
L80120 76293
L80176 76293
" />
<path d="M80598 76265
L80542 76293
L80429 76293
L80373 76265
L80345 76209
L80345 75984
L80373 75928
L80429 75899
L80542 75899
L80598 75928
L80626 75984
L80626 76040
L80345 76096
" />
<path d="M80879 76237
L80907 76265
L80879 76293
L80851 76265
L80879 76237
L80879 76293
" />
<path d="M80879 75928
L80907 75956
L80879 75984
L80851 75956
L80879 75928
L80879 75984
" />
</g>
<g style="fill:#000000; fill-opacity:0.0; 
stroke:#000000; stroke-width:39.3701; stroke-opacity:1; 
stroke-linecap:round; stroke-linejoin:round;">
</g>
<g style="fill:#000000; fill-opacity:0.0; 
stroke:#000000; stroke-width:59.0551; stroke-opacity:1; 
stroke-linecap:round; stroke-linejoin:round;">
<path d="M69685 76577
L112205 76577
" />
</g>
<g style="fill:#000000; fill-opacity:0.0; 
stroke:#000000; stroke-width:39.3701; stroke-opacity:1; 
stroke-linecap:round; stroke-linejoin:round;">
</g>
<g style="fill:#000000; fill-opacity:0.0; 
stroke:#000000; stroke-width:59.0551; stroke-opacity:1; 
stroke-linecap:round; stroke-linejoin:round;">
<text x="70079.6" y="77424.1"
textLength="25734" font-size="787.402" lengthAdjust="spacingAndGlyphs"
text-anchor="start" opacity="0">KiCad E.D.A.  kicad 5.1.12-84ad8e8a86~92~ubuntu16.04.1</text>
<path d="M70249 77395
L70249 76805
" />
<path d="M70587 77395
L70334 77058
" />
<path d="M70587 76805
L70249 77142
" />
<path d="M70840 77395
L70840 77002
" />
<path d="M70840 76805
L70812 76833
L70840 76861
L70868 76833
L70840 76805
L70840 76861
" />
<path d="M71458 77339
L71430 77367
L71346 77395
L71290 77395
L71205 77367
L71149 77311
L71121 77255
L71093 77142
L71093 77058
L71121 76946
L71149 76889
L71205 76833
L71290 76805
L71346 76805
L71430 76833
L71458 76861
" />
<path d="M71965 77395
L71965 77086
L71937 77030
L71880 77002
L71768 77002
L71712 77030
" />
<path d="M71965 77367
L71908 77395
L71768 77395
L71712 77367
L71683 77311
L71683 77255
L71712 77199
L71768 77171
L71908 77171
L71965 77142
" />
<path d="M72499 77395
L72499 76805
" />
<path d="M72499 77367
L72443 77395
L72330 77395
L72274 77367
L72246 77339
L72218 77283
L72218 77114
L72246 77058
L72274 77030
L72330 77002
L72443 77002
L72499 77030
" />
<path d="M73230 77086
L73427 77086
" />
<path d="M73511 77395
L73230 77395
L73230 76805
L73511 76805
" />
<path d="M73764 77339
L73793 77367
L73764 77395
L73736 77367
L73764 77339
L73764 77395
" />
<path d="M74046 77395
L74046 76805
L74186 76805
L74271 76833
L74327 76889
L74355 76946
L74383 77058
L74383 77142
L74355 77255
L74327 77311
L74271 77367
L74186 77395
L74046 77395
" />
<path d="M74636 77339
L74664 77367
L74636 77395
L74608 77367
L74636 77339
L74636 77395
" />
<path d="M74889 77227
L75171 77227
" />
<path d="M74833 77395
L75030 76805
L75227 77395
" />
<path d="M75424 77339
L75452 77367
L75424 77395
L75395 77367
L75424 77339
L75424 77395
" />
<path d="M76605 77395
L76605 76805
" />
<path d="M76661 77171
L76830 77395
" />
<path d="M76830 77002
L76605 77227
" />
<path d="M77083 77395
L77083 77002
" />
<path d="M77083 76805
L77055 76833
L77083 76861
L77111 76833
L77083 76805
L77083 76861
" />
<path d="M77617 77367
L77561 77395
L77448 77395
L77392 77367
L77364 77339
L77336 77283
L77336 77114
L77364 77058
L77392 77030
L77448 77002
L77561 77002
L77617 77030
" />
<path d="M78123 77395
L78123 77086
L78095 77030
L78039 77002
L77926 77002
L77870 77030
" />
<path d="M78123 77367
L78067 77395
L77926 77395
L77870 77367
L77842 77311
L77842 77255
L77870 77199
L77926 77171
L78067 77171
L78123 77142
" />
<path d="M78658 77395
L78658 76805
" />
<path d="M78658 77367
L78601 77395
L78489 77395
L78433 77367
L78404 77339
L78376 77283
L78376 77114
L78404 77058
L78433 77030
L78489 77002
L78601 77002
L78658 77030
" />
<path d="M79670 76805
L79389 76805
L79361 77086
L79389 77058
L79445 77030
L79586 77030
L79642 77058
L79670 77086
L79698 77142
L79698 77283
L79670 77339
L79642 77367
L79586 77395
L79445 77395
L79389 77367
L79361 77339
" />
<path d="M79951 77339
L79979 77367
L79951 77395
L79923 77367
L79951 77339
L79951 77395
" />
<path d="M80542 77395
L80204 77395
" />
<path d="M80373 77395
L80373 76805
L80317 76889
L80260 76946
L80204 76974
" />
<path d="M80795 77339
L80823 77367
L80795 77395
L80767 77367
L80795 77339
L80795 77395
" />
<path d="M81385 77395
L81048 77395
" />
<path d="M81217 77395
L81217 76805
L81160 76889
L81104 76946
L81048 76974
" />
<path d="M81610 76861
L81638 76833
L81695 76805
L81835 76805
L81892 76833
L81920 76861
L81948 76917
L81948 76974
L81920 77058
L81582 77395
L81948 77395
" />
<path d="M82201 77171
L82651 77171
" />
<path d="M83016 77058
L82960 77030
L82932 77002
L82904 76946
L82904 76917
L82932 76861
L82960 76833
L83016 76805
L83129 76805
L83185 76833
L83213 76861
L83241 76917
L83241 76946
L83213 77002
L83185 77030
L83129 77058
L83016 77058
L82960 77086
L82932 77114
L82904 77171
L82904 77283
L82932 77339
L82960 77367
L83016 77395
L83129 77395
L83185 77367
L83213 77339
L83241 77283
L83241 77171
L83213 77114
L83185 77086
L83129 77058
" />
<path d="M83748 77002
L83748 77395
" />
<path d="M83607 76777
L83466 77199
L83832 77199
" />
<path d="M84310 77395
L84310 77086
L84282 77030
L84226 77002
L84113 77002
L84057 77030
" />
<path d="M84310 77367
L84254 77395
L84113 77395
L84057 77367
L84029 77311
L84029 77255
L84057 77199
L84113 77171
L84254 77171
L84310 77142
" />
<path d="M84844 77395
L84844 76805
" />
<path d="M84844 77367
L84788 77395
L84676 77395
L84619 77367
L84591 77339
L84563 77283
L84563 77114
L84591 77058
L84619 77030
L84676 77002
L84788 77002
L84844 77030
" />
<path d="M85210 77058
L85154 77030
L85126 77002
L85097 76946
L85097 76917
L85126 76861
L85154 76833
L85210 76805
L85322 76805
L85379 76833
L85407 76861
L85435 76917
L85435 76946
L85407 77002
L85379 77030
L85322 77058
L85210 77058
L85154 77086
L85126 77114
L85097 77171
L85097 77283
L85126 77339
L85154 77367
L85210 77395
L85322 77395
L85379 77367
L85407 77339
L85435 77283
L85435 77171
L85407 77114
L85379 77086
L85322 77058
" />
<path d="M85913 77367
L85857 77395
L85744 77395
L85688 77367
L85660 77311
L85660 77086
L85688 77030
L85744 77002
L85857 77002
L85913 77030
L85941 77086
L85941 77142
L85660 77199
" />
<path d="M86278 77058
L86222 77030
L86194 77002
L86166 76946
L86166 76917
L86194 76861
L86222 76833
L86278 76805
L86391 76805
L86447 76833
L86475 76861
L86503 76917
L86503 76946
L86475 77002
L86447 77030
L86391 77058
L86278 77058
L86222 77086
L86194 77114
L86166 77171
L86166 77283
L86194 77339
L86222 77367
L86278 77395
L86391 77395
L86447 77367
L86475 77339
L86503 77283
L86503 77171
L86475 77114
L86447 77086
L86391 77058
" />
<path d="M87010 77395
L87010 77086
L86982 77030
L86925 77002
L86813 77002
L86757 77030
" />
<path d="M87010 77367
L86953 77395
L86813 77395
L86757 77367
L86728 77311
L86728 77255
L86757 77199
L86813 77171
L86953 77171
L87010 77142
" />
<path d="M87375 77058
L87319 77030
L87291 77002
L87263 76946
L87263 76917
L87291 76861
L87319 76833
L87375 76805
L87488 76805
L87544 76833
L87572 76861
L87600 76917
L87600 76946
L87572 77002
L87544 77030
L87488 77058
L87375 77058
L87319 77086
L87291 77114
L87263 77171
L87263 77283
L87291 77339
L87319 77367
L87375 77395
L87488 77395
L87544 77367
L87572 77339
L87600 77283
L87600 77171
L87572 77114
L87544 77086
L87488 77058
" />
<path d="M88106 76805
L87994 76805
L87938 76833
L87910 76861
L87853 76946
L87825 77058
L87825 77283
L87853 77339
L87881 77367
L87938 77395
L88050 77395
L88106 77367
L88135 77339
L88163 77283
L88163 77142
L88135 77086
L88106 77058
L88050 77030
L87938 77030
L87881 77058
L87853 77086
L87825 77142
" />
<path d="M88275 76644
L88838 76644
" />
<path d="M88444 77395
L88556 77395
L88613 77367
L88641 77339
L88697 77255
L88725 77142
L88725 76917
L88697 76861
L88669 76833
L88613 76805
L88500 76805
L88444 76833
L88416 76861
L88388 76917
L88388 77058
L88416 77114
L88444 77142
L88500 77171
L88613 77171
L88669 77142
L88697 77114
L88725 77058
" />
<path d="M88838 76644
L89400 76644
" />
<path d="M88950 76861
L88978 76833
L89034 76805
L89175 76805
L89231 76833
L89259 76861
L89287 76917
L89287 76974
L89259 77058
L88922 77395
L89287 77395
" />
<path d="M89794 77002
L89794 77395
" />
<path d="M89541 77002
L89541 77311
L89569 77367
L89625 77395
L89709 77395
L89766 77367
L89794 77339
" />
<path d="M90075 77395
L90075 76805
" />
<path d="M90075 77030
L90131 77002
L90244 77002
L90300 77030
L90328 77058
L90356 77114
L90356 77283
L90328 77339
L90300 77367
L90244 77395
L90131 77395
L90075 77367
" />
<path d="M90862 77002
L90862 77395
" />
<path d="M90609 77002
L90609 77311
L90637 77367
L90694 77395
L90778 77395
L90834 77367
L90862 77339
" />
<path d="M91144 77002
L91144 77395
" />
<path d="M91144 77058
L91172 77030
L91228 77002
L91312 77002
L91368 77030
L91397 77086
L91397 77395
" />
<path d="M91593 77002
L91818 77002
" />
<path d="M91678 76805
L91678 77311
L91706 77367
L91762 77395
L91818 77395
" />
<path d="M92268 77002
L92268 77395
" />
<path d="M92015 77002
L92015 77311
L92043 77367
L92100 77395
L92184 77395
L92240 77367
L92268 77339
" />
<path d="M92859 77395
L92521 77395
" />
<path d="M92690 77395
L92690 76805
L92634 76889
L92578 76946
L92521 76974
" />
<path d="M93365 76805
L93253 76805
L93196 76833
L93168 76861
L93112 76946
L93084 77058
L93084 77283
L93112 77339
L93140 77367
L93196 77395
L93309 77395
L93365 77367
L93393 77339
L93421 77283
L93421 77142
L93393 77086
L93365 77058
L93309 77030
L93196 77030
L93140 77058
L93112 77086
L93084 77142
" />
<path d="M93674 77339
L93703 77367
L93674 77395
L93646 77367
L93674 77339
L93674 77395
" />
<path d="M94068 76805
L94124 76805
L94181 76833
L94209 76861
L94237 76917
L94265 77030
L94265 77171
L94237 77283
L94209 77339
L94181 77367
L94124 77395
L94068 77395
L94012 77367
L93984 77339
L93956 77283
L93928 77171
L93928 77030
L93956 76917
L93984 76861
L94012 76833
L94068 76805
" />
<path d="M94771 77002
L94771 77395
" />
<path d="M94631 76777
L94490 77199
L94856 77199
" />
<path d="M95081 77339
L95109 77367
L95081 77395
L95052 77367
L95081 77339
L95081 77395
" />
<path d="M95671 77395
L95334 77395
" />
<path d="M95502 77395
L95502 76805
L95446 76889
L95390 76946
L95334 76974
" />
</g>
<g style="fill:#000000; fill-opacity:0.0; 
stroke:#000000; stroke-width:39.3701; stroke-opacity:1; 
stroke-linecap:round; stroke-linejoin:round;">
</g>
<g style="fill:#000000; fill-opacity:0.0; 
stroke:#000000; stroke-width:59.0551; stroke-opacity:1; 
stroke-linecap:round; stroke-linejoin:round;">
<path d="M69685 75396
L112205 75396
" />
</g>
<g style="fill:#000000; fill-opacity:0.0; 
stroke:#000000; stroke-width:39.3701; stroke-opacity:1; 
stroke-linecap:round; stroke-linejoin:round;">
</g>
<g style="fill:#000000; fill-opacity:0.0; 
stroke:#000000; stroke-width:118.11; stroke-opacity:1; 
stroke-linecap:round; stroke-linejoin:round;">
<text x="103544" y="76321.7"
textLength="2336.9" font-size="787.402" lengthAdjust="spacingAndGlyphs"
text-anchor="start" opacity="0">Rev: </text>
<path d="M104099 76293
L103902 76012
" />
<path d="M103761 76293
L103761 75703
L103986 75703
L104042 75731
L104070 75759
L104099 75815
L104099 75899
L104070 75956
L104042 75984
L103986 76012
L103761 76012
" />
<path d="M104577 76265
L104520 76293
L104408 76293
L104352 76265
L104323 76209
L104323 75984
L104352 75928
L104408 75899
L104520 75899
L104577 75928
L104605 75984
L104605 76040
L104323 76096
" />
<path d="M104802 75899
L104942 76293
L105083 75899
" />
<path d="M105308 76237
L105336 76265
L105308 76293
L105280 76265
L105308 76237
L105308 76293
" />
<path d="M105308 75928
L105336 75956
L105308 75984
L105280 75956
L105308 75928
L105308 75984
" />
</g>
<g style="fill:#000000; fill-opacity:0.0; 
stroke:#000000; stroke-width:39.3701; stroke-opacity:1; 
stroke-linecap:round; stroke-linejoin:round;">
</g>
<g style="fill:#000000; fill-opacity:0.0; 
stroke:#000000; stroke-width:59.0551; stroke-opacity:1; 
stroke-linecap:round; stroke-linejoin:round;">
<text x="70079.6" y="76321.7"
textLength="3781.21" font-size="787.402" lengthAdjust="spacingAndGlyphs"
text-anchor="start" opacity="0">Size: A4</text>
<path d="M70221 76265
L70305 76293
L70446 76293
L70502 76265
L70530 76237
L70559 76181
L70559 76124
L70530 76068
L70502 76040
L70446 76012
L70334 75984
L70277 75956
L70249 75928
L70221 75871
L70221 75815
L70249 75759
L70277 75731
L70334 75703
L70474 75703
L70559 75731
" />
<path d="M70812 76293
L70812 75899
" />
<path d="M70812 75703
L70784 75731
L70812 75759
L70840 75731
L70812 75703
L70812 75759
" />
<path d="M71037 75899
L71346 75899
L71037 76293
L71346 76293
" />
<path d="M71796 76265
L71740 76293
L71627 76293
L71571 76265
L71543 76209
L71543 75984
L71571 75928
L71627 75899
L71740 75899
L71796 75928
L71824 75984
L71824 76040
L71543 76096
" />
<path d="M72077 76237
L72105 76265
L72077 76293
L72049 76265
L72077 76237
L72077 76293
" />
<path d="M72077 75928
L72105 75956
L72077 75984
L72049 75956
L72077 75928
L72077 75984
" />
<path d="M72780 76124
L73061 76124
" />
<path d="M72724 76293
L72921 75703
L73118 76293
" />
<path d="M73568 75899
L73568 76293
" />
<path d="M73427 75674
L73286 76096
L73652 76096
" />
</g>
<g style="fill:#000000; fill-opacity:0.0; 
stroke:#000000; stroke-width:39.3701; stroke-opacity:1; 
stroke-linecap:round; stroke-linejoin:round;">
</g>
<g style="fill:#000000; fill-opacity:0.0; 
stroke:#000000; stroke-width:59.0551; stroke-opacity:1; 
stroke-linecap:round; stroke-linejoin:round;">
<text x="103544" y="77424.1"
textLength="3349.27" font-size="787.402" lengthAdjust="spacingAndGlyphs"
text-anchor="start" opacity="0">Id: 1/1</text>
<path d="M103714 77395
L103714 76805
" />
<path d="M104248 77395
L104248 76805
" />
<path d="M104248 77367
L104192 77395
L104079 77395
L104023 77367
L103995 77339
L103967 77283
L103967 77114
L103995 77058
L104023 77030
L104079 77002
L104192 77002
L104248 77030
" />
<path d="M104529 77339
L104557 77367
L104529 77395
L104501 77367
L104529 77339
L104529 77395
" />
<path d="M104529 77030
L104557 77058
L104529 77086
L104501 77058
L104529 77030
L104529 77086
" />
<path d="M105570 77395
L105232 77395
" />
<path d="M105401 77395
L105401 76805
L105345 76889
L105289 76946
L105232 76974
" />
<path d="M106245 76777
L105739 77536
" />
<path d="M106751 77395
L106413 77395
" />
<path d="M106582 77395
L106582 76805
L106526 76889
L106470 76946
L106413 76974
" />
</g>
<g style="fill:#000000; fill-opacity:0.0; 
stroke:#000000; stroke-width:39.3701; stroke-opacity:1; 
stroke-linecap:round; stroke-linejoin:round;">
</g>
<g style="fill:#000000; fill-opacity:0.0; 
stroke:#000000; stroke-width:59.0551; stroke-opacity:1; 
stroke-linecap:round; stroke-linejoin:round;">
<path d="M69685 73821
L112205 73821
" />
</g>
<g style="fill:#000000; fill-opacity:0.0; 
stroke:#000000; stroke-width:39.3701; stroke-opacity:1; 
stroke-linecap:round; stroke-linejoin:round;">
</g>
<g style="fill:#000000; fill-opacity:0.0; 
stroke:#000000; stroke-width:157.48; stroke-opacity:1; 
stroke-linecap:round; stroke-linejoin:round;">
<text x="70079.6" y="74924.1"
textLength="3701.14" font-size="1049.87" lengthAdjust="spacingAndGlyphs"
text-anchor="start" opacity="0">Title: </text>
<path d="M70360 74099
L70810 74099
" />
<path d="M70486 74886
L70585 74099
" />
<path d="M70974 74886
L71039 74361
" />
<path d="M71072 74099
L71030 74136
L71063 74174
L71105 74136
L71072 74099
L71063 74174
" />
<path d="M71302 74361
L71602 74361
" />
<path d="M71447 74099
L71363 74774
L71391 74849
L71461 74886
L71536 74886
" />
<path d="M71911 74886
L71841 74849
L71813 74774
L71897 74099
" />
<path d="M72516 74849
L72436 74886
L72286 74886
L72216 74849
L72187 74774
L72225 74474
L72272 74399
L72352 74361
L72501 74361
L72572 74399
L72600 74474
L72591 74549
L72206 74624
" />
<path d="M72895 74811
L72928 74849
L72886 74886
L72853 74849
L72895 74811
L72886 74886
" />
<path d="M72947 74399
L72980 74436
L72937 74474
L72905 74436
L72947 74399
L72937 74474
" />
</g>
<g style="fill:#000000; fill-opacity:0.0; 
stroke:#000000; stroke-width:39.3701; stroke-opacity:1; 
stroke-linecap:round; stroke-linejoin:round;">
</g>
<g style="fill:#000000; fill-opacity:0.0; 
stroke:#000000; stroke-width:59.0551; stroke-opacity:1; 
stroke-linecap:round; stroke-linejoin:round;">
<text x="70079.6" y="73408.3"
textLength="11200.2" font-size="787.402" lengthAdjust="spacingAndGlyphs"
text-anchor="start" opacity="0">File: BlackBox.kicad_pcb</text>
<path d="M70446 73070
L70249 73070
" />
<path d="M70249 73380
L70249 72789
L70530 72789
" />
<path d="M70755 73380
L70755 72986
" />
<path d="M70755 72789
L70727 72817
L70755 72845
L70784 72817
L70755 72789
L70755 72845
" />
<path d="M71121 73380
L71065 73352
L71037 73295
L71037 72789
" />
<path d="M71571 73352
L71515 73380
L71402 73380
L71346 73352
L71318 73295
L71318 73070
L71346 73014
L71402 72986
L71515 72986
L71571 73014
L71599 73070
L71599 73127
L71318 73183
" />
<path d="M71852 73323
L71880 73352
L71852 73380
L71824 73352
L71852 73323
L71852 73380
" />
<path d="M71852 73014
L71880 73042
L71852 73070
L71824 73042
L71852 73014
L71852 73070
" />
<path d="M72780 73070
L72865 73099
L72893 73127
L72921 73183
L72921 73267
L72893 73323
L72865 73352
L72808 73380
L72583 73380
L72583 72789
L72780 72789
L72836 72817
L72865 72845
L72893 72902
L72893 72958
L72865 73014
L72836 73042
L72780 73070
L72583 73070
" />
<path d="M73258 73380
L73202 73352
L73174 73295
L73174 72789
" />
<path d="M73736 73380
L73736 73070
L73708 73014
L73652 72986
L73539 72986
L73483 73014
" />
<path d="M73736 73352
L73680 73380
L73539 73380
L73483 73352
L73455 73295
L73455 73239
L73483 73183
L73539 73155
L73680 73155
L73736 73127
" />
<path d="M74271 73352
L74214 73380
L74102 73380
L74046 73352
L74018 73323
L73989 73267
L73989 73099
L74018 73042
L74046 73014
L74102 72986
L74214 72986
L74271 73014
" />
<path d="M74524 73380
L74524 72789
" />
<path d="M74580 73155
L74749 73380
" />
<path d="M74749 72986
L74524 73211
" />
<path d="M75199 73070
L75283 73099
L75311 73127
L75339 73183
L75339 73267
L75311 73323
L75283 73352
L75227 73380
L75002 73380
L75002 72789
L75199 72789
L75255 72817
L75283 72845
L75311 72902
L75311 72958
L75283 73014
L75255 73042
L75199 73070
L75002 73070
" />
<path d="M75677 73380
L75620 73352
L75592 73323
L75564 73267
L75564 73099
L75592 73042
L75620 73014
L75677 72986
L75761 72986
L75817 73014
L75845 73042
L75874 73099
L75874 73267
L75845 73323
L75817 73352
L75761 73380
L75677 73380
" />
<path d="M76070 73380
L76380 72986
" />
<path d="M76070 72986
L76380 73380
" />
<path d="M76605 73323
L76633 73352
L76605 73380
L76577 73352
L76605 73323
L76605 73380
" />
<path d="M76886 73380
L76886 72789
" />
<path d="M76942 73155
L77111 73380
" />
<path d="M77111 72986
L76886 73211
" />
<path d="M77364 73380
L77364 72986
" />
<path d="M77364 72789
L77336 72817
L77364 72845
L77392 72817
L77364 72789
L77364 72845
" />
<path d="M77898 73352
L77842 73380
L77730 73380
L77673 73352
L77645 73323
L77617 73267
L77617 73099
L77645 73042
L77673 73014
L77730 72986
L77842 72986
L77898 73014
" />
<path d="M78404 73380
L78404 73070
L78376 73014
L78320 72986
L78208 72986
L78151 73014
" />
<path d="M78404 73352
L78348 73380
L78208 73380
L78151 73352
L78123 73295
L78123 73239
L78151 73183
L78208 73155
L78348 73155
L78404 73127
" />
<path d="M78939 73380
L78939 72789
" />
<path d="M78939 73352
L78883 73380
L78770 73380
L78714 73352
L78686 73323
L78658 73267
L78658 73099
L78686 73042
L78714 73014
L78770 72986
L78883 72986
L78939 73014
" />
<path d="M79079 73436
L79529 73436
" />
<path d="M79670 72986
L79670 73577
" />
<path d="M79670 73014
L79726 72986
L79839 72986
L79895 73014
L79923 73042
L79951 73099
L79951 73267
L79923 73323
L79895 73352
L79839 73380
L79726 73380
L79670 73352
" />
<path d="M80457 73352
L80401 73380
L80289 73380
L80232 73352
L80204 73323
L80176 73267
L80176 73099
L80204 73042
L80232 73014
L80289 72986
L80401 72986
L80457 73014
" />
<path d="M80710 73380
L80710 72789
" />
<path d="M80710 73014
L80767 72986
L80879 72986
L80935 73014
L80964 73042
L80992 73099
L80992 73267
L80964 73323
L80935 73352
L80879 73380
L80767 73380
L80710 73352
" />
</g>
<g style="fill:#000000; fill-opacity:0.0; 
stroke:#000000; stroke-width:39.3701; stroke-opacity:1; 
stroke-linecap:round; stroke-linejoin:round;">
</g>
<g style="fill:#000000; fill-opacity:0.0; 
stroke:#000000; stroke-width:59.0551; stroke-opacity:1; 
stroke-linecap:round; stroke-linejoin:round;">
<path d="M69685 71459
L112205 71459
" />
</g>
<g style="fill:#000000; fill-opacity:0.0; 
stroke:#000000; stroke-width:39.3701; stroke-opacity:1; 
stroke-linecap:round; stroke-linejoin:round;">
</g>
<g style="fill:#000000; fill-opacity:0.0; 
stroke:#000000; stroke-width:59.0551; stroke-opacity:1; 
stroke-linecap:round; stroke-linejoin:round;">
<text x="70079.6" y="72345.4"
textLength="3236.78" font-size="787.402" lengthAdjust="spacingAndGlyphs"
text-anchor="start" opacity="0">Sheet: </text>
<path d="M70221 72289
L70305 72317
L70446 72317
L70502 72289
L70530 72260
L70559 72204
L70559 72148
L70530 72092
L70502 72064
L70446 72036
L70334 72007
L70277 71979
L70249 71951
L70221 71895
L70221 71839
L70249 71782
L70277 71754
L70334 71726
L70474 71726
L70559 71754
" />
<path d="M70812 72317
L70812 71726
" />
<path d="M71065 72317
L71065 72007
L71037 71951
L70980 71923
L70896 71923
L70840 71951
L70812 71979
" />
<path d="M71571 72289
L71515 72317
L71402 72317
L71346 72289
L71318 72232
L71318 72007
L71346 71951
L71402 71923
L71515 71923
L71571 71951
L71599 72007
L71599 72064
L71318 72120
" />
<path d="M72077 72289
L72021 72317
L71908 72317
L71852 72289
L71824 72232
L71824 72007
L71852 71951
L71908 71923
L72021 71923
L72077 71951
L72105 72007
L72105 72064
L71824 72120
" />
<path d="M72274 71923
L72499 71923
" />
<path d="M72358 71726
L72358 72232
L72386 72289
L72443 72317
L72499 72317
" />
<path d="M72696 72260
L72724 72289
L72696 72317
L72668 72289
L72696 72260
L72696 72317
" />
<path d="M72696 71951
L72724 71979
L72696 72007
L72668 71979
L72696 71951
L72696 72007
" />
</g>
<g style="fill:#000000; fill-opacity:0.0; 
stroke:#000000; stroke-width:39.3701; stroke-opacity:1; 
stroke-linecap:round; stroke-linejoin:round;">
</g>
<g style="fill:#000000; fill-opacity:0.0; 
stroke:#000000; stroke-width:59.0551; stroke-opacity:1; 
stroke-linecap:round; stroke-linejoin:round;">
<path d="M77559 75396
L77559 76577
" />
</g>
<g style="fill:#000000; fill-opacity:0.0; 
stroke:#000000; stroke-width:39.3701; stroke-opacity:1; 
stroke-linecap:round; stroke-linejoin:round;">
</g>
<g style="fill:#000000; fill-opacity:0.0; 
stroke:#000000; stroke-width:59.0551; stroke-opacity:1; 
stroke-linecap:round; stroke-linejoin:round;">
<path d="M102756 75396
L102756 77955
" />
<g >
</g>
<g style="fill:#848400; fill-opacity:0.0; 
stroke:#848400; stroke-width:59.0551; stroke-opacity:1; 
stroke-linecap:round; stroke-linejoin:round;">
</g>
<g style="fill:#848400; fill-opacity:0.0; 
stroke:#848400; stroke-width:0; stroke-opacity:1; 
stroke-linecap:round; stroke-linejoin:round;">
</g>
<g style="fill:#848400; fill-opacity:1.0; 
stroke:#848400; stroke-width:0; stroke-opacity:1; 
stroke-linecap:round; stroke-linejoin:round;">
<path style="fill:#848400; fill-opacity:1.0; 
stroke:#848400; stroke-width:0; stroke-opacity:1; 
stroke-linecap:round; stroke-linejoin:round;fill-rule:evenodd;"
d="M 60693.3,47395.3
60693.3,46804.7
61106.7,46804.7
61106.7,47395.3
Z" /> 
</g>
<g style="fill:#848400; fill-opacity:1.0; 
stroke:#848400; stroke-width:413.386; stroke-opacity:1; 
stroke-linecap:round; stroke-linejoin:round;">
</g>
<g style="fill:#848400; fill-opacity:0.0; 
stroke:#848400; stroke-width:413.386; stroke-opacity:1; 
stroke-linecap:round; stroke-linejoin:round;">
<path d="M61900 47011
L61900 47188
" />
<path d="M61400 47011
L61400 47188
" />
</g>
<g >
</g>
<g style="fill:#848400; fill-opacity:0.0; 
stroke:#848400; stroke-width:413.386; stroke-opacity:1; 
stroke-linecap:round; stroke-linejoin:round;">
</g>
<g style="fill:#848400; fill-opacity:1.0; 
stroke:#848400; stroke-width:0; stroke-opacity:1; 
stroke-linecap:round; stroke-linejoin:round;">
<circle cx="57393.7" cy="47300" r="314.961" /> 
<circle cx="51393.7" cy="47300" r="314.961" /> 
</g>
<g style="fill:#848400; fill-opacity:1.0; 
stroke:#848400; stroke-width:39.3701; stroke-opacity:1; 
stroke-linecap:round; stroke-linejoin:round;">
</g>
<g >
</g>
<g style="fill:#848400; fill-opacity:1.0; 
stroke:#848400; stroke-width:39.3701; stroke-opacity:1; 
stroke-linecap:round; stroke-linejoin:round;">
</g>
<g style="fill:#848400; fill-opacity:1.0; 
stroke:#848400; stroke-width:0; stroke-opacity:1; 
stroke-linecap:round; stroke-linejoin:round;">
<circle cx="51393.7" cy="49000" r="314.961" /> 
<circle cx="57393.7" cy="49000" r="314.961" /> 
</g>
<g style="fill:#848400; fill-opacity:1.0; 
stroke:#848400; stroke-width:39.3701; stroke-opacity:1; 
stroke-linecap:round; stroke-linejoin:round;">
</g>
<g >
</g>
<g style="fill:#848400; fill-opacity:1.0; 
stroke:#848400; stroke-width:39.3701; stroke-opacity:1; 
stroke-linecap:round; stroke-linejoin:round;">
</g>
<g style="fill:#848400; fill-opacity:1.0; 
stroke:#848400; stroke-width:0; stroke-opacity:1; 
stroke-linecap:round; stroke-linejoin:round;">
<circle cx="51393.7" cy="50700" r="314.961" /> 
<circle cx="57393.7" cy="50700" r="314.961" /> 
</g>
<g style="fill:#848400; fill-opacity:1.0; 
stroke:#848400; stroke-width:39.3701; stroke-opacity:1; 
stroke-linecap:round; stroke-linejoin:round;">
</g>
<g >
</g>
<g style="fill:#848400; fill-opacity:1.0; 
stroke:#848400; stroke-width:39.3701; stroke-opacity:1; 
stroke-linecap:round; stroke-linejoin:round;">
</g>
<g style="fill:#848400; fill-opacity:1.0; 
stroke:#848400; stroke-width:0; stroke-opacity:1; 
stroke-linecap:round; stroke-linejoin:round;">
<path style="fill:#848400; fill-opacity:1.0; 
stroke:#848400; stroke-width:0; stroke-opacity:1; 
stroke-linecap:round; stroke-linejoin:round;fill-rule:evenodd;"
d="M 54597.6,40248.8
54597.6,39648.8
55197.6,39648.8
55197.6,40248.8
Z" /> 
<circle cx="54897.6" cy="40948.8" r="300" /> 
</g>
<g style="fill:#848400; fill-opacity:1.0; 
stroke:#848400; stroke-width:39.3701; stroke-opacity:1; 
stroke-linecap:round; stroke-linejoin:round;">
</g>
<g style="fill:#848400; fill-opacity:1.0; 
stroke:#848400; stroke-width:0; stroke-opacity:1; 
stroke-linecap:round; stroke-linejoin:round;">
<circle cx="54897.6" cy="41948.8" r="300" /> 
</g>
<g style="fill:#848400; fill-opacity:1.0; 
stroke:#848400; stroke-width:39.3701; stroke-opacity:1; 
stroke-linecap:round; stroke-linejoin:round;">
</g>
<g style="fill:#848400; fill-opacity:1.0; 
stroke:#848400; stroke-width:0; stroke-opacity:1; 
stroke-linecap:round; stroke-linejoin:round;">
<circle cx="54897.6" cy="42948.8" r="300" /> 
</g>
<g style="fill:#848400; fill-opacity:1.0; 
stroke:#848400; stroke-width:39.3701; stroke-opacity:1; 
stroke-linecap:round; stroke-linejoin:round;">
</g>
<g style="fill:#848400; fill-opacity:1.0; 
stroke:#848400; stroke-width:0; stroke-opacity:1; 
stroke-linecap:round; stroke-linejoin:round;">
<circle cx="54897.6" cy="43948.8" r="300" /> 
</g>
<g style="fill:#848400; fill-opacity:1.0; 
stroke:#848400; stroke-width:39.3701; stroke-opacity:1; 
stroke-linecap:round; stroke-linejoin:round;">
</g>
<g style="fill:#848400; fill-opacity:1.0; 
stroke:#848400; stroke-width:0; stroke-opacity:1; 
stroke-linecap:round; stroke-linejoin:round;">
<circle cx="54897.6" cy="44948.8" r="300" /> 
</g>
<g style="fill:#848400; fill-opacity:1.0; 
stroke:#848400; stroke-width:39.3701; stroke-opacity:1; 
stroke-linecap:round; stroke-linejoin:round;">
</g>
<g >
</g>
<g >
</g>
<g style="fill:#848400; fill-opacity:1.0; 
stroke:#848400; stroke-width:39.3701; stroke-opacity:1; 
stroke-linecap:round; stroke-linejoin:round;">
</g>
<g style="fill:#848400; fill-opacity:1.0; 
stroke:#848400; stroke-width:0; stroke-opacity:1; 
stroke-linecap:round; stroke-linejoin:round;">
<circle cx="62000" cy="43900" r="275.591" /> 
</g>
<g style="fill:#848400; fill-opacity:1.0; 
stroke:#848400; stroke-width:39.3701; stroke-opacity:1; 
stroke-linecap:round; stroke-linejoin:round;">
</g>
<g style="fill:#848400; fill-opacity:1.0; 
stroke:#848400; stroke-width:0; stroke-opacity:1; 
stroke-linecap:round; stroke-linejoin:round;">
<circle cx="61015.7" cy="43900" r="275.591" /> 
</g>
<g style="fill:#848400; fill-opacity:1.0; 
stroke:#848400; stroke-width:39.3701; stroke-opacity:1; 
stroke-linecap:round; stroke-linejoin:round;">
</g>
<g >
</g>
<g style="fill:#848400; fill-opacity:1.0; 
stroke:#848400; stroke-width:39.3701; stroke-opacity:1; 
stroke-linecap:round; stroke-linejoin:round;">
</g>
<g style="fill:#848400; fill-opacity:1.0; 
stroke:#848400; stroke-width:0; stroke-opacity:1; 
stroke-linecap:round; stroke-linejoin:round;">
<circle cx="57393.7" cy="52400" r="314.961" /> 
</g>
<g style="fill:#848400; fill-opacity:1.0; 
stroke:#848400; stroke-width:39.3701; stroke-opacity:1; 
stroke-linecap:round; stroke-linejoin:round;">
</g>
<g style="fill:#848400; fill-opacity:1.0; 
stroke:#848400; stroke-width:0; stroke-opacity:1; 
stroke-linecap:round; stroke-linejoin:round;">
<circle cx="51393.7" cy="52400" r="314.961" /> 
</g>
<g >
</g>
<g style="fill:#848400; fill-opacity:1.0; 
stroke:#848400; stroke-width:0; stroke-opacity:1; 
stroke-linecap:round; stroke-linejoin:round;">
<path style="fill:#848400; fill-opacity:1.0; 
stroke:#848400; stroke-width:0; stroke-opacity:1; 
stroke-linecap:round; stroke-linejoin:round;fill-rule:evenodd;"
d="M 62311.8,57711.8
61288.2,57711.8
61288.2,56688.2
62311.8,56688.2
Z" /> 
<circle cx="61800" cy="55231.5" r="511.811" /> 
</g>
<g style="fill:#848400; fill-opacity:1.0; 
stroke:#848400; stroke-width:39.3701; stroke-opacity:1; 
stroke-linecap:round; stroke-linejoin:round;">
</g>
<g >
</g>
<g style="fill:#848400; fill-opacity:1.0; 
stroke:#848400; stroke-width:39.3701; stroke-opacity:1; 
stroke-linecap:round; stroke-linejoin:round;">
</g>
<g style="fill:#848400; fill-opacity:1.0; 
stroke:#848400; stroke-width:629.921; stroke-opacity:1; 
stroke-linecap:round; stroke-linejoin:round;">
</g>
<g style="fill:#848400; fill-opacity:0.0; 
stroke:#848400; stroke-width:629.921; stroke-opacity:1; 
stroke-linecap:round; stroke-linejoin:round;">
<path d="M61657 33870
L61500 33870
" />
</g>
<g style="fill:#848400; fill-opacity:0.0; 
stroke:#848400; stroke-width:0; stroke-opacity:1; 
stroke-linecap:round; stroke-linejoin:round;">
</g>
<g style="fill:#848400; fill-opacity:1.0; 
stroke:#848400; stroke-width:0; stroke-opacity:1; 
stroke-linecap:round; stroke-linejoin:round;">
<path style="fill:#848400; fill-opacity:1.0; 
stroke:#848400; stroke-width:0; stroke-opacity:1; 
stroke-linecap:round; stroke-linejoin:round;fill-rule:evenodd;"
d="M 61972.4,34476.4
61972.4,35263.8
61185,35263.8
61185,34476.4
Z" /> 
</g>
<g style="fill:#848400; fill-opacity:1.0; 
stroke:#848400; stroke-width:629.921; stroke-opacity:1; 
stroke-linecap:round; stroke-linejoin:round;">
</g>
<g style="fill:#848400; fill-opacity:0.0; 
stroke:#848400; stroke-width:629.921; stroke-opacity:1; 
stroke-linecap:round; stroke-linejoin:round;">
<path d="M61657 32870
L61500 32870
" />
<path d="M61657 31870
L61500 31870
" />
<path d="M61657 30870
L61500 30870
" />
<path d="M61657 29870
L61500 29870
" />
<path d="M61657 28870
L61500 28870
" />
<path d="M61657 27870
L61500 27870
" />
<path d="M52657 27870
L52500 27870
" />
<path d="M52657 28870
L52500 28870
" />
<path d="M52657 29870
L52500 29870
" />
<path d="M52657 30870
L52500 30870
" />
<path d="M52657 31870
L52500 31870
" />
<path d="M52657 32870
L52500 32870
" />
<path d="M52657 33870
L52500 33870
" />
<path d="M52657 34870
L52500 34870
" />
</g>
<g >
</g>
<g >
</g>
<g >
</g>
<g style="fill:#008400; fill-opacity:0.0; 
stroke:#008400; stroke-width:629.921; stroke-opacity:1; 
stroke-linecap:round; stroke-linejoin:round;">
<g >
</g>
<g style="fill:#008400; fill-opacity:1.0; 
stroke:#008400; stroke-width:100; stroke-opacity:1; 
stroke-linecap:round; stroke-linejoin:round;">
<path style="fill:#008400; fill-opacity:1.0; 
stroke:#008400; stroke-width:100; stroke-opacity:1; 
stroke-linecap:round; stroke-linejoin:round;fill-rule:evenodd;"
d="M 65074.8,58775.6
39649.6,58775.6
39649.6,56688.2
61037,56688.2
61037,57711.8
61041.8,57760.8
61056.1,57807.9
61079.3,57851.4
61110.6,57889.4
61148.6,57920.7
61192.1,57943.9
61239.2,57958.2
61288.2,57963
62311.8,57963
62360.8,57958.2
62407.9,57943.9
62451.4,57920.7
62489.4,57889.4
62520.7,57851.4
62543.9,57807.9
62558.2,57760.8
62563,57711.8
62563,56688.2
62558.2,56639.2
62543.9,56592.1
62520.7,56548.6
62489.4,56510.6
62451.4,56479.3
62407.9,56456.1
62360.8,56441.8
62311.8,56437
61288.2,56437
61239.2,56441.8
61192.1,56456.1
61148.6,56479.3
61110.6,56510.6
61079.3,56548.6
61056.1,56592.1
61041.8,56639.2
61037,56688.2
39649.6,56688.2
39649.6,55156.5
61038.2,55156.5
61038.2,55306.5
61067.5,55453.7
61124.9,55592.3
61208.3,55717.1
61314.4,55823.2
61439.1,55906.6
61577.8,55964
61725,55993.3
61875,55993.3
62022.2,55964
62160.9,55906.6
62285.6,55823.2
62391.7,55717.1
62475.1,55592.3
62532.5,55453.7
62561.8,55306.5
62561.8,55156.5
62532.5,55009.3
62475.1,54870.6
62391.7,54745.9
62285.6,54639.8
62160.9,54556.4
62022.2,54499
61875,54469.7
61725,54469.7
61577.8,54499
61439.1,54556.4
61314.4,54639.8
61208.3,54745.9
61124.9,54870.6
61067.5,55009.3
61038.2,55156.5
39649.6,55156.5
39649.6,52195.9
48031.5,52195.9
48031.5,52378.9
48067.2,52558.4
48137.2,52727.5
48238.9,52879.7
48368.3,53009.1
48520.5,53110.8
48689.6,53180.8
48869.1,53216.5
49052.1,53216.5
49231.6,53180.8
49400.7,53110.8
49552.9,53009.1
49682.3,52879.7
49784,52727.5
49854.1,52558.4
49858.2,52537.4
50845.7,52537.4
50861.7,52590.2
50909,52690.3
50975,52779.3
51057,52853.7
51152,52910.7
51256.3,52948
51343.7,52900.2
51343.7,52450
51443.7,52450
51443.7,52900.2
51531.1,52948
51635.4,52910.7
51730.4,52853.7
51812.4,52779.3
51878.4,52690.3
51925.7,52590.2
51941.7,52537.4
51893.7,52450
51443.7,52450
51343.7,52450
50893.7,52450
50845.7,52537.4
49858.2,52537.4
49889.8,52378.9
49889.8,52262.6
50845.7,52262.6
50893.7,52350
51343.7,52350
51343.7,51899.8
51443.7,51899.8
51443.7,52350
51893.7,52350
51896.8,52344.4
56828.7,52344.4
56828.7,52455.6
56850.5,52564.8
56893,52667.6
56954.9,52760.1
57033.6,52838.8
57126.1,52900.7
57228.9,52943.2
57338.1,52965
57449.3,52965
57558.5,52943.2
57661.3,52900.7
57753.8,52838.8
57832.5,52760.1
57894.4,52667.6
57936.9,52564.8
57958.7,52455.6
57958.7,52344.4
57936.9,52235.2
57894.4,52132.4
57832.5,52039.9
57753.8,51961.2
57661.3,51899.3
57558.5,51856.8
57449.3,51835
57338.1,51835
57228.9,51856.8
57126.1,51899.3
57033.6,51961.2
56954.9,52039.9
56893,52132.4
56850.5,52235.2
56828.7,52344.4
51896.8,52344.4
51941.7,52262.6
51925.7,52209.8
51878.4,52109.7
51812.4,52020.7
51730.4,51946.3
51635.4,51889.3
51531.1,51852
51443.7,51899.8
51343.7,51899.8
51256.3,51852
51152,51889.3
51057,51946.3
50975,52020.7
50909,52109.7
50861.7,52209.8
50845.7,52262.6
49889.8,52262.6
49889.8,52195.9
49854.1,52016.4
49784,51847.3
49682.3,51695.1
49552.9,51565.7
49400.7,51464
49231.6,51394
49052.1,51358.3
48869.1,51358.3
48689.6,51394
48520.5,51464
48368.3,51565.7
48238.9,51695.1
48137.2,51847.3
48067.2,52016.4
48031.5,52195.9
39649.6,52195.9
39649.6,50644.4
50828.7,50644.4
50828.7,50755.6
50850.5,50864.8
50893,50967.6
50954.9,51060.1
51033.6,51138.8
51126.1,51200.7
51228.9,51243.2
51338.1,51265
51449.3,51265
51558.5,51243.2
51661.3,51200.7
51753.8,51138.8
51832.5,51060.1
51894.4,50967.6
51936.9,50864.8
51958.7,50755.6
51958.7,50644.4
56828.7,50644.4
56828.7,50755.6
56850.5,50864.8
56893,50967.6
56954.9,51060.1
57033.6,51138.8
57126.1,51200.7
57228.9,51243.2
57338.1,51265
57449.3,51265
57558.5,51243.2
57661.3,51200.7
57753.8,51138.8
57832.5,51060.1
57894.4,50967.6
57936.9,50864.8
57958.7,50755.6
57958.7,50644.4
57936.9,50535.2
57894.4,50432.4
57832.5,50339.9
57753.8,50261.2
57661.3,50199.3
57558.5,50156.8
57449.3,50135
57338.1,50135
57228.9,50156.8
57126.1,50199.3
57033.6,50261.2
56954.9,50339.9
56893,50432.4
56850.5,50535.2
56828.7,50644.4
51958.7,50644.4
51936.9,50535.2
51894.4,50432.4
51832.5,50339.9
51753.8,50261.2
51661.3,50199.3
51558.5,50156.8
51449.3,50135
51338.1,50135
51228.9,50156.8
51126.1,50199.3
51033.6,50261.2
50954.9,50339.9
50893,50432.4
50850.5,50535.2
50828.7,50644.4
39649.6,50644.4
39649.6,48944.4
50828.7,48944.4
50828.7,49055.6
50850.5,49164.8
50893,49267.6
50954.9,49360.1
51033.6,49438.8
51126.1,49500.7
51228.9,49543.2
51338.1,49565
51449.3,49565
51558.5,49543.2
51661.3,49500.7
51753.8,49438.8
51832.5,49360.1
51894.4,49267.6
51936.9,49164.8
51958.7,49055.6
51958.7,48944.4
56828.7,48944.4
56828.7,49055.6
56850.5,49164.8
56893,49267.6
56954.9,49360.1
57033.6,49438.8
57126.1,49500.7
57228.9,49543.2
57338.1,49565
57449.3,49565
57558.5,49543.2
57661.3,49500.7
57753.8,49438.8
57832.5,49360.1
57894.4,49267.6
57936.9,49164.8
57958.7,49055.6
57958.7,48944.4
57936.9,48835.2
57894.4,48732.4
57832.5,48639.9
57753.8,48561.2
57661.3,48499.3
57558.5,48456.8
57449.3,48435
57338.1,48435
57228.9,48456.8
57126.1,48499.3
57033.6,48561.2
56954.9,48639.9
56893,48732.4
56850.5,48835.2
56828.7,48944.4
51958.7,48944.4
51936.9,48835.2
51894.4,48732.4
51832.5,48639.9
51753.8,48561.2
51661.3,48499.3
51558.5,48456.8
51449.3,48435
51338.1,48435
51228.9,48456.8
51126.1,48499.3
51033.6,48561.2
50954.9,48639.9
50893,48732.4
50850.5,48835.2
50828.7,48944.4
39649.6,48944.4
39649.6,47244.4
50828.7,47244.4
50828.7,47355.6
50850.5,47464.8
50893,47567.6
50954.9,47660.1
51033.6,47738.8
51126.1,47800.7
51228.9,47843.2
51338.1,47865
51449.3,47865
51558.5,47843.2
51661.3,47800.7
51753.8,47738.8
51832.5,47660.1
51894.4,47567.6
51936.9,47464.8
51942.4,47437.4
56845.7,47437.4
56861.7,47490.2
56909,47590.3
56975,47679.3
57057,47753.7
57152,47810.7
57256.3,47848
57343.7,47800.2
57343.7,47350
57443.7,47350
57443.7,47800.2
57531.1,47848
57635.4,47810.7
57730.4,47753.7
57812.4,47679.3
57878.4,47590.3
57925.7,47490.2
57941.7,47437.4
57893.7,47350
57443.7,47350
57343.7,47350
56893.7,47350
56845.7,47437.4
51942.4,47437.4
51958.7,47355.6
51958.7,47244.4
51942.4,47162.6
56845.7,47162.6
56893.7,47250
57343.7,47250
57343.7,46799.8
57443.7,46799.8
57443.7,47250
57893.7,47250
57941.7,47162.6
57925.7,47109.8
57878.4,47009.7
57812.4,46920.7
57730.4,46846.3
57661,46804.7
60442.1,46804.7
60442.1,47395.3
60446.9,47444.3
60461.2,47491.4
60484.4,47534.8
60515.7,47572.9
60553.7,47604.1
60597.2,47627.4
60644.3,47641.7
60693.3,47646.5
61106.7,47646.5
61155.7,47641.7
61202.8,47627.4
61228.4,47613.7
61255.4,47625.7
61279.6,47629.1
61350,47579.6
61350,47454.4
61353.1,47444.3
61357.9,47395.3
61357.9,46989
61443.3,46989
61443.3,47211
61449.9,47278.1
61450,47278.4
61450,47579.6
61520.4,47629.1
61544.6,47625.7
61627.1,47589.1
61650.1,47572.9
61724.4,47612.6
61810.5,47638.7
61900,47647.5
61989.5,47638.7
62075.6,47612.6
62155,47570.1
62224.5,47513.1
62281.6,47443.5
62324,47364.2
62350.1,47278.1
62356.7,47211
62356.7,46989
62350.1,46921.9
62324,46835.8
62281.6,46756.5
62224.5,46686.9
62155,46629.9
62075.6,46587.4
61989.5,46561.3
61900,46552.5
61810.5,46561.3
61724.4,46587.4
61650.1,46627.1
61627.1,46610.9
61544.6,46574.3
61520.4,46570.9
61450,46620.4
61450,46921.6
61449.9,46921.9
61443.3,46989
61357.9,46989
61357.9,46804.7
61353.1,46755.7
61350,46745.6
61350,46620.4
61279.6,46570.9
61255.4,46574.3
61228.4,46586.3
61202.8,46572.6
61155.7,46558.3
61106.7,46553.5
60693.3,46553.5
60644.3,46558.3
60597.2,46572.6
60553.7,46595.9
60515.7,46627.1
60484.4,46665.2
60461.2,46708.6
60446.9,46755.7
60442.1,46804.7
57661,46804.7
57635.4,46789.3
57531.1,46752
57443.7,46799.8
57343.7,46799.8
57256.3,46752
57152,46789.3
57057,46846.3
56975,46920.7
56909,47009.7
56861.7,47109.8
56845.7,47162.6
51942.4,47162.6
51936.9,47135.2
51894.4,47032.4
51832.5,46939.9
51753.8,46861.2
51661.3,46799.3
51558.5,46756.8
51449.3,46735
51338.1,46735
51228.9,46756.8
51126.1,46799.3
51033.6,46861.2
50954.9,46939.9
50893,47032.4
50850.5,47135.2
50828.7,47244.4
39649.6,47244.4
39649.6,44186
51292.6,44186
51292.6,44396.7
51333.7,44603.3
51414.3,44798
51531.4,44973.2
51680.4,45122.2
51855.5,45239.2
52050.2,45319.9
52256.9,45361
52467.6,45361
52674.2,45319.9
52868.9,45239.2
53044.1,45122.2
53193,44973.2
53310.1,44798
53390.7,44603.3
53431.8,44396.7
53431.8,44186
53390.7,43979.3
53310.1,43784.7
53193,43609.5
53044.1,43460.5
52868.9,43343.4
52674.2,43262.8
52467.6,43221.7
52256.9,43221.7
52050.2,43262.8
51855.5,43343.4
51680.4,43460.5
51531.4,43609.5
51414.3,43784.7
51333.7,43979.3
51292.6,44186
39649.6,44186
39649.6,41894.6
54347.6,41894.6
54347.6,42003
54368.8,42109.2
54410.2,42209.3
54470.4,42299.4
54547,42376
54637.1,42436.2
54667.5,42448.8
54637.1,42461.4
54547,42521.6
54470.4,42598.2
54410.2,42688.3
54368.8,42788.4
54347.6,42894.6
54347.6,43003
54368.8,43109.2
54410.2,43209.3
54470.4,43299.4
54547,43376
54637.1,43436.2
54667.5,43448.8
54637.1,43461.4
54547,43521.6
54470.4,43598.2
54410.2,43688.3
54368.8,43788.4
54347.6,43894.6
54347.6,44003
54368.8,44109.2
54410.2,44209.3
54470.4,44299.4
54547,44376
54637.1,44436.2
54667.5,44448.8
54637.1,44461.4
54547,44521.6
54470.4,44598.2
54410.2,44688.3
54368.8,44788.4
54347.6,44894.6
54347.6,45003
54368.8,45109.2
54410.2,45209.3
54470.4,45299.4
54547,45376
54637.1,45436.2
54737.2,45477.7
54843.5,45498.8
54951.8,45498.8
55058.1,45477.7
55158.2,45436.2
55248.2,45376
55324.9,45299.4
55385,45209.3
55426.5,45109.2
55447.6,45003
55447.6,44894.6
55426.5,44788.4
55385,44688.3
55324.9,44598.2
55248.2,44521.6
55158.2,44461.4
55127.8,44448.8
55158.2,44436.2
55248.2,44376
55324.9,44299.4
55349.4,44262.7
60723.8,44262.7
60747.2,44354.7
60841,44398.4
60941.6,44422.9
61045.1,44427.3
61147.4,44411.5
61244.6,44376
61284.3,44354.7
61307.7,44262.7
61015.7,43970.7
60723.8,44262.7
55349.4,44262.7
55385,44209.3
55426.5,44109.2
55447.6,44003
55447.6,43929.3
60488.4,43929.3
60504.3,44031.6
60539.8,44128.9
60561,44168.6
60653,44192
60945,43900
61086.5,43900
61378.5,44192
61470.5,44168.6
61508.5,44086.8
61534.2,44149
61591.7,44235
61665,44308.3
61751,44365.8
61846.7,44405.4
61948.2,44425.6
62051.8,44425.6
62153.3,44405.4
62249,44365.8
62335,44308.3
62408.3,44235
62465.8,44149
62505.4,44053.3
62525.6,43951.8
62525.6,43848.2
62505.4,43746.7
62465.8,43651
62408.3,43565
62335,43491.7
62249,43434.2
62153.3,43394.6
62051.8,43374.4
61948.2,43374.4
61846.7,43394.6
61751,43434.2
61665,43491.7
61591.7,43565
61534.2,43651
61507.7,43715
61491.7,43671.1
61470.5,43631.4
61378.5,43608
61086.5,43900
60945,43900
60653,43608
60561,43631.4
60517.3,43725.3
60492.8,43825.9
60488.4,43929.3
55447.6,43929.3
55447.6,43894.6
55426.5,43788.4
55385,43688.3
55324.9,43598.2
55263.9,43537.3
60723.8,43537.3
61015.7,43829.3
61307.7,43537.3
61284.3,43445.3
61190.5,43401.6
61089.9,43377.1
60986.4,43372.7
60884.1,43388.5
60786.9,43424
60747.2,43445.3
60723.8,43537.3
55263.9,43537.3
55248.2,43521.6
55158.2,43461.4
55127.8,43448.8
55158.2,43436.2
55248.2,43376
55324.9,43299.4
55385,43209.3
55426.5,43109.2
55447.6,43003
55447.6,42894.6
55426.5,42788.4
55385,42688.3
55324.9,42598.2
55248.2,42521.6
55158.2,42461.4
55127.8,42448.8
55158.2,42436.2
55248.2,42376
55324.9,42299.4
55385,42209.3
55426.5,42109.2
55447.6,42003
55447.6,41894.6
55426.5,41788.4
55385,41688.3
55324.9,41598.2
55248.2,41521.6
55158.2,41461.4
55129.9,41449.7
55135,41447.9
55180.7,41423.5
55207.1,41329
54897.6,41019.5
54588.2,41329
54614.6,41423.5
54668,41448.6
54637.1,41461.4
54547,41521.6
54470.4,41598.2
54410.2,41688.3
54368.8,41788.4
54347.6,41894.6
39649.6,41894.6
39649.6,40977.2
54345.7,40977.2
54361.8,41084.3
54398.6,41186.2
54423,41231.9
54517.5,41258.3
54826.9,40948.8
54968.3,40948.8
55277.8,41258.3
55372.3,41231.9
55418.4,41133.8
55444.5,41028.7
55449.6,40920.5
55433.4,40813.3
55396.7,40711.4
55372.3,40665.8
55277.8,40639.4
54968.3,40948.8
54826.9,40948.8
54517.5,40639.4
54423,40665.8
54376.9,40763.8
54350.8,40869
54345.7,40977.2
39649.6,40977.2
39649.6,39648.8
54346.4,39648.8
54346.4,40248.8
54351.3,40297.8
54365.6,40345
54388.8,40388.4
54420,40426.5
54458.1,40457.7
54501.5,40480.9
54548.6,40495.2
54597.6,40500
54607.4,40500
54588.2,40568.7
54897.6,40878.1
55207.1,40568.7
55187.9,40500
55197.6,40500
55246.6,40495.2
55293.8,40480.9
55337.2,40457.7
55375.3,40426.5
55406.5,40388.4
55429.7,40345
55444,40297.8
55448.8,40248.8
55448.8,39648.8
55444,39599.8
55429.7,39552.7
55406.5,39509.3
55375.3,39471.2
55337.2,39439.9
55293.8,39416.7
55246.6,39402.4
55197.6,39397.6
54597.6,39397.6
54548.6,39402.4
54501.5,39416.7
54458.1,39439.9
54420,39471.2
54388.8,39509.3
54365.6,39552.7
54351.3,39599.8
54346.4,39648.8
39649.6,39648.8
39649.6,30463.6
41732.3,30463.6
41732.3,30646.6
41768,30826.1
41838,30995.2
41939.7,31147.4
42069.1,31276.8
42221.3,31378.5
42390.4,31448.5
42569.9,31484.3
42752.9,31484.3
42932.4,31448.5
43101.5,31378.5
43253.7,31276.8
43383.1,31147.4
43484.8,30995.2
43554.8,30826.1
43590.6,30646.6
43590.6,30463.6
43554.8,30284.1
43484.8,30115
43383.1,29962.8
43290.4,29870.1
51932.3,29870.1
51943.2,29980.8
51975.5,30087.3
52028,30185.5
52098.6,30271.5
52184.6,30342.1
52237,30370.1
52184.6,30398.1
52098.6,30468.7
52028,30554.7
51975.5,30652.8
51943.2,30759.3
51932.3,30870.1
51943.2,30980.8
51975.5,31087.3
52028,31185.5
52098.6,31271.5
52184.6,31342.1
52237,31370.1
52184.6,31398.1
52098.6,31468.7
52028,31554.7
51975.5,31652.8
51943.2,31759.3
51932.3,31870.1
51943.2,31980.8
51975.5,32087.3
52028,32185.5
52098.6,32271.5
52184.6,32342.1
52237,32370.1
52184.6,32398.1
52098.6,32468.7
52028,32554.7
51975.5,32652.8
51943.2,32759.3
51932.3,32870.1
51943.2,32980.8
51975.5,33087.3
52028,33185.5
52098.6,33271.5
52184.6,33342.1
52237,33370.1
52184.6,33398.1
52098.6,33468.7
52028,33554.7
51975.5,33652.8
51943.2,33759.3
51932.3,33870.1
51943.2,33980.8
51975.5,34087.3
52028,34185.5
52098.6,34271.5
52184.6,34342.1
52237,34370.1
52184.6,34398.1
52098.6,34468.7
52028,34554.7
51975.5,34652.8
51943.2,34759.3
51932.3,34870.1
51943.2,34980.8
51975.5,35087.3
52028,35185.5
52098.6,35271.5
52184.6,35342.1
52282.8,35394.6
52389.2,35426.9
52472.2,35435
52685.2,35435
52768.2,35426.9
52874.7,35394.6
52972.9,35342.1
53058.9,35271.5
53129.5,35185.5
53182,35087.3
53214.3,34980.8
53225.2,34870.1
53214.3,34759.3
53182,34652.8
53129.5,34554.7
53058.9,34468.7
52972.9,34398.1
52920.5,34370.1
52972.9,34342.1
53058.9,34271.5
53129.5,34185.5
53182,34087.3
53214.3,33980.8
53225.2,33870.1
53214.3,33759.3
53182,33652.8
53129.5,33554.7
53058.9,33468.7
52972.9,33398.1
52920.5,33370.1
52972.9,33342.1
53058.9,33271.5
53129.5,33185.5
53182,33087.3
53214.3,32980.8
53225.2,32870.1
53214.3,32759.3
53182,32652.8
53129.5,32554.7
53058.9,32468.7
52972.9,32398.1
52920.5,32370.1
52972.9,32342.1
53058.9,32271.5
53129.5,32185.5
53182,32087.3
53214.3,31980.8
53225.2,31870.1
53214.3,31759.3
53182,31652.8
53129.5,31554.7
53058.9,31468.7
52972.9,31398.1
52920.5,31370.1
52972.9,31342.1
53058.9,31271.5
53129.5,31185.5
53182,31087.3
53214.3,30980.8
53225.2,30870.1
53214.3,30759.3
53182,30652.8
53129.5,30554.7
53058.9,30468.7
52972.9,30398.1
52920.5,30370.1
52972.9,30342.1
53058.9,30271.5
53129.5,30185.5
53182,30087.3
53214.3,29980.8
53225.2,29870.1
53214.3,29759.3
53182,29652.8
53129.5,29554.7
53058.9,29468.7
52972.9,29398.1
52921.9,29370.8
52928.8,29367.9
53020.7,29305.4
53098.7,29226.2
53159.7,29133.2
53201.4,29030.2
53205.5,29007.5
53157.4,28920.1
52628.7,28920.1
52628.7,28928
52528.7,28928
52528.7,28920.1
52000,28920.1
51952,29007.5
51956.1,29030.2
51997.8,29133.2
52058.8,29226.2
52136.7,29305.4
52228.7,29367.9
52235.6,29370.8
52184.6,29398.1
52098.6,29468.7
52028,29554.7
51975.5,29652.8
51943.2,29759.3
51932.3,29870.1
43290.4,29870.1
43253.7,29833.4
43101.5,29731.7
42932.4,29661.7
42752.9,29626
42569.9,29626
42390.4,29661.7
42221.3,29731.7
42069.1,29833.4
41939.7,29962.8
41838,30115
41768,30284.1
41732.3,30463.6
39649.6,30463.6
39649.6,27204.6
48240.2,27204.6
48240.2,27346.6
48267.8,27485.7
48322.2,27616.9
48401,27734.9
48501.4,27835.2
48619.4,27914.1
48750.5,27968.4
48889.7,27996.1
49031.6,27996.1
49170.8,27968.4
49301.9,27914.1
49367.7,27870.1
51932.3,27870.1
51943.2,27980.8
51975.5,28087.3
52028,28185.5
52098.6,28271.5
52184.6,28342.1
52235.6,28369.3
52228.7,28372.3
52136.7,28434.8
52058.8,28514
51997.8,28606.9
51956.1,28709.9
51952,28732.7
52000,28820.1
52528.7,28820.1
52528.7,28812.2
52628.7,28812.2
52628.7,28820.1
53157.4,28820.1
53205.5,28732.7
53201.4,28709.9
53159.7,28606.9
53098.7,28514
53020.7,28434.8
52928.8,28372.3
52921.9,28369.3
52972.9,28342.1
53058.9,28271.5
53129.5,28185.5
53182,28087.3
53214.3,27980.8
53225.2,27870.1
60932.3,27870.1
60943.2,27980.8
60975.5,28087.3
61028,28185.5
61098.6,28271.5
61184.6,28342.1
61237,28370.1
61184.6,28398.1
61098.6,28468.7
61028,28554.7
60975.5,28652.8
60943.2,28759.3
60932.3,28870.1
60943.2,28980.8
60975.5,29087.3
61028,29185.5
61098.6,29271.5
61184.6,29342.1
61237,29370.1
61184.6,29398.1
61098.6,29468.7
61028,29554.7
60975.5,29652.8
60943.2,29759.3
60932.3,29870.1
60943.2,29980.8
60975.5,30087.3
61028,30185.5
61098.6,30271.5
61184.6,30342.1
61237,30370.1
61184.6,30398.1
61098.6,30468.7
61028,30554.7
60975.5,30652.8
60943.2,30759.3
60932.3,30870.1
60943.2,30980.8
60975.5,31087.3
61028,31185.5
61098.6,31271.5
61184.6,31342.1
61237,31370.1
61184.6,31398.1
61098.6,31468.7
61028,31554.7
60975.5,31652.8
60943.2,31759.3
60932.3,31870.1
60943.2,31980.8
60975.5,32087.3
61028,32185.5
61098.6,32271.5
61184.6,32342.1
61237,32370.1
61184.6,32398.1
61098.6,32468.7
61028,32554.7
60975.5,32652.8
60943.2,32759.3
60932.3,32870.1
60943.2,32980.8
60975.5,33087.3
61028,33185.5
61098.6,33271.5
61184.6,33342.1
61237,33370.1
61184.6,33398.1
61098.6,33468.7
61028,33554.7
60975.5,33652.8
60943.2,33759.3
60932.3,33870.1
60943.2,33980.8
60975.5,34087.3
61028,34185.5
61080.1,34249
61045.5,34267.5
61007.4,34298.7
60976.2,34336.8
60953,34380.2
60938.7,34427.4
60933.8,34476.4
60933.8,35263.8
60938.7,35312.8
60953,35359.9
60976.2,35403.3
61007.4,35441.4
61045.5,35472.7
61088.9,35495.9
61136,35510.2
61185,35515
61972.4,35515
62021.4,35510.2
62068.6,35495.9
62112,35472.7
62150.1,35441.4
62181.3,35403.3
62204.5,35359.9
62218.8,35312.8
62223.7,35263.8
62223.7,34476.4
62218.8,34427.4
62204.5,34380.2
62181.3,34336.8
62150.1,34298.7
62112,34267.5
62077.4,34249
62129.5,34185.5
62182,34087.3
62214.3,33980.8
62225.2,33870.1
62214.3,33759.3
62182,33652.8
62129.5,33554.7
62058.9,33468.7
61972.9,33398.1
61920.5,33370.1
61972.9,33342.1
62058.9,33271.5
62129.5,33185.5
62182,33087.3
62214.3,32980.8
62225.2,32870.1
62214.3,32759.3
62182,32652.8
62129.5,32554.7
62058.9,32468.7
61972.9,32398.1
61920.5,32370.1
61972.9,32342.1
62058.9,32271.5
62129.5,32185.5
62182,32087.3
62214.3,31980.8
62225.2,31870.1
62214.3,31759.3
62182,31652.8
62129.5,31554.7
62058.9,31468.7
61972.9,31398.1
61920.5,31370.1
61972.9,31342.1
62058.9,31271.5
62129.5,31185.5
62182,31087.3
62214.3,30980.8
62225.2,30870.1
62214.3,30759.3
62182,30652.8
62129.5,30554.7
62058.9,30468.7
61972.9,30398.1
61920.5,30370.1
61972.9,30342.1
62058.9,30271.5
62129.5,30185.5
62182,30087.3
62214.3,29980.8
62225.2,29870.1
62214.3,29759.3
62182,29652.8
62129.5,29554.7
62058.9,29468.7
61972.9,29398.1
61920.5,29370.1
61972.9,29342.1
62058.9,29271.5
62129.5,29185.5
62182,29087.3
62214.3,28980.8
62225.2,28870.1
62214.3,28759.3
62182,28652.8
62129.5,28554.7
62058.9,28468.7
61972.9,28398.1
61920.5,28370.1
61972.9,28342.1
62058.9,28271.5
62129.5,28185.5
62182,28087.3
62214.3,27980.8
62225.2,27870.1
62214.3,27759.3
62182,27652.8
62129.5,27554.7
62058.9,27468.7
61972.9,27398.1
61874.7,27345.6
61768.2,27313.3
61685.2,27305.1
61472.2,27305.1
61389.2,27313.3
61282.8,27345.6
61184.6,27398.1
61098.6,27468.7
61028,27554.7
60975.5,27652.8
60943.2,27759.3
60932.3,27870.1
53225.2,27870.1
53214.3,27759.3
53182,27652.8
53129.5,27554.7
53058.9,27468.7
52972.9,27398.1
52874.7,27345.6
52768.2,27313.3
52685.2,27305.1
52472.2,27305.1
52389.2,27313.3
52282.8,27345.6
52184.6,27398.1
52098.6,27468.7
52028,27554.7
51975.5,27652.8
51943.2,27759.3
51932.3,27870.1
49367.7,27870.1
49419.9,27835.2
49520.3,27734.9
49599.1,27616.9
49653.4,27485.7
49681.1,27346.6
49681.1,27204.6
49653.4,27065.4
49599.1,26934.3
49520.3,26816.3
49419.9,26716
49301.9,26637.1
49170.8,26582.8
49031.6,26555.1
48889.7,26555.1
48750.5,26582.8
48619.4,26637.1
48501.4,26716
48401,26816.3
48322.2,26934.3
48267.8,27065.4
48240.2,27204.6
39649.6,27204.6
39649.6,23901.6
65074.8,23901.6
Z" /> 
</g>
</g>
</g>
<g style="fill:#FFFFFF; fill-opacity:1.0; 
stroke:#FFFFFF; stroke-width:100; stroke-opacity:1; 
stroke-linecap:round; stroke-linejoin:round;">
</g>
<g style="fill:#FFFFFF; fill-opacity:1.0; 
stroke:#FFFFFF; stroke-width:0; stroke-opacity:1; 
stroke-linecap:round; stroke-linejoin:round;">
<circle cx="60900" cy="47100" r="147.638" /> 
</g>
<g style="fill:#FFFFFF; fill-opacity:1.0; 
stroke:#FFFFFF; stroke-width:39.3701; stroke-opacity:1; 
stroke-linecap:round; stroke-linejoin:round;">
</g>
<g style="fill:#FFFFFF; fill-opacity:1.0; 
stroke:#FFFFFF; stroke-width:0; stroke-opacity:1; 
stroke-linecap:round; stroke-linejoin:round;">
<circle cx="61900" cy="47100" r="147.638" /> 
</g>
<g style="fill:#FFFFFF; fill-opacity:1.0; 
stroke:#FFFFFF; stroke-width:39.3701; stroke-opacity:1; 
stroke-linecap:round; stroke-linejoin:round;">
</g>
<g style="fill:#FFFFFF; fill-opacity:1.0; 
stroke:#FFFFFF; stroke-width:0; stroke-opacity:1; 
stroke-linecap:round; stroke-linejoin:round;">
<circle cx="61400" cy="47100" r="147.638" /> 
</g>
<g style="fill:#FFFFFF; fill-opacity:1.0; 
stroke:#FFFFFF; stroke-width:39.3701; stroke-opacity:1; 
stroke-linecap:round; stroke-linejoin:round;">
</g>
<g style="fill:#FFFFFF; fill-opacity:1.0; 
stroke:#FFFFFF; stroke-width:0; stroke-opacity:1; 
stroke-linecap:round; stroke-linejoin:round;">
<circle cx="57393.7" cy="47300" r="157.48" /> 
</g>
<g style="fill:#FFFFFF; fill-opacity:1.0; 
stroke:#FFFFFF; stroke-width:39.3701; stroke-opacity:1; 
stroke-linecap:round; stroke-linejoin:round;">
</g>
<g style="fill:#FFFFFF; fill-opacity:1.0; 
stroke:#FFFFFF; stroke-width:0; stroke-opacity:1; 
stroke-linecap:round; stroke-linejoin:round;">
<circle cx="51393.7" cy="47300" r="157.48" /> 
</g>
<g style="fill:#FFFFFF; fill-opacity:1.0; 
stroke:#FFFFFF; stroke-width:39.3701; stroke-opacity:1; 
stroke-linecap:round; stroke-linejoin:round;">
</g>
<g style="fill:#FFFFFF; fill-opacity:1.0; 
stroke:#FFFFFF; stroke-width:0; stroke-opacity:1; 
stroke-linecap:round; stroke-linejoin:round;">
<circle cx="51393.7" cy="49000" r="157.48" /> 
</g>
<g style="fill:#FFFFFF; fill-opacity:1.0; 
stroke:#FFFFFF; stroke-width:39.3701; stroke-opacity:1; 
stroke-linecap:round; stroke-linejoin:round;">
</g>
<g style="fill:#FFFFFF; fill-opacity:1.0; 
stroke:#FFFFFF; stroke-width:0; stroke-opacity:1; 
stroke-linecap:round; stroke-linejoin:round;">
<circle cx="57393.7" cy="49000" r="157.48" /> 
</g>
<g style="fill:#FFFFFF; fill-opacity:1.0; 
stroke:#FFFFFF; stroke-width:39.3701; stroke-opacity:1; 
stroke-linecap:round; stroke-linejoin:round;">
</g>
<g style="fill:#FFFFFF; fill-opacity:1.0; 
stroke:#FFFFFF; stroke-width:0; stroke-opacity:1; 
stroke-linecap:round; stroke-linejoin:round;">
<circle cx="51393.7" cy="50700" r="157.48" /> 
</g>
<g style="fill:#FFFFFF; fill-opacity:1.0; 
stroke:#FFFFFF; stroke-width:39.3701; stroke-opacity:1; 
stroke-linecap:round; stroke-linejoin:round;">
</g>
<g style="fill:#FFFFFF; fill-opacity:1.0; 
stroke:#FFFFFF; stroke-width:0; stroke-opacity:1; 
stroke-linecap:round; stroke-linejoin:round;">
<circle cx="57393.7" cy="50700" r="157.48" /> 
</g>
<g style="fill:#FFFFFF; fill-opacity:1.0; 
stroke:#FFFFFF; stroke-width:39.3701; stroke-opacity:1; 
stroke-linecap:round; stroke-linejoin:round;">
</g>
<g style="fill:#FFFFFF; fill-opacity:1.0; 
stroke:#FFFFFF; stroke-width:0; stroke-opacity:1; 
stroke-linecap:round; stroke-linejoin:round;">
<circle cx="54897.6" cy="39948.8" r="150" /> 
</g>
<g style="fill:#FFFFFF; fill-opacity:1.0; 
stroke:#FFFFFF; stroke-width:39.3701; stroke-opacity:1; 
stroke-linecap:round; stroke-linejoin:round;">
</g>
<g style="fill:#FFFFFF; fill-opacity:1.0; 
stroke:#FFFFFF; stroke-width:0; stroke-opacity:1; 
stroke-linecap:round; stroke-linejoin:round;">
<circle cx="54897.6" cy="40948.8" r="150" /> 
</g>
<g style="fill:#FFFFFF; fill-opacity:1.0; 
stroke:#FFFFFF; stroke-width:39.3701; stroke-opacity:1; 
stroke-linecap:round; stroke-linejoin:round;">
</g>
<g style="fill:#FFFFFF; fill-opacity:1.0; 
stroke:#FFFFFF; stroke-width:0; stroke-opacity:1; 
stroke-linecap:round; stroke-linejoin:round;">
<circle cx="54897.6" cy="41948.8" r="150" /> 
</g>
<g style="fill:#FFFFFF; fill-opacity:1.0; 
stroke:#FFFFFF; stroke-width:39.3701; stroke-opacity:1; 
stroke-linecap:round; stroke-linejoin:round;">
</g>
<g style="fill:#FFFFFF; fill-opacity:1.0; 
stroke:#FFFFFF; stroke-width:0; stroke-opacity:1; 
stroke-linecap:round; stroke-linejoin:round;">
<circle cx="54897.6" cy="42948.8" r="150" /> 
</g>
<g style="fill:#FFFFFF; fill-opacity:1.0; 
stroke:#FFFFFF; stroke-width:39.3701; stroke-opacity:1; 
stroke-linecap:round; stroke-linejoin:round;">
</g>
<g style="fill:#FFFFFF; fill-opacity:1.0; 
stroke:#FFFFFF; stroke-width:0; stroke-opacity:1; 
stroke-linecap:round; stroke-linejoin:round;">
<circle cx="54897.6" cy="43948.8" r="150" /> 
</g>
<g style="fill:#FFFFFF; fill-opacity:1.0; 
stroke:#FFFFFF; stroke-width:39.3701; stroke-opacity:1; 
stroke-linecap:round; stroke-linejoin:round;">
</g>
<g style="fill:#FFFFFF; fill-opacity:1.0; 
stroke:#FFFFFF; stroke-width:0; stroke-opacity:1; 
stroke-linecap:round; stroke-linejoin:round;">
<circle cx="54897.6" cy="44948.8" r="150" /> 
</g>
<g style="fill:#FFFFFF; fill-opacity:1.0; 
stroke:#FFFFFF; stroke-width:39.3701; stroke-opacity:1; 
stroke-linecap:round; stroke-linejoin:round;">
</g>
<g style="fill:#FFFFFF; fill-opacity:1.0; 
stroke:#FFFFFF; stroke-width:0; stroke-opacity:1; 
stroke-linecap:round; stroke-linejoin:round;">
<circle cx="48960.6" cy="52287.4" r="679.134" /> 
</g>
<g style="fill:#FFFFFF; fill-opacity:1.0; 
stroke:#FFFFFF; stroke-width:39.3701; stroke-opacity:1; 
stroke-linecap:round; stroke-linejoin:round;">
</g>
<g style="fill:#FFFFFF; fill-opacity:1.0; 
stroke:#FFFFFF; stroke-width:0; stroke-opacity:1; 
stroke-linecap:round; stroke-linejoin:round;">
<circle cx="42661.4" cy="30555.1" r="679.134" /> 
</g>
<g style="fill:#FFFFFF; fill-opacity:1.0; 
stroke:#FFFFFF; stroke-width:39.3701; stroke-opacity:1; 
stroke-linecap:round; stroke-linejoin:round;">
</g>
<g style="fill:#FFFFFF; fill-opacity:1.0; 
stroke:#FFFFFF; stroke-width:0; stroke-opacity:1; 
stroke-linecap:round; stroke-linejoin:round;">
<circle cx="48960.6" cy="27275.6" r="470.472" /> 
</g>
<g style="fill:#FFFFFF; fill-opacity:1.0; 
stroke:#FFFFFF; stroke-width:39.3701; stroke-opacity:1; 
stroke-linecap:round; stroke-linejoin:round;">
</g>
<g style="fill:#FFFFFF; fill-opacity:1.0; 
stroke:#FFFFFF; stroke-width:0; stroke-opacity:1; 
stroke-linecap:round; stroke-linejoin:round;">
<circle cx="62000" cy="43900" r="137.795" /> 
</g>
<g style="fill:#FFFFFF; fill-opacity:1.0; 
stroke:#FFFFFF; stroke-width:39.3701; stroke-opacity:1; 
stroke-linecap:round; stroke-linejoin:round;">
</g>
<g style="fill:#FFFFFF; fill-opacity:1.0; 
stroke:#FFFFFF; stroke-width:0; stroke-opacity:1; 
stroke-linecap:round; stroke-linejoin:round;">
<circle cx="61015.7" cy="43900" r="137.795" /> 
</g>
<g style="fill:#FFFFFF; fill-opacity:1.0; 
stroke:#FFFFFF; stroke-width:39.3701; stroke-opacity:1; 
stroke-linecap:round; stroke-linejoin:round;">
</g>
<g style="fill:#FFFFFF; fill-opacity:1.0; 
stroke:#FFFFFF; stroke-width:0; stroke-opacity:1; 
stroke-linecap:round; stroke-linejoin:round;">
<circle cx="57393.7" cy="52400" r="157.48" /> 
</g>
<g style="fill:#FFFFFF; fill-opacity:1.0; 
stroke:#FFFFFF; stroke-width:39.3701; stroke-opacity:1; 
stroke-linecap:round; stroke-linejoin:round;">
</g>
<g style="fill:#FFFFFF; fill-opacity:1.0; 
stroke:#FFFFFF; stroke-width:0; stroke-opacity:1; 
stroke-linecap:round; stroke-linejoin:round;">
<circle cx="51393.7" cy="52400" r="157.48" /> 
</g>
<g style="fill:#FFFFFF; fill-opacity:1.0; 
stroke:#FFFFFF; stroke-width:39.3701; stroke-opacity:1; 
stroke-linecap:round; stroke-linejoin:round;">
</g>
<g style="fill:#FFFFFF; fill-opacity:1.0; 
stroke:#FFFFFF; stroke-width:0; stroke-opacity:1; 
stroke-linecap:round; stroke-linejoin:round;">
<circle cx="61800" cy="57200" r="255.906" /> 
</g>
<g style="fill:#FFFFFF; fill-opacity:1.0; 
stroke:#FFFFFF; stroke-width:39.3701; stroke-opacity:1; 
stroke-linecap:round; stroke-linejoin:round;">
</g>
<g style="fill:#FFFFFF; fill-opacity:1.0; 
stroke:#FFFFFF; stroke-width:0; stroke-opacity:1; 
stroke-linecap:round; stroke-linejoin:round;">
<circle cx="61800" cy="55231.5" r="255.906" /> 
</g>
<g style="fill:#FFFFFF; fill-opacity:1.0; 
stroke:#FFFFFF; stroke-width:39.3701; stroke-opacity:1; 
stroke-linecap:round; stroke-linejoin:round;">
</g>
<g style="fill:#FFFFFF; fill-opacity:1.0; 
stroke:#FFFFFF; stroke-width:0; stroke-opacity:1; 
stroke-linecap:round; stroke-linejoin:round;">
<circle cx="61578.7" cy="33870.1" r="196.85" /> 
</g>
<g style="fill:#FFFFFF; fill-opacity:1.0; 
stroke:#FFFFFF; stroke-width:39.3701; stroke-opacity:1; 
stroke-linecap:round; stroke-linejoin:round;">
</g>
<g style="fill:#FFFFFF; fill-opacity:1.0; 
stroke:#FFFFFF; stroke-width:0; stroke-opacity:1; 
stroke-linecap:round; stroke-linejoin:round;">
<circle cx="61578.7" cy="34870.1" r="196.85" /> 
</g>
<g style="fill:#FFFFFF; fill-opacity:1.0; 
stroke:#FFFFFF; stroke-width:39.3701; stroke-opacity:1; 
stroke-linecap:round; stroke-linejoin:round;">
</g>
<g style="fill:#FFFFFF; fill-opacity:1.0; 
stroke:#FFFFFF; stroke-width:0; stroke-opacity:1; 
stroke-linecap:round; stroke-linejoin:round;">
<circle cx="61578.7" cy="32870.1" r="196.85" /> 
</g>
<g style="fill:#FFFFFF; fill-opacity:1.0; 
stroke:#FFFFFF; stroke-width:39.3701; stroke-opacity:1; 
stroke-linecap:round; stroke-linejoin:round;">
</g>
<g style="fill:#FFFFFF; fill-opacity:1.0; 
stroke:#FFFFFF; stroke-width:0; stroke-opacity:1; 
stroke-linecap:round; stroke-linejoin:round;">
<circle cx="61578.7" cy="31870.1" r="196.85" /> 
</g>
<g style="fill:#FFFFFF; fill-opacity:1.0; 
stroke:#FFFFFF; stroke-width:39.3701; stroke-opacity:1; 
stroke-linecap:round; stroke-linejoin:round;">
</g>
<g style="fill:#FFFFFF; fill-opacity:1.0; 
stroke:#FFFFFF; stroke-width:0; stroke-opacity:1; 
stroke-linecap:round; stroke-linejoin:round;">
<circle cx="61578.7" cy="30870.1" r="196.85" /> 
</g>
<g style="fill:#FFFFFF; fill-opacity:1.0; 
stroke:#FFFFFF; stroke-width:39.3701; stroke-opacity:1; 
stroke-linecap:round; stroke-linejoin:round;">
</g>
<g style="fill:#FFFFFF; fill-opacity:1.0; 
stroke:#FFFFFF; stroke-width:0; stroke-opacity:1; 
stroke-linecap:round; stroke-linejoin:round;">
<circle cx="61578.7" cy="29870.1" r="196.85" /> 
</g>
<g style="fill:#FFFFFF; fill-opacity:1.0; 
stroke:#FFFFFF; stroke-width:39.3701; stroke-opacity:1; 
stroke-linecap:round; stroke-linejoin:round;">
</g>
<g style="fill:#FFFFFF; fill-opacity:1.0; 
stroke:#FFFFFF; stroke-width:0; stroke-opacity:1; 
stroke-linecap:round; stroke-linejoin:round;">
<circle cx="61578.7" cy="28870.1" r="196.85" /> 
</g>
<g style="fill:#FFFFFF; fill-opacity:1.0; 
stroke:#FFFFFF; stroke-width:39.3701; stroke-opacity:1; 
stroke-linecap:round; stroke-linejoin:round;">
</g>
<g style="fill:#FFFFFF; fill-opacity:1.0; 
stroke:#FFFFFF; stroke-width:0; stroke-opacity:1; 
stroke-linecap:round; stroke-linejoin:round;">
<circle cx="61578.7" cy="27870.1" r="196.85" /> 
</g>
<g style="fill:#FFFFFF; fill-opacity:1.0; 
stroke:#FFFFFF; stroke-width:39.3701; stroke-opacity:1; 
stroke-linecap:round; stroke-linejoin:round;">
</g>
<g style="fill:#FFFFFF; fill-opacity:1.0; 
stroke:#FFFFFF; stroke-width:0; stroke-opacity:1; 
stroke-linecap:round; stroke-linejoin:round;">
<circle cx="52578.7" cy="27870.1" r="196.85" /> 
</g>
<g style="fill:#FFFFFF; fill-opacity:1.0; 
stroke:#FFFFFF; stroke-width:39.3701; stroke-opacity:1; 
stroke-linecap:round; stroke-linejoin:round;">
</g>
<g style="fill:#FFFFFF; fill-opacity:1.0; 
stroke:#FFFFFF; stroke-width:0; stroke-opacity:1; 
stroke-linecap:round; stroke-linejoin:round;">
<circle cx="52578.7" cy="28870.1" r="196.85" /> 
</g>
<g style="fill:#FFFFFF; fill-opacity:1.0; 
stroke:#FFFFFF; stroke-width:39.3701; stroke-opacity:1; 
stroke-linecap:round; stroke-linejoin:round;">
</g>
<g style="fill:#FFFFFF; fill-opacity:1.0; 
stroke:#FFFFFF; stroke-width:0; stroke-opacity:1; 
stroke-linecap:round; stroke-linejoin:round;">
<circle cx="52578.7" cy="29870.1" r="196.85" /> 
</g>
<g style="fill:#FFFFFF; fill-opacity:1.0; 
stroke:#FFFFFF; stroke-width:39.3701; stroke-opacity:1; 
stroke-linecap:round; stroke-linejoin:round;">
</g>
<g style="fill:#FFFFFF; fill-opacity:1.0; 
stroke:#FFFFFF; stroke-width:0; stroke-opacity:1; 
stroke-linecap:round; stroke-linejoin:round;">
<circle cx="52578.7" cy="30870.1" r="196.85" /> 
</g>
<g style="fill:#FFFFFF; fill-opacity:1.0; 
stroke:#FFFFFF; stroke-width:39.3701; stroke-opacity:1; 
stroke-linecap:round; stroke-linejoin:round;">
</g>
<g style="fill:#FFFFFF; fill-opacity:1.0; 
stroke:#FFFFFF; stroke-width:0; stroke-opacity:1; 
stroke-linecap:round; stroke-linejoin:round;">
<circle cx="52578.7" cy="31870.1" r="196.85" /> 
</g>
<g style="fill:#FFFFFF; fill-opacity:1.0; 
stroke:#FFFFFF; stroke-width:39.3701; stroke-opacity:1; 
stroke-linecap:round; stroke-linejoin:round;">
</g>
<g style="fill:#FFFFFF; fill-opacity:1.0; 
stroke:#FFFFFF; stroke-width:0; stroke-opacity:1; 
stroke-linecap:round; stroke-linejoin:round;">
<circle cx="52578.7" cy="32870.1" r="196.85" /> 
</g>
<g style="fill:#FFFFFF; fill-opacity:1.0; 
stroke:#FFFFFF; stroke-width:39.3701; stroke-opacity:1; 
stroke-linecap:round; stroke-linejoin:round;">
</g>
<g style="fill:#FFFFFF; fill-opacity:1.0; 
stroke:#FFFFFF; stroke-width:0; stroke-opacity:1; 
stroke-linecap:round; stroke-linejoin:round;">
<circle cx="52578.7" cy="33870.1" r="196.85" /> 
</g>
<g style="fill:#FFFFFF; fill-opacity:1.0; 
stroke:#FFFFFF; stroke-width:39.3701; stroke-opacity:1; 
stroke-linecap:round; stroke-linejoin:round;">
</g>
<g style="fill:#FFFFFF; fill-opacity:1.0; 
stroke:#FFFFFF; stroke-width:0; stroke-opacity:1; 
stroke-linecap:round; stroke-linejoin:round;">
<circle cx="52578.7" cy="34870.1" r="196.85" /> 
</g>
<g style="fill:#FFFFFF; fill-opacity:1.0; 
stroke:#FFFFFF; stroke-width:39.3701; stroke-opacity:1; 
stroke-linecap:round; stroke-linejoin:round;">
</g>
<g style="fill:#000000; fill-opacity:1.0; 
stroke:#000000; stroke-width:39.3701; stroke-opacity:1; 
stroke-linecap:round; stroke-linejoin:round;">
</g>
<g style="fill:#C2C200; fill-opacity:1.0; 
stroke:#C2C200; stroke-width:39.3701; stroke-opacity:1; 
stroke-linecap:round; stroke-linejoin:round;">
</g>
<g style="fill:#C2C200; fill-opacity:0.0; 
stroke:#C2C200; stroke-width:59.0551; stroke-opacity:1; 
stroke-linecap:round; stroke-linejoin:round;">
<circle cx="52362.2" cy="44291.3" r="787.402" /> 
<path d="M39370 59055
L39370 23622
" />
<path d="M65354 59055
L65354 23622
" />
<path d="M65354 59055
L39370 59055
" />
<path d="M39370 23622
L65354 23622
" />
<g >
</g>
<g >
</g>
<g >
</g>
<g >
</g>
<g >
</g>
<g >
</g>
<g >
</g>
<g >
</g>
<g >
</g>
<g >
</g>
<g >
</g>
</g> 
</svg>
