%TF.GenerationSoftware,KiCad,Pcbnew,7.0.9-7.0.9~ubuntu22.04.1*%
%TF.CreationDate,2023-12-03T21:32:25-03:00*%
%TF.ProjectId,smart_watering_system,736d6172-745f-4776-9174-6572696e675f,rev?*%
%TF.SameCoordinates,Original*%
%TF.FileFunction,Copper,L1,Top*%
%TF.FilePolarity,Positive*%
%FSLAX46Y46*%
G04 Gerber Fmt 4.6, Leading zero omitted, Abs format (unit mm)*
G04 Created by KiCad (PCBNEW 7.0.9-7.0.9~ubuntu22.04.1) date 2023-12-03 21:32:25*
%MOMM*%
%LPD*%
G01*
G04 APERTURE LIST*
G04 Aperture macros list*
%AMRoundRect*
0 Rectangle with rounded corners*
0 $1 Rounding radius*
0 $2 $3 $4 $5 $6 $7 $8 $9 X,Y pos of 4 corners*
0 Add a 4 corners polygon primitive as box body*
4,1,4,$2,$3,$4,$5,$6,$7,$8,$9,$2,$3,0*
0 Add four circle primitives for the rounded corners*
1,1,$1+$1,$2,$3*
1,1,$1+$1,$4,$5*
1,1,$1+$1,$6,$7*
1,1,$1+$1,$8,$9*
0 Add four rect primitives between the rounded corners*
20,1,$1+$1,$2,$3,$4,$5,0*
20,1,$1+$1,$4,$5,$6,$7,0*
20,1,$1+$1,$6,$7,$8,$9,0*
20,1,$1+$1,$8,$9,$2,$3,0*%
G04 Aperture macros list end*
%TA.AperFunction,ComponentPad*%
%ADD10R,1.700000X1.700000*%
%TD*%
%TA.AperFunction,ComponentPad*%
%ADD11O,1.700000X1.700000*%
%TD*%
%TA.AperFunction,SMDPad,CuDef*%
%ADD12RoundRect,0.100000X0.100000X-0.217500X0.100000X0.217500X-0.100000X0.217500X-0.100000X-0.217500X0*%
%TD*%
%TA.AperFunction,ComponentPad*%
%ADD13C,1.500000*%
%TD*%
%TA.AperFunction,SMDPad,CuDef*%
%ADD14RoundRect,0.200000X-0.200000X-0.275000X0.200000X-0.275000X0.200000X0.275000X-0.200000X0.275000X0*%
%TD*%
%TA.AperFunction,SMDPad,CuDef*%
%ADD15R,1.300000X1.300000*%
%TD*%
%TA.AperFunction,SMDPad,CuDef*%
%ADD16R,1.300000X2.000000*%
%TD*%
%TA.AperFunction,SMDPad,CuDef*%
%ADD17RoundRect,0.237500X-0.237500X0.287500X-0.237500X-0.287500X0.237500X-0.287500X0.237500X0.287500X0*%
%TD*%
%TA.AperFunction,SMDPad,CuDef*%
%ADD18RoundRect,0.100000X-0.100000X0.217500X-0.100000X-0.217500X0.100000X-0.217500X0.100000X0.217500X0*%
%TD*%
%TA.AperFunction,SMDPad,CuDef*%
%ADD19R,0.400000X1.000000*%
%TD*%
%TA.AperFunction,SMDPad,CuDef*%
%ADD20RoundRect,0.150000X0.512500X0.150000X-0.512500X0.150000X-0.512500X-0.150000X0.512500X-0.150000X0*%
%TD*%
%TA.AperFunction,ComponentPad*%
%ADD21R,1.500000X1.500000*%
%TD*%
%TA.AperFunction,ComponentPad*%
%ADD22R,1.524000X1.524000*%
%TD*%
%TA.AperFunction,ComponentPad*%
%ADD23C,1.524000*%
%TD*%
%TA.AperFunction,ComponentPad*%
%ADD24R,1.600000X1.600000*%
%TD*%
%TA.AperFunction,ComponentPad*%
%ADD25O,1.600000X1.600000*%
%TD*%
%TA.AperFunction,SMDPad,CuDef*%
%ADD26RoundRect,0.200000X-0.275000X0.200000X-0.275000X-0.200000X0.275000X-0.200000X0.275000X0.200000X0*%
%TD*%
%TA.AperFunction,SMDPad,CuDef*%
%ADD27RoundRect,0.200000X0.200000X0.275000X-0.200000X0.275000X-0.200000X-0.275000X0.200000X-0.275000X0*%
%TD*%
%TA.AperFunction,ComponentPad*%
%ADD28R,1.500000X1.050000*%
%TD*%
%TA.AperFunction,ComponentPad*%
%ADD29O,1.500000X1.050000*%
%TD*%
%TA.AperFunction,ComponentPad*%
%ADD30R,2.500000X2.500000*%
%TD*%
%TA.AperFunction,ComponentPad*%
%ADD31O,2.500000X2.500000*%
%TD*%
%TA.AperFunction,ComponentPad*%
%ADD32O,1.000000X1.000000*%
%TD*%
%TA.AperFunction,ComponentPad*%
%ADD33R,1.000000X1.000000*%
%TD*%
%TA.AperFunction,ComponentPad*%
%ADD34R,2.200000X2.200000*%
%TD*%
%TA.AperFunction,ComponentPad*%
%ADD35O,2.200000X2.200000*%
%TD*%
%TA.AperFunction,SMDPad,CuDef*%
%ADD36R,2.200000X1.600000*%
%TD*%
%TA.AperFunction,ViaPad*%
%ADD37C,0.800000*%
%TD*%
%TA.AperFunction,Conductor*%
%ADD38C,0.200000*%
%TD*%
%TA.AperFunction,Conductor*%
%ADD39C,0.500000*%
%TD*%
G04 APERTURE END LIST*
D10*
%TO.P,J4,1,Pin_1*%
%TO.N,GND*%
X73660000Y-160020000D03*
%TD*%
%TO.P,J3,1,Pin_1*%
%TO.N,VCC*%
X68580000Y-160020000D03*
%TD*%
%TO.P,J2,1,Pin_1*%
%TO.N,Net-(J2-Pin_1)*%
X144780000Y-116840000D03*
D11*
%TO.P,J2,2,Pin_2*%
%TO.N,Net-(J2-Pin_2)*%
X144780000Y-114300000D03*
%TD*%
D12*
%TO.P,R11,1*%
%TO.N,VCC*%
X89160000Y-122008343D03*
%TO.P,R11,2*%
%TO.N,Net-(U1-RB1{slash}AN10{slash}INT1{slash}SCK{slash}SCL)*%
X89160000Y-121193343D03*
%TD*%
D13*
%TO.P,Y1,1,1*%
%TO.N,Net-(U1-RA6{slash}OSC2{slash}CLKO)*%
X112338918Y-147344144D03*
%TO.P,Y1,2,2*%
%TO.N,Net-(U1-OSC1{slash}CLKI)*%
X112338918Y-152244144D03*
%TD*%
D14*
%TO.P,R5,2*%
%TO.N,Net-(U1-RA1{slash}AN1)*%
X98549914Y-153830424D03*
%TO.P,R5,1*%
%TO.N,VCC*%
X96899914Y-153830424D03*
%TD*%
D15*
%TO.P,RV1,1,1*%
%TO.N,GND*%
X112080000Y-112760000D03*
D16*
%TO.P,RV1,2,2*%
%TO.N,Net-(U3-VO)*%
X106880000Y-113910000D03*
D15*
%TO.P,RV1,3,3*%
%TO.N,VCC*%
X112080000Y-115060000D03*
%TD*%
D17*
%TO.P,D1,1,K*%
%TO.N,GND*%
X132362556Y-125288510D03*
%TO.P,D1,2,A*%
%TO.N,Net-(D1-A)*%
X132362556Y-127038510D03*
%TD*%
D12*
%TO.P,R12,1*%
%TO.N,VCC*%
X94240000Y-121980910D03*
%TO.P,R12,2*%
%TO.N,Net-(U6-A0)*%
X94240000Y-121165910D03*
%TD*%
D18*
%TO.P,R10,1*%
%TO.N,VCC*%
X91700000Y-121105000D03*
%TO.P,R10,2*%
%TO.N,Net-(U1-RB0{slash}AN12{slash}INT0{slash}FLT0{slash}SDI{slash}SDA)*%
X91700000Y-121920000D03*
%TD*%
D12*
%TO.P,R9,1*%
%TO.N,VCC*%
X99320000Y-121920000D03*
%TO.P,R9,2*%
%TO.N,Net-(U6-A2)*%
X99320000Y-121105000D03*
%TD*%
%TO.P,R8,1*%
%TO.N,VCC*%
X96810000Y-121920000D03*
%TO.P,R8,2*%
%TO.N,Net-(U6-A1)*%
X96810000Y-121105000D03*
%TD*%
D19*
%TO.P,U6,1,~{INT}*%
%TO.N,unconnected-(U6-~{INT}-Pad1)*%
X93855000Y-117200000D03*
%TO.P,U6,2,SCL*%
%TO.N,Net-(U1-RB1{slash}AN10{slash}INT1{slash}SCK{slash}SCL)*%
X94505000Y-117200000D03*
%TO.P,U6,3,NC*%
%TO.N,unconnected-(U6-NC-Pad3)*%
X95155000Y-117200000D03*
%TO.P,U6,4,SDA*%
%TO.N,Net-(U1-RB0{slash}AN12{slash}INT0{slash}FLT0{slash}SDI{slash}SDA)*%
X95805000Y-117200000D03*
%TO.P,U6,5,VDD*%
%TO.N,VCC*%
X96455000Y-117200000D03*
%TO.P,U6,6,A0*%
%TO.N,Net-(U6-A0)*%
X97105000Y-117200000D03*
%TO.P,U6,7,A1*%
%TO.N,Net-(U6-A1)*%
X97755000Y-117200000D03*
%TO.P,U6,8,NC*%
%TO.N,unconnected-(U6-NC-Pad8)*%
X98405000Y-117200000D03*
%TO.P,U6,9,A2*%
%TO.N,Net-(U6-A2)*%
X99055000Y-117200000D03*
%TO.P,U6,10,P0*%
%TO.N,Net-(U3-RS)*%
X99705000Y-117200000D03*
%TO.P,U6,11,P1*%
%TO.N,Net-(U3-R{slash}W)*%
X99705000Y-111400000D03*
%TO.P,U6,12,P2*%
%TO.N,Net-(U3-E)*%
X99055000Y-111400000D03*
%TO.P,U6,13,NC*%
%TO.N,unconnected-(U6-NC-Pad13)*%
X98405000Y-111400000D03*
%TO.P,U6,14,P3*%
%TO.N,unconnected-(U6-P3-Pad14)*%
X97755000Y-111400000D03*
%TO.P,U6,15,VSS*%
%TO.N,GND*%
X97105000Y-111400000D03*
%TO.P,U6,16,P4*%
%TO.N,Net-(U3-DB4)*%
X96455000Y-111400000D03*
%TO.P,U6,17,P5*%
%TO.N,Net-(U3-DB5)*%
X95805000Y-111400000D03*
%TO.P,U6,18,NC*%
%TO.N,unconnected-(U6-NC-Pad18)*%
X95155000Y-111400000D03*
%TO.P,U6,19,P6*%
%TO.N,Net-(U3-DB6)*%
X94505000Y-111400000D03*
%TO.P,U6,20,P7*%
%TO.N,Net-(U3-DB7)*%
X93855000Y-111400000D03*
%TD*%
D20*
%TO.P,U5,5,V+*%
%TO.N,VCC*%
X78164225Y-147754611D03*
%TO.P,U5,4*%
%TO.N,Net-(U1-RA0{slash}AN0)*%
X78164225Y-145854611D03*
%TO.P,U5,3,-*%
%TO.N,Net-(U5--)*%
X80439225Y-145854611D03*
%TO.P,U5,2,V-*%
%TO.N,GND*%
X80439225Y-146804611D03*
%TO.P,U5,1,+*%
%TO.N,Net-(J1-Pin_2)*%
X80439225Y-147754611D03*
%TD*%
D13*
%TO.P,U4,4,GND*%
%TO.N,GND*%
X104153139Y-149281690D03*
%TO.P,U4,3,NC*%
%TO.N,unconnected-(U4-NC-Pad3)*%
X101613139Y-149281690D03*
%TO.P,U4,2,DATA*%
%TO.N,Net-(U1-RA1{slash}AN1)*%
X99073139Y-149281690D03*
D21*
%TO.P,U4,1,VDD*%
%TO.N,VCC*%
X96533139Y-149281690D03*
%TD*%
D22*
%TO.P,U3,1,VSS*%
%TO.N,GND*%
X111840000Y-103500000D03*
D23*
%TO.P,U3,2,VDD*%
%TO.N,VCC*%
X109300000Y-103500000D03*
%TO.P,U3,3,VO*%
%TO.N,Net-(U3-VO)*%
X106760000Y-103500000D03*
%TO.P,U3,4,RS*%
%TO.N,Net-(U3-RS)*%
X104220000Y-103500000D03*
%TO.P,U3,5,R/W*%
%TO.N,Net-(U3-R{slash}W)*%
X101680000Y-103500000D03*
%TO.P,U3,6,E*%
%TO.N,Net-(U3-E)*%
X99140000Y-103500000D03*
%TO.P,U3,7,DB0*%
%TO.N,GND*%
X96600000Y-103500000D03*
%TO.P,U3,8,DB1*%
X94060000Y-103500000D03*
%TO.P,U3,9,DB2*%
X91520000Y-103500000D03*
%TO.P,U3,10,DB3*%
X88980000Y-103500000D03*
%TO.P,U3,11,DB4*%
%TO.N,Net-(U3-DB4)*%
X86440000Y-103500000D03*
%TO.P,U3,12,DB5*%
%TO.N,Net-(U3-DB5)*%
X83900000Y-103500000D03*
%TO.P,U3,13,DB6*%
%TO.N,Net-(U3-DB6)*%
X81360000Y-103500000D03*
%TO.P,U3,14,DB7*%
%TO.N,Net-(U3-DB7)*%
X78820000Y-103500000D03*
%TD*%
D24*
%TO.P,U1,1,Vpp/~{MCLR}/RE3*%
%TO.N,Net-(U1-Vpp{slash}~{MCLR}{slash}RE3)*%
X73920000Y-142240000D03*
D25*
%TO.P,U1,2,RA0/AN0*%
%TO.N,Net-(U1-RA0{slash}AN0)*%
X76460000Y-142240000D03*
%TO.P,U1,3,RA1/AN1*%
%TO.N,Net-(U1-RA1{slash}AN1)*%
X79000000Y-142240000D03*
%TO.P,U1,4,RA2/AN2/Vref-/CVref*%
%TO.N,unconnected-(U1-RA2{slash}AN2{slash}Vref-{slash}CVref-Pad4)*%
X81540000Y-142240000D03*
%TO.P,U1,5,RA3/AN3/Vref+*%
%TO.N,unconnected-(U1-RA3{slash}AN3{slash}Vref+-Pad5)*%
X84080000Y-142240000D03*
%TO.P,U1,6,RA4/T0CKI/C1OUT/RCV*%
%TO.N,unconnected-(U1-RA4{slash}T0CKI{slash}C1OUT{slash}RCV-Pad6)*%
X86620000Y-142240000D03*
%TO.P,U1,7,RA5/AN4/~{SS}/HLVDIN/C2OUT*%
%TO.N,unconnected-(U1-RA5{slash}AN4{slash}~{SS}{slash}HLVDIN{slash}C2OUT-Pad7)*%
X89160000Y-142240000D03*
%TO.P,U1,8,CK1SPP/AN5/RE0*%
%TO.N,unconnected-(U1-CK1SPP{slash}AN5{slash}RE0-Pad8)*%
X91700000Y-142240000D03*
%TO.P,U1,9,CK2SPP/AN6/RE1*%
%TO.N,unconnected-(U1-CK2SPP{slash}AN6{slash}RE1-Pad9)*%
X94240000Y-142240000D03*
%TO.P,U1,10,OESPP/AN7/RE2*%
%TO.N,unconnected-(U1-OESPP{slash}AN7{slash}RE2-Pad10)*%
X96780000Y-142240000D03*
%TO.P,U1,11,VDD*%
%TO.N,VCC*%
X99320000Y-142240000D03*
%TO.P,U1,12,VSS*%
%TO.N,GND*%
X101860000Y-142240000D03*
%TO.P,U1,13,OSC1/CLKI*%
%TO.N,Net-(U1-OSC1{slash}CLKI)*%
X104400000Y-142240000D03*
%TO.P,U1,14,RA6/OSC2/CLKO*%
%TO.N,Net-(U1-RA6{slash}OSC2{slash}CLKO)*%
X106940000Y-142240000D03*
%TO.P,U1,15,T1OSO/T13CKI/RC0*%
%TO.N,Net-(U1-T1OSO{slash}T13CKI{slash}RC0)*%
X109480000Y-142240000D03*
%TO.P,U1,16,~{UOE}/CCP2/T1OSI/RC1*%
%TO.N,unconnected-(U1-~{UOE}{slash}CCP2{slash}T1OSI{slash}RC1-Pad16)*%
X112020000Y-142240000D03*
%TO.P,U1,17,P1A/CCP1/RC2*%
%TO.N,unconnected-(U1-P1A{slash}CCP1{slash}RC2-Pad17)*%
X114560000Y-142240000D03*
%TO.P,U1,18,VUSB*%
%TO.N,unconnected-(U1-VUSB-Pad18)*%
X117100000Y-142240000D03*
%TO.P,U1,19,SPP0/RD0*%
%TO.N,unconnected-(U1-SPP0{slash}RD0-Pad19)*%
X119640000Y-142240000D03*
%TO.P,U1,20,SPP1/RD1*%
%TO.N,unconnected-(U1-SPP1{slash}RD1-Pad20)*%
X122180000Y-142240000D03*
%TO.P,U1,21,SPP2/RD2*%
%TO.N,Net-(U1-SPP2{slash}RD2)*%
X122180000Y-127000000D03*
%TO.P,U1,22,SPP3/RD3*%
%TO.N,unconnected-(U1-SPP3{slash}RD3-Pad22)*%
X119640000Y-127000000D03*
%TO.P,U1,23,VM/D-/RC4*%
%TO.N,unconnected-(U1-VM{slash}D-{slash}RC4-Pad23)*%
X117100000Y-127000000D03*
%TO.P,U1,24,VP/D+/RC5*%
%TO.N,unconnected-(U1-VP{slash}D+{slash}RC5-Pad24)*%
X114560000Y-127000000D03*
%TO.P,U1,25,TX/CK/RC6*%
%TO.N,unconnected-(U1-TX{slash}CK{slash}RC6-Pad25)*%
X112020000Y-127000000D03*
%TO.P,U1,26,SDO/RX/DT/RC7*%
%TO.N,unconnected-(U1-SDO{slash}RX{slash}DT{slash}RC7-Pad26)*%
X109480000Y-127000000D03*
%TO.P,U1,27,SPP4/RD4*%
%TO.N,unconnected-(U1-SPP4{slash}RD4-Pad27)*%
X106940000Y-127000000D03*
%TO.P,U1,28,P1B/SPP5/RD5*%
%TO.N,unconnected-(U1-P1B{slash}SPP5{slash}RD5-Pad28)*%
X104400000Y-127000000D03*
%TO.P,U1,29,P1C/SPP6/RD6*%
%TO.N,unconnected-(U1-P1C{slash}SPP6{slash}RD6-Pad29)*%
X101860000Y-127000000D03*
%TO.P,U1,30,P1D/SPP7/RD7*%
%TO.N,unconnected-(U1-P1D{slash}SPP7{slash}RD7-Pad30)*%
X99320000Y-127000000D03*
%TO.P,U1,31,VSS*%
%TO.N,GND*%
X96780000Y-127000000D03*
%TO.P,U1,32,VDD*%
%TO.N,VCC*%
X94240000Y-127000000D03*
%TO.P,U1,33,RB0/AN12/INT0/FLT0/SDI/SDA*%
%TO.N,Net-(U1-RB0{slash}AN12{slash}INT0{slash}FLT0{slash}SDI{slash}SDA)*%
X91700000Y-127000000D03*
%TO.P,U1,34,RB1/AN10/INT1/SCK/SCL*%
%TO.N,Net-(U1-RB1{slash}AN10{slash}INT1{slash}SCK{slash}SCL)*%
X89160000Y-127000000D03*
%TO.P,U1,35,RB2/AN8/INT2/VMO*%
%TO.N,unconnected-(U1-RB2{slash}AN8{slash}INT2{slash}VMO-Pad35)*%
X86620000Y-127000000D03*
%TO.P,U1,36,RB3/AN9/CCP2/VPO*%
%TO.N,unconnected-(U1-RB3{slash}AN9{slash}CCP2{slash}VPO-Pad36)*%
X84080000Y-127000000D03*
%TO.P,U1,37,RB4/AN11/KBI0/CSSPP*%
%TO.N,unconnected-(U1-RB4{slash}AN11{slash}KBI0{slash}CSSPP-Pad37)*%
X81540000Y-127000000D03*
%TO.P,U1,38,RB5/KBI1/PGM*%
%TO.N,unconnected-(U1-RB5{slash}KBI1{slash}PGM-Pad38)*%
X79000000Y-127000000D03*
%TO.P,U1,39,RB6/KBI2/PGC*%
%TO.N,unconnected-(U1-RB6{slash}KBI2{slash}PGC-Pad39)*%
X76460000Y-127000000D03*
%TO.P,U1,40,RB7/KBI3/PGD*%
%TO.N,unconnected-(U1-RB7{slash}KBI3{slash}PGD-Pad40)*%
X73920000Y-127000000D03*
%TD*%
D14*
%TO.P,R13,1*%
%TO.N,Net-(U1-T1OSO{slash}T13CKI{slash}RC0)*%
X123895000Y-119380000D03*
%TO.P,R13,2*%
%TO.N,VCC*%
X125545000Y-119380000D03*
%TD*%
%TO.P,R7,1*%
%TO.N,Net-(U1-SPP2{slash}RD2)*%
X126423019Y-127037290D03*
%TO.P,R7,2*%
%TO.N,Net-(D1-A)*%
X128073019Y-127037290D03*
%TD*%
D26*
%TO.P,R6,2*%
%TO.N,VCC*%
X73920000Y-147915439D03*
%TO.P,R6,1*%
%TO.N,Net-(U1-Vpp{slash}~{MCLR}{slash}RE3)*%
X73920000Y-146265439D03*
%TD*%
D14*
%TO.P,R4,2*%
%TO.N,Net-(U1-RA0{slash}AN0)*%
X75573625Y-150964051D03*
%TO.P,R4,1*%
%TO.N,VCC*%
X73923625Y-150964051D03*
%TD*%
D26*
%TO.P,R3,1*%
%TO.N,Net-(J1-Pin_2)*%
X80451476Y-152658570D03*
%TO.P,R3,2*%
%TO.N,GND*%
X80451476Y-154308570D03*
%TD*%
D14*
%TO.P,R2,1*%
%TO.N,Net-(U5--)*%
X85098449Y-148965287D03*
%TO.P,R2,2*%
%TO.N,GND*%
X86748449Y-148965287D03*
%TD*%
D27*
%TO.P,R1,1*%
%TO.N,VCC*%
X86694051Y-146495000D03*
%TO.P,R1,2*%
%TO.N,Net-(U5--)*%
X85044051Y-146495000D03*
%TD*%
D28*
%TO.P,Q1,1,C*%
%TO.N,Net-(D2-A)*%
X127000000Y-147320000D03*
D29*
%TO.P,Q1,2,B*%
%TO.N,VCC*%
X127000000Y-148590000D03*
%TO.P,Q1,3,E*%
%TO.N,GND*%
X127000000Y-149860000D03*
%TD*%
D30*
%TO.P,K1,1*%
%TO.N,Net-(D2-K)*%
X146157500Y-147567500D03*
D31*
%TO.P,K1,3*%
%TO.N,Net-(J2-Pin_1)*%
X146157500Y-126567500D03*
%TO.P,K1,5*%
%TO.N,Net-(J2-Pin_2)*%
X138657500Y-130067500D03*
%TO.P,K1,6*%
%TO.N,Net-(D2-A)*%
X138657500Y-147567500D03*
%TD*%
D32*
%TO.P,J1,3,Pin_3*%
%TO.N,VCC*%
X73894601Y-154344790D03*
%TO.P,J1,2,Pin_2*%
%TO.N,Net-(J1-Pin_2)*%
X75164601Y-154344790D03*
D33*
%TO.P,J1,1,Pin_1*%
%TO.N,GND*%
X76434601Y-154344790D03*
%TD*%
D34*
%TO.P,D2,1,K*%
%TO.N,Net-(D2-K)*%
X147580000Y-154940000D03*
D35*
%TO.P,D2,2,A*%
%TO.N,Net-(D2-A)*%
X137420000Y-154940000D03*
%TD*%
D36*
%TO.P,C2,1*%
%TO.N,Net-(U1-OSC1{slash}CLKI)*%
X117539128Y-152447222D03*
%TO.P,C2,2*%
%TO.N,GND*%
X120539128Y-152447222D03*
%TD*%
%TO.P,C1,1*%
%TO.N,Net-(U1-RA6{slash}OSC2{slash}CLKO)*%
X117506861Y-147422335D03*
%TO.P,C1,2*%
%TO.N,GND*%
X120506861Y-147422335D03*
%TD*%
D37*
%TO.N,VCC*%
X88900000Y-124460000D03*
%TD*%
D38*
%TO.N,VCC*%
X89160000Y-122008343D02*
X89160000Y-124200000D01*
X89160000Y-124200000D02*
X88900000Y-124460000D01*
D39*
X97591143Y-123648857D02*
X96810000Y-122867714D01*
X96810000Y-122867714D02*
X96810000Y-121920000D01*
D38*
X93210956Y-120650236D02*
X93210956Y-122182554D01*
%TO.N,Net-(U3-E)*%
X99140000Y-103500000D02*
X99140000Y-110041453D01*
X99140000Y-110041453D02*
X99055000Y-110126453D01*
X99055000Y-110126453D02*
X99055000Y-111400000D01*
D39*
%TO.N,GND*%
X73660000Y-160020000D02*
X82576853Y-160020000D01*
X82576853Y-160020000D02*
X85132951Y-157463902D01*
%TO.N,Net-(J2-Pin_1)*%
X146157500Y-123037500D02*
X144780000Y-121660000D01*
X144780000Y-121660000D02*
X144780000Y-116840000D01*
%TO.N,Net-(J2-Pin_2)*%
X138657500Y-130067500D02*
X138657500Y-121952500D01*
X138657500Y-121952500D02*
X136950531Y-120245531D01*
X136950531Y-120245531D02*
X133988981Y-120245531D01*
X133988981Y-120245531D02*
X131430764Y-117687314D01*
X131430764Y-117687314D02*
X131430764Y-112431345D01*
X131430764Y-112431345D02*
X134642109Y-109220000D01*
X134642109Y-109220000D02*
X144780000Y-109220000D01*
X144780000Y-109220000D02*
X144780000Y-114300000D01*
%TO.N,Net-(J2-Pin_1)*%
X146157500Y-126567500D02*
X146157500Y-123037500D01*
%TO.N,GND*%
X104151500Y-152066497D02*
X98898998Y-157318998D01*
X98898998Y-157318998D02*
X98754095Y-157463902D01*
X120539128Y-152447222D02*
X115667352Y-157318998D01*
X115667352Y-157318998D02*
X98898998Y-157318998D01*
%TO.N,VCC*%
X99320000Y-142240000D02*
X99320000Y-132080000D01*
X99320000Y-132080000D02*
X94240000Y-127000000D01*
%TO.N,GND*%
X96780000Y-127000000D02*
X98807620Y-124972380D01*
X98807620Y-124972380D02*
X131232116Y-124972380D01*
X131232116Y-124972380D02*
X131548246Y-125288510D01*
X131548246Y-125288510D02*
X132362556Y-125288510D01*
D38*
%TO.N,Net-(U1-RB0{slash}AN12{slash}INT0{slash}FLT0{slash}SDI{slash}SDA)*%
X91700000Y-121920000D02*
X91700000Y-127000000D01*
%TO.N,VCC*%
X94240000Y-127000000D02*
X94240000Y-123211598D01*
X94369783Y-119491409D02*
X93210956Y-120650236D01*
X94240000Y-123211598D02*
X94240000Y-121980910D01*
X93210956Y-122182554D02*
X94240000Y-123211598D01*
%TO.N,Net-(U1-RB0{slash}AN12{slash}INT0{slash}FLT0{slash}SDI{slash}SDA)*%
X91700000Y-121920000D02*
X91983088Y-121920000D01*
X92250000Y-121653088D02*
X92250000Y-120833375D01*
X95063591Y-118941409D02*
X95805000Y-118200000D01*
X91983088Y-121920000D02*
X92250000Y-121653088D01*
X92250000Y-120833375D02*
X94141966Y-118941409D01*
X94141966Y-118941409D02*
X95063591Y-118941409D01*
X95805000Y-118200000D02*
X95805000Y-117200000D01*
%TO.N,VCC*%
X91700000Y-121105000D02*
X90591082Y-121105000D01*
X90591082Y-121105000D02*
X89687739Y-122008343D01*
X89687739Y-122008343D02*
X89160000Y-122008343D01*
D39*
%TO.N,Net-(U3-RS)*%
X99705000Y-117200000D02*
X104220000Y-112685000D01*
X104220000Y-112685000D02*
X104220000Y-103500000D01*
D38*
%TO.N,Net-(U3-R{slash}W)*%
X99705000Y-111400000D02*
X99705000Y-111133484D01*
X99705000Y-111133484D02*
X101680000Y-109158484D01*
X101680000Y-109158484D02*
X101680000Y-103500000D01*
D39*
%TO.N,VCC*%
X94240000Y-127000000D02*
X97591143Y-123648857D01*
X97591143Y-123648857D02*
X103491143Y-123648857D01*
X103491143Y-123648857D02*
X112080000Y-115060000D01*
%TO.N,Net-(U6-A0)*%
X94240000Y-121165910D02*
X94439999Y-121165910D01*
D38*
X94439999Y-121165910D02*
X97105000Y-118500909D01*
X97105000Y-118500909D02*
X97105000Y-117200000D01*
%TO.N,VCC*%
X95291408Y-119491409D02*
X94369783Y-119491409D01*
X96455000Y-117200000D02*
X96455000Y-118327817D01*
X96455000Y-118327817D02*
X95291408Y-119491409D01*
%TO.N,Net-(U6-A2)*%
X99320000Y-121105000D02*
X99055000Y-120840000D01*
X99055000Y-120840000D02*
X99055000Y-117200000D01*
%TO.N,Net-(U6-A1)*%
X96810000Y-121105000D02*
X97755000Y-120160000D01*
X97755000Y-120160000D02*
X97755000Y-117200000D01*
D39*
%TO.N,Net-(U1-RB1{slash}AN10{slash}INT1{slash}SCK{slash}SCL)*%
X86427786Y-124267786D02*
X86427786Y-123481749D01*
X89160000Y-127000000D02*
X86427786Y-124267786D01*
X86427786Y-123481749D02*
X88716192Y-121193343D01*
X88716192Y-121193343D02*
X89160000Y-121193343D01*
D38*
%TO.N,VCC*%
X99320000Y-121920000D02*
X96810000Y-121920000D01*
%TO.N,Net-(U1-RB1{slash}AN10{slash}INT1{slash}SCK{slash}SCL)*%
X89160000Y-121193343D02*
X92203343Y-118150000D01*
X92203343Y-118150000D02*
X94505000Y-118150000D01*
X94505000Y-118150000D02*
X94505000Y-117200000D01*
D39*
%TO.N,GND*%
X104153139Y-149281690D02*
X104153139Y-150342350D01*
X104153139Y-150342350D02*
X104151500Y-150343989D01*
X104151500Y-150343989D02*
X104151500Y-152066497D01*
X98754095Y-157463902D02*
X85132951Y-157463902D01*
X85132951Y-157463902D02*
X81977619Y-154308570D01*
D38*
%TO.N,Net-(U3-E)*%
X99055000Y-103585000D02*
X99140000Y-103500000D01*
%TO.N,GND*%
X97105000Y-111400000D02*
X97105000Y-104005000D01*
X97105000Y-104005000D02*
X96600000Y-103500000D01*
%TO.N,Net-(U3-DB4)*%
X96455000Y-111400000D02*
X96455000Y-110272183D01*
X96455000Y-110272183D02*
X92862817Y-106680000D01*
X92862817Y-106680000D02*
X89620000Y-106680000D01*
X89620000Y-106680000D02*
X86440000Y-103500000D01*
%TO.N,Net-(U3-DB5)*%
X94727223Y-109322223D02*
X88712590Y-109322223D01*
X95805000Y-110400000D02*
X94727223Y-109322223D01*
X95805000Y-111400000D02*
X95805000Y-110400000D01*
X88712590Y-109322223D02*
X88712590Y-108312590D01*
X88712590Y-108312590D02*
X83900000Y-103500000D01*
%TO.N,Net-(U3-DB6)*%
X94505000Y-111400000D02*
X94505000Y-110450000D01*
X94505000Y-110450000D02*
X88310000Y-110450000D01*
X88310000Y-110450000D02*
X81360000Y-103500000D01*
%TO.N,Net-(U3-DB7)*%
X93855000Y-111400000D02*
X86720000Y-111400000D01*
X86720000Y-111400000D02*
X78820000Y-103500000D01*
D39*
%TO.N,Net-(U1-T1OSO{slash}T13CKI{slash}RC0)*%
X134604851Y-134635149D02*
X124460000Y-144780000D01*
X134604851Y-122654670D02*
X134604851Y-134635149D01*
X123895000Y-119380000D02*
X127169670Y-122654670D01*
X124460000Y-144780000D02*
X112020000Y-144780000D01*
X127169670Y-122654670D02*
X134604851Y-122654670D01*
X112020000Y-144780000D02*
X109480000Y-142240000D01*
%TO.N,VCC*%
X125545000Y-119380000D02*
X121225000Y-115060000D01*
X121225000Y-115060000D02*
X112080000Y-115060000D01*
X109300000Y-103500000D02*
X109300000Y-112280000D01*
X109300000Y-112280000D02*
X112080000Y-115060000D01*
%TO.N,GND*%
X112080000Y-112760000D02*
X112080000Y-103740000D01*
X112080000Y-103740000D02*
X111840000Y-103500000D01*
%TO.N,Net-(U3-VO)*%
X106880000Y-113910000D02*
X106880000Y-103620000D01*
X106880000Y-103620000D02*
X106760000Y-103500000D01*
%TO.N,VCC*%
X96533139Y-149281690D02*
X94275725Y-147024275D01*
X86694051Y-146495000D02*
X93746450Y-146495000D01*
X93746450Y-146495000D02*
X94275725Y-147024275D01*
%TO.N,GND*%
X86748449Y-148965287D02*
X86748449Y-149537740D01*
X86748449Y-149537740D02*
X82945732Y-153340457D01*
%TO.N,Net-(U5--)*%
X85098449Y-148965287D02*
X85098449Y-146549398D01*
X85098449Y-146549398D02*
X85044051Y-146495000D01*
%TO.N,GND*%
X81977619Y-154308570D02*
X82945732Y-153340457D01*
X80451476Y-154308570D02*
X81977619Y-154308570D01*
X82945732Y-153340457D02*
X82945732Y-148648619D01*
X82945732Y-148648619D02*
X81101724Y-146804611D01*
X81101724Y-146804611D02*
X80439225Y-146804611D01*
X80451476Y-154308570D02*
X76470821Y-154308570D01*
X76470821Y-154308570D02*
X76434601Y-154344790D01*
%TO.N,Net-(J1-Pin_2)*%
X80451476Y-152658570D02*
X80451476Y-147766862D01*
X80451476Y-147766862D02*
X80439225Y-147754611D01*
%TO.N,Net-(U5--)*%
X85057560Y-146481491D02*
X85044051Y-146495000D01*
X85044051Y-146495000D02*
X84403662Y-145854611D01*
X84403662Y-145854611D02*
X80439225Y-145854611D01*
%TO.N,Net-(U1-RA1{slash}AN1)*%
X99073139Y-149281690D02*
X93445725Y-143654276D01*
X93445725Y-143654276D02*
X80414276Y-143654276D01*
X80414276Y-143654276D02*
X79000000Y-142240000D01*
%TO.N,Net-(U1-RA0{slash}AN0)*%
X75573625Y-150964051D02*
X75573625Y-143126375D01*
X75573625Y-143126375D02*
X76460000Y-142240000D01*
X78164225Y-145854611D02*
X78164225Y-143944225D01*
X78164225Y-143944225D02*
X76460000Y-142240000D01*
%TO.N,Net-(U1-Vpp{slash}~{MCLR}{slash}RE3)*%
X73920000Y-146265439D02*
X73920000Y-142240000D01*
%TO.N,Net-(D1-A)*%
X128073019Y-127037290D02*
X132361336Y-127037290D01*
X132361336Y-127037290D02*
X132362556Y-127038510D01*
%TO.N,Net-(U1-SPP2{slash}RD2)*%
X126423019Y-127037290D02*
X122217290Y-127037290D01*
X122217290Y-127037290D02*
X122180000Y-127000000D01*
%TO.N,Net-(D2-A)*%
X127000000Y-147320000D02*
X138410000Y-147320000D01*
X138410000Y-147320000D02*
X138657500Y-147567500D01*
X137420000Y-154940000D02*
X137420000Y-148805000D01*
X137420000Y-148805000D02*
X138657500Y-147567500D01*
%TO.N,Net-(D2-K)*%
X147580000Y-154940000D02*
X147580000Y-148990000D01*
X147580000Y-148990000D02*
X146157500Y-147567500D01*
%TO.N,GND*%
X104153139Y-149281690D02*
X104153139Y-144533139D01*
X104153139Y-144533139D02*
X101860000Y-142240000D01*
X127000000Y-149860000D02*
X123126350Y-149860000D01*
X123126350Y-149860000D02*
X120539128Y-152447222D01*
X120539128Y-152447222D02*
X120539128Y-147454602D01*
X120539128Y-147454602D02*
X120506861Y-147422335D01*
%TO.N,Net-(U1-RA6{slash}OSC2{slash}CLKO)*%
X117506861Y-147422335D02*
X112417109Y-147422335D01*
X112417109Y-147422335D02*
X112338918Y-147344144D01*
%TO.N,Net-(U1-OSC1{slash}CLKI)*%
X117539128Y-152447222D02*
X112541996Y-152447222D01*
X112541996Y-152447222D02*
X112338918Y-152244144D01*
X112338918Y-152244144D02*
X112338918Y-150178918D01*
X112338918Y-150178918D02*
X104400000Y-142240000D01*
%TO.N,Net-(U1-RA6{slash}OSC2{slash}CLKO)*%
X112338918Y-147344144D02*
X107234774Y-142240000D01*
X107234774Y-142240000D02*
X106940000Y-142240000D01*
%TO.N,Net-(U1-RA1{slash}AN1)*%
X98549914Y-153830424D02*
X98549914Y-149804915D01*
X98549914Y-149804915D02*
X99073139Y-149281690D01*
%TO.N,VCC*%
X96899914Y-153830424D02*
X96899914Y-149648465D01*
X96899914Y-149648465D02*
X96533139Y-149281690D01*
%TO.N,Net-(J1-Pin_2)*%
X75164601Y-154344790D02*
X75164601Y-153762805D01*
X80439225Y-148488181D02*
X80439225Y-147754611D01*
X75164601Y-153762805D02*
X80439225Y-148488181D01*
%TO.N,VCC*%
X73923625Y-150964051D02*
X73923625Y-154315766D01*
X73923625Y-154315766D02*
X73894601Y-154344790D01*
X75739361Y-152198095D02*
X74492353Y-152198095D01*
X78164225Y-149773231D02*
X75739361Y-152198095D01*
X78164225Y-147754611D02*
X78164225Y-149773231D01*
X74492353Y-152198095D02*
X73894601Y-152795847D01*
X73894601Y-152795847D02*
X73894601Y-154344790D01*
X73923625Y-150964051D02*
X73923625Y-147919064D01*
X73923625Y-147919064D02*
X73920000Y-147915439D01*
%TD*%
M02*
