%TF.GenerationSoftware,KiCad,Pcbnew,7.0.9-7.0.9~ubuntu22.04.1*%
%TF.CreationDate,2023-12-03T21:32:25-03:00*%
%TF.ProjectId,smart_watering_system,736d6172-745f-4776-9174-6572696e675f,rev?*%
%TF.SameCoordinates,Original*%
%TF.FileFunction,Soldermask,Bot*%
%TF.FilePolarity,Negative*%
%FSLAX46Y46*%
G04 Gerber Fmt 4.6, Leading zero omitted, Abs format (unit mm)*
G04 Created by KiCad (PCBNEW 7.0.9-7.0.9~ubuntu22.04.1) date 2023-12-03 21:32:25*
%MOMM*%
%LPD*%
G01*
G04 APERTURE LIST*
%ADD10R,1.700000X1.700000*%
%ADD11O,1.700000X1.700000*%
%ADD12C,1.500000*%
%ADD13R,1.500000X1.500000*%
%ADD14C,2.500000*%
%ADD15R,1.524000X1.524000*%
%ADD16C,1.524000*%
%ADD17R,1.600000X1.600000*%
%ADD18O,1.600000X1.600000*%
%ADD19R,1.500000X1.050000*%
%ADD20O,1.500000X1.050000*%
%ADD21R,2.500000X2.500000*%
%ADD22O,2.500000X2.500000*%
%ADD23O,1.000000X1.000000*%
%ADD24R,1.000000X1.000000*%
%ADD25R,2.200000X2.200000*%
%ADD26O,2.200000X2.200000*%
G04 APERTURE END LIST*
D10*
%TO.C,J4*%
X73660000Y-160020000D03*
%TD*%
%TO.C,J3*%
X68580000Y-160020000D03*
%TD*%
%TO.C,J2*%
X144780000Y-116840000D03*
D11*
X144780000Y-114300000D03*
%TD*%
D12*
%TO.C,Y1*%
X112338918Y-147344144D03*
X112338918Y-152244144D03*
%TD*%
%TO.C,U4*%
X104153139Y-149281690D03*
X101613139Y-149281690D03*
X99073139Y-149281690D03*
D13*
X96533139Y-149281690D03*
%TD*%
D14*
%TO.C,U3*%
X72620000Y-102040000D03*
X150120000Y-66040000D03*
X148620000Y-102040000D03*
X71120000Y-66040000D03*
D15*
X111840000Y-103500000D03*
D16*
X109300000Y-103500000D03*
X106760000Y-103500000D03*
X104220000Y-103500000D03*
X101680000Y-103500000D03*
X99140000Y-103500000D03*
X96600000Y-103500000D03*
X94060000Y-103500000D03*
X91520000Y-103500000D03*
X88980000Y-103500000D03*
X86440000Y-103500000D03*
X83900000Y-103500000D03*
X81360000Y-103500000D03*
X78820000Y-103500000D03*
%TD*%
D17*
%TO.C,U1*%
X73920000Y-142240000D03*
D18*
X76460000Y-142240000D03*
X79000000Y-142240000D03*
X81540000Y-142240000D03*
X84080000Y-142240000D03*
X86620000Y-142240000D03*
X89160000Y-142240000D03*
X91700000Y-142240000D03*
X94240000Y-142240000D03*
X96780000Y-142240000D03*
X99320000Y-142240000D03*
X101860000Y-142240000D03*
X104400000Y-142240000D03*
X106940000Y-142240000D03*
X109480000Y-142240000D03*
X112020000Y-142240000D03*
X114560000Y-142240000D03*
X117100000Y-142240000D03*
X119640000Y-142240000D03*
X122180000Y-142240000D03*
X122180000Y-127000000D03*
X119640000Y-127000000D03*
X117100000Y-127000000D03*
X114560000Y-127000000D03*
X112020000Y-127000000D03*
X109480000Y-127000000D03*
X106940000Y-127000000D03*
X104400000Y-127000000D03*
X101860000Y-127000000D03*
X99320000Y-127000000D03*
X96780000Y-127000000D03*
X94240000Y-127000000D03*
X91700000Y-127000000D03*
X89160000Y-127000000D03*
X86620000Y-127000000D03*
X84080000Y-127000000D03*
X81540000Y-127000000D03*
X79000000Y-127000000D03*
X76460000Y-127000000D03*
X73920000Y-127000000D03*
%TD*%
D19*
%TO.C,Q1*%
X127000000Y-147320000D03*
D20*
X127000000Y-148590000D03*
X127000000Y-149860000D03*
%TD*%
D21*
%TO.C,K1*%
X146157500Y-147567500D03*
D22*
X146157500Y-126567500D03*
X138657500Y-130067500D03*
X138657500Y-147567500D03*
%TD*%
D23*
%TO.C,J1*%
X73894601Y-154344790D03*
X75164601Y-154344790D03*
D24*
X76434601Y-154344790D03*
%TD*%
D25*
%TO.C,D2*%
X147580000Y-154940000D03*
D26*
X137420000Y-154940000D03*
%TD*%
M02*
