%TF.GenerationSoftware,KiCad,Pcbnew,7.0.9-7.0.9~ubuntu22.04.1*%
%TF.CreationDate,2023-12-03T21:32:25-03:00*%
%TF.ProjectId,smart_watering_system,736d6172-745f-4776-9174-6572696e675f,rev?*%
%TF.SameCoordinates,Original*%
%TF.FileFunction,Soldermask,Top*%
%TF.FilePolarity,Negative*%
%FSLAX46Y46*%
G04 Gerber Fmt 4.6, Leading zero omitted, Abs format (unit mm)*
G04 Created by KiCad (PCBNEW 7.0.9-7.0.9~ubuntu22.04.1) date 2023-12-03 21:32:25*
%MOMM*%
%LPD*%
G01*
G04 APERTURE LIST*
G04 Aperture macros list*
%AMRoundRect*
0 Rectangle with rounded corners*
0 $1 Rounding radius*
0 $2 $3 $4 $5 $6 $7 $8 $9 X,Y pos of 4 corners*
0 Add a 4 corners polygon primitive as box body*
4,1,4,$2,$3,$4,$5,$6,$7,$8,$9,$2,$3,0*
0 Add four circle primitives for the rounded corners*
1,1,$1+$1,$2,$3*
1,1,$1+$1,$4,$5*
1,1,$1+$1,$6,$7*
1,1,$1+$1,$8,$9*
0 Add four rect primitives between the rounded corners*
20,1,$1+$1,$2,$3,$4,$5,0*
20,1,$1+$1,$4,$5,$6,$7,0*
20,1,$1+$1,$6,$7,$8,$9,0*
20,1,$1+$1,$8,$9,$2,$3,0*%
G04 Aperture macros list end*
%ADD10R,1.700000X1.700000*%
%ADD11O,1.700000X1.700000*%
%ADD12RoundRect,0.100000X0.100000X-0.217500X0.100000X0.217500X-0.100000X0.217500X-0.100000X-0.217500X0*%
%ADD13C,1.500000*%
%ADD14RoundRect,0.200000X-0.200000X-0.275000X0.200000X-0.275000X0.200000X0.275000X-0.200000X0.275000X0*%
%ADD15R,1.300000X1.300000*%
%ADD16R,1.300000X2.000000*%
%ADD17RoundRect,0.237500X-0.237500X0.287500X-0.237500X-0.287500X0.237500X-0.287500X0.237500X0.287500X0*%
%ADD18RoundRect,0.100000X-0.100000X0.217500X-0.100000X-0.217500X0.100000X-0.217500X0.100000X0.217500X0*%
%ADD19R,0.400000X1.000000*%
%ADD20RoundRect,0.150000X0.512500X0.150000X-0.512500X0.150000X-0.512500X-0.150000X0.512500X-0.150000X0*%
%ADD21R,1.500000X1.500000*%
%ADD22C,2.500000*%
%ADD23R,1.524000X1.524000*%
%ADD24C,1.524000*%
%ADD25R,1.600000X1.600000*%
%ADD26O,1.600000X1.600000*%
%ADD27RoundRect,0.200000X-0.275000X0.200000X-0.275000X-0.200000X0.275000X-0.200000X0.275000X0.200000X0*%
%ADD28RoundRect,0.200000X0.200000X0.275000X-0.200000X0.275000X-0.200000X-0.275000X0.200000X-0.275000X0*%
%ADD29R,1.500000X1.050000*%
%ADD30O,1.500000X1.050000*%
%ADD31R,2.500000X2.500000*%
%ADD32O,2.500000X2.500000*%
%ADD33O,1.000000X1.000000*%
%ADD34R,1.000000X1.000000*%
%ADD35R,2.200000X2.200000*%
%ADD36O,2.200000X2.200000*%
%ADD37R,2.200000X1.600000*%
G04 APERTURE END LIST*
D10*
%TO.C,J4*%
X73660000Y-160020000D03*
%TD*%
%TO.C,J3*%
X68580000Y-160020000D03*
%TD*%
%TO.C,J2*%
X144780000Y-116840000D03*
D11*
X144780000Y-114300000D03*
%TD*%
D12*
%TO.C,R11*%
X89160000Y-122008343D03*
X89160000Y-121193343D03*
%TD*%
D13*
%TO.C,Y1*%
X112338918Y-147344144D03*
X112338918Y-152244144D03*
%TD*%
D14*
%TO.C,R5*%
X98549914Y-153830424D03*
X96899914Y-153830424D03*
%TD*%
D15*
%TO.C,RV1*%
X112080000Y-112760000D03*
D16*
X106880000Y-113910000D03*
D15*
X112080000Y-115060000D03*
%TD*%
D17*
%TO.C,D1*%
X132362556Y-125288510D03*
X132362556Y-127038510D03*
%TD*%
D12*
%TO.C,R12*%
X94240000Y-121980910D03*
X94240000Y-121165910D03*
%TD*%
D18*
%TO.C,R10*%
X91700000Y-121105000D03*
X91700000Y-121920000D03*
%TD*%
D12*
%TO.C,R9*%
X99320000Y-121920000D03*
X99320000Y-121105000D03*
%TD*%
%TO.C,R8*%
X96810000Y-121920000D03*
X96810000Y-121105000D03*
%TD*%
D19*
%TO.C,U6*%
X93855000Y-117200000D03*
X94505000Y-117200000D03*
X95155000Y-117200000D03*
X95805000Y-117200000D03*
X96455000Y-117200000D03*
X97105000Y-117200000D03*
X97755000Y-117200000D03*
X98405000Y-117200000D03*
X99055000Y-117200000D03*
X99705000Y-117200000D03*
X99705000Y-111400000D03*
X99055000Y-111400000D03*
X98405000Y-111400000D03*
X97755000Y-111400000D03*
X97105000Y-111400000D03*
X96455000Y-111400000D03*
X95805000Y-111400000D03*
X95155000Y-111400000D03*
X94505000Y-111400000D03*
X93855000Y-111400000D03*
%TD*%
D20*
%TO.C,U5*%
X78164225Y-147754611D03*
X78164225Y-145854611D03*
X80439225Y-145854611D03*
X80439225Y-146804611D03*
X80439225Y-147754611D03*
%TD*%
D13*
%TO.C,U4*%
X104153139Y-149281690D03*
X101613139Y-149281690D03*
X99073139Y-149281690D03*
D21*
X96533139Y-149281690D03*
%TD*%
D22*
%TO.C,U3*%
X72620000Y-102040000D03*
X150120000Y-66040000D03*
X148620000Y-102040000D03*
X71120000Y-66040000D03*
D23*
X111840000Y-103500000D03*
D24*
X109300000Y-103500000D03*
X106760000Y-103500000D03*
X104220000Y-103500000D03*
X101680000Y-103500000D03*
X99140000Y-103500000D03*
X96600000Y-103500000D03*
X94060000Y-103500000D03*
X91520000Y-103500000D03*
X88980000Y-103500000D03*
X86440000Y-103500000D03*
X83900000Y-103500000D03*
X81360000Y-103500000D03*
X78820000Y-103500000D03*
%TD*%
D25*
%TO.C,U1*%
X73920000Y-142240000D03*
D26*
X76460000Y-142240000D03*
X79000000Y-142240000D03*
X81540000Y-142240000D03*
X84080000Y-142240000D03*
X86620000Y-142240000D03*
X89160000Y-142240000D03*
X91700000Y-142240000D03*
X94240000Y-142240000D03*
X96780000Y-142240000D03*
X99320000Y-142240000D03*
X101860000Y-142240000D03*
X104400000Y-142240000D03*
X106940000Y-142240000D03*
X109480000Y-142240000D03*
X112020000Y-142240000D03*
X114560000Y-142240000D03*
X117100000Y-142240000D03*
X119640000Y-142240000D03*
X122180000Y-142240000D03*
X122180000Y-127000000D03*
X119640000Y-127000000D03*
X117100000Y-127000000D03*
X114560000Y-127000000D03*
X112020000Y-127000000D03*
X109480000Y-127000000D03*
X106940000Y-127000000D03*
X104400000Y-127000000D03*
X101860000Y-127000000D03*
X99320000Y-127000000D03*
X96780000Y-127000000D03*
X94240000Y-127000000D03*
X91700000Y-127000000D03*
X89160000Y-127000000D03*
X86620000Y-127000000D03*
X84080000Y-127000000D03*
X81540000Y-127000000D03*
X79000000Y-127000000D03*
X76460000Y-127000000D03*
X73920000Y-127000000D03*
%TD*%
D14*
%TO.C,R13*%
X123895000Y-119380000D03*
X125545000Y-119380000D03*
%TD*%
%TO.C,R7*%
X126423019Y-127037290D03*
X128073019Y-127037290D03*
%TD*%
D27*
%TO.C,R6*%
X73920000Y-147915439D03*
X73920000Y-146265439D03*
%TD*%
D14*
%TO.C,R4*%
X75573625Y-150964051D03*
X73923625Y-150964051D03*
%TD*%
D27*
%TO.C,R3*%
X80451476Y-152658570D03*
X80451476Y-154308570D03*
%TD*%
D14*
%TO.C,R2*%
X85098449Y-148965287D03*
X86748449Y-148965287D03*
%TD*%
D28*
%TO.C,R1*%
X86694051Y-146495000D03*
X85044051Y-146495000D03*
%TD*%
D29*
%TO.C,Q1*%
X127000000Y-147320000D03*
D30*
X127000000Y-148590000D03*
X127000000Y-149860000D03*
%TD*%
D31*
%TO.C,K1*%
X146157500Y-147567500D03*
D32*
X146157500Y-126567500D03*
X138657500Y-130067500D03*
X138657500Y-147567500D03*
%TD*%
D33*
%TO.C,J1*%
X73894601Y-154344790D03*
X75164601Y-154344790D03*
D34*
X76434601Y-154344790D03*
%TD*%
D35*
%TO.C,D2*%
X147580000Y-154940000D03*
D36*
X137420000Y-154940000D03*
%TD*%
D37*
%TO.C,C2*%
X117539128Y-152447222D03*
X120539128Y-152447222D03*
%TD*%
%TO.C,C1*%
X117506861Y-147422335D03*
X120506861Y-147422335D03*
%TD*%
M02*
