%TF.GenerationSoftware,KiCad,Pcbnew,7.0.9-7.0.9~ubuntu22.04.1*%
%TF.CreationDate,2023-12-03T21:32:25-03:00*%
%TF.ProjectId,smart_watering_system,736d6172-745f-4776-9174-6572696e675f,rev?*%
%TF.SameCoordinates,Original*%
%TF.FileFunction,Legend,Top*%
%TF.FilePolarity,Positive*%
%FSLAX46Y46*%
G04 Gerber Fmt 4.6, Leading zero omitted, Abs format (unit mm)*
G04 Created by KiCad (PCBNEW 7.0.9-7.0.9~ubuntu22.04.1) date 2023-12-03 21:32:25*
%MOMM*%
%LPD*%
G01*
G04 APERTURE LIST*
%ADD10C,0.150000*%
%ADD11C,0.120000*%
G04 APERTURE END LIST*
D10*
X73326666Y-157144819D02*
X73326666Y-157859104D01*
X73326666Y-157859104D02*
X73279047Y-158001961D01*
X73279047Y-158001961D02*
X73183809Y-158097200D01*
X73183809Y-158097200D02*
X73040952Y-158144819D01*
X73040952Y-158144819D02*
X72945714Y-158144819D01*
X74231428Y-157478152D02*
X74231428Y-158144819D01*
X73993333Y-157097200D02*
X73755238Y-157811485D01*
X73755238Y-157811485D02*
X74374285Y-157811485D01*
X68246666Y-157144819D02*
X68246666Y-157859104D01*
X68246666Y-157859104D02*
X68199047Y-158001961D01*
X68199047Y-158001961D02*
X68103809Y-158097200D01*
X68103809Y-158097200D02*
X67960952Y-158144819D01*
X67960952Y-158144819D02*
X67865714Y-158144819D01*
X68627619Y-157144819D02*
X69246666Y-157144819D01*
X69246666Y-157144819D02*
X68913333Y-157525771D01*
X68913333Y-157525771D02*
X69056190Y-157525771D01*
X69056190Y-157525771D02*
X69151428Y-157573390D01*
X69151428Y-157573390D02*
X69199047Y-157621009D01*
X69199047Y-157621009D02*
X69246666Y-157716247D01*
X69246666Y-157716247D02*
X69246666Y-157954342D01*
X69246666Y-157954342D02*
X69199047Y-158049580D01*
X69199047Y-158049580D02*
X69151428Y-158097200D01*
X69151428Y-158097200D02*
X69056190Y-158144819D01*
X69056190Y-158144819D02*
X68770476Y-158144819D01*
X68770476Y-158144819D02*
X68675238Y-158097200D01*
X68675238Y-158097200D02*
X68627619Y-158049580D01*
X140061666Y-118564819D02*
X140061666Y-119279104D01*
X140061666Y-119279104D02*
X140014047Y-119421961D01*
X140014047Y-119421961D02*
X139918809Y-119517200D01*
X139918809Y-119517200D02*
X139775952Y-119564819D01*
X139775952Y-119564819D02*
X139680714Y-119564819D01*
X140490238Y-118660057D02*
X140537857Y-118612438D01*
X140537857Y-118612438D02*
X140633095Y-118564819D01*
X140633095Y-118564819D02*
X140871190Y-118564819D01*
X140871190Y-118564819D02*
X140966428Y-118612438D01*
X140966428Y-118612438D02*
X141014047Y-118660057D01*
X141014047Y-118660057D02*
X141061666Y-118755295D01*
X141061666Y-118755295D02*
X141061666Y-118850533D01*
X141061666Y-118850533D02*
X141014047Y-118993390D01*
X141014047Y-118993390D02*
X140442619Y-119564819D01*
X140442619Y-119564819D02*
X141061666Y-119564819D01*
X88564819Y-122243700D02*
X88088628Y-122577033D01*
X88564819Y-122815128D02*
X87564819Y-122815128D01*
X87564819Y-122815128D02*
X87564819Y-122434176D01*
X87564819Y-122434176D02*
X87612438Y-122338938D01*
X87612438Y-122338938D02*
X87660057Y-122291319D01*
X87660057Y-122291319D02*
X87755295Y-122243700D01*
X87755295Y-122243700D02*
X87898152Y-122243700D01*
X87898152Y-122243700D02*
X87993390Y-122291319D01*
X87993390Y-122291319D02*
X88041009Y-122338938D01*
X88041009Y-122338938D02*
X88088628Y-122434176D01*
X88088628Y-122434176D02*
X88088628Y-122815128D01*
X88564819Y-121291319D02*
X88564819Y-121862747D01*
X88564819Y-121577033D02*
X87564819Y-121577033D01*
X87564819Y-121577033D02*
X87707676Y-121672271D01*
X87707676Y-121672271D02*
X87802914Y-121767509D01*
X87802914Y-121767509D02*
X87850533Y-121862747D01*
X88564819Y-120338938D02*
X88564819Y-120910366D01*
X88564819Y-120624652D02*
X87564819Y-120624652D01*
X87564819Y-120624652D02*
X87707676Y-120719890D01*
X87707676Y-120719890D02*
X87802914Y-120815128D01*
X87802914Y-120815128D02*
X87850533Y-120910366D01*
X115842546Y-150270334D02*
X116318737Y-150270334D01*
X115318737Y-150603667D02*
X115842546Y-150270334D01*
X115842546Y-150270334D02*
X115318737Y-149937001D01*
X116318737Y-149079858D02*
X116318737Y-149651286D01*
X116318737Y-149365572D02*
X115318737Y-149365572D01*
X115318737Y-149365572D02*
X115461594Y-149460810D01*
X115461594Y-149460810D02*
X115556832Y-149556048D01*
X115556832Y-149556048D02*
X115604451Y-149651286D01*
X97558247Y-152855243D02*
X97224914Y-152379052D01*
X96986819Y-152855243D02*
X96986819Y-151855243D01*
X96986819Y-151855243D02*
X97367771Y-151855243D01*
X97367771Y-151855243D02*
X97463009Y-151902862D01*
X97463009Y-151902862D02*
X97510628Y-151950481D01*
X97510628Y-151950481D02*
X97558247Y-152045719D01*
X97558247Y-152045719D02*
X97558247Y-152188576D01*
X97558247Y-152188576D02*
X97510628Y-152283814D01*
X97510628Y-152283814D02*
X97463009Y-152331433D01*
X97463009Y-152331433D02*
X97367771Y-152379052D01*
X97367771Y-152379052D02*
X96986819Y-152379052D01*
X98463009Y-151855243D02*
X97986819Y-151855243D01*
X97986819Y-151855243D02*
X97939200Y-152331433D01*
X97939200Y-152331433D02*
X97986819Y-152283814D01*
X97986819Y-152283814D02*
X98082057Y-152236195D01*
X98082057Y-152236195D02*
X98320152Y-152236195D01*
X98320152Y-152236195D02*
X98415390Y-152283814D01*
X98415390Y-152283814D02*
X98463009Y-152331433D01*
X98463009Y-152331433D02*
X98510628Y-152426671D01*
X98510628Y-152426671D02*
X98510628Y-152664766D01*
X98510628Y-152664766D02*
X98463009Y-152760004D01*
X98463009Y-152760004D02*
X98415390Y-152807624D01*
X98415390Y-152807624D02*
X98320152Y-152855243D01*
X98320152Y-152855243D02*
X98082057Y-152855243D01*
X98082057Y-152855243D02*
X97986819Y-152807624D01*
X97986819Y-152807624D02*
X97939200Y-152760004D01*
X108884761Y-110714819D02*
X108551428Y-110238628D01*
X108313333Y-110714819D02*
X108313333Y-109714819D01*
X108313333Y-109714819D02*
X108694285Y-109714819D01*
X108694285Y-109714819D02*
X108789523Y-109762438D01*
X108789523Y-109762438D02*
X108837142Y-109810057D01*
X108837142Y-109810057D02*
X108884761Y-109905295D01*
X108884761Y-109905295D02*
X108884761Y-110048152D01*
X108884761Y-110048152D02*
X108837142Y-110143390D01*
X108837142Y-110143390D02*
X108789523Y-110191009D01*
X108789523Y-110191009D02*
X108694285Y-110238628D01*
X108694285Y-110238628D02*
X108313333Y-110238628D01*
X109170476Y-109714819D02*
X109503809Y-110714819D01*
X109503809Y-110714819D02*
X109837142Y-109714819D01*
X110694285Y-110714819D02*
X110122857Y-110714819D01*
X110408571Y-110714819D02*
X110408571Y-109714819D01*
X110408571Y-109714819D02*
X110313333Y-109857676D01*
X110313333Y-109857676D02*
X110218095Y-109952914D01*
X110218095Y-109952914D02*
X110122857Y-110000533D01*
X134247375Y-126901604D02*
X133247375Y-126901604D01*
X133247375Y-126901604D02*
X133247375Y-126663509D01*
X133247375Y-126663509D02*
X133294994Y-126520652D01*
X133294994Y-126520652D02*
X133390232Y-126425414D01*
X133390232Y-126425414D02*
X133485470Y-126377795D01*
X133485470Y-126377795D02*
X133675946Y-126330176D01*
X133675946Y-126330176D02*
X133818803Y-126330176D01*
X133818803Y-126330176D02*
X134009279Y-126377795D01*
X134009279Y-126377795D02*
X134104517Y-126425414D01*
X134104517Y-126425414D02*
X134199756Y-126520652D01*
X134199756Y-126520652D02*
X134247375Y-126663509D01*
X134247375Y-126663509D02*
X134247375Y-126901604D01*
X134247375Y-125377795D02*
X134247375Y-125949223D01*
X134247375Y-125663509D02*
X133247375Y-125663509D01*
X133247375Y-125663509D02*
X133390232Y-125758747D01*
X133390232Y-125758747D02*
X133485470Y-125853985D01*
X133485470Y-125853985D02*
X133533089Y-125949223D01*
X94434819Y-120022857D02*
X93958628Y-120356190D01*
X94434819Y-120594285D02*
X93434819Y-120594285D01*
X93434819Y-120594285D02*
X93434819Y-120213333D01*
X93434819Y-120213333D02*
X93482438Y-120118095D01*
X93482438Y-120118095D02*
X93530057Y-120070476D01*
X93530057Y-120070476D02*
X93625295Y-120022857D01*
X93625295Y-120022857D02*
X93768152Y-120022857D01*
X93768152Y-120022857D02*
X93863390Y-120070476D01*
X93863390Y-120070476D02*
X93911009Y-120118095D01*
X93911009Y-120118095D02*
X93958628Y-120213333D01*
X93958628Y-120213333D02*
X93958628Y-120594285D01*
X94434819Y-119070476D02*
X94434819Y-119641904D01*
X94434819Y-119356190D02*
X93434819Y-119356190D01*
X93434819Y-119356190D02*
X93577676Y-119451428D01*
X93577676Y-119451428D02*
X93672914Y-119546666D01*
X93672914Y-119546666D02*
X93720533Y-119641904D01*
X93530057Y-118689523D02*
X93482438Y-118641904D01*
X93482438Y-118641904D02*
X93434819Y-118546666D01*
X93434819Y-118546666D02*
X93434819Y-118308571D01*
X93434819Y-118308571D02*
X93482438Y-118213333D01*
X93482438Y-118213333D02*
X93530057Y-118165714D01*
X93530057Y-118165714D02*
X93625295Y-118118095D01*
X93625295Y-118118095D02*
X93720533Y-118118095D01*
X93720533Y-118118095D02*
X93863390Y-118165714D01*
X93863390Y-118165714D02*
X94434819Y-118737142D01*
X94434819Y-118737142D02*
X94434819Y-118118095D01*
X93204819Y-122155357D02*
X92728628Y-122488690D01*
X93204819Y-122726785D02*
X92204819Y-122726785D01*
X92204819Y-122726785D02*
X92204819Y-122345833D01*
X92204819Y-122345833D02*
X92252438Y-122250595D01*
X92252438Y-122250595D02*
X92300057Y-122202976D01*
X92300057Y-122202976D02*
X92395295Y-122155357D01*
X92395295Y-122155357D02*
X92538152Y-122155357D01*
X92538152Y-122155357D02*
X92633390Y-122202976D01*
X92633390Y-122202976D02*
X92681009Y-122250595D01*
X92681009Y-122250595D02*
X92728628Y-122345833D01*
X92728628Y-122345833D02*
X92728628Y-122726785D01*
X93204819Y-121202976D02*
X93204819Y-121774404D01*
X93204819Y-121488690D02*
X92204819Y-121488690D01*
X92204819Y-121488690D02*
X92347676Y-121583928D01*
X92347676Y-121583928D02*
X92442914Y-121679166D01*
X92442914Y-121679166D02*
X92490533Y-121774404D01*
X92204819Y-120583928D02*
X92204819Y-120488690D01*
X92204819Y-120488690D02*
X92252438Y-120393452D01*
X92252438Y-120393452D02*
X92300057Y-120345833D01*
X92300057Y-120345833D02*
X92395295Y-120298214D01*
X92395295Y-120298214D02*
X92585771Y-120250595D01*
X92585771Y-120250595D02*
X92823866Y-120250595D01*
X92823866Y-120250595D02*
X93014342Y-120298214D01*
X93014342Y-120298214D02*
X93109580Y-120345833D01*
X93109580Y-120345833D02*
X93157200Y-120393452D01*
X93157200Y-120393452D02*
X93204819Y-120488690D01*
X93204819Y-120488690D02*
X93204819Y-120583928D01*
X93204819Y-120583928D02*
X93157200Y-120679166D01*
X93157200Y-120679166D02*
X93109580Y-120726785D01*
X93109580Y-120726785D02*
X93014342Y-120774404D01*
X93014342Y-120774404D02*
X92823866Y-120822023D01*
X92823866Y-120822023D02*
X92585771Y-120822023D01*
X92585771Y-120822023D02*
X92395295Y-120774404D01*
X92395295Y-120774404D02*
X92300057Y-120726785D01*
X92300057Y-120726785D02*
X92252438Y-120679166D01*
X92252438Y-120679166D02*
X92204819Y-120583928D01*
X98724819Y-121679166D02*
X98248628Y-122012499D01*
X98724819Y-122250594D02*
X97724819Y-122250594D01*
X97724819Y-122250594D02*
X97724819Y-121869642D01*
X97724819Y-121869642D02*
X97772438Y-121774404D01*
X97772438Y-121774404D02*
X97820057Y-121726785D01*
X97820057Y-121726785D02*
X97915295Y-121679166D01*
X97915295Y-121679166D02*
X98058152Y-121679166D01*
X98058152Y-121679166D02*
X98153390Y-121726785D01*
X98153390Y-121726785D02*
X98201009Y-121774404D01*
X98201009Y-121774404D02*
X98248628Y-121869642D01*
X98248628Y-121869642D02*
X98248628Y-122250594D01*
X98724819Y-121202975D02*
X98724819Y-121012499D01*
X98724819Y-121012499D02*
X98677200Y-120917261D01*
X98677200Y-120917261D02*
X98629580Y-120869642D01*
X98629580Y-120869642D02*
X98486723Y-120774404D01*
X98486723Y-120774404D02*
X98296247Y-120726785D01*
X98296247Y-120726785D02*
X97915295Y-120726785D01*
X97915295Y-120726785D02*
X97820057Y-120774404D01*
X97820057Y-120774404D02*
X97772438Y-120822023D01*
X97772438Y-120822023D02*
X97724819Y-120917261D01*
X97724819Y-120917261D02*
X97724819Y-121107737D01*
X97724819Y-121107737D02*
X97772438Y-121202975D01*
X97772438Y-121202975D02*
X97820057Y-121250594D01*
X97820057Y-121250594D02*
X97915295Y-121298213D01*
X97915295Y-121298213D02*
X98153390Y-121298213D01*
X98153390Y-121298213D02*
X98248628Y-121250594D01*
X98248628Y-121250594D02*
X98296247Y-121202975D01*
X98296247Y-121202975D02*
X98343866Y-121107737D01*
X98343866Y-121107737D02*
X98343866Y-120917261D01*
X98343866Y-120917261D02*
X98296247Y-120822023D01*
X98296247Y-120822023D02*
X98248628Y-120774404D01*
X98248628Y-120774404D02*
X98153390Y-120726785D01*
X96214819Y-121679166D02*
X95738628Y-122012499D01*
X96214819Y-122250594D02*
X95214819Y-122250594D01*
X95214819Y-122250594D02*
X95214819Y-121869642D01*
X95214819Y-121869642D02*
X95262438Y-121774404D01*
X95262438Y-121774404D02*
X95310057Y-121726785D01*
X95310057Y-121726785D02*
X95405295Y-121679166D01*
X95405295Y-121679166D02*
X95548152Y-121679166D01*
X95548152Y-121679166D02*
X95643390Y-121726785D01*
X95643390Y-121726785D02*
X95691009Y-121774404D01*
X95691009Y-121774404D02*
X95738628Y-121869642D01*
X95738628Y-121869642D02*
X95738628Y-122250594D01*
X95643390Y-121107737D02*
X95595771Y-121202975D01*
X95595771Y-121202975D02*
X95548152Y-121250594D01*
X95548152Y-121250594D02*
X95452914Y-121298213D01*
X95452914Y-121298213D02*
X95405295Y-121298213D01*
X95405295Y-121298213D02*
X95310057Y-121250594D01*
X95310057Y-121250594D02*
X95262438Y-121202975D01*
X95262438Y-121202975D02*
X95214819Y-121107737D01*
X95214819Y-121107737D02*
X95214819Y-120917261D01*
X95214819Y-120917261D02*
X95262438Y-120822023D01*
X95262438Y-120822023D02*
X95310057Y-120774404D01*
X95310057Y-120774404D02*
X95405295Y-120726785D01*
X95405295Y-120726785D02*
X95452914Y-120726785D01*
X95452914Y-120726785D02*
X95548152Y-120774404D01*
X95548152Y-120774404D02*
X95595771Y-120822023D01*
X95595771Y-120822023D02*
X95643390Y-120917261D01*
X95643390Y-120917261D02*
X95643390Y-121107737D01*
X95643390Y-121107737D02*
X95691009Y-121202975D01*
X95691009Y-121202975D02*
X95738628Y-121250594D01*
X95738628Y-121250594D02*
X95833866Y-121298213D01*
X95833866Y-121298213D02*
X96024342Y-121298213D01*
X96024342Y-121298213D02*
X96119580Y-121250594D01*
X96119580Y-121250594D02*
X96167200Y-121202975D01*
X96167200Y-121202975D02*
X96214819Y-121107737D01*
X96214819Y-121107737D02*
X96214819Y-120917261D01*
X96214819Y-120917261D02*
X96167200Y-120822023D01*
X96167200Y-120822023D02*
X96119580Y-120774404D01*
X96119580Y-120774404D02*
X96024342Y-120726785D01*
X96024342Y-120726785D02*
X95833866Y-120726785D01*
X95833866Y-120726785D02*
X95738628Y-120774404D01*
X95738628Y-120774404D02*
X95691009Y-120822023D01*
X95691009Y-120822023D02*
X95643390Y-120917261D01*
X91934819Y-115061904D02*
X92744342Y-115061904D01*
X92744342Y-115061904D02*
X92839580Y-115014285D01*
X92839580Y-115014285D02*
X92887200Y-114966666D01*
X92887200Y-114966666D02*
X92934819Y-114871428D01*
X92934819Y-114871428D02*
X92934819Y-114680952D01*
X92934819Y-114680952D02*
X92887200Y-114585714D01*
X92887200Y-114585714D02*
X92839580Y-114538095D01*
X92839580Y-114538095D02*
X92744342Y-114490476D01*
X92744342Y-114490476D02*
X91934819Y-114490476D01*
X91934819Y-113585714D02*
X91934819Y-113776190D01*
X91934819Y-113776190D02*
X91982438Y-113871428D01*
X91982438Y-113871428D02*
X92030057Y-113919047D01*
X92030057Y-113919047D02*
X92172914Y-114014285D01*
X92172914Y-114014285D02*
X92363390Y-114061904D01*
X92363390Y-114061904D02*
X92744342Y-114061904D01*
X92744342Y-114061904D02*
X92839580Y-114014285D01*
X92839580Y-114014285D02*
X92887200Y-113966666D01*
X92887200Y-113966666D02*
X92934819Y-113871428D01*
X92934819Y-113871428D02*
X92934819Y-113680952D01*
X92934819Y-113680952D02*
X92887200Y-113585714D01*
X92887200Y-113585714D02*
X92839580Y-113538095D01*
X92839580Y-113538095D02*
X92744342Y-113490476D01*
X92744342Y-113490476D02*
X92506247Y-113490476D01*
X92506247Y-113490476D02*
X92411009Y-113538095D01*
X92411009Y-113538095D02*
X92363390Y-113585714D01*
X92363390Y-113585714D02*
X92315771Y-113680952D01*
X92315771Y-113680952D02*
X92315771Y-113871428D01*
X92315771Y-113871428D02*
X92363390Y-113966666D01*
X92363390Y-113966666D02*
X92411009Y-114014285D01*
X92411009Y-114014285D02*
X92506247Y-114061904D01*
X78539820Y-148659430D02*
X78539820Y-149468953D01*
X78539820Y-149468953D02*
X78587439Y-149564191D01*
X78587439Y-149564191D02*
X78635058Y-149611811D01*
X78635058Y-149611811D02*
X78730296Y-149659430D01*
X78730296Y-149659430D02*
X78920772Y-149659430D01*
X78920772Y-149659430D02*
X79016010Y-149611811D01*
X79016010Y-149611811D02*
X79063629Y-149564191D01*
X79063629Y-149564191D02*
X79111248Y-149468953D01*
X79111248Y-149468953D02*
X79111248Y-148659430D01*
X80063629Y-148659430D02*
X79587439Y-148659430D01*
X79587439Y-148659430D02*
X79539820Y-149135620D01*
X79539820Y-149135620D02*
X79587439Y-149088001D01*
X79587439Y-149088001D02*
X79682677Y-149040382D01*
X79682677Y-149040382D02*
X79920772Y-149040382D01*
X79920772Y-149040382D02*
X80016010Y-149088001D01*
X80016010Y-149088001D02*
X80063629Y-149135620D01*
X80063629Y-149135620D02*
X80111248Y-149230858D01*
X80111248Y-149230858D02*
X80111248Y-149468953D01*
X80111248Y-149468953D02*
X80063629Y-149564191D01*
X80063629Y-149564191D02*
X80016010Y-149611811D01*
X80016010Y-149611811D02*
X79920772Y-149659430D01*
X79920772Y-149659430D02*
X79682677Y-149659430D01*
X79682677Y-149659430D02*
X79587439Y-149611811D01*
X79587439Y-149611811D02*
X79539820Y-149564191D01*
X92487958Y-151043594D02*
X93297481Y-151043594D01*
X93297481Y-151043594D02*
X93392719Y-150995975D01*
X93392719Y-150995975D02*
X93440339Y-150948356D01*
X93440339Y-150948356D02*
X93487958Y-150853118D01*
X93487958Y-150853118D02*
X93487958Y-150662642D01*
X93487958Y-150662642D02*
X93440339Y-150567404D01*
X93440339Y-150567404D02*
X93392719Y-150519785D01*
X93392719Y-150519785D02*
X93297481Y-150472166D01*
X93297481Y-150472166D02*
X92487958Y-150472166D01*
X92821291Y-149567404D02*
X93487958Y-149567404D01*
X92440339Y-149805499D02*
X93154624Y-150043594D01*
X93154624Y-150043594D02*
X93154624Y-149424547D01*
X149908095Y-106864819D02*
X149908095Y-107674342D01*
X149908095Y-107674342D02*
X149955714Y-107769580D01*
X149955714Y-107769580D02*
X150003333Y-107817200D01*
X150003333Y-107817200D02*
X150098571Y-107864819D01*
X150098571Y-107864819D02*
X150289047Y-107864819D01*
X150289047Y-107864819D02*
X150384285Y-107817200D01*
X150384285Y-107817200D02*
X150431904Y-107769580D01*
X150431904Y-107769580D02*
X150479523Y-107674342D01*
X150479523Y-107674342D02*
X150479523Y-106864819D01*
X150860476Y-106864819D02*
X151479523Y-106864819D01*
X151479523Y-106864819D02*
X151146190Y-107245771D01*
X151146190Y-107245771D02*
X151289047Y-107245771D01*
X151289047Y-107245771D02*
X151384285Y-107293390D01*
X151384285Y-107293390D02*
X151431904Y-107341009D01*
X151431904Y-107341009D02*
X151479523Y-107436247D01*
X151479523Y-107436247D02*
X151479523Y-107674342D01*
X151479523Y-107674342D02*
X151431904Y-107769580D01*
X151431904Y-107769580D02*
X151384285Y-107817200D01*
X151384285Y-107817200D02*
X151289047Y-107864819D01*
X151289047Y-107864819D02*
X151003333Y-107864819D01*
X151003333Y-107864819D02*
X150908095Y-107817200D01*
X150908095Y-107817200D02*
X150860476Y-107769580D01*
X71044819Y-135381904D02*
X71854342Y-135381904D01*
X71854342Y-135381904D02*
X71949580Y-135334285D01*
X71949580Y-135334285D02*
X71997200Y-135286666D01*
X71997200Y-135286666D02*
X72044819Y-135191428D01*
X72044819Y-135191428D02*
X72044819Y-135000952D01*
X72044819Y-135000952D02*
X71997200Y-134905714D01*
X71997200Y-134905714D02*
X71949580Y-134858095D01*
X71949580Y-134858095D02*
X71854342Y-134810476D01*
X71854342Y-134810476D02*
X71044819Y-134810476D01*
X72044819Y-133810476D02*
X72044819Y-134381904D01*
X72044819Y-134096190D02*
X71044819Y-134096190D01*
X71044819Y-134096190D02*
X71187676Y-134191428D01*
X71187676Y-134191428D02*
X71282914Y-134286666D01*
X71282914Y-134286666D02*
X71330533Y-134381904D01*
X124077142Y-118404819D02*
X123743809Y-117928628D01*
X123505714Y-118404819D02*
X123505714Y-117404819D01*
X123505714Y-117404819D02*
X123886666Y-117404819D01*
X123886666Y-117404819D02*
X123981904Y-117452438D01*
X123981904Y-117452438D02*
X124029523Y-117500057D01*
X124029523Y-117500057D02*
X124077142Y-117595295D01*
X124077142Y-117595295D02*
X124077142Y-117738152D01*
X124077142Y-117738152D02*
X124029523Y-117833390D01*
X124029523Y-117833390D02*
X123981904Y-117881009D01*
X123981904Y-117881009D02*
X123886666Y-117928628D01*
X123886666Y-117928628D02*
X123505714Y-117928628D01*
X125029523Y-118404819D02*
X124458095Y-118404819D01*
X124743809Y-118404819D02*
X124743809Y-117404819D01*
X124743809Y-117404819D02*
X124648571Y-117547676D01*
X124648571Y-117547676D02*
X124553333Y-117642914D01*
X124553333Y-117642914D02*
X124458095Y-117690533D01*
X125362857Y-117404819D02*
X125981904Y-117404819D01*
X125981904Y-117404819D02*
X125648571Y-117785771D01*
X125648571Y-117785771D02*
X125791428Y-117785771D01*
X125791428Y-117785771D02*
X125886666Y-117833390D01*
X125886666Y-117833390D02*
X125934285Y-117881009D01*
X125934285Y-117881009D02*
X125981904Y-117976247D01*
X125981904Y-117976247D02*
X125981904Y-118214342D01*
X125981904Y-118214342D02*
X125934285Y-118309580D01*
X125934285Y-118309580D02*
X125886666Y-118357200D01*
X125886666Y-118357200D02*
X125791428Y-118404819D01*
X125791428Y-118404819D02*
X125505714Y-118404819D01*
X125505714Y-118404819D02*
X125410476Y-118357200D01*
X125410476Y-118357200D02*
X125362857Y-118309580D01*
X127081352Y-126062109D02*
X126748019Y-125585918D01*
X126509924Y-126062109D02*
X126509924Y-125062109D01*
X126509924Y-125062109D02*
X126890876Y-125062109D01*
X126890876Y-125062109D02*
X126986114Y-125109728D01*
X126986114Y-125109728D02*
X127033733Y-125157347D01*
X127033733Y-125157347D02*
X127081352Y-125252585D01*
X127081352Y-125252585D02*
X127081352Y-125395442D01*
X127081352Y-125395442D02*
X127033733Y-125490680D01*
X127033733Y-125490680D02*
X126986114Y-125538299D01*
X126986114Y-125538299D02*
X126890876Y-125585918D01*
X126890876Y-125585918D02*
X126509924Y-125585918D01*
X127414686Y-125062109D02*
X128081352Y-125062109D01*
X128081352Y-125062109D02*
X127652781Y-126062109D01*
X75804819Y-147257105D02*
X75328628Y-147590438D01*
X75804819Y-147828533D02*
X74804819Y-147828533D01*
X74804819Y-147828533D02*
X74804819Y-147447581D01*
X74804819Y-147447581D02*
X74852438Y-147352343D01*
X74852438Y-147352343D02*
X74900057Y-147304724D01*
X74900057Y-147304724D02*
X74995295Y-147257105D01*
X74995295Y-147257105D02*
X75138152Y-147257105D01*
X75138152Y-147257105D02*
X75233390Y-147304724D01*
X75233390Y-147304724D02*
X75281009Y-147352343D01*
X75281009Y-147352343D02*
X75328628Y-147447581D01*
X75328628Y-147447581D02*
X75328628Y-147828533D01*
X74804819Y-146399962D02*
X74804819Y-146590438D01*
X74804819Y-146590438D02*
X74852438Y-146685676D01*
X74852438Y-146685676D02*
X74900057Y-146733295D01*
X74900057Y-146733295D02*
X75042914Y-146828533D01*
X75042914Y-146828533D02*
X75233390Y-146876152D01*
X75233390Y-146876152D02*
X75614342Y-146876152D01*
X75614342Y-146876152D02*
X75709580Y-146828533D01*
X75709580Y-146828533D02*
X75757200Y-146780914D01*
X75757200Y-146780914D02*
X75804819Y-146685676D01*
X75804819Y-146685676D02*
X75804819Y-146495200D01*
X75804819Y-146495200D02*
X75757200Y-146399962D01*
X75757200Y-146399962D02*
X75709580Y-146352343D01*
X75709580Y-146352343D02*
X75614342Y-146304724D01*
X75614342Y-146304724D02*
X75376247Y-146304724D01*
X75376247Y-146304724D02*
X75281009Y-146352343D01*
X75281009Y-146352343D02*
X75233390Y-146399962D01*
X75233390Y-146399962D02*
X75185771Y-146495200D01*
X75185771Y-146495200D02*
X75185771Y-146685676D01*
X75185771Y-146685676D02*
X75233390Y-146780914D01*
X75233390Y-146780914D02*
X75281009Y-146828533D01*
X75281009Y-146828533D02*
X75376247Y-146876152D01*
X74581958Y-149988870D02*
X74248625Y-149512679D01*
X74010530Y-149988870D02*
X74010530Y-148988870D01*
X74010530Y-148988870D02*
X74391482Y-148988870D01*
X74391482Y-148988870D02*
X74486720Y-149036489D01*
X74486720Y-149036489D02*
X74534339Y-149084108D01*
X74534339Y-149084108D02*
X74581958Y-149179346D01*
X74581958Y-149179346D02*
X74581958Y-149322203D01*
X74581958Y-149322203D02*
X74534339Y-149417441D01*
X74534339Y-149417441D02*
X74486720Y-149465060D01*
X74486720Y-149465060D02*
X74391482Y-149512679D01*
X74391482Y-149512679D02*
X74010530Y-149512679D01*
X75439101Y-149322203D02*
X75439101Y-149988870D01*
X75201006Y-148941251D02*
X74962911Y-149655536D01*
X74962911Y-149655536D02*
X75581958Y-149655536D01*
X82336295Y-153650236D02*
X81860104Y-153983569D01*
X82336295Y-154221664D02*
X81336295Y-154221664D01*
X81336295Y-154221664D02*
X81336295Y-153840712D01*
X81336295Y-153840712D02*
X81383914Y-153745474D01*
X81383914Y-153745474D02*
X81431533Y-153697855D01*
X81431533Y-153697855D02*
X81526771Y-153650236D01*
X81526771Y-153650236D02*
X81669628Y-153650236D01*
X81669628Y-153650236D02*
X81764866Y-153697855D01*
X81764866Y-153697855D02*
X81812485Y-153745474D01*
X81812485Y-153745474D02*
X81860104Y-153840712D01*
X81860104Y-153840712D02*
X81860104Y-154221664D01*
X81336295Y-153316902D02*
X81336295Y-152697855D01*
X81336295Y-152697855D02*
X81717247Y-153031188D01*
X81717247Y-153031188D02*
X81717247Y-152888331D01*
X81717247Y-152888331D02*
X81764866Y-152793093D01*
X81764866Y-152793093D02*
X81812485Y-152745474D01*
X81812485Y-152745474D02*
X81907723Y-152697855D01*
X81907723Y-152697855D02*
X82145818Y-152697855D01*
X82145818Y-152697855D02*
X82241056Y-152745474D01*
X82241056Y-152745474D02*
X82288676Y-152793093D01*
X82288676Y-152793093D02*
X82336295Y-152888331D01*
X82336295Y-152888331D02*
X82336295Y-153174045D01*
X82336295Y-153174045D02*
X82288676Y-153269283D01*
X82288676Y-153269283D02*
X82241056Y-153316902D01*
X85756782Y-147990106D02*
X85423449Y-147513915D01*
X85185354Y-147990106D02*
X85185354Y-146990106D01*
X85185354Y-146990106D02*
X85566306Y-146990106D01*
X85566306Y-146990106D02*
X85661544Y-147037725D01*
X85661544Y-147037725D02*
X85709163Y-147085344D01*
X85709163Y-147085344D02*
X85756782Y-147180582D01*
X85756782Y-147180582D02*
X85756782Y-147323439D01*
X85756782Y-147323439D02*
X85709163Y-147418677D01*
X85709163Y-147418677D02*
X85661544Y-147466296D01*
X85661544Y-147466296D02*
X85566306Y-147513915D01*
X85566306Y-147513915D02*
X85185354Y-147513915D01*
X86137735Y-147085344D02*
X86185354Y-147037725D01*
X86185354Y-147037725D02*
X86280592Y-146990106D01*
X86280592Y-146990106D02*
X86518687Y-146990106D01*
X86518687Y-146990106D02*
X86613925Y-147037725D01*
X86613925Y-147037725D02*
X86661544Y-147085344D01*
X86661544Y-147085344D02*
X86709163Y-147180582D01*
X86709163Y-147180582D02*
X86709163Y-147275820D01*
X86709163Y-147275820D02*
X86661544Y-147418677D01*
X86661544Y-147418677D02*
X86090116Y-147990106D01*
X86090116Y-147990106D02*
X86709163Y-147990106D01*
X88733333Y-150314819D02*
X88400000Y-149838628D01*
X88161905Y-150314819D02*
X88161905Y-149314819D01*
X88161905Y-149314819D02*
X88542857Y-149314819D01*
X88542857Y-149314819D02*
X88638095Y-149362438D01*
X88638095Y-149362438D02*
X88685714Y-149410057D01*
X88685714Y-149410057D02*
X88733333Y-149505295D01*
X88733333Y-149505295D02*
X88733333Y-149648152D01*
X88733333Y-149648152D02*
X88685714Y-149743390D01*
X88685714Y-149743390D02*
X88638095Y-149791009D01*
X88638095Y-149791009D02*
X88542857Y-149838628D01*
X88542857Y-149838628D02*
X88161905Y-149838628D01*
X89685714Y-150314819D02*
X89114286Y-150314819D01*
X89400000Y-150314819D02*
X89400000Y-149314819D01*
X89400000Y-149314819D02*
X89304762Y-149457676D01*
X89304762Y-149457676D02*
X89209524Y-149552914D01*
X89209524Y-149552914D02*
X89114286Y-149600533D01*
X131110057Y-148685238D02*
X131062438Y-148780476D01*
X131062438Y-148780476D02*
X130967200Y-148875714D01*
X130967200Y-148875714D02*
X130824342Y-149018571D01*
X130824342Y-149018571D02*
X130776723Y-149113809D01*
X130776723Y-149113809D02*
X130776723Y-149209047D01*
X131014819Y-149161428D02*
X130967200Y-149256666D01*
X130967200Y-149256666D02*
X130871961Y-149351904D01*
X130871961Y-149351904D02*
X130681485Y-149399523D01*
X130681485Y-149399523D02*
X130348152Y-149399523D01*
X130348152Y-149399523D02*
X130157676Y-149351904D01*
X130157676Y-149351904D02*
X130062438Y-149256666D01*
X130062438Y-149256666D02*
X130014819Y-149161428D01*
X130014819Y-149161428D02*
X130014819Y-148970952D01*
X130014819Y-148970952D02*
X130062438Y-148875714D01*
X130062438Y-148875714D02*
X130157676Y-148780476D01*
X130157676Y-148780476D02*
X130348152Y-148732857D01*
X130348152Y-148732857D02*
X130681485Y-148732857D01*
X130681485Y-148732857D02*
X130871961Y-148780476D01*
X130871961Y-148780476D02*
X130967200Y-148875714D01*
X130967200Y-148875714D02*
X131014819Y-148970952D01*
X131014819Y-148970952D02*
X131014819Y-149161428D01*
X131014819Y-147780476D02*
X131014819Y-148351904D01*
X131014819Y-148066190D02*
X130014819Y-148066190D01*
X130014819Y-148066190D02*
X130157676Y-148161428D01*
X130157676Y-148161428D02*
X130252914Y-148256666D01*
X130252914Y-148256666D02*
X130300533Y-148351904D01*
X77584420Y-154678123D02*
X78298705Y-154678123D01*
X78298705Y-154678123D02*
X78441562Y-154725742D01*
X78441562Y-154725742D02*
X78536801Y-154820980D01*
X78536801Y-154820980D02*
X78584420Y-154963837D01*
X78584420Y-154963837D02*
X78584420Y-155059075D01*
X78584420Y-153678123D02*
X78584420Y-154249551D01*
X78584420Y-153963837D02*
X77584420Y-153963837D01*
X77584420Y-153963837D02*
X77727277Y-154059075D01*
X77727277Y-154059075D02*
X77822515Y-154154313D01*
X77822515Y-154154313D02*
X77870134Y-154249551D01*
X141761905Y-157864819D02*
X141761905Y-156864819D01*
X141761905Y-156864819D02*
X142000000Y-156864819D01*
X142000000Y-156864819D02*
X142142857Y-156912438D01*
X142142857Y-156912438D02*
X142238095Y-157007676D01*
X142238095Y-157007676D02*
X142285714Y-157102914D01*
X142285714Y-157102914D02*
X142333333Y-157293390D01*
X142333333Y-157293390D02*
X142333333Y-157436247D01*
X142333333Y-157436247D02*
X142285714Y-157626723D01*
X142285714Y-157626723D02*
X142238095Y-157721961D01*
X142238095Y-157721961D02*
X142142857Y-157817200D01*
X142142857Y-157817200D02*
X142000000Y-157864819D01*
X142000000Y-157864819D02*
X141761905Y-157864819D01*
X142714286Y-156960057D02*
X142761905Y-156912438D01*
X142761905Y-156912438D02*
X142857143Y-156864819D01*
X142857143Y-156864819D02*
X143095238Y-156864819D01*
X143095238Y-156864819D02*
X143190476Y-156912438D01*
X143190476Y-156912438D02*
X143238095Y-156960057D01*
X143238095Y-156960057D02*
X143285714Y-157055295D01*
X143285714Y-157055295D02*
X143285714Y-157150533D01*
X143285714Y-157150533D02*
X143238095Y-157293390D01*
X143238095Y-157293390D02*
X142666667Y-157864819D01*
X142666667Y-157864819D02*
X143285714Y-157864819D01*
X147318095Y-157494819D02*
X147318095Y-156494819D01*
X147889523Y-157494819D02*
X147460952Y-156923390D01*
X147889523Y-156494819D02*
X147318095Y-157066247D01*
X118872461Y-150106802D02*
X118824842Y-150154422D01*
X118824842Y-150154422D02*
X118681985Y-150202041D01*
X118681985Y-150202041D02*
X118586747Y-150202041D01*
X118586747Y-150202041D02*
X118443890Y-150154422D01*
X118443890Y-150154422D02*
X118348652Y-150059183D01*
X118348652Y-150059183D02*
X118301033Y-149963945D01*
X118301033Y-149963945D02*
X118253414Y-149773469D01*
X118253414Y-149773469D02*
X118253414Y-149630612D01*
X118253414Y-149630612D02*
X118301033Y-149440136D01*
X118301033Y-149440136D02*
X118348652Y-149344898D01*
X118348652Y-149344898D02*
X118443890Y-149249660D01*
X118443890Y-149249660D02*
X118586747Y-149202041D01*
X118586747Y-149202041D02*
X118681985Y-149202041D01*
X118681985Y-149202041D02*
X118824842Y-149249660D01*
X118824842Y-149249660D02*
X118872461Y-149297279D01*
X119253414Y-149297279D02*
X119301033Y-149249660D01*
X119301033Y-149249660D02*
X119396271Y-149202041D01*
X119396271Y-149202041D02*
X119634366Y-149202041D01*
X119634366Y-149202041D02*
X119729604Y-149249660D01*
X119729604Y-149249660D02*
X119777223Y-149297279D01*
X119777223Y-149297279D02*
X119824842Y-149392517D01*
X119824842Y-149392517D02*
X119824842Y-149487755D01*
X119824842Y-149487755D02*
X119777223Y-149630612D01*
X119777223Y-149630612D02*
X119205795Y-150202041D01*
X119205795Y-150202041D02*
X119824842Y-150202041D01*
X118840194Y-145081915D02*
X118792575Y-145129535D01*
X118792575Y-145129535D02*
X118649718Y-145177154D01*
X118649718Y-145177154D02*
X118554480Y-145177154D01*
X118554480Y-145177154D02*
X118411623Y-145129535D01*
X118411623Y-145129535D02*
X118316385Y-145034296D01*
X118316385Y-145034296D02*
X118268766Y-144939058D01*
X118268766Y-144939058D02*
X118221147Y-144748582D01*
X118221147Y-144748582D02*
X118221147Y-144605725D01*
X118221147Y-144605725D02*
X118268766Y-144415249D01*
X118268766Y-144415249D02*
X118316385Y-144320011D01*
X118316385Y-144320011D02*
X118411623Y-144224773D01*
X118411623Y-144224773D02*
X118554480Y-144177154D01*
X118554480Y-144177154D02*
X118649718Y-144177154D01*
X118649718Y-144177154D02*
X118792575Y-144224773D01*
X118792575Y-144224773D02*
X118840194Y-144272392D01*
X119792575Y-145177154D02*
X119221147Y-145177154D01*
X119506861Y-145177154D02*
X119506861Y-144177154D01*
X119506861Y-144177154D02*
X119411623Y-144320011D01*
X119411623Y-144320011D02*
X119316385Y-144415249D01*
X119316385Y-144415249D02*
X119221147Y-144462868D01*
D11*
%TO.C,J4*%
X72330000Y-160020000D02*
X72330000Y-158690000D01*
X72330000Y-161290000D02*
X72330000Y-161350000D01*
X74990000Y-161290000D02*
X74990000Y-161350000D01*
X72330000Y-161350000D02*
X74990000Y-161350000D01*
X72330000Y-161290000D02*
X74990000Y-161290000D01*
X72330000Y-158690000D02*
X73660000Y-158690000D01*
%TO.C,J3*%
X67250000Y-160020000D02*
X67250000Y-158690000D01*
X67250000Y-161290000D02*
X67250000Y-161350000D01*
X69910000Y-161290000D02*
X69910000Y-161350000D01*
X67250000Y-161350000D02*
X69910000Y-161350000D01*
X67250000Y-161290000D02*
X69910000Y-161290000D01*
X67250000Y-158690000D02*
X68580000Y-158690000D01*
%TO.C,J2*%
X140680000Y-116680000D02*
X134680000Y-116680000D01*
X134680000Y-113920000D02*
X140680000Y-113920000D01*
X146050000Y-118110000D02*
X144780000Y-118110000D01*
X140680000Y-116920000D02*
X134680000Y-116920000D01*
X140680000Y-117220000D02*
X134680000Y-117220000D01*
X134680000Y-116460000D02*
X140680000Y-116460000D01*
X140680000Y-118170000D02*
X143340000Y-118170000D01*
X143340000Y-118170000D02*
X143340000Y-112970000D01*
X140680000Y-117040000D02*
X134680000Y-117040000D01*
X134680000Y-117220000D02*
X134680000Y-116460000D01*
X140680000Y-116560000D02*
X134680000Y-116560000D01*
X140680000Y-117160000D02*
X134680000Y-117160000D01*
X146050000Y-116840000D02*
X146050000Y-118110000D01*
X143340000Y-115570000D02*
X140680000Y-115570000D01*
X140680000Y-116800000D02*
X134680000Y-116800000D01*
X143340000Y-112970000D02*
X140680000Y-112970000D01*
X143670000Y-116460000D02*
X143340000Y-116460000D01*
X140680000Y-112970000D02*
X140680000Y-118170000D01*
X140680000Y-114680000D02*
X134680000Y-114680000D01*
X143737071Y-113920000D02*
X143340000Y-113920000D01*
X143670000Y-117220000D02*
X143340000Y-117220000D01*
X134680000Y-114680000D02*
X134680000Y-113920000D01*
X143737071Y-114680000D02*
X143340000Y-114680000D01*
%TO.C,Y1*%
X109813918Y-146669144D02*
X109813918Y-152919144D01*
X114863918Y-146669144D02*
X114863918Y-152919144D01*
X114863918Y-146669144D02*
G75*
G03*
X109813918Y-146669144I-2525000J0D01*
G01*
X109813918Y-152919144D02*
G75*
G03*
X114863918Y-152919144I2525000J0D01*
G01*
%TO.C,R5*%
X97487656Y-153307924D02*
X97962172Y-153307924D01*
X97487656Y-154352924D02*
X97962172Y-154352924D01*
%TO.C,RV1*%
X107060000Y-116430000D02*
X111900000Y-116430000D01*
X107060000Y-111390000D02*
X107060000Y-112670000D01*
X107060000Y-111770000D02*
X107060000Y-111770000D01*
X107060000Y-111390000D02*
X111900000Y-111390000D01*
X107060000Y-111770000D02*
X107060000Y-112670000D01*
X111900000Y-111390000D02*
X111900000Y-111870000D01*
X107060000Y-111770000D02*
X107060000Y-112670000D01*
X107060000Y-115150000D02*
X107060000Y-116430000D01*
X111900000Y-113650000D02*
X111900000Y-114170000D01*
X111900000Y-115950000D02*
X111900000Y-116430000D01*
%TO.C,D1*%
X133097556Y-126963510D02*
X133097556Y-124503510D01*
X131627556Y-124503510D02*
X131627556Y-126963510D01*
X133097556Y-124503510D02*
X131627556Y-124503510D01*
D10*
%TO.C,U6*%
X100155000Y-111975000D02*
X100130000Y-111975000D01*
X93330000Y-117700000D02*
X93330000Y-111975000D01*
X100155000Y-116625000D02*
X100130000Y-116625000D01*
X100155000Y-116625000D02*
X100155000Y-111975000D01*
X93330000Y-111975000D02*
X93430000Y-111975000D01*
D11*
%TO.C,U5*%
X79301725Y-145244611D02*
X78501725Y-145244611D01*
X79301725Y-148364611D02*
X78501725Y-148364611D01*
X79301725Y-148364611D02*
X81101725Y-148364611D01*
X79301725Y-145244611D02*
X80101725Y-145244611D01*
%TO.C,U4*%
X93933139Y-152441690D02*
X95933139Y-152441690D01*
X106473139Y-152161690D02*
X94223139Y-152161690D01*
X93933139Y-152441690D02*
X93933139Y-150831690D01*
X94213139Y-152151690D02*
X94213139Y-146411690D01*
X94213139Y-146401690D02*
X106473139Y-146401690D01*
X106473139Y-146401690D02*
X106473139Y-152161690D01*
%TO.C,U3*%
X147840000Y-99500000D02*
X73840000Y-99500000D01*
X72840000Y-69500000D02*
X148840000Y-69500000D01*
X73840000Y-98500000D02*
X72840000Y-98500000D01*
X73840000Y-99500000D02*
X73840000Y-98500000D01*
X79840000Y-91500000D02*
X79840000Y-73500000D01*
X152760000Y-106180000D02*
X68480000Y-106180000D01*
X68480000Y-106180000D02*
X68480000Y-61900000D01*
X79840000Y-73500000D02*
X141840000Y-73500000D01*
X148840000Y-98500000D02*
X147840000Y-98500000D01*
X148840000Y-69500000D02*
X148840000Y-98500000D01*
X72840000Y-98500000D02*
X72840000Y-69500000D01*
X141840000Y-73500000D02*
X141840000Y-91500000D01*
X113340000Y-106500000D02*
X110340000Y-106500000D01*
X68480000Y-61900000D02*
X152760000Y-61900000D01*
X147840000Y-98500000D02*
X147840000Y-99500000D01*
X141840000Y-91500000D02*
X79840000Y-91500000D01*
X152760000Y-61900000D02*
X152760000Y-106180000D01*
%TO.C,U1*%
X123510000Y-128160000D02*
X72590000Y-128160000D01*
X123510000Y-141080000D02*
X123510000Y-128160000D01*
X72590000Y-141080000D02*
X123510000Y-141080000D01*
X72590000Y-128160000D02*
X72590000Y-133620000D01*
X72590000Y-135620000D02*
X72590000Y-141080000D01*
X72590000Y-135620000D02*
G75*
G03*
X72590000Y-133620000I0J1000000D01*
G01*
%TO.C,R13*%
X124482742Y-119902500D02*
X124957258Y-119902500D01*
X124482742Y-118857500D02*
X124957258Y-118857500D01*
%TO.C,R7*%
X127010761Y-127559790D02*
X127485277Y-127559790D01*
X127010761Y-126514790D02*
X127485277Y-126514790D01*
%TO.C,R6*%
X74442500Y-146853181D02*
X74442500Y-147327697D01*
X73397500Y-146853181D02*
X73397500Y-147327697D01*
%TO.C,R4*%
X74511367Y-150441551D02*
X74985883Y-150441551D01*
X74511367Y-151486551D02*
X74985883Y-151486551D01*
%TO.C,R3*%
X79928976Y-153246312D02*
X79928976Y-153720828D01*
X80973976Y-153246312D02*
X80973976Y-153720828D01*
%TO.C,R2*%
X85686191Y-149487787D02*
X86160707Y-149487787D01*
X85686191Y-148442787D02*
X86160707Y-148442787D01*
%TO.C,R1*%
X86106309Y-145972500D02*
X85631793Y-145972500D01*
X86106309Y-147017500D02*
X85631793Y-147017500D01*
%TO.C,Q1*%
X125150000Y-146790000D02*
X125150000Y-150390000D01*
X125161522Y-150428478D02*
G75*
G03*
X129600000Y-148590000I1838478J1838478D01*
G01*
X129600000Y-148590000D02*
G75*
G03*
X125161522Y-146751522I-2600000J0D01*
G01*
%TO.C,K1*%
X142007500Y-148567500D02*
X142707500Y-148567500D01*
X142707500Y-147367500D02*
X142007500Y-147367500D01*
X137257500Y-124917500D02*
X147557500Y-124917500D01*
X142707500Y-147767500D02*
X142007500Y-148167500D01*
X147557500Y-149217500D02*
X147557500Y-148877500D01*
X137257500Y-149217500D02*
X137257500Y-148077500D01*
X147807500Y-147127500D02*
X147807500Y-149467500D01*
X147557500Y-124917500D02*
X147557500Y-126057500D01*
X147557500Y-146257500D02*
X147557500Y-127077500D01*
X142707500Y-148567500D02*
X142707500Y-147367500D01*
X137257500Y-147057500D02*
X137257500Y-130577500D01*
X142007500Y-147367500D02*
X142007500Y-148567500D01*
X137257500Y-149217500D02*
X147557500Y-149217500D01*
X137267500Y-129517500D02*
X137257500Y-124917500D01*
X147807500Y-149467500D02*
X145407500Y-149467500D01*
%TO.C,J1*%
X73199601Y-154652320D02*
X73199601Y-155454790D01*
X75674601Y-153234790D02*
X73199601Y-153234790D01*
X77194601Y-153234790D02*
X77194601Y-154344790D01*
X76434601Y-153234790D02*
X77194601Y-153234790D01*
X75674601Y-153234790D02*
X75674601Y-153781319D01*
X75674601Y-155454790D02*
X73199601Y-155454790D01*
X75674601Y-154908261D02*
X75674601Y-155454790D01*
X73199601Y-153234790D02*
X73199601Y-154037260D01*
%TO.C,D2*%
X144320000Y-156410000D02*
X144320000Y-153470000D01*
X144200000Y-156410000D02*
X144200000Y-153470000D01*
X145220000Y-153470000D02*
X139780000Y-153470000D01*
X138760000Y-154940000D02*
X139780000Y-154940000D01*
X145220000Y-156410000D02*
X145220000Y-153470000D01*
X144440000Y-156410000D02*
X144440000Y-153470000D01*
X139780000Y-153470000D02*
X139780000Y-156410000D01*
X146240000Y-154940000D02*
X145220000Y-154940000D01*
X139780000Y-156410000D02*
X145220000Y-156410000D01*
%TO.C,C2*%
X117468565Y-151387222D02*
X118168565Y-150687222D01*
X116664128Y-151012222D02*
X117039128Y-151012222D01*
X120799128Y-150687222D02*
X120799128Y-151387222D01*
X118168565Y-150687222D02*
X120799128Y-150687222D01*
X117468565Y-153507222D02*
X118168565Y-154207222D01*
X116851628Y-150824722D02*
X116851628Y-151199722D01*
X120799128Y-154207222D02*
X120799128Y-153507222D01*
X118168565Y-154207222D02*
X120799128Y-154207222D01*
%TO.C,C1*%
X117436298Y-146362335D02*
X118136298Y-145662335D01*
X116631861Y-145987335D02*
X117006861Y-145987335D01*
X120766861Y-145662335D02*
X120766861Y-146362335D01*
X118136298Y-145662335D02*
X120766861Y-145662335D01*
X117436298Y-148482335D02*
X118136298Y-149182335D01*
X116819361Y-145799835D02*
X116819361Y-146174835D01*
X120766861Y-149182335D02*
X120766861Y-148482335D01*
X118136298Y-149182335D02*
X120766861Y-149182335D01*
%TD*%
M02*
