%TF.GenerationSoftware,KiCad,Pcbnew,7.0.7*%
%TF.CreationDate,2023-12-03T21:53:00-03:00*%
%TF.ProjectId,climatizador automatico,636c696d-6174-4697-9a61-646f72206175,rev?*%
%TF.SameCoordinates,Original*%
%TF.FileFunction,Copper,L2,Bot*%
%TF.FilePolarity,Positive*%
%FSLAX46Y46*%
G04 Gerber Fmt 4.6, Leading zero omitted, Abs format (unit mm)*
G04 Created by KiCad (PCBNEW 7.0.7) date 2023-12-03 21:53:00*
%MOMM*%
%LPD*%
G01*
G04 APERTURE LIST*
G04 Aperture macros list*
%AMRoundRect*
0 Rectangle with rounded corners*
0 $1 Rounding radius*
0 $2 $3 $4 $5 $6 $7 $8 $9 X,Y pos of 4 corners*
0 Add a 4 corners polygon primitive as box body*
4,1,4,$2,$3,$4,$5,$6,$7,$8,$9,$2,$3,0*
0 Add four circle primitives for the rounded corners*
1,1,$1+$1,$2,$3*
1,1,$1+$1,$4,$5*
1,1,$1+$1,$6,$7*
1,1,$1+$1,$8,$9*
0 Add four rect primitives between the rounded corners*
20,1,$1+$1,$2,$3,$4,$5,0*
20,1,$1+$1,$4,$5,$6,$7,0*
20,1,$1+$1,$6,$7,$8,$9,0*
20,1,$1+$1,$8,$9,$2,$3,0*%
G04 Aperture macros list end*
%TA.AperFunction,ComponentPad*%
%ADD10R,2.200000X2.200000*%
%TD*%
%TA.AperFunction,ComponentPad*%
%ADD11O,2.200000X2.200000*%
%TD*%
%TA.AperFunction,ComponentPad*%
%ADD12R,2.500000X2.500000*%
%TD*%
%TA.AperFunction,ComponentPad*%
%ADD13O,2.500000X2.500000*%
%TD*%
%TA.AperFunction,ComponentPad*%
%ADD14R,1.050000X1.500000*%
%TD*%
%TA.AperFunction,ComponentPad*%
%ADD15O,1.050000X1.500000*%
%TD*%
%TA.AperFunction,ComponentPad*%
%ADD16C,2.340000*%
%TD*%
%TA.AperFunction,ComponentPad*%
%ADD17RoundRect,0.249999X-1.550001X0.790001X-1.550001X-0.790001X1.550001X-0.790001X1.550001X0.790001X0*%
%TD*%
%TA.AperFunction,ComponentPad*%
%ADD18O,3.600000X2.080000*%
%TD*%
%TA.AperFunction,ComponentPad*%
%ADD19C,2.000000*%
%TD*%
%TA.AperFunction,ComponentPad*%
%ADD20C,6.500000*%
%TD*%
%TA.AperFunction,ComponentPad*%
%ADD21R,1.500000X3.000000*%
%TD*%
%TA.AperFunction,ComponentPad*%
%ADD22O,1.500000X3.000000*%
%TD*%
%TA.AperFunction,ComponentPad*%
%ADD23R,2.000000X2.000000*%
%TD*%
%TA.AperFunction,ComponentPad*%
%ADD24R,1.905000X2.000000*%
%TD*%
%TA.AperFunction,ComponentPad*%
%ADD25O,1.905000X2.000000*%
%TD*%
%TA.AperFunction,ComponentPad*%
%ADD26R,1.500000X1.500000*%
%TD*%
%TA.AperFunction,ComponentPad*%
%ADD27C,1.500000*%
%TD*%
%TA.AperFunction,ComponentPad*%
%ADD28RoundRect,0.249999X1.550001X-0.790001X1.550001X0.790001X-1.550001X0.790001X-1.550001X-0.790001X0*%
%TD*%
%TA.AperFunction,ViaPad*%
%ADD29C,0.800000*%
%TD*%
%TA.AperFunction,Conductor*%
%ADD30C,0.250000*%
%TD*%
G04 APERTURE END LIST*
D10*
%TO.P,D2,1,K*%
%TO.N,+12V*%
X149040900Y-125116900D03*
D11*
%TO.P,D2,2,A*%
%TO.N,GND*%
X159200900Y-125116900D03*
%TD*%
D12*
%TO.P,K1,1*%
%TO.N,Net-(Q4-E)*%
X135743400Y-98199400D03*
D13*
%TO.P,K1,3*%
%TO.N,+12V*%
X135743400Y-119199400D03*
%TO.P,K1,5*%
%TO.N,Net-(J2-Pin_1)*%
X143243400Y-115699400D03*
%TO.P,K1,6*%
%TO.N,GND*%
X143243400Y-98199400D03*
%TD*%
D12*
%TO.P,K5,1*%
%TO.N,Net-(Q3-E)*%
X163530900Y-98199400D03*
D13*
%TO.P,K5,3*%
%TO.N,+12V*%
X163530900Y-119199400D03*
%TO.P,K5,5*%
%TO.N,Net-(J2-Pin_5)*%
X171030900Y-115699400D03*
%TO.P,K5,6*%
%TO.N,GND*%
X171030900Y-98199400D03*
%TD*%
D14*
%TO.P,Q3,1,C*%
%TO.N,Net-(Q2-C)*%
X177533400Y-103839400D03*
D15*
%TO.P,Q3,2,B*%
%TO.N,Net-(Q3-B)*%
X178803400Y-103839400D03*
%TO.P,Q3,3,E*%
%TO.N,Net-(Q3-E)*%
X180073400Y-103839400D03*
%TD*%
D16*
%TO.P,RV1,1,1*%
%TO.N,Net-(Q2-C)*%
X116620900Y-100921900D03*
%TO.P,RV1,2,2*%
%TO.N,Net-(U2-VO)*%
X126620900Y-98421900D03*
%TO.P,RV1,3,3*%
%TO.N,GND*%
X116620900Y-95921900D03*
%TD*%
D17*
%TO.P,J2,1,Pin_1*%
%TO.N,Net-(J2-Pin_1)*%
X77170900Y-97176900D03*
D18*
%TO.P,J2,2,Pin_2*%
%TO.N,GND*%
X77170900Y-102256900D03*
%TO.P,J2,3,Pin_3*%
%TO.N,Net-(J2-Pin_3)*%
X77170900Y-107336900D03*
%TO.P,J2,4,Pin_4*%
%TO.N,GND*%
X77170900Y-112416900D03*
%TO.P,J2,5,Pin_5*%
%TO.N,Net-(J2-Pin_5)*%
X77170900Y-117496900D03*
%TO.P,J2,6,Pin_6*%
%TO.N,GND*%
X77170900Y-122576900D03*
%TD*%
D19*
%TO.P,SW3,1,1*%
%TO.N,GND*%
X74920900Y-75026900D03*
X74920900Y-68526900D03*
%TO.P,SW3,2,2*%
%TO.N,Net-(U4-PTB1)*%
X79420900Y-75026900D03*
X79420900Y-68526900D03*
%TD*%
D14*
%TO.P,Q5,1,C*%
%TO.N,Net-(Q2-C)*%
X177533400Y-115419400D03*
D15*
%TO.P,Q5,2,B*%
%TO.N,Net-(Q5-B)*%
X178803400Y-115419400D03*
%TO.P,Q5,3,E*%
%TO.N,Net-(Q5-E)*%
X180073400Y-115419400D03*
%TD*%
D12*
%TO.P,K2,1*%
%TO.N,Net-(Q5-E)*%
X149560900Y-98199400D03*
D13*
%TO.P,K2,3*%
%TO.N,+12V*%
X149560900Y-119199400D03*
%TO.P,K2,5*%
%TO.N,Net-(J2-Pin_3)*%
X157060900Y-115699400D03*
%TO.P,K2,6*%
%TO.N,GND*%
X157060900Y-98199400D03*
%TD*%
D19*
%TO.P,SW2,1,1*%
%TO.N,GND*%
X74630900Y-62886900D03*
X74630900Y-56386900D03*
%TO.P,SW2,2,2*%
%TO.N,Net-(U4-PTB3)*%
X79130900Y-62886900D03*
X79130900Y-56386900D03*
%TD*%
%TO.P,SW1,1,1*%
%TO.N,GND*%
X74920900Y-51456900D03*
X74920900Y-44956900D03*
%TO.P,SW1,2,2*%
%TO.N,Net-(U4-PTB8)*%
X79420900Y-51456900D03*
X79420900Y-44956900D03*
%TD*%
D20*
%TO.P,U2,*%
%TO.N,*%
X209600900Y-84646900D03*
X209600900Y-47646900D03*
X94600900Y-84646900D03*
X94600900Y-47646900D03*
D21*
%TO.P,U2,1,VSS*%
%TO.N,GND*%
X135100900Y-85646900D03*
D22*
%TO.P,U2,2,VDD*%
%TO.N,Net-(Q2-C)*%
X132560900Y-85646900D03*
%TO.P,U2,3,VO*%
%TO.N,Net-(U2-VO)*%
X130020900Y-85646900D03*
%TO.P,U2,4,RS*%
%TO.N,Net-(U2-RS)*%
X127480900Y-85646900D03*
%TO.P,U2,5,R/~{W}*%
%TO.N,Net-(U2-R{slash}~{W})*%
X124940900Y-85646900D03*
%TO.P,U2,6,E*%
%TO.N,Net-(U2-E)*%
X122400900Y-85646900D03*
%TO.P,U2,7,DB0*%
%TO.N,Net-(U2-DB0)*%
X119860900Y-85646900D03*
%TO.P,U2,8,DB1*%
%TO.N,Net-(U2-DB1)*%
X117320900Y-85646900D03*
%TO.P,U2,9,DB2*%
%TO.N,Net-(U2-DB2)*%
X114780900Y-85646900D03*
%TO.P,U2,10,DB3*%
%TO.N,Net-(U2-DB3)*%
X112240900Y-85646900D03*
%TO.P,U2,11,DB4*%
%TO.N,Net-(U2-DB4)*%
X109700900Y-85646900D03*
%TO.P,U2,12,DB5*%
%TO.N,Net-(U2-DB5)*%
X107160900Y-85646900D03*
%TO.P,U2,13,DB6*%
%TO.N,Net-(U2-DB6)*%
X104620900Y-85646900D03*
%TO.P,U2,14,DB7*%
%TO.N,Net-(U2-DB7)*%
X102080900Y-85646900D03*
%TO.P,U2,15,A/VEE*%
%TO.N,unconnected-(U2-A{slash}VEE-Pad15)*%
X137640900Y-85646900D03*
%TO.P,U2,16,K*%
%TO.N,unconnected-(U2-K-Pad16)*%
X140180900Y-85646900D03*
D23*
%TO.P,U2,A1,A1*%
%TO.N,unconnected-(U2-PadA1)*%
X210600900Y-71646900D03*
%TO.P,U2,A2,A2*%
%TO.N,unconnected-(U2-PadA2)*%
X210600900Y-60646900D03*
%TO.P,U2,K1,K1*%
%TO.N,unconnected-(U2-PadK1)*%
X210600900Y-67646900D03*
%TO.P,U2,K2,K2*%
%TO.N,unconnected-(U2-PadK2)*%
X210600900Y-56646900D03*
%TD*%
D14*
%TO.P,Q4,1,C*%
%TO.N,Net-(Q2-C)*%
X177533400Y-109629400D03*
D15*
%TO.P,Q4,2,B*%
%TO.N,Net-(Q4-B)*%
X178803400Y-109629400D03*
%TO.P,Q4,3,E*%
%TO.N,Net-(Q4-E)*%
X180073400Y-109629400D03*
%TD*%
D24*
%TO.P,U5,1,VI*%
%TO.N,+12V*%
X110190900Y-123846900D03*
D25*
%TO.P,U5,2,GND*%
%TO.N,GND*%
X112730900Y-123846900D03*
%TO.P,U5,3,VO*%
%TO.N,Net-(Q2-C)*%
X115270900Y-123846900D03*
%TD*%
D14*
%TO.P,Q2,1,C*%
%TO.N,Net-(Q2-C)*%
X177533400Y-98049400D03*
D15*
%TO.P,Q2,2,B*%
%TO.N,Net-(Q2-B)*%
X178803400Y-98049400D03*
%TO.P,Q2,3,E*%
%TO.N,Net-(J10-Pin_2)*%
X180073400Y-98049400D03*
%TD*%
D26*
%TO.P,U1,1,VCC*%
%TO.N,Net-(Q2-C)*%
X192838400Y-118864400D03*
D27*
%TO.P,U1,2,IO*%
%TO.N,Net-(U1-IO)*%
X192838400Y-121404400D03*
%TO.P,U1,3,NC*%
%TO.N,unconnected-(U1-NC-Pad3)*%
X192838400Y-123944400D03*
%TO.P,U1,4,GND*%
%TO.N,GND*%
X192838400Y-126484400D03*
%TD*%
D19*
%TO.P,SW4,1,1*%
%TO.N,GND*%
X75210900Y-85746900D03*
X75210900Y-79246900D03*
%TO.P,SW4,2,2*%
%TO.N,Net-(U4-PTB0{slash}LLWU_P5)*%
X79710900Y-85746900D03*
X79710900Y-79246900D03*
%TD*%
D28*
%TO.P,J10,1,Pin_1*%
%TO.N,GND*%
X201962500Y-123190000D03*
D18*
%TO.P,J10,2,Pin_2*%
%TO.N,Net-(J10-Pin_2)*%
X201962500Y-118110000D03*
%TD*%
D29*
%TO.N,+12V*%
X95162800Y-104669400D03*
X189676100Y-107875200D03*
%TO.N,Net-(U4-PTB8)*%
X105653200Y-103102800D03*
%TO.N,Net-(U4-PTB3)*%
X105663000Y-104169400D03*
%TO.N,Net-(U4-PTB1)*%
X100714700Y-103649000D03*
%TO.N,Net-(U4-PTB0{slash}LLWU_P5)*%
X102701300Y-105669400D03*
%TO.N,Net-(U2-RS)*%
X103529000Y-98902600D03*
%TO.N,Net-(U2-R{slash}~{W})*%
X104242200Y-98169400D03*
%TO.N,Net-(U2-E)*%
X103274100Y-97437800D03*
%TD*%
D30*
%TO.N,Net-(J10-Pin_2)*%
X200985900Y-118110000D02*
X201962500Y-118110000D01*
X180925300Y-98049400D02*
X200985900Y-118110000D01*
X180073400Y-98049400D02*
X180925300Y-98049400D01*
%TO.N,+12V*%
X178351900Y-119199400D02*
X189676100Y-107875200D01*
X149560900Y-119199400D02*
X149560900Y-120776300D01*
X110190900Y-123846900D02*
X108911500Y-123846900D01*
X95162800Y-104669400D02*
X108911500Y-118418100D01*
X108911500Y-118418100D02*
X108911500Y-123846900D01*
X163530900Y-119199400D02*
X178351900Y-119199400D01*
X149560900Y-120776300D02*
X149040900Y-121296300D01*
X149040900Y-121296300D02*
X149040900Y-125116900D01*
%TO.N,GND*%
X77170900Y-112416900D02*
X75045500Y-112416900D01*
X74920900Y-78956900D02*
X74920900Y-75026900D01*
X159200900Y-125116900D02*
X159200900Y-123690000D01*
X74630900Y-62886900D02*
X74630900Y-68236900D01*
X153886100Y-96601500D02*
X148105000Y-96601500D01*
X112730900Y-99811900D02*
X116620900Y-95921900D01*
X74630900Y-56386900D02*
X74630900Y-62886900D01*
X75210900Y-85746900D02*
X75042900Y-85914900D01*
X75210900Y-79246900D02*
X74920900Y-78956900D01*
X74920900Y-44956900D02*
X74920900Y-51456900D01*
X143243400Y-95616300D02*
X135100900Y-87473800D01*
X77170900Y-122576900D02*
X75044000Y-122576900D01*
X75044000Y-112418400D02*
X75045500Y-112416900D01*
X155484000Y-98199400D02*
X153886100Y-96601500D01*
X147984000Y-98199400D02*
X147984000Y-112473100D01*
X77170900Y-102256900D02*
X75044000Y-102256900D01*
X74920900Y-68526900D02*
X74920900Y-75026900D01*
X74630900Y-68236900D02*
X74920900Y-68526900D01*
X75044000Y-122576900D02*
X75044000Y-112418400D01*
X75210900Y-85746900D02*
X75210900Y-79246900D01*
X148105000Y-96601500D02*
X147984000Y-96722500D01*
X75042900Y-85914900D02*
X75042900Y-102255800D01*
X75045500Y-112416900D02*
X75044000Y-112416900D01*
X112730900Y-123846900D02*
X112730900Y-99811900D01*
X147984000Y-112473100D02*
X159200900Y-123690000D01*
X147984000Y-96722500D02*
X147984000Y-98199400D01*
X143243400Y-98199400D02*
X147984000Y-98199400D01*
X75044000Y-102256900D02*
X75044000Y-112416900D01*
X143243400Y-98199400D02*
X143243400Y-95616300D01*
X135100900Y-85646900D02*
X135100900Y-87473800D01*
X75042900Y-102255800D02*
X75044000Y-102256900D01*
X157060900Y-98199400D02*
X155484000Y-98199400D01*
%TO.N,Net-(J2-Pin_1)*%
X141666500Y-115699400D02*
X132179800Y-125186100D01*
X132179800Y-125186100D02*
X105180100Y-125186100D01*
X105180100Y-125186100D02*
X77170900Y-97176900D01*
X143243400Y-115699400D02*
X141666500Y-115699400D01*
%TO.N,Net-(U4-PTB8)*%
X79420900Y-44956900D02*
X79420900Y-51456900D01*
X99375900Y-71411900D02*
X99375900Y-96825500D01*
X79420900Y-51456900D02*
X99375900Y-71411900D01*
X99375900Y-96825500D02*
X105653200Y-103102800D01*
%TO.N,Net-(U4-PTB3)*%
X98583600Y-97090000D02*
X105663000Y-104169400D01*
X98583600Y-82339600D02*
X98583600Y-97090000D01*
X79130900Y-62886900D02*
X98583600Y-82339600D01*
X79130900Y-56386900D02*
X79130900Y-62886900D01*
%TO.N,Net-(U4-PTB1)*%
X81037800Y-83972100D02*
X100714700Y-103649000D01*
X79420900Y-75026900D02*
X81037800Y-76643800D01*
X79420900Y-68526900D02*
X79420900Y-75026900D01*
X81037800Y-76643800D02*
X81037800Y-83972100D01*
%TO.N,Net-(U4-PTB0{slash}LLWU_P5)*%
X79710900Y-79246900D02*
X79710900Y-85746900D01*
X99633400Y-105669400D02*
X102701300Y-105669400D01*
X79710900Y-85746900D02*
X99633400Y-105669400D01*
%TO.N,Net-(U2-RS)*%
X104736100Y-98902600D02*
X103529000Y-98902600D01*
X127480900Y-85646900D02*
X127480900Y-87473800D01*
X120886700Y-94068000D02*
X109570700Y-94068000D01*
X127480900Y-87473800D02*
X120886700Y-94068000D01*
X109570700Y-94068000D02*
X104736100Y-98902600D01*
%TO.N,Net-(U2-R{slash}~{W})*%
X114485900Y-87925700D02*
X104242200Y-98169400D01*
X124940900Y-87473800D02*
X124489000Y-87925700D01*
X124489000Y-87925700D02*
X114485900Y-87925700D01*
X124940900Y-85646900D02*
X124940900Y-87473800D01*
%TO.N,Net-(U2-E)*%
X122400900Y-85646900D02*
X122400900Y-87473800D01*
X122400900Y-87473800D02*
X113238100Y-87473800D01*
X113238100Y-87473800D02*
X103274100Y-97437800D01*
%TO.N,Net-(Q5-E)*%
X160152800Y-99776300D02*
X152714700Y-99776300D01*
X149560900Y-98199400D02*
X151137800Y-98199400D01*
X176872800Y-116496300D02*
X160152800Y-99776300D01*
X152714700Y-99776300D02*
X151137800Y-98199400D01*
X180073400Y-115419400D02*
X180073400Y-116496300D01*
X180073400Y-116496300D02*
X176872800Y-116496300D01*
%TO.N,Net-(Q2-C)*%
X177533400Y-115419400D02*
X177533400Y-109629400D01*
X115270900Y-102271900D02*
X115270900Y-123846900D01*
X116620900Y-100921900D02*
X115270900Y-102271900D01*
X129540000Y-83820000D02*
X128687400Y-84672600D01*
X128687400Y-88855400D02*
X116620900Y-100921900D01*
X128687400Y-84672600D02*
X128687400Y-88855400D01*
X132560900Y-83820000D02*
X129540000Y-83820000D01*
X177533400Y-98049400D02*
X177533400Y-103839400D01*
X177533400Y-109629400D02*
X177533400Y-103839400D01*
X132560900Y-85646900D02*
X132560900Y-83820000D01*
%TO.N,Net-(U2-VO)*%
X130020900Y-95021900D02*
X126620900Y-98421900D01*
X130020900Y-85646900D02*
X130020900Y-95021900D01*
%TD*%
M02*
