%TF.GenerationSoftware,KiCad,Pcbnew,7.0.7*%
%TF.CreationDate,2023-12-03T21:53:00-03:00*%
%TF.ProjectId,climatizador automatico,636c696d-6174-4697-9a61-646f72206175,rev?*%
%TF.SameCoordinates,Original*%
%TF.FileFunction,Copper,L1,Top*%
%TF.FilePolarity,Positive*%
%FSLAX46Y46*%
G04 Gerber Fmt 4.6, Leading zero omitted, Abs format (unit mm)*
G04 Created by KiCad (PCBNEW 7.0.7) date 2023-12-03 21:53:00*
%MOMM*%
%LPD*%
G01*
G04 APERTURE LIST*
G04 Aperture macros list*
%AMRoundRect*
0 Rectangle with rounded corners*
0 $1 Rounding radius*
0 $2 $3 $4 $5 $6 $7 $8 $9 X,Y pos of 4 corners*
0 Add a 4 corners polygon primitive as box body*
4,1,4,$2,$3,$4,$5,$6,$7,$8,$9,$2,$3,0*
0 Add four circle primitives for the rounded corners*
1,1,$1+$1,$2,$3*
1,1,$1+$1,$4,$5*
1,1,$1+$1,$6,$7*
1,1,$1+$1,$8,$9*
0 Add four rect primitives between the rounded corners*
20,1,$1+$1,$2,$3,$4,$5,0*
20,1,$1+$1,$4,$5,$6,$7,0*
20,1,$1+$1,$6,$7,$8,$9,0*
20,1,$1+$1,$8,$9,$2,$3,0*%
G04 Aperture macros list end*
%TA.AperFunction,ComponentPad*%
%ADD10R,2.200000X2.200000*%
%TD*%
%TA.AperFunction,ComponentPad*%
%ADD11O,2.200000X2.200000*%
%TD*%
%TA.AperFunction,ComponentPad*%
%ADD12R,2.500000X2.500000*%
%TD*%
%TA.AperFunction,ComponentPad*%
%ADD13O,2.500000X2.500000*%
%TD*%
%TA.AperFunction,SMDPad,CuDef*%
%ADD14RoundRect,0.062500X-0.675000X-0.062500X0.675000X-0.062500X0.675000X0.062500X-0.675000X0.062500X0*%
%TD*%
%TA.AperFunction,SMDPad,CuDef*%
%ADD15RoundRect,0.062500X-0.062500X-0.675000X0.062500X-0.675000X0.062500X0.675000X-0.062500X0.675000X0*%
%TD*%
%TA.AperFunction,ComponentPad*%
%ADD16R,1.050000X1.500000*%
%TD*%
%TA.AperFunction,ComponentPad*%
%ADD17O,1.050000X1.500000*%
%TD*%
%TA.AperFunction,SMDPad,CuDef*%
%ADD18R,4.400000X3.300000*%
%TD*%
%TA.AperFunction,SMDPad,CuDef*%
%ADD19R,6.200000X3.900000*%
%TD*%
%TA.AperFunction,ComponentPad*%
%ADD20C,2.340000*%
%TD*%
%TA.AperFunction,ComponentPad*%
%ADD21RoundRect,0.249999X-1.550001X0.790001X-1.550001X-0.790001X1.550001X-0.790001X1.550001X0.790001X0*%
%TD*%
%TA.AperFunction,ComponentPad*%
%ADD22O,3.600000X2.080000*%
%TD*%
%TA.AperFunction,ComponentPad*%
%ADD23C,2.000000*%
%TD*%
%TA.AperFunction,ComponentPad*%
%ADD24C,6.500000*%
%TD*%
%TA.AperFunction,ComponentPad*%
%ADD25R,1.500000X3.000000*%
%TD*%
%TA.AperFunction,ComponentPad*%
%ADD26O,1.500000X3.000000*%
%TD*%
%TA.AperFunction,ComponentPad*%
%ADD27R,2.000000X2.000000*%
%TD*%
%TA.AperFunction,ComponentPad*%
%ADD28R,1.905000X2.000000*%
%TD*%
%TA.AperFunction,ComponentPad*%
%ADD29O,1.905000X2.000000*%
%TD*%
%TA.AperFunction,ComponentPad*%
%ADD30R,1.500000X1.500000*%
%TD*%
%TA.AperFunction,ComponentPad*%
%ADD31C,1.500000*%
%TD*%
%TA.AperFunction,ComponentPad*%
%ADD32RoundRect,0.249999X1.550001X-0.790001X1.550001X0.790001X-1.550001X0.790001X-1.550001X-0.790001X0*%
%TD*%
%TA.AperFunction,ViaPad*%
%ADD33C,0.800000*%
%TD*%
%TA.AperFunction,Conductor*%
%ADD34C,0.250000*%
%TD*%
%TA.AperFunction,Conductor*%
%ADD35C,0.800000*%
%TD*%
G04 APERTURE END LIST*
D10*
%TO.P,D2,1,K*%
%TO.N,+12V*%
X149040900Y-125116900D03*
D11*
%TO.P,D2,2,A*%
%TO.N,GND*%
X159200900Y-125116900D03*
%TD*%
D12*
%TO.P,K1,1*%
%TO.N,Net-(Q4-E)*%
X135743400Y-98199400D03*
D13*
%TO.P,K1,3*%
%TO.N,+12V*%
X135743400Y-119199400D03*
%TO.P,K1,5*%
%TO.N,Net-(J2-Pin_1)*%
X143243400Y-115699400D03*
%TO.P,K1,6*%
%TO.N,GND*%
X143243400Y-98199400D03*
%TD*%
D12*
%TO.P,K5,1*%
%TO.N,Net-(Q3-E)*%
X163530900Y-98199400D03*
D13*
%TO.P,K5,3*%
%TO.N,+12V*%
X163530900Y-119199400D03*
%TO.P,K5,5*%
%TO.N,Net-(J2-Pin_5)*%
X171030900Y-115699400D03*
%TO.P,K5,6*%
%TO.N,GND*%
X171030900Y-98199400D03*
%TD*%
D14*
%TO.P,U4,1,PTE0*%
%TO.N,unconnected-(U4-PTE0-Pad1)*%
X93633400Y-97169400D03*
%TO.P,U4,2,PTE1*%
%TO.N,Net-(U2-E)*%
X93633400Y-97669400D03*
%TO.P,U4,3,PTE2*%
%TO.N,Net-(U2-R{slash}~{W})*%
X93633400Y-98169400D03*
%TO.P,U4,4,PTE3*%
%TO.N,Net-(U2-RS)*%
X93633400Y-98669400D03*
%TO.P,U4,5,PTE4*%
%TO.N,unconnected-(U4-PTE4-Pad5)*%
X93633400Y-99169400D03*
%TO.P,U4,6,PTE5*%
%TO.N,unconnected-(U4-PTE5-Pad6)*%
X93633400Y-99669400D03*
%TO.P,U4,7,VDD*%
%TO.N,Net-(U4-VDD-Pad38)*%
X93633400Y-100169400D03*
%TO.P,U4,8,VSS*%
%TO.N,Net-(U4-VSS-Pad39)*%
X93633400Y-100669400D03*
%TO.P,U4,9,USB0_DP*%
%TO.N,unconnected-(U4-USB0_DP-Pad9)*%
X93633400Y-101169400D03*
%TO.P,U4,10,USB0_DM*%
%TO.N,unconnected-(U4-USB0_DM-Pad10)*%
X93633400Y-101669400D03*
%TO.P,U4,11,VOUT33*%
%TO.N,unconnected-(U4-VOUT33-Pad11)*%
X93633400Y-102169400D03*
%TO.P,U4,12,VREGIN*%
%TO.N,unconnected-(U4-VREGIN-Pad12)*%
X93633400Y-102669400D03*
%TO.P,U4,13,PTE20*%
%TO.N,unconnected-(U4-PTE20-Pad13)*%
X93633400Y-103169400D03*
%TO.P,U4,14,PTE21*%
%TO.N,GND*%
X93633400Y-103669400D03*
%TO.P,U4,15,PTE22*%
%TO.N,unconnected-(U4-PTE22-Pad15)*%
X93633400Y-104169400D03*
%TO.P,U4,16,PTE23*%
%TO.N,+12V*%
X93633400Y-104669400D03*
%TO.P,U4,17,VDDA*%
%TO.N,unconnected-(U4-VDDA-Pad17)*%
X93633400Y-105169400D03*
%TO.P,U4,18,VREFH*%
%TO.N,unconnected-(U4-VREFH-Pad18)*%
X93633400Y-105669400D03*
%TO.P,U4,19,VREFL*%
%TO.N,unconnected-(U4-VREFL-Pad19)*%
X93633400Y-106169400D03*
%TO.P,U4,20,VSSA*%
%TO.N,unconnected-(U4-VSSA-Pad20)*%
X93633400Y-106669400D03*
D15*
%TO.P,U4,21,PTE29*%
%TO.N,unconnected-(U4-PTE29-Pad21)*%
X95570900Y-108606900D03*
%TO.P,U4,22,PTE30*%
%TO.N,unconnected-(U4-PTE30-Pad22)*%
X96070900Y-108606900D03*
%TO.P,U4,23,PTE31*%
%TO.N,unconnected-(U4-PTE31-Pad23)*%
X96570900Y-108606900D03*
%TO.P,U4,24,PTE24*%
%TO.N,unconnected-(U4-PTE24-Pad24)*%
X97070900Y-108606900D03*
%TO.P,U4,25,PTE25*%
%TO.N,unconnected-(U4-PTE25-Pad25)*%
X97570900Y-108606900D03*
%TO.P,U4,26,PTA0*%
%TO.N,unconnected-(U4-PTA0-Pad26)*%
X98070900Y-108606900D03*
%TO.P,U4,27,PTA1*%
%TO.N,Net-(U1-IO)*%
X98570900Y-108606900D03*
%TO.P,U4,28,PTA2*%
%TO.N,unconnected-(U4-PTA2-Pad28)*%
X99070900Y-108606900D03*
%TO.P,U4,29,PTA3*%
%TO.N,unconnected-(U4-PTA3-Pad29)*%
X99570900Y-108606900D03*
%TO.P,U4,30,PTA4*%
%TO.N,unconnected-(U4-PTA4-Pad30)*%
X100070900Y-108606900D03*
%TO.P,U4,31,PTA5*%
%TO.N,unconnected-(U4-PTA5-Pad31)*%
X100570900Y-108606900D03*
%TO.P,U4,32,PTA12*%
%TO.N,unconnected-(U4-PTA12-Pad32)*%
X101070900Y-108606900D03*
%TO.P,U4,33,PTA13*%
%TO.N,unconnected-(U4-PTA13-Pad33)*%
X101570900Y-108606900D03*
%TO.P,U4,34,PTA14*%
%TO.N,unconnected-(U4-PTA14-Pad34)*%
X102070900Y-108606900D03*
%TO.P,U4,35,PTA15*%
%TO.N,unconnected-(U4-PTA15-Pad35)*%
X102570900Y-108606900D03*
%TO.P,U4,36,PTA16*%
%TO.N,unconnected-(U4-PTA16-Pad36)*%
X103070900Y-108606900D03*
%TO.P,U4,37,PTA17*%
%TO.N,unconnected-(U4-PTA17-Pad37)*%
X103570900Y-108606900D03*
%TO.P,U4,38,VDD*%
%TO.N,Net-(U4-VDD-Pad38)*%
X104070900Y-108606900D03*
%TO.P,U4,39,VSS*%
%TO.N,Net-(U4-VSS-Pad39)*%
X104570900Y-108606900D03*
%TO.P,U4,40,PTA18*%
%TO.N,unconnected-(U4-PTA18-Pad40)*%
X105070900Y-108606900D03*
D14*
%TO.P,U4,41,PTA19*%
%TO.N,unconnected-(U4-PTA19-Pad41)*%
X107008400Y-106669400D03*
%TO.P,U4,42,PTA20*%
%TO.N,unconnected-(U4-PTA20-Pad42)*%
X107008400Y-106169400D03*
%TO.P,U4,43,PTB0/LLWU_P5*%
%TO.N,Net-(U4-PTB0{slash}LLWU_P5)*%
X107008400Y-105669400D03*
%TO.P,U4,44,PTB1*%
%TO.N,Net-(U4-PTB1)*%
X107008400Y-105169400D03*
%TO.P,U4,45,PTB2*%
%TO.N,unconnected-(U4-PTB2-Pad45)*%
X107008400Y-104669400D03*
%TO.P,U4,46,PTB3*%
%TO.N,Net-(U4-PTB3)*%
X107008400Y-104169400D03*
%TO.P,U4,47,PTB8*%
%TO.N,Net-(U4-PTB8)*%
X107008400Y-103669400D03*
%TO.P,U4,48,PTB9*%
%TO.N,unconnected-(U4-PTB9-Pad48)*%
X107008400Y-103169400D03*
%TO.P,U4,49,PTB10*%
%TO.N,unconnected-(U4-PTB10-Pad49)*%
X107008400Y-102669400D03*
%TO.P,U4,50,PTB11*%
%TO.N,unconnected-(U4-PTB11-Pad50)*%
X107008400Y-102169400D03*
%TO.P,U4,51,PTB16*%
%TO.N,Net-(Q3-B)*%
X107008400Y-101669400D03*
%TO.P,U4,52,PTB17*%
%TO.N,Net-(Q5-B)*%
X107008400Y-101169400D03*
%TO.P,U4,53,PTB18*%
%TO.N,Net-(Q4-B)*%
X107008400Y-100669400D03*
%TO.P,U4,54,PTB19*%
%TO.N,Net-(Q2-B)*%
X107008400Y-100169400D03*
%TO.P,U4,55,PTC0*%
%TO.N,unconnected-(U4-PTC0-Pad55)*%
X107008400Y-99669400D03*
%TO.P,U4,56,PTC1/LLWU_P6/RTC_CLKIN*%
%TO.N,unconnected-(U4-PTC1{slash}LLWU_P6{slash}RTC_CLKIN-Pad56)*%
X107008400Y-99169400D03*
%TO.P,U4,57,PTC2*%
%TO.N,unconnected-(U4-PTC2-Pad57)*%
X107008400Y-98669400D03*
%TO.P,U4,58,PTC3/LLWU_P7*%
%TO.N,unconnected-(U4-PTC3{slash}LLWU_P7-Pad58)*%
X107008400Y-98169400D03*
%TO.P,U4,59,VSS*%
%TO.N,Net-(U4-VSS-Pad39)*%
X107008400Y-97669400D03*
%TO.P,U4,60,VDD*%
%TO.N,Net-(U4-VDD-Pad38)*%
X107008400Y-97169400D03*
D15*
%TO.P,U4,61,PTC4/LLWU_P8*%
%TO.N,unconnected-(U4-PTC4{slash}LLWU_P8-Pad61)*%
X105070900Y-95231900D03*
%TO.P,U4,62,PTC5/LLWU_P9*%
%TO.N,unconnected-(U4-PTC5{slash}LLWU_P9-Pad62)*%
X104570900Y-95231900D03*
%TO.P,U4,63,PTC6/LLWU_P10*%
%TO.N,unconnected-(U4-PTC6{slash}LLWU_P10-Pad63)*%
X104070900Y-95231900D03*
%TO.P,U4,64,PTC7*%
%TO.N,unconnected-(U4-PTC7-Pad64)*%
X103570900Y-95231900D03*
%TO.P,U4,65,PTC8*%
%TO.N,Net-(U2-DB0)*%
X103070900Y-95231900D03*
%TO.P,U4,66,PTC9*%
%TO.N,Net-(U2-DB1)*%
X102570900Y-95231900D03*
%TO.P,U4,67,PTC10*%
%TO.N,Net-(U2-DB2)*%
X102070900Y-95231900D03*
%TO.P,U4,68,PTC11*%
%TO.N,Net-(U2-DB3)*%
X101570900Y-95231900D03*
%TO.P,U4,69,PTC12*%
%TO.N,Net-(U2-DB4)*%
X101070900Y-95231900D03*
%TO.P,U4,70,PTC13*%
%TO.N,Net-(U2-DB5)*%
X100570900Y-95231900D03*
%TO.P,U4,71,PTC16*%
%TO.N,Net-(U2-DB6)*%
X100070900Y-95231900D03*
%TO.P,U4,72,PTC17*%
%TO.N,Net-(U2-DB7)*%
X99570900Y-95231900D03*
%TO.P,U4,73,PTD0*%
%TO.N,unconnected-(U4-PTD0-Pad73)*%
X99070900Y-95231900D03*
%TO.P,U4,74,PTD1*%
%TO.N,unconnected-(U4-PTD1-Pad74)*%
X98570900Y-95231900D03*
%TO.P,U4,75,PTD2*%
%TO.N,unconnected-(U4-PTD2-Pad75)*%
X98070900Y-95231900D03*
%TO.P,U4,76,PTD3*%
%TO.N,unconnected-(U4-PTD3-Pad76)*%
X97570900Y-95231900D03*
%TO.P,U4,77,PTD4/LLWU_P14*%
%TO.N,unconnected-(U4-PTD4{slash}LLWU_P14-Pad77)*%
X97070900Y-95231900D03*
%TO.P,U4,78,PTD5*%
%TO.N,unconnected-(U4-PTD5-Pad78)*%
X96570900Y-95231900D03*
%TO.P,U4,79,PTD6/LLWU_P15*%
%TO.N,unconnected-(U4-PTD6{slash}LLWU_P15-Pad79)*%
X96070900Y-95231900D03*
%TO.P,U4,80,PTD7*%
%TO.N,unconnected-(U4-PTD7-Pad80)*%
X95570900Y-95231900D03*
%TD*%
D16*
%TO.P,Q3,1,C*%
%TO.N,Net-(Q2-C)*%
X177533400Y-103839400D03*
D17*
%TO.P,Q3,2,B*%
%TO.N,Net-(Q3-B)*%
X178803400Y-103839400D03*
%TO.P,Q3,3,E*%
%TO.N,Net-(Q3-E)*%
X180073400Y-103839400D03*
%TD*%
D18*
%TO.P,J1,1*%
%TO.N,+12V*%
X196440900Y-100186900D03*
D19*
%TO.P,J1,2*%
%TO.N,GND*%
X205440900Y-107336900D03*
%TO.P,J1,3*%
%TO.N,N/C*%
X205440900Y-94436900D03*
%TD*%
D20*
%TO.P,RV1,1,1*%
%TO.N,Net-(Q2-C)*%
X116620900Y-100921900D03*
%TO.P,RV1,2,2*%
%TO.N,Net-(U2-VO)*%
X126620900Y-98421900D03*
%TO.P,RV1,3,3*%
%TO.N,GND*%
X116620900Y-95921900D03*
%TD*%
D21*
%TO.P,J2,1,Pin_1*%
%TO.N,Net-(J2-Pin_1)*%
X77170900Y-97176900D03*
D22*
%TO.P,J2,2,Pin_2*%
%TO.N,GND*%
X77170900Y-102256900D03*
%TO.P,J2,3,Pin_3*%
%TO.N,Net-(J2-Pin_3)*%
X77170900Y-107336900D03*
%TO.P,J2,4,Pin_4*%
%TO.N,GND*%
X77170900Y-112416900D03*
%TO.P,J2,5,Pin_5*%
%TO.N,Net-(J2-Pin_5)*%
X77170900Y-117496900D03*
%TO.P,J2,6,Pin_6*%
%TO.N,GND*%
X77170900Y-122576900D03*
%TD*%
D23*
%TO.P,SW3,1,1*%
%TO.N,GND*%
X74920900Y-75026900D03*
X74920900Y-68526900D03*
%TO.P,SW3,2,2*%
%TO.N,Net-(U4-PTB1)*%
X79420900Y-75026900D03*
X79420900Y-68526900D03*
%TD*%
D16*
%TO.P,Q5,1,C*%
%TO.N,Net-(Q2-C)*%
X177533400Y-115419400D03*
D17*
%TO.P,Q5,2,B*%
%TO.N,Net-(Q5-B)*%
X178803400Y-115419400D03*
%TO.P,Q5,3,E*%
%TO.N,Net-(Q5-E)*%
X180073400Y-115419400D03*
%TD*%
D12*
%TO.P,K2,1*%
%TO.N,Net-(Q5-E)*%
X149560900Y-98199400D03*
D13*
%TO.P,K2,3*%
%TO.N,+12V*%
X149560900Y-119199400D03*
%TO.P,K2,5*%
%TO.N,Net-(J2-Pin_3)*%
X157060900Y-115699400D03*
%TO.P,K2,6*%
%TO.N,GND*%
X157060900Y-98199400D03*
%TD*%
D23*
%TO.P,SW2,1,1*%
%TO.N,GND*%
X74630900Y-62886900D03*
X74630900Y-56386900D03*
%TO.P,SW2,2,2*%
%TO.N,Net-(U4-PTB3)*%
X79130900Y-62886900D03*
X79130900Y-56386900D03*
%TD*%
%TO.P,SW1,1,1*%
%TO.N,GND*%
X74920900Y-51456900D03*
X74920900Y-44956900D03*
%TO.P,SW1,2,2*%
%TO.N,Net-(U4-PTB8)*%
X79420900Y-51456900D03*
X79420900Y-44956900D03*
%TD*%
D24*
%TO.P,U2,*%
%TO.N,*%
X209600900Y-84646900D03*
X209600900Y-47646900D03*
X94600900Y-84646900D03*
X94600900Y-47646900D03*
D25*
%TO.P,U2,1,VSS*%
%TO.N,GND*%
X135100900Y-85646900D03*
D26*
%TO.P,U2,2,VDD*%
%TO.N,Net-(Q2-C)*%
X132560900Y-85646900D03*
%TO.P,U2,3,VO*%
%TO.N,Net-(U2-VO)*%
X130020900Y-85646900D03*
%TO.P,U2,4,RS*%
%TO.N,Net-(U2-RS)*%
X127480900Y-85646900D03*
%TO.P,U2,5,R/~{W}*%
%TO.N,Net-(U2-R{slash}~{W})*%
X124940900Y-85646900D03*
%TO.P,U2,6,E*%
%TO.N,Net-(U2-E)*%
X122400900Y-85646900D03*
%TO.P,U2,7,DB0*%
%TO.N,Net-(U2-DB0)*%
X119860900Y-85646900D03*
%TO.P,U2,8,DB1*%
%TO.N,Net-(U2-DB1)*%
X117320900Y-85646900D03*
%TO.P,U2,9,DB2*%
%TO.N,Net-(U2-DB2)*%
X114780900Y-85646900D03*
%TO.P,U2,10,DB3*%
%TO.N,Net-(U2-DB3)*%
X112240900Y-85646900D03*
%TO.P,U2,11,DB4*%
%TO.N,Net-(U2-DB4)*%
X109700900Y-85646900D03*
%TO.P,U2,12,DB5*%
%TO.N,Net-(U2-DB5)*%
X107160900Y-85646900D03*
%TO.P,U2,13,DB6*%
%TO.N,Net-(U2-DB6)*%
X104620900Y-85646900D03*
%TO.P,U2,14,DB7*%
%TO.N,Net-(U2-DB7)*%
X102080900Y-85646900D03*
%TO.P,U2,15,A/VEE*%
%TO.N,unconnected-(U2-A{slash}VEE-Pad15)*%
X137640900Y-85646900D03*
%TO.P,U2,16,K*%
%TO.N,unconnected-(U2-K-Pad16)*%
X140180900Y-85646900D03*
D27*
%TO.P,U2,A1,A1*%
%TO.N,unconnected-(U2-PadA1)*%
X210600900Y-71646900D03*
%TO.P,U2,A2,A2*%
%TO.N,unconnected-(U2-PadA2)*%
X210600900Y-60646900D03*
%TO.P,U2,K1,K1*%
%TO.N,unconnected-(U2-PadK1)*%
X210600900Y-67646900D03*
%TO.P,U2,K2,K2*%
%TO.N,unconnected-(U2-PadK2)*%
X210600900Y-56646900D03*
%TD*%
D16*
%TO.P,Q4,1,C*%
%TO.N,Net-(Q2-C)*%
X177533400Y-109629400D03*
D17*
%TO.P,Q4,2,B*%
%TO.N,Net-(Q4-B)*%
X178803400Y-109629400D03*
%TO.P,Q4,3,E*%
%TO.N,Net-(Q4-E)*%
X180073400Y-109629400D03*
%TD*%
D28*
%TO.P,U5,1,VI*%
%TO.N,+12V*%
X110190900Y-123846900D03*
D29*
%TO.P,U5,2,GND*%
%TO.N,GND*%
X112730900Y-123846900D03*
%TO.P,U5,3,VO*%
%TO.N,Net-(Q2-C)*%
X115270900Y-123846900D03*
%TD*%
D16*
%TO.P,Q2,1,C*%
%TO.N,Net-(Q2-C)*%
X177533400Y-98049400D03*
D17*
%TO.P,Q2,2,B*%
%TO.N,Net-(Q2-B)*%
X178803400Y-98049400D03*
%TO.P,Q2,3,E*%
%TO.N,Net-(J10-Pin_2)*%
X180073400Y-98049400D03*
%TD*%
D30*
%TO.P,U1,1,VCC*%
%TO.N,Net-(Q2-C)*%
X192838400Y-118864400D03*
D31*
%TO.P,U1,2,IO*%
%TO.N,Net-(U1-IO)*%
X192838400Y-121404400D03*
%TO.P,U1,3,NC*%
%TO.N,unconnected-(U1-NC-Pad3)*%
X192838400Y-123944400D03*
%TO.P,U1,4,GND*%
%TO.N,GND*%
X192838400Y-126484400D03*
%TD*%
D23*
%TO.P,SW4,1,1*%
%TO.N,GND*%
X75210900Y-85746900D03*
X75210900Y-79246900D03*
%TO.P,SW4,2,2*%
%TO.N,Net-(U4-PTB0{slash}LLWU_P5)*%
X79710900Y-85746900D03*
X79710900Y-79246900D03*
%TD*%
D32*
%TO.P,J10,1,Pin_1*%
%TO.N,GND*%
X201962500Y-123190000D03*
D22*
%TO.P,J10,2,Pin_2*%
%TO.N,Net-(J10-Pin_2)*%
X201962500Y-118110000D03*
%TD*%
D33*
%TO.N,+12V*%
X95162800Y-104669400D03*
X189676100Y-107875200D03*
%TO.N,Net-(U4-PTB8)*%
X105653200Y-103102800D03*
%TO.N,Net-(U4-PTB3)*%
X105663000Y-104169400D03*
%TO.N,Net-(U4-PTB1)*%
X100714700Y-103649000D03*
%TO.N,Net-(U4-PTB0{slash}LLWU_P5)*%
X102701300Y-105669400D03*
%TO.N,Net-(U2-RS)*%
X103529000Y-98902600D03*
%TO.N,Net-(U2-R{slash}~{W})*%
X104242200Y-98169400D03*
%TO.N,Net-(U2-E)*%
X103274100Y-97437800D03*
%TD*%
D34*
%TO.N,GND*%
X198668100Y-126484400D02*
X201962500Y-123190000D01*
X192838400Y-126484400D02*
X198668100Y-126484400D01*
X191470900Y-125116900D02*
X192838400Y-126484400D01*
X159200900Y-125116900D02*
X191470900Y-125116900D01*
X205440900Y-119711600D02*
X205440900Y-107336900D01*
X201962500Y-123190000D02*
X205440900Y-119711600D01*
%TO.N,+12V*%
X95162800Y-104669400D02*
X93633400Y-104669400D01*
X114838400Y-119199400D02*
X135743400Y-119199400D01*
X135743400Y-119199400D02*
X149560900Y-119199400D01*
X196440900Y-102163800D02*
X195387500Y-102163800D01*
X110190900Y-123846900D02*
X114838400Y-119199400D01*
X196440900Y-100186900D02*
X196440900Y-102163800D01*
X149560900Y-119199400D02*
X163530900Y-119199400D01*
X195387500Y-102163800D02*
X189676100Y-107875200D01*
%TO.N,GND*%
X167877100Y-96622500D02*
X169454000Y-98199400D01*
X77170900Y-102256900D02*
X79297800Y-102256900D01*
D35*
X74920900Y-78956900D02*
X75210900Y-79246900D01*
D34*
X77170900Y-122576900D02*
X79297800Y-122576900D01*
X93633400Y-103669400D02*
X80710300Y-103669400D01*
X158637800Y-98199400D02*
X160214700Y-96622500D01*
X80710300Y-103669400D02*
X79297800Y-102256900D01*
X157060900Y-98199400D02*
X158637800Y-98199400D01*
D35*
X74630900Y-68236900D02*
X74920900Y-68526900D01*
D34*
X143243400Y-98199400D02*
X141666500Y-98199400D01*
D35*
X74920900Y-56096900D02*
X74630900Y-56386900D01*
D34*
X139389000Y-95921900D02*
X141666500Y-98199400D01*
X160214700Y-96622500D02*
X167877100Y-96622500D01*
X111404000Y-125173800D02*
X81894700Y-125173800D01*
X116620900Y-95921900D02*
X139389000Y-95921900D01*
X112730900Y-123846900D02*
X111404000Y-125173800D01*
X81894700Y-125173800D02*
X79297800Y-122576900D01*
X171030900Y-98199400D02*
X169454000Y-98199400D01*
X74920900Y-56096900D02*
X74920900Y-51456900D01*
%TO.N,Net-(J2-Pin_3)*%
X157060900Y-115699400D02*
X155484000Y-115699400D01*
X151313000Y-111528400D02*
X155484000Y-115699400D01*
X83489300Y-111528400D02*
X151313000Y-111528400D01*
X77170900Y-107336900D02*
X79297800Y-107336900D01*
X79297800Y-107336900D02*
X83489300Y-111528400D01*
%TO.N,Net-(J2-Pin_5)*%
X171030900Y-115699400D02*
X169454000Y-115699400D01*
X167656500Y-117496900D02*
X77170900Y-117496900D01*
X169454000Y-115699400D02*
X167656500Y-117496900D01*
%TO.N,Net-(Q2-B)*%
X175014200Y-99126300D02*
X178803400Y-99126300D01*
X110023600Y-100169400D02*
X115783300Y-94409700D01*
X115783300Y-94409700D02*
X170297600Y-94409700D01*
X178803400Y-98049400D02*
X178803400Y-99126300D01*
X107008400Y-100169400D02*
X110023600Y-100169400D01*
X170297600Y-94409700D02*
X175014200Y-99126300D01*
%TO.N,Net-(Q3-B)*%
X115785200Y-109383100D02*
X169504800Y-109383100D01*
X193915300Y-117918400D02*
X180913200Y-104916300D01*
X193778900Y-119973600D02*
X193915300Y-119837200D01*
X107008400Y-101669400D02*
X108071500Y-101669400D01*
X180095300Y-119973600D02*
X193778900Y-119973600D01*
X169504800Y-109383100D02*
X180095300Y-119973600D01*
X178803400Y-103839400D02*
X178803400Y-104916300D01*
X180913200Y-104916300D02*
X178803400Y-104916300D01*
X108071500Y-101669400D02*
X115785200Y-109383100D01*
X193915300Y-119837200D02*
X193915300Y-117918400D01*
%TO.N,Net-(Q4-B)*%
X109792000Y-100669400D02*
X117224600Y-108102000D01*
X117224600Y-108102000D02*
X178352900Y-108102000D01*
X107008400Y-100669400D02*
X109792000Y-100669400D01*
X178352900Y-108102000D02*
X178803400Y-108552500D01*
X178803400Y-109629400D02*
X178803400Y-108552500D01*
%TO.N,Net-(Q5-B)*%
X116558500Y-108777600D02*
X108950300Y-101169400D01*
X178803400Y-115419400D02*
X178803400Y-114342500D01*
X178803400Y-114342500D02*
X173238500Y-108777600D01*
X108950300Y-101169400D02*
X107008400Y-101169400D01*
X173238500Y-108777600D02*
X116558500Y-108777600D01*
%TO.N,Net-(U4-PTB8)*%
X105653200Y-103102800D02*
X106219800Y-103669400D01*
X106219800Y-103669400D02*
X107008400Y-103669400D01*
%TO.N,Net-(U4-PTB3)*%
X105663000Y-104169400D02*
X107008400Y-104169400D01*
%TO.N,Net-(U4-PTB1)*%
X101708900Y-103649000D02*
X100714700Y-103649000D01*
X103229300Y-105169400D02*
X101708900Y-103649000D01*
X107008400Y-105169400D02*
X103229300Y-105169400D01*
%TO.N,Net-(U4-PTB0{slash}LLWU_P5)*%
X107008400Y-105669400D02*
X102701300Y-105669400D01*
%TO.N,Net-(U1-IO)*%
X99639800Y-110494500D02*
X168056100Y-110494500D01*
X178966000Y-121404400D02*
X192838400Y-121404400D01*
X98570900Y-108606900D02*
X98570900Y-109425600D01*
X168056100Y-110494500D02*
X178966000Y-121404400D01*
X98570900Y-109425600D02*
X99639800Y-110494500D01*
%TO.N,Net-(U2-RS)*%
X103295800Y-98669400D02*
X103529000Y-98902600D01*
X93633400Y-98669400D02*
X103295800Y-98669400D01*
%TO.N,Net-(U2-R{slash}~{W})*%
X93633400Y-98169400D02*
X104242200Y-98169400D01*
%TO.N,Net-(U2-E)*%
X103274100Y-97437800D02*
X103042500Y-97669400D01*
X103042500Y-97669400D02*
X93633400Y-97669400D01*
%TO.N,Net-(U2-DB0)*%
X119860900Y-85646900D02*
X119860900Y-87473800D01*
X113224800Y-94109900D02*
X119860900Y-87473800D01*
X103070900Y-95231900D02*
X103070900Y-94439500D01*
X103070900Y-94439500D02*
X103400500Y-94109900D01*
X103400500Y-94109900D02*
X113224800Y-94109900D01*
%TO.N,Net-(U2-DB1)*%
X102570900Y-94282200D02*
X102570900Y-95231900D01*
X103697200Y-93155900D02*
X102570900Y-94282200D01*
X111638800Y-93155900D02*
X103697200Y-93155900D01*
X117320900Y-87473800D02*
X111638800Y-93155900D01*
X117320900Y-85646900D02*
X117320900Y-87473800D01*
%TO.N,Net-(U2-DB2)*%
X114780900Y-87473800D02*
X109789300Y-92465400D01*
X103730700Y-92465400D02*
X102070900Y-94125200D01*
X102070900Y-94125200D02*
X102070900Y-95231900D01*
X109789300Y-92465400D02*
X103730700Y-92465400D01*
X114780900Y-85646900D02*
X114780900Y-87473800D01*
%TO.N,Net-(U2-DB3)*%
X107840200Y-91874500D02*
X103604100Y-91874500D01*
X101570900Y-93907700D02*
X101570900Y-95231900D01*
X112240900Y-87473800D02*
X107840200Y-91874500D01*
X103604100Y-91874500D02*
X101570900Y-93907700D01*
X112240900Y-85646900D02*
X112240900Y-87473800D01*
%TO.N,Net-(U2-DB4)*%
X108410100Y-88764600D02*
X106039500Y-88764600D01*
X101070900Y-93733200D02*
X101070900Y-95231900D01*
X106039500Y-88764600D02*
X101070900Y-93733200D01*
X109700900Y-87473800D02*
X108410100Y-88764600D01*
X109700900Y-85646900D02*
X109700900Y-87473800D01*
%TO.N,Net-(U2-DB5)*%
X107160900Y-85646900D02*
X107160900Y-87473800D01*
X107160900Y-87473800D02*
X106650300Y-87473800D01*
X106650300Y-87473800D02*
X100570900Y-93553200D01*
X100570900Y-93553200D02*
X100570900Y-95231900D01*
%TO.N,Net-(U2-DB6)*%
X104620900Y-87473800D02*
X100070900Y-92023800D01*
X100070900Y-92023800D02*
X100070900Y-95231900D01*
X104620900Y-85646900D02*
X104620900Y-87473800D01*
%TO.N,Net-(U2-DB7)*%
X99570900Y-89983800D02*
X99570900Y-95231900D01*
X102080900Y-87473800D02*
X99570900Y-89983800D01*
X102080900Y-85646900D02*
X102080900Y-87473800D01*
%TO.N,Net-(Q4-E)*%
X179075200Y-107554300D02*
X146675200Y-107554300D01*
X135743400Y-98199400D02*
X137320300Y-98199400D01*
X180073400Y-109629400D02*
X180073400Y-108552500D01*
X146675200Y-107554300D02*
X137320300Y-98199400D01*
X180073400Y-108552500D02*
X179075200Y-107554300D01*
%TO.N,Net-(Q3-E)*%
X180073400Y-103839400D02*
X180073400Y-102762500D01*
X169670900Y-102762500D02*
X165107800Y-98199400D01*
X163530900Y-98199400D02*
X165107800Y-98199400D01*
X180073400Y-102762500D02*
X169670900Y-102762500D01*
%TO.N,Net-(Q2-C)*%
X179901500Y-118864400D02*
X177533400Y-116496300D01*
X132560900Y-85646900D02*
X132560900Y-87473800D01*
X177533400Y-115419400D02*
X177533400Y-116496300D01*
X166105900Y-87473800D02*
X132560900Y-87473800D01*
X192838400Y-118864400D02*
X179901500Y-118864400D01*
X177533400Y-98049400D02*
X176681500Y-98049400D01*
X176681500Y-98049400D02*
X166105900Y-87473800D01*
%TO.N,Net-(U4-VDD-Pad38)*%
X102911600Y-100279300D02*
X103285100Y-100279300D01*
X105862600Y-97459300D02*
X106152500Y-97169400D01*
X104499300Y-106727200D02*
X102730700Y-106727200D01*
X105294900Y-109672700D02*
X105538400Y-109429200D01*
X96927500Y-100169400D02*
X99974500Y-103216400D01*
X93633400Y-100169400D02*
X96927500Y-100169400D01*
X105862600Y-97701800D02*
X105862600Y-97459300D01*
X104342900Y-109672700D02*
X105294900Y-109672700D01*
X99974500Y-103216400D02*
X102911600Y-100279300D01*
X104070900Y-109400700D02*
X104342900Y-109672700D01*
X105538400Y-109429200D02*
X105538400Y-107766300D01*
X103285100Y-100279300D02*
X105862600Y-97701800D01*
X105538400Y-107766300D02*
X104499300Y-106727200D01*
X104070900Y-108606900D02*
X104070900Y-109400700D01*
X99974500Y-103971000D02*
X99974500Y-103216400D01*
X106152500Y-97169400D02*
X107008400Y-97169400D01*
X102730700Y-106727200D02*
X99974500Y-103971000D01*
%TO.N,Net-(U4-VSS-Pad39)*%
X93633400Y-100669400D02*
X95715600Y-100669400D01*
X102484100Y-107437900D02*
X104205600Y-107437900D01*
X92531900Y-100372200D02*
X92829100Y-100669400D01*
X92829100Y-100669400D02*
X93633400Y-100669400D01*
X104570900Y-107803200D02*
X104570900Y-108606900D01*
X104205600Y-107437900D02*
X104570900Y-107803200D01*
X107798800Y-97669400D02*
X108116600Y-97351600D01*
X92531900Y-96963700D02*
X92531900Y-100372200D01*
X95715600Y-100669400D02*
X102484100Y-107437900D01*
X107008400Y-97669400D02*
X107798800Y-97669400D01*
X108116600Y-96982800D02*
X107837500Y-96703700D01*
X107837500Y-96703700D02*
X92791900Y-96703700D01*
X92791900Y-96703700D02*
X92531900Y-96963700D01*
X108116600Y-97351600D02*
X108116600Y-96982800D01*
%TD*%
M02*
