%TF.GenerationSoftware,KiCad,Pcbnew,7.0.7*%
%TF.CreationDate,2023-12-03T21:52:43-03:00*%
%TF.ProjectId,climatizador automatico,636c696d-6174-4697-9a61-646f72206175,rev?*%
%TF.SameCoordinates,Original*%
%TF.FileFunction,Drillmap*%
%TF.FilePolarity,Positive*%
%FSLAX45Y45*%
G04 Gerber Fmt 4.5, Leading zero omitted, Abs format (unit mm)*
G04 Created by KiCad (PCBNEW 7.0.7) date 2023-12-03 21:52:43*
%MOMM*%
%LPD*%
G01*
G04 APERTURE LIST*
%ADD10C,0.100000*%
%ADD11C,0.200000*%
%ADD12C,0.040000*%
%ADD13C,0.075000*%
%ADD14C,0.080000*%
%ADD15C,0.110000*%
%ADD16C,0.120000*%
%ADD17C,0.130000*%
%ADD18C,0.140000*%
%ADD19C,0.350000*%
G04 APERTURE END LIST*
D10*
X6858000Y-3937000D02*
X21590000Y-3937000D01*
X21590000Y-13081000D01*
X6858000Y-13081000D01*
X6858000Y-3937000D01*
D11*
D12*
X9496280Y-10446940D02*
X9536280Y-10486940D01*
X9536280Y-10446940D02*
X9496280Y-10486940D01*
X10051470Y-10344900D02*
X10091470Y-10384900D01*
X10091470Y-10344900D02*
X10051470Y-10384900D01*
X10250130Y-10546940D02*
X10290130Y-10586940D01*
X10290130Y-10546940D02*
X10250130Y-10586940D01*
X10307410Y-9723780D02*
X10347410Y-9763780D01*
X10347410Y-9723780D02*
X10307410Y-9763780D01*
X10332900Y-9870260D02*
X10372900Y-9910260D01*
X10372900Y-9870260D02*
X10332900Y-9910260D01*
X10404220Y-9796940D02*
X10444220Y-9836940D01*
X10444220Y-9796940D02*
X10404220Y-9836940D01*
X10545320Y-10290280D02*
X10585320Y-10330280D01*
X10585320Y-10290280D02*
X10545320Y-10330280D01*
X10546300Y-10396940D02*
X10586300Y-10436940D01*
X10586300Y-10396940D02*
X10546300Y-10436940D01*
X18947610Y-10767520D02*
X18987610Y-10807520D01*
X18987610Y-10767520D02*
X18947610Y-10807520D01*
D13*
X17790840Y-9804940D02*
G75*
G03*
X17790840Y-9804940I-37500J0D01*
G01*
X17790840Y-10383940D02*
G75*
G03*
X17790840Y-10383940I-37500J0D01*
G01*
X17790840Y-10962940D02*
G75*
G03*
X17790840Y-10962940I-37500J0D01*
G01*
X17790840Y-11541940D02*
G75*
G03*
X17790840Y-11541940I-37500J0D01*
G01*
X17917840Y-9804940D02*
G75*
G03*
X17917840Y-9804940I-37500J0D01*
G01*
X17917840Y-10383940D02*
G75*
G03*
X17917840Y-10383940I-37500J0D01*
G01*
X17917840Y-10962940D02*
G75*
G03*
X17917840Y-10962940I-37500J0D01*
G01*
X17917840Y-11541940D02*
G75*
G03*
X17917840Y-11541940I-37500J0D01*
G01*
X18044840Y-9804940D02*
G75*
G03*
X18044840Y-9804940I-37500J0D01*
G01*
X18044840Y-10383940D02*
G75*
G03*
X18044840Y-10383940I-37500J0D01*
G01*
X18044840Y-10962940D02*
G75*
G03*
X18044840Y-10962940I-37500J0D01*
G01*
X18044840Y-11541940D02*
G75*
G03*
X18044840Y-11541940I-37500J0D01*
G01*
D14*
X19283840Y-11846440D02*
X19283840Y-11926440D01*
X19243840Y-11886440D02*
X19323840Y-11886440D01*
X19283840Y-12100440D02*
X19283840Y-12180440D01*
X19243840Y-12140440D02*
X19323840Y-12140440D01*
X19283840Y-12354440D02*
X19283840Y-12434440D01*
X19243840Y-12394440D02*
X19323840Y-12394440D01*
X19283840Y-12608440D02*
X19283840Y-12688440D01*
X19243840Y-12648440D02*
X19323840Y-12648440D01*
D10*
X10243446Y-8600046D02*
X10243446Y-8529334D01*
X10172734Y-8529334D01*
X10172734Y-8600046D01*
X10243446Y-8600046D01*
X10497446Y-8600046D02*
X10497446Y-8529334D01*
X10426734Y-8529334D01*
X10426734Y-8600046D01*
X10497446Y-8600046D01*
X10751446Y-8600046D02*
X10751446Y-8529334D01*
X10680734Y-8529334D01*
X10680734Y-8600046D01*
X10751446Y-8600046D01*
X11005446Y-8600046D02*
X11005446Y-8529334D01*
X10934734Y-8529334D01*
X10934734Y-8600046D01*
X11005446Y-8600046D01*
X11259446Y-8600046D02*
X11259446Y-8529334D01*
X11188734Y-8529334D01*
X11188734Y-8600046D01*
X11259446Y-8600046D01*
X11513446Y-8600046D02*
X11513446Y-8529334D01*
X11442734Y-8529334D01*
X11442734Y-8600046D01*
X11513446Y-8600046D01*
X11767446Y-8600046D02*
X11767446Y-8529334D01*
X11696734Y-8529334D01*
X11696734Y-8600046D01*
X11767446Y-8600046D01*
X12021446Y-8600046D02*
X12021446Y-8529334D01*
X11950734Y-8529334D01*
X11950734Y-8600046D01*
X12021446Y-8600046D01*
X12275446Y-8600046D02*
X12275446Y-8529334D01*
X12204734Y-8529334D01*
X12204734Y-8600046D01*
X12275446Y-8600046D01*
X12529446Y-8600046D02*
X12529446Y-8529334D01*
X12458734Y-8529334D01*
X12458734Y-8600046D01*
X12529446Y-8600046D01*
X12783446Y-8600046D02*
X12783446Y-8529334D01*
X12712734Y-8529334D01*
X12712734Y-8600046D01*
X12783446Y-8600046D01*
X13037446Y-8600046D02*
X13037446Y-8529334D01*
X12966734Y-8529334D01*
X12966734Y-8600046D01*
X13037446Y-8600046D01*
X13291446Y-8600046D02*
X13291446Y-8529334D01*
X13220734Y-8529334D01*
X13220734Y-8600046D01*
X13291446Y-8600046D01*
X13545446Y-8600046D02*
X13545446Y-8529334D01*
X13474734Y-8529334D01*
X13474734Y-8600046D01*
X13545446Y-8600046D01*
X13799446Y-8600046D02*
X13799446Y-8529334D01*
X13728734Y-8529334D01*
X13728734Y-8600046D01*
X13799446Y-8600046D01*
X14053446Y-8600046D02*
X14053446Y-8529334D01*
X13982734Y-8529334D01*
X13982734Y-8600046D01*
X14053446Y-8600046D01*
X21095446Y-5700046D02*
X21095446Y-5629334D01*
X21024734Y-5629334D01*
X21024734Y-5700046D01*
X21095446Y-5700046D01*
X21095446Y-6100046D02*
X21095446Y-6029334D01*
X21024734Y-6029334D01*
X21024734Y-6100046D01*
X21095446Y-6100046D01*
X21095446Y-6800046D02*
X21095446Y-6729334D01*
X21024734Y-6729334D01*
X21024734Y-6800046D01*
X21095446Y-6800046D01*
X21095446Y-7200046D02*
X21095446Y-7129334D01*
X21024734Y-7129334D01*
X21024734Y-7200046D01*
X21095446Y-7200046D01*
D15*
X7463090Y-5693690D02*
X7518090Y-5638690D01*
X7463090Y-5583690D01*
X7408090Y-5638690D01*
X7463090Y-5693690D01*
X7463090Y-6343690D02*
X7518090Y-6288690D01*
X7463090Y-6233690D01*
X7408090Y-6288690D01*
X7463090Y-6343690D01*
X7492090Y-4550690D02*
X7547090Y-4495690D01*
X7492090Y-4440690D01*
X7437090Y-4495690D01*
X7492090Y-4550690D01*
X7492090Y-5200690D02*
X7547090Y-5145690D01*
X7492090Y-5090690D01*
X7437090Y-5145690D01*
X7492090Y-5200690D01*
X7492090Y-6907690D02*
X7547090Y-6852690D01*
X7492090Y-6797690D01*
X7437090Y-6852690D01*
X7492090Y-6907690D01*
X7492090Y-7557690D02*
X7547090Y-7502690D01*
X7492090Y-7447690D01*
X7437090Y-7502690D01*
X7492090Y-7557690D01*
X7521090Y-7979690D02*
X7576090Y-7924690D01*
X7521090Y-7869690D01*
X7466090Y-7924690D01*
X7521090Y-7979690D01*
X7521090Y-8629690D02*
X7576090Y-8574690D01*
X7521090Y-8519690D01*
X7466090Y-8574690D01*
X7521090Y-8629690D01*
X7913090Y-5693690D02*
X7968090Y-5638690D01*
X7913090Y-5583690D01*
X7858090Y-5638690D01*
X7913090Y-5693690D01*
X7913090Y-6343690D02*
X7968090Y-6288690D01*
X7913090Y-6233690D01*
X7858090Y-6288690D01*
X7913090Y-6343690D01*
X7942090Y-4550690D02*
X7997090Y-4495690D01*
X7942090Y-4440690D01*
X7887090Y-4495690D01*
X7942090Y-4550690D01*
X7942090Y-5200690D02*
X7997090Y-5145690D01*
X7942090Y-5090690D01*
X7887090Y-5145690D01*
X7942090Y-5200690D01*
X7942090Y-6907690D02*
X7997090Y-6852690D01*
X7942090Y-6797690D01*
X7887090Y-6852690D01*
X7942090Y-6907690D01*
X7942090Y-7557690D02*
X7997090Y-7502690D01*
X7942090Y-7447690D01*
X7887090Y-7502690D01*
X7942090Y-7557690D01*
X7971090Y-7979690D02*
X8026090Y-7924690D01*
X7971090Y-7869690D01*
X7916090Y-7924690D01*
X7971090Y-7979690D01*
X7971090Y-8629690D02*
X8026090Y-8574690D01*
X7971090Y-8519690D01*
X7916090Y-8574690D01*
X7971090Y-8629690D01*
X11019090Y-12439690D02*
X11074090Y-12384690D01*
X11019090Y-12329690D01*
X10964090Y-12384690D01*
X11019090Y-12439690D01*
X11273090Y-12439690D02*
X11328090Y-12384690D01*
X11273090Y-12329690D01*
X11218090Y-12384690D01*
X11273090Y-12439690D01*
X11527090Y-12439690D02*
X11582090Y-12384690D01*
X11527090Y-12329690D01*
X11472090Y-12384690D01*
X11527090Y-12439690D01*
X14904090Y-12566690D02*
X14959090Y-12511690D01*
X14904090Y-12456690D01*
X14849090Y-12511690D01*
X14904090Y-12566690D01*
X15920090Y-12566690D02*
X15975090Y-12511690D01*
X15920090Y-12456690D01*
X15865090Y-12511690D01*
X15920090Y-12566690D01*
D16*
X13514340Y-9759940D02*
X13634340Y-9879940D01*
X13634340Y-9759940D02*
X13514340Y-9879940D01*
X13634340Y-9819940D02*
G75*
G03*
X13634340Y-9819940I-60000J0D01*
G01*
X13514340Y-11859940D02*
X13634340Y-11979940D01*
X13634340Y-11859940D02*
X13514340Y-11979940D01*
X13634340Y-11919940D02*
G75*
G03*
X13634340Y-11919940I-60000J0D01*
G01*
X14264340Y-9759940D02*
X14384340Y-9879940D01*
X14384340Y-9759940D02*
X14264340Y-9879940D01*
X14384340Y-9819940D02*
G75*
G03*
X14384340Y-9819940I-60000J0D01*
G01*
X14264340Y-11509940D02*
X14384340Y-11629940D01*
X14384340Y-11509940D02*
X14264340Y-11629940D01*
X14384340Y-11569940D02*
G75*
G03*
X14384340Y-11569940I-60000J0D01*
G01*
X14896090Y-9759940D02*
X15016090Y-9879940D01*
X15016090Y-9759940D02*
X14896090Y-9879940D01*
X15016090Y-9819940D02*
G75*
G03*
X15016090Y-9819940I-60000J0D01*
G01*
X14896090Y-11859940D02*
X15016090Y-11979940D01*
X15016090Y-11859940D02*
X14896090Y-11979940D01*
X15016090Y-11919940D02*
G75*
G03*
X15016090Y-11919940I-60000J0D01*
G01*
X15646090Y-9759940D02*
X15766090Y-9879940D01*
X15766090Y-9759940D02*
X15646090Y-9879940D01*
X15766090Y-9819940D02*
G75*
G03*
X15766090Y-9819940I-60000J0D01*
G01*
X15646090Y-11509940D02*
X15766090Y-11629940D01*
X15766090Y-11509940D02*
X15646090Y-11629940D01*
X15766090Y-11569940D02*
G75*
G03*
X15766090Y-11569940I-60000J0D01*
G01*
X16293090Y-9759940D02*
X16413090Y-9879940D01*
X16413090Y-9759940D02*
X16293090Y-9879940D01*
X16413090Y-9819940D02*
G75*
G03*
X16413090Y-9819940I-60000J0D01*
G01*
X16293090Y-11859940D02*
X16413090Y-11979940D01*
X16413090Y-11859940D02*
X16293090Y-11979940D01*
X16413090Y-11919940D02*
G75*
G03*
X16413090Y-11919940I-60000J0D01*
G01*
X17043090Y-9759940D02*
X17163090Y-9879940D01*
X17163090Y-9759940D02*
X17043090Y-9879940D01*
X17163090Y-9819940D02*
G75*
G03*
X17163090Y-9819940I-60000J0D01*
G01*
X17043090Y-11509940D02*
X17163090Y-11629940D01*
X17163090Y-11509940D02*
X17043090Y-11629940D01*
X17163090Y-11569940D02*
G75*
G03*
X17163090Y-11569940I-60000J0D01*
G01*
D17*
X11597090Y-9527190D02*
X11727090Y-9657190D01*
X11727090Y-9527190D02*
X11597090Y-9657190D01*
X11662090Y-9527190D02*
X11662090Y-9657190D01*
X11597090Y-9592190D02*
X11727090Y-9592190D01*
X11597090Y-10027190D02*
X11727090Y-10157190D01*
X11727090Y-10027190D02*
X11597090Y-10157190D01*
X11662090Y-10027190D02*
X11662090Y-10157190D01*
X11597090Y-10092190D02*
X11727090Y-10092190D01*
X12597090Y-9777190D02*
X12727090Y-9907190D01*
X12727090Y-9777190D02*
X12597090Y-9907190D01*
X12662090Y-9777190D02*
X12662090Y-9907190D01*
X12597090Y-9842190D02*
X12727090Y-9842190D01*
D18*
X7647090Y-9647690D02*
X7787090Y-9787690D01*
X7787090Y-9647690D02*
X7647090Y-9787690D01*
X7766588Y-9767188D02*
X7766588Y-9668192D01*
X7667592Y-9668192D01*
X7667592Y-9767188D01*
X7766588Y-9767188D01*
X7647090Y-10155690D02*
X7787090Y-10295690D01*
X7787090Y-10155690D02*
X7647090Y-10295690D01*
X7766588Y-10275188D02*
X7766588Y-10176192D01*
X7667592Y-10176192D01*
X7667592Y-10275188D01*
X7766588Y-10275188D01*
X7647090Y-10663690D02*
X7787090Y-10803690D01*
X7787090Y-10663690D02*
X7647090Y-10803690D01*
X7766588Y-10783188D02*
X7766588Y-10684192D01*
X7667592Y-10684192D01*
X7667592Y-10783188D01*
X7766588Y-10783188D01*
X7647090Y-11171690D02*
X7787090Y-11311690D01*
X7787090Y-11171690D02*
X7647090Y-11311690D01*
X7766588Y-11291188D02*
X7766588Y-11192192D01*
X7667592Y-11192192D01*
X7667592Y-11291188D01*
X7766588Y-11291188D01*
X7647090Y-11679690D02*
X7787090Y-11819690D01*
X7787090Y-11679690D02*
X7647090Y-11819690D01*
X7766588Y-11799188D02*
X7766588Y-11700192D01*
X7667592Y-11700192D01*
X7667592Y-11799188D01*
X7766588Y-11799188D01*
X7647090Y-12187690D02*
X7787090Y-12327690D01*
X7787090Y-12187690D02*
X7647090Y-12327690D01*
X7766588Y-12307188D02*
X7766588Y-12208192D01*
X7667592Y-12208192D01*
X7667592Y-12307188D01*
X7766588Y-12307188D01*
X20126250Y-11741000D02*
X20266250Y-11881000D01*
X20266250Y-11741000D02*
X20126250Y-11881000D01*
X20245748Y-11860498D02*
X20245748Y-11761502D01*
X20146752Y-11761502D01*
X20146752Y-11860498D01*
X20245748Y-11860498D01*
X20126250Y-12249000D02*
X20266250Y-12389000D01*
X20266250Y-12249000D02*
X20126250Y-12389000D01*
X20245748Y-12368498D02*
X20245748Y-12269502D01*
X20146752Y-12269502D01*
X20146752Y-12368498D01*
X20245748Y-12368498D01*
D19*
X9285090Y-4589690D02*
X9635090Y-4939690D01*
X9635090Y-4589690D02*
X9285090Y-4939690D01*
X9460090Y-4939690D02*
X9635090Y-4764690D01*
X9460090Y-4589690D01*
X9285090Y-4764690D01*
X9460090Y-4939690D01*
X9285090Y-8289690D02*
X9635090Y-8639690D01*
X9635090Y-8289690D02*
X9285090Y-8639690D01*
X9460090Y-8639690D02*
X9635090Y-8464690D01*
X9460090Y-8289690D01*
X9285090Y-8464690D01*
X9460090Y-8639690D01*
X20785090Y-4589690D02*
X21135090Y-4939690D01*
X21135090Y-4589690D02*
X20785090Y-4939690D01*
X20960090Y-4939690D02*
X21135090Y-4764690D01*
X20960090Y-4589690D01*
X20785090Y-4764690D01*
X20960090Y-4939690D01*
X20785090Y-8289690D02*
X21135090Y-8639690D01*
X21135090Y-8289690D02*
X20785090Y-8639690D01*
X20960090Y-8639690D02*
X21135090Y-8464690D01*
X20960090Y-8289690D01*
X20785090Y-8464690D01*
X20960090Y-8639690D01*
D11*
X7113777Y-13397484D02*
X7113777Y-13197484D01*
X7113777Y-13197484D02*
X7161396Y-13197484D01*
X7161396Y-13197484D02*
X7189967Y-13207008D01*
X7189967Y-13207008D02*
X7209015Y-13226055D01*
X7209015Y-13226055D02*
X7218539Y-13245103D01*
X7218539Y-13245103D02*
X7228062Y-13283198D01*
X7228062Y-13283198D02*
X7228062Y-13311769D01*
X7228062Y-13311769D02*
X7218539Y-13349865D01*
X7218539Y-13349865D02*
X7209015Y-13368912D01*
X7209015Y-13368912D02*
X7189967Y-13387960D01*
X7189967Y-13387960D02*
X7161396Y-13397484D01*
X7161396Y-13397484D02*
X7113777Y-13397484D01*
X7313777Y-13397484D02*
X7313777Y-13264150D01*
X7313777Y-13302246D02*
X7323301Y-13283198D01*
X7323301Y-13283198D02*
X7332824Y-13273674D01*
X7332824Y-13273674D02*
X7351872Y-13264150D01*
X7351872Y-13264150D02*
X7370920Y-13264150D01*
X7437586Y-13397484D02*
X7437586Y-13264150D01*
X7437586Y-13197484D02*
X7428062Y-13207008D01*
X7428062Y-13207008D02*
X7437586Y-13216531D01*
X7437586Y-13216531D02*
X7447110Y-13207008D01*
X7447110Y-13207008D02*
X7437586Y-13197484D01*
X7437586Y-13197484D02*
X7437586Y-13216531D01*
X7561396Y-13397484D02*
X7542348Y-13387960D01*
X7542348Y-13387960D02*
X7532824Y-13368912D01*
X7532824Y-13368912D02*
X7532824Y-13197484D01*
X7666158Y-13397484D02*
X7647110Y-13387960D01*
X7647110Y-13387960D02*
X7637586Y-13368912D01*
X7637586Y-13368912D02*
X7637586Y-13197484D01*
X7894729Y-13397484D02*
X7894729Y-13197484D01*
X7894729Y-13197484D02*
X7961396Y-13340341D01*
X7961396Y-13340341D02*
X8028062Y-13197484D01*
X8028062Y-13197484D02*
X8028062Y-13397484D01*
X8209015Y-13397484D02*
X8209015Y-13292722D01*
X8209015Y-13292722D02*
X8199491Y-13273674D01*
X8199491Y-13273674D02*
X8180443Y-13264150D01*
X8180443Y-13264150D02*
X8142348Y-13264150D01*
X8142348Y-13264150D02*
X8123301Y-13273674D01*
X8209015Y-13387960D02*
X8189967Y-13397484D01*
X8189967Y-13397484D02*
X8142348Y-13397484D01*
X8142348Y-13397484D02*
X8123301Y-13387960D01*
X8123301Y-13387960D02*
X8113777Y-13368912D01*
X8113777Y-13368912D02*
X8113777Y-13349865D01*
X8113777Y-13349865D02*
X8123301Y-13330817D01*
X8123301Y-13330817D02*
X8142348Y-13321293D01*
X8142348Y-13321293D02*
X8189967Y-13321293D01*
X8189967Y-13321293D02*
X8209015Y-13311769D01*
X8304253Y-13264150D02*
X8304253Y-13464150D01*
X8304253Y-13273674D02*
X8323301Y-13264150D01*
X8323301Y-13264150D02*
X8361396Y-13264150D01*
X8361396Y-13264150D02*
X8380443Y-13273674D01*
X8380443Y-13273674D02*
X8389967Y-13283198D01*
X8389967Y-13283198D02*
X8399491Y-13302246D01*
X8399491Y-13302246D02*
X8399491Y-13359388D01*
X8399491Y-13359388D02*
X8389967Y-13378436D01*
X8389967Y-13378436D02*
X8380443Y-13387960D01*
X8380443Y-13387960D02*
X8361396Y-13397484D01*
X8361396Y-13397484D02*
X8323301Y-13397484D01*
X8323301Y-13397484D02*
X8304253Y-13387960D01*
X8485205Y-13378436D02*
X8494729Y-13387960D01*
X8494729Y-13387960D02*
X8485205Y-13397484D01*
X8485205Y-13397484D02*
X8475682Y-13387960D01*
X8475682Y-13387960D02*
X8485205Y-13378436D01*
X8485205Y-13378436D02*
X8485205Y-13397484D01*
X8485205Y-13273674D02*
X8494729Y-13283198D01*
X8494729Y-13283198D02*
X8485205Y-13292722D01*
X8485205Y-13292722D02*
X8475682Y-13283198D01*
X8475682Y-13283198D02*
X8485205Y-13273674D01*
X8485205Y-13273674D02*
X8485205Y-13292722D01*
D12*
X6813000Y-13706000D02*
X6853000Y-13746000D01*
X6853000Y-13706000D02*
X6813000Y-13746000D01*
D11*
X7151872Y-13617484D02*
X7170920Y-13617484D01*
X7170920Y-13617484D02*
X7189967Y-13627008D01*
X7189967Y-13627008D02*
X7199491Y-13636531D01*
X7199491Y-13636531D02*
X7209015Y-13655579D01*
X7209015Y-13655579D02*
X7218539Y-13693674D01*
X7218539Y-13693674D02*
X7218539Y-13741293D01*
X7218539Y-13741293D02*
X7209015Y-13779388D01*
X7209015Y-13779388D02*
X7199491Y-13798436D01*
X7199491Y-13798436D02*
X7189967Y-13807960D01*
X7189967Y-13807960D02*
X7170920Y-13817484D01*
X7170920Y-13817484D02*
X7151872Y-13817484D01*
X7151872Y-13817484D02*
X7132824Y-13807960D01*
X7132824Y-13807960D02*
X7123301Y-13798436D01*
X7123301Y-13798436D02*
X7113777Y-13779388D01*
X7113777Y-13779388D02*
X7104253Y-13741293D01*
X7104253Y-13741293D02*
X7104253Y-13693674D01*
X7104253Y-13693674D02*
X7113777Y-13655579D01*
X7113777Y-13655579D02*
X7123301Y-13636531D01*
X7123301Y-13636531D02*
X7132824Y-13627008D01*
X7132824Y-13627008D02*
X7151872Y-13617484D01*
X7304253Y-13798436D02*
X7313777Y-13807960D01*
X7313777Y-13807960D02*
X7304253Y-13817484D01*
X7304253Y-13817484D02*
X7294729Y-13807960D01*
X7294729Y-13807960D02*
X7304253Y-13798436D01*
X7304253Y-13798436D02*
X7304253Y-13817484D01*
X7485205Y-13684150D02*
X7485205Y-13817484D01*
X7437586Y-13607960D02*
X7389967Y-13750817D01*
X7389967Y-13750817D02*
X7513777Y-13750817D01*
X7628062Y-13617484D02*
X7647110Y-13617484D01*
X7647110Y-13617484D02*
X7666158Y-13627008D01*
X7666158Y-13627008D02*
X7675682Y-13636531D01*
X7675682Y-13636531D02*
X7685205Y-13655579D01*
X7685205Y-13655579D02*
X7694729Y-13693674D01*
X7694729Y-13693674D02*
X7694729Y-13741293D01*
X7694729Y-13741293D02*
X7685205Y-13779388D01*
X7685205Y-13779388D02*
X7675682Y-13798436D01*
X7675682Y-13798436D02*
X7666158Y-13807960D01*
X7666158Y-13807960D02*
X7647110Y-13817484D01*
X7647110Y-13817484D02*
X7628062Y-13817484D01*
X7628062Y-13817484D02*
X7609015Y-13807960D01*
X7609015Y-13807960D02*
X7599491Y-13798436D01*
X7599491Y-13798436D02*
X7589967Y-13779388D01*
X7589967Y-13779388D02*
X7580443Y-13741293D01*
X7580443Y-13741293D02*
X7580443Y-13693674D01*
X7580443Y-13693674D02*
X7589967Y-13655579D01*
X7589967Y-13655579D02*
X7599491Y-13636531D01*
X7599491Y-13636531D02*
X7609015Y-13627008D01*
X7609015Y-13627008D02*
X7628062Y-13617484D01*
X7818539Y-13617484D02*
X7837586Y-13617484D01*
X7837586Y-13617484D02*
X7856634Y-13627008D01*
X7856634Y-13627008D02*
X7866158Y-13636531D01*
X7866158Y-13636531D02*
X7875682Y-13655579D01*
X7875682Y-13655579D02*
X7885205Y-13693674D01*
X7885205Y-13693674D02*
X7885205Y-13741293D01*
X7885205Y-13741293D02*
X7875682Y-13779388D01*
X7875682Y-13779388D02*
X7866158Y-13798436D01*
X7866158Y-13798436D02*
X7856634Y-13807960D01*
X7856634Y-13807960D02*
X7837586Y-13817484D01*
X7837586Y-13817484D02*
X7818539Y-13817484D01*
X7818539Y-13817484D02*
X7799491Y-13807960D01*
X7799491Y-13807960D02*
X7789967Y-13798436D01*
X7789967Y-13798436D02*
X7780443Y-13779388D01*
X7780443Y-13779388D02*
X7770920Y-13741293D01*
X7770920Y-13741293D02*
X7770920Y-13693674D01*
X7770920Y-13693674D02*
X7780443Y-13655579D01*
X7780443Y-13655579D02*
X7789967Y-13636531D01*
X7789967Y-13636531D02*
X7799491Y-13627008D01*
X7799491Y-13627008D02*
X7818539Y-13617484D01*
X7970920Y-13817484D02*
X7970920Y-13684150D01*
X7970920Y-13703198D02*
X7980443Y-13693674D01*
X7980443Y-13693674D02*
X7999491Y-13684150D01*
X7999491Y-13684150D02*
X8028063Y-13684150D01*
X8028063Y-13684150D02*
X8047110Y-13693674D01*
X8047110Y-13693674D02*
X8056634Y-13712722D01*
X8056634Y-13712722D02*
X8056634Y-13817484D01*
X8056634Y-13712722D02*
X8066158Y-13693674D01*
X8066158Y-13693674D02*
X8085205Y-13684150D01*
X8085205Y-13684150D02*
X8113777Y-13684150D01*
X8113777Y-13684150D02*
X8132824Y-13693674D01*
X8132824Y-13693674D02*
X8142348Y-13712722D01*
X8142348Y-13712722D02*
X8142348Y-13817484D01*
X8237586Y-13817484D02*
X8237586Y-13684150D01*
X8237586Y-13703198D02*
X8247110Y-13693674D01*
X8247110Y-13693674D02*
X8266158Y-13684150D01*
X8266158Y-13684150D02*
X8294729Y-13684150D01*
X8294729Y-13684150D02*
X8313777Y-13693674D01*
X8313777Y-13693674D02*
X8323301Y-13712722D01*
X8323301Y-13712722D02*
X8323301Y-13817484D01*
X8323301Y-13712722D02*
X8332824Y-13693674D01*
X8332824Y-13693674D02*
X8351872Y-13684150D01*
X8351872Y-13684150D02*
X8380443Y-13684150D01*
X8380443Y-13684150D02*
X8399491Y-13693674D01*
X8399491Y-13693674D02*
X8409015Y-13712722D01*
X8409015Y-13712722D02*
X8409015Y-13817484D01*
X8799491Y-13607960D02*
X8628063Y-13865103D01*
X9056634Y-13617484D02*
X9075682Y-13617484D01*
X9075682Y-13617484D02*
X9094729Y-13627008D01*
X9094729Y-13627008D02*
X9104253Y-13636531D01*
X9104253Y-13636531D02*
X9113777Y-13655579D01*
X9113777Y-13655579D02*
X9123301Y-13693674D01*
X9123301Y-13693674D02*
X9123301Y-13741293D01*
X9123301Y-13741293D02*
X9113777Y-13779388D01*
X9113777Y-13779388D02*
X9104253Y-13798436D01*
X9104253Y-13798436D02*
X9094729Y-13807960D01*
X9094729Y-13807960D02*
X9075682Y-13817484D01*
X9075682Y-13817484D02*
X9056634Y-13817484D01*
X9056634Y-13817484D02*
X9037587Y-13807960D01*
X9037587Y-13807960D02*
X9028063Y-13798436D01*
X9028063Y-13798436D02*
X9018539Y-13779388D01*
X9018539Y-13779388D02*
X9009015Y-13741293D01*
X9009015Y-13741293D02*
X9009015Y-13693674D01*
X9009015Y-13693674D02*
X9018539Y-13655579D01*
X9018539Y-13655579D02*
X9028063Y-13636531D01*
X9028063Y-13636531D02*
X9037587Y-13627008D01*
X9037587Y-13627008D02*
X9056634Y-13617484D01*
X9209015Y-13798436D02*
X9218539Y-13807960D01*
X9218539Y-13807960D02*
X9209015Y-13817484D01*
X9209015Y-13817484D02*
X9199491Y-13807960D01*
X9199491Y-13807960D02*
X9209015Y-13798436D01*
X9209015Y-13798436D02*
X9209015Y-13817484D01*
X9342348Y-13617484D02*
X9361396Y-13617484D01*
X9361396Y-13617484D02*
X9380444Y-13627008D01*
X9380444Y-13627008D02*
X9389968Y-13636531D01*
X9389968Y-13636531D02*
X9399491Y-13655579D01*
X9399491Y-13655579D02*
X9409015Y-13693674D01*
X9409015Y-13693674D02*
X9409015Y-13741293D01*
X9409015Y-13741293D02*
X9399491Y-13779388D01*
X9399491Y-13779388D02*
X9389968Y-13798436D01*
X9389968Y-13798436D02*
X9380444Y-13807960D01*
X9380444Y-13807960D02*
X9361396Y-13817484D01*
X9361396Y-13817484D02*
X9342348Y-13817484D01*
X9342348Y-13817484D02*
X9323301Y-13807960D01*
X9323301Y-13807960D02*
X9313777Y-13798436D01*
X9313777Y-13798436D02*
X9304253Y-13779388D01*
X9304253Y-13779388D02*
X9294729Y-13741293D01*
X9294729Y-13741293D02*
X9294729Y-13693674D01*
X9294729Y-13693674D02*
X9304253Y-13655579D01*
X9304253Y-13655579D02*
X9313777Y-13636531D01*
X9313777Y-13636531D02*
X9323301Y-13627008D01*
X9323301Y-13627008D02*
X9342348Y-13617484D01*
X9599491Y-13817484D02*
X9485206Y-13817484D01*
X9542348Y-13817484D02*
X9542348Y-13617484D01*
X9542348Y-13617484D02*
X9523301Y-13646055D01*
X9523301Y-13646055D02*
X9504253Y-13665103D01*
X9504253Y-13665103D02*
X9485206Y-13674627D01*
X9780444Y-13617484D02*
X9685206Y-13617484D01*
X9685206Y-13617484D02*
X9675682Y-13712722D01*
X9675682Y-13712722D02*
X9685206Y-13703198D01*
X9685206Y-13703198D02*
X9704253Y-13693674D01*
X9704253Y-13693674D02*
X9751872Y-13693674D01*
X9751872Y-13693674D02*
X9770920Y-13703198D01*
X9770920Y-13703198D02*
X9780444Y-13712722D01*
X9780444Y-13712722D02*
X9789968Y-13731769D01*
X9789968Y-13731769D02*
X9789968Y-13779388D01*
X9789968Y-13779388D02*
X9780444Y-13798436D01*
X9780444Y-13798436D02*
X9770920Y-13807960D01*
X9770920Y-13807960D02*
X9751872Y-13817484D01*
X9751872Y-13817484D02*
X9704253Y-13817484D01*
X9704253Y-13817484D02*
X9685206Y-13807960D01*
X9685206Y-13807960D02*
X9675682Y-13798436D01*
X9856634Y-13617484D02*
X9989968Y-13617484D01*
X9989968Y-13617484D02*
X9904253Y-13817484D01*
X10056634Y-13617484D02*
X10056634Y-13655579D01*
X10132825Y-13617484D02*
X10132825Y-13655579D01*
X10428063Y-13893674D02*
X10418539Y-13884150D01*
X10418539Y-13884150D02*
X10399491Y-13855579D01*
X10399491Y-13855579D02*
X10389968Y-13836531D01*
X10389968Y-13836531D02*
X10380444Y-13807960D01*
X10380444Y-13807960D02*
X10370920Y-13760341D01*
X10370920Y-13760341D02*
X10370920Y-13722246D01*
X10370920Y-13722246D02*
X10380444Y-13674627D01*
X10380444Y-13674627D02*
X10389968Y-13646055D01*
X10389968Y-13646055D02*
X10399491Y-13627008D01*
X10399491Y-13627008D02*
X10418539Y-13598436D01*
X10418539Y-13598436D02*
X10428063Y-13588912D01*
X10513777Y-13817484D02*
X10551872Y-13817484D01*
X10551872Y-13817484D02*
X10570920Y-13807960D01*
X10570920Y-13807960D02*
X10580444Y-13798436D01*
X10580444Y-13798436D02*
X10599491Y-13769865D01*
X10599491Y-13769865D02*
X10609015Y-13731769D01*
X10609015Y-13731769D02*
X10609015Y-13655579D01*
X10609015Y-13655579D02*
X10599491Y-13636531D01*
X10599491Y-13636531D02*
X10589968Y-13627008D01*
X10589968Y-13627008D02*
X10570920Y-13617484D01*
X10570920Y-13617484D02*
X10532825Y-13617484D01*
X10532825Y-13617484D02*
X10513777Y-13627008D01*
X10513777Y-13627008D02*
X10504253Y-13636531D01*
X10504253Y-13636531D02*
X10494730Y-13655579D01*
X10494730Y-13655579D02*
X10494730Y-13703198D01*
X10494730Y-13703198D02*
X10504253Y-13722246D01*
X10504253Y-13722246D02*
X10513777Y-13731769D01*
X10513777Y-13731769D02*
X10532825Y-13741293D01*
X10532825Y-13741293D02*
X10570920Y-13741293D01*
X10570920Y-13741293D02*
X10589968Y-13731769D01*
X10589968Y-13731769D02*
X10599491Y-13722246D01*
X10599491Y-13722246D02*
X10609015Y-13703198D01*
X10847111Y-13817484D02*
X10847111Y-13617484D01*
X10932825Y-13817484D02*
X10932825Y-13712722D01*
X10932825Y-13712722D02*
X10923301Y-13693674D01*
X10923301Y-13693674D02*
X10904253Y-13684150D01*
X10904253Y-13684150D02*
X10875682Y-13684150D01*
X10875682Y-13684150D02*
X10856634Y-13693674D01*
X10856634Y-13693674D02*
X10847111Y-13703198D01*
X11056634Y-13817484D02*
X11037587Y-13807960D01*
X11037587Y-13807960D02*
X11028063Y-13798436D01*
X11028063Y-13798436D02*
X11018539Y-13779388D01*
X11018539Y-13779388D02*
X11018539Y-13722246D01*
X11018539Y-13722246D02*
X11028063Y-13703198D01*
X11028063Y-13703198D02*
X11037587Y-13693674D01*
X11037587Y-13693674D02*
X11056634Y-13684150D01*
X11056634Y-13684150D02*
X11085206Y-13684150D01*
X11085206Y-13684150D02*
X11104253Y-13693674D01*
X11104253Y-13693674D02*
X11113777Y-13703198D01*
X11113777Y-13703198D02*
X11123301Y-13722246D01*
X11123301Y-13722246D02*
X11123301Y-13779388D01*
X11123301Y-13779388D02*
X11113777Y-13798436D01*
X11113777Y-13798436D02*
X11104253Y-13807960D01*
X11104253Y-13807960D02*
X11085206Y-13817484D01*
X11085206Y-13817484D02*
X11056634Y-13817484D01*
X11237587Y-13817484D02*
X11218539Y-13807960D01*
X11218539Y-13807960D02*
X11209015Y-13788912D01*
X11209015Y-13788912D02*
X11209015Y-13617484D01*
X11389968Y-13807960D02*
X11370920Y-13817484D01*
X11370920Y-13817484D02*
X11332825Y-13817484D01*
X11332825Y-13817484D02*
X11313777Y-13807960D01*
X11313777Y-13807960D02*
X11304253Y-13788912D01*
X11304253Y-13788912D02*
X11304253Y-13712722D01*
X11304253Y-13712722D02*
X11313777Y-13693674D01*
X11313777Y-13693674D02*
X11332825Y-13684150D01*
X11332825Y-13684150D02*
X11370920Y-13684150D01*
X11370920Y-13684150D02*
X11389968Y-13693674D01*
X11389968Y-13693674D02*
X11399491Y-13712722D01*
X11399491Y-13712722D02*
X11399491Y-13731769D01*
X11399491Y-13731769D02*
X11304253Y-13750817D01*
X11475682Y-13807960D02*
X11494730Y-13817484D01*
X11494730Y-13817484D02*
X11532825Y-13817484D01*
X11532825Y-13817484D02*
X11551872Y-13807960D01*
X11551872Y-13807960D02*
X11561396Y-13788912D01*
X11561396Y-13788912D02*
X11561396Y-13779388D01*
X11561396Y-13779388D02*
X11551872Y-13760341D01*
X11551872Y-13760341D02*
X11532825Y-13750817D01*
X11532825Y-13750817D02*
X11504253Y-13750817D01*
X11504253Y-13750817D02*
X11485206Y-13741293D01*
X11485206Y-13741293D02*
X11475682Y-13722246D01*
X11475682Y-13722246D02*
X11475682Y-13712722D01*
X11475682Y-13712722D02*
X11485206Y-13693674D01*
X11485206Y-13693674D02*
X11504253Y-13684150D01*
X11504253Y-13684150D02*
X11532825Y-13684150D01*
X11532825Y-13684150D02*
X11551872Y-13693674D01*
X11628063Y-13893674D02*
X11637587Y-13884150D01*
X11637587Y-13884150D02*
X11656634Y-13855579D01*
X11656634Y-13855579D02*
X11666158Y-13836531D01*
X11666158Y-13836531D02*
X11675682Y-13807960D01*
X11675682Y-13807960D02*
X11685206Y-13760341D01*
X11685206Y-13760341D02*
X11685206Y-13722246D01*
X11685206Y-13722246D02*
X11675682Y-13674627D01*
X11675682Y-13674627D02*
X11666158Y-13646055D01*
X11666158Y-13646055D02*
X11656634Y-13627008D01*
X11656634Y-13627008D02*
X11637587Y-13598436D01*
X11637587Y-13598436D02*
X11628063Y-13588912D01*
D13*
X6853000Y-13990000D02*
G75*
G03*
X6853000Y-13990000I-37500J0D01*
G01*
D11*
X7151872Y-13881484D02*
X7170920Y-13881484D01*
X7170920Y-13881484D02*
X7189967Y-13891008D01*
X7189967Y-13891008D02*
X7199491Y-13900531D01*
X7199491Y-13900531D02*
X7209015Y-13919579D01*
X7209015Y-13919579D02*
X7218539Y-13957674D01*
X7218539Y-13957674D02*
X7218539Y-14005293D01*
X7218539Y-14005293D02*
X7209015Y-14043388D01*
X7209015Y-14043388D02*
X7199491Y-14062436D01*
X7199491Y-14062436D02*
X7189967Y-14071960D01*
X7189967Y-14071960D02*
X7170920Y-14081484D01*
X7170920Y-14081484D02*
X7151872Y-14081484D01*
X7151872Y-14081484D02*
X7132824Y-14071960D01*
X7132824Y-14071960D02*
X7123301Y-14062436D01*
X7123301Y-14062436D02*
X7113777Y-14043388D01*
X7113777Y-14043388D02*
X7104253Y-14005293D01*
X7104253Y-14005293D02*
X7104253Y-13957674D01*
X7104253Y-13957674D02*
X7113777Y-13919579D01*
X7113777Y-13919579D02*
X7123301Y-13900531D01*
X7123301Y-13900531D02*
X7132824Y-13891008D01*
X7132824Y-13891008D02*
X7151872Y-13881484D01*
X7304253Y-14062436D02*
X7313777Y-14071960D01*
X7313777Y-14071960D02*
X7304253Y-14081484D01*
X7304253Y-14081484D02*
X7294729Y-14071960D01*
X7294729Y-14071960D02*
X7304253Y-14062436D01*
X7304253Y-14062436D02*
X7304253Y-14081484D01*
X7380443Y-13881484D02*
X7513777Y-13881484D01*
X7513777Y-13881484D02*
X7428062Y-14081484D01*
X7685205Y-13881484D02*
X7589967Y-13881484D01*
X7589967Y-13881484D02*
X7580443Y-13976722D01*
X7580443Y-13976722D02*
X7589967Y-13967198D01*
X7589967Y-13967198D02*
X7609015Y-13957674D01*
X7609015Y-13957674D02*
X7656634Y-13957674D01*
X7656634Y-13957674D02*
X7675682Y-13967198D01*
X7675682Y-13967198D02*
X7685205Y-13976722D01*
X7685205Y-13976722D02*
X7694729Y-13995769D01*
X7694729Y-13995769D02*
X7694729Y-14043388D01*
X7694729Y-14043388D02*
X7685205Y-14062436D01*
X7685205Y-14062436D02*
X7675682Y-14071960D01*
X7675682Y-14071960D02*
X7656634Y-14081484D01*
X7656634Y-14081484D02*
X7609015Y-14081484D01*
X7609015Y-14081484D02*
X7589967Y-14071960D01*
X7589967Y-14071960D02*
X7580443Y-14062436D01*
X7818539Y-13881484D02*
X7837586Y-13881484D01*
X7837586Y-13881484D02*
X7856634Y-13891008D01*
X7856634Y-13891008D02*
X7866158Y-13900531D01*
X7866158Y-13900531D02*
X7875682Y-13919579D01*
X7875682Y-13919579D02*
X7885205Y-13957674D01*
X7885205Y-13957674D02*
X7885205Y-14005293D01*
X7885205Y-14005293D02*
X7875682Y-14043388D01*
X7875682Y-14043388D02*
X7866158Y-14062436D01*
X7866158Y-14062436D02*
X7856634Y-14071960D01*
X7856634Y-14071960D02*
X7837586Y-14081484D01*
X7837586Y-14081484D02*
X7818539Y-14081484D01*
X7818539Y-14081484D02*
X7799491Y-14071960D01*
X7799491Y-14071960D02*
X7789967Y-14062436D01*
X7789967Y-14062436D02*
X7780443Y-14043388D01*
X7780443Y-14043388D02*
X7770920Y-14005293D01*
X7770920Y-14005293D02*
X7770920Y-13957674D01*
X7770920Y-13957674D02*
X7780443Y-13919579D01*
X7780443Y-13919579D02*
X7789967Y-13900531D01*
X7789967Y-13900531D02*
X7799491Y-13891008D01*
X7799491Y-13891008D02*
X7818539Y-13881484D01*
X7970920Y-14081484D02*
X7970920Y-13948150D01*
X7970920Y-13967198D02*
X7980443Y-13957674D01*
X7980443Y-13957674D02*
X7999491Y-13948150D01*
X7999491Y-13948150D02*
X8028063Y-13948150D01*
X8028063Y-13948150D02*
X8047110Y-13957674D01*
X8047110Y-13957674D02*
X8056634Y-13976722D01*
X8056634Y-13976722D02*
X8056634Y-14081484D01*
X8056634Y-13976722D02*
X8066158Y-13957674D01*
X8066158Y-13957674D02*
X8085205Y-13948150D01*
X8085205Y-13948150D02*
X8113777Y-13948150D01*
X8113777Y-13948150D02*
X8132824Y-13957674D01*
X8132824Y-13957674D02*
X8142348Y-13976722D01*
X8142348Y-13976722D02*
X8142348Y-14081484D01*
X8237586Y-14081484D02*
X8237586Y-13948150D01*
X8237586Y-13967198D02*
X8247110Y-13957674D01*
X8247110Y-13957674D02*
X8266158Y-13948150D01*
X8266158Y-13948150D02*
X8294729Y-13948150D01*
X8294729Y-13948150D02*
X8313777Y-13957674D01*
X8313777Y-13957674D02*
X8323301Y-13976722D01*
X8323301Y-13976722D02*
X8323301Y-14081484D01*
X8323301Y-13976722D02*
X8332824Y-13957674D01*
X8332824Y-13957674D02*
X8351872Y-13948150D01*
X8351872Y-13948150D02*
X8380443Y-13948150D01*
X8380443Y-13948150D02*
X8399491Y-13957674D01*
X8399491Y-13957674D02*
X8409015Y-13976722D01*
X8409015Y-13976722D02*
X8409015Y-14081484D01*
X8799491Y-13871960D02*
X8628063Y-14129103D01*
X9056634Y-13881484D02*
X9075682Y-13881484D01*
X9075682Y-13881484D02*
X9094729Y-13891008D01*
X9094729Y-13891008D02*
X9104253Y-13900531D01*
X9104253Y-13900531D02*
X9113777Y-13919579D01*
X9113777Y-13919579D02*
X9123301Y-13957674D01*
X9123301Y-13957674D02*
X9123301Y-14005293D01*
X9123301Y-14005293D02*
X9113777Y-14043388D01*
X9113777Y-14043388D02*
X9104253Y-14062436D01*
X9104253Y-14062436D02*
X9094729Y-14071960D01*
X9094729Y-14071960D02*
X9075682Y-14081484D01*
X9075682Y-14081484D02*
X9056634Y-14081484D01*
X9056634Y-14081484D02*
X9037587Y-14071960D01*
X9037587Y-14071960D02*
X9028063Y-14062436D01*
X9028063Y-14062436D02*
X9018539Y-14043388D01*
X9018539Y-14043388D02*
X9009015Y-14005293D01*
X9009015Y-14005293D02*
X9009015Y-13957674D01*
X9009015Y-13957674D02*
X9018539Y-13919579D01*
X9018539Y-13919579D02*
X9028063Y-13900531D01*
X9028063Y-13900531D02*
X9037587Y-13891008D01*
X9037587Y-13891008D02*
X9056634Y-13881484D01*
X9209015Y-14062436D02*
X9218539Y-14071960D01*
X9218539Y-14071960D02*
X9209015Y-14081484D01*
X9209015Y-14081484D02*
X9199491Y-14071960D01*
X9199491Y-14071960D02*
X9209015Y-14062436D01*
X9209015Y-14062436D02*
X9209015Y-14081484D01*
X9342348Y-13881484D02*
X9361396Y-13881484D01*
X9361396Y-13881484D02*
X9380444Y-13891008D01*
X9380444Y-13891008D02*
X9389968Y-13900531D01*
X9389968Y-13900531D02*
X9399491Y-13919579D01*
X9399491Y-13919579D02*
X9409015Y-13957674D01*
X9409015Y-13957674D02*
X9409015Y-14005293D01*
X9409015Y-14005293D02*
X9399491Y-14043388D01*
X9399491Y-14043388D02*
X9389968Y-14062436D01*
X9389968Y-14062436D02*
X9380444Y-14071960D01*
X9380444Y-14071960D02*
X9361396Y-14081484D01*
X9361396Y-14081484D02*
X9342348Y-14081484D01*
X9342348Y-14081484D02*
X9323301Y-14071960D01*
X9323301Y-14071960D02*
X9313777Y-14062436D01*
X9313777Y-14062436D02*
X9304253Y-14043388D01*
X9304253Y-14043388D02*
X9294729Y-14005293D01*
X9294729Y-14005293D02*
X9294729Y-13957674D01*
X9294729Y-13957674D02*
X9304253Y-13919579D01*
X9304253Y-13919579D02*
X9313777Y-13900531D01*
X9313777Y-13900531D02*
X9323301Y-13891008D01*
X9323301Y-13891008D02*
X9342348Y-13881484D01*
X9485206Y-13900531D02*
X9494729Y-13891008D01*
X9494729Y-13891008D02*
X9513777Y-13881484D01*
X9513777Y-13881484D02*
X9561396Y-13881484D01*
X9561396Y-13881484D02*
X9580444Y-13891008D01*
X9580444Y-13891008D02*
X9589968Y-13900531D01*
X9589968Y-13900531D02*
X9599491Y-13919579D01*
X9599491Y-13919579D02*
X9599491Y-13938627D01*
X9599491Y-13938627D02*
X9589968Y-13967198D01*
X9589968Y-13967198D02*
X9475682Y-14081484D01*
X9475682Y-14081484D02*
X9599491Y-14081484D01*
X9694729Y-14081484D02*
X9732825Y-14081484D01*
X9732825Y-14081484D02*
X9751872Y-14071960D01*
X9751872Y-14071960D02*
X9761396Y-14062436D01*
X9761396Y-14062436D02*
X9780444Y-14033865D01*
X9780444Y-14033865D02*
X9789968Y-13995769D01*
X9789968Y-13995769D02*
X9789968Y-13919579D01*
X9789968Y-13919579D02*
X9780444Y-13900531D01*
X9780444Y-13900531D02*
X9770920Y-13891008D01*
X9770920Y-13891008D02*
X9751872Y-13881484D01*
X9751872Y-13881484D02*
X9713777Y-13881484D01*
X9713777Y-13881484D02*
X9694729Y-13891008D01*
X9694729Y-13891008D02*
X9685206Y-13900531D01*
X9685206Y-13900531D02*
X9675682Y-13919579D01*
X9675682Y-13919579D02*
X9675682Y-13967198D01*
X9675682Y-13967198D02*
X9685206Y-13986246D01*
X9685206Y-13986246D02*
X9694729Y-13995769D01*
X9694729Y-13995769D02*
X9713777Y-14005293D01*
X9713777Y-14005293D02*
X9751872Y-14005293D01*
X9751872Y-14005293D02*
X9770920Y-13995769D01*
X9770920Y-13995769D02*
X9780444Y-13986246D01*
X9780444Y-13986246D02*
X9789968Y-13967198D01*
X9970920Y-13881484D02*
X9875682Y-13881484D01*
X9875682Y-13881484D02*
X9866158Y-13976722D01*
X9866158Y-13976722D02*
X9875682Y-13967198D01*
X9875682Y-13967198D02*
X9894729Y-13957674D01*
X9894729Y-13957674D02*
X9942349Y-13957674D01*
X9942349Y-13957674D02*
X9961396Y-13967198D01*
X9961396Y-13967198D02*
X9970920Y-13976722D01*
X9970920Y-13976722D02*
X9980444Y-13995769D01*
X9980444Y-13995769D02*
X9980444Y-14043388D01*
X9980444Y-14043388D02*
X9970920Y-14062436D01*
X9970920Y-14062436D02*
X9961396Y-14071960D01*
X9961396Y-14071960D02*
X9942349Y-14081484D01*
X9942349Y-14081484D02*
X9894729Y-14081484D01*
X9894729Y-14081484D02*
X9875682Y-14071960D01*
X9875682Y-14071960D02*
X9866158Y-14062436D01*
X10056634Y-13881484D02*
X10056634Y-13919579D01*
X10132825Y-13881484D02*
X10132825Y-13919579D01*
X10428063Y-14157674D02*
X10418539Y-14148150D01*
X10418539Y-14148150D02*
X10399491Y-14119579D01*
X10399491Y-14119579D02*
X10389968Y-14100531D01*
X10389968Y-14100531D02*
X10380444Y-14071960D01*
X10380444Y-14071960D02*
X10370920Y-14024341D01*
X10370920Y-14024341D02*
X10370920Y-13986246D01*
X10370920Y-13986246D02*
X10380444Y-13938627D01*
X10380444Y-13938627D02*
X10389968Y-13910055D01*
X10389968Y-13910055D02*
X10399491Y-13891008D01*
X10399491Y-13891008D02*
X10418539Y-13862436D01*
X10418539Y-13862436D02*
X10428063Y-13852912D01*
X10609015Y-14081484D02*
X10494730Y-14081484D01*
X10551872Y-14081484D02*
X10551872Y-13881484D01*
X10551872Y-13881484D02*
X10532825Y-13910055D01*
X10532825Y-13910055D02*
X10513777Y-13929103D01*
X10513777Y-13929103D02*
X10494730Y-13938627D01*
X10685206Y-13900531D02*
X10694730Y-13891008D01*
X10694730Y-13891008D02*
X10713777Y-13881484D01*
X10713777Y-13881484D02*
X10761396Y-13881484D01*
X10761396Y-13881484D02*
X10780444Y-13891008D01*
X10780444Y-13891008D02*
X10789968Y-13900531D01*
X10789968Y-13900531D02*
X10799491Y-13919579D01*
X10799491Y-13919579D02*
X10799491Y-13938627D01*
X10799491Y-13938627D02*
X10789968Y-13967198D01*
X10789968Y-13967198D02*
X10675682Y-14081484D01*
X10675682Y-14081484D02*
X10799491Y-14081484D01*
X11037587Y-14081484D02*
X11037587Y-13881484D01*
X11123301Y-14081484D02*
X11123301Y-13976722D01*
X11123301Y-13976722D02*
X11113777Y-13957674D01*
X11113777Y-13957674D02*
X11094730Y-13948150D01*
X11094730Y-13948150D02*
X11066158Y-13948150D01*
X11066158Y-13948150D02*
X11047111Y-13957674D01*
X11047111Y-13957674D02*
X11037587Y-13967198D01*
X11247110Y-14081484D02*
X11228063Y-14071960D01*
X11228063Y-14071960D02*
X11218539Y-14062436D01*
X11218539Y-14062436D02*
X11209015Y-14043388D01*
X11209015Y-14043388D02*
X11209015Y-13986246D01*
X11209015Y-13986246D02*
X11218539Y-13967198D01*
X11218539Y-13967198D02*
X11228063Y-13957674D01*
X11228063Y-13957674D02*
X11247110Y-13948150D01*
X11247110Y-13948150D02*
X11275682Y-13948150D01*
X11275682Y-13948150D02*
X11294730Y-13957674D01*
X11294730Y-13957674D02*
X11304253Y-13967198D01*
X11304253Y-13967198D02*
X11313777Y-13986246D01*
X11313777Y-13986246D02*
X11313777Y-14043388D01*
X11313777Y-14043388D02*
X11304253Y-14062436D01*
X11304253Y-14062436D02*
X11294730Y-14071960D01*
X11294730Y-14071960D02*
X11275682Y-14081484D01*
X11275682Y-14081484D02*
X11247110Y-14081484D01*
X11428063Y-14081484D02*
X11409015Y-14071960D01*
X11409015Y-14071960D02*
X11399491Y-14052912D01*
X11399491Y-14052912D02*
X11399491Y-13881484D01*
X11580444Y-14071960D02*
X11561396Y-14081484D01*
X11561396Y-14081484D02*
X11523301Y-14081484D01*
X11523301Y-14081484D02*
X11504253Y-14071960D01*
X11504253Y-14071960D02*
X11494730Y-14052912D01*
X11494730Y-14052912D02*
X11494730Y-13976722D01*
X11494730Y-13976722D02*
X11504253Y-13957674D01*
X11504253Y-13957674D02*
X11523301Y-13948150D01*
X11523301Y-13948150D02*
X11561396Y-13948150D01*
X11561396Y-13948150D02*
X11580444Y-13957674D01*
X11580444Y-13957674D02*
X11589968Y-13976722D01*
X11589968Y-13976722D02*
X11589968Y-13995769D01*
X11589968Y-13995769D02*
X11494730Y-14014817D01*
X11666158Y-14071960D02*
X11685206Y-14081484D01*
X11685206Y-14081484D02*
X11723301Y-14081484D01*
X11723301Y-14081484D02*
X11742349Y-14071960D01*
X11742349Y-14071960D02*
X11751872Y-14052912D01*
X11751872Y-14052912D02*
X11751872Y-14043388D01*
X11751872Y-14043388D02*
X11742349Y-14024341D01*
X11742349Y-14024341D02*
X11723301Y-14014817D01*
X11723301Y-14014817D02*
X11694730Y-14014817D01*
X11694730Y-14014817D02*
X11675682Y-14005293D01*
X11675682Y-14005293D02*
X11666158Y-13986246D01*
X11666158Y-13986246D02*
X11666158Y-13976722D01*
X11666158Y-13976722D02*
X11675682Y-13957674D01*
X11675682Y-13957674D02*
X11694730Y-13948150D01*
X11694730Y-13948150D02*
X11723301Y-13948150D01*
X11723301Y-13948150D02*
X11742349Y-13957674D01*
X11818539Y-14157674D02*
X11828063Y-14148150D01*
X11828063Y-14148150D02*
X11847111Y-14119579D01*
X11847111Y-14119579D02*
X11856634Y-14100531D01*
X11856634Y-14100531D02*
X11866158Y-14071960D01*
X11866158Y-14071960D02*
X11875682Y-14024341D01*
X11875682Y-14024341D02*
X11875682Y-13986246D01*
X11875682Y-13986246D02*
X11866158Y-13938627D01*
X11866158Y-13938627D02*
X11856634Y-13910055D01*
X11856634Y-13910055D02*
X11847111Y-13891008D01*
X11847111Y-13891008D02*
X11828063Y-13862436D01*
X11828063Y-13862436D02*
X11818539Y-13852912D01*
D14*
X6813000Y-14214000D02*
X6813000Y-14294000D01*
X6773000Y-14254000D02*
X6853000Y-14254000D01*
D11*
X7151872Y-14145484D02*
X7170920Y-14145484D01*
X7170920Y-14145484D02*
X7189967Y-14155008D01*
X7189967Y-14155008D02*
X7199491Y-14164531D01*
X7199491Y-14164531D02*
X7209015Y-14183579D01*
X7209015Y-14183579D02*
X7218539Y-14221674D01*
X7218539Y-14221674D02*
X7218539Y-14269293D01*
X7218539Y-14269293D02*
X7209015Y-14307388D01*
X7209015Y-14307388D02*
X7199491Y-14326436D01*
X7199491Y-14326436D02*
X7189967Y-14335960D01*
X7189967Y-14335960D02*
X7170920Y-14345484D01*
X7170920Y-14345484D02*
X7151872Y-14345484D01*
X7151872Y-14345484D02*
X7132824Y-14335960D01*
X7132824Y-14335960D02*
X7123301Y-14326436D01*
X7123301Y-14326436D02*
X7113777Y-14307388D01*
X7113777Y-14307388D02*
X7104253Y-14269293D01*
X7104253Y-14269293D02*
X7104253Y-14221674D01*
X7104253Y-14221674D02*
X7113777Y-14183579D01*
X7113777Y-14183579D02*
X7123301Y-14164531D01*
X7123301Y-14164531D02*
X7132824Y-14155008D01*
X7132824Y-14155008D02*
X7151872Y-14145484D01*
X7304253Y-14326436D02*
X7313777Y-14335960D01*
X7313777Y-14335960D02*
X7304253Y-14345484D01*
X7304253Y-14345484D02*
X7294729Y-14335960D01*
X7294729Y-14335960D02*
X7304253Y-14326436D01*
X7304253Y-14326436D02*
X7304253Y-14345484D01*
X7428062Y-14231198D02*
X7409015Y-14221674D01*
X7409015Y-14221674D02*
X7399491Y-14212150D01*
X7399491Y-14212150D02*
X7389967Y-14193103D01*
X7389967Y-14193103D02*
X7389967Y-14183579D01*
X7389967Y-14183579D02*
X7399491Y-14164531D01*
X7399491Y-14164531D02*
X7409015Y-14155008D01*
X7409015Y-14155008D02*
X7428062Y-14145484D01*
X7428062Y-14145484D02*
X7466158Y-14145484D01*
X7466158Y-14145484D02*
X7485205Y-14155008D01*
X7485205Y-14155008D02*
X7494729Y-14164531D01*
X7494729Y-14164531D02*
X7504253Y-14183579D01*
X7504253Y-14183579D02*
X7504253Y-14193103D01*
X7504253Y-14193103D02*
X7494729Y-14212150D01*
X7494729Y-14212150D02*
X7485205Y-14221674D01*
X7485205Y-14221674D02*
X7466158Y-14231198D01*
X7466158Y-14231198D02*
X7428062Y-14231198D01*
X7428062Y-14231198D02*
X7409015Y-14240722D01*
X7409015Y-14240722D02*
X7399491Y-14250246D01*
X7399491Y-14250246D02*
X7389967Y-14269293D01*
X7389967Y-14269293D02*
X7389967Y-14307388D01*
X7389967Y-14307388D02*
X7399491Y-14326436D01*
X7399491Y-14326436D02*
X7409015Y-14335960D01*
X7409015Y-14335960D02*
X7428062Y-14345484D01*
X7428062Y-14345484D02*
X7466158Y-14345484D01*
X7466158Y-14345484D02*
X7485205Y-14335960D01*
X7485205Y-14335960D02*
X7494729Y-14326436D01*
X7494729Y-14326436D02*
X7504253Y-14307388D01*
X7504253Y-14307388D02*
X7504253Y-14269293D01*
X7504253Y-14269293D02*
X7494729Y-14250246D01*
X7494729Y-14250246D02*
X7485205Y-14240722D01*
X7485205Y-14240722D02*
X7466158Y-14231198D01*
X7628062Y-14145484D02*
X7647110Y-14145484D01*
X7647110Y-14145484D02*
X7666158Y-14155008D01*
X7666158Y-14155008D02*
X7675682Y-14164531D01*
X7675682Y-14164531D02*
X7685205Y-14183579D01*
X7685205Y-14183579D02*
X7694729Y-14221674D01*
X7694729Y-14221674D02*
X7694729Y-14269293D01*
X7694729Y-14269293D02*
X7685205Y-14307388D01*
X7685205Y-14307388D02*
X7675682Y-14326436D01*
X7675682Y-14326436D02*
X7666158Y-14335960D01*
X7666158Y-14335960D02*
X7647110Y-14345484D01*
X7647110Y-14345484D02*
X7628062Y-14345484D01*
X7628062Y-14345484D02*
X7609015Y-14335960D01*
X7609015Y-14335960D02*
X7599491Y-14326436D01*
X7599491Y-14326436D02*
X7589967Y-14307388D01*
X7589967Y-14307388D02*
X7580443Y-14269293D01*
X7580443Y-14269293D02*
X7580443Y-14221674D01*
X7580443Y-14221674D02*
X7589967Y-14183579D01*
X7589967Y-14183579D02*
X7599491Y-14164531D01*
X7599491Y-14164531D02*
X7609015Y-14155008D01*
X7609015Y-14155008D02*
X7628062Y-14145484D01*
X7818539Y-14145484D02*
X7837586Y-14145484D01*
X7837586Y-14145484D02*
X7856634Y-14155008D01*
X7856634Y-14155008D02*
X7866158Y-14164531D01*
X7866158Y-14164531D02*
X7875682Y-14183579D01*
X7875682Y-14183579D02*
X7885205Y-14221674D01*
X7885205Y-14221674D02*
X7885205Y-14269293D01*
X7885205Y-14269293D02*
X7875682Y-14307388D01*
X7875682Y-14307388D02*
X7866158Y-14326436D01*
X7866158Y-14326436D02*
X7856634Y-14335960D01*
X7856634Y-14335960D02*
X7837586Y-14345484D01*
X7837586Y-14345484D02*
X7818539Y-14345484D01*
X7818539Y-14345484D02*
X7799491Y-14335960D01*
X7799491Y-14335960D02*
X7789967Y-14326436D01*
X7789967Y-14326436D02*
X7780443Y-14307388D01*
X7780443Y-14307388D02*
X7770920Y-14269293D01*
X7770920Y-14269293D02*
X7770920Y-14221674D01*
X7770920Y-14221674D02*
X7780443Y-14183579D01*
X7780443Y-14183579D02*
X7789967Y-14164531D01*
X7789967Y-14164531D02*
X7799491Y-14155008D01*
X7799491Y-14155008D02*
X7818539Y-14145484D01*
X7970920Y-14345484D02*
X7970920Y-14212150D01*
X7970920Y-14231198D02*
X7980443Y-14221674D01*
X7980443Y-14221674D02*
X7999491Y-14212150D01*
X7999491Y-14212150D02*
X8028063Y-14212150D01*
X8028063Y-14212150D02*
X8047110Y-14221674D01*
X8047110Y-14221674D02*
X8056634Y-14240722D01*
X8056634Y-14240722D02*
X8056634Y-14345484D01*
X8056634Y-14240722D02*
X8066158Y-14221674D01*
X8066158Y-14221674D02*
X8085205Y-14212150D01*
X8085205Y-14212150D02*
X8113777Y-14212150D01*
X8113777Y-14212150D02*
X8132824Y-14221674D01*
X8132824Y-14221674D02*
X8142348Y-14240722D01*
X8142348Y-14240722D02*
X8142348Y-14345484D01*
X8237586Y-14345484D02*
X8237586Y-14212150D01*
X8237586Y-14231198D02*
X8247110Y-14221674D01*
X8247110Y-14221674D02*
X8266158Y-14212150D01*
X8266158Y-14212150D02*
X8294729Y-14212150D01*
X8294729Y-14212150D02*
X8313777Y-14221674D01*
X8313777Y-14221674D02*
X8323301Y-14240722D01*
X8323301Y-14240722D02*
X8323301Y-14345484D01*
X8323301Y-14240722D02*
X8332824Y-14221674D01*
X8332824Y-14221674D02*
X8351872Y-14212150D01*
X8351872Y-14212150D02*
X8380443Y-14212150D01*
X8380443Y-14212150D02*
X8399491Y-14221674D01*
X8399491Y-14221674D02*
X8409015Y-14240722D01*
X8409015Y-14240722D02*
X8409015Y-14345484D01*
X8799491Y-14135960D02*
X8628063Y-14393103D01*
X9056634Y-14145484D02*
X9075682Y-14145484D01*
X9075682Y-14145484D02*
X9094729Y-14155008D01*
X9094729Y-14155008D02*
X9104253Y-14164531D01*
X9104253Y-14164531D02*
X9113777Y-14183579D01*
X9113777Y-14183579D02*
X9123301Y-14221674D01*
X9123301Y-14221674D02*
X9123301Y-14269293D01*
X9123301Y-14269293D02*
X9113777Y-14307388D01*
X9113777Y-14307388D02*
X9104253Y-14326436D01*
X9104253Y-14326436D02*
X9094729Y-14335960D01*
X9094729Y-14335960D02*
X9075682Y-14345484D01*
X9075682Y-14345484D02*
X9056634Y-14345484D01*
X9056634Y-14345484D02*
X9037587Y-14335960D01*
X9037587Y-14335960D02*
X9028063Y-14326436D01*
X9028063Y-14326436D02*
X9018539Y-14307388D01*
X9018539Y-14307388D02*
X9009015Y-14269293D01*
X9009015Y-14269293D02*
X9009015Y-14221674D01*
X9009015Y-14221674D02*
X9018539Y-14183579D01*
X9018539Y-14183579D02*
X9028063Y-14164531D01*
X9028063Y-14164531D02*
X9037587Y-14155008D01*
X9037587Y-14155008D02*
X9056634Y-14145484D01*
X9209015Y-14326436D02*
X9218539Y-14335960D01*
X9218539Y-14335960D02*
X9209015Y-14345484D01*
X9209015Y-14345484D02*
X9199491Y-14335960D01*
X9199491Y-14335960D02*
X9209015Y-14326436D01*
X9209015Y-14326436D02*
X9209015Y-14345484D01*
X9342348Y-14145484D02*
X9361396Y-14145484D01*
X9361396Y-14145484D02*
X9380444Y-14155008D01*
X9380444Y-14155008D02*
X9389968Y-14164531D01*
X9389968Y-14164531D02*
X9399491Y-14183579D01*
X9399491Y-14183579D02*
X9409015Y-14221674D01*
X9409015Y-14221674D02*
X9409015Y-14269293D01*
X9409015Y-14269293D02*
X9399491Y-14307388D01*
X9399491Y-14307388D02*
X9389968Y-14326436D01*
X9389968Y-14326436D02*
X9380444Y-14335960D01*
X9380444Y-14335960D02*
X9361396Y-14345484D01*
X9361396Y-14345484D02*
X9342348Y-14345484D01*
X9342348Y-14345484D02*
X9323301Y-14335960D01*
X9323301Y-14335960D02*
X9313777Y-14326436D01*
X9313777Y-14326436D02*
X9304253Y-14307388D01*
X9304253Y-14307388D02*
X9294729Y-14269293D01*
X9294729Y-14269293D02*
X9294729Y-14221674D01*
X9294729Y-14221674D02*
X9304253Y-14183579D01*
X9304253Y-14183579D02*
X9313777Y-14164531D01*
X9313777Y-14164531D02*
X9323301Y-14155008D01*
X9323301Y-14155008D02*
X9342348Y-14145484D01*
X9475682Y-14145484D02*
X9599491Y-14145484D01*
X9599491Y-14145484D02*
X9532825Y-14221674D01*
X9532825Y-14221674D02*
X9561396Y-14221674D01*
X9561396Y-14221674D02*
X9580444Y-14231198D01*
X9580444Y-14231198D02*
X9589968Y-14240722D01*
X9589968Y-14240722D02*
X9599491Y-14259769D01*
X9599491Y-14259769D02*
X9599491Y-14307388D01*
X9599491Y-14307388D02*
X9589968Y-14326436D01*
X9589968Y-14326436D02*
X9580444Y-14335960D01*
X9580444Y-14335960D02*
X9561396Y-14345484D01*
X9561396Y-14345484D02*
X9504253Y-14345484D01*
X9504253Y-14345484D02*
X9485206Y-14335960D01*
X9485206Y-14335960D02*
X9475682Y-14326436D01*
X9789968Y-14345484D02*
X9675682Y-14345484D01*
X9732825Y-14345484D02*
X9732825Y-14145484D01*
X9732825Y-14145484D02*
X9713777Y-14174055D01*
X9713777Y-14174055D02*
X9694729Y-14193103D01*
X9694729Y-14193103D02*
X9675682Y-14202627D01*
X9970920Y-14145484D02*
X9875682Y-14145484D01*
X9875682Y-14145484D02*
X9866158Y-14240722D01*
X9866158Y-14240722D02*
X9875682Y-14231198D01*
X9875682Y-14231198D02*
X9894729Y-14221674D01*
X9894729Y-14221674D02*
X9942349Y-14221674D01*
X9942349Y-14221674D02*
X9961396Y-14231198D01*
X9961396Y-14231198D02*
X9970920Y-14240722D01*
X9970920Y-14240722D02*
X9980444Y-14259769D01*
X9980444Y-14259769D02*
X9980444Y-14307388D01*
X9980444Y-14307388D02*
X9970920Y-14326436D01*
X9970920Y-14326436D02*
X9961396Y-14335960D01*
X9961396Y-14335960D02*
X9942349Y-14345484D01*
X9942349Y-14345484D02*
X9894729Y-14345484D01*
X9894729Y-14345484D02*
X9875682Y-14335960D01*
X9875682Y-14335960D02*
X9866158Y-14326436D01*
X10056634Y-14145484D02*
X10056634Y-14183579D01*
X10132825Y-14145484D02*
X10132825Y-14183579D01*
X10428063Y-14421674D02*
X10418539Y-14412150D01*
X10418539Y-14412150D02*
X10399491Y-14383579D01*
X10399491Y-14383579D02*
X10389968Y-14364531D01*
X10389968Y-14364531D02*
X10380444Y-14335960D01*
X10380444Y-14335960D02*
X10370920Y-14288341D01*
X10370920Y-14288341D02*
X10370920Y-14250246D01*
X10370920Y-14250246D02*
X10380444Y-14202627D01*
X10380444Y-14202627D02*
X10389968Y-14174055D01*
X10389968Y-14174055D02*
X10399491Y-14155008D01*
X10399491Y-14155008D02*
X10418539Y-14126436D01*
X10418539Y-14126436D02*
X10428063Y-14116912D01*
X10589968Y-14212150D02*
X10589968Y-14345484D01*
X10542349Y-14135960D02*
X10494730Y-14278817D01*
X10494730Y-14278817D02*
X10618539Y-14278817D01*
X10847111Y-14345484D02*
X10847111Y-14145484D01*
X10932825Y-14345484D02*
X10932825Y-14240722D01*
X10932825Y-14240722D02*
X10923301Y-14221674D01*
X10923301Y-14221674D02*
X10904253Y-14212150D01*
X10904253Y-14212150D02*
X10875682Y-14212150D01*
X10875682Y-14212150D02*
X10856634Y-14221674D01*
X10856634Y-14221674D02*
X10847111Y-14231198D01*
X11056634Y-14345484D02*
X11037587Y-14335960D01*
X11037587Y-14335960D02*
X11028063Y-14326436D01*
X11028063Y-14326436D02*
X11018539Y-14307388D01*
X11018539Y-14307388D02*
X11018539Y-14250246D01*
X11018539Y-14250246D02*
X11028063Y-14231198D01*
X11028063Y-14231198D02*
X11037587Y-14221674D01*
X11037587Y-14221674D02*
X11056634Y-14212150D01*
X11056634Y-14212150D02*
X11085206Y-14212150D01*
X11085206Y-14212150D02*
X11104253Y-14221674D01*
X11104253Y-14221674D02*
X11113777Y-14231198D01*
X11113777Y-14231198D02*
X11123301Y-14250246D01*
X11123301Y-14250246D02*
X11123301Y-14307388D01*
X11123301Y-14307388D02*
X11113777Y-14326436D01*
X11113777Y-14326436D02*
X11104253Y-14335960D01*
X11104253Y-14335960D02*
X11085206Y-14345484D01*
X11085206Y-14345484D02*
X11056634Y-14345484D01*
X11237587Y-14345484D02*
X11218539Y-14335960D01*
X11218539Y-14335960D02*
X11209015Y-14316912D01*
X11209015Y-14316912D02*
X11209015Y-14145484D01*
X11389968Y-14335960D02*
X11370920Y-14345484D01*
X11370920Y-14345484D02*
X11332825Y-14345484D01*
X11332825Y-14345484D02*
X11313777Y-14335960D01*
X11313777Y-14335960D02*
X11304253Y-14316912D01*
X11304253Y-14316912D02*
X11304253Y-14240722D01*
X11304253Y-14240722D02*
X11313777Y-14221674D01*
X11313777Y-14221674D02*
X11332825Y-14212150D01*
X11332825Y-14212150D02*
X11370920Y-14212150D01*
X11370920Y-14212150D02*
X11389968Y-14221674D01*
X11389968Y-14221674D02*
X11399491Y-14240722D01*
X11399491Y-14240722D02*
X11399491Y-14259769D01*
X11399491Y-14259769D02*
X11304253Y-14278817D01*
X11475682Y-14335960D02*
X11494730Y-14345484D01*
X11494730Y-14345484D02*
X11532825Y-14345484D01*
X11532825Y-14345484D02*
X11551872Y-14335960D01*
X11551872Y-14335960D02*
X11561396Y-14316912D01*
X11561396Y-14316912D02*
X11561396Y-14307388D01*
X11561396Y-14307388D02*
X11551872Y-14288341D01*
X11551872Y-14288341D02*
X11532825Y-14278817D01*
X11532825Y-14278817D02*
X11504253Y-14278817D01*
X11504253Y-14278817D02*
X11485206Y-14269293D01*
X11485206Y-14269293D02*
X11475682Y-14250246D01*
X11475682Y-14250246D02*
X11475682Y-14240722D01*
X11475682Y-14240722D02*
X11485206Y-14221674D01*
X11485206Y-14221674D02*
X11504253Y-14212150D01*
X11504253Y-14212150D02*
X11532825Y-14212150D01*
X11532825Y-14212150D02*
X11551872Y-14221674D01*
X11628063Y-14421674D02*
X11637587Y-14412150D01*
X11637587Y-14412150D02*
X11656634Y-14383579D01*
X11656634Y-14383579D02*
X11666158Y-14364531D01*
X11666158Y-14364531D02*
X11675682Y-14335960D01*
X11675682Y-14335960D02*
X11685206Y-14288341D01*
X11685206Y-14288341D02*
X11685206Y-14250246D01*
X11685206Y-14250246D02*
X11675682Y-14202627D01*
X11675682Y-14202627D02*
X11666158Y-14174055D01*
X11666158Y-14174055D02*
X11656634Y-14155008D01*
X11656634Y-14155008D02*
X11637587Y-14126436D01*
X11637587Y-14126436D02*
X11628063Y-14116912D01*
D10*
X6838356Y-14553356D02*
X6838356Y-14482644D01*
X6767644Y-14482644D01*
X6767644Y-14553356D01*
X6838356Y-14553356D01*
D11*
X7218539Y-14609484D02*
X7104253Y-14609484D01*
X7161396Y-14609484D02*
X7161396Y-14409484D01*
X7161396Y-14409484D02*
X7142348Y-14438055D01*
X7142348Y-14438055D02*
X7123301Y-14457103D01*
X7123301Y-14457103D02*
X7104253Y-14466627D01*
X7304253Y-14590436D02*
X7313777Y-14599960D01*
X7313777Y-14599960D02*
X7304253Y-14609484D01*
X7304253Y-14609484D02*
X7294729Y-14599960D01*
X7294729Y-14599960D02*
X7304253Y-14590436D01*
X7304253Y-14590436D02*
X7304253Y-14609484D01*
X7437586Y-14409484D02*
X7456634Y-14409484D01*
X7456634Y-14409484D02*
X7475682Y-14419008D01*
X7475682Y-14419008D02*
X7485205Y-14428531D01*
X7485205Y-14428531D02*
X7494729Y-14447579D01*
X7494729Y-14447579D02*
X7504253Y-14485674D01*
X7504253Y-14485674D02*
X7504253Y-14533293D01*
X7504253Y-14533293D02*
X7494729Y-14571388D01*
X7494729Y-14571388D02*
X7485205Y-14590436D01*
X7485205Y-14590436D02*
X7475682Y-14599960D01*
X7475682Y-14599960D02*
X7456634Y-14609484D01*
X7456634Y-14609484D02*
X7437586Y-14609484D01*
X7437586Y-14609484D02*
X7418539Y-14599960D01*
X7418539Y-14599960D02*
X7409015Y-14590436D01*
X7409015Y-14590436D02*
X7399491Y-14571388D01*
X7399491Y-14571388D02*
X7389967Y-14533293D01*
X7389967Y-14533293D02*
X7389967Y-14485674D01*
X7389967Y-14485674D02*
X7399491Y-14447579D01*
X7399491Y-14447579D02*
X7409015Y-14428531D01*
X7409015Y-14428531D02*
X7418539Y-14419008D01*
X7418539Y-14419008D02*
X7437586Y-14409484D01*
X7628062Y-14409484D02*
X7647110Y-14409484D01*
X7647110Y-14409484D02*
X7666158Y-14419008D01*
X7666158Y-14419008D02*
X7675682Y-14428531D01*
X7675682Y-14428531D02*
X7685205Y-14447579D01*
X7685205Y-14447579D02*
X7694729Y-14485674D01*
X7694729Y-14485674D02*
X7694729Y-14533293D01*
X7694729Y-14533293D02*
X7685205Y-14571388D01*
X7685205Y-14571388D02*
X7675682Y-14590436D01*
X7675682Y-14590436D02*
X7666158Y-14599960D01*
X7666158Y-14599960D02*
X7647110Y-14609484D01*
X7647110Y-14609484D02*
X7628062Y-14609484D01*
X7628062Y-14609484D02*
X7609015Y-14599960D01*
X7609015Y-14599960D02*
X7599491Y-14590436D01*
X7599491Y-14590436D02*
X7589967Y-14571388D01*
X7589967Y-14571388D02*
X7580443Y-14533293D01*
X7580443Y-14533293D02*
X7580443Y-14485674D01*
X7580443Y-14485674D02*
X7589967Y-14447579D01*
X7589967Y-14447579D02*
X7599491Y-14428531D01*
X7599491Y-14428531D02*
X7609015Y-14419008D01*
X7609015Y-14419008D02*
X7628062Y-14409484D01*
X7818539Y-14409484D02*
X7837586Y-14409484D01*
X7837586Y-14409484D02*
X7856634Y-14419008D01*
X7856634Y-14419008D02*
X7866158Y-14428531D01*
X7866158Y-14428531D02*
X7875682Y-14447579D01*
X7875682Y-14447579D02*
X7885205Y-14485674D01*
X7885205Y-14485674D02*
X7885205Y-14533293D01*
X7885205Y-14533293D02*
X7875682Y-14571388D01*
X7875682Y-14571388D02*
X7866158Y-14590436D01*
X7866158Y-14590436D02*
X7856634Y-14599960D01*
X7856634Y-14599960D02*
X7837586Y-14609484D01*
X7837586Y-14609484D02*
X7818539Y-14609484D01*
X7818539Y-14609484D02*
X7799491Y-14599960D01*
X7799491Y-14599960D02*
X7789967Y-14590436D01*
X7789967Y-14590436D02*
X7780443Y-14571388D01*
X7780443Y-14571388D02*
X7770920Y-14533293D01*
X7770920Y-14533293D02*
X7770920Y-14485674D01*
X7770920Y-14485674D02*
X7780443Y-14447579D01*
X7780443Y-14447579D02*
X7789967Y-14428531D01*
X7789967Y-14428531D02*
X7799491Y-14419008D01*
X7799491Y-14419008D02*
X7818539Y-14409484D01*
X7970920Y-14609484D02*
X7970920Y-14476150D01*
X7970920Y-14495198D02*
X7980443Y-14485674D01*
X7980443Y-14485674D02*
X7999491Y-14476150D01*
X7999491Y-14476150D02*
X8028063Y-14476150D01*
X8028063Y-14476150D02*
X8047110Y-14485674D01*
X8047110Y-14485674D02*
X8056634Y-14504722D01*
X8056634Y-14504722D02*
X8056634Y-14609484D01*
X8056634Y-14504722D02*
X8066158Y-14485674D01*
X8066158Y-14485674D02*
X8085205Y-14476150D01*
X8085205Y-14476150D02*
X8113777Y-14476150D01*
X8113777Y-14476150D02*
X8132824Y-14485674D01*
X8132824Y-14485674D02*
X8142348Y-14504722D01*
X8142348Y-14504722D02*
X8142348Y-14609484D01*
X8237586Y-14609484D02*
X8237586Y-14476150D01*
X8237586Y-14495198D02*
X8247110Y-14485674D01*
X8247110Y-14485674D02*
X8266158Y-14476150D01*
X8266158Y-14476150D02*
X8294729Y-14476150D01*
X8294729Y-14476150D02*
X8313777Y-14485674D01*
X8313777Y-14485674D02*
X8323301Y-14504722D01*
X8323301Y-14504722D02*
X8323301Y-14609484D01*
X8323301Y-14504722D02*
X8332824Y-14485674D01*
X8332824Y-14485674D02*
X8351872Y-14476150D01*
X8351872Y-14476150D02*
X8380443Y-14476150D01*
X8380443Y-14476150D02*
X8399491Y-14485674D01*
X8399491Y-14485674D02*
X8409015Y-14504722D01*
X8409015Y-14504722D02*
X8409015Y-14609484D01*
X8799491Y-14399960D02*
X8628063Y-14657103D01*
X9056634Y-14409484D02*
X9075682Y-14409484D01*
X9075682Y-14409484D02*
X9094729Y-14419008D01*
X9094729Y-14419008D02*
X9104253Y-14428531D01*
X9104253Y-14428531D02*
X9113777Y-14447579D01*
X9113777Y-14447579D02*
X9123301Y-14485674D01*
X9123301Y-14485674D02*
X9123301Y-14533293D01*
X9123301Y-14533293D02*
X9113777Y-14571388D01*
X9113777Y-14571388D02*
X9104253Y-14590436D01*
X9104253Y-14590436D02*
X9094729Y-14599960D01*
X9094729Y-14599960D02*
X9075682Y-14609484D01*
X9075682Y-14609484D02*
X9056634Y-14609484D01*
X9056634Y-14609484D02*
X9037587Y-14599960D01*
X9037587Y-14599960D02*
X9028063Y-14590436D01*
X9028063Y-14590436D02*
X9018539Y-14571388D01*
X9018539Y-14571388D02*
X9009015Y-14533293D01*
X9009015Y-14533293D02*
X9009015Y-14485674D01*
X9009015Y-14485674D02*
X9018539Y-14447579D01*
X9018539Y-14447579D02*
X9028063Y-14428531D01*
X9028063Y-14428531D02*
X9037587Y-14419008D01*
X9037587Y-14419008D02*
X9056634Y-14409484D01*
X9209015Y-14590436D02*
X9218539Y-14599960D01*
X9218539Y-14599960D02*
X9209015Y-14609484D01*
X9209015Y-14609484D02*
X9199491Y-14599960D01*
X9199491Y-14599960D02*
X9209015Y-14590436D01*
X9209015Y-14590436D02*
X9209015Y-14609484D01*
X9342348Y-14409484D02*
X9361396Y-14409484D01*
X9361396Y-14409484D02*
X9380444Y-14419008D01*
X9380444Y-14419008D02*
X9389968Y-14428531D01*
X9389968Y-14428531D02*
X9399491Y-14447579D01*
X9399491Y-14447579D02*
X9409015Y-14485674D01*
X9409015Y-14485674D02*
X9409015Y-14533293D01*
X9409015Y-14533293D02*
X9399491Y-14571388D01*
X9399491Y-14571388D02*
X9389968Y-14590436D01*
X9389968Y-14590436D02*
X9380444Y-14599960D01*
X9380444Y-14599960D02*
X9361396Y-14609484D01*
X9361396Y-14609484D02*
X9342348Y-14609484D01*
X9342348Y-14609484D02*
X9323301Y-14599960D01*
X9323301Y-14599960D02*
X9313777Y-14590436D01*
X9313777Y-14590436D02*
X9304253Y-14571388D01*
X9304253Y-14571388D02*
X9294729Y-14533293D01*
X9294729Y-14533293D02*
X9294729Y-14485674D01*
X9294729Y-14485674D02*
X9304253Y-14447579D01*
X9304253Y-14447579D02*
X9313777Y-14428531D01*
X9313777Y-14428531D02*
X9323301Y-14419008D01*
X9323301Y-14419008D02*
X9342348Y-14409484D01*
X9475682Y-14409484D02*
X9599491Y-14409484D01*
X9599491Y-14409484D02*
X9532825Y-14485674D01*
X9532825Y-14485674D02*
X9561396Y-14485674D01*
X9561396Y-14485674D02*
X9580444Y-14495198D01*
X9580444Y-14495198D02*
X9589968Y-14504722D01*
X9589968Y-14504722D02*
X9599491Y-14523769D01*
X9599491Y-14523769D02*
X9599491Y-14571388D01*
X9599491Y-14571388D02*
X9589968Y-14590436D01*
X9589968Y-14590436D02*
X9580444Y-14599960D01*
X9580444Y-14599960D02*
X9561396Y-14609484D01*
X9561396Y-14609484D02*
X9504253Y-14609484D01*
X9504253Y-14609484D02*
X9485206Y-14599960D01*
X9485206Y-14599960D02*
X9475682Y-14590436D01*
X9694729Y-14609484D02*
X9732825Y-14609484D01*
X9732825Y-14609484D02*
X9751872Y-14599960D01*
X9751872Y-14599960D02*
X9761396Y-14590436D01*
X9761396Y-14590436D02*
X9780444Y-14561865D01*
X9780444Y-14561865D02*
X9789968Y-14523769D01*
X9789968Y-14523769D02*
X9789968Y-14447579D01*
X9789968Y-14447579D02*
X9780444Y-14428531D01*
X9780444Y-14428531D02*
X9770920Y-14419008D01*
X9770920Y-14419008D02*
X9751872Y-14409484D01*
X9751872Y-14409484D02*
X9713777Y-14409484D01*
X9713777Y-14409484D02*
X9694729Y-14419008D01*
X9694729Y-14419008D02*
X9685206Y-14428531D01*
X9685206Y-14428531D02*
X9675682Y-14447579D01*
X9675682Y-14447579D02*
X9675682Y-14495198D01*
X9675682Y-14495198D02*
X9685206Y-14514246D01*
X9685206Y-14514246D02*
X9694729Y-14523769D01*
X9694729Y-14523769D02*
X9713777Y-14533293D01*
X9713777Y-14533293D02*
X9751872Y-14533293D01*
X9751872Y-14533293D02*
X9770920Y-14523769D01*
X9770920Y-14523769D02*
X9780444Y-14514246D01*
X9780444Y-14514246D02*
X9789968Y-14495198D01*
X9961396Y-14476150D02*
X9961396Y-14609484D01*
X9913777Y-14399960D02*
X9866158Y-14542817D01*
X9866158Y-14542817D02*
X9989968Y-14542817D01*
X10056634Y-14409484D02*
X10056634Y-14447579D01*
X10132825Y-14409484D02*
X10132825Y-14447579D01*
X10428063Y-14685674D02*
X10418539Y-14676150D01*
X10418539Y-14676150D02*
X10399491Y-14647579D01*
X10399491Y-14647579D02*
X10389968Y-14628531D01*
X10389968Y-14628531D02*
X10380444Y-14599960D01*
X10380444Y-14599960D02*
X10370920Y-14552341D01*
X10370920Y-14552341D02*
X10370920Y-14514246D01*
X10370920Y-14514246D02*
X10380444Y-14466627D01*
X10380444Y-14466627D02*
X10389968Y-14438055D01*
X10389968Y-14438055D02*
X10399491Y-14419008D01*
X10399491Y-14419008D02*
X10418539Y-14390436D01*
X10418539Y-14390436D02*
X10428063Y-14380912D01*
X10494730Y-14428531D02*
X10504253Y-14419008D01*
X10504253Y-14419008D02*
X10523301Y-14409484D01*
X10523301Y-14409484D02*
X10570920Y-14409484D01*
X10570920Y-14409484D02*
X10589968Y-14419008D01*
X10589968Y-14419008D02*
X10599491Y-14428531D01*
X10599491Y-14428531D02*
X10609015Y-14447579D01*
X10609015Y-14447579D02*
X10609015Y-14466627D01*
X10609015Y-14466627D02*
X10599491Y-14495198D01*
X10599491Y-14495198D02*
X10485206Y-14609484D01*
X10485206Y-14609484D02*
X10609015Y-14609484D01*
X10732825Y-14409484D02*
X10751872Y-14409484D01*
X10751872Y-14409484D02*
X10770920Y-14419008D01*
X10770920Y-14419008D02*
X10780444Y-14428531D01*
X10780444Y-14428531D02*
X10789968Y-14447579D01*
X10789968Y-14447579D02*
X10799491Y-14485674D01*
X10799491Y-14485674D02*
X10799491Y-14533293D01*
X10799491Y-14533293D02*
X10789968Y-14571388D01*
X10789968Y-14571388D02*
X10780444Y-14590436D01*
X10780444Y-14590436D02*
X10770920Y-14599960D01*
X10770920Y-14599960D02*
X10751872Y-14609484D01*
X10751872Y-14609484D02*
X10732825Y-14609484D01*
X10732825Y-14609484D02*
X10713777Y-14599960D01*
X10713777Y-14599960D02*
X10704253Y-14590436D01*
X10704253Y-14590436D02*
X10694730Y-14571388D01*
X10694730Y-14571388D02*
X10685206Y-14533293D01*
X10685206Y-14533293D02*
X10685206Y-14485674D01*
X10685206Y-14485674D02*
X10694730Y-14447579D01*
X10694730Y-14447579D02*
X10704253Y-14428531D01*
X10704253Y-14428531D02*
X10713777Y-14419008D01*
X10713777Y-14419008D02*
X10732825Y-14409484D01*
X11037587Y-14609484D02*
X11037587Y-14409484D01*
X11123301Y-14609484D02*
X11123301Y-14504722D01*
X11123301Y-14504722D02*
X11113777Y-14485674D01*
X11113777Y-14485674D02*
X11094730Y-14476150D01*
X11094730Y-14476150D02*
X11066158Y-14476150D01*
X11066158Y-14476150D02*
X11047111Y-14485674D01*
X11047111Y-14485674D02*
X11037587Y-14495198D01*
X11247110Y-14609484D02*
X11228063Y-14599960D01*
X11228063Y-14599960D02*
X11218539Y-14590436D01*
X11218539Y-14590436D02*
X11209015Y-14571388D01*
X11209015Y-14571388D02*
X11209015Y-14514246D01*
X11209015Y-14514246D02*
X11218539Y-14495198D01*
X11218539Y-14495198D02*
X11228063Y-14485674D01*
X11228063Y-14485674D02*
X11247110Y-14476150D01*
X11247110Y-14476150D02*
X11275682Y-14476150D01*
X11275682Y-14476150D02*
X11294730Y-14485674D01*
X11294730Y-14485674D02*
X11304253Y-14495198D01*
X11304253Y-14495198D02*
X11313777Y-14514246D01*
X11313777Y-14514246D02*
X11313777Y-14571388D01*
X11313777Y-14571388D02*
X11304253Y-14590436D01*
X11304253Y-14590436D02*
X11294730Y-14599960D01*
X11294730Y-14599960D02*
X11275682Y-14609484D01*
X11275682Y-14609484D02*
X11247110Y-14609484D01*
X11428063Y-14609484D02*
X11409015Y-14599960D01*
X11409015Y-14599960D02*
X11399491Y-14580912D01*
X11399491Y-14580912D02*
X11399491Y-14409484D01*
X11580444Y-14599960D02*
X11561396Y-14609484D01*
X11561396Y-14609484D02*
X11523301Y-14609484D01*
X11523301Y-14609484D02*
X11504253Y-14599960D01*
X11504253Y-14599960D02*
X11494730Y-14580912D01*
X11494730Y-14580912D02*
X11494730Y-14504722D01*
X11494730Y-14504722D02*
X11504253Y-14485674D01*
X11504253Y-14485674D02*
X11523301Y-14476150D01*
X11523301Y-14476150D02*
X11561396Y-14476150D01*
X11561396Y-14476150D02*
X11580444Y-14485674D01*
X11580444Y-14485674D02*
X11589968Y-14504722D01*
X11589968Y-14504722D02*
X11589968Y-14523769D01*
X11589968Y-14523769D02*
X11494730Y-14542817D01*
X11666158Y-14599960D02*
X11685206Y-14609484D01*
X11685206Y-14609484D02*
X11723301Y-14609484D01*
X11723301Y-14609484D02*
X11742349Y-14599960D01*
X11742349Y-14599960D02*
X11751872Y-14580912D01*
X11751872Y-14580912D02*
X11751872Y-14571388D01*
X11751872Y-14571388D02*
X11742349Y-14552341D01*
X11742349Y-14552341D02*
X11723301Y-14542817D01*
X11723301Y-14542817D02*
X11694730Y-14542817D01*
X11694730Y-14542817D02*
X11675682Y-14533293D01*
X11675682Y-14533293D02*
X11666158Y-14514246D01*
X11666158Y-14514246D02*
X11666158Y-14504722D01*
X11666158Y-14504722D02*
X11675682Y-14485674D01*
X11675682Y-14485674D02*
X11694730Y-14476150D01*
X11694730Y-14476150D02*
X11723301Y-14476150D01*
X11723301Y-14476150D02*
X11742349Y-14485674D01*
X11818539Y-14685674D02*
X11828063Y-14676150D01*
X11828063Y-14676150D02*
X11847111Y-14647579D01*
X11847111Y-14647579D02*
X11856634Y-14628531D01*
X11856634Y-14628531D02*
X11866158Y-14599960D01*
X11866158Y-14599960D02*
X11875682Y-14552341D01*
X11875682Y-14552341D02*
X11875682Y-14514246D01*
X11875682Y-14514246D02*
X11866158Y-14466627D01*
X11866158Y-14466627D02*
X11856634Y-14438055D01*
X11856634Y-14438055D02*
X11847111Y-14419008D01*
X11847111Y-14419008D02*
X11828063Y-14390436D01*
X11828063Y-14390436D02*
X11818539Y-14380912D01*
D15*
X6798000Y-14837000D02*
X6853000Y-14782000D01*
X6798000Y-14727000D01*
X6743000Y-14782000D01*
X6798000Y-14837000D01*
D11*
X7218539Y-14873484D02*
X7104253Y-14873484D01*
X7161396Y-14873484D02*
X7161396Y-14673484D01*
X7161396Y-14673484D02*
X7142348Y-14702055D01*
X7142348Y-14702055D02*
X7123301Y-14721103D01*
X7123301Y-14721103D02*
X7104253Y-14730627D01*
X7304253Y-14854436D02*
X7313777Y-14863960D01*
X7313777Y-14863960D02*
X7304253Y-14873484D01*
X7304253Y-14873484D02*
X7294729Y-14863960D01*
X7294729Y-14863960D02*
X7304253Y-14854436D01*
X7304253Y-14854436D02*
X7304253Y-14873484D01*
X7504253Y-14873484D02*
X7389967Y-14873484D01*
X7447110Y-14873484D02*
X7447110Y-14673484D01*
X7447110Y-14673484D02*
X7428062Y-14702055D01*
X7428062Y-14702055D02*
X7409015Y-14721103D01*
X7409015Y-14721103D02*
X7389967Y-14730627D01*
X7628062Y-14673484D02*
X7647110Y-14673484D01*
X7647110Y-14673484D02*
X7666158Y-14683008D01*
X7666158Y-14683008D02*
X7675682Y-14692531D01*
X7675682Y-14692531D02*
X7685205Y-14711579D01*
X7685205Y-14711579D02*
X7694729Y-14749674D01*
X7694729Y-14749674D02*
X7694729Y-14797293D01*
X7694729Y-14797293D02*
X7685205Y-14835388D01*
X7685205Y-14835388D02*
X7675682Y-14854436D01*
X7675682Y-14854436D02*
X7666158Y-14863960D01*
X7666158Y-14863960D02*
X7647110Y-14873484D01*
X7647110Y-14873484D02*
X7628062Y-14873484D01*
X7628062Y-14873484D02*
X7609015Y-14863960D01*
X7609015Y-14863960D02*
X7599491Y-14854436D01*
X7599491Y-14854436D02*
X7589967Y-14835388D01*
X7589967Y-14835388D02*
X7580443Y-14797293D01*
X7580443Y-14797293D02*
X7580443Y-14749674D01*
X7580443Y-14749674D02*
X7589967Y-14711579D01*
X7589967Y-14711579D02*
X7599491Y-14692531D01*
X7599491Y-14692531D02*
X7609015Y-14683008D01*
X7609015Y-14683008D02*
X7628062Y-14673484D01*
X7818539Y-14673484D02*
X7837586Y-14673484D01*
X7837586Y-14673484D02*
X7856634Y-14683008D01*
X7856634Y-14683008D02*
X7866158Y-14692531D01*
X7866158Y-14692531D02*
X7875682Y-14711579D01*
X7875682Y-14711579D02*
X7885205Y-14749674D01*
X7885205Y-14749674D02*
X7885205Y-14797293D01*
X7885205Y-14797293D02*
X7875682Y-14835388D01*
X7875682Y-14835388D02*
X7866158Y-14854436D01*
X7866158Y-14854436D02*
X7856634Y-14863960D01*
X7856634Y-14863960D02*
X7837586Y-14873484D01*
X7837586Y-14873484D02*
X7818539Y-14873484D01*
X7818539Y-14873484D02*
X7799491Y-14863960D01*
X7799491Y-14863960D02*
X7789967Y-14854436D01*
X7789967Y-14854436D02*
X7780443Y-14835388D01*
X7780443Y-14835388D02*
X7770920Y-14797293D01*
X7770920Y-14797293D02*
X7770920Y-14749674D01*
X7770920Y-14749674D02*
X7780443Y-14711579D01*
X7780443Y-14711579D02*
X7789967Y-14692531D01*
X7789967Y-14692531D02*
X7799491Y-14683008D01*
X7799491Y-14683008D02*
X7818539Y-14673484D01*
X7970920Y-14873484D02*
X7970920Y-14740150D01*
X7970920Y-14759198D02*
X7980443Y-14749674D01*
X7980443Y-14749674D02*
X7999491Y-14740150D01*
X7999491Y-14740150D02*
X8028063Y-14740150D01*
X8028063Y-14740150D02*
X8047110Y-14749674D01*
X8047110Y-14749674D02*
X8056634Y-14768722D01*
X8056634Y-14768722D02*
X8056634Y-14873484D01*
X8056634Y-14768722D02*
X8066158Y-14749674D01*
X8066158Y-14749674D02*
X8085205Y-14740150D01*
X8085205Y-14740150D02*
X8113777Y-14740150D01*
X8113777Y-14740150D02*
X8132824Y-14749674D01*
X8132824Y-14749674D02*
X8142348Y-14768722D01*
X8142348Y-14768722D02*
X8142348Y-14873484D01*
X8237586Y-14873484D02*
X8237586Y-14740150D01*
X8237586Y-14759198D02*
X8247110Y-14749674D01*
X8247110Y-14749674D02*
X8266158Y-14740150D01*
X8266158Y-14740150D02*
X8294729Y-14740150D01*
X8294729Y-14740150D02*
X8313777Y-14749674D01*
X8313777Y-14749674D02*
X8323301Y-14768722D01*
X8323301Y-14768722D02*
X8323301Y-14873484D01*
X8323301Y-14768722D02*
X8332824Y-14749674D01*
X8332824Y-14749674D02*
X8351872Y-14740150D01*
X8351872Y-14740150D02*
X8380443Y-14740150D01*
X8380443Y-14740150D02*
X8399491Y-14749674D01*
X8399491Y-14749674D02*
X8409015Y-14768722D01*
X8409015Y-14768722D02*
X8409015Y-14873484D01*
X8799491Y-14663960D02*
X8628063Y-14921103D01*
X9056634Y-14673484D02*
X9075682Y-14673484D01*
X9075682Y-14673484D02*
X9094729Y-14683008D01*
X9094729Y-14683008D02*
X9104253Y-14692531D01*
X9104253Y-14692531D02*
X9113777Y-14711579D01*
X9113777Y-14711579D02*
X9123301Y-14749674D01*
X9123301Y-14749674D02*
X9123301Y-14797293D01*
X9123301Y-14797293D02*
X9113777Y-14835388D01*
X9113777Y-14835388D02*
X9104253Y-14854436D01*
X9104253Y-14854436D02*
X9094729Y-14863960D01*
X9094729Y-14863960D02*
X9075682Y-14873484D01*
X9075682Y-14873484D02*
X9056634Y-14873484D01*
X9056634Y-14873484D02*
X9037587Y-14863960D01*
X9037587Y-14863960D02*
X9028063Y-14854436D01*
X9028063Y-14854436D02*
X9018539Y-14835388D01*
X9018539Y-14835388D02*
X9009015Y-14797293D01*
X9009015Y-14797293D02*
X9009015Y-14749674D01*
X9009015Y-14749674D02*
X9018539Y-14711579D01*
X9018539Y-14711579D02*
X9028063Y-14692531D01*
X9028063Y-14692531D02*
X9037587Y-14683008D01*
X9037587Y-14683008D02*
X9056634Y-14673484D01*
X9209015Y-14854436D02*
X9218539Y-14863960D01*
X9218539Y-14863960D02*
X9209015Y-14873484D01*
X9209015Y-14873484D02*
X9199491Y-14863960D01*
X9199491Y-14863960D02*
X9209015Y-14854436D01*
X9209015Y-14854436D02*
X9209015Y-14873484D01*
X9342348Y-14673484D02*
X9361396Y-14673484D01*
X9361396Y-14673484D02*
X9380444Y-14683008D01*
X9380444Y-14683008D02*
X9389968Y-14692531D01*
X9389968Y-14692531D02*
X9399491Y-14711579D01*
X9399491Y-14711579D02*
X9409015Y-14749674D01*
X9409015Y-14749674D02*
X9409015Y-14797293D01*
X9409015Y-14797293D02*
X9399491Y-14835388D01*
X9399491Y-14835388D02*
X9389968Y-14854436D01*
X9389968Y-14854436D02*
X9380444Y-14863960D01*
X9380444Y-14863960D02*
X9361396Y-14873484D01*
X9361396Y-14873484D02*
X9342348Y-14873484D01*
X9342348Y-14873484D02*
X9323301Y-14863960D01*
X9323301Y-14863960D02*
X9313777Y-14854436D01*
X9313777Y-14854436D02*
X9304253Y-14835388D01*
X9304253Y-14835388D02*
X9294729Y-14797293D01*
X9294729Y-14797293D02*
X9294729Y-14749674D01*
X9294729Y-14749674D02*
X9304253Y-14711579D01*
X9304253Y-14711579D02*
X9313777Y-14692531D01*
X9313777Y-14692531D02*
X9323301Y-14683008D01*
X9323301Y-14683008D02*
X9342348Y-14673484D01*
X9580444Y-14740150D02*
X9580444Y-14873484D01*
X9532825Y-14663960D02*
X9485206Y-14806817D01*
X9485206Y-14806817D02*
X9609015Y-14806817D01*
X9666158Y-14673484D02*
X9789968Y-14673484D01*
X9789968Y-14673484D02*
X9723301Y-14749674D01*
X9723301Y-14749674D02*
X9751872Y-14749674D01*
X9751872Y-14749674D02*
X9770920Y-14759198D01*
X9770920Y-14759198D02*
X9780444Y-14768722D01*
X9780444Y-14768722D02*
X9789968Y-14787769D01*
X9789968Y-14787769D02*
X9789968Y-14835388D01*
X9789968Y-14835388D02*
X9780444Y-14854436D01*
X9780444Y-14854436D02*
X9770920Y-14863960D01*
X9770920Y-14863960D02*
X9751872Y-14873484D01*
X9751872Y-14873484D02*
X9694729Y-14873484D01*
X9694729Y-14873484D02*
X9675682Y-14863960D01*
X9675682Y-14863960D02*
X9666158Y-14854436D01*
X9856634Y-14673484D02*
X9980444Y-14673484D01*
X9980444Y-14673484D02*
X9913777Y-14749674D01*
X9913777Y-14749674D02*
X9942349Y-14749674D01*
X9942349Y-14749674D02*
X9961396Y-14759198D01*
X9961396Y-14759198D02*
X9970920Y-14768722D01*
X9970920Y-14768722D02*
X9980444Y-14787769D01*
X9980444Y-14787769D02*
X9980444Y-14835388D01*
X9980444Y-14835388D02*
X9970920Y-14854436D01*
X9970920Y-14854436D02*
X9961396Y-14863960D01*
X9961396Y-14863960D02*
X9942349Y-14873484D01*
X9942349Y-14873484D02*
X9885206Y-14873484D01*
X9885206Y-14873484D02*
X9866158Y-14863960D01*
X9866158Y-14863960D02*
X9856634Y-14854436D01*
X10056634Y-14673484D02*
X10056634Y-14711579D01*
X10132825Y-14673484D02*
X10132825Y-14711579D01*
X10428063Y-14949674D02*
X10418539Y-14940150D01*
X10418539Y-14940150D02*
X10399491Y-14911579D01*
X10399491Y-14911579D02*
X10389968Y-14892531D01*
X10389968Y-14892531D02*
X10380444Y-14863960D01*
X10380444Y-14863960D02*
X10370920Y-14816341D01*
X10370920Y-14816341D02*
X10370920Y-14778246D01*
X10370920Y-14778246D02*
X10380444Y-14730627D01*
X10380444Y-14730627D02*
X10389968Y-14702055D01*
X10389968Y-14702055D02*
X10399491Y-14683008D01*
X10399491Y-14683008D02*
X10418539Y-14654436D01*
X10418539Y-14654436D02*
X10428063Y-14644912D01*
X10494730Y-14692531D02*
X10504253Y-14683008D01*
X10504253Y-14683008D02*
X10523301Y-14673484D01*
X10523301Y-14673484D02*
X10570920Y-14673484D01*
X10570920Y-14673484D02*
X10589968Y-14683008D01*
X10589968Y-14683008D02*
X10599491Y-14692531D01*
X10599491Y-14692531D02*
X10609015Y-14711579D01*
X10609015Y-14711579D02*
X10609015Y-14730627D01*
X10609015Y-14730627D02*
X10599491Y-14759198D01*
X10599491Y-14759198D02*
X10485206Y-14873484D01*
X10485206Y-14873484D02*
X10609015Y-14873484D01*
X10799491Y-14873484D02*
X10685206Y-14873484D01*
X10742349Y-14873484D02*
X10742349Y-14673484D01*
X10742349Y-14673484D02*
X10723301Y-14702055D01*
X10723301Y-14702055D02*
X10704253Y-14721103D01*
X10704253Y-14721103D02*
X10685206Y-14730627D01*
X11037587Y-14873484D02*
X11037587Y-14673484D01*
X11123301Y-14873484D02*
X11123301Y-14768722D01*
X11123301Y-14768722D02*
X11113777Y-14749674D01*
X11113777Y-14749674D02*
X11094730Y-14740150D01*
X11094730Y-14740150D02*
X11066158Y-14740150D01*
X11066158Y-14740150D02*
X11047111Y-14749674D01*
X11047111Y-14749674D02*
X11037587Y-14759198D01*
X11247110Y-14873484D02*
X11228063Y-14863960D01*
X11228063Y-14863960D02*
X11218539Y-14854436D01*
X11218539Y-14854436D02*
X11209015Y-14835388D01*
X11209015Y-14835388D02*
X11209015Y-14778246D01*
X11209015Y-14778246D02*
X11218539Y-14759198D01*
X11218539Y-14759198D02*
X11228063Y-14749674D01*
X11228063Y-14749674D02*
X11247110Y-14740150D01*
X11247110Y-14740150D02*
X11275682Y-14740150D01*
X11275682Y-14740150D02*
X11294730Y-14749674D01*
X11294730Y-14749674D02*
X11304253Y-14759198D01*
X11304253Y-14759198D02*
X11313777Y-14778246D01*
X11313777Y-14778246D02*
X11313777Y-14835388D01*
X11313777Y-14835388D02*
X11304253Y-14854436D01*
X11304253Y-14854436D02*
X11294730Y-14863960D01*
X11294730Y-14863960D02*
X11275682Y-14873484D01*
X11275682Y-14873484D02*
X11247110Y-14873484D01*
X11428063Y-14873484D02*
X11409015Y-14863960D01*
X11409015Y-14863960D02*
X11399491Y-14844912D01*
X11399491Y-14844912D02*
X11399491Y-14673484D01*
X11580444Y-14863960D02*
X11561396Y-14873484D01*
X11561396Y-14873484D02*
X11523301Y-14873484D01*
X11523301Y-14873484D02*
X11504253Y-14863960D01*
X11504253Y-14863960D02*
X11494730Y-14844912D01*
X11494730Y-14844912D02*
X11494730Y-14768722D01*
X11494730Y-14768722D02*
X11504253Y-14749674D01*
X11504253Y-14749674D02*
X11523301Y-14740150D01*
X11523301Y-14740150D02*
X11561396Y-14740150D01*
X11561396Y-14740150D02*
X11580444Y-14749674D01*
X11580444Y-14749674D02*
X11589968Y-14768722D01*
X11589968Y-14768722D02*
X11589968Y-14787769D01*
X11589968Y-14787769D02*
X11494730Y-14806817D01*
X11666158Y-14863960D02*
X11685206Y-14873484D01*
X11685206Y-14873484D02*
X11723301Y-14873484D01*
X11723301Y-14873484D02*
X11742349Y-14863960D01*
X11742349Y-14863960D02*
X11751872Y-14844912D01*
X11751872Y-14844912D02*
X11751872Y-14835388D01*
X11751872Y-14835388D02*
X11742349Y-14816341D01*
X11742349Y-14816341D02*
X11723301Y-14806817D01*
X11723301Y-14806817D02*
X11694730Y-14806817D01*
X11694730Y-14806817D02*
X11675682Y-14797293D01*
X11675682Y-14797293D02*
X11666158Y-14778246D01*
X11666158Y-14778246D02*
X11666158Y-14768722D01*
X11666158Y-14768722D02*
X11675682Y-14749674D01*
X11675682Y-14749674D02*
X11694730Y-14740150D01*
X11694730Y-14740150D02*
X11723301Y-14740150D01*
X11723301Y-14740150D02*
X11742349Y-14749674D01*
X11818539Y-14949674D02*
X11828063Y-14940150D01*
X11828063Y-14940150D02*
X11847111Y-14911579D01*
X11847111Y-14911579D02*
X11856634Y-14892531D01*
X11856634Y-14892531D02*
X11866158Y-14863960D01*
X11866158Y-14863960D02*
X11875682Y-14816341D01*
X11875682Y-14816341D02*
X11875682Y-14778246D01*
X11875682Y-14778246D02*
X11866158Y-14730627D01*
X11866158Y-14730627D02*
X11856634Y-14702055D01*
X11856634Y-14702055D02*
X11847111Y-14683008D01*
X11847111Y-14683008D02*
X11828063Y-14654436D01*
X11828063Y-14654436D02*
X11818539Y-14644912D01*
D16*
X6733000Y-14986000D02*
X6853000Y-15106000D01*
X6853000Y-14986000D02*
X6733000Y-15106000D01*
X6853000Y-15046000D02*
G75*
G03*
X6853000Y-15046000I-60000J0D01*
G01*
D11*
X7218539Y-15137484D02*
X7104253Y-15137484D01*
X7161396Y-15137484D02*
X7161396Y-14937484D01*
X7161396Y-14937484D02*
X7142348Y-14966055D01*
X7142348Y-14966055D02*
X7123301Y-14985103D01*
X7123301Y-14985103D02*
X7104253Y-14994627D01*
X7304253Y-15118436D02*
X7313777Y-15127960D01*
X7313777Y-15127960D02*
X7304253Y-15137484D01*
X7304253Y-15137484D02*
X7294729Y-15127960D01*
X7294729Y-15127960D02*
X7304253Y-15118436D01*
X7304253Y-15118436D02*
X7304253Y-15137484D01*
X7389967Y-14956531D02*
X7399491Y-14947008D01*
X7399491Y-14947008D02*
X7418539Y-14937484D01*
X7418539Y-14937484D02*
X7466158Y-14937484D01*
X7466158Y-14937484D02*
X7485205Y-14947008D01*
X7485205Y-14947008D02*
X7494729Y-14956531D01*
X7494729Y-14956531D02*
X7504253Y-14975579D01*
X7504253Y-14975579D02*
X7504253Y-14994627D01*
X7504253Y-14994627D02*
X7494729Y-15023198D01*
X7494729Y-15023198D02*
X7380443Y-15137484D01*
X7380443Y-15137484D02*
X7504253Y-15137484D01*
X7628062Y-14937484D02*
X7647110Y-14937484D01*
X7647110Y-14937484D02*
X7666158Y-14947008D01*
X7666158Y-14947008D02*
X7675682Y-14956531D01*
X7675682Y-14956531D02*
X7685205Y-14975579D01*
X7685205Y-14975579D02*
X7694729Y-15013674D01*
X7694729Y-15013674D02*
X7694729Y-15061293D01*
X7694729Y-15061293D02*
X7685205Y-15099388D01*
X7685205Y-15099388D02*
X7675682Y-15118436D01*
X7675682Y-15118436D02*
X7666158Y-15127960D01*
X7666158Y-15127960D02*
X7647110Y-15137484D01*
X7647110Y-15137484D02*
X7628062Y-15137484D01*
X7628062Y-15137484D02*
X7609015Y-15127960D01*
X7609015Y-15127960D02*
X7599491Y-15118436D01*
X7599491Y-15118436D02*
X7589967Y-15099388D01*
X7589967Y-15099388D02*
X7580443Y-15061293D01*
X7580443Y-15061293D02*
X7580443Y-15013674D01*
X7580443Y-15013674D02*
X7589967Y-14975579D01*
X7589967Y-14975579D02*
X7599491Y-14956531D01*
X7599491Y-14956531D02*
X7609015Y-14947008D01*
X7609015Y-14947008D02*
X7628062Y-14937484D01*
X7818539Y-14937484D02*
X7837586Y-14937484D01*
X7837586Y-14937484D02*
X7856634Y-14947008D01*
X7856634Y-14947008D02*
X7866158Y-14956531D01*
X7866158Y-14956531D02*
X7875682Y-14975579D01*
X7875682Y-14975579D02*
X7885205Y-15013674D01*
X7885205Y-15013674D02*
X7885205Y-15061293D01*
X7885205Y-15061293D02*
X7875682Y-15099388D01*
X7875682Y-15099388D02*
X7866158Y-15118436D01*
X7866158Y-15118436D02*
X7856634Y-15127960D01*
X7856634Y-15127960D02*
X7837586Y-15137484D01*
X7837586Y-15137484D02*
X7818539Y-15137484D01*
X7818539Y-15137484D02*
X7799491Y-15127960D01*
X7799491Y-15127960D02*
X7789967Y-15118436D01*
X7789967Y-15118436D02*
X7780443Y-15099388D01*
X7780443Y-15099388D02*
X7770920Y-15061293D01*
X7770920Y-15061293D02*
X7770920Y-15013674D01*
X7770920Y-15013674D02*
X7780443Y-14975579D01*
X7780443Y-14975579D02*
X7789967Y-14956531D01*
X7789967Y-14956531D02*
X7799491Y-14947008D01*
X7799491Y-14947008D02*
X7818539Y-14937484D01*
X7970920Y-15137484D02*
X7970920Y-15004150D01*
X7970920Y-15023198D02*
X7980443Y-15013674D01*
X7980443Y-15013674D02*
X7999491Y-15004150D01*
X7999491Y-15004150D02*
X8028063Y-15004150D01*
X8028063Y-15004150D02*
X8047110Y-15013674D01*
X8047110Y-15013674D02*
X8056634Y-15032722D01*
X8056634Y-15032722D02*
X8056634Y-15137484D01*
X8056634Y-15032722D02*
X8066158Y-15013674D01*
X8066158Y-15013674D02*
X8085205Y-15004150D01*
X8085205Y-15004150D02*
X8113777Y-15004150D01*
X8113777Y-15004150D02*
X8132824Y-15013674D01*
X8132824Y-15013674D02*
X8142348Y-15032722D01*
X8142348Y-15032722D02*
X8142348Y-15137484D01*
X8237586Y-15137484D02*
X8237586Y-15004150D01*
X8237586Y-15023198D02*
X8247110Y-15013674D01*
X8247110Y-15013674D02*
X8266158Y-15004150D01*
X8266158Y-15004150D02*
X8294729Y-15004150D01*
X8294729Y-15004150D02*
X8313777Y-15013674D01*
X8313777Y-15013674D02*
X8323301Y-15032722D01*
X8323301Y-15032722D02*
X8323301Y-15137484D01*
X8323301Y-15032722D02*
X8332824Y-15013674D01*
X8332824Y-15013674D02*
X8351872Y-15004150D01*
X8351872Y-15004150D02*
X8380443Y-15004150D01*
X8380443Y-15004150D02*
X8399491Y-15013674D01*
X8399491Y-15013674D02*
X8409015Y-15032722D01*
X8409015Y-15032722D02*
X8409015Y-15137484D01*
X8799491Y-14927960D02*
X8628063Y-15185103D01*
X9056634Y-14937484D02*
X9075682Y-14937484D01*
X9075682Y-14937484D02*
X9094729Y-14947008D01*
X9094729Y-14947008D02*
X9104253Y-14956531D01*
X9104253Y-14956531D02*
X9113777Y-14975579D01*
X9113777Y-14975579D02*
X9123301Y-15013674D01*
X9123301Y-15013674D02*
X9123301Y-15061293D01*
X9123301Y-15061293D02*
X9113777Y-15099388D01*
X9113777Y-15099388D02*
X9104253Y-15118436D01*
X9104253Y-15118436D02*
X9094729Y-15127960D01*
X9094729Y-15127960D02*
X9075682Y-15137484D01*
X9075682Y-15137484D02*
X9056634Y-15137484D01*
X9056634Y-15137484D02*
X9037587Y-15127960D01*
X9037587Y-15127960D02*
X9028063Y-15118436D01*
X9028063Y-15118436D02*
X9018539Y-15099388D01*
X9018539Y-15099388D02*
X9009015Y-15061293D01*
X9009015Y-15061293D02*
X9009015Y-15013674D01*
X9009015Y-15013674D02*
X9018539Y-14975579D01*
X9018539Y-14975579D02*
X9028063Y-14956531D01*
X9028063Y-14956531D02*
X9037587Y-14947008D01*
X9037587Y-14947008D02*
X9056634Y-14937484D01*
X9209015Y-15118436D02*
X9218539Y-15127960D01*
X9218539Y-15127960D02*
X9209015Y-15137484D01*
X9209015Y-15137484D02*
X9199491Y-15127960D01*
X9199491Y-15127960D02*
X9209015Y-15118436D01*
X9209015Y-15118436D02*
X9209015Y-15137484D01*
X9342348Y-14937484D02*
X9361396Y-14937484D01*
X9361396Y-14937484D02*
X9380444Y-14947008D01*
X9380444Y-14947008D02*
X9389968Y-14956531D01*
X9389968Y-14956531D02*
X9399491Y-14975579D01*
X9399491Y-14975579D02*
X9409015Y-15013674D01*
X9409015Y-15013674D02*
X9409015Y-15061293D01*
X9409015Y-15061293D02*
X9399491Y-15099388D01*
X9399491Y-15099388D02*
X9389968Y-15118436D01*
X9389968Y-15118436D02*
X9380444Y-15127960D01*
X9380444Y-15127960D02*
X9361396Y-15137484D01*
X9361396Y-15137484D02*
X9342348Y-15137484D01*
X9342348Y-15137484D02*
X9323301Y-15127960D01*
X9323301Y-15127960D02*
X9313777Y-15118436D01*
X9313777Y-15118436D02*
X9304253Y-15099388D01*
X9304253Y-15099388D02*
X9294729Y-15061293D01*
X9294729Y-15061293D02*
X9294729Y-15013674D01*
X9294729Y-15013674D02*
X9304253Y-14975579D01*
X9304253Y-14975579D02*
X9313777Y-14956531D01*
X9313777Y-14956531D02*
X9323301Y-14947008D01*
X9323301Y-14947008D02*
X9342348Y-14937484D01*
X9580444Y-15004150D02*
X9580444Y-15137484D01*
X9532825Y-14927960D02*
X9485206Y-15070817D01*
X9485206Y-15070817D02*
X9609015Y-15070817D01*
X9666158Y-14937484D02*
X9799491Y-14937484D01*
X9799491Y-14937484D02*
X9713777Y-15137484D01*
X9866158Y-14956531D02*
X9875682Y-14947008D01*
X9875682Y-14947008D02*
X9894729Y-14937484D01*
X9894729Y-14937484D02*
X9942349Y-14937484D01*
X9942349Y-14937484D02*
X9961396Y-14947008D01*
X9961396Y-14947008D02*
X9970920Y-14956531D01*
X9970920Y-14956531D02*
X9980444Y-14975579D01*
X9980444Y-14975579D02*
X9980444Y-14994627D01*
X9980444Y-14994627D02*
X9970920Y-15023198D01*
X9970920Y-15023198D02*
X9856634Y-15137484D01*
X9856634Y-15137484D02*
X9980444Y-15137484D01*
X10056634Y-14937484D02*
X10056634Y-14975579D01*
X10132825Y-14937484D02*
X10132825Y-14975579D01*
X10428063Y-15213674D02*
X10418539Y-15204150D01*
X10418539Y-15204150D02*
X10399491Y-15175579D01*
X10399491Y-15175579D02*
X10389968Y-15156531D01*
X10389968Y-15156531D02*
X10380444Y-15127960D01*
X10380444Y-15127960D02*
X10370920Y-15080341D01*
X10370920Y-15080341D02*
X10370920Y-15042246D01*
X10370920Y-15042246D02*
X10380444Y-14994627D01*
X10380444Y-14994627D02*
X10389968Y-14966055D01*
X10389968Y-14966055D02*
X10399491Y-14947008D01*
X10399491Y-14947008D02*
X10418539Y-14918436D01*
X10418539Y-14918436D02*
X10428063Y-14908912D01*
X10609015Y-15137484D02*
X10494730Y-15137484D01*
X10551872Y-15137484D02*
X10551872Y-14937484D01*
X10551872Y-14937484D02*
X10532825Y-14966055D01*
X10532825Y-14966055D02*
X10513777Y-14985103D01*
X10513777Y-14985103D02*
X10494730Y-14994627D01*
X10685206Y-14956531D02*
X10694730Y-14947008D01*
X10694730Y-14947008D02*
X10713777Y-14937484D01*
X10713777Y-14937484D02*
X10761396Y-14937484D01*
X10761396Y-14937484D02*
X10780444Y-14947008D01*
X10780444Y-14947008D02*
X10789968Y-14956531D01*
X10789968Y-14956531D02*
X10799491Y-14975579D01*
X10799491Y-14975579D02*
X10799491Y-14994627D01*
X10799491Y-14994627D02*
X10789968Y-15023198D01*
X10789968Y-15023198D02*
X10675682Y-15137484D01*
X10675682Y-15137484D02*
X10799491Y-15137484D01*
X11037587Y-15137484D02*
X11037587Y-14937484D01*
X11123301Y-15137484D02*
X11123301Y-15032722D01*
X11123301Y-15032722D02*
X11113777Y-15013674D01*
X11113777Y-15013674D02*
X11094730Y-15004150D01*
X11094730Y-15004150D02*
X11066158Y-15004150D01*
X11066158Y-15004150D02*
X11047111Y-15013674D01*
X11047111Y-15013674D02*
X11037587Y-15023198D01*
X11247110Y-15137484D02*
X11228063Y-15127960D01*
X11228063Y-15127960D02*
X11218539Y-15118436D01*
X11218539Y-15118436D02*
X11209015Y-15099388D01*
X11209015Y-15099388D02*
X11209015Y-15042246D01*
X11209015Y-15042246D02*
X11218539Y-15023198D01*
X11218539Y-15023198D02*
X11228063Y-15013674D01*
X11228063Y-15013674D02*
X11247110Y-15004150D01*
X11247110Y-15004150D02*
X11275682Y-15004150D01*
X11275682Y-15004150D02*
X11294730Y-15013674D01*
X11294730Y-15013674D02*
X11304253Y-15023198D01*
X11304253Y-15023198D02*
X11313777Y-15042246D01*
X11313777Y-15042246D02*
X11313777Y-15099388D01*
X11313777Y-15099388D02*
X11304253Y-15118436D01*
X11304253Y-15118436D02*
X11294730Y-15127960D01*
X11294730Y-15127960D02*
X11275682Y-15137484D01*
X11275682Y-15137484D02*
X11247110Y-15137484D01*
X11428063Y-15137484D02*
X11409015Y-15127960D01*
X11409015Y-15127960D02*
X11399491Y-15108912D01*
X11399491Y-15108912D02*
X11399491Y-14937484D01*
X11580444Y-15127960D02*
X11561396Y-15137484D01*
X11561396Y-15137484D02*
X11523301Y-15137484D01*
X11523301Y-15137484D02*
X11504253Y-15127960D01*
X11504253Y-15127960D02*
X11494730Y-15108912D01*
X11494730Y-15108912D02*
X11494730Y-15032722D01*
X11494730Y-15032722D02*
X11504253Y-15013674D01*
X11504253Y-15013674D02*
X11523301Y-15004150D01*
X11523301Y-15004150D02*
X11561396Y-15004150D01*
X11561396Y-15004150D02*
X11580444Y-15013674D01*
X11580444Y-15013674D02*
X11589968Y-15032722D01*
X11589968Y-15032722D02*
X11589968Y-15051769D01*
X11589968Y-15051769D02*
X11494730Y-15070817D01*
X11666158Y-15127960D02*
X11685206Y-15137484D01*
X11685206Y-15137484D02*
X11723301Y-15137484D01*
X11723301Y-15137484D02*
X11742349Y-15127960D01*
X11742349Y-15127960D02*
X11751872Y-15108912D01*
X11751872Y-15108912D02*
X11751872Y-15099388D01*
X11751872Y-15099388D02*
X11742349Y-15080341D01*
X11742349Y-15080341D02*
X11723301Y-15070817D01*
X11723301Y-15070817D02*
X11694730Y-15070817D01*
X11694730Y-15070817D02*
X11675682Y-15061293D01*
X11675682Y-15061293D02*
X11666158Y-15042246D01*
X11666158Y-15042246D02*
X11666158Y-15032722D01*
X11666158Y-15032722D02*
X11675682Y-15013674D01*
X11675682Y-15013674D02*
X11694730Y-15004150D01*
X11694730Y-15004150D02*
X11723301Y-15004150D01*
X11723301Y-15004150D02*
X11742349Y-15013674D01*
X11818539Y-15213674D02*
X11828063Y-15204150D01*
X11828063Y-15204150D02*
X11847111Y-15175579D01*
X11847111Y-15175579D02*
X11856634Y-15156531D01*
X11856634Y-15156531D02*
X11866158Y-15127960D01*
X11866158Y-15127960D02*
X11875682Y-15080341D01*
X11875682Y-15080341D02*
X11875682Y-15042246D01*
X11875682Y-15042246D02*
X11866158Y-14994627D01*
X11866158Y-14994627D02*
X11856634Y-14966055D01*
X11856634Y-14966055D02*
X11847111Y-14947008D01*
X11847111Y-14947008D02*
X11828063Y-14918436D01*
X11828063Y-14918436D02*
X11818539Y-14908912D01*
D17*
X6723000Y-15245000D02*
X6853000Y-15375000D01*
X6853000Y-15245000D02*
X6723000Y-15375000D01*
X6788000Y-15245000D02*
X6788000Y-15375000D01*
X6723000Y-15310000D02*
X6853000Y-15310000D01*
D11*
X7218539Y-15401484D02*
X7104253Y-15401484D01*
X7161396Y-15401484D02*
X7161396Y-15201484D01*
X7161396Y-15201484D02*
X7142348Y-15230055D01*
X7142348Y-15230055D02*
X7123301Y-15249103D01*
X7123301Y-15249103D02*
X7104253Y-15258627D01*
X7304253Y-15382436D02*
X7313777Y-15391960D01*
X7313777Y-15391960D02*
X7304253Y-15401484D01*
X7304253Y-15401484D02*
X7294729Y-15391960D01*
X7294729Y-15391960D02*
X7304253Y-15382436D01*
X7304253Y-15382436D02*
X7304253Y-15401484D01*
X7380443Y-15201484D02*
X7504253Y-15201484D01*
X7504253Y-15201484D02*
X7437586Y-15277674D01*
X7437586Y-15277674D02*
X7466158Y-15277674D01*
X7466158Y-15277674D02*
X7485205Y-15287198D01*
X7485205Y-15287198D02*
X7494729Y-15296722D01*
X7494729Y-15296722D02*
X7504253Y-15315769D01*
X7504253Y-15315769D02*
X7504253Y-15363388D01*
X7504253Y-15363388D02*
X7494729Y-15382436D01*
X7494729Y-15382436D02*
X7485205Y-15391960D01*
X7485205Y-15391960D02*
X7466158Y-15401484D01*
X7466158Y-15401484D02*
X7409015Y-15401484D01*
X7409015Y-15401484D02*
X7389967Y-15391960D01*
X7389967Y-15391960D02*
X7380443Y-15382436D01*
X7628062Y-15201484D02*
X7647110Y-15201484D01*
X7647110Y-15201484D02*
X7666158Y-15211008D01*
X7666158Y-15211008D02*
X7675682Y-15220531D01*
X7675682Y-15220531D02*
X7685205Y-15239579D01*
X7685205Y-15239579D02*
X7694729Y-15277674D01*
X7694729Y-15277674D02*
X7694729Y-15325293D01*
X7694729Y-15325293D02*
X7685205Y-15363388D01*
X7685205Y-15363388D02*
X7675682Y-15382436D01*
X7675682Y-15382436D02*
X7666158Y-15391960D01*
X7666158Y-15391960D02*
X7647110Y-15401484D01*
X7647110Y-15401484D02*
X7628062Y-15401484D01*
X7628062Y-15401484D02*
X7609015Y-15391960D01*
X7609015Y-15391960D02*
X7599491Y-15382436D01*
X7599491Y-15382436D02*
X7589967Y-15363388D01*
X7589967Y-15363388D02*
X7580443Y-15325293D01*
X7580443Y-15325293D02*
X7580443Y-15277674D01*
X7580443Y-15277674D02*
X7589967Y-15239579D01*
X7589967Y-15239579D02*
X7599491Y-15220531D01*
X7599491Y-15220531D02*
X7609015Y-15211008D01*
X7609015Y-15211008D02*
X7628062Y-15201484D01*
X7818539Y-15201484D02*
X7837586Y-15201484D01*
X7837586Y-15201484D02*
X7856634Y-15211008D01*
X7856634Y-15211008D02*
X7866158Y-15220531D01*
X7866158Y-15220531D02*
X7875682Y-15239579D01*
X7875682Y-15239579D02*
X7885205Y-15277674D01*
X7885205Y-15277674D02*
X7885205Y-15325293D01*
X7885205Y-15325293D02*
X7875682Y-15363388D01*
X7875682Y-15363388D02*
X7866158Y-15382436D01*
X7866158Y-15382436D02*
X7856634Y-15391960D01*
X7856634Y-15391960D02*
X7837586Y-15401484D01*
X7837586Y-15401484D02*
X7818539Y-15401484D01*
X7818539Y-15401484D02*
X7799491Y-15391960D01*
X7799491Y-15391960D02*
X7789967Y-15382436D01*
X7789967Y-15382436D02*
X7780443Y-15363388D01*
X7780443Y-15363388D02*
X7770920Y-15325293D01*
X7770920Y-15325293D02*
X7770920Y-15277674D01*
X7770920Y-15277674D02*
X7780443Y-15239579D01*
X7780443Y-15239579D02*
X7789967Y-15220531D01*
X7789967Y-15220531D02*
X7799491Y-15211008D01*
X7799491Y-15211008D02*
X7818539Y-15201484D01*
X7970920Y-15401484D02*
X7970920Y-15268150D01*
X7970920Y-15287198D02*
X7980443Y-15277674D01*
X7980443Y-15277674D02*
X7999491Y-15268150D01*
X7999491Y-15268150D02*
X8028063Y-15268150D01*
X8028063Y-15268150D02*
X8047110Y-15277674D01*
X8047110Y-15277674D02*
X8056634Y-15296722D01*
X8056634Y-15296722D02*
X8056634Y-15401484D01*
X8056634Y-15296722D02*
X8066158Y-15277674D01*
X8066158Y-15277674D02*
X8085205Y-15268150D01*
X8085205Y-15268150D02*
X8113777Y-15268150D01*
X8113777Y-15268150D02*
X8132824Y-15277674D01*
X8132824Y-15277674D02*
X8142348Y-15296722D01*
X8142348Y-15296722D02*
X8142348Y-15401484D01*
X8237586Y-15401484D02*
X8237586Y-15268150D01*
X8237586Y-15287198D02*
X8247110Y-15277674D01*
X8247110Y-15277674D02*
X8266158Y-15268150D01*
X8266158Y-15268150D02*
X8294729Y-15268150D01*
X8294729Y-15268150D02*
X8313777Y-15277674D01*
X8313777Y-15277674D02*
X8323301Y-15296722D01*
X8323301Y-15296722D02*
X8323301Y-15401484D01*
X8323301Y-15296722D02*
X8332824Y-15277674D01*
X8332824Y-15277674D02*
X8351872Y-15268150D01*
X8351872Y-15268150D02*
X8380443Y-15268150D01*
X8380443Y-15268150D02*
X8399491Y-15277674D01*
X8399491Y-15277674D02*
X8409015Y-15296722D01*
X8409015Y-15296722D02*
X8409015Y-15401484D01*
X8799491Y-15191960D02*
X8628063Y-15449103D01*
X9056634Y-15201484D02*
X9075682Y-15201484D01*
X9075682Y-15201484D02*
X9094729Y-15211008D01*
X9094729Y-15211008D02*
X9104253Y-15220531D01*
X9104253Y-15220531D02*
X9113777Y-15239579D01*
X9113777Y-15239579D02*
X9123301Y-15277674D01*
X9123301Y-15277674D02*
X9123301Y-15325293D01*
X9123301Y-15325293D02*
X9113777Y-15363388D01*
X9113777Y-15363388D02*
X9104253Y-15382436D01*
X9104253Y-15382436D02*
X9094729Y-15391960D01*
X9094729Y-15391960D02*
X9075682Y-15401484D01*
X9075682Y-15401484D02*
X9056634Y-15401484D01*
X9056634Y-15401484D02*
X9037587Y-15391960D01*
X9037587Y-15391960D02*
X9028063Y-15382436D01*
X9028063Y-15382436D02*
X9018539Y-15363388D01*
X9018539Y-15363388D02*
X9009015Y-15325293D01*
X9009015Y-15325293D02*
X9009015Y-15277674D01*
X9009015Y-15277674D02*
X9018539Y-15239579D01*
X9018539Y-15239579D02*
X9028063Y-15220531D01*
X9028063Y-15220531D02*
X9037587Y-15211008D01*
X9037587Y-15211008D02*
X9056634Y-15201484D01*
X9209015Y-15382436D02*
X9218539Y-15391960D01*
X9218539Y-15391960D02*
X9209015Y-15401484D01*
X9209015Y-15401484D02*
X9199491Y-15391960D01*
X9199491Y-15391960D02*
X9209015Y-15382436D01*
X9209015Y-15382436D02*
X9209015Y-15401484D01*
X9342348Y-15201484D02*
X9361396Y-15201484D01*
X9361396Y-15201484D02*
X9380444Y-15211008D01*
X9380444Y-15211008D02*
X9389968Y-15220531D01*
X9389968Y-15220531D02*
X9399491Y-15239579D01*
X9399491Y-15239579D02*
X9409015Y-15277674D01*
X9409015Y-15277674D02*
X9409015Y-15325293D01*
X9409015Y-15325293D02*
X9399491Y-15363388D01*
X9399491Y-15363388D02*
X9389968Y-15382436D01*
X9389968Y-15382436D02*
X9380444Y-15391960D01*
X9380444Y-15391960D02*
X9361396Y-15401484D01*
X9361396Y-15401484D02*
X9342348Y-15401484D01*
X9342348Y-15401484D02*
X9323301Y-15391960D01*
X9323301Y-15391960D02*
X9313777Y-15382436D01*
X9313777Y-15382436D02*
X9304253Y-15363388D01*
X9304253Y-15363388D02*
X9294729Y-15325293D01*
X9294729Y-15325293D02*
X9294729Y-15277674D01*
X9294729Y-15277674D02*
X9304253Y-15239579D01*
X9304253Y-15239579D02*
X9313777Y-15220531D01*
X9313777Y-15220531D02*
X9323301Y-15211008D01*
X9323301Y-15211008D02*
X9342348Y-15201484D01*
X9589968Y-15201484D02*
X9494729Y-15201484D01*
X9494729Y-15201484D02*
X9485206Y-15296722D01*
X9485206Y-15296722D02*
X9494729Y-15287198D01*
X9494729Y-15287198D02*
X9513777Y-15277674D01*
X9513777Y-15277674D02*
X9561396Y-15277674D01*
X9561396Y-15277674D02*
X9580444Y-15287198D01*
X9580444Y-15287198D02*
X9589968Y-15296722D01*
X9589968Y-15296722D02*
X9599491Y-15315769D01*
X9599491Y-15315769D02*
X9599491Y-15363388D01*
X9599491Y-15363388D02*
X9589968Y-15382436D01*
X9589968Y-15382436D02*
X9580444Y-15391960D01*
X9580444Y-15391960D02*
X9561396Y-15401484D01*
X9561396Y-15401484D02*
X9513777Y-15401484D01*
X9513777Y-15401484D02*
X9494729Y-15391960D01*
X9494729Y-15391960D02*
X9485206Y-15382436D01*
X9789968Y-15401484D02*
X9675682Y-15401484D01*
X9732825Y-15401484D02*
X9732825Y-15201484D01*
X9732825Y-15201484D02*
X9713777Y-15230055D01*
X9713777Y-15230055D02*
X9694729Y-15249103D01*
X9694729Y-15249103D02*
X9675682Y-15258627D01*
X9866158Y-15220531D02*
X9875682Y-15211008D01*
X9875682Y-15211008D02*
X9894729Y-15201484D01*
X9894729Y-15201484D02*
X9942349Y-15201484D01*
X9942349Y-15201484D02*
X9961396Y-15211008D01*
X9961396Y-15211008D02*
X9970920Y-15220531D01*
X9970920Y-15220531D02*
X9980444Y-15239579D01*
X9980444Y-15239579D02*
X9980444Y-15258627D01*
X9980444Y-15258627D02*
X9970920Y-15287198D01*
X9970920Y-15287198D02*
X9856634Y-15401484D01*
X9856634Y-15401484D02*
X9980444Y-15401484D01*
X10056634Y-15201484D02*
X10056634Y-15239579D01*
X10132825Y-15201484D02*
X10132825Y-15239579D01*
X10428063Y-15477674D02*
X10418539Y-15468150D01*
X10418539Y-15468150D02*
X10399491Y-15439579D01*
X10399491Y-15439579D02*
X10389968Y-15420531D01*
X10389968Y-15420531D02*
X10380444Y-15391960D01*
X10380444Y-15391960D02*
X10370920Y-15344341D01*
X10370920Y-15344341D02*
X10370920Y-15306246D01*
X10370920Y-15306246D02*
X10380444Y-15258627D01*
X10380444Y-15258627D02*
X10389968Y-15230055D01*
X10389968Y-15230055D02*
X10399491Y-15211008D01*
X10399491Y-15211008D02*
X10418539Y-15182436D01*
X10418539Y-15182436D02*
X10428063Y-15172912D01*
X10485206Y-15201484D02*
X10609015Y-15201484D01*
X10609015Y-15201484D02*
X10542349Y-15277674D01*
X10542349Y-15277674D02*
X10570920Y-15277674D01*
X10570920Y-15277674D02*
X10589968Y-15287198D01*
X10589968Y-15287198D02*
X10599491Y-15296722D01*
X10599491Y-15296722D02*
X10609015Y-15315769D01*
X10609015Y-15315769D02*
X10609015Y-15363388D01*
X10609015Y-15363388D02*
X10599491Y-15382436D01*
X10599491Y-15382436D02*
X10589968Y-15391960D01*
X10589968Y-15391960D02*
X10570920Y-15401484D01*
X10570920Y-15401484D02*
X10513777Y-15401484D01*
X10513777Y-15401484D02*
X10494730Y-15391960D01*
X10494730Y-15391960D02*
X10485206Y-15382436D01*
X10847111Y-15401484D02*
X10847111Y-15201484D01*
X10932825Y-15401484D02*
X10932825Y-15296722D01*
X10932825Y-15296722D02*
X10923301Y-15277674D01*
X10923301Y-15277674D02*
X10904253Y-15268150D01*
X10904253Y-15268150D02*
X10875682Y-15268150D01*
X10875682Y-15268150D02*
X10856634Y-15277674D01*
X10856634Y-15277674D02*
X10847111Y-15287198D01*
X11056634Y-15401484D02*
X11037587Y-15391960D01*
X11037587Y-15391960D02*
X11028063Y-15382436D01*
X11028063Y-15382436D02*
X11018539Y-15363388D01*
X11018539Y-15363388D02*
X11018539Y-15306246D01*
X11018539Y-15306246D02*
X11028063Y-15287198D01*
X11028063Y-15287198D02*
X11037587Y-15277674D01*
X11037587Y-15277674D02*
X11056634Y-15268150D01*
X11056634Y-15268150D02*
X11085206Y-15268150D01*
X11085206Y-15268150D02*
X11104253Y-15277674D01*
X11104253Y-15277674D02*
X11113777Y-15287198D01*
X11113777Y-15287198D02*
X11123301Y-15306246D01*
X11123301Y-15306246D02*
X11123301Y-15363388D01*
X11123301Y-15363388D02*
X11113777Y-15382436D01*
X11113777Y-15382436D02*
X11104253Y-15391960D01*
X11104253Y-15391960D02*
X11085206Y-15401484D01*
X11085206Y-15401484D02*
X11056634Y-15401484D01*
X11237587Y-15401484D02*
X11218539Y-15391960D01*
X11218539Y-15391960D02*
X11209015Y-15372912D01*
X11209015Y-15372912D02*
X11209015Y-15201484D01*
X11389968Y-15391960D02*
X11370920Y-15401484D01*
X11370920Y-15401484D02*
X11332825Y-15401484D01*
X11332825Y-15401484D02*
X11313777Y-15391960D01*
X11313777Y-15391960D02*
X11304253Y-15372912D01*
X11304253Y-15372912D02*
X11304253Y-15296722D01*
X11304253Y-15296722D02*
X11313777Y-15277674D01*
X11313777Y-15277674D02*
X11332825Y-15268150D01*
X11332825Y-15268150D02*
X11370920Y-15268150D01*
X11370920Y-15268150D02*
X11389968Y-15277674D01*
X11389968Y-15277674D02*
X11399491Y-15296722D01*
X11399491Y-15296722D02*
X11399491Y-15315769D01*
X11399491Y-15315769D02*
X11304253Y-15334817D01*
X11475682Y-15391960D02*
X11494730Y-15401484D01*
X11494730Y-15401484D02*
X11532825Y-15401484D01*
X11532825Y-15401484D02*
X11551872Y-15391960D01*
X11551872Y-15391960D02*
X11561396Y-15372912D01*
X11561396Y-15372912D02*
X11561396Y-15363388D01*
X11561396Y-15363388D02*
X11551872Y-15344341D01*
X11551872Y-15344341D02*
X11532825Y-15334817D01*
X11532825Y-15334817D02*
X11504253Y-15334817D01*
X11504253Y-15334817D02*
X11485206Y-15325293D01*
X11485206Y-15325293D02*
X11475682Y-15306246D01*
X11475682Y-15306246D02*
X11475682Y-15296722D01*
X11475682Y-15296722D02*
X11485206Y-15277674D01*
X11485206Y-15277674D02*
X11504253Y-15268150D01*
X11504253Y-15268150D02*
X11532825Y-15268150D01*
X11532825Y-15268150D02*
X11551872Y-15277674D01*
X11628063Y-15477674D02*
X11637587Y-15468150D01*
X11637587Y-15468150D02*
X11656634Y-15439579D01*
X11656634Y-15439579D02*
X11666158Y-15420531D01*
X11666158Y-15420531D02*
X11675682Y-15391960D01*
X11675682Y-15391960D02*
X11685206Y-15344341D01*
X11685206Y-15344341D02*
X11685206Y-15306246D01*
X11685206Y-15306246D02*
X11675682Y-15258627D01*
X11675682Y-15258627D02*
X11666158Y-15230055D01*
X11666158Y-15230055D02*
X11656634Y-15211008D01*
X11656634Y-15211008D02*
X11637587Y-15182436D01*
X11637587Y-15182436D02*
X11628063Y-15172912D01*
D18*
X6713000Y-15504000D02*
X6853000Y-15644000D01*
X6853000Y-15504000D02*
X6713000Y-15644000D01*
X6832498Y-15623498D02*
X6832498Y-15524502D01*
X6733502Y-15524502D01*
X6733502Y-15623498D01*
X6832498Y-15623498D01*
D11*
X7218539Y-15665484D02*
X7104253Y-15665484D01*
X7161396Y-15665484D02*
X7161396Y-15465484D01*
X7161396Y-15465484D02*
X7142348Y-15494055D01*
X7142348Y-15494055D02*
X7123301Y-15513103D01*
X7123301Y-15513103D02*
X7104253Y-15522627D01*
X7304253Y-15646436D02*
X7313777Y-15655960D01*
X7313777Y-15655960D02*
X7304253Y-15665484D01*
X7304253Y-15665484D02*
X7294729Y-15655960D01*
X7294729Y-15655960D02*
X7304253Y-15646436D01*
X7304253Y-15646436D02*
X7304253Y-15665484D01*
X7485205Y-15532150D02*
X7485205Y-15665484D01*
X7437586Y-15455960D02*
X7389967Y-15598817D01*
X7389967Y-15598817D02*
X7513777Y-15598817D01*
X7628062Y-15465484D02*
X7647110Y-15465484D01*
X7647110Y-15465484D02*
X7666158Y-15475008D01*
X7666158Y-15475008D02*
X7675682Y-15484531D01*
X7675682Y-15484531D02*
X7685205Y-15503579D01*
X7685205Y-15503579D02*
X7694729Y-15541674D01*
X7694729Y-15541674D02*
X7694729Y-15589293D01*
X7694729Y-15589293D02*
X7685205Y-15627388D01*
X7685205Y-15627388D02*
X7675682Y-15646436D01*
X7675682Y-15646436D02*
X7666158Y-15655960D01*
X7666158Y-15655960D02*
X7647110Y-15665484D01*
X7647110Y-15665484D02*
X7628062Y-15665484D01*
X7628062Y-15665484D02*
X7609015Y-15655960D01*
X7609015Y-15655960D02*
X7599491Y-15646436D01*
X7599491Y-15646436D02*
X7589967Y-15627388D01*
X7589967Y-15627388D02*
X7580443Y-15589293D01*
X7580443Y-15589293D02*
X7580443Y-15541674D01*
X7580443Y-15541674D02*
X7589967Y-15503579D01*
X7589967Y-15503579D02*
X7599491Y-15484531D01*
X7599491Y-15484531D02*
X7609015Y-15475008D01*
X7609015Y-15475008D02*
X7628062Y-15465484D01*
X7818539Y-15465484D02*
X7837586Y-15465484D01*
X7837586Y-15465484D02*
X7856634Y-15475008D01*
X7856634Y-15475008D02*
X7866158Y-15484531D01*
X7866158Y-15484531D02*
X7875682Y-15503579D01*
X7875682Y-15503579D02*
X7885205Y-15541674D01*
X7885205Y-15541674D02*
X7885205Y-15589293D01*
X7885205Y-15589293D02*
X7875682Y-15627388D01*
X7875682Y-15627388D02*
X7866158Y-15646436D01*
X7866158Y-15646436D02*
X7856634Y-15655960D01*
X7856634Y-15655960D02*
X7837586Y-15665484D01*
X7837586Y-15665484D02*
X7818539Y-15665484D01*
X7818539Y-15665484D02*
X7799491Y-15655960D01*
X7799491Y-15655960D02*
X7789967Y-15646436D01*
X7789967Y-15646436D02*
X7780443Y-15627388D01*
X7780443Y-15627388D02*
X7770920Y-15589293D01*
X7770920Y-15589293D02*
X7770920Y-15541674D01*
X7770920Y-15541674D02*
X7780443Y-15503579D01*
X7780443Y-15503579D02*
X7789967Y-15484531D01*
X7789967Y-15484531D02*
X7799491Y-15475008D01*
X7799491Y-15475008D02*
X7818539Y-15465484D01*
X7970920Y-15665484D02*
X7970920Y-15532150D01*
X7970920Y-15551198D02*
X7980443Y-15541674D01*
X7980443Y-15541674D02*
X7999491Y-15532150D01*
X7999491Y-15532150D02*
X8028063Y-15532150D01*
X8028063Y-15532150D02*
X8047110Y-15541674D01*
X8047110Y-15541674D02*
X8056634Y-15560722D01*
X8056634Y-15560722D02*
X8056634Y-15665484D01*
X8056634Y-15560722D02*
X8066158Y-15541674D01*
X8066158Y-15541674D02*
X8085205Y-15532150D01*
X8085205Y-15532150D02*
X8113777Y-15532150D01*
X8113777Y-15532150D02*
X8132824Y-15541674D01*
X8132824Y-15541674D02*
X8142348Y-15560722D01*
X8142348Y-15560722D02*
X8142348Y-15665484D01*
X8237586Y-15665484D02*
X8237586Y-15532150D01*
X8237586Y-15551198D02*
X8247110Y-15541674D01*
X8247110Y-15541674D02*
X8266158Y-15532150D01*
X8266158Y-15532150D02*
X8294729Y-15532150D01*
X8294729Y-15532150D02*
X8313777Y-15541674D01*
X8313777Y-15541674D02*
X8323301Y-15560722D01*
X8323301Y-15560722D02*
X8323301Y-15665484D01*
X8323301Y-15560722D02*
X8332824Y-15541674D01*
X8332824Y-15541674D02*
X8351872Y-15532150D01*
X8351872Y-15532150D02*
X8380443Y-15532150D01*
X8380443Y-15532150D02*
X8399491Y-15541674D01*
X8399491Y-15541674D02*
X8409015Y-15560722D01*
X8409015Y-15560722D02*
X8409015Y-15665484D01*
X8799491Y-15455960D02*
X8628063Y-15713103D01*
X9056634Y-15465484D02*
X9075682Y-15465484D01*
X9075682Y-15465484D02*
X9094729Y-15475008D01*
X9094729Y-15475008D02*
X9104253Y-15484531D01*
X9104253Y-15484531D02*
X9113777Y-15503579D01*
X9113777Y-15503579D02*
X9123301Y-15541674D01*
X9123301Y-15541674D02*
X9123301Y-15589293D01*
X9123301Y-15589293D02*
X9113777Y-15627388D01*
X9113777Y-15627388D02*
X9104253Y-15646436D01*
X9104253Y-15646436D02*
X9094729Y-15655960D01*
X9094729Y-15655960D02*
X9075682Y-15665484D01*
X9075682Y-15665484D02*
X9056634Y-15665484D01*
X9056634Y-15665484D02*
X9037587Y-15655960D01*
X9037587Y-15655960D02*
X9028063Y-15646436D01*
X9028063Y-15646436D02*
X9018539Y-15627388D01*
X9018539Y-15627388D02*
X9009015Y-15589293D01*
X9009015Y-15589293D02*
X9009015Y-15541674D01*
X9009015Y-15541674D02*
X9018539Y-15503579D01*
X9018539Y-15503579D02*
X9028063Y-15484531D01*
X9028063Y-15484531D02*
X9037587Y-15475008D01*
X9037587Y-15475008D02*
X9056634Y-15465484D01*
X9209015Y-15646436D02*
X9218539Y-15655960D01*
X9218539Y-15655960D02*
X9209015Y-15665484D01*
X9209015Y-15665484D02*
X9199491Y-15655960D01*
X9199491Y-15655960D02*
X9209015Y-15646436D01*
X9209015Y-15646436D02*
X9209015Y-15665484D01*
X9342348Y-15465484D02*
X9361396Y-15465484D01*
X9361396Y-15465484D02*
X9380444Y-15475008D01*
X9380444Y-15475008D02*
X9389968Y-15484531D01*
X9389968Y-15484531D02*
X9399491Y-15503579D01*
X9399491Y-15503579D02*
X9409015Y-15541674D01*
X9409015Y-15541674D02*
X9409015Y-15589293D01*
X9409015Y-15589293D02*
X9399491Y-15627388D01*
X9399491Y-15627388D02*
X9389968Y-15646436D01*
X9389968Y-15646436D02*
X9380444Y-15655960D01*
X9380444Y-15655960D02*
X9361396Y-15665484D01*
X9361396Y-15665484D02*
X9342348Y-15665484D01*
X9342348Y-15665484D02*
X9323301Y-15655960D01*
X9323301Y-15655960D02*
X9313777Y-15646436D01*
X9313777Y-15646436D02*
X9304253Y-15627388D01*
X9304253Y-15627388D02*
X9294729Y-15589293D01*
X9294729Y-15589293D02*
X9294729Y-15541674D01*
X9294729Y-15541674D02*
X9304253Y-15503579D01*
X9304253Y-15503579D02*
X9313777Y-15484531D01*
X9313777Y-15484531D02*
X9323301Y-15475008D01*
X9323301Y-15475008D02*
X9342348Y-15465484D01*
X9589968Y-15465484D02*
X9494729Y-15465484D01*
X9494729Y-15465484D02*
X9485206Y-15560722D01*
X9485206Y-15560722D02*
X9494729Y-15551198D01*
X9494729Y-15551198D02*
X9513777Y-15541674D01*
X9513777Y-15541674D02*
X9561396Y-15541674D01*
X9561396Y-15541674D02*
X9580444Y-15551198D01*
X9580444Y-15551198D02*
X9589968Y-15560722D01*
X9589968Y-15560722D02*
X9599491Y-15579769D01*
X9599491Y-15579769D02*
X9599491Y-15627388D01*
X9599491Y-15627388D02*
X9589968Y-15646436D01*
X9589968Y-15646436D02*
X9580444Y-15655960D01*
X9580444Y-15655960D02*
X9561396Y-15665484D01*
X9561396Y-15665484D02*
X9513777Y-15665484D01*
X9513777Y-15665484D02*
X9494729Y-15655960D01*
X9494729Y-15655960D02*
X9485206Y-15646436D01*
X9780444Y-15465484D02*
X9685206Y-15465484D01*
X9685206Y-15465484D02*
X9675682Y-15560722D01*
X9675682Y-15560722D02*
X9685206Y-15551198D01*
X9685206Y-15551198D02*
X9704253Y-15541674D01*
X9704253Y-15541674D02*
X9751872Y-15541674D01*
X9751872Y-15541674D02*
X9770920Y-15551198D01*
X9770920Y-15551198D02*
X9780444Y-15560722D01*
X9780444Y-15560722D02*
X9789968Y-15579769D01*
X9789968Y-15579769D02*
X9789968Y-15627388D01*
X9789968Y-15627388D02*
X9780444Y-15646436D01*
X9780444Y-15646436D02*
X9770920Y-15655960D01*
X9770920Y-15655960D02*
X9751872Y-15665484D01*
X9751872Y-15665484D02*
X9704253Y-15665484D01*
X9704253Y-15665484D02*
X9685206Y-15655960D01*
X9685206Y-15655960D02*
X9675682Y-15646436D01*
X9980444Y-15665484D02*
X9866158Y-15665484D01*
X9923301Y-15665484D02*
X9923301Y-15465484D01*
X9923301Y-15465484D02*
X9904253Y-15494055D01*
X9904253Y-15494055D02*
X9885206Y-15513103D01*
X9885206Y-15513103D02*
X9866158Y-15522627D01*
X10056634Y-15465484D02*
X10056634Y-15503579D01*
X10132825Y-15465484D02*
X10132825Y-15503579D01*
X10428063Y-15741674D02*
X10418539Y-15732150D01*
X10418539Y-15732150D02*
X10399491Y-15703579D01*
X10399491Y-15703579D02*
X10389968Y-15684531D01*
X10389968Y-15684531D02*
X10380444Y-15655960D01*
X10380444Y-15655960D02*
X10370920Y-15608341D01*
X10370920Y-15608341D02*
X10370920Y-15570246D01*
X10370920Y-15570246D02*
X10380444Y-15522627D01*
X10380444Y-15522627D02*
X10389968Y-15494055D01*
X10389968Y-15494055D02*
X10399491Y-15475008D01*
X10399491Y-15475008D02*
X10418539Y-15446436D01*
X10418539Y-15446436D02*
X10428063Y-15436912D01*
X10532825Y-15551198D02*
X10513777Y-15541674D01*
X10513777Y-15541674D02*
X10504253Y-15532150D01*
X10504253Y-15532150D02*
X10494730Y-15513103D01*
X10494730Y-15513103D02*
X10494730Y-15503579D01*
X10494730Y-15503579D02*
X10504253Y-15484531D01*
X10504253Y-15484531D02*
X10513777Y-15475008D01*
X10513777Y-15475008D02*
X10532825Y-15465484D01*
X10532825Y-15465484D02*
X10570920Y-15465484D01*
X10570920Y-15465484D02*
X10589968Y-15475008D01*
X10589968Y-15475008D02*
X10599491Y-15484531D01*
X10599491Y-15484531D02*
X10609015Y-15503579D01*
X10609015Y-15503579D02*
X10609015Y-15513103D01*
X10609015Y-15513103D02*
X10599491Y-15532150D01*
X10599491Y-15532150D02*
X10589968Y-15541674D01*
X10589968Y-15541674D02*
X10570920Y-15551198D01*
X10570920Y-15551198D02*
X10532825Y-15551198D01*
X10532825Y-15551198D02*
X10513777Y-15560722D01*
X10513777Y-15560722D02*
X10504253Y-15570246D01*
X10504253Y-15570246D02*
X10494730Y-15589293D01*
X10494730Y-15589293D02*
X10494730Y-15627388D01*
X10494730Y-15627388D02*
X10504253Y-15646436D01*
X10504253Y-15646436D02*
X10513777Y-15655960D01*
X10513777Y-15655960D02*
X10532825Y-15665484D01*
X10532825Y-15665484D02*
X10570920Y-15665484D01*
X10570920Y-15665484D02*
X10589968Y-15655960D01*
X10589968Y-15655960D02*
X10599491Y-15646436D01*
X10599491Y-15646436D02*
X10609015Y-15627388D01*
X10609015Y-15627388D02*
X10609015Y-15589293D01*
X10609015Y-15589293D02*
X10599491Y-15570246D01*
X10599491Y-15570246D02*
X10589968Y-15560722D01*
X10589968Y-15560722D02*
X10570920Y-15551198D01*
X10847111Y-15665484D02*
X10847111Y-15465484D01*
X10932825Y-15665484D02*
X10932825Y-15560722D01*
X10932825Y-15560722D02*
X10923301Y-15541674D01*
X10923301Y-15541674D02*
X10904253Y-15532150D01*
X10904253Y-15532150D02*
X10875682Y-15532150D01*
X10875682Y-15532150D02*
X10856634Y-15541674D01*
X10856634Y-15541674D02*
X10847111Y-15551198D01*
X11056634Y-15665484D02*
X11037587Y-15655960D01*
X11037587Y-15655960D02*
X11028063Y-15646436D01*
X11028063Y-15646436D02*
X11018539Y-15627388D01*
X11018539Y-15627388D02*
X11018539Y-15570246D01*
X11018539Y-15570246D02*
X11028063Y-15551198D01*
X11028063Y-15551198D02*
X11037587Y-15541674D01*
X11037587Y-15541674D02*
X11056634Y-15532150D01*
X11056634Y-15532150D02*
X11085206Y-15532150D01*
X11085206Y-15532150D02*
X11104253Y-15541674D01*
X11104253Y-15541674D02*
X11113777Y-15551198D01*
X11113777Y-15551198D02*
X11123301Y-15570246D01*
X11123301Y-15570246D02*
X11123301Y-15627388D01*
X11123301Y-15627388D02*
X11113777Y-15646436D01*
X11113777Y-15646436D02*
X11104253Y-15655960D01*
X11104253Y-15655960D02*
X11085206Y-15665484D01*
X11085206Y-15665484D02*
X11056634Y-15665484D01*
X11237587Y-15665484D02*
X11218539Y-15655960D01*
X11218539Y-15655960D02*
X11209015Y-15636912D01*
X11209015Y-15636912D02*
X11209015Y-15465484D01*
X11389968Y-15655960D02*
X11370920Y-15665484D01*
X11370920Y-15665484D02*
X11332825Y-15665484D01*
X11332825Y-15665484D02*
X11313777Y-15655960D01*
X11313777Y-15655960D02*
X11304253Y-15636912D01*
X11304253Y-15636912D02*
X11304253Y-15560722D01*
X11304253Y-15560722D02*
X11313777Y-15541674D01*
X11313777Y-15541674D02*
X11332825Y-15532150D01*
X11332825Y-15532150D02*
X11370920Y-15532150D01*
X11370920Y-15532150D02*
X11389968Y-15541674D01*
X11389968Y-15541674D02*
X11399491Y-15560722D01*
X11399491Y-15560722D02*
X11399491Y-15579769D01*
X11399491Y-15579769D02*
X11304253Y-15598817D01*
X11475682Y-15655960D02*
X11494730Y-15665484D01*
X11494730Y-15665484D02*
X11532825Y-15665484D01*
X11532825Y-15665484D02*
X11551872Y-15655960D01*
X11551872Y-15655960D02*
X11561396Y-15636912D01*
X11561396Y-15636912D02*
X11561396Y-15627388D01*
X11561396Y-15627388D02*
X11551872Y-15608341D01*
X11551872Y-15608341D02*
X11532825Y-15598817D01*
X11532825Y-15598817D02*
X11504253Y-15598817D01*
X11504253Y-15598817D02*
X11485206Y-15589293D01*
X11485206Y-15589293D02*
X11475682Y-15570246D01*
X11475682Y-15570246D02*
X11475682Y-15560722D01*
X11475682Y-15560722D02*
X11485206Y-15541674D01*
X11485206Y-15541674D02*
X11504253Y-15532150D01*
X11504253Y-15532150D02*
X11532825Y-15532150D01*
X11532825Y-15532150D02*
X11551872Y-15541674D01*
X11628063Y-15741674D02*
X11637587Y-15732150D01*
X11637587Y-15732150D02*
X11656634Y-15703579D01*
X11656634Y-15703579D02*
X11666158Y-15684531D01*
X11666158Y-15684531D02*
X11675682Y-15655960D01*
X11675682Y-15655960D02*
X11685206Y-15608341D01*
X11685206Y-15608341D02*
X11685206Y-15570246D01*
X11685206Y-15570246D02*
X11675682Y-15522627D01*
X11675682Y-15522627D02*
X11666158Y-15494055D01*
X11666158Y-15494055D02*
X11656634Y-15475008D01*
X11656634Y-15475008D02*
X11637587Y-15446436D01*
X11637587Y-15446436D02*
X11628063Y-15436912D01*
X6653000Y-15738000D02*
X6853000Y-15938000D01*
X6853000Y-15738000D02*
X6653000Y-15938000D01*
X6753000Y-15938000D02*
X6853000Y-15838000D01*
X6753000Y-15738000D01*
X6653000Y-15838000D01*
X6753000Y-15938000D01*
X7094729Y-15729484D02*
X7218539Y-15729484D01*
X7218539Y-15729484D02*
X7151872Y-15805674D01*
X7151872Y-15805674D02*
X7180443Y-15805674D01*
X7180443Y-15805674D02*
X7199491Y-15815198D01*
X7199491Y-15815198D02*
X7209015Y-15824722D01*
X7209015Y-15824722D02*
X7218539Y-15843769D01*
X7218539Y-15843769D02*
X7218539Y-15891388D01*
X7218539Y-15891388D02*
X7209015Y-15910436D01*
X7209015Y-15910436D02*
X7199491Y-15919960D01*
X7199491Y-15919960D02*
X7180443Y-15929484D01*
X7180443Y-15929484D02*
X7123301Y-15929484D01*
X7123301Y-15929484D02*
X7104253Y-15919960D01*
X7104253Y-15919960D02*
X7094729Y-15910436D01*
X7304253Y-15910436D02*
X7313777Y-15919960D01*
X7313777Y-15919960D02*
X7304253Y-15929484D01*
X7304253Y-15929484D02*
X7294729Y-15919960D01*
X7294729Y-15919960D02*
X7304253Y-15910436D01*
X7304253Y-15910436D02*
X7304253Y-15929484D01*
X7494729Y-15729484D02*
X7399491Y-15729484D01*
X7399491Y-15729484D02*
X7389967Y-15824722D01*
X7389967Y-15824722D02*
X7399491Y-15815198D01*
X7399491Y-15815198D02*
X7418539Y-15805674D01*
X7418539Y-15805674D02*
X7466158Y-15805674D01*
X7466158Y-15805674D02*
X7485205Y-15815198D01*
X7485205Y-15815198D02*
X7494729Y-15824722D01*
X7494729Y-15824722D02*
X7504253Y-15843769D01*
X7504253Y-15843769D02*
X7504253Y-15891388D01*
X7504253Y-15891388D02*
X7494729Y-15910436D01*
X7494729Y-15910436D02*
X7485205Y-15919960D01*
X7485205Y-15919960D02*
X7466158Y-15929484D01*
X7466158Y-15929484D02*
X7418539Y-15929484D01*
X7418539Y-15929484D02*
X7399491Y-15919960D01*
X7399491Y-15919960D02*
X7389967Y-15910436D01*
X7628062Y-15729484D02*
X7647110Y-15729484D01*
X7647110Y-15729484D02*
X7666158Y-15739008D01*
X7666158Y-15739008D02*
X7675682Y-15748531D01*
X7675682Y-15748531D02*
X7685205Y-15767579D01*
X7685205Y-15767579D02*
X7694729Y-15805674D01*
X7694729Y-15805674D02*
X7694729Y-15853293D01*
X7694729Y-15853293D02*
X7685205Y-15891388D01*
X7685205Y-15891388D02*
X7675682Y-15910436D01*
X7675682Y-15910436D02*
X7666158Y-15919960D01*
X7666158Y-15919960D02*
X7647110Y-15929484D01*
X7647110Y-15929484D02*
X7628062Y-15929484D01*
X7628062Y-15929484D02*
X7609015Y-15919960D01*
X7609015Y-15919960D02*
X7599491Y-15910436D01*
X7599491Y-15910436D02*
X7589967Y-15891388D01*
X7589967Y-15891388D02*
X7580443Y-15853293D01*
X7580443Y-15853293D02*
X7580443Y-15805674D01*
X7580443Y-15805674D02*
X7589967Y-15767579D01*
X7589967Y-15767579D02*
X7599491Y-15748531D01*
X7599491Y-15748531D02*
X7609015Y-15739008D01*
X7609015Y-15739008D02*
X7628062Y-15729484D01*
X7818539Y-15729484D02*
X7837586Y-15729484D01*
X7837586Y-15729484D02*
X7856634Y-15739008D01*
X7856634Y-15739008D02*
X7866158Y-15748531D01*
X7866158Y-15748531D02*
X7875682Y-15767579D01*
X7875682Y-15767579D02*
X7885205Y-15805674D01*
X7885205Y-15805674D02*
X7885205Y-15853293D01*
X7885205Y-15853293D02*
X7875682Y-15891388D01*
X7875682Y-15891388D02*
X7866158Y-15910436D01*
X7866158Y-15910436D02*
X7856634Y-15919960D01*
X7856634Y-15919960D02*
X7837586Y-15929484D01*
X7837586Y-15929484D02*
X7818539Y-15929484D01*
X7818539Y-15929484D02*
X7799491Y-15919960D01*
X7799491Y-15919960D02*
X7789967Y-15910436D01*
X7789967Y-15910436D02*
X7780443Y-15891388D01*
X7780443Y-15891388D02*
X7770920Y-15853293D01*
X7770920Y-15853293D02*
X7770920Y-15805674D01*
X7770920Y-15805674D02*
X7780443Y-15767579D01*
X7780443Y-15767579D02*
X7789967Y-15748531D01*
X7789967Y-15748531D02*
X7799491Y-15739008D01*
X7799491Y-15739008D02*
X7818539Y-15729484D01*
X7970920Y-15929484D02*
X7970920Y-15796150D01*
X7970920Y-15815198D02*
X7980443Y-15805674D01*
X7980443Y-15805674D02*
X7999491Y-15796150D01*
X7999491Y-15796150D02*
X8028063Y-15796150D01*
X8028063Y-15796150D02*
X8047110Y-15805674D01*
X8047110Y-15805674D02*
X8056634Y-15824722D01*
X8056634Y-15824722D02*
X8056634Y-15929484D01*
X8056634Y-15824722D02*
X8066158Y-15805674D01*
X8066158Y-15805674D02*
X8085205Y-15796150D01*
X8085205Y-15796150D02*
X8113777Y-15796150D01*
X8113777Y-15796150D02*
X8132824Y-15805674D01*
X8132824Y-15805674D02*
X8142348Y-15824722D01*
X8142348Y-15824722D02*
X8142348Y-15929484D01*
X8237586Y-15929484D02*
X8237586Y-15796150D01*
X8237586Y-15815198D02*
X8247110Y-15805674D01*
X8247110Y-15805674D02*
X8266158Y-15796150D01*
X8266158Y-15796150D02*
X8294729Y-15796150D01*
X8294729Y-15796150D02*
X8313777Y-15805674D01*
X8313777Y-15805674D02*
X8323301Y-15824722D01*
X8323301Y-15824722D02*
X8323301Y-15929484D01*
X8323301Y-15824722D02*
X8332824Y-15805674D01*
X8332824Y-15805674D02*
X8351872Y-15796150D01*
X8351872Y-15796150D02*
X8380443Y-15796150D01*
X8380443Y-15796150D02*
X8399491Y-15805674D01*
X8399491Y-15805674D02*
X8409015Y-15824722D01*
X8409015Y-15824722D02*
X8409015Y-15929484D01*
X8799491Y-15719960D02*
X8628063Y-15977103D01*
X9056634Y-15729484D02*
X9075682Y-15729484D01*
X9075682Y-15729484D02*
X9094729Y-15739008D01*
X9094729Y-15739008D02*
X9104253Y-15748531D01*
X9104253Y-15748531D02*
X9113777Y-15767579D01*
X9113777Y-15767579D02*
X9123301Y-15805674D01*
X9123301Y-15805674D02*
X9123301Y-15853293D01*
X9123301Y-15853293D02*
X9113777Y-15891388D01*
X9113777Y-15891388D02*
X9104253Y-15910436D01*
X9104253Y-15910436D02*
X9094729Y-15919960D01*
X9094729Y-15919960D02*
X9075682Y-15929484D01*
X9075682Y-15929484D02*
X9056634Y-15929484D01*
X9056634Y-15929484D02*
X9037587Y-15919960D01*
X9037587Y-15919960D02*
X9028063Y-15910436D01*
X9028063Y-15910436D02*
X9018539Y-15891388D01*
X9018539Y-15891388D02*
X9009015Y-15853293D01*
X9009015Y-15853293D02*
X9009015Y-15805674D01*
X9009015Y-15805674D02*
X9018539Y-15767579D01*
X9018539Y-15767579D02*
X9028063Y-15748531D01*
X9028063Y-15748531D02*
X9037587Y-15739008D01*
X9037587Y-15739008D02*
X9056634Y-15729484D01*
X9209015Y-15910436D02*
X9218539Y-15919960D01*
X9218539Y-15919960D02*
X9209015Y-15929484D01*
X9209015Y-15929484D02*
X9199491Y-15919960D01*
X9199491Y-15919960D02*
X9209015Y-15910436D01*
X9209015Y-15910436D02*
X9209015Y-15929484D01*
X9409015Y-15929484D02*
X9294729Y-15929484D01*
X9351872Y-15929484D02*
X9351872Y-15729484D01*
X9351872Y-15729484D02*
X9332825Y-15758055D01*
X9332825Y-15758055D02*
X9313777Y-15777103D01*
X9313777Y-15777103D02*
X9294729Y-15786627D01*
X9475682Y-15729484D02*
X9599491Y-15729484D01*
X9599491Y-15729484D02*
X9532825Y-15805674D01*
X9532825Y-15805674D02*
X9561396Y-15805674D01*
X9561396Y-15805674D02*
X9580444Y-15815198D01*
X9580444Y-15815198D02*
X9589968Y-15824722D01*
X9589968Y-15824722D02*
X9599491Y-15843769D01*
X9599491Y-15843769D02*
X9599491Y-15891388D01*
X9599491Y-15891388D02*
X9589968Y-15910436D01*
X9589968Y-15910436D02*
X9580444Y-15919960D01*
X9580444Y-15919960D02*
X9561396Y-15929484D01*
X9561396Y-15929484D02*
X9504253Y-15929484D01*
X9504253Y-15929484D02*
X9485206Y-15919960D01*
X9485206Y-15919960D02*
X9475682Y-15910436D01*
X9666158Y-15729484D02*
X9799491Y-15729484D01*
X9799491Y-15729484D02*
X9713777Y-15929484D01*
X9904253Y-15815198D02*
X9885206Y-15805674D01*
X9885206Y-15805674D02*
X9875682Y-15796150D01*
X9875682Y-15796150D02*
X9866158Y-15777103D01*
X9866158Y-15777103D02*
X9866158Y-15767579D01*
X9866158Y-15767579D02*
X9875682Y-15748531D01*
X9875682Y-15748531D02*
X9885206Y-15739008D01*
X9885206Y-15739008D02*
X9904253Y-15729484D01*
X9904253Y-15729484D02*
X9942349Y-15729484D01*
X9942349Y-15729484D02*
X9961396Y-15739008D01*
X9961396Y-15739008D02*
X9970920Y-15748531D01*
X9970920Y-15748531D02*
X9980444Y-15767579D01*
X9980444Y-15767579D02*
X9980444Y-15777103D01*
X9980444Y-15777103D02*
X9970920Y-15796150D01*
X9970920Y-15796150D02*
X9961396Y-15805674D01*
X9961396Y-15805674D02*
X9942349Y-15815198D01*
X9942349Y-15815198D02*
X9904253Y-15815198D01*
X9904253Y-15815198D02*
X9885206Y-15824722D01*
X9885206Y-15824722D02*
X9875682Y-15834246D01*
X9875682Y-15834246D02*
X9866158Y-15853293D01*
X9866158Y-15853293D02*
X9866158Y-15891388D01*
X9866158Y-15891388D02*
X9875682Y-15910436D01*
X9875682Y-15910436D02*
X9885206Y-15919960D01*
X9885206Y-15919960D02*
X9904253Y-15929484D01*
X9904253Y-15929484D02*
X9942349Y-15929484D01*
X9942349Y-15929484D02*
X9961396Y-15919960D01*
X9961396Y-15919960D02*
X9970920Y-15910436D01*
X9970920Y-15910436D02*
X9980444Y-15891388D01*
X9980444Y-15891388D02*
X9980444Y-15853293D01*
X9980444Y-15853293D02*
X9970920Y-15834246D01*
X9970920Y-15834246D02*
X9961396Y-15824722D01*
X9961396Y-15824722D02*
X9942349Y-15815198D01*
X10056634Y-15729484D02*
X10056634Y-15767579D01*
X10132825Y-15729484D02*
X10132825Y-15767579D01*
X10428063Y-16005674D02*
X10418539Y-15996150D01*
X10418539Y-15996150D02*
X10399491Y-15967579D01*
X10399491Y-15967579D02*
X10389968Y-15948531D01*
X10389968Y-15948531D02*
X10380444Y-15919960D01*
X10380444Y-15919960D02*
X10370920Y-15872341D01*
X10370920Y-15872341D02*
X10370920Y-15834246D01*
X10370920Y-15834246D02*
X10380444Y-15786627D01*
X10380444Y-15786627D02*
X10389968Y-15758055D01*
X10389968Y-15758055D02*
X10399491Y-15739008D01*
X10399491Y-15739008D02*
X10418539Y-15710436D01*
X10418539Y-15710436D02*
X10428063Y-15700912D01*
X10589968Y-15796150D02*
X10589968Y-15929484D01*
X10542349Y-15719960D02*
X10494730Y-15862817D01*
X10494730Y-15862817D02*
X10618539Y-15862817D01*
X10847111Y-15929484D02*
X10847111Y-15729484D01*
X10932825Y-15929484D02*
X10932825Y-15824722D01*
X10932825Y-15824722D02*
X10923301Y-15805674D01*
X10923301Y-15805674D02*
X10904253Y-15796150D01*
X10904253Y-15796150D02*
X10875682Y-15796150D01*
X10875682Y-15796150D02*
X10856634Y-15805674D01*
X10856634Y-15805674D02*
X10847111Y-15815198D01*
X11056634Y-15929484D02*
X11037587Y-15919960D01*
X11037587Y-15919960D02*
X11028063Y-15910436D01*
X11028063Y-15910436D02*
X11018539Y-15891388D01*
X11018539Y-15891388D02*
X11018539Y-15834246D01*
X11018539Y-15834246D02*
X11028063Y-15815198D01*
X11028063Y-15815198D02*
X11037587Y-15805674D01*
X11037587Y-15805674D02*
X11056634Y-15796150D01*
X11056634Y-15796150D02*
X11085206Y-15796150D01*
X11085206Y-15796150D02*
X11104253Y-15805674D01*
X11104253Y-15805674D02*
X11113777Y-15815198D01*
X11113777Y-15815198D02*
X11123301Y-15834246D01*
X11123301Y-15834246D02*
X11123301Y-15891388D01*
X11123301Y-15891388D02*
X11113777Y-15910436D01*
X11113777Y-15910436D02*
X11104253Y-15919960D01*
X11104253Y-15919960D02*
X11085206Y-15929484D01*
X11085206Y-15929484D02*
X11056634Y-15929484D01*
X11237587Y-15929484D02*
X11218539Y-15919960D01*
X11218539Y-15919960D02*
X11209015Y-15900912D01*
X11209015Y-15900912D02*
X11209015Y-15729484D01*
X11389968Y-15919960D02*
X11370920Y-15929484D01*
X11370920Y-15929484D02*
X11332825Y-15929484D01*
X11332825Y-15929484D02*
X11313777Y-15919960D01*
X11313777Y-15919960D02*
X11304253Y-15900912D01*
X11304253Y-15900912D02*
X11304253Y-15824722D01*
X11304253Y-15824722D02*
X11313777Y-15805674D01*
X11313777Y-15805674D02*
X11332825Y-15796150D01*
X11332825Y-15796150D02*
X11370920Y-15796150D01*
X11370920Y-15796150D02*
X11389968Y-15805674D01*
X11389968Y-15805674D02*
X11399491Y-15824722D01*
X11399491Y-15824722D02*
X11399491Y-15843769D01*
X11399491Y-15843769D02*
X11304253Y-15862817D01*
X11475682Y-15919960D02*
X11494730Y-15929484D01*
X11494730Y-15929484D02*
X11532825Y-15929484D01*
X11532825Y-15929484D02*
X11551872Y-15919960D01*
X11551872Y-15919960D02*
X11561396Y-15900912D01*
X11561396Y-15900912D02*
X11561396Y-15891388D01*
X11561396Y-15891388D02*
X11551872Y-15872341D01*
X11551872Y-15872341D02*
X11532825Y-15862817D01*
X11532825Y-15862817D02*
X11504253Y-15862817D01*
X11504253Y-15862817D02*
X11485206Y-15853293D01*
X11485206Y-15853293D02*
X11475682Y-15834246D01*
X11475682Y-15834246D02*
X11475682Y-15824722D01*
X11475682Y-15824722D02*
X11485206Y-15805674D01*
X11485206Y-15805674D02*
X11504253Y-15796150D01*
X11504253Y-15796150D02*
X11532825Y-15796150D01*
X11532825Y-15796150D02*
X11551872Y-15805674D01*
X11628063Y-16005674D02*
X11637587Y-15996150D01*
X11637587Y-15996150D02*
X11656634Y-15967579D01*
X11656634Y-15967579D02*
X11666158Y-15948531D01*
X11666158Y-15948531D02*
X11675682Y-15919960D01*
X11675682Y-15919960D02*
X11685206Y-15872341D01*
X11685206Y-15872341D02*
X11685206Y-15834246D01*
X11685206Y-15834246D02*
X11675682Y-15786627D01*
X11675682Y-15786627D02*
X11666158Y-15758055D01*
X11666158Y-15758055D02*
X11656634Y-15739008D01*
X11656634Y-15739008D02*
X11637587Y-15710436D01*
X11637587Y-15710436D02*
X11628063Y-15700912D01*
M02*
