%TF.GenerationSoftware,KiCad,Pcbnew,7.0.7*%
%TF.CreationDate,2023-12-03T21:53:00-03:00*%
%TF.ProjectId,climatizador automatico,636c696d-6174-4697-9a61-646f72206175,rev?*%
%TF.SameCoordinates,Original*%
%TF.FileFunction,Legend,Top*%
%TF.FilePolarity,Positive*%
%FSLAX46Y46*%
G04 Gerber Fmt 4.6, Leading zero omitted, Abs format (unit mm)*
G04 Created by KiCad (PCBNEW 7.0.7) date 2023-12-03 21:53:00*
%MOMM*%
%LPD*%
G01*
G04 APERTURE LIST*
%ADD10C,0.150000*%
%ADD11C,0.120000*%
G04 APERTURE END LIST*
D10*
X153382805Y-123101719D02*
X153382805Y-122101719D01*
X153382805Y-122101719D02*
X153620900Y-122101719D01*
X153620900Y-122101719D02*
X153763757Y-122149338D01*
X153763757Y-122149338D02*
X153858995Y-122244576D01*
X153858995Y-122244576D02*
X153906614Y-122339814D01*
X153906614Y-122339814D02*
X153954233Y-122530290D01*
X153954233Y-122530290D02*
X153954233Y-122673147D01*
X153954233Y-122673147D02*
X153906614Y-122863623D01*
X153906614Y-122863623D02*
X153858995Y-122958861D01*
X153858995Y-122958861D02*
X153763757Y-123054100D01*
X153763757Y-123054100D02*
X153620900Y-123101719D01*
X153620900Y-123101719D02*
X153382805Y-123101719D01*
X154335186Y-122196957D02*
X154382805Y-122149338D01*
X154382805Y-122149338D02*
X154478043Y-122101719D01*
X154478043Y-122101719D02*
X154716138Y-122101719D01*
X154716138Y-122101719D02*
X154811376Y-122149338D01*
X154811376Y-122149338D02*
X154858995Y-122196957D01*
X154858995Y-122196957D02*
X154906614Y-122292195D01*
X154906614Y-122292195D02*
X154906614Y-122387433D01*
X154906614Y-122387433D02*
X154858995Y-122530290D01*
X154858995Y-122530290D02*
X154287567Y-123101719D01*
X154287567Y-123101719D02*
X154906614Y-123101719D01*
X148778995Y-123471719D02*
X148778995Y-122471719D01*
X149350423Y-123471719D02*
X148921852Y-122900290D01*
X149350423Y-122471719D02*
X148778995Y-123043147D01*
X142085305Y-96194219D02*
X142085305Y-95194219D01*
X142656733Y-96194219D02*
X142228162Y-95622790D01*
X142656733Y-95194219D02*
X142085305Y-95765647D01*
X143609114Y-96194219D02*
X143037686Y-96194219D01*
X143323400Y-96194219D02*
X143323400Y-95194219D01*
X143323400Y-95194219D02*
X143228162Y-95337076D01*
X143228162Y-95337076D02*
X143132924Y-95432314D01*
X143132924Y-95432314D02*
X143037686Y-95479933D01*
X169872805Y-96194219D02*
X169872805Y-95194219D01*
X170444233Y-96194219D02*
X170015662Y-95622790D01*
X170444233Y-95194219D02*
X169872805Y-95765647D01*
X171348995Y-95194219D02*
X170872805Y-95194219D01*
X170872805Y-95194219D02*
X170825186Y-95670409D01*
X170825186Y-95670409D02*
X170872805Y-95622790D01*
X170872805Y-95622790D02*
X170968043Y-95575171D01*
X170968043Y-95575171D02*
X171206138Y-95575171D01*
X171206138Y-95575171D02*
X171301376Y-95622790D01*
X171301376Y-95622790D02*
X171348995Y-95670409D01*
X171348995Y-95670409D02*
X171396614Y-95765647D01*
X171396614Y-95765647D02*
X171396614Y-96003742D01*
X171396614Y-96003742D02*
X171348995Y-96098980D01*
X171348995Y-96098980D02*
X171301376Y-96146600D01*
X171301376Y-96146600D02*
X171206138Y-96194219D01*
X171206138Y-96194219D02*
X170968043Y-96194219D01*
X170968043Y-96194219D02*
X170872805Y-96146600D01*
X170872805Y-96146600D02*
X170825186Y-96098980D01*
X99558995Y-92994219D02*
X99558995Y-93803742D01*
X99558995Y-93803742D02*
X99606614Y-93898980D01*
X99606614Y-93898980D02*
X99654233Y-93946600D01*
X99654233Y-93946600D02*
X99749471Y-93994219D01*
X99749471Y-93994219D02*
X99939947Y-93994219D01*
X99939947Y-93994219D02*
X100035185Y-93946600D01*
X100035185Y-93946600D02*
X100082804Y-93898980D01*
X100082804Y-93898980D02*
X100130423Y-93803742D01*
X100130423Y-93803742D02*
X100130423Y-92994219D01*
X101035185Y-93327552D02*
X101035185Y-93994219D01*
X100797090Y-92946600D02*
X100558995Y-93660885D01*
X100558995Y-93660885D02*
X101178042Y-93660885D01*
X178708161Y-100829457D02*
X178612923Y-100781838D01*
X178612923Y-100781838D02*
X178517685Y-100686600D01*
X178517685Y-100686600D02*
X178374828Y-100543742D01*
X178374828Y-100543742D02*
X178279590Y-100496123D01*
X178279590Y-100496123D02*
X178184352Y-100496123D01*
X178231971Y-100734219D02*
X178136733Y-100686600D01*
X178136733Y-100686600D02*
X178041495Y-100591361D01*
X178041495Y-100591361D02*
X177993876Y-100400885D01*
X177993876Y-100400885D02*
X177993876Y-100067552D01*
X177993876Y-100067552D02*
X178041495Y-99877076D01*
X178041495Y-99877076D02*
X178136733Y-99781838D01*
X178136733Y-99781838D02*
X178231971Y-99734219D01*
X178231971Y-99734219D02*
X178422447Y-99734219D01*
X178422447Y-99734219D02*
X178517685Y-99781838D01*
X178517685Y-99781838D02*
X178612923Y-99877076D01*
X178612923Y-99877076D02*
X178660542Y-100067552D01*
X178660542Y-100067552D02*
X178660542Y-100400885D01*
X178660542Y-100400885D02*
X178612923Y-100591361D01*
X178612923Y-100591361D02*
X178517685Y-100686600D01*
X178517685Y-100686600D02*
X178422447Y-100734219D01*
X178422447Y-100734219D02*
X178231971Y-100734219D01*
X178993876Y-99734219D02*
X179612923Y-99734219D01*
X179612923Y-99734219D02*
X179279590Y-100115171D01*
X179279590Y-100115171D02*
X179422447Y-100115171D01*
X179422447Y-100115171D02*
X179517685Y-100162790D01*
X179517685Y-100162790D02*
X179565304Y-100210409D01*
X179565304Y-100210409D02*
X179612923Y-100305647D01*
X179612923Y-100305647D02*
X179612923Y-100543742D01*
X179612923Y-100543742D02*
X179565304Y-100638980D01*
X179565304Y-100638980D02*
X179517685Y-100686600D01*
X179517685Y-100686600D02*
X179422447Y-100734219D01*
X179422447Y-100734219D02*
X179136733Y-100734219D01*
X179136733Y-100734219D02*
X179041495Y-100686600D01*
X179041495Y-100686600D02*
X178993876Y-100638980D01*
X195945719Y-105720233D02*
X196660004Y-105720233D01*
X196660004Y-105720233D02*
X196802861Y-105767852D01*
X196802861Y-105767852D02*
X196898100Y-105863090D01*
X196898100Y-105863090D02*
X196945719Y-106005947D01*
X196945719Y-106005947D02*
X196945719Y-106101185D01*
X196945719Y-104720233D02*
X196945719Y-105291661D01*
X196945719Y-105005947D02*
X195945719Y-105005947D01*
X195945719Y-105005947D02*
X196088576Y-105101185D01*
X196088576Y-105101185D02*
X196183814Y-105196423D01*
X196183814Y-105196423D02*
X196231433Y-105291661D01*
X121025661Y-92726719D02*
X120692328Y-92250528D01*
X120454233Y-92726719D02*
X120454233Y-91726719D01*
X120454233Y-91726719D02*
X120835185Y-91726719D01*
X120835185Y-91726719D02*
X120930423Y-91774338D01*
X120930423Y-91774338D02*
X120978042Y-91821957D01*
X120978042Y-91821957D02*
X121025661Y-91917195D01*
X121025661Y-91917195D02*
X121025661Y-92060052D01*
X121025661Y-92060052D02*
X120978042Y-92155290D01*
X120978042Y-92155290D02*
X120930423Y-92202909D01*
X120930423Y-92202909D02*
X120835185Y-92250528D01*
X120835185Y-92250528D02*
X120454233Y-92250528D01*
X121311376Y-91726719D02*
X121644709Y-92726719D01*
X121644709Y-92726719D02*
X121978042Y-91726719D01*
X122835185Y-92726719D02*
X122263757Y-92726719D01*
X122549471Y-92726719D02*
X122549471Y-91726719D01*
X122549471Y-91726719D02*
X122454233Y-91869576D01*
X122454233Y-91869576D02*
X122358995Y-91964814D01*
X122358995Y-91964814D02*
X122263757Y-92012433D01*
X82625719Y-110210233D02*
X83340004Y-110210233D01*
X83340004Y-110210233D02*
X83482861Y-110257852D01*
X83482861Y-110257852D02*
X83578100Y-110353090D01*
X83578100Y-110353090D02*
X83625719Y-110495947D01*
X83625719Y-110495947D02*
X83625719Y-110591185D01*
X82720957Y-109781661D02*
X82673338Y-109734042D01*
X82673338Y-109734042D02*
X82625719Y-109638804D01*
X82625719Y-109638804D02*
X82625719Y-109400709D01*
X82625719Y-109400709D02*
X82673338Y-109305471D01*
X82673338Y-109305471D02*
X82720957Y-109257852D01*
X82720957Y-109257852D02*
X82816195Y-109210233D01*
X82816195Y-109210233D02*
X82911433Y-109210233D01*
X82911433Y-109210233D02*
X83054290Y-109257852D01*
X83054290Y-109257852D02*
X83625719Y-109829280D01*
X83625719Y-109829280D02*
X83625719Y-109210233D01*
X73328100Y-73110232D02*
X73375719Y-72967375D01*
X73375719Y-72967375D02*
X73375719Y-72729280D01*
X73375719Y-72729280D02*
X73328100Y-72634042D01*
X73328100Y-72634042D02*
X73280480Y-72586423D01*
X73280480Y-72586423D02*
X73185242Y-72538804D01*
X73185242Y-72538804D02*
X73090004Y-72538804D01*
X73090004Y-72538804D02*
X72994766Y-72586423D01*
X72994766Y-72586423D02*
X72947147Y-72634042D01*
X72947147Y-72634042D02*
X72899528Y-72729280D01*
X72899528Y-72729280D02*
X72851909Y-72919756D01*
X72851909Y-72919756D02*
X72804290Y-73014994D01*
X72804290Y-73014994D02*
X72756671Y-73062613D01*
X72756671Y-73062613D02*
X72661433Y-73110232D01*
X72661433Y-73110232D02*
X72566195Y-73110232D01*
X72566195Y-73110232D02*
X72470957Y-73062613D01*
X72470957Y-73062613D02*
X72423338Y-73014994D01*
X72423338Y-73014994D02*
X72375719Y-72919756D01*
X72375719Y-72919756D02*
X72375719Y-72681661D01*
X72375719Y-72681661D02*
X72423338Y-72538804D01*
X72375719Y-72205470D02*
X73375719Y-71967375D01*
X73375719Y-71967375D02*
X72661433Y-71776899D01*
X72661433Y-71776899D02*
X73375719Y-71586423D01*
X73375719Y-71586423D02*
X72375719Y-71348328D01*
X72375719Y-71062613D02*
X72375719Y-70443566D01*
X72375719Y-70443566D02*
X72756671Y-70776899D01*
X72756671Y-70776899D02*
X72756671Y-70634042D01*
X72756671Y-70634042D02*
X72804290Y-70538804D01*
X72804290Y-70538804D02*
X72851909Y-70491185D01*
X72851909Y-70491185D02*
X72947147Y-70443566D01*
X72947147Y-70443566D02*
X73185242Y-70443566D01*
X73185242Y-70443566D02*
X73280480Y-70491185D01*
X73280480Y-70491185D02*
X73328100Y-70538804D01*
X73328100Y-70538804D02*
X73375719Y-70634042D01*
X73375719Y-70634042D02*
X73375719Y-70919756D01*
X73375719Y-70919756D02*
X73328100Y-71014994D01*
X73328100Y-71014994D02*
X73280480Y-71062613D01*
X178708161Y-112409457D02*
X178612923Y-112361838D01*
X178612923Y-112361838D02*
X178517685Y-112266600D01*
X178517685Y-112266600D02*
X178374828Y-112123742D01*
X178374828Y-112123742D02*
X178279590Y-112076123D01*
X178279590Y-112076123D02*
X178184352Y-112076123D01*
X178231971Y-112314219D02*
X178136733Y-112266600D01*
X178136733Y-112266600D02*
X178041495Y-112171361D01*
X178041495Y-112171361D02*
X177993876Y-111980885D01*
X177993876Y-111980885D02*
X177993876Y-111647552D01*
X177993876Y-111647552D02*
X178041495Y-111457076D01*
X178041495Y-111457076D02*
X178136733Y-111361838D01*
X178136733Y-111361838D02*
X178231971Y-111314219D01*
X178231971Y-111314219D02*
X178422447Y-111314219D01*
X178422447Y-111314219D02*
X178517685Y-111361838D01*
X178517685Y-111361838D02*
X178612923Y-111457076D01*
X178612923Y-111457076D02*
X178660542Y-111647552D01*
X178660542Y-111647552D02*
X178660542Y-111980885D01*
X178660542Y-111980885D02*
X178612923Y-112171361D01*
X178612923Y-112171361D02*
X178517685Y-112266600D01*
X178517685Y-112266600D02*
X178422447Y-112314219D01*
X178422447Y-112314219D02*
X178231971Y-112314219D01*
X179565304Y-111314219D02*
X179089114Y-111314219D01*
X179089114Y-111314219D02*
X179041495Y-111790409D01*
X179041495Y-111790409D02*
X179089114Y-111742790D01*
X179089114Y-111742790D02*
X179184352Y-111695171D01*
X179184352Y-111695171D02*
X179422447Y-111695171D01*
X179422447Y-111695171D02*
X179517685Y-111742790D01*
X179517685Y-111742790D02*
X179565304Y-111790409D01*
X179565304Y-111790409D02*
X179612923Y-111885647D01*
X179612923Y-111885647D02*
X179612923Y-112123742D01*
X179612923Y-112123742D02*
X179565304Y-112218980D01*
X179565304Y-112218980D02*
X179517685Y-112266600D01*
X179517685Y-112266600D02*
X179422447Y-112314219D01*
X179422447Y-112314219D02*
X179184352Y-112314219D01*
X179184352Y-112314219D02*
X179089114Y-112266600D01*
X179089114Y-112266600D02*
X179041495Y-112218980D01*
X155902805Y-96194219D02*
X155902805Y-95194219D01*
X156474233Y-96194219D02*
X156045662Y-95622790D01*
X156474233Y-95194219D02*
X155902805Y-95765647D01*
X156855186Y-95289457D02*
X156902805Y-95241838D01*
X156902805Y-95241838D02*
X156998043Y-95194219D01*
X156998043Y-95194219D02*
X157236138Y-95194219D01*
X157236138Y-95194219D02*
X157331376Y-95241838D01*
X157331376Y-95241838D02*
X157378995Y-95289457D01*
X157378995Y-95289457D02*
X157426614Y-95384695D01*
X157426614Y-95384695D02*
X157426614Y-95479933D01*
X157426614Y-95479933D02*
X157378995Y-95622790D01*
X157378995Y-95622790D02*
X156807567Y-96194219D01*
X156807567Y-96194219D02*
X157426614Y-96194219D01*
X73038100Y-60970232D02*
X73085719Y-60827375D01*
X73085719Y-60827375D02*
X73085719Y-60589280D01*
X73085719Y-60589280D02*
X73038100Y-60494042D01*
X73038100Y-60494042D02*
X72990480Y-60446423D01*
X72990480Y-60446423D02*
X72895242Y-60398804D01*
X72895242Y-60398804D02*
X72800004Y-60398804D01*
X72800004Y-60398804D02*
X72704766Y-60446423D01*
X72704766Y-60446423D02*
X72657147Y-60494042D01*
X72657147Y-60494042D02*
X72609528Y-60589280D01*
X72609528Y-60589280D02*
X72561909Y-60779756D01*
X72561909Y-60779756D02*
X72514290Y-60874994D01*
X72514290Y-60874994D02*
X72466671Y-60922613D01*
X72466671Y-60922613D02*
X72371433Y-60970232D01*
X72371433Y-60970232D02*
X72276195Y-60970232D01*
X72276195Y-60970232D02*
X72180957Y-60922613D01*
X72180957Y-60922613D02*
X72133338Y-60874994D01*
X72133338Y-60874994D02*
X72085719Y-60779756D01*
X72085719Y-60779756D02*
X72085719Y-60541661D01*
X72085719Y-60541661D02*
X72133338Y-60398804D01*
X72085719Y-60065470D02*
X73085719Y-59827375D01*
X73085719Y-59827375D02*
X72371433Y-59636899D01*
X72371433Y-59636899D02*
X73085719Y-59446423D01*
X73085719Y-59446423D02*
X72085719Y-59208328D01*
X72180957Y-58874994D02*
X72133338Y-58827375D01*
X72133338Y-58827375D02*
X72085719Y-58732137D01*
X72085719Y-58732137D02*
X72085719Y-58494042D01*
X72085719Y-58494042D02*
X72133338Y-58398804D01*
X72133338Y-58398804D02*
X72180957Y-58351185D01*
X72180957Y-58351185D02*
X72276195Y-58303566D01*
X72276195Y-58303566D02*
X72371433Y-58303566D01*
X72371433Y-58303566D02*
X72514290Y-58351185D01*
X72514290Y-58351185D02*
X73085719Y-58922613D01*
X73085719Y-58922613D02*
X73085719Y-58303566D01*
X73328100Y-49540232D02*
X73375719Y-49397375D01*
X73375719Y-49397375D02*
X73375719Y-49159280D01*
X73375719Y-49159280D02*
X73328100Y-49064042D01*
X73328100Y-49064042D02*
X73280480Y-49016423D01*
X73280480Y-49016423D02*
X73185242Y-48968804D01*
X73185242Y-48968804D02*
X73090004Y-48968804D01*
X73090004Y-48968804D02*
X72994766Y-49016423D01*
X72994766Y-49016423D02*
X72947147Y-49064042D01*
X72947147Y-49064042D02*
X72899528Y-49159280D01*
X72899528Y-49159280D02*
X72851909Y-49349756D01*
X72851909Y-49349756D02*
X72804290Y-49444994D01*
X72804290Y-49444994D02*
X72756671Y-49492613D01*
X72756671Y-49492613D02*
X72661433Y-49540232D01*
X72661433Y-49540232D02*
X72566195Y-49540232D01*
X72566195Y-49540232D02*
X72470957Y-49492613D01*
X72470957Y-49492613D02*
X72423338Y-49444994D01*
X72423338Y-49444994D02*
X72375719Y-49349756D01*
X72375719Y-49349756D02*
X72375719Y-49111661D01*
X72375719Y-49111661D02*
X72423338Y-48968804D01*
X72375719Y-48635470D02*
X73375719Y-48397375D01*
X73375719Y-48397375D02*
X72661433Y-48206899D01*
X72661433Y-48206899D02*
X73375719Y-48016423D01*
X73375719Y-48016423D02*
X72375719Y-47778328D01*
X73375719Y-46873566D02*
X73375719Y-47444994D01*
X73375719Y-47159280D02*
X72375719Y-47159280D01*
X72375719Y-47159280D02*
X72518576Y-47254518D01*
X72518576Y-47254518D02*
X72613814Y-47349756D01*
X72613814Y-47349756D02*
X72661433Y-47444994D01*
X210548995Y-88511719D02*
X210548995Y-89321242D01*
X210548995Y-89321242D02*
X210596614Y-89416480D01*
X210596614Y-89416480D02*
X210644233Y-89464100D01*
X210644233Y-89464100D02*
X210739471Y-89511719D01*
X210739471Y-89511719D02*
X210929947Y-89511719D01*
X210929947Y-89511719D02*
X211025185Y-89464100D01*
X211025185Y-89464100D02*
X211072804Y-89416480D01*
X211072804Y-89416480D02*
X211120423Y-89321242D01*
X211120423Y-89321242D02*
X211120423Y-88511719D01*
X211548995Y-88606957D02*
X211596614Y-88559338D01*
X211596614Y-88559338D02*
X211691852Y-88511719D01*
X211691852Y-88511719D02*
X211929947Y-88511719D01*
X211929947Y-88511719D02*
X212025185Y-88559338D01*
X212025185Y-88559338D02*
X212072804Y-88606957D01*
X212072804Y-88606957D02*
X212120423Y-88702195D01*
X212120423Y-88702195D02*
X212120423Y-88797433D01*
X212120423Y-88797433D02*
X212072804Y-88940290D01*
X212072804Y-88940290D02*
X211501376Y-89511719D01*
X211501376Y-89511719D02*
X212120423Y-89511719D01*
X178708161Y-106619457D02*
X178612923Y-106571838D01*
X178612923Y-106571838D02*
X178517685Y-106476600D01*
X178517685Y-106476600D02*
X178374828Y-106333742D01*
X178374828Y-106333742D02*
X178279590Y-106286123D01*
X178279590Y-106286123D02*
X178184352Y-106286123D01*
X178231971Y-106524219D02*
X178136733Y-106476600D01*
X178136733Y-106476600D02*
X178041495Y-106381361D01*
X178041495Y-106381361D02*
X177993876Y-106190885D01*
X177993876Y-106190885D02*
X177993876Y-105857552D01*
X177993876Y-105857552D02*
X178041495Y-105667076D01*
X178041495Y-105667076D02*
X178136733Y-105571838D01*
X178136733Y-105571838D02*
X178231971Y-105524219D01*
X178231971Y-105524219D02*
X178422447Y-105524219D01*
X178422447Y-105524219D02*
X178517685Y-105571838D01*
X178517685Y-105571838D02*
X178612923Y-105667076D01*
X178612923Y-105667076D02*
X178660542Y-105857552D01*
X178660542Y-105857552D02*
X178660542Y-106190885D01*
X178660542Y-106190885D02*
X178612923Y-106381361D01*
X178612923Y-106381361D02*
X178517685Y-106476600D01*
X178517685Y-106476600D02*
X178422447Y-106524219D01*
X178422447Y-106524219D02*
X178231971Y-106524219D01*
X179517685Y-105857552D02*
X179517685Y-106524219D01*
X179279590Y-105476600D02*
X179041495Y-106190885D01*
X179041495Y-106190885D02*
X179660542Y-106190885D01*
X111968995Y-119031719D02*
X111968995Y-119841242D01*
X111968995Y-119841242D02*
X112016614Y-119936480D01*
X112016614Y-119936480D02*
X112064233Y-119984100D01*
X112064233Y-119984100D02*
X112159471Y-120031719D01*
X112159471Y-120031719D02*
X112349947Y-120031719D01*
X112349947Y-120031719D02*
X112445185Y-119984100D01*
X112445185Y-119984100D02*
X112492804Y-119936480D01*
X112492804Y-119936480D02*
X112540423Y-119841242D01*
X112540423Y-119841242D02*
X112540423Y-119031719D01*
X113492804Y-119031719D02*
X113016614Y-119031719D01*
X113016614Y-119031719D02*
X112968995Y-119507909D01*
X112968995Y-119507909D02*
X113016614Y-119460290D01*
X113016614Y-119460290D02*
X113111852Y-119412671D01*
X113111852Y-119412671D02*
X113349947Y-119412671D01*
X113349947Y-119412671D02*
X113445185Y-119460290D01*
X113445185Y-119460290D02*
X113492804Y-119507909D01*
X113492804Y-119507909D02*
X113540423Y-119603147D01*
X113540423Y-119603147D02*
X113540423Y-119841242D01*
X113540423Y-119841242D02*
X113492804Y-119936480D01*
X113492804Y-119936480D02*
X113445185Y-119984100D01*
X113445185Y-119984100D02*
X113349947Y-120031719D01*
X113349947Y-120031719D02*
X113111852Y-120031719D01*
X113111852Y-120031719D02*
X113016614Y-119984100D01*
X113016614Y-119984100D02*
X112968995Y-119936480D01*
X178708161Y-95039457D02*
X178612923Y-94991838D01*
X178612923Y-94991838D02*
X178517685Y-94896600D01*
X178517685Y-94896600D02*
X178374828Y-94753742D01*
X178374828Y-94753742D02*
X178279590Y-94706123D01*
X178279590Y-94706123D02*
X178184352Y-94706123D01*
X178231971Y-94944219D02*
X178136733Y-94896600D01*
X178136733Y-94896600D02*
X178041495Y-94801361D01*
X178041495Y-94801361D02*
X177993876Y-94610885D01*
X177993876Y-94610885D02*
X177993876Y-94277552D01*
X177993876Y-94277552D02*
X178041495Y-94087076D01*
X178041495Y-94087076D02*
X178136733Y-93991838D01*
X178136733Y-93991838D02*
X178231971Y-93944219D01*
X178231971Y-93944219D02*
X178422447Y-93944219D01*
X178422447Y-93944219D02*
X178517685Y-93991838D01*
X178517685Y-93991838D02*
X178612923Y-94087076D01*
X178612923Y-94087076D02*
X178660542Y-94277552D01*
X178660542Y-94277552D02*
X178660542Y-94610885D01*
X178660542Y-94610885D02*
X178612923Y-94801361D01*
X178612923Y-94801361D02*
X178517685Y-94896600D01*
X178517685Y-94896600D02*
X178422447Y-94944219D01*
X178422447Y-94944219D02*
X178231971Y-94944219D01*
X179041495Y-94039457D02*
X179089114Y-93991838D01*
X179089114Y-93991838D02*
X179184352Y-93944219D01*
X179184352Y-93944219D02*
X179422447Y-93944219D01*
X179422447Y-93944219D02*
X179517685Y-93991838D01*
X179517685Y-93991838D02*
X179565304Y-94039457D01*
X179565304Y-94039457D02*
X179612923Y-94134695D01*
X179612923Y-94134695D02*
X179612923Y-94229933D01*
X179612923Y-94229933D02*
X179565304Y-94372790D01*
X179565304Y-94372790D02*
X178993876Y-94944219D01*
X178993876Y-94944219D02*
X179612923Y-94944219D01*
X191076495Y-114819219D02*
X191076495Y-115628742D01*
X191076495Y-115628742D02*
X191124114Y-115723980D01*
X191124114Y-115723980D02*
X191171733Y-115771600D01*
X191171733Y-115771600D02*
X191266971Y-115819219D01*
X191266971Y-115819219D02*
X191457447Y-115819219D01*
X191457447Y-115819219D02*
X191552685Y-115771600D01*
X191552685Y-115771600D02*
X191600304Y-115723980D01*
X191600304Y-115723980D02*
X191647923Y-115628742D01*
X191647923Y-115628742D02*
X191647923Y-114819219D01*
X192647923Y-115819219D02*
X192076495Y-115819219D01*
X192362209Y-115819219D02*
X192362209Y-114819219D01*
X192362209Y-114819219D02*
X192266971Y-114962076D01*
X192266971Y-114962076D02*
X192171733Y-115057314D01*
X192171733Y-115057314D02*
X192076495Y-115104933D01*
X73618100Y-83830232D02*
X73665719Y-83687375D01*
X73665719Y-83687375D02*
X73665719Y-83449280D01*
X73665719Y-83449280D02*
X73618100Y-83354042D01*
X73618100Y-83354042D02*
X73570480Y-83306423D01*
X73570480Y-83306423D02*
X73475242Y-83258804D01*
X73475242Y-83258804D02*
X73380004Y-83258804D01*
X73380004Y-83258804D02*
X73284766Y-83306423D01*
X73284766Y-83306423D02*
X73237147Y-83354042D01*
X73237147Y-83354042D02*
X73189528Y-83449280D01*
X73189528Y-83449280D02*
X73141909Y-83639756D01*
X73141909Y-83639756D02*
X73094290Y-83734994D01*
X73094290Y-83734994D02*
X73046671Y-83782613D01*
X73046671Y-83782613D02*
X72951433Y-83830232D01*
X72951433Y-83830232D02*
X72856195Y-83830232D01*
X72856195Y-83830232D02*
X72760957Y-83782613D01*
X72760957Y-83782613D02*
X72713338Y-83734994D01*
X72713338Y-83734994D02*
X72665719Y-83639756D01*
X72665719Y-83639756D02*
X72665719Y-83401661D01*
X72665719Y-83401661D02*
X72713338Y-83258804D01*
X72665719Y-82925470D02*
X73665719Y-82687375D01*
X73665719Y-82687375D02*
X72951433Y-82496899D01*
X72951433Y-82496899D02*
X73665719Y-82306423D01*
X73665719Y-82306423D02*
X72665719Y-82068328D01*
X72999052Y-81258804D02*
X73665719Y-81258804D01*
X72618100Y-81496899D02*
X73332385Y-81734994D01*
X73332385Y-81734994D02*
X73332385Y-81115947D01*
X198217319Y-121459523D02*
X198931604Y-121459523D01*
X198931604Y-121459523D02*
X199074461Y-121507142D01*
X199074461Y-121507142D02*
X199169700Y-121602380D01*
X199169700Y-121602380D02*
X199217319Y-121745237D01*
X199217319Y-121745237D02*
X199217319Y-121840475D01*
X199217319Y-120459523D02*
X199217319Y-121030951D01*
X199217319Y-120745237D02*
X198217319Y-120745237D01*
X198217319Y-120745237D02*
X198360176Y-120840475D01*
X198360176Y-120840475D02*
X198455414Y-120935713D01*
X198455414Y-120935713D02*
X198503033Y-121030951D01*
X198217319Y-119840475D02*
X198217319Y-119745237D01*
X198217319Y-119745237D02*
X198264938Y-119649999D01*
X198264938Y-119649999D02*
X198312557Y-119602380D01*
X198312557Y-119602380D02*
X198407795Y-119554761D01*
X198407795Y-119554761D02*
X198598271Y-119507142D01*
X198598271Y-119507142D02*
X198836366Y-119507142D01*
X198836366Y-119507142D02*
X199026842Y-119554761D01*
X199026842Y-119554761D02*
X199122080Y-119602380D01*
X199122080Y-119602380D02*
X199169700Y-119649999D01*
X199169700Y-119649999D02*
X199217319Y-119745237D01*
X199217319Y-119745237D02*
X199217319Y-119840475D01*
X199217319Y-119840475D02*
X199169700Y-119935713D01*
X199169700Y-119935713D02*
X199122080Y-119983332D01*
X199122080Y-119983332D02*
X199026842Y-120030951D01*
X199026842Y-120030951D02*
X198836366Y-120078570D01*
X198836366Y-120078570D02*
X198598271Y-120078570D01*
X198598271Y-120078570D02*
X198407795Y-120030951D01*
X198407795Y-120030951D02*
X198312557Y-119983332D01*
X198312557Y-119983332D02*
X198264938Y-119935713D01*
X198264938Y-119935713D02*
X198217319Y-119840475D01*
D11*
%TO.C,D2*%
X150380900Y-125116900D02*
X151400900Y-125116900D01*
X151400900Y-123646900D02*
X151400900Y-126586900D01*
X151400900Y-126586900D02*
X156840900Y-126586900D01*
X152180900Y-123646900D02*
X152180900Y-126586900D01*
X152300900Y-123646900D02*
X152300900Y-126586900D01*
X152420900Y-123646900D02*
X152420900Y-126586900D01*
X156840900Y-123646900D02*
X151400900Y-123646900D01*
X156840900Y-126586900D02*
X156840900Y-123646900D01*
X157860900Y-125116900D02*
X156840900Y-125116900D01*
%TO.C,K1*%
X134093400Y-96299400D02*
X136493400Y-96299400D01*
X134093400Y-98639400D02*
X134093400Y-96299400D01*
X134343400Y-96549400D02*
X134343400Y-96889400D01*
X134343400Y-99509400D02*
X134343400Y-118689400D01*
X134343400Y-120849400D02*
X134343400Y-119709400D01*
X139193400Y-97199400D02*
X139193400Y-98399400D01*
X139193400Y-97999400D02*
X139893400Y-97599400D01*
X139193400Y-98399400D02*
X139893400Y-98399400D01*
X139893400Y-97199400D02*
X139193400Y-97199400D01*
X139893400Y-98399400D02*
X139893400Y-97199400D01*
X144633400Y-116249400D02*
X144643400Y-120849400D01*
X144643400Y-96549400D02*
X134343400Y-96549400D01*
X144643400Y-96549400D02*
X144643400Y-97689400D01*
X144643400Y-98709400D02*
X144643400Y-115189400D01*
X144643400Y-120849400D02*
X134343400Y-120849400D01*
%TO.C,K5*%
X161880900Y-96299400D02*
X164280900Y-96299400D01*
X161880900Y-98639400D02*
X161880900Y-96299400D01*
X162130900Y-96549400D02*
X162130900Y-96889400D01*
X162130900Y-99509400D02*
X162130900Y-118689400D01*
X162130900Y-120849400D02*
X162130900Y-119709400D01*
X166980900Y-97199400D02*
X166980900Y-98399400D01*
X166980900Y-97999400D02*
X167680900Y-97599400D01*
X166980900Y-98399400D02*
X167680900Y-98399400D01*
X167680900Y-97199400D02*
X166980900Y-97199400D01*
X167680900Y-98399400D02*
X167680900Y-97199400D01*
X172420900Y-116249400D02*
X172430900Y-120849400D01*
X172430900Y-96549400D02*
X162130900Y-96549400D01*
X172430900Y-96549400D02*
X172430900Y-97689400D01*
X172430900Y-98709400D02*
X172430900Y-115189400D01*
X172430900Y-120849400D02*
X162130900Y-120849400D01*
%TO.C,U4*%
X94210900Y-95809400D02*
X94210900Y-96784400D01*
X94210900Y-96784400D02*
X92895900Y-96784400D01*
X94210900Y-108029400D02*
X94210900Y-107054400D01*
X95185900Y-95809400D02*
X94210900Y-95809400D01*
X95185900Y-108029400D02*
X94210900Y-108029400D01*
X105455900Y-95809400D02*
X106430900Y-95809400D01*
X105455900Y-108029400D02*
X106430900Y-108029400D01*
X106430900Y-95809400D02*
X106430900Y-96784400D01*
X106430900Y-108029400D02*
X106430900Y-107054400D01*
%TO.C,Q3*%
X177003400Y-105689400D02*
X180603400Y-105689400D01*
X178803400Y-101239400D02*
G75*
G03*
X176964922Y-105677878I0J-2600000D01*
G01*
X180641878Y-105677878D02*
G75*
G03*
X178803400Y-101239400I-1838478J1838478D01*
G01*
%TO.C,J1*%
X199640900Y-105486900D02*
X199640900Y-105086900D01*
X202090900Y-105486900D02*
X199640900Y-105486900D01*
X212340900Y-105486900D02*
X208790900Y-105486900D01*
X197640900Y-105086900D02*
X197640900Y-102086900D01*
X199640900Y-105086900D02*
X197640900Y-105086900D01*
X194000900Y-102076900D02*
X194000900Y-100336900D01*
X195740900Y-102076900D02*
X194000900Y-102076900D01*
X197640900Y-98286900D02*
X197640900Y-96686900D01*
X197640900Y-96686900D02*
X199640900Y-96686900D01*
X199640900Y-96686900D02*
X199640900Y-96286900D01*
X199640900Y-96286900D02*
X202090900Y-96286900D01*
X208790900Y-96286900D02*
X212340900Y-96286900D01*
X212340900Y-96286900D02*
X212340900Y-105486900D01*
%TO.C,RV1*%
X116500900Y-93400900D02*
X116500900Y-94495900D01*
X116500900Y-93400900D02*
X126740900Y-93400900D01*
X116500900Y-97347900D02*
X116500900Y-99496900D01*
X116500900Y-102346900D02*
X116500900Y-103441900D01*
X116500900Y-103441900D02*
X126740900Y-103441900D01*
X126740900Y-93400900D02*
X126740900Y-96996900D01*
X126740900Y-99846900D02*
X126740900Y-103441900D01*
%TO.C,J2*%
X82080900Y-93526900D02*
X73260900Y-93526900D01*
X81270900Y-93526900D02*
X81270900Y-96066900D01*
X73260900Y-93526900D02*
X73260900Y-126226900D01*
X80270900Y-94436900D02*
X80270900Y-125316900D01*
X74970900Y-94436900D02*
X80270900Y-94436900D01*
X74970900Y-95176900D02*
X74970900Y-94436900D01*
X82080900Y-96176900D02*
X82080900Y-98176900D01*
X80270900Y-96176900D02*
X82080900Y-96176900D01*
X82880900Y-96876900D02*
X82880900Y-97476900D01*
X82280900Y-97176900D02*
X82880900Y-96876900D01*
X82880900Y-97476900D02*
X82280900Y-97176900D01*
X82080900Y-98176900D02*
X80270900Y-98176900D01*
X81270900Y-98176900D02*
X81270900Y-101256900D01*
X80270900Y-98176900D02*
X80270900Y-96176900D01*
X74970900Y-99176900D02*
X74970900Y-100256900D01*
X82080900Y-101256900D02*
X82080900Y-103256900D01*
X80270900Y-101256900D02*
X82080900Y-101256900D01*
X82080900Y-103256900D02*
X80270900Y-103256900D01*
X81270900Y-103256900D02*
X81270900Y-106336900D01*
X80270900Y-103256900D02*
X80270900Y-101256900D01*
X74970900Y-104256900D02*
X74970900Y-105336900D01*
X82080900Y-106336900D02*
X82080900Y-108336900D01*
X80270900Y-106336900D02*
X82080900Y-106336900D01*
X82080900Y-108336900D02*
X80270900Y-108336900D01*
X81270900Y-108336900D02*
X81270900Y-111416900D01*
X80270900Y-108336900D02*
X80270900Y-106336900D01*
X74970900Y-109336900D02*
X74970900Y-110416900D01*
X82080900Y-111416900D02*
X82080900Y-113416900D01*
X80270900Y-111416900D02*
X82080900Y-111416900D01*
X82080900Y-113416900D02*
X80270900Y-113416900D01*
X81270900Y-113416900D02*
X81270900Y-116496900D01*
X80270900Y-113416900D02*
X80270900Y-111416900D01*
X74970900Y-114416900D02*
X74970900Y-115496900D01*
X82080900Y-116496900D02*
X82080900Y-118496900D01*
X80270900Y-116496900D02*
X82080900Y-116496900D01*
X82080900Y-118496900D02*
X80270900Y-118496900D01*
X81270900Y-118496900D02*
X81270900Y-121576900D01*
X80270900Y-118496900D02*
X80270900Y-116496900D01*
X74970900Y-119496900D02*
X74970900Y-120576900D01*
X82080900Y-121576900D02*
X82080900Y-123576900D01*
X80270900Y-121576900D02*
X82080900Y-121576900D01*
X82080900Y-123576900D02*
X80270900Y-123576900D01*
X80270900Y-123576900D02*
X80270900Y-121576900D01*
X80270900Y-125316900D02*
X74970900Y-125316900D01*
X74970900Y-125316900D02*
X74970900Y-124576900D01*
X82080900Y-126226900D02*
X82080900Y-93526900D01*
X81270900Y-126226900D02*
X81270900Y-123686900D01*
X73260900Y-126226900D02*
X82080900Y-126226900D01*
X74970900Y-95176900D02*
G75*
G03*
X74955079Y-99163742I1650000J-2000000D01*
G01*
X74970900Y-100256900D02*
G75*
G03*
X74955079Y-104243742I1650000J-2000000D01*
G01*
X74970900Y-105336900D02*
G75*
G03*
X74955079Y-109323742I1650000J-2000000D01*
G01*
X74970900Y-110416900D02*
G75*
G03*
X74955079Y-114403742I1650000J-2000000D01*
G01*
X74970900Y-115496900D02*
G75*
G03*
X74955079Y-119483742I1650000J-2000000D01*
G01*
X74970900Y-120576900D02*
G75*
G03*
X74955079Y-124563742I1650000J-2000000D01*
G01*
%TO.C,SW3*%
X76420900Y-75276900D02*
X77920900Y-75276900D01*
X80420900Y-74026900D02*
X80420900Y-69526900D01*
X73920900Y-69526900D02*
X73920900Y-74026900D01*
X77920900Y-68276900D02*
X76420900Y-68276900D01*
%TO.C,Q5*%
X177003400Y-117269400D02*
X180603400Y-117269400D01*
X178803400Y-112819400D02*
G75*
G03*
X176964922Y-117257878I0J-2600000D01*
G01*
X180641878Y-117257878D02*
G75*
G03*
X178803400Y-112819400I-1838478J1838478D01*
G01*
%TO.C,K2*%
X147910900Y-96299400D02*
X150310900Y-96299400D01*
X147910900Y-98639400D02*
X147910900Y-96299400D01*
X148160900Y-96549400D02*
X148160900Y-96889400D01*
X148160900Y-99509400D02*
X148160900Y-118689400D01*
X148160900Y-120849400D02*
X148160900Y-119709400D01*
X153010900Y-97199400D02*
X153010900Y-98399400D01*
X153010900Y-97999400D02*
X153710900Y-97599400D01*
X153010900Y-98399400D02*
X153710900Y-98399400D01*
X153710900Y-97199400D02*
X153010900Y-97199400D01*
X153710900Y-98399400D02*
X153710900Y-97199400D01*
X158450900Y-116249400D02*
X158460900Y-120849400D01*
X158460900Y-96549400D02*
X148160900Y-96549400D01*
X158460900Y-96549400D02*
X158460900Y-97689400D01*
X158460900Y-98709400D02*
X158460900Y-115189400D01*
X158460900Y-120849400D02*
X148160900Y-120849400D01*
%TO.C,SW2*%
X76130900Y-63136900D02*
X77630900Y-63136900D01*
X80130900Y-61886900D02*
X80130900Y-57386900D01*
X73630900Y-57386900D02*
X73630900Y-61886900D01*
X77630900Y-56136900D02*
X76130900Y-56136900D01*
%TO.C,SW1*%
X76420900Y-51706900D02*
X77920900Y-51706900D01*
X80420900Y-50456900D02*
X80420900Y-45956900D01*
X73920900Y-45956900D02*
X73920900Y-50456900D01*
X77920900Y-44706900D02*
X76420900Y-44706900D01*
%TO.C,U2*%
X213240900Y-88286900D02*
X213240900Y-44006900D01*
X213240900Y-44006900D02*
X90960900Y-44006900D01*
D10*
X205077900Y-80693900D02*
X205077900Y-47165900D01*
X204315900Y-81455900D02*
X204315900Y-80693900D01*
X204315900Y-80693900D02*
X205077900Y-80693900D01*
X204315900Y-47165900D02*
X205077900Y-47165900D01*
X204315900Y-46403900D02*
X204315900Y-47165900D01*
X204315900Y-46403900D02*
X100175900Y-46403900D01*
X203299900Y-80185900D02*
X203045900Y-79931900D01*
X203299900Y-47673900D02*
X203045900Y-47419900D01*
X203045900Y-80439900D02*
X203299900Y-80185900D01*
X203045900Y-79931900D02*
X101445900Y-79931900D01*
X203045900Y-47927900D02*
X203299900Y-47673900D01*
X203045900Y-47419900D02*
X101445900Y-47419900D01*
X201775900Y-75105900D02*
X201013900Y-75867900D01*
X201775900Y-52753900D02*
X201775900Y-75105900D01*
X201013900Y-75867900D02*
X103477900Y-75867900D01*
X201013900Y-51991900D02*
X201775900Y-52753900D01*
D11*
X136100900Y-88646900D02*
X134100900Y-88646900D01*
D10*
X103477900Y-75867900D02*
X102715900Y-75105900D01*
X103477900Y-51991900D02*
X201013900Y-51991900D01*
X102715900Y-75105900D02*
X102715900Y-52753900D01*
X102715900Y-52753900D02*
X103477900Y-51991900D01*
X101445900Y-80439900D02*
X203045900Y-80439900D01*
X101445900Y-80439900D02*
X101191900Y-80185900D01*
X101445900Y-47927900D02*
X203045900Y-47927900D01*
X101445900Y-47419900D02*
X101191900Y-47673900D01*
X101191900Y-80185900D02*
X101445900Y-79931900D01*
X101191900Y-47673900D02*
X101445900Y-47927900D01*
X100175900Y-81455900D02*
X204315900Y-81455900D01*
X100175900Y-81455900D02*
X100175900Y-80693900D01*
X100175900Y-80693900D02*
X99413900Y-80693900D01*
X100175900Y-47165900D02*
X100175900Y-46403900D01*
X99413900Y-47165900D02*
X100175900Y-47165900D01*
X99413900Y-47165900D02*
X99413900Y-80693900D01*
D11*
X90960900Y-88286900D02*
X213240900Y-88286900D01*
X90960900Y-88286900D02*
X90960900Y-44006900D01*
%TO.C,Q4*%
X177003400Y-111479400D02*
X180603400Y-111479400D01*
X178803400Y-107029400D02*
G75*
G03*
X176964922Y-111467878I0J-2600000D01*
G01*
X180641878Y-111467878D02*
G75*
G03*
X178803400Y-107029400I-1838478J1838478D01*
G01*
%TO.C,U5*%
X107610900Y-120576900D02*
X107610900Y-125217900D01*
X107610900Y-120576900D02*
X117850900Y-120576900D01*
X107610900Y-122086900D02*
X117850900Y-122086900D01*
X107610900Y-125217900D02*
X117850900Y-125217900D01*
X110880900Y-120576900D02*
X110880900Y-122086900D01*
X114581900Y-120576900D02*
X114581900Y-122086900D01*
X117850900Y-120576900D02*
X117850900Y-125217900D01*
%TO.C,Q2*%
X177003400Y-99899400D02*
X180603400Y-99899400D01*
X178803400Y-95449400D02*
G75*
G03*
X176964922Y-99887878I0J-2600000D01*
G01*
X180641878Y-99887878D02*
G75*
G03*
X178803400Y-95449400I-1838478J1838478D01*
G01*
%TO.C,U1*%
X189678400Y-116264400D02*
X189678400Y-118264400D01*
X189678400Y-116264400D02*
X191288400Y-116264400D01*
X189958400Y-128804400D02*
X189958400Y-116554400D01*
X189968400Y-116544400D02*
X195708400Y-116544400D01*
X195718400Y-116544400D02*
X195718400Y-128804400D01*
X195718400Y-128804400D02*
X189958400Y-128804400D01*
%TO.C,SW4*%
X76710900Y-85996900D02*
X78210900Y-85996900D01*
X80710900Y-84746900D02*
X80710900Y-80246900D01*
X74210900Y-80246900D02*
X74210900Y-84746900D01*
X78210900Y-78996900D02*
X76710900Y-78996900D01*
%TO.C,J10*%
X199852500Y-126840000D02*
X212072500Y-126840000D01*
X208772500Y-126840000D02*
X208772500Y-114460000D01*
X210572500Y-126840000D02*
X208772500Y-126840000D01*
X212072500Y-126840000D02*
X212072500Y-114460000D01*
X212072500Y-124190000D02*
X212072500Y-122190000D01*
X210572500Y-123940000D02*
X212072500Y-124190000D01*
X199052500Y-123490000D02*
X199052500Y-122890000D01*
X199652500Y-123190000D02*
X199052500Y-123490000D01*
X199052500Y-122890000D02*
X199652500Y-123190000D01*
X210572500Y-122440000D02*
X210572500Y-123940000D01*
X212072500Y-122190000D02*
X210572500Y-122440000D01*
X212072500Y-119110000D02*
X212072500Y-117110000D01*
X210572500Y-118860000D02*
X212072500Y-119110000D01*
X210572500Y-117360000D02*
X210572500Y-118860000D01*
X212072500Y-117110000D02*
X210572500Y-117360000D01*
X199852500Y-114460000D02*
X199852500Y-126840000D01*
X208772500Y-114460000D02*
X210572500Y-114460000D01*
X210572500Y-114460000D02*
X210572500Y-126840000D01*
X212072500Y-114460000D02*
X199852500Y-114460000D01*
%TD*%
M02*
