%TF.GenerationSoftware,KiCad,Pcbnew,7.0.7*%
%TF.CreationDate,2023-12-03T21:53:00-03:00*%
%TF.ProjectId,climatizador automatico,636c696d-6174-4697-9a61-646f72206175,rev?*%
%TF.SameCoordinates,Original*%
%TF.FileFunction,Soldermask,Top*%
%TF.FilePolarity,Negative*%
%FSLAX46Y46*%
G04 Gerber Fmt 4.6, Leading zero omitted, Abs format (unit mm)*
G04 Created by KiCad (PCBNEW 7.0.7) date 2023-12-03 21:53:00*
%MOMM*%
%LPD*%
G01*
G04 APERTURE LIST*
G04 Aperture macros list*
%AMRoundRect*
0 Rectangle with rounded corners*
0 $1 Rounding radius*
0 $2 $3 $4 $5 $6 $7 $8 $9 X,Y pos of 4 corners*
0 Add a 4 corners polygon primitive as box body*
4,1,4,$2,$3,$4,$5,$6,$7,$8,$9,$2,$3,0*
0 Add four circle primitives for the rounded corners*
1,1,$1+$1,$2,$3*
1,1,$1+$1,$4,$5*
1,1,$1+$1,$6,$7*
1,1,$1+$1,$8,$9*
0 Add four rect primitives between the rounded corners*
20,1,$1+$1,$2,$3,$4,$5,0*
20,1,$1+$1,$4,$5,$6,$7,0*
20,1,$1+$1,$6,$7,$8,$9,0*
20,1,$1+$1,$8,$9,$2,$3,0*%
G04 Aperture macros list end*
%ADD10R,2.200000X2.200000*%
%ADD11O,2.200000X2.200000*%
%ADD12R,2.500000X2.500000*%
%ADD13O,2.500000X2.500000*%
%ADD14RoundRect,0.062500X-0.675000X-0.062500X0.675000X-0.062500X0.675000X0.062500X-0.675000X0.062500X0*%
%ADD15RoundRect,0.062500X-0.062500X-0.675000X0.062500X-0.675000X0.062500X0.675000X-0.062500X0.675000X0*%
%ADD16R,1.050000X1.500000*%
%ADD17O,1.050000X1.500000*%
%ADD18C,2.000000*%
%ADD19R,4.400000X3.300000*%
%ADD20R,6.200000X3.900000*%
%ADD21C,2.340000*%
%ADD22RoundRect,0.249999X-1.550001X0.790001X-1.550001X-0.790001X1.550001X-0.790001X1.550001X0.790001X0*%
%ADD23O,3.600000X2.080000*%
%ADD24C,6.500000*%
%ADD25R,1.500000X3.000000*%
%ADD26O,1.500000X3.000000*%
%ADD27R,2.000000X2.000000*%
%ADD28R,1.905000X2.000000*%
%ADD29O,1.905000X2.000000*%
%ADD30R,1.500000X1.500000*%
%ADD31C,1.500000*%
%ADD32RoundRect,0.249999X1.550001X-0.790001X1.550001X0.790001X-1.550001X0.790001X-1.550001X-0.790001X0*%
G04 APERTURE END LIST*
D10*
%TO.C,D2*%
X149040900Y-125116900D03*
D11*
X159200900Y-125116900D03*
%TD*%
D12*
%TO.C,K1*%
X135743400Y-98199400D03*
D13*
X135743400Y-119199400D03*
X143243400Y-115699400D03*
X143243400Y-98199400D03*
%TD*%
D12*
%TO.C,K5*%
X163530900Y-98199400D03*
D13*
X163530900Y-119199400D03*
X171030900Y-115699400D03*
X171030900Y-98199400D03*
%TD*%
D14*
%TO.C,U4*%
X93633400Y-97169400D03*
X93633400Y-97669400D03*
X93633400Y-98169400D03*
X93633400Y-98669400D03*
X93633400Y-99169400D03*
X93633400Y-99669400D03*
X93633400Y-100169400D03*
X93633400Y-100669400D03*
X93633400Y-101169400D03*
X93633400Y-101669400D03*
X93633400Y-102169400D03*
X93633400Y-102669400D03*
X93633400Y-103169400D03*
X93633400Y-103669400D03*
X93633400Y-104169400D03*
X93633400Y-104669400D03*
X93633400Y-105169400D03*
X93633400Y-105669400D03*
X93633400Y-106169400D03*
X93633400Y-106669400D03*
D15*
X95570900Y-108606900D03*
X96070900Y-108606900D03*
X96570900Y-108606900D03*
X97070900Y-108606900D03*
X97570900Y-108606900D03*
X98070900Y-108606900D03*
X98570900Y-108606900D03*
X99070900Y-108606900D03*
X99570900Y-108606900D03*
X100070900Y-108606900D03*
X100570900Y-108606900D03*
X101070900Y-108606900D03*
X101570900Y-108606900D03*
X102070900Y-108606900D03*
X102570900Y-108606900D03*
X103070900Y-108606900D03*
X103570900Y-108606900D03*
X104070900Y-108606900D03*
X104570900Y-108606900D03*
X105070900Y-108606900D03*
D14*
X107008400Y-106669400D03*
X107008400Y-106169400D03*
X107008400Y-105669400D03*
X107008400Y-105169400D03*
X107008400Y-104669400D03*
X107008400Y-104169400D03*
X107008400Y-103669400D03*
X107008400Y-103169400D03*
X107008400Y-102669400D03*
X107008400Y-102169400D03*
X107008400Y-101669400D03*
X107008400Y-101169400D03*
X107008400Y-100669400D03*
X107008400Y-100169400D03*
X107008400Y-99669400D03*
X107008400Y-99169400D03*
X107008400Y-98669400D03*
X107008400Y-98169400D03*
X107008400Y-97669400D03*
X107008400Y-97169400D03*
D15*
X105070900Y-95231900D03*
X104570900Y-95231900D03*
X104070900Y-95231900D03*
X103570900Y-95231900D03*
X103070900Y-95231900D03*
X102570900Y-95231900D03*
X102070900Y-95231900D03*
X101570900Y-95231900D03*
X101070900Y-95231900D03*
X100570900Y-95231900D03*
X100070900Y-95231900D03*
X99570900Y-95231900D03*
X99070900Y-95231900D03*
X98570900Y-95231900D03*
X98070900Y-95231900D03*
X97570900Y-95231900D03*
X97070900Y-95231900D03*
X96570900Y-95231900D03*
X96070900Y-95231900D03*
X95570900Y-95231900D03*
%TD*%
D16*
%TO.C,Q3*%
X177533400Y-103839400D03*
D17*
X178803400Y-103839400D03*
X180073400Y-103839400D03*
%TD*%
D18*
%TO.C,J1*%
X209240900Y-100886900D03*
D19*
X196440900Y-100186900D03*
D20*
X205440900Y-107336900D03*
X205440900Y-94436900D03*
%TD*%
D21*
%TO.C,RV1*%
X116620900Y-100921900D03*
X126620900Y-98421900D03*
X116620900Y-95921900D03*
%TD*%
D22*
%TO.C,J2*%
X77170900Y-97176900D03*
D23*
X77170900Y-102256900D03*
X77170900Y-107336900D03*
X77170900Y-112416900D03*
X77170900Y-117496900D03*
X77170900Y-122576900D03*
%TD*%
D18*
%TO.C,SW3*%
X74920900Y-75026900D03*
X74920900Y-68526900D03*
X79420900Y-75026900D03*
X79420900Y-68526900D03*
%TD*%
D16*
%TO.C,Q5*%
X177533400Y-115419400D03*
D17*
X178803400Y-115419400D03*
X180073400Y-115419400D03*
%TD*%
D12*
%TO.C,K2*%
X149560900Y-98199400D03*
D13*
X149560900Y-119199400D03*
X157060900Y-115699400D03*
X157060900Y-98199400D03*
%TD*%
D18*
%TO.C,SW2*%
X74630900Y-62886900D03*
X74630900Y-56386900D03*
X79130900Y-62886900D03*
X79130900Y-56386900D03*
%TD*%
%TO.C,SW1*%
X74920900Y-51456900D03*
X74920900Y-44956900D03*
X79420900Y-51456900D03*
X79420900Y-44956900D03*
%TD*%
D24*
%TO.C,U2*%
X209600900Y-84646900D03*
X209600900Y-47646900D03*
X94600900Y-84646900D03*
X94600900Y-47646900D03*
D25*
X135100900Y-85646900D03*
D26*
X132560900Y-85646900D03*
X130020900Y-85646900D03*
X127480900Y-85646900D03*
X124940900Y-85646900D03*
X122400900Y-85646900D03*
X119860900Y-85646900D03*
X117320900Y-85646900D03*
X114780900Y-85646900D03*
X112240900Y-85646900D03*
X109700900Y-85646900D03*
X107160900Y-85646900D03*
X104620900Y-85646900D03*
X102080900Y-85646900D03*
X137640900Y-85646900D03*
X140180900Y-85646900D03*
D27*
X210600900Y-71646900D03*
X210600900Y-60646900D03*
X210600900Y-67646900D03*
X210600900Y-56646900D03*
%TD*%
D16*
%TO.C,Q4*%
X177533400Y-109629400D03*
D17*
X178803400Y-109629400D03*
X180073400Y-109629400D03*
%TD*%
D28*
%TO.C,U5*%
X110190900Y-123846900D03*
D29*
X112730900Y-123846900D03*
X115270900Y-123846900D03*
%TD*%
D16*
%TO.C,Q2*%
X177533400Y-98049400D03*
D17*
X178803400Y-98049400D03*
X180073400Y-98049400D03*
%TD*%
D30*
%TO.C,U1*%
X192838400Y-118864400D03*
D31*
X192838400Y-121404400D03*
X192838400Y-123944400D03*
X192838400Y-126484400D03*
%TD*%
D18*
%TO.C,SW4*%
X75210900Y-85746900D03*
X75210900Y-79246900D03*
X79710900Y-85746900D03*
X79710900Y-79246900D03*
%TD*%
D32*
%TO.C,J10*%
X201962500Y-123190000D03*
D23*
X201962500Y-118110000D03*
%TD*%
M02*
