%TF.GenerationSoftware,KiCad,Pcbnew,7.0.7*%
%TF.CreationDate,2023-12-03T21:53:00-03:00*%
%TF.ProjectId,climatizador automatico,636c696d-6174-4697-9a61-646f72206175,rev?*%
%TF.SameCoordinates,Original*%
%TF.FileFunction,Paste,Top*%
%TF.FilePolarity,Positive*%
%FSLAX46Y46*%
G04 Gerber Fmt 4.6, Leading zero omitted, Abs format (unit mm)*
G04 Created by KiCad (PCBNEW 7.0.7) date 2023-12-03 21:53:00*
%MOMM*%
%LPD*%
G01*
G04 APERTURE LIST*
G04 Aperture macros list*
%AMRoundRect*
0 Rectangle with rounded corners*
0 $1 Rounding radius*
0 $2 $3 $4 $5 $6 $7 $8 $9 X,Y pos of 4 corners*
0 Add a 4 corners polygon primitive as box body*
4,1,4,$2,$3,$4,$5,$6,$7,$8,$9,$2,$3,0*
0 Add four circle primitives for the rounded corners*
1,1,$1+$1,$2,$3*
1,1,$1+$1,$4,$5*
1,1,$1+$1,$6,$7*
1,1,$1+$1,$8,$9*
0 Add four rect primitives between the rounded corners*
20,1,$1+$1,$2,$3,$4,$5,0*
20,1,$1+$1,$4,$5,$6,$7,0*
20,1,$1+$1,$6,$7,$8,$9,0*
20,1,$1+$1,$8,$9,$2,$3,0*%
G04 Aperture macros list end*
%ADD10RoundRect,0.062500X-0.675000X-0.062500X0.675000X-0.062500X0.675000X0.062500X-0.675000X0.062500X0*%
%ADD11RoundRect,0.062500X-0.062500X-0.675000X0.062500X-0.675000X0.062500X0.675000X-0.062500X0.675000X0*%
%ADD12R,4.400000X3.300000*%
%ADD13R,6.200000X3.900000*%
G04 APERTURE END LIST*
D10*
%TO.C,U4*%
X93633400Y-97169400D03*
X93633400Y-97669400D03*
X93633400Y-98169400D03*
X93633400Y-98669400D03*
X93633400Y-99169400D03*
X93633400Y-99669400D03*
X93633400Y-100169400D03*
X93633400Y-100669400D03*
X93633400Y-101169400D03*
X93633400Y-101669400D03*
X93633400Y-102169400D03*
X93633400Y-102669400D03*
X93633400Y-103169400D03*
X93633400Y-103669400D03*
X93633400Y-104169400D03*
X93633400Y-104669400D03*
X93633400Y-105169400D03*
X93633400Y-105669400D03*
X93633400Y-106169400D03*
X93633400Y-106669400D03*
D11*
X95570900Y-108606900D03*
X96070900Y-108606900D03*
X96570900Y-108606900D03*
X97070900Y-108606900D03*
X97570900Y-108606900D03*
X98070900Y-108606900D03*
X98570900Y-108606900D03*
X99070900Y-108606900D03*
X99570900Y-108606900D03*
X100070900Y-108606900D03*
X100570900Y-108606900D03*
X101070900Y-108606900D03*
X101570900Y-108606900D03*
X102070900Y-108606900D03*
X102570900Y-108606900D03*
X103070900Y-108606900D03*
X103570900Y-108606900D03*
X104070900Y-108606900D03*
X104570900Y-108606900D03*
X105070900Y-108606900D03*
D10*
X107008400Y-106669400D03*
X107008400Y-106169400D03*
X107008400Y-105669400D03*
X107008400Y-105169400D03*
X107008400Y-104669400D03*
X107008400Y-104169400D03*
X107008400Y-103669400D03*
X107008400Y-103169400D03*
X107008400Y-102669400D03*
X107008400Y-102169400D03*
X107008400Y-101669400D03*
X107008400Y-101169400D03*
X107008400Y-100669400D03*
X107008400Y-100169400D03*
X107008400Y-99669400D03*
X107008400Y-99169400D03*
X107008400Y-98669400D03*
X107008400Y-98169400D03*
X107008400Y-97669400D03*
X107008400Y-97169400D03*
D11*
X105070900Y-95231900D03*
X104570900Y-95231900D03*
X104070900Y-95231900D03*
X103570900Y-95231900D03*
X103070900Y-95231900D03*
X102570900Y-95231900D03*
X102070900Y-95231900D03*
X101570900Y-95231900D03*
X101070900Y-95231900D03*
X100570900Y-95231900D03*
X100070900Y-95231900D03*
X99570900Y-95231900D03*
X99070900Y-95231900D03*
X98570900Y-95231900D03*
X98070900Y-95231900D03*
X97570900Y-95231900D03*
X97070900Y-95231900D03*
X96570900Y-95231900D03*
X96070900Y-95231900D03*
X95570900Y-95231900D03*
%TD*%
D12*
%TO.C,J1*%
X196440900Y-100186900D03*
D13*
X205440900Y-107336900D03*
X205440900Y-94436900D03*
%TD*%
M02*
