%TF.GenerationSoftware,KiCad,Pcbnew,7.0.9*%
%TF.CreationDate,2023-12-04T17:32:10-03:00*%
%TF.ProjectId,aussistente,61757373-6973-4746-956e-74652e6b6963,rev?*%
%TF.SameCoordinates,Original*%
%TF.FileFunction,Copper,L4,Bot*%
%TF.FilePolarity,Positive*%
%FSLAX46Y46*%
G04 Gerber Fmt 4.6, Leading zero omitted, Abs format (unit mm)*
G04 Created by KiCad (PCBNEW 7.0.9) date 2023-12-04 17:32:10*
%MOMM*%
%LPD*%
G01*
G04 APERTURE LIST*
%TA.AperFunction,ComponentPad*%
%ADD10C,2.000000*%
%TD*%
%TA.AperFunction,ComponentPad*%
%ADD11R,3.000000X3.000000*%
%TD*%
%TA.AperFunction,ComponentPad*%
%ADD12C,3.000000*%
%TD*%
%TA.AperFunction,HeatsinkPad*%
%ADD13C,0.600000*%
%TD*%
%TA.AperFunction,ViaPad*%
%ADD14C,0.800000*%
%TD*%
G04 APERTURE END LIST*
D10*
%TO.P,SW1,1,1*%
%TO.N,GND*%
X88190000Y-72680000D03*
X94690000Y-72680000D03*
%TO.P,SW1,2,2*%
%TO.N,/RESET*%
X88190000Y-77180000D03*
X94690000Y-77180000D03*
%TD*%
D11*
%TO.P,BT1,1,+*%
%TO.N,VDDIO*%
X90150000Y-139700000D03*
D12*
%TO.P,BT1,2,-*%
%TO.N,GND*%
X90150000Y-152400000D03*
%TD*%
D13*
%TO.P,U1,39,GND*%
%TO.N,GND*%
X110997500Y-73132500D03*
X110997500Y-74657500D03*
X111760000Y-72370000D03*
X111760000Y-73895000D03*
X111760000Y-75420000D03*
X112522500Y-73132500D03*
X112522500Y-74657500D03*
X113285000Y-72370000D03*
X113285000Y-73895000D03*
X113285000Y-75420000D03*
X114047500Y-73132500D03*
X114047500Y-74657500D03*
%TD*%
D14*
%TO.N,GND*%
X111760000Y-69850000D03*
X133419880Y-90252536D03*
%TO.N,SCL*%
X139700000Y-95250000D03*
%TO.N,SDA*%
X139700000Y-91440000D03*
%TO.N,GND*%
X132080000Y-100330000D03*
%TO.N,SDA*%
X135890000Y-111655500D03*
%TO.N,SCL*%
X130810000Y-111760000D03*
%TO.N,GND*%
X130810000Y-113030000D03*
X134620000Y-113104500D03*
X143030000Y-118110000D03*
X99060000Y-125730000D03*
X99060000Y-115570000D03*
%TO.N,SDA*%
X106680000Y-90170000D03*
%TO.N,SCL*%
X104140000Y-90170000D03*
X88900000Y-120650000D03*
%TO.N,SDA*%
X88900000Y-123190000D03*
%TO.N,GND*%
X88900000Y-69850000D03*
X99060000Y-93060000D03*
X93980000Y-90520000D03*
X143510000Y-78740000D03*
X88900000Y-91790000D03*
X93980000Y-92164500D03*
X83820000Y-152400000D03*
%TD*%
%TA.AperFunction,Conductor*%
%TO.N,GND*%
G36*
X147262539Y-39390185D02*
G01*
X147308294Y-39442989D01*
X147319500Y-39494500D01*
X147319500Y-164975500D01*
X147299815Y-165042539D01*
X147247011Y-165088294D01*
X147195500Y-165099500D01*
X80134500Y-165099500D01*
X80067461Y-165079815D01*
X80021706Y-165027011D01*
X80010500Y-164975500D01*
X80010500Y-157212629D01*
X99495717Y-157212629D01*
X99525892Y-157461150D01*
X99595540Y-157701601D01*
X99702860Y-157927775D01*
X99775941Y-158033650D01*
X99845068Y-158133797D01*
X100018484Y-158314341D01*
X100218615Y-158464730D01*
X100440279Y-158581069D01*
X100677734Y-158660343D01*
X100677737Y-158660343D01*
X100677739Y-158660344D01*
X100924828Y-158700500D01*
X100924831Y-158700500D01*
X101112482Y-158700500D01*
X101206004Y-158692950D01*
X101299527Y-158685400D01*
X101542591Y-158625490D01*
X101772897Y-158527366D01*
X101984481Y-158393568D01*
X102171862Y-158227563D01*
X102330188Y-158033650D01*
X102455357Y-157816850D01*
X102544128Y-157582780D01*
X102594202Y-157337500D01*
X102599234Y-157212629D01*
X127495717Y-157212629D01*
X127525892Y-157461150D01*
X127595540Y-157701601D01*
X127702860Y-157927775D01*
X127775941Y-158033650D01*
X127845068Y-158133797D01*
X128018484Y-158314341D01*
X128218615Y-158464730D01*
X128440279Y-158581069D01*
X128677734Y-158660343D01*
X128677737Y-158660343D01*
X128677739Y-158660344D01*
X128924828Y-158700500D01*
X128924831Y-158700500D01*
X129112482Y-158700500D01*
X129206004Y-158692950D01*
X129299527Y-158685400D01*
X129542591Y-158625490D01*
X129772897Y-158527366D01*
X129984481Y-158393568D01*
X130171862Y-158227563D01*
X130330188Y-158033650D01*
X130455357Y-157816850D01*
X130544128Y-157582780D01*
X130594202Y-157337500D01*
X130604282Y-157087365D01*
X130574107Y-156838851D01*
X130574107Y-156838849D01*
X130538876Y-156717220D01*
X130504459Y-156598396D01*
X130397141Y-156372228D01*
X130397140Y-156372227D01*
X130397139Y-156372224D01*
X130254933Y-156166205D01*
X130254932Y-156166203D01*
X130081516Y-155985659D01*
X129881385Y-155835270D01*
X129881383Y-155835269D01*
X129881382Y-155835268D01*
X129659726Y-155718933D01*
X129659722Y-155718931D01*
X129659721Y-155718931D01*
X129422266Y-155639657D01*
X129422265Y-155639656D01*
X129422260Y-155639655D01*
X129175172Y-155599500D01*
X129175169Y-155599500D01*
X128987519Y-155599500D01*
X128987518Y-155599500D01*
X128800473Y-155614599D01*
X128557411Y-155674509D01*
X128327106Y-155772632D01*
X128115514Y-155906435D01*
X127928143Y-156072431D01*
X127769809Y-156266353D01*
X127644643Y-156483148D01*
X127555871Y-156717222D01*
X127505798Y-156962493D01*
X127505797Y-156962503D01*
X127495717Y-157212628D01*
X127495717Y-157212629D01*
X102599234Y-157212629D01*
X102604282Y-157087365D01*
X102574107Y-156838851D01*
X102574107Y-156838849D01*
X102538876Y-156717220D01*
X102504459Y-156598396D01*
X102397141Y-156372228D01*
X102397140Y-156372227D01*
X102397139Y-156372224D01*
X102254933Y-156166205D01*
X102254932Y-156166203D01*
X102081516Y-155985659D01*
X101881385Y-155835270D01*
X101881383Y-155835269D01*
X101881382Y-155835268D01*
X101659726Y-155718933D01*
X101659722Y-155718931D01*
X101659721Y-155718931D01*
X101422266Y-155639657D01*
X101422265Y-155639656D01*
X101422260Y-155639655D01*
X101175172Y-155599500D01*
X101175169Y-155599500D01*
X100987519Y-155599500D01*
X100987518Y-155599500D01*
X100800473Y-155614599D01*
X100557411Y-155674509D01*
X100327106Y-155772632D01*
X100115514Y-155906435D01*
X99928143Y-156072431D01*
X99769809Y-156266353D01*
X99644643Y-156483148D01*
X99555871Y-156717222D01*
X99505798Y-156962493D01*
X99505797Y-156962503D01*
X99495717Y-157212628D01*
X99495717Y-157212629D01*
X80010500Y-157212629D01*
X80010500Y-152400001D01*
X88144891Y-152400001D01*
X88165300Y-152685362D01*
X88226109Y-152964895D01*
X88326091Y-153232958D01*
X88463191Y-153484038D01*
X88463196Y-153484046D01*
X88569882Y-153626561D01*
X88569883Y-153626562D01*
X89143118Y-153053326D01*
X89188277Y-153126260D01*
X89338102Y-153290610D01*
X89494690Y-153408861D01*
X88923436Y-153980115D01*
X89065960Y-154086807D01*
X89065961Y-154086808D01*
X89317042Y-154223908D01*
X89317041Y-154223908D01*
X89585104Y-154323890D01*
X89864637Y-154384699D01*
X90149999Y-154405109D01*
X90150001Y-154405109D01*
X90435362Y-154384699D01*
X90714895Y-154323890D01*
X90982958Y-154223908D01*
X91234047Y-154086803D01*
X91376561Y-153980116D01*
X91376562Y-153980115D01*
X90805308Y-153408861D01*
X90961898Y-153290610D01*
X91111723Y-153126260D01*
X91156880Y-153053327D01*
X91730115Y-153626562D01*
X91730116Y-153626561D01*
X91836803Y-153484047D01*
X91973908Y-153232958D01*
X92073890Y-152964895D01*
X92134699Y-152685362D01*
X92155109Y-152400001D01*
X92155109Y-152399998D01*
X92134699Y-152114637D01*
X92073890Y-151835104D01*
X91973908Y-151567041D01*
X91836808Y-151315961D01*
X91836807Y-151315960D01*
X91730115Y-151173436D01*
X91156880Y-151746671D01*
X91111723Y-151673740D01*
X90961898Y-151509390D01*
X90805307Y-151391138D01*
X91376562Y-150819883D01*
X91376561Y-150819882D01*
X91234046Y-150713196D01*
X91234038Y-150713191D01*
X90982957Y-150576091D01*
X90982958Y-150576091D01*
X90714895Y-150476109D01*
X90435362Y-150415300D01*
X90150001Y-150394891D01*
X90149999Y-150394891D01*
X89864637Y-150415300D01*
X89585104Y-150476109D01*
X89317041Y-150576091D01*
X89065961Y-150713191D01*
X89065953Y-150713196D01*
X88923437Y-150819882D01*
X88923436Y-150819883D01*
X89494691Y-151391138D01*
X89338102Y-151509390D01*
X89188277Y-151673740D01*
X89143119Y-151746672D01*
X88569883Y-151173436D01*
X88569882Y-151173437D01*
X88463196Y-151315953D01*
X88463191Y-151315961D01*
X88326091Y-151567041D01*
X88226109Y-151835104D01*
X88165300Y-152114637D01*
X88144891Y-152399998D01*
X88144891Y-152400001D01*
X80010500Y-152400001D01*
X80010500Y-141247870D01*
X88149500Y-141247870D01*
X88149501Y-141247876D01*
X88155908Y-141307483D01*
X88206202Y-141442328D01*
X88206206Y-141442335D01*
X88292452Y-141557544D01*
X88292455Y-141557547D01*
X88407664Y-141643793D01*
X88407671Y-141643797D01*
X88542517Y-141694091D01*
X88542516Y-141694091D01*
X88549444Y-141694835D01*
X88602127Y-141700500D01*
X91697872Y-141700499D01*
X91757483Y-141694091D01*
X91892331Y-141643796D01*
X92007546Y-141557546D01*
X92093796Y-141442331D01*
X92144091Y-141307483D01*
X92150500Y-141247873D01*
X92150499Y-138152128D01*
X92144091Y-138092517D01*
X92093796Y-137957669D01*
X92093795Y-137957668D01*
X92093793Y-137957664D01*
X92007547Y-137842455D01*
X92007544Y-137842452D01*
X91892335Y-137756206D01*
X91892328Y-137756202D01*
X91757482Y-137705908D01*
X91757483Y-137705908D01*
X91697883Y-137699501D01*
X91697881Y-137699500D01*
X91697873Y-137699500D01*
X91697864Y-137699500D01*
X88602129Y-137699500D01*
X88602123Y-137699501D01*
X88542516Y-137705908D01*
X88407671Y-137756202D01*
X88407664Y-137756206D01*
X88292455Y-137842452D01*
X88292452Y-137842455D01*
X88206206Y-137957664D01*
X88206202Y-137957671D01*
X88155908Y-138092517D01*
X88149501Y-138152116D01*
X88149501Y-138152123D01*
X88149500Y-138152135D01*
X88149500Y-141247870D01*
X80010500Y-141247870D01*
X80010500Y-135012629D01*
X112745717Y-135012629D01*
X112775892Y-135261150D01*
X112845540Y-135501601D01*
X112952860Y-135727775D01*
X113025941Y-135833650D01*
X113095068Y-135933797D01*
X113268484Y-136114341D01*
X113468615Y-136264730D01*
X113690279Y-136381069D01*
X113927734Y-136460343D01*
X113927737Y-136460343D01*
X113927739Y-136460344D01*
X114174828Y-136500500D01*
X114174831Y-136500500D01*
X114362482Y-136500500D01*
X114456004Y-136492950D01*
X114549527Y-136485400D01*
X114792591Y-136425490D01*
X115022897Y-136327366D01*
X115234481Y-136193568D01*
X115421862Y-136027563D01*
X115580188Y-135833650D01*
X115705357Y-135616850D01*
X115794128Y-135382780D01*
X115844202Y-135137500D01*
X115854282Y-134887365D01*
X115824107Y-134638851D01*
X115824107Y-134638849D01*
X115788876Y-134517220D01*
X115754459Y-134398396D01*
X115647141Y-134172228D01*
X115647140Y-134172227D01*
X115647139Y-134172224D01*
X115504933Y-133966205D01*
X115504932Y-133966203D01*
X115331516Y-133785659D01*
X115131385Y-133635270D01*
X115131383Y-133635269D01*
X115131382Y-133635268D01*
X114909726Y-133518933D01*
X114909722Y-133518931D01*
X114909721Y-133518931D01*
X114672266Y-133439657D01*
X114672265Y-133439656D01*
X114672260Y-133439655D01*
X114425172Y-133399500D01*
X114425169Y-133399500D01*
X114237519Y-133399500D01*
X114237518Y-133399500D01*
X114050473Y-133414599D01*
X113807411Y-133474509D01*
X113577106Y-133572632D01*
X113365514Y-133706435D01*
X113178143Y-133872431D01*
X113019809Y-134066353D01*
X112894643Y-134283148D01*
X112805871Y-134517222D01*
X112755798Y-134762493D01*
X112755797Y-134762503D01*
X112745717Y-135012628D01*
X112745717Y-135012629D01*
X80010500Y-135012629D01*
X80010500Y-123190000D01*
X87994540Y-123190000D01*
X88014326Y-123378256D01*
X88014327Y-123378259D01*
X88072818Y-123558277D01*
X88072821Y-123558284D01*
X88167467Y-123722216D01*
X88294129Y-123862888D01*
X88447265Y-123974148D01*
X88447270Y-123974151D01*
X88620192Y-124051142D01*
X88620197Y-124051144D01*
X88805354Y-124090500D01*
X88805355Y-124090500D01*
X88994644Y-124090500D01*
X88994646Y-124090500D01*
X89179803Y-124051144D01*
X89352730Y-123974151D01*
X89505871Y-123862888D01*
X89632533Y-123722216D01*
X89727179Y-123558284D01*
X89785674Y-123378256D01*
X89805460Y-123190000D01*
X89785674Y-123001744D01*
X89727179Y-122821716D01*
X89632533Y-122657784D01*
X89505871Y-122517112D01*
X89505870Y-122517111D01*
X89352734Y-122405851D01*
X89352729Y-122405848D01*
X89179807Y-122328857D01*
X89179802Y-122328855D01*
X89034001Y-122297865D01*
X88994646Y-122289500D01*
X88805354Y-122289500D01*
X88772897Y-122296398D01*
X88620197Y-122328855D01*
X88620192Y-122328857D01*
X88447270Y-122405848D01*
X88447265Y-122405851D01*
X88294129Y-122517111D01*
X88167466Y-122657785D01*
X88072821Y-122821715D01*
X88072818Y-122821722D01*
X88014327Y-123001740D01*
X88014326Y-123001744D01*
X87994540Y-123190000D01*
X80010500Y-123190000D01*
X80010500Y-120650000D01*
X87994540Y-120650000D01*
X88014326Y-120838256D01*
X88014327Y-120838259D01*
X88072818Y-121018277D01*
X88072821Y-121018284D01*
X88167467Y-121182216D01*
X88294129Y-121322888D01*
X88447265Y-121434148D01*
X88447270Y-121434151D01*
X88620192Y-121511142D01*
X88620197Y-121511144D01*
X88805354Y-121550500D01*
X88805355Y-121550500D01*
X88994644Y-121550500D01*
X88994646Y-121550500D01*
X89179803Y-121511144D01*
X89352730Y-121434151D01*
X89505871Y-121322888D01*
X89632533Y-121182216D01*
X89727179Y-121018284D01*
X89785674Y-120838256D01*
X89805460Y-120650000D01*
X89785674Y-120461744D01*
X89727179Y-120281716D01*
X89632533Y-120117784D01*
X89505871Y-119977112D01*
X89505870Y-119977111D01*
X89352734Y-119865851D01*
X89352729Y-119865848D01*
X89179807Y-119788857D01*
X89179802Y-119788855D01*
X89034001Y-119757865D01*
X88994646Y-119749500D01*
X88805354Y-119749500D01*
X88772897Y-119756398D01*
X88620197Y-119788855D01*
X88620192Y-119788857D01*
X88447270Y-119865848D01*
X88447265Y-119865851D01*
X88294129Y-119977111D01*
X88167466Y-120117785D01*
X88072821Y-120281715D01*
X88072818Y-120281722D01*
X88014327Y-120461740D01*
X88014326Y-120461744D01*
X87994540Y-120650000D01*
X80010500Y-120650000D01*
X80010500Y-111760000D01*
X129904540Y-111760000D01*
X129924326Y-111948256D01*
X129924327Y-111948259D01*
X129982818Y-112128277D01*
X129982821Y-112128284D01*
X130077467Y-112292216D01*
X130110037Y-112328388D01*
X130204129Y-112432888D01*
X130357265Y-112544148D01*
X130357270Y-112544151D01*
X130530192Y-112621142D01*
X130530197Y-112621144D01*
X130715354Y-112660500D01*
X130715355Y-112660500D01*
X130904644Y-112660500D01*
X130904646Y-112660500D01*
X131089803Y-112621144D01*
X131262730Y-112544151D01*
X131415871Y-112432888D01*
X131542533Y-112292216D01*
X131637179Y-112128284D01*
X131695674Y-111948256D01*
X131715460Y-111760000D01*
X131704477Y-111655500D01*
X134984540Y-111655500D01*
X135004326Y-111843756D01*
X135004327Y-111843759D01*
X135062818Y-112023777D01*
X135062821Y-112023784D01*
X135157467Y-112187716D01*
X135284129Y-112328388D01*
X135437265Y-112439648D01*
X135437270Y-112439651D01*
X135610192Y-112516642D01*
X135610197Y-112516644D01*
X135795354Y-112556000D01*
X135795355Y-112556000D01*
X135984644Y-112556000D01*
X135984646Y-112556000D01*
X136169803Y-112516644D01*
X136342730Y-112439651D01*
X136495871Y-112328388D01*
X136622533Y-112187716D01*
X136717179Y-112023784D01*
X136775674Y-111843756D01*
X136795460Y-111655500D01*
X136775674Y-111467244D01*
X136717179Y-111287216D01*
X136622533Y-111123284D01*
X136495871Y-110982612D01*
X136495870Y-110982611D01*
X136342734Y-110871351D01*
X136342729Y-110871348D01*
X136169807Y-110794357D01*
X136169802Y-110794355D01*
X136024001Y-110763365D01*
X135984646Y-110755000D01*
X135795354Y-110755000D01*
X135762897Y-110761898D01*
X135610197Y-110794355D01*
X135610192Y-110794357D01*
X135437270Y-110871348D01*
X135437265Y-110871351D01*
X135284129Y-110982611D01*
X135157466Y-111123285D01*
X135062821Y-111287215D01*
X135062818Y-111287222D01*
X135004327Y-111467240D01*
X135004326Y-111467244D01*
X134984540Y-111655500D01*
X131704477Y-111655500D01*
X131695674Y-111571744D01*
X131637179Y-111391716D01*
X131542533Y-111227784D01*
X131415871Y-111087112D01*
X131415870Y-111087111D01*
X131262734Y-110975851D01*
X131262729Y-110975848D01*
X131089807Y-110898857D01*
X131089802Y-110898855D01*
X130944001Y-110867865D01*
X130904646Y-110859500D01*
X130715354Y-110859500D01*
X130682897Y-110866398D01*
X130530197Y-110898855D01*
X130530192Y-110898857D01*
X130357270Y-110975848D01*
X130357265Y-110975851D01*
X130204129Y-111087111D01*
X130077466Y-111227785D01*
X129982821Y-111391715D01*
X129982818Y-111391722D01*
X129958280Y-111467244D01*
X129924326Y-111571744D01*
X129904540Y-111760000D01*
X80010500Y-111760000D01*
X80010500Y-95250000D01*
X138794540Y-95250000D01*
X138814326Y-95438256D01*
X138814327Y-95438259D01*
X138872818Y-95618277D01*
X138872821Y-95618284D01*
X138967467Y-95782216D01*
X139094129Y-95922888D01*
X139247265Y-96034148D01*
X139247270Y-96034151D01*
X139420192Y-96111142D01*
X139420197Y-96111144D01*
X139605354Y-96150500D01*
X139605355Y-96150500D01*
X139794644Y-96150500D01*
X139794646Y-96150500D01*
X139979803Y-96111144D01*
X140152730Y-96034151D01*
X140305871Y-95922888D01*
X140432533Y-95782216D01*
X140527179Y-95618284D01*
X140585674Y-95438256D01*
X140605460Y-95250000D01*
X140585674Y-95061744D01*
X140527179Y-94881716D01*
X140432533Y-94717784D01*
X140305871Y-94577112D01*
X140305870Y-94577111D01*
X140152734Y-94465851D01*
X140152729Y-94465848D01*
X139979807Y-94388857D01*
X139979802Y-94388855D01*
X139834001Y-94357865D01*
X139794646Y-94349500D01*
X139605354Y-94349500D01*
X139572897Y-94356398D01*
X139420197Y-94388855D01*
X139420192Y-94388857D01*
X139247270Y-94465848D01*
X139247265Y-94465851D01*
X139094129Y-94577111D01*
X138967466Y-94717785D01*
X138872821Y-94881715D01*
X138872818Y-94881722D01*
X138814327Y-95061740D01*
X138814326Y-95061744D01*
X138794540Y-95250000D01*
X80010500Y-95250000D01*
X80010500Y-91440000D01*
X138794540Y-91440000D01*
X138814326Y-91628256D01*
X138814327Y-91628259D01*
X138872818Y-91808277D01*
X138872821Y-91808284D01*
X138967467Y-91972216D01*
X139094129Y-92112888D01*
X139247265Y-92224148D01*
X139247270Y-92224151D01*
X139420192Y-92301142D01*
X139420197Y-92301144D01*
X139605354Y-92340500D01*
X139605355Y-92340500D01*
X139794644Y-92340500D01*
X139794646Y-92340500D01*
X139979803Y-92301144D01*
X140152730Y-92224151D01*
X140305871Y-92112888D01*
X140432533Y-91972216D01*
X140527179Y-91808284D01*
X140585674Y-91628256D01*
X140605460Y-91440000D01*
X140585674Y-91251744D01*
X140527179Y-91071716D01*
X140432533Y-90907784D01*
X140305871Y-90767112D01*
X140305870Y-90767111D01*
X140152734Y-90655851D01*
X140152729Y-90655848D01*
X139979807Y-90578857D01*
X139979802Y-90578855D01*
X139834001Y-90547865D01*
X139794646Y-90539500D01*
X139605354Y-90539500D01*
X139572897Y-90546398D01*
X139420197Y-90578855D01*
X139420192Y-90578857D01*
X139247270Y-90655848D01*
X139247265Y-90655851D01*
X139094129Y-90767111D01*
X138967466Y-90907785D01*
X138872821Y-91071715D01*
X138872818Y-91071722D01*
X138814327Y-91251740D01*
X138814326Y-91251744D01*
X138794540Y-91440000D01*
X80010500Y-91440000D01*
X80010500Y-90170000D01*
X103234540Y-90170000D01*
X103254326Y-90358256D01*
X103254327Y-90358259D01*
X103312818Y-90538277D01*
X103312821Y-90538284D01*
X103407467Y-90702216D01*
X103465899Y-90767111D01*
X103534129Y-90842888D01*
X103687265Y-90954148D01*
X103687270Y-90954151D01*
X103860192Y-91031142D01*
X103860197Y-91031144D01*
X104045354Y-91070500D01*
X104045355Y-91070500D01*
X104234644Y-91070500D01*
X104234646Y-91070500D01*
X104419803Y-91031144D01*
X104592730Y-90954151D01*
X104745871Y-90842888D01*
X104872533Y-90702216D01*
X104967179Y-90538284D01*
X105025674Y-90358256D01*
X105045460Y-90170000D01*
X105774540Y-90170000D01*
X105794326Y-90358256D01*
X105794327Y-90358259D01*
X105852818Y-90538277D01*
X105852821Y-90538284D01*
X105947467Y-90702216D01*
X106005899Y-90767111D01*
X106074129Y-90842888D01*
X106227265Y-90954148D01*
X106227270Y-90954151D01*
X106400192Y-91031142D01*
X106400197Y-91031144D01*
X106585354Y-91070500D01*
X106585355Y-91070500D01*
X106774644Y-91070500D01*
X106774646Y-91070500D01*
X106959803Y-91031144D01*
X107132730Y-90954151D01*
X107285871Y-90842888D01*
X107412533Y-90702216D01*
X107507179Y-90538284D01*
X107565674Y-90358256D01*
X107585460Y-90170000D01*
X107565674Y-89981744D01*
X107507179Y-89801716D01*
X107412533Y-89637784D01*
X107285871Y-89497112D01*
X107285870Y-89497111D01*
X107132734Y-89385851D01*
X107132729Y-89385848D01*
X106959807Y-89308857D01*
X106959802Y-89308855D01*
X106814001Y-89277865D01*
X106774646Y-89269500D01*
X106585354Y-89269500D01*
X106552897Y-89276398D01*
X106400197Y-89308855D01*
X106400192Y-89308857D01*
X106227270Y-89385848D01*
X106227265Y-89385851D01*
X106074129Y-89497111D01*
X105947466Y-89637785D01*
X105852821Y-89801715D01*
X105852818Y-89801722D01*
X105794327Y-89981740D01*
X105794326Y-89981744D01*
X105774540Y-90170000D01*
X105045460Y-90170000D01*
X105025674Y-89981744D01*
X104967179Y-89801716D01*
X104872533Y-89637784D01*
X104745871Y-89497112D01*
X104745870Y-89497111D01*
X104592734Y-89385851D01*
X104592729Y-89385848D01*
X104419807Y-89308857D01*
X104419802Y-89308855D01*
X104274001Y-89277865D01*
X104234646Y-89269500D01*
X104045354Y-89269500D01*
X104012897Y-89276398D01*
X103860197Y-89308855D01*
X103860192Y-89308857D01*
X103687270Y-89385848D01*
X103687265Y-89385851D01*
X103534129Y-89497111D01*
X103407466Y-89637785D01*
X103312821Y-89801715D01*
X103312818Y-89801722D01*
X103254327Y-89981740D01*
X103254326Y-89981744D01*
X103234540Y-90170000D01*
X80010500Y-90170000D01*
X80010500Y-77180005D01*
X86684357Y-77180005D01*
X86704890Y-77427812D01*
X86704892Y-77427824D01*
X86765936Y-77668881D01*
X86865826Y-77896606D01*
X87001833Y-78104782D01*
X87001836Y-78104785D01*
X87170256Y-78287738D01*
X87366491Y-78440474D01*
X87585190Y-78558828D01*
X87820386Y-78639571D01*
X88065665Y-78680500D01*
X88314335Y-78680500D01*
X88559614Y-78639571D01*
X88794810Y-78558828D01*
X89013509Y-78440474D01*
X89209744Y-78287738D01*
X89378164Y-78104785D01*
X89514173Y-77896607D01*
X89614063Y-77668881D01*
X89675108Y-77427821D01*
X89695643Y-77180005D01*
X93184357Y-77180005D01*
X93204890Y-77427812D01*
X93204892Y-77427824D01*
X93265936Y-77668881D01*
X93365826Y-77896606D01*
X93501833Y-78104782D01*
X93501836Y-78104785D01*
X93670256Y-78287738D01*
X93866491Y-78440474D01*
X94085190Y-78558828D01*
X94320386Y-78639571D01*
X94565665Y-78680500D01*
X94814335Y-78680500D01*
X95059614Y-78639571D01*
X95294810Y-78558828D01*
X95513509Y-78440474D01*
X95709744Y-78287738D01*
X95878164Y-78104785D01*
X96014173Y-77896607D01*
X96114063Y-77668881D01*
X96175108Y-77427821D01*
X96195643Y-77180000D01*
X96175108Y-76932179D01*
X96114063Y-76691119D01*
X96014173Y-76463393D01*
X95878166Y-76255217D01*
X95850406Y-76225062D01*
X95769026Y-76136660D01*
X111396891Y-76136660D01*
X111410697Y-76145335D01*
X111410701Y-76145337D01*
X111580858Y-76204877D01*
X111580861Y-76204878D01*
X111759997Y-76225062D01*
X111760003Y-76225062D01*
X111939138Y-76204878D01*
X112109307Y-76145333D01*
X112123107Y-76136661D01*
X112123107Y-76136660D01*
X112921891Y-76136660D01*
X112935697Y-76145335D01*
X112935701Y-76145337D01*
X113105858Y-76204877D01*
X113105861Y-76204878D01*
X113284997Y-76225062D01*
X113285003Y-76225062D01*
X113464138Y-76204878D01*
X113634307Y-76145333D01*
X113648107Y-76136661D01*
X113648107Y-76136660D01*
X113285001Y-75773553D01*
X113285000Y-75773553D01*
X112921891Y-76136660D01*
X112123107Y-76136660D01*
X111760001Y-75773553D01*
X111760000Y-75773553D01*
X111396891Y-76136660D01*
X95769026Y-76136660D01*
X95709744Y-76072262D01*
X95513509Y-75919526D01*
X95513507Y-75919525D01*
X95513506Y-75919524D01*
X95294811Y-75801172D01*
X95294802Y-75801169D01*
X95059616Y-75720429D01*
X94814335Y-75679500D01*
X94565665Y-75679500D01*
X94320383Y-75720429D01*
X94085197Y-75801169D01*
X94085188Y-75801172D01*
X93866493Y-75919524D01*
X93670257Y-76072261D01*
X93501833Y-76255217D01*
X93365826Y-76463393D01*
X93265936Y-76691118D01*
X93204892Y-76932175D01*
X93204890Y-76932187D01*
X93184357Y-77179994D01*
X93184357Y-77180005D01*
X89695643Y-77180005D01*
X89695643Y-77180000D01*
X89675108Y-76932179D01*
X89614063Y-76691119D01*
X89514173Y-76463393D01*
X89378166Y-76255217D01*
X89350406Y-76225062D01*
X89209744Y-76072262D01*
X89013509Y-75919526D01*
X89013507Y-75919525D01*
X89013506Y-75919524D01*
X88794811Y-75801172D01*
X88794802Y-75801169D01*
X88559616Y-75720429D01*
X88314335Y-75679500D01*
X88065665Y-75679500D01*
X87820383Y-75720429D01*
X87585197Y-75801169D01*
X87585188Y-75801172D01*
X87366493Y-75919524D01*
X87170257Y-76072261D01*
X87001833Y-76255217D01*
X86865826Y-76463393D01*
X86765936Y-76691118D01*
X86704892Y-76932175D01*
X86704890Y-76932187D01*
X86684357Y-77179994D01*
X86684357Y-77180005D01*
X80010500Y-77180005D01*
X80010500Y-75374160D01*
X110634391Y-75374160D01*
X110648197Y-75382835D01*
X110648201Y-75382837D01*
X110818359Y-75442377D01*
X110860982Y-75447180D01*
X110925396Y-75474246D01*
X110964951Y-75531840D01*
X110970319Y-75556515D01*
X110975121Y-75599138D01*
X110975122Y-75599141D01*
X111034662Y-75769298D01*
X111034667Y-75769308D01*
X111043338Y-75783108D01*
X111373955Y-75452492D01*
X111660000Y-75452492D01*
X111698197Y-75505065D01*
X111744162Y-75520000D01*
X111775838Y-75520000D01*
X111821803Y-75505065D01*
X111860000Y-75452492D01*
X111860000Y-75420000D01*
X112113553Y-75420000D01*
X112476660Y-75783107D01*
X112508621Y-75779507D01*
X112536387Y-75779508D01*
X112568338Y-75783108D01*
X112898955Y-75452492D01*
X113185000Y-75452492D01*
X113223197Y-75505065D01*
X113269162Y-75520000D01*
X113300838Y-75520000D01*
X113346803Y-75505065D01*
X113385000Y-75452492D01*
X113385000Y-75420000D01*
X113638553Y-75420000D01*
X114001660Y-75783107D01*
X114001661Y-75783107D01*
X114010333Y-75769307D01*
X114069878Y-75599138D01*
X114074680Y-75556518D01*
X114101746Y-75492103D01*
X114159340Y-75452548D01*
X114184018Y-75447180D01*
X114226638Y-75442378D01*
X114396807Y-75382833D01*
X114410607Y-75374161D01*
X114410607Y-75374160D01*
X114047500Y-75011053D01*
X113638553Y-75420000D01*
X113385000Y-75420000D01*
X113385000Y-75387508D01*
X113346803Y-75334935D01*
X113300838Y-75320000D01*
X113269162Y-75320000D01*
X113223197Y-75334935D01*
X113185000Y-75387508D01*
X113185000Y-75452492D01*
X112898955Y-75452492D01*
X112931447Y-75420000D01*
X112522500Y-75011053D01*
X112113553Y-75420000D01*
X111860000Y-75420000D01*
X111860000Y-75387508D01*
X111821803Y-75334935D01*
X111775838Y-75320000D01*
X111744162Y-75320000D01*
X111698197Y-75334935D01*
X111660000Y-75387508D01*
X111660000Y-75452492D01*
X111373955Y-75452492D01*
X111406447Y-75420000D01*
X111406447Y-75419999D01*
X110997501Y-75011053D01*
X110997500Y-75011053D01*
X110634391Y-75374160D01*
X80010500Y-75374160D01*
X80010500Y-74657502D01*
X110192438Y-74657502D01*
X110212621Y-74836638D01*
X110212622Y-74836641D01*
X110272162Y-75006798D01*
X110272167Y-75006808D01*
X110280838Y-75020608D01*
X110611455Y-74689992D01*
X110897500Y-74689992D01*
X110935697Y-74742565D01*
X110981662Y-74757500D01*
X111013338Y-74757500D01*
X111059303Y-74742565D01*
X111097500Y-74689992D01*
X111097500Y-74657500D01*
X111351053Y-74657500D01*
X111760000Y-75066447D01*
X112136455Y-74689992D01*
X112422500Y-74689992D01*
X112460697Y-74742565D01*
X112506662Y-74757500D01*
X112538338Y-74757500D01*
X112584303Y-74742565D01*
X112622500Y-74689992D01*
X112622500Y-74657500D01*
X112876053Y-74657500D01*
X113285000Y-75066447D01*
X113661455Y-74689992D01*
X113947500Y-74689992D01*
X113985697Y-74742565D01*
X114031662Y-74757500D01*
X114063338Y-74757500D01*
X114109303Y-74742565D01*
X114147500Y-74689992D01*
X114147500Y-74657500D01*
X114401053Y-74657500D01*
X114764160Y-75020607D01*
X114764161Y-75020607D01*
X114772833Y-75006807D01*
X114832378Y-74836638D01*
X114852562Y-74657502D01*
X114852562Y-74657497D01*
X114832378Y-74478361D01*
X114832377Y-74478358D01*
X114772837Y-74308201D01*
X114772835Y-74308197D01*
X114764160Y-74294391D01*
X114401053Y-74657499D01*
X114401053Y-74657500D01*
X114147500Y-74657500D01*
X114147500Y-74625008D01*
X114109303Y-74572435D01*
X114063338Y-74557500D01*
X114031662Y-74557500D01*
X113985697Y-74572435D01*
X113947500Y-74625008D01*
X113947500Y-74689992D01*
X113661455Y-74689992D01*
X113693947Y-74657500D01*
X113285000Y-74248553D01*
X112876053Y-74657500D01*
X112622500Y-74657500D01*
X112622500Y-74625008D01*
X112584303Y-74572435D01*
X112538338Y-74557500D01*
X112506662Y-74557500D01*
X112460697Y-74572435D01*
X112422500Y-74625008D01*
X112422500Y-74689992D01*
X112136455Y-74689992D01*
X112168947Y-74657500D01*
X111760000Y-74248553D01*
X111351053Y-74657500D01*
X111097500Y-74657500D01*
X111097500Y-74625008D01*
X111059303Y-74572435D01*
X111013338Y-74557500D01*
X110981662Y-74557500D01*
X110935697Y-74572435D01*
X110897500Y-74625008D01*
X110897500Y-74689992D01*
X110611455Y-74689992D01*
X110643947Y-74657500D01*
X110643947Y-74657499D01*
X110280838Y-74294390D01*
X110280838Y-74294391D01*
X110272164Y-74308196D01*
X110212622Y-74478358D01*
X110212621Y-74478361D01*
X110192438Y-74657497D01*
X110192438Y-74657502D01*
X80010500Y-74657502D01*
X80010500Y-72680005D01*
X86684859Y-72680005D01*
X86705385Y-72927729D01*
X86705387Y-72927738D01*
X86766412Y-73168717D01*
X86866266Y-73396364D01*
X86966564Y-73549882D01*
X87664070Y-72852376D01*
X87666884Y-72865915D01*
X87736442Y-73000156D01*
X87839638Y-73110652D01*
X87968819Y-73189209D01*
X88020002Y-73203549D01*
X87319942Y-73903609D01*
X87366768Y-73940055D01*
X87366770Y-73940056D01*
X87585385Y-74058364D01*
X87585396Y-74058369D01*
X87820506Y-74139083D01*
X88065707Y-74180000D01*
X88314293Y-74180000D01*
X88559493Y-74139083D01*
X88794603Y-74058369D01*
X88794614Y-74058364D01*
X89013228Y-73940057D01*
X89013231Y-73940055D01*
X89060056Y-73903609D01*
X88361568Y-73205121D01*
X88478458Y-73154349D01*
X88595739Y-73058934D01*
X88682928Y-72935415D01*
X88713354Y-72849802D01*
X89413434Y-73549882D01*
X89513731Y-73396369D01*
X89613587Y-73168717D01*
X89674612Y-72927738D01*
X89674614Y-72927729D01*
X89695141Y-72680005D01*
X93184859Y-72680005D01*
X93205385Y-72927729D01*
X93205387Y-72927738D01*
X93266412Y-73168717D01*
X93366266Y-73396364D01*
X93466564Y-73549882D01*
X94164070Y-72852376D01*
X94166884Y-72865915D01*
X94236442Y-73000156D01*
X94339638Y-73110652D01*
X94468819Y-73189209D01*
X94520002Y-73203549D01*
X93819942Y-73903609D01*
X93866768Y-73940055D01*
X93866770Y-73940056D01*
X94085385Y-74058364D01*
X94085396Y-74058369D01*
X94320506Y-74139083D01*
X94565707Y-74180000D01*
X94814293Y-74180000D01*
X95059493Y-74139083D01*
X95294603Y-74058369D01*
X95294614Y-74058364D01*
X95511785Y-73940838D01*
X110634390Y-73940838D01*
X110997499Y-74303947D01*
X111373955Y-73927492D01*
X111660000Y-73927492D01*
X111698197Y-73980065D01*
X111744162Y-73995000D01*
X111775838Y-73995000D01*
X111821803Y-73980065D01*
X111860000Y-73927492D01*
X111860000Y-73895000D01*
X112113553Y-73895000D01*
X112522500Y-74303947D01*
X112898955Y-73927492D01*
X113185000Y-73927492D01*
X113223197Y-73980065D01*
X113269162Y-73995000D01*
X113300838Y-73995000D01*
X113346803Y-73980065D01*
X113385000Y-73927492D01*
X113385000Y-73895000D01*
X113638553Y-73895000D01*
X114047500Y-74303947D01*
X114047501Y-74303947D01*
X114410608Y-73940838D01*
X114407008Y-73908884D01*
X114407007Y-73881119D01*
X114410607Y-73849160D01*
X114047500Y-73486053D01*
X113638553Y-73895000D01*
X113385000Y-73895000D01*
X113385000Y-73862508D01*
X113346803Y-73809935D01*
X113300838Y-73795000D01*
X113269162Y-73795000D01*
X113223197Y-73809935D01*
X113185000Y-73862508D01*
X113185000Y-73927492D01*
X112898955Y-73927492D01*
X112931447Y-73895000D01*
X112522500Y-73486053D01*
X112113553Y-73895000D01*
X111860000Y-73895000D01*
X111860000Y-73862508D01*
X111821803Y-73809935D01*
X111775838Y-73795000D01*
X111744162Y-73795000D01*
X111698197Y-73809935D01*
X111660000Y-73862508D01*
X111660000Y-73927492D01*
X111373955Y-73927492D01*
X111406447Y-73895000D01*
X111406447Y-73894999D01*
X110997501Y-73486053D01*
X110997500Y-73486053D01*
X110634390Y-73849161D01*
X110637991Y-73881123D01*
X110637991Y-73908892D01*
X110634390Y-73940838D01*
X95511785Y-73940838D01*
X95513228Y-73940057D01*
X95513231Y-73940055D01*
X95560056Y-73903609D01*
X94861568Y-73205121D01*
X94978458Y-73154349D01*
X95095739Y-73058934D01*
X95182928Y-72935415D01*
X95213354Y-72849802D01*
X95913434Y-73549882D01*
X96013731Y-73396369D01*
X96113587Y-73168717D01*
X96122758Y-73132502D01*
X110192438Y-73132502D01*
X110212621Y-73311638D01*
X110212622Y-73311641D01*
X110272162Y-73481798D01*
X110272167Y-73481808D01*
X110280838Y-73495608D01*
X110611455Y-73164992D01*
X110897500Y-73164992D01*
X110935697Y-73217565D01*
X110981662Y-73232500D01*
X111013338Y-73232500D01*
X111059303Y-73217565D01*
X111097500Y-73164992D01*
X111097500Y-73132500D01*
X111351053Y-73132500D01*
X111760000Y-73541447D01*
X112136455Y-73164992D01*
X112422500Y-73164992D01*
X112460697Y-73217565D01*
X112506662Y-73232500D01*
X112538338Y-73232500D01*
X112584303Y-73217565D01*
X112622500Y-73164992D01*
X112622500Y-73132500D01*
X112876053Y-73132500D01*
X113285000Y-73541447D01*
X113661455Y-73164992D01*
X113947500Y-73164992D01*
X113985697Y-73217565D01*
X114031662Y-73232500D01*
X114063338Y-73232500D01*
X114109303Y-73217565D01*
X114147500Y-73164992D01*
X114147500Y-73132500D01*
X114401053Y-73132500D01*
X114764160Y-73495607D01*
X114764161Y-73495607D01*
X114772833Y-73481807D01*
X114832378Y-73311638D01*
X114852562Y-73132502D01*
X114852562Y-73132497D01*
X114832378Y-72953361D01*
X114832377Y-72953358D01*
X114772837Y-72783201D01*
X114772835Y-72783197D01*
X114764160Y-72769391D01*
X114401053Y-73132499D01*
X114401053Y-73132500D01*
X114147500Y-73132500D01*
X114147500Y-73100008D01*
X114109303Y-73047435D01*
X114063338Y-73032500D01*
X114031662Y-73032500D01*
X113985697Y-73047435D01*
X113947500Y-73100008D01*
X113947500Y-73164992D01*
X113661455Y-73164992D01*
X113693947Y-73132500D01*
X113285000Y-72723553D01*
X112876053Y-73132500D01*
X112622500Y-73132500D01*
X112622500Y-73100008D01*
X112584303Y-73047435D01*
X112538338Y-73032500D01*
X112506662Y-73032500D01*
X112460697Y-73047435D01*
X112422500Y-73100008D01*
X112422500Y-73164992D01*
X112136455Y-73164992D01*
X112168947Y-73132500D01*
X111760000Y-72723553D01*
X111351053Y-73132500D01*
X111097500Y-73132500D01*
X111097500Y-73100008D01*
X111059303Y-73047435D01*
X111013338Y-73032500D01*
X110981662Y-73032500D01*
X110935697Y-73047435D01*
X110897500Y-73100008D01*
X110897500Y-73164992D01*
X110611455Y-73164992D01*
X110643947Y-73132500D01*
X110643947Y-73132499D01*
X110280838Y-72769390D01*
X110280838Y-72769391D01*
X110272164Y-72783196D01*
X110212622Y-72953358D01*
X110212621Y-72953361D01*
X110192438Y-73132497D01*
X110192438Y-73132502D01*
X96122758Y-73132502D01*
X96174612Y-72927738D01*
X96174614Y-72927729D01*
X96195141Y-72680005D01*
X96195141Y-72679994D01*
X96174614Y-72432270D01*
X96174612Y-72432261D01*
X96170453Y-72415838D01*
X110634390Y-72415838D01*
X110997499Y-72778947D01*
X111373955Y-72402492D01*
X111660000Y-72402492D01*
X111698197Y-72455065D01*
X111744162Y-72470000D01*
X111775838Y-72470000D01*
X111821803Y-72455065D01*
X111860000Y-72402492D01*
X111860000Y-72370000D01*
X112113553Y-72370000D01*
X112522499Y-72778947D01*
X112898955Y-72402492D01*
X113185000Y-72402492D01*
X113223197Y-72455065D01*
X113269162Y-72470000D01*
X113300838Y-72470000D01*
X113346803Y-72455065D01*
X113385000Y-72402492D01*
X113385000Y-72370000D01*
X113638553Y-72370000D01*
X114047500Y-72778947D01*
X114047501Y-72778947D01*
X114410608Y-72415838D01*
X114410608Y-72415837D01*
X114396808Y-72407167D01*
X114396798Y-72407162D01*
X114226641Y-72347622D01*
X114226638Y-72347621D01*
X114184015Y-72342819D01*
X114119602Y-72315752D01*
X114080047Y-72258157D01*
X114074680Y-72233482D01*
X114069877Y-72190859D01*
X114010337Y-72020701D01*
X114010335Y-72020697D01*
X114001660Y-72006891D01*
X113638553Y-72369999D01*
X113638553Y-72370000D01*
X113385000Y-72370000D01*
X113385000Y-72337508D01*
X113346803Y-72284935D01*
X113300838Y-72270000D01*
X113269162Y-72270000D01*
X113223197Y-72284935D01*
X113185000Y-72337508D01*
X113185000Y-72402492D01*
X112898955Y-72402492D01*
X112931447Y-72370000D01*
X112931447Y-72369999D01*
X112568338Y-72006890D01*
X112536392Y-72010491D01*
X112508623Y-72010491D01*
X112476661Y-72006890D01*
X112113553Y-72369999D01*
X112113553Y-72370000D01*
X111860000Y-72370000D01*
X111860000Y-72337508D01*
X111821803Y-72284935D01*
X111775838Y-72270000D01*
X111744162Y-72270000D01*
X111698197Y-72284935D01*
X111660000Y-72337508D01*
X111660000Y-72402492D01*
X111373955Y-72402492D01*
X111406447Y-72370000D01*
X111406447Y-72369999D01*
X111043338Y-72006890D01*
X111043338Y-72006891D01*
X111034665Y-72020695D01*
X110975122Y-72190859D01*
X110970319Y-72233484D01*
X110943252Y-72297898D01*
X110885656Y-72337452D01*
X110860984Y-72342819D01*
X110818359Y-72347622D01*
X110648195Y-72407165D01*
X110634391Y-72415838D01*
X110634390Y-72415838D01*
X96170453Y-72415838D01*
X96113587Y-72191282D01*
X96013731Y-71963630D01*
X95913434Y-71810116D01*
X95215929Y-72507622D01*
X95213116Y-72494085D01*
X95143558Y-72359844D01*
X95040362Y-72249348D01*
X94911181Y-72170791D01*
X94859997Y-72156450D01*
X95363109Y-71653338D01*
X111396890Y-71653338D01*
X111760000Y-72016447D01*
X111760001Y-72016447D01*
X112123108Y-71653338D01*
X112921890Y-71653338D01*
X113285000Y-72016447D01*
X113285001Y-72016447D01*
X113648108Y-71653338D01*
X113648108Y-71653337D01*
X113634308Y-71644667D01*
X113634298Y-71644662D01*
X113464141Y-71585122D01*
X113464138Y-71585121D01*
X113285003Y-71564938D01*
X113284997Y-71564938D01*
X113105861Y-71585121D01*
X113105858Y-71585122D01*
X112935696Y-71644664D01*
X112921891Y-71653338D01*
X112921890Y-71653338D01*
X112123108Y-71653338D01*
X112123108Y-71653337D01*
X112109308Y-71644667D01*
X112109298Y-71644662D01*
X111939141Y-71585122D01*
X111939138Y-71585121D01*
X111760003Y-71564938D01*
X111759997Y-71564938D01*
X111580861Y-71585121D01*
X111580858Y-71585122D01*
X111410696Y-71644664D01*
X111396891Y-71653338D01*
X111396890Y-71653338D01*
X95363109Y-71653338D01*
X95560057Y-71456390D01*
X95560056Y-71456389D01*
X95513229Y-71419943D01*
X95294614Y-71301635D01*
X95294603Y-71301630D01*
X95059493Y-71220916D01*
X94814293Y-71180000D01*
X94565707Y-71180000D01*
X94320506Y-71220916D01*
X94085396Y-71301630D01*
X94085390Y-71301632D01*
X93866761Y-71419949D01*
X93819942Y-71456388D01*
X93819942Y-71456390D01*
X94518431Y-72154878D01*
X94401542Y-72205651D01*
X94284261Y-72301066D01*
X94197072Y-72424585D01*
X94166645Y-72510197D01*
X93466564Y-71810116D01*
X93366267Y-71963632D01*
X93266412Y-72191282D01*
X93205387Y-72432261D01*
X93205385Y-72432270D01*
X93184859Y-72679994D01*
X93184859Y-72680005D01*
X89695141Y-72680005D01*
X89695141Y-72679994D01*
X89674614Y-72432270D01*
X89674612Y-72432261D01*
X89613587Y-72191282D01*
X89513731Y-71963630D01*
X89413434Y-71810116D01*
X88715929Y-72507622D01*
X88713116Y-72494085D01*
X88643558Y-72359844D01*
X88540362Y-72249348D01*
X88411181Y-72170791D01*
X88359997Y-72156450D01*
X89060057Y-71456390D01*
X89060056Y-71456389D01*
X89013229Y-71419943D01*
X88794614Y-71301635D01*
X88794603Y-71301630D01*
X88559493Y-71220916D01*
X88314293Y-71180000D01*
X88065707Y-71180000D01*
X87820506Y-71220916D01*
X87585396Y-71301630D01*
X87585390Y-71301632D01*
X87366761Y-71419949D01*
X87319942Y-71456388D01*
X87319942Y-71456390D01*
X88018431Y-72154878D01*
X87901542Y-72205651D01*
X87784261Y-72301066D01*
X87697072Y-72424585D01*
X87666645Y-72510197D01*
X86966564Y-71810116D01*
X86866267Y-71963632D01*
X86766412Y-72191282D01*
X86705387Y-72432261D01*
X86705385Y-72432270D01*
X86684859Y-72679994D01*
X86684859Y-72680005D01*
X80010500Y-72680005D01*
X80010500Y-44065000D01*
X89202500Y-44065000D01*
X89202500Y-65005000D01*
X137202500Y-65005000D01*
X137202500Y-44065000D01*
X89202500Y-44065000D01*
X80010500Y-44065000D01*
X80010500Y-39494500D01*
X80030185Y-39427461D01*
X80082989Y-39381706D01*
X80134500Y-39370500D01*
X147195500Y-39370500D01*
X147262539Y-39390185D01*
G37*
%TD.AperFunction*%
%TD*%
M02*
