%TF.GenerationSoftware,KiCad,Pcbnew,7.0.9*%
%TF.CreationDate,2023-12-04T17:32:10-03:00*%
%TF.ProjectId,aussistente,61757373-6973-4746-956e-74652e6b6963,rev?*%
%TF.SameCoordinates,Original*%
%TF.FileFunction,Legend,Top*%
%TF.FilePolarity,Positive*%
%FSLAX46Y46*%
G04 Gerber Fmt 4.6, Leading zero omitted, Abs format (unit mm)*
G04 Created by KiCad (PCBNEW 7.0.9) date 2023-12-04 17:32:10*
%MOMM*%
%LPD*%
G01*
G04 APERTURE LIST*
%ADD10C,0.150000*%
%ADD11C,0.120000*%
%ADD12C,0.127000*%
G04 APERTURE END LIST*
D10*
X90106667Y-71087200D02*
X90249524Y-71134819D01*
X90249524Y-71134819D02*
X90487619Y-71134819D01*
X90487619Y-71134819D02*
X90582857Y-71087200D01*
X90582857Y-71087200D02*
X90630476Y-71039580D01*
X90630476Y-71039580D02*
X90678095Y-70944342D01*
X90678095Y-70944342D02*
X90678095Y-70849104D01*
X90678095Y-70849104D02*
X90630476Y-70753866D01*
X90630476Y-70753866D02*
X90582857Y-70706247D01*
X90582857Y-70706247D02*
X90487619Y-70658628D01*
X90487619Y-70658628D02*
X90297143Y-70611009D01*
X90297143Y-70611009D02*
X90201905Y-70563390D01*
X90201905Y-70563390D02*
X90154286Y-70515771D01*
X90154286Y-70515771D02*
X90106667Y-70420533D01*
X90106667Y-70420533D02*
X90106667Y-70325295D01*
X90106667Y-70325295D02*
X90154286Y-70230057D01*
X90154286Y-70230057D02*
X90201905Y-70182438D01*
X90201905Y-70182438D02*
X90297143Y-70134819D01*
X90297143Y-70134819D02*
X90535238Y-70134819D01*
X90535238Y-70134819D02*
X90678095Y-70182438D01*
X91011429Y-70134819D02*
X91249524Y-71134819D01*
X91249524Y-71134819D02*
X91440000Y-70420533D01*
X91440000Y-70420533D02*
X91630476Y-71134819D01*
X91630476Y-71134819D02*
X91868572Y-70134819D01*
X92773333Y-71134819D02*
X92201905Y-71134819D01*
X92487619Y-71134819D02*
X92487619Y-70134819D01*
X92487619Y-70134819D02*
X92392381Y-70277676D01*
X92392381Y-70277676D02*
X92297143Y-70372914D01*
X92297143Y-70372914D02*
X92201905Y-70420533D01*
X113494285Y-163761009D02*
X113637142Y-163808628D01*
X113637142Y-163808628D02*
X113684761Y-163856247D01*
X113684761Y-163856247D02*
X113732380Y-163951485D01*
X113732380Y-163951485D02*
X113732380Y-164094342D01*
X113732380Y-164094342D02*
X113684761Y-164189580D01*
X113684761Y-164189580D02*
X113637142Y-164237200D01*
X113637142Y-164237200D02*
X113541904Y-164284819D01*
X113541904Y-164284819D02*
X113160952Y-164284819D01*
X113160952Y-164284819D02*
X113160952Y-163284819D01*
X113160952Y-163284819D02*
X113494285Y-163284819D01*
X113494285Y-163284819D02*
X113589523Y-163332438D01*
X113589523Y-163332438D02*
X113637142Y-163380057D01*
X113637142Y-163380057D02*
X113684761Y-163475295D01*
X113684761Y-163475295D02*
X113684761Y-163570533D01*
X113684761Y-163570533D02*
X113637142Y-163665771D01*
X113637142Y-163665771D02*
X113589523Y-163713390D01*
X113589523Y-163713390D02*
X113494285Y-163761009D01*
X113494285Y-163761009D02*
X113160952Y-163761009D01*
X114018095Y-163284819D02*
X114589523Y-163284819D01*
X114303809Y-164284819D02*
X114303809Y-163284819D01*
X115446666Y-164284819D02*
X114875238Y-164284819D01*
X115160952Y-164284819D02*
X115160952Y-163284819D01*
X115160952Y-163284819D02*
X115065714Y-163427676D01*
X115065714Y-163427676D02*
X114970476Y-163522914D01*
X114970476Y-163522914D02*
X114875238Y-163570533D01*
X139878333Y-111994819D02*
X139545000Y-111518628D01*
X139306905Y-111994819D02*
X139306905Y-110994819D01*
X139306905Y-110994819D02*
X139687857Y-110994819D01*
X139687857Y-110994819D02*
X139783095Y-111042438D01*
X139783095Y-111042438D02*
X139830714Y-111090057D01*
X139830714Y-111090057D02*
X139878333Y-111185295D01*
X139878333Y-111185295D02*
X139878333Y-111328152D01*
X139878333Y-111328152D02*
X139830714Y-111423390D01*
X139830714Y-111423390D02*
X139783095Y-111471009D01*
X139783095Y-111471009D02*
X139687857Y-111518628D01*
X139687857Y-111518628D02*
X139306905Y-111518628D01*
X140259286Y-111090057D02*
X140306905Y-111042438D01*
X140306905Y-111042438D02*
X140402143Y-110994819D01*
X140402143Y-110994819D02*
X140640238Y-110994819D01*
X140640238Y-110994819D02*
X140735476Y-111042438D01*
X140735476Y-111042438D02*
X140783095Y-111090057D01*
X140783095Y-111090057D02*
X140830714Y-111185295D01*
X140830714Y-111185295D02*
X140830714Y-111280533D01*
X140830714Y-111280533D02*
X140783095Y-111423390D01*
X140783095Y-111423390D02*
X140211667Y-111994819D01*
X140211667Y-111994819D02*
X140830714Y-111994819D01*
X132205595Y-109884819D02*
X132205595Y-110694342D01*
X132205595Y-110694342D02*
X132253214Y-110789580D01*
X132253214Y-110789580D02*
X132300833Y-110837200D01*
X132300833Y-110837200D02*
X132396071Y-110884819D01*
X132396071Y-110884819D02*
X132586547Y-110884819D01*
X132586547Y-110884819D02*
X132681785Y-110837200D01*
X132681785Y-110837200D02*
X132729404Y-110789580D01*
X132729404Y-110789580D02*
X132777023Y-110694342D01*
X132777023Y-110694342D02*
X132777023Y-109884819D01*
X133157976Y-109884819D02*
X133777023Y-109884819D01*
X133777023Y-109884819D02*
X133443690Y-110265771D01*
X133443690Y-110265771D02*
X133586547Y-110265771D01*
X133586547Y-110265771D02*
X133681785Y-110313390D01*
X133681785Y-110313390D02*
X133729404Y-110361009D01*
X133729404Y-110361009D02*
X133777023Y-110456247D01*
X133777023Y-110456247D02*
X133777023Y-110694342D01*
X133777023Y-110694342D02*
X133729404Y-110789580D01*
X133729404Y-110789580D02*
X133681785Y-110837200D01*
X133681785Y-110837200D02*
X133586547Y-110884819D01*
X133586547Y-110884819D02*
X133300833Y-110884819D01*
X133300833Y-110884819D02*
X133205595Y-110837200D01*
X133205595Y-110837200D02*
X133157976Y-110789580D01*
X102703333Y-121104819D02*
X102370000Y-120628628D01*
X102131905Y-121104819D02*
X102131905Y-120104819D01*
X102131905Y-120104819D02*
X102512857Y-120104819D01*
X102512857Y-120104819D02*
X102608095Y-120152438D01*
X102608095Y-120152438D02*
X102655714Y-120200057D01*
X102655714Y-120200057D02*
X102703333Y-120295295D01*
X102703333Y-120295295D02*
X102703333Y-120438152D01*
X102703333Y-120438152D02*
X102655714Y-120533390D01*
X102655714Y-120533390D02*
X102608095Y-120581009D01*
X102608095Y-120581009D02*
X102512857Y-120628628D01*
X102512857Y-120628628D02*
X102131905Y-120628628D01*
X103179524Y-121104819D02*
X103370000Y-121104819D01*
X103370000Y-121104819D02*
X103465238Y-121057200D01*
X103465238Y-121057200D02*
X103512857Y-121009580D01*
X103512857Y-121009580D02*
X103608095Y-120866723D01*
X103608095Y-120866723D02*
X103655714Y-120676247D01*
X103655714Y-120676247D02*
X103655714Y-120295295D01*
X103655714Y-120295295D02*
X103608095Y-120200057D01*
X103608095Y-120200057D02*
X103560476Y-120152438D01*
X103560476Y-120152438D02*
X103465238Y-120104819D01*
X103465238Y-120104819D02*
X103274762Y-120104819D01*
X103274762Y-120104819D02*
X103179524Y-120152438D01*
X103179524Y-120152438D02*
X103131905Y-120200057D01*
X103131905Y-120200057D02*
X103084286Y-120295295D01*
X103084286Y-120295295D02*
X103084286Y-120533390D01*
X103084286Y-120533390D02*
X103131905Y-120628628D01*
X103131905Y-120628628D02*
X103179524Y-120676247D01*
X103179524Y-120676247D02*
X103274762Y-120723866D01*
X103274762Y-120723866D02*
X103465238Y-120723866D01*
X103465238Y-120723866D02*
X103560476Y-120676247D01*
X103560476Y-120676247D02*
X103608095Y-120628628D01*
X103608095Y-120628628D02*
X103655714Y-120533390D01*
X102047319Y-83996904D02*
X102856842Y-83996904D01*
X102856842Y-83996904D02*
X102952080Y-83949285D01*
X102952080Y-83949285D02*
X102999700Y-83901666D01*
X102999700Y-83901666D02*
X103047319Y-83806428D01*
X103047319Y-83806428D02*
X103047319Y-83615952D01*
X103047319Y-83615952D02*
X102999700Y-83520714D01*
X102999700Y-83520714D02*
X102952080Y-83473095D01*
X102952080Y-83473095D02*
X102856842Y-83425476D01*
X102856842Y-83425476D02*
X102047319Y-83425476D01*
X103047319Y-82425476D02*
X103047319Y-82996904D01*
X103047319Y-82711190D02*
X102047319Y-82711190D01*
X102047319Y-82711190D02*
X102190176Y-82806428D01*
X102190176Y-82806428D02*
X102285414Y-82901666D01*
X102285414Y-82901666D02*
X102333033Y-82996904D01*
X141148333Y-90334819D02*
X140815000Y-89858628D01*
X140576905Y-90334819D02*
X140576905Y-89334819D01*
X140576905Y-89334819D02*
X140957857Y-89334819D01*
X140957857Y-89334819D02*
X141053095Y-89382438D01*
X141053095Y-89382438D02*
X141100714Y-89430057D01*
X141100714Y-89430057D02*
X141148333Y-89525295D01*
X141148333Y-89525295D02*
X141148333Y-89668152D01*
X141148333Y-89668152D02*
X141100714Y-89763390D01*
X141100714Y-89763390D02*
X141053095Y-89811009D01*
X141053095Y-89811009D02*
X140957857Y-89858628D01*
X140957857Y-89858628D02*
X140576905Y-89858628D01*
X141719762Y-89763390D02*
X141624524Y-89715771D01*
X141624524Y-89715771D02*
X141576905Y-89668152D01*
X141576905Y-89668152D02*
X141529286Y-89572914D01*
X141529286Y-89572914D02*
X141529286Y-89525295D01*
X141529286Y-89525295D02*
X141576905Y-89430057D01*
X141576905Y-89430057D02*
X141624524Y-89382438D01*
X141624524Y-89382438D02*
X141719762Y-89334819D01*
X141719762Y-89334819D02*
X141910238Y-89334819D01*
X141910238Y-89334819D02*
X142005476Y-89382438D01*
X142005476Y-89382438D02*
X142053095Y-89430057D01*
X142053095Y-89430057D02*
X142100714Y-89525295D01*
X142100714Y-89525295D02*
X142100714Y-89572914D01*
X142100714Y-89572914D02*
X142053095Y-89668152D01*
X142053095Y-89668152D02*
X142005476Y-89715771D01*
X142005476Y-89715771D02*
X141910238Y-89763390D01*
X141910238Y-89763390D02*
X141719762Y-89763390D01*
X141719762Y-89763390D02*
X141624524Y-89811009D01*
X141624524Y-89811009D02*
X141576905Y-89858628D01*
X141576905Y-89858628D02*
X141529286Y-89953866D01*
X141529286Y-89953866D02*
X141529286Y-90144342D01*
X141529286Y-90144342D02*
X141576905Y-90239580D01*
X141576905Y-90239580D02*
X141624524Y-90287200D01*
X141624524Y-90287200D02*
X141719762Y-90334819D01*
X141719762Y-90334819D02*
X141910238Y-90334819D01*
X141910238Y-90334819D02*
X142005476Y-90287200D01*
X142005476Y-90287200D02*
X142053095Y-90239580D01*
X142053095Y-90239580D02*
X142100714Y-90144342D01*
X142100714Y-90144342D02*
X142100714Y-89953866D01*
X142100714Y-89953866D02*
X142053095Y-89858628D01*
X142053095Y-89858628D02*
X142005476Y-89811009D01*
X142005476Y-89811009D02*
X141910238Y-89763390D01*
X84792142Y-120054819D02*
X84458809Y-119578628D01*
X84220714Y-120054819D02*
X84220714Y-119054819D01*
X84220714Y-119054819D02*
X84601666Y-119054819D01*
X84601666Y-119054819D02*
X84696904Y-119102438D01*
X84696904Y-119102438D02*
X84744523Y-119150057D01*
X84744523Y-119150057D02*
X84792142Y-119245295D01*
X84792142Y-119245295D02*
X84792142Y-119388152D01*
X84792142Y-119388152D02*
X84744523Y-119483390D01*
X84744523Y-119483390D02*
X84696904Y-119531009D01*
X84696904Y-119531009D02*
X84601666Y-119578628D01*
X84601666Y-119578628D02*
X84220714Y-119578628D01*
X85744523Y-120054819D02*
X85173095Y-120054819D01*
X85458809Y-120054819D02*
X85458809Y-119054819D01*
X85458809Y-119054819D02*
X85363571Y-119197676D01*
X85363571Y-119197676D02*
X85268333Y-119292914D01*
X85268333Y-119292914D02*
X85173095Y-119340533D01*
X86077857Y-119054819D02*
X86696904Y-119054819D01*
X86696904Y-119054819D02*
X86363571Y-119435771D01*
X86363571Y-119435771D02*
X86506428Y-119435771D01*
X86506428Y-119435771D02*
X86601666Y-119483390D01*
X86601666Y-119483390D02*
X86649285Y-119531009D01*
X86649285Y-119531009D02*
X86696904Y-119626247D01*
X86696904Y-119626247D02*
X86696904Y-119864342D01*
X86696904Y-119864342D02*
X86649285Y-119959580D01*
X86649285Y-119959580D02*
X86601666Y-120007200D01*
X86601666Y-120007200D02*
X86506428Y-120054819D01*
X86506428Y-120054819D02*
X86220714Y-120054819D01*
X86220714Y-120054819D02*
X86125476Y-120007200D01*
X86125476Y-120007200D02*
X86077857Y-119959580D01*
X90898095Y-86824819D02*
X90898095Y-87634342D01*
X90898095Y-87634342D02*
X90945714Y-87729580D01*
X90945714Y-87729580D02*
X90993333Y-87777200D01*
X90993333Y-87777200D02*
X91088571Y-87824819D01*
X91088571Y-87824819D02*
X91279047Y-87824819D01*
X91279047Y-87824819D02*
X91374285Y-87777200D01*
X91374285Y-87777200D02*
X91421904Y-87729580D01*
X91421904Y-87729580D02*
X91469523Y-87634342D01*
X91469523Y-87634342D02*
X91469523Y-86824819D01*
X92374285Y-87158152D02*
X92374285Y-87824819D01*
X92136190Y-86777200D02*
X91898095Y-87491485D01*
X91898095Y-87491485D02*
X92517142Y-87491485D01*
X100579580Y-124146666D02*
X100627200Y-124194285D01*
X100627200Y-124194285D02*
X100674819Y-124337142D01*
X100674819Y-124337142D02*
X100674819Y-124432380D01*
X100674819Y-124432380D02*
X100627200Y-124575237D01*
X100627200Y-124575237D02*
X100531961Y-124670475D01*
X100531961Y-124670475D02*
X100436723Y-124718094D01*
X100436723Y-124718094D02*
X100246247Y-124765713D01*
X100246247Y-124765713D02*
X100103390Y-124765713D01*
X100103390Y-124765713D02*
X99912914Y-124718094D01*
X99912914Y-124718094D02*
X99817676Y-124670475D01*
X99817676Y-124670475D02*
X99722438Y-124575237D01*
X99722438Y-124575237D02*
X99674819Y-124432380D01*
X99674819Y-124432380D02*
X99674819Y-124337142D01*
X99674819Y-124337142D02*
X99722438Y-124194285D01*
X99722438Y-124194285D02*
X99770057Y-124146666D01*
X99674819Y-123813332D02*
X99674819Y-123146666D01*
X99674819Y-123146666D02*
X100674819Y-123575237D01*
X97623333Y-94689580D02*
X97575714Y-94737200D01*
X97575714Y-94737200D02*
X97432857Y-94784819D01*
X97432857Y-94784819D02*
X97337619Y-94784819D01*
X97337619Y-94784819D02*
X97194762Y-94737200D01*
X97194762Y-94737200D02*
X97099524Y-94641961D01*
X97099524Y-94641961D02*
X97051905Y-94546723D01*
X97051905Y-94546723D02*
X97004286Y-94356247D01*
X97004286Y-94356247D02*
X97004286Y-94213390D01*
X97004286Y-94213390D02*
X97051905Y-94022914D01*
X97051905Y-94022914D02*
X97099524Y-93927676D01*
X97099524Y-93927676D02*
X97194762Y-93832438D01*
X97194762Y-93832438D02*
X97337619Y-93784819D01*
X97337619Y-93784819D02*
X97432857Y-93784819D01*
X97432857Y-93784819D02*
X97575714Y-93832438D01*
X97575714Y-93832438D02*
X97623333Y-93880057D01*
X97956667Y-93784819D02*
X98575714Y-93784819D01*
X98575714Y-93784819D02*
X98242381Y-94165771D01*
X98242381Y-94165771D02*
X98385238Y-94165771D01*
X98385238Y-94165771D02*
X98480476Y-94213390D01*
X98480476Y-94213390D02*
X98528095Y-94261009D01*
X98528095Y-94261009D02*
X98575714Y-94356247D01*
X98575714Y-94356247D02*
X98575714Y-94594342D01*
X98575714Y-94594342D02*
X98528095Y-94689580D01*
X98528095Y-94689580D02*
X98480476Y-94737200D01*
X98480476Y-94737200D02*
X98385238Y-94784819D01*
X98385238Y-94784819D02*
X98099524Y-94784819D01*
X98099524Y-94784819D02*
X98004286Y-94737200D01*
X98004286Y-94737200D02*
X97956667Y-94689580D01*
X131913333Y-99419580D02*
X131865714Y-99467200D01*
X131865714Y-99467200D02*
X131722857Y-99514819D01*
X131722857Y-99514819D02*
X131627619Y-99514819D01*
X131627619Y-99514819D02*
X131484762Y-99467200D01*
X131484762Y-99467200D02*
X131389524Y-99371961D01*
X131389524Y-99371961D02*
X131341905Y-99276723D01*
X131341905Y-99276723D02*
X131294286Y-99086247D01*
X131294286Y-99086247D02*
X131294286Y-98943390D01*
X131294286Y-98943390D02*
X131341905Y-98752914D01*
X131341905Y-98752914D02*
X131389524Y-98657676D01*
X131389524Y-98657676D02*
X131484762Y-98562438D01*
X131484762Y-98562438D02*
X131627619Y-98514819D01*
X131627619Y-98514819D02*
X131722857Y-98514819D01*
X131722857Y-98514819D02*
X131865714Y-98562438D01*
X131865714Y-98562438D02*
X131913333Y-98610057D01*
X132818095Y-98514819D02*
X132341905Y-98514819D01*
X132341905Y-98514819D02*
X132294286Y-98991009D01*
X132294286Y-98991009D02*
X132341905Y-98943390D01*
X132341905Y-98943390D02*
X132437143Y-98895771D01*
X132437143Y-98895771D02*
X132675238Y-98895771D01*
X132675238Y-98895771D02*
X132770476Y-98943390D01*
X132770476Y-98943390D02*
X132818095Y-98991009D01*
X132818095Y-98991009D02*
X132865714Y-99086247D01*
X132865714Y-99086247D02*
X132865714Y-99324342D01*
X132865714Y-99324342D02*
X132818095Y-99419580D01*
X132818095Y-99419580D02*
X132770476Y-99467200D01*
X132770476Y-99467200D02*
X132675238Y-99514819D01*
X132675238Y-99514819D02*
X132437143Y-99514819D01*
X132437143Y-99514819D02*
X132341905Y-99467200D01*
X132341905Y-99467200D02*
X132294286Y-99419580D01*
X134453333Y-99419580D02*
X134405714Y-99467200D01*
X134405714Y-99467200D02*
X134262857Y-99514819D01*
X134262857Y-99514819D02*
X134167619Y-99514819D01*
X134167619Y-99514819D02*
X134024762Y-99467200D01*
X134024762Y-99467200D02*
X133929524Y-99371961D01*
X133929524Y-99371961D02*
X133881905Y-99276723D01*
X133881905Y-99276723D02*
X133834286Y-99086247D01*
X133834286Y-99086247D02*
X133834286Y-98943390D01*
X133834286Y-98943390D02*
X133881905Y-98752914D01*
X133881905Y-98752914D02*
X133929524Y-98657676D01*
X133929524Y-98657676D02*
X134024762Y-98562438D01*
X134024762Y-98562438D02*
X134167619Y-98514819D01*
X134167619Y-98514819D02*
X134262857Y-98514819D01*
X134262857Y-98514819D02*
X134405714Y-98562438D01*
X134405714Y-98562438D02*
X134453333Y-98610057D01*
X135310476Y-98848152D02*
X135310476Y-99514819D01*
X135072381Y-98467200D02*
X134834286Y-99181485D01*
X134834286Y-99181485D02*
X135453333Y-99181485D01*
X139982142Y-86814819D02*
X139648809Y-86338628D01*
X139410714Y-86814819D02*
X139410714Y-85814819D01*
X139410714Y-85814819D02*
X139791666Y-85814819D01*
X139791666Y-85814819D02*
X139886904Y-85862438D01*
X139886904Y-85862438D02*
X139934523Y-85910057D01*
X139934523Y-85910057D02*
X139982142Y-86005295D01*
X139982142Y-86005295D02*
X139982142Y-86148152D01*
X139982142Y-86148152D02*
X139934523Y-86243390D01*
X139934523Y-86243390D02*
X139886904Y-86291009D01*
X139886904Y-86291009D02*
X139791666Y-86338628D01*
X139791666Y-86338628D02*
X139410714Y-86338628D01*
X140934523Y-86814819D02*
X140363095Y-86814819D01*
X140648809Y-86814819D02*
X140648809Y-85814819D01*
X140648809Y-85814819D02*
X140553571Y-85957676D01*
X140553571Y-85957676D02*
X140458333Y-86052914D01*
X140458333Y-86052914D02*
X140363095Y-86100533D01*
X141839285Y-85814819D02*
X141363095Y-85814819D01*
X141363095Y-85814819D02*
X141315476Y-86291009D01*
X141315476Y-86291009D02*
X141363095Y-86243390D01*
X141363095Y-86243390D02*
X141458333Y-86195771D01*
X141458333Y-86195771D02*
X141696428Y-86195771D01*
X141696428Y-86195771D02*
X141791666Y-86243390D01*
X141791666Y-86243390D02*
X141839285Y-86291009D01*
X141839285Y-86291009D02*
X141886904Y-86386247D01*
X141886904Y-86386247D02*
X141886904Y-86624342D01*
X141886904Y-86624342D02*
X141839285Y-86719580D01*
X141839285Y-86719580D02*
X141791666Y-86767200D01*
X141791666Y-86767200D02*
X141696428Y-86814819D01*
X141696428Y-86814819D02*
X141458333Y-86814819D01*
X141458333Y-86814819D02*
X141363095Y-86767200D01*
X141363095Y-86767200D02*
X141315476Y-86719580D01*
X84792142Y-117514819D02*
X84458809Y-117038628D01*
X84220714Y-117514819D02*
X84220714Y-116514819D01*
X84220714Y-116514819D02*
X84601666Y-116514819D01*
X84601666Y-116514819D02*
X84696904Y-116562438D01*
X84696904Y-116562438D02*
X84744523Y-116610057D01*
X84744523Y-116610057D02*
X84792142Y-116705295D01*
X84792142Y-116705295D02*
X84792142Y-116848152D01*
X84792142Y-116848152D02*
X84744523Y-116943390D01*
X84744523Y-116943390D02*
X84696904Y-116991009D01*
X84696904Y-116991009D02*
X84601666Y-117038628D01*
X84601666Y-117038628D02*
X84220714Y-117038628D01*
X85744523Y-117514819D02*
X85173095Y-117514819D01*
X85458809Y-117514819D02*
X85458809Y-116514819D01*
X85458809Y-116514819D02*
X85363571Y-116657676D01*
X85363571Y-116657676D02*
X85268333Y-116752914D01*
X85268333Y-116752914D02*
X85173095Y-116800533D01*
X86696904Y-117514819D02*
X86125476Y-117514819D01*
X86411190Y-117514819D02*
X86411190Y-116514819D01*
X86411190Y-116514819D02*
X86315952Y-116657676D01*
X86315952Y-116657676D02*
X86220714Y-116752914D01*
X86220714Y-116752914D02*
X86125476Y-116800533D01*
X98103333Y-71479580D02*
X98055714Y-71527200D01*
X98055714Y-71527200D02*
X97912857Y-71574819D01*
X97912857Y-71574819D02*
X97817619Y-71574819D01*
X97817619Y-71574819D02*
X97674762Y-71527200D01*
X97674762Y-71527200D02*
X97579524Y-71431961D01*
X97579524Y-71431961D02*
X97531905Y-71336723D01*
X97531905Y-71336723D02*
X97484286Y-71146247D01*
X97484286Y-71146247D02*
X97484286Y-71003390D01*
X97484286Y-71003390D02*
X97531905Y-70812914D01*
X97531905Y-70812914D02*
X97579524Y-70717676D01*
X97579524Y-70717676D02*
X97674762Y-70622438D01*
X97674762Y-70622438D02*
X97817619Y-70574819D01*
X97817619Y-70574819D02*
X97912857Y-70574819D01*
X97912857Y-70574819D02*
X98055714Y-70622438D01*
X98055714Y-70622438D02*
X98103333Y-70670057D01*
X98674762Y-71003390D02*
X98579524Y-70955771D01*
X98579524Y-70955771D02*
X98531905Y-70908152D01*
X98531905Y-70908152D02*
X98484286Y-70812914D01*
X98484286Y-70812914D02*
X98484286Y-70765295D01*
X98484286Y-70765295D02*
X98531905Y-70670057D01*
X98531905Y-70670057D02*
X98579524Y-70622438D01*
X98579524Y-70622438D02*
X98674762Y-70574819D01*
X98674762Y-70574819D02*
X98865238Y-70574819D01*
X98865238Y-70574819D02*
X98960476Y-70622438D01*
X98960476Y-70622438D02*
X99008095Y-70670057D01*
X99008095Y-70670057D02*
X99055714Y-70765295D01*
X99055714Y-70765295D02*
X99055714Y-70812914D01*
X99055714Y-70812914D02*
X99008095Y-70908152D01*
X99008095Y-70908152D02*
X98960476Y-70955771D01*
X98960476Y-70955771D02*
X98865238Y-71003390D01*
X98865238Y-71003390D02*
X98674762Y-71003390D01*
X98674762Y-71003390D02*
X98579524Y-71051009D01*
X98579524Y-71051009D02*
X98531905Y-71098628D01*
X98531905Y-71098628D02*
X98484286Y-71193866D01*
X98484286Y-71193866D02*
X98484286Y-71384342D01*
X98484286Y-71384342D02*
X98531905Y-71479580D01*
X98531905Y-71479580D02*
X98579524Y-71527200D01*
X98579524Y-71527200D02*
X98674762Y-71574819D01*
X98674762Y-71574819D02*
X98865238Y-71574819D01*
X98865238Y-71574819D02*
X98960476Y-71527200D01*
X98960476Y-71527200D02*
X99008095Y-71479580D01*
X99008095Y-71479580D02*
X99055714Y-71384342D01*
X99055714Y-71384342D02*
X99055714Y-71193866D01*
X99055714Y-71193866D02*
X99008095Y-71098628D01*
X99008095Y-71098628D02*
X98960476Y-71051009D01*
X98960476Y-71051009D02*
X98865238Y-71003390D01*
X135387176Y-90649619D02*
X135905271Y-90649619D01*
X135905271Y-90649619D02*
X135966223Y-90619142D01*
X135966223Y-90619142D02*
X135996700Y-90588666D01*
X135996700Y-90588666D02*
X136027176Y-90527714D01*
X136027176Y-90527714D02*
X136027176Y-90405809D01*
X136027176Y-90405809D02*
X135996700Y-90344857D01*
X135996700Y-90344857D02*
X135966223Y-90314380D01*
X135966223Y-90314380D02*
X135905271Y-90283904D01*
X135905271Y-90283904D02*
X135387176Y-90283904D01*
X135448128Y-90009619D02*
X135417652Y-89979143D01*
X135417652Y-89979143D02*
X135387176Y-89918190D01*
X135387176Y-89918190D02*
X135387176Y-89765809D01*
X135387176Y-89765809D02*
X135417652Y-89704857D01*
X135417652Y-89704857D02*
X135448128Y-89674381D01*
X135448128Y-89674381D02*
X135509080Y-89643904D01*
X135509080Y-89643904D02*
X135570033Y-89643904D01*
X135570033Y-89643904D02*
X135661461Y-89674381D01*
X135661461Y-89674381D02*
X136027176Y-90040095D01*
X136027176Y-90040095D02*
X136027176Y-89643904D01*
X95083333Y-94689580D02*
X95035714Y-94737200D01*
X95035714Y-94737200D02*
X94892857Y-94784819D01*
X94892857Y-94784819D02*
X94797619Y-94784819D01*
X94797619Y-94784819D02*
X94654762Y-94737200D01*
X94654762Y-94737200D02*
X94559524Y-94641961D01*
X94559524Y-94641961D02*
X94511905Y-94546723D01*
X94511905Y-94546723D02*
X94464286Y-94356247D01*
X94464286Y-94356247D02*
X94464286Y-94213390D01*
X94464286Y-94213390D02*
X94511905Y-94022914D01*
X94511905Y-94022914D02*
X94559524Y-93927676D01*
X94559524Y-93927676D02*
X94654762Y-93832438D01*
X94654762Y-93832438D02*
X94797619Y-93784819D01*
X94797619Y-93784819D02*
X94892857Y-93784819D01*
X94892857Y-93784819D02*
X95035714Y-93832438D01*
X95035714Y-93832438D02*
X95083333Y-93880057D01*
X95464286Y-93880057D02*
X95511905Y-93832438D01*
X95511905Y-93832438D02*
X95607143Y-93784819D01*
X95607143Y-93784819D02*
X95845238Y-93784819D01*
X95845238Y-93784819D02*
X95940476Y-93832438D01*
X95940476Y-93832438D02*
X95988095Y-93880057D01*
X95988095Y-93880057D02*
X96035714Y-93975295D01*
X96035714Y-93975295D02*
X96035714Y-94070533D01*
X96035714Y-94070533D02*
X95988095Y-94213390D01*
X95988095Y-94213390D02*
X95416667Y-94784819D01*
X95416667Y-94784819D02*
X96035714Y-94784819D01*
X139878333Y-108184819D02*
X139545000Y-107708628D01*
X139306905Y-108184819D02*
X139306905Y-107184819D01*
X139306905Y-107184819D02*
X139687857Y-107184819D01*
X139687857Y-107184819D02*
X139783095Y-107232438D01*
X139783095Y-107232438D02*
X139830714Y-107280057D01*
X139830714Y-107280057D02*
X139878333Y-107375295D01*
X139878333Y-107375295D02*
X139878333Y-107518152D01*
X139878333Y-107518152D02*
X139830714Y-107613390D01*
X139830714Y-107613390D02*
X139783095Y-107661009D01*
X139783095Y-107661009D02*
X139687857Y-107708628D01*
X139687857Y-107708628D02*
X139306905Y-107708628D01*
X140830714Y-108184819D02*
X140259286Y-108184819D01*
X140545000Y-108184819D02*
X140545000Y-107184819D01*
X140545000Y-107184819D02*
X140449762Y-107327676D01*
X140449762Y-107327676D02*
X140354524Y-107422914D01*
X140354524Y-107422914D02*
X140259286Y-107470533D01*
X98259580Y-117796666D02*
X98307200Y-117844285D01*
X98307200Y-117844285D02*
X98354819Y-117987142D01*
X98354819Y-117987142D02*
X98354819Y-118082380D01*
X98354819Y-118082380D02*
X98307200Y-118225237D01*
X98307200Y-118225237D02*
X98211961Y-118320475D01*
X98211961Y-118320475D02*
X98116723Y-118368094D01*
X98116723Y-118368094D02*
X97926247Y-118415713D01*
X97926247Y-118415713D02*
X97783390Y-118415713D01*
X97783390Y-118415713D02*
X97592914Y-118368094D01*
X97592914Y-118368094D02*
X97497676Y-118320475D01*
X97497676Y-118320475D02*
X97402438Y-118225237D01*
X97402438Y-118225237D02*
X97354819Y-118082380D01*
X97354819Y-118082380D02*
X97354819Y-117987142D01*
X97354819Y-117987142D02*
X97402438Y-117844285D01*
X97402438Y-117844285D02*
X97450057Y-117796666D01*
X97354819Y-116939523D02*
X97354819Y-117129999D01*
X97354819Y-117129999D02*
X97402438Y-117225237D01*
X97402438Y-117225237D02*
X97450057Y-117272856D01*
X97450057Y-117272856D02*
X97592914Y-117368094D01*
X97592914Y-117368094D02*
X97783390Y-117415713D01*
X97783390Y-117415713D02*
X98164342Y-117415713D01*
X98164342Y-117415713D02*
X98259580Y-117368094D01*
X98259580Y-117368094D02*
X98307200Y-117320475D01*
X98307200Y-117320475D02*
X98354819Y-117225237D01*
X98354819Y-117225237D02*
X98354819Y-117034761D01*
X98354819Y-117034761D02*
X98307200Y-116939523D01*
X98307200Y-116939523D02*
X98259580Y-116891904D01*
X98259580Y-116891904D02*
X98164342Y-116844285D01*
X98164342Y-116844285D02*
X97926247Y-116844285D01*
X97926247Y-116844285D02*
X97831009Y-116891904D01*
X97831009Y-116891904D02*
X97783390Y-116939523D01*
X97783390Y-116939523D02*
X97735771Y-117034761D01*
X97735771Y-117034761D02*
X97735771Y-117225237D01*
X97735771Y-117225237D02*
X97783390Y-117320475D01*
X97783390Y-117320475D02*
X97831009Y-117368094D01*
X97831009Y-117368094D02*
X97926247Y-117415713D01*
X97623333Y-89354819D02*
X97290000Y-88878628D01*
X97051905Y-89354819D02*
X97051905Y-88354819D01*
X97051905Y-88354819D02*
X97432857Y-88354819D01*
X97432857Y-88354819D02*
X97528095Y-88402438D01*
X97528095Y-88402438D02*
X97575714Y-88450057D01*
X97575714Y-88450057D02*
X97623333Y-88545295D01*
X97623333Y-88545295D02*
X97623333Y-88688152D01*
X97623333Y-88688152D02*
X97575714Y-88783390D01*
X97575714Y-88783390D02*
X97528095Y-88831009D01*
X97528095Y-88831009D02*
X97432857Y-88878628D01*
X97432857Y-88878628D02*
X97051905Y-88878628D01*
X98480476Y-88688152D02*
X98480476Y-89354819D01*
X98242381Y-88307200D02*
X98004286Y-89021485D01*
X98004286Y-89021485D02*
X98623333Y-89021485D01*
X86193333Y-91894819D02*
X85860000Y-91418628D01*
X85621905Y-91894819D02*
X85621905Y-90894819D01*
X85621905Y-90894819D02*
X86002857Y-90894819D01*
X86002857Y-90894819D02*
X86098095Y-90942438D01*
X86098095Y-90942438D02*
X86145714Y-90990057D01*
X86145714Y-90990057D02*
X86193333Y-91085295D01*
X86193333Y-91085295D02*
X86193333Y-91228152D01*
X86193333Y-91228152D02*
X86145714Y-91323390D01*
X86145714Y-91323390D02*
X86098095Y-91371009D01*
X86098095Y-91371009D02*
X86002857Y-91418628D01*
X86002857Y-91418628D02*
X85621905Y-91418628D01*
X87098095Y-90894819D02*
X86621905Y-90894819D01*
X86621905Y-90894819D02*
X86574286Y-91371009D01*
X86574286Y-91371009D02*
X86621905Y-91323390D01*
X86621905Y-91323390D02*
X86717143Y-91275771D01*
X86717143Y-91275771D02*
X86955238Y-91275771D01*
X86955238Y-91275771D02*
X87050476Y-91323390D01*
X87050476Y-91323390D02*
X87098095Y-91371009D01*
X87098095Y-91371009D02*
X87145714Y-91466247D01*
X87145714Y-91466247D02*
X87145714Y-91704342D01*
X87145714Y-91704342D02*
X87098095Y-91799580D01*
X87098095Y-91799580D02*
X87050476Y-91847200D01*
X87050476Y-91847200D02*
X86955238Y-91894819D01*
X86955238Y-91894819D02*
X86717143Y-91894819D01*
X86717143Y-91894819D02*
X86621905Y-91847200D01*
X86621905Y-91847200D02*
X86574286Y-91799580D01*
X102917142Y-122374819D02*
X102583809Y-121898628D01*
X102345714Y-122374819D02*
X102345714Y-121374819D01*
X102345714Y-121374819D02*
X102726666Y-121374819D01*
X102726666Y-121374819D02*
X102821904Y-121422438D01*
X102821904Y-121422438D02*
X102869523Y-121470057D01*
X102869523Y-121470057D02*
X102917142Y-121565295D01*
X102917142Y-121565295D02*
X102917142Y-121708152D01*
X102917142Y-121708152D02*
X102869523Y-121803390D01*
X102869523Y-121803390D02*
X102821904Y-121851009D01*
X102821904Y-121851009D02*
X102726666Y-121898628D01*
X102726666Y-121898628D02*
X102345714Y-121898628D01*
X103869523Y-122374819D02*
X103298095Y-122374819D01*
X103583809Y-122374819D02*
X103583809Y-121374819D01*
X103583809Y-121374819D02*
X103488571Y-121517676D01*
X103488571Y-121517676D02*
X103393333Y-121612914D01*
X103393333Y-121612914D02*
X103298095Y-121660533D01*
X104488571Y-121374819D02*
X104583809Y-121374819D01*
X104583809Y-121374819D02*
X104679047Y-121422438D01*
X104679047Y-121422438D02*
X104726666Y-121470057D01*
X104726666Y-121470057D02*
X104774285Y-121565295D01*
X104774285Y-121565295D02*
X104821904Y-121755771D01*
X104821904Y-121755771D02*
X104821904Y-121993866D01*
X104821904Y-121993866D02*
X104774285Y-122184342D01*
X104774285Y-122184342D02*
X104726666Y-122279580D01*
X104726666Y-122279580D02*
X104679047Y-122327200D01*
X104679047Y-122327200D02*
X104583809Y-122374819D01*
X104583809Y-122374819D02*
X104488571Y-122374819D01*
X104488571Y-122374819D02*
X104393333Y-122327200D01*
X104393333Y-122327200D02*
X104345714Y-122279580D01*
X104345714Y-122279580D02*
X104298095Y-122184342D01*
X104298095Y-122184342D02*
X104250476Y-121993866D01*
X104250476Y-121993866D02*
X104250476Y-121755771D01*
X104250476Y-121755771D02*
X104298095Y-121565295D01*
X104298095Y-121565295D02*
X104345714Y-121470057D01*
X104345714Y-121470057D02*
X104393333Y-121422438D01*
X104393333Y-121422438D02*
X104488571Y-121374819D01*
X93233810Y-125434819D02*
X93233810Y-124434819D01*
X94281428Y-125339580D02*
X94233809Y-125387200D01*
X94233809Y-125387200D02*
X94090952Y-125434819D01*
X94090952Y-125434819D02*
X93995714Y-125434819D01*
X93995714Y-125434819D02*
X93852857Y-125387200D01*
X93852857Y-125387200D02*
X93757619Y-125291961D01*
X93757619Y-125291961D02*
X93710000Y-125196723D01*
X93710000Y-125196723D02*
X93662381Y-125006247D01*
X93662381Y-125006247D02*
X93662381Y-124863390D01*
X93662381Y-124863390D02*
X93710000Y-124672914D01*
X93710000Y-124672914D02*
X93757619Y-124577676D01*
X93757619Y-124577676D02*
X93852857Y-124482438D01*
X93852857Y-124482438D02*
X93995714Y-124434819D01*
X93995714Y-124434819D02*
X94090952Y-124434819D01*
X94090952Y-124434819D02*
X94233809Y-124482438D01*
X94233809Y-124482438D02*
X94281428Y-124530057D01*
X95233809Y-125434819D02*
X94662381Y-125434819D01*
X94948095Y-125434819D02*
X94948095Y-124434819D01*
X94948095Y-124434819D02*
X94852857Y-124577676D01*
X94852857Y-124577676D02*
X94757619Y-124672914D01*
X94757619Y-124672914D02*
X94662381Y-124720533D01*
X136398095Y-68364819D02*
X136398095Y-69174342D01*
X136398095Y-69174342D02*
X136445714Y-69269580D01*
X136445714Y-69269580D02*
X136493333Y-69317200D01*
X136493333Y-69317200D02*
X136588571Y-69364819D01*
X136588571Y-69364819D02*
X136779047Y-69364819D01*
X136779047Y-69364819D02*
X136874285Y-69317200D01*
X136874285Y-69317200D02*
X136921904Y-69269580D01*
X136921904Y-69269580D02*
X136969523Y-69174342D01*
X136969523Y-69174342D02*
X136969523Y-68364819D01*
X137921904Y-68364819D02*
X137445714Y-68364819D01*
X137445714Y-68364819D02*
X137398095Y-68841009D01*
X137398095Y-68841009D02*
X137445714Y-68793390D01*
X137445714Y-68793390D02*
X137540952Y-68745771D01*
X137540952Y-68745771D02*
X137779047Y-68745771D01*
X137779047Y-68745771D02*
X137874285Y-68793390D01*
X137874285Y-68793390D02*
X137921904Y-68841009D01*
X137921904Y-68841009D02*
X137969523Y-68936247D01*
X137969523Y-68936247D02*
X137969523Y-69174342D01*
X137969523Y-69174342D02*
X137921904Y-69269580D01*
X137921904Y-69269580D02*
X137874285Y-69317200D01*
X137874285Y-69317200D02*
X137779047Y-69364819D01*
X137779047Y-69364819D02*
X137540952Y-69364819D01*
X137540952Y-69364819D02*
X137445714Y-69317200D01*
X137445714Y-69317200D02*
X137398095Y-69269580D01*
X139878333Y-115804819D02*
X139545000Y-115328628D01*
X139306905Y-115804819D02*
X139306905Y-114804819D01*
X139306905Y-114804819D02*
X139687857Y-114804819D01*
X139687857Y-114804819D02*
X139783095Y-114852438D01*
X139783095Y-114852438D02*
X139830714Y-114900057D01*
X139830714Y-114900057D02*
X139878333Y-114995295D01*
X139878333Y-114995295D02*
X139878333Y-115138152D01*
X139878333Y-115138152D02*
X139830714Y-115233390D01*
X139830714Y-115233390D02*
X139783095Y-115281009D01*
X139783095Y-115281009D02*
X139687857Y-115328628D01*
X139687857Y-115328628D02*
X139306905Y-115328628D01*
X140211667Y-114804819D02*
X140830714Y-114804819D01*
X140830714Y-114804819D02*
X140497381Y-115185771D01*
X140497381Y-115185771D02*
X140640238Y-115185771D01*
X140640238Y-115185771D02*
X140735476Y-115233390D01*
X140735476Y-115233390D02*
X140783095Y-115281009D01*
X140783095Y-115281009D02*
X140830714Y-115376247D01*
X140830714Y-115376247D02*
X140830714Y-115614342D01*
X140830714Y-115614342D02*
X140783095Y-115709580D01*
X140783095Y-115709580D02*
X140735476Y-115757200D01*
X140735476Y-115757200D02*
X140640238Y-115804819D01*
X140640238Y-115804819D02*
X140354524Y-115804819D01*
X140354524Y-115804819D02*
X140259286Y-115757200D01*
X140259286Y-115757200D02*
X140211667Y-115709580D01*
X141148333Y-94434819D02*
X140815000Y-93958628D01*
X140576905Y-94434819D02*
X140576905Y-93434819D01*
X140576905Y-93434819D02*
X140957857Y-93434819D01*
X140957857Y-93434819D02*
X141053095Y-93482438D01*
X141053095Y-93482438D02*
X141100714Y-93530057D01*
X141100714Y-93530057D02*
X141148333Y-93625295D01*
X141148333Y-93625295D02*
X141148333Y-93768152D01*
X141148333Y-93768152D02*
X141100714Y-93863390D01*
X141100714Y-93863390D02*
X141053095Y-93911009D01*
X141053095Y-93911009D02*
X140957857Y-93958628D01*
X140957857Y-93958628D02*
X140576905Y-93958628D01*
X141481667Y-93434819D02*
X142148333Y-93434819D01*
X142148333Y-93434819D02*
X141719762Y-94434819D01*
X142709580Y-117006666D02*
X142757200Y-117054285D01*
X142757200Y-117054285D02*
X142804819Y-117197142D01*
X142804819Y-117197142D02*
X142804819Y-117292380D01*
X142804819Y-117292380D02*
X142757200Y-117435237D01*
X142757200Y-117435237D02*
X142661961Y-117530475D01*
X142661961Y-117530475D02*
X142566723Y-117578094D01*
X142566723Y-117578094D02*
X142376247Y-117625713D01*
X142376247Y-117625713D02*
X142233390Y-117625713D01*
X142233390Y-117625713D02*
X142042914Y-117578094D01*
X142042914Y-117578094D02*
X141947676Y-117530475D01*
X141947676Y-117530475D02*
X141852438Y-117435237D01*
X141852438Y-117435237D02*
X141804819Y-117292380D01*
X141804819Y-117292380D02*
X141804819Y-117197142D01*
X141804819Y-117197142D02*
X141852438Y-117054285D01*
X141852438Y-117054285D02*
X141900057Y-117006666D01*
X142804819Y-116054285D02*
X142804819Y-116625713D01*
X142804819Y-116339999D02*
X141804819Y-116339999D01*
X141804819Y-116339999D02*
X141947676Y-116435237D01*
X141947676Y-116435237D02*
X142042914Y-116530475D01*
X142042914Y-116530475D02*
X142090533Y-116625713D01*
X84792142Y-122594819D02*
X84458809Y-122118628D01*
X84220714Y-122594819D02*
X84220714Y-121594819D01*
X84220714Y-121594819D02*
X84601666Y-121594819D01*
X84601666Y-121594819D02*
X84696904Y-121642438D01*
X84696904Y-121642438D02*
X84744523Y-121690057D01*
X84744523Y-121690057D02*
X84792142Y-121785295D01*
X84792142Y-121785295D02*
X84792142Y-121928152D01*
X84792142Y-121928152D02*
X84744523Y-122023390D01*
X84744523Y-122023390D02*
X84696904Y-122071009D01*
X84696904Y-122071009D02*
X84601666Y-122118628D01*
X84601666Y-122118628D02*
X84220714Y-122118628D01*
X85744523Y-122594819D02*
X85173095Y-122594819D01*
X85458809Y-122594819D02*
X85458809Y-121594819D01*
X85458809Y-121594819D02*
X85363571Y-121737676D01*
X85363571Y-121737676D02*
X85268333Y-121832914D01*
X85268333Y-121832914D02*
X85173095Y-121880533D01*
X86125476Y-121690057D02*
X86173095Y-121642438D01*
X86173095Y-121642438D02*
X86268333Y-121594819D01*
X86268333Y-121594819D02*
X86506428Y-121594819D01*
X86506428Y-121594819D02*
X86601666Y-121642438D01*
X86601666Y-121642438D02*
X86649285Y-121690057D01*
X86649285Y-121690057D02*
X86696904Y-121785295D01*
X86696904Y-121785295D02*
X86696904Y-121880533D01*
X86696904Y-121880533D02*
X86649285Y-122023390D01*
X86649285Y-122023390D02*
X86077857Y-122594819D01*
X86077857Y-122594819D02*
X86696904Y-122594819D01*
X100219819Y-70492857D02*
X99743628Y-70826190D01*
X100219819Y-71064285D02*
X99219819Y-71064285D01*
X99219819Y-71064285D02*
X99219819Y-70683333D01*
X99219819Y-70683333D02*
X99267438Y-70588095D01*
X99267438Y-70588095D02*
X99315057Y-70540476D01*
X99315057Y-70540476D02*
X99410295Y-70492857D01*
X99410295Y-70492857D02*
X99553152Y-70492857D01*
X99553152Y-70492857D02*
X99648390Y-70540476D01*
X99648390Y-70540476D02*
X99696009Y-70588095D01*
X99696009Y-70588095D02*
X99743628Y-70683333D01*
X99743628Y-70683333D02*
X99743628Y-71064285D01*
X100219819Y-69540476D02*
X100219819Y-70111904D01*
X100219819Y-69826190D02*
X99219819Y-69826190D01*
X99219819Y-69826190D02*
X99362676Y-69921428D01*
X99362676Y-69921428D02*
X99457914Y-70016666D01*
X99457914Y-70016666D02*
X99505533Y-70111904D01*
X99553152Y-68683333D02*
X100219819Y-68683333D01*
X99172200Y-68921428D02*
X99886485Y-69159523D01*
X99886485Y-69159523D02*
X99886485Y-68540476D01*
D11*
%TO.C,SW1*%
X87940000Y-74180000D02*
X87940000Y-75680000D01*
X89190000Y-78180000D02*
X93690000Y-78180000D01*
X93690000Y-71680000D02*
X89190000Y-71680000D01*
X94940000Y-75680000D02*
X94940000Y-74180000D01*
%TO.C,BT1*%
X141550000Y-161150000D02*
X87050000Y-161150000D01*
X141550000Y-130950000D02*
X141550000Y-161150000D01*
X87050000Y-161150000D02*
X87050000Y-130950000D01*
X87050000Y-130950000D02*
X141550000Y-130950000D01*
%TO.C,U3*%
X131967500Y-113490000D02*
X133967500Y-113490000D01*
X132967500Y-111270000D02*
X133967500Y-111270000D01*
%TO.C,U1*%
X104082500Y-58945000D02*
X104082500Y-65360000D01*
X104082500Y-58945000D02*
X122322500Y-58945000D01*
X104082500Y-65360000D02*
X103702500Y-65360000D01*
X104082500Y-83905000D02*
X104082500Y-84685000D01*
X104082500Y-84685000D02*
X105082500Y-84685000D01*
X122322500Y-58945000D02*
X122322500Y-65360000D01*
X122322500Y-83905000D02*
X122322500Y-84685000D01*
X122322500Y-84685000D02*
X121322500Y-84685000D01*
%TO.C,U4*%
X91440000Y-88520000D02*
X93080000Y-88520000D01*
X93100000Y-94340000D02*
X89790000Y-94340000D01*
%TO.C,C7*%
X99420000Y-123872164D02*
X99420000Y-124087836D01*
X98700000Y-123872164D02*
X98700000Y-124087836D01*
%TO.C,C3*%
X98150000Y-92162164D02*
X98150000Y-92377836D01*
X97430000Y-92162164D02*
X97430000Y-92377836D01*
%TO.C,C5*%
X132440000Y-96892164D02*
X132440000Y-97107836D01*
X131720000Y-96892164D02*
X131720000Y-97107836D01*
%TO.C,C4*%
X134980000Y-97202164D02*
X134980000Y-97417836D01*
X134260000Y-97202164D02*
X134260000Y-97417836D01*
%TO.C,C8*%
X98377836Y-72750000D02*
X98162164Y-72750000D01*
X98377836Y-72030000D02*
X98162164Y-72030000D01*
D12*
%TO.C,U2*%
X134957500Y-88670000D02*
X134902500Y-88670000D01*
X134957500Y-88670000D02*
X134957500Y-89225000D01*
X132512500Y-88670000D02*
X132457500Y-88670000D01*
X132457500Y-88670000D02*
X132457500Y-89225000D01*
X134957500Y-91115000D02*
X134957500Y-91670000D01*
X132457500Y-91115000D02*
X132457500Y-91670000D01*
X134957500Y-91670000D02*
X134902500Y-91670000D01*
X132512500Y-91670000D02*
X132457500Y-91670000D01*
D10*
X134682500Y-88170000D02*
G75*
G03*
X134682500Y-88170000I-75000J0D01*
G01*
D11*
%TO.C,C2*%
X95610000Y-92162164D02*
X95610000Y-92377836D01*
X94890000Y-92162164D02*
X94890000Y-92377836D01*
%TO.C,C6*%
X98700000Y-117737836D02*
X98700000Y-117522164D01*
X99420000Y-117737836D02*
X99420000Y-117522164D01*
%TO.C,U5*%
X131510000Y-69900000D02*
X132200000Y-69900000D01*
X132200000Y-69750000D02*
X132200000Y-69900000D01*
X132200000Y-69750000D02*
X142120000Y-69750000D01*
X132200000Y-79920000D02*
X132200000Y-80070000D01*
X132200000Y-80070000D02*
X142120000Y-80070000D01*
X142120000Y-69750000D02*
X142120000Y-69900000D01*
X142120000Y-79920000D02*
X142120000Y-80070000D01*
%TO.C,C1*%
X143150000Y-116947836D02*
X143150000Y-116732164D01*
X143870000Y-116947836D02*
X143870000Y-116732164D01*
%TD*%
M02*
