M48
; DRILL file {KiCad 7.0.9} date Mon 04 Dec 2023 05:32:14 PM -03
; FORMAT={-:-/ absolute / metric / decimal}
; #@! TF.CreationDate,2023-12-04T17:32:14-03:00
; #@! TF.GenerationSoftware,Kicad,Pcbnew,7.0.9
; #@! TF.FileFunction,Plated,1,4,PTH
FMAT,2
METRIC
; #@! TA.AperFunction,Plated,PTH,ComponentDrill
T1C0.200
; #@! TA.AperFunction,Plated,PTH,ViaDrill
T2C0.400
; #@! TA.AperFunction,Plated,PTH,ComponentDrill
T3C1.100
; #@! TA.AperFunction,Plated,PTH,ComponentDrill
T4C2.400
%
G90
G05
T1
X110.997Y-73.132
X110.997Y-74.657
X111.76Y-72.37
X111.76Y-73.895
X111.76Y-75.42
X112.522Y-73.132
X112.522Y-74.657
X113.285Y-72.37
X113.285Y-73.895
X113.285Y-75.42
X114.047Y-73.132
X114.047Y-74.657
T2
X83.82Y-152.4
X88.9Y-69.85
X88.9Y-91.79
X88.9Y-120.65
X88.9Y-123.19
X93.98Y-90.52
X93.98Y-92.164
X99.06Y-93.06
X99.06Y-115.57
X99.06Y-125.73
X104.14Y-90.17
X106.68Y-90.17
X111.76Y-69.85
X130.81Y-111.76
X130.81Y-113.03
X132.08Y-100.33
X133.42Y-90.253
X134.62Y-113.105
X135.89Y-111.655
X139.7Y-91.44
X139.7Y-95.25
X143.03Y-118.11
X143.51Y-78.74
T3
X88.19Y-72.68
X88.19Y-77.18
X94.69Y-72.68
X94.69Y-77.18
T4
X90.15Y-139.7
X90.15Y-152.4
T0
M30
