%TF.GenerationSoftware,KiCad,Pcbnew,7.0.9*%
%TF.CreationDate,2023-12-03T00:18:19-03:00*%
%TF.ProjectId,E3,45332e6b-6963-4616-945f-706362585858,rev?*%
%TF.SameCoordinates,Original*%
%TF.FileFunction,Copper,L3,Inr*%
%TF.FilePolarity,Positive*%
%FSLAX46Y46*%
G04 Gerber Fmt 4.6, Leading zero omitted, Abs format (unit mm)*
G04 Created by KiCad (PCBNEW 7.0.9) date 2023-12-03 00:18:19*
%MOMM*%
%LPD*%
G01*
G04 APERTURE LIST*
%TA.AperFunction,ComponentPad*%
%ADD10C,1.400000*%
%TD*%
%TA.AperFunction,ComponentPad*%
%ADD11R,1.500000X1.500000*%
%TD*%
%TA.AperFunction,ComponentPad*%
%ADD12C,1.500000*%
%TD*%
%TA.AperFunction,ComponentPad*%
%ADD13O,2.000000X3.000000*%
%TD*%
%TA.AperFunction,ComponentPad*%
%ADD14R,3.000000X2.000000*%
%TD*%
%TA.AperFunction,ComponentPad*%
%ADD15O,3.000000X2.000000*%
%TD*%
%TA.AperFunction,ComponentPad*%
%ADD16R,1.350000X1.350000*%
%TD*%
%TA.AperFunction,ComponentPad*%
%ADD17O,1.350000X1.350000*%
%TD*%
%TA.AperFunction,Conductor*%
%ADD18C,0.800000*%
%TD*%
G04 APERTURE END LIST*
D10*
%TO.N,N/C*%
%TO.C,REF\u002A\u002A*%
X157480000Y-45720000D03*
%TD*%
%TO.N,N/C*%
%TO.C,REF\u002A\u002A*%
X83820000Y-43180000D03*
%TD*%
D11*
%TO.N,Net-(BT1-+)*%
%TO.C,U3*%
X165100000Y-71120000D03*
D12*
%TO.N,Net-(U1-PB1)*%
X165100000Y-73660000D03*
%TO.N,unconnected-(U3-NC-Pad3)*%
X165100000Y-76200000D03*
%TO.N,Earth*%
X165100000Y-78740000D03*
%TD*%
D11*
%TO.N,Net-(BT1-+)*%
%TO.C,U2*%
X139700000Y-91440000D03*
D12*
%TO.N,Net-(U1-PB0)*%
X142240000Y-91440000D03*
%TO.N,unconnected-(U2-NC-Pad3)*%
X144780000Y-91440000D03*
%TO.N,Earth*%
X147320000Y-91440000D03*
%TD*%
D13*
%TO.N,Net-(H4-Pad1)*%
%TO.C,K3*%
X112290000Y-92650000D03*
X112290000Y-85150000D03*
%TO.N,Net-(K3-Pad12)*%
X107250000Y-92650000D03*
X107250000Y-85150000D03*
%TO.N,Net-(H3-Pad1)*%
X117330000Y-92650000D03*
X117330000Y-85150000D03*
D14*
%TO.N,Net-(U1-PC5)*%
X91990000Y-92650000D03*
D15*
%TO.N,Net-(BT1--)*%
X91990000Y-85150000D03*
%TD*%
D13*
%TO.N,Net-(H2-Pad1)*%
%TO.C,K2*%
X112290000Y-72330000D03*
X112290000Y-64830000D03*
%TO.N,Net-(K2-Pad12)*%
X107250000Y-72330000D03*
X107250000Y-64830000D03*
%TO.N,Net-(H1-Pad1)*%
X117330000Y-72330000D03*
X117330000Y-64830000D03*
D14*
%TO.N,Net-(U1-PC3)*%
X91990000Y-72330000D03*
D15*
%TO.N,Net-(BT1--)*%
X91990000Y-64830000D03*
%TD*%
D13*
%TO.N,Net-(H6-Pad1)*%
%TO.C,K1*%
X112290000Y-52010000D03*
X112290000Y-44510000D03*
%TO.N,Net-(K1-Pad12)*%
X107250000Y-52010000D03*
X107250000Y-44510000D03*
%TO.N,Net-(H5-Pad1)*%
X117330000Y-52010000D03*
X117330000Y-44510000D03*
D14*
%TO.N,Net-(U1-PC4)*%
X91990000Y-52010000D03*
D15*
%TO.N,Net-(BT1--)*%
X91990000Y-44510000D03*
%TD*%
D16*
%TO.N,Earth*%
%TO.C,J5*%
X152400000Y-71120000D03*
D17*
%TO.N,Net-(BT1-+)*%
X152400000Y-69120000D03*
%TD*%
D16*
%TO.N,Net-(BT1-+)*%
%TO.C,J2*%
X165100000Y-87440000D03*
D17*
%TO.N,Earth*%
X165100000Y-89440000D03*
%TO.N,Net-(J2-Pin_3)*%
X165100000Y-91440000D03*
%TO.N,unconnected-(J2-Pin_4-Pad4)*%
X165100000Y-93440000D03*
%TD*%
D18*
%TO.N,Earth*%
X149860000Y-71120000D02*
X144780000Y-76200000D01*
X152400000Y-71120000D02*
X149860000Y-71120000D01*
X160020000Y-78740000D02*
X152400000Y-71120000D01*
X165100000Y-78740000D02*
X160020000Y-78740000D01*
X163825000Y-88715000D02*
X163825000Y-80015000D01*
X164550000Y-89440000D02*
X163825000Y-88715000D01*
X165100000Y-89440000D02*
X164550000Y-89440000D01*
X163825000Y-80015000D02*
X165100000Y-78740000D01*
X163100000Y-91440000D02*
X165100000Y-89440000D01*
X147320000Y-91440000D02*
X163100000Y-91440000D01*
%TO.N,Net-(K3-Pad12)*%
X121920000Y-98924163D02*
X130742082Y-90102081D01*
X121920000Y-99060000D02*
X121920000Y-98924163D01*
X107250000Y-94550000D02*
X111760000Y-99060000D01*
X107250000Y-92650000D02*
X107250000Y-94550000D01*
X111760000Y-99060000D02*
X121920000Y-99060000D01*
%TO.N,Net-(K2-Pad12)*%
X121920000Y-76200000D02*
X128337919Y-69782081D01*
X109220000Y-76200000D02*
X121920000Y-76200000D01*
X107250000Y-74230000D02*
X109220000Y-76200000D01*
X107250000Y-72330000D02*
X107250000Y-74230000D01*
%TO.N,Net-(K1-Pad12)*%
X124460000Y-55744163D02*
X130742082Y-49462081D01*
X124460000Y-55880000D02*
X124460000Y-55744163D01*
X109220000Y-55880000D02*
X124460000Y-55880000D01*
X107250000Y-53910000D02*
X109220000Y-55880000D01*
X107250000Y-52010000D02*
X107250000Y-53910000D01*
%TO.N,Net-(BT1--)*%
X89890000Y-66930000D02*
X91990000Y-64830000D01*
X89890000Y-83050000D02*
X89890000Y-66930000D01*
X91990000Y-85150000D02*
X89890000Y-83050000D01*
X89890000Y-62730000D02*
X89890000Y-46610000D01*
X91990000Y-64830000D02*
X89890000Y-62730000D01*
X89890000Y-46610000D02*
X91990000Y-44510000D01*
X85150000Y-44510000D02*
X84739239Y-44099239D01*
X91990000Y-44510000D02*
X85150000Y-44510000D01*
%TD*%
M02*
