M48
; DRILL file {KiCad 7.0.9} date Sun Dec  3 00:18:10 2023
; FORMAT={-:-/ absolute / inch / decimal}
; #@! TF.CreationDate,2023-12-03T00:18:10-03:00
; #@! TF.GenerationSoftware,Kicad,Pcbnew,7.0.9
; #@! TF.FileFunction,Plated,1,4,PTH
FMAT,2
INCH
; #@! TA.AperFunction,Plated,PTH,ComponentDrill
T1C0.0276
; #@! TA.AperFunction,Plated,PTH,ComponentDrill
T2C0.0315
; #@! TA.AperFunction,Plated,PTH,ComponentDrill
T3C0.0512
%
G90
G05
T1
X3.3Y-1.7
X6.2Y-1.8
T2
X5.5Y-3.6
X5.6Y-3.6
X5.7Y-3.6
X5.8Y-3.6
X6.0Y-2.7213
X6.0Y-2.8
X6.5Y-2.8
X6.5Y-2.9
X6.5Y-3.0
X6.5Y-3.1
X6.5Y-3.4425
X6.5Y-3.5213
X6.5Y-3.6
X6.5Y-3.6787
T3
X3.6217Y-1.7524
X3.6217Y-2.0476
X3.6217Y-2.5524
X3.6217Y-2.8476
X3.6217Y-3.3524
X3.6217Y-3.6476
X4.2224Y-1.7524
X4.2224Y-2.0476
X4.2224Y-2.5524
X4.2224Y-2.8476
X4.2224Y-3.3524
X4.2224Y-3.6476
X4.4209Y-1.7524
X4.4209Y-2.0476
X4.4209Y-2.5524
X4.4209Y-2.8476
X4.4209Y-3.3524
X4.4209Y-3.6476
X4.6193Y-1.7524
X4.6193Y-2.0476
X4.6193Y-2.5524
X4.6193Y-2.8476
X4.6193Y-3.3524
X4.6193Y-3.6476
T0
M30
