%TF.GenerationSoftware,KiCad,Pcbnew,7.0.9*%
%TF.CreationDate,2023-12-04T00:09:17-03:00*%
%TF.ProjectId,regador,72656761-646f-4722-9e6b-696361645f70,1.0*%
%TF.SameCoordinates,Original*%
%TF.FileFunction,Legend,Top*%
%TF.FilePolarity,Positive*%
%FSLAX46Y46*%
G04 Gerber Fmt 4.6, Leading zero omitted, Abs format (unit mm)*
G04 Created by KiCad (PCBNEW 7.0.9) date 2023-12-04 00:09:17*
%MOMM*%
%LPD*%
G01*
G04 APERTURE LIST*
%ADD10C,0.150000*%
%ADD11C,0.152400*%
%ADD12C,0.120000*%
G04 APERTURE END LIST*
D10*
X132498571Y-83509869D02*
X132498571Y-82509869D01*
X132498571Y-82509869D02*
X132831904Y-83224154D01*
X132831904Y-83224154D02*
X133165237Y-82509869D01*
X133165237Y-82509869D02*
X133165237Y-83509869D01*
X133831904Y-82509869D02*
X134022380Y-82509869D01*
X134022380Y-82509869D02*
X134117618Y-82557488D01*
X134117618Y-82557488D02*
X134212856Y-82652726D01*
X134212856Y-82652726D02*
X134260475Y-82843202D01*
X134260475Y-82843202D02*
X134260475Y-83176535D01*
X134260475Y-83176535D02*
X134212856Y-83367011D01*
X134212856Y-83367011D02*
X134117618Y-83462250D01*
X134117618Y-83462250D02*
X134022380Y-83509869D01*
X134022380Y-83509869D02*
X133831904Y-83509869D01*
X133831904Y-83509869D02*
X133736666Y-83462250D01*
X133736666Y-83462250D02*
X133641428Y-83367011D01*
X133641428Y-83367011D02*
X133593809Y-83176535D01*
X133593809Y-83176535D02*
X133593809Y-82843202D01*
X133593809Y-82843202D02*
X133641428Y-82652726D01*
X133641428Y-82652726D02*
X133736666Y-82557488D01*
X133736666Y-82557488D02*
X133831904Y-82509869D01*
X134641428Y-83462250D02*
X134784285Y-83509869D01*
X134784285Y-83509869D02*
X135022380Y-83509869D01*
X135022380Y-83509869D02*
X135117618Y-83462250D01*
X135117618Y-83462250D02*
X135165237Y-83414630D01*
X135165237Y-83414630D02*
X135212856Y-83319392D01*
X135212856Y-83319392D02*
X135212856Y-83224154D01*
X135212856Y-83224154D02*
X135165237Y-83128916D01*
X135165237Y-83128916D02*
X135117618Y-83081297D01*
X135117618Y-83081297D02*
X135022380Y-83033678D01*
X135022380Y-83033678D02*
X134831904Y-82986059D01*
X134831904Y-82986059D02*
X134736666Y-82938440D01*
X134736666Y-82938440D02*
X134689047Y-82890821D01*
X134689047Y-82890821D02*
X134641428Y-82795583D01*
X134641428Y-82795583D02*
X134641428Y-82700345D01*
X134641428Y-82700345D02*
X134689047Y-82605107D01*
X134689047Y-82605107D02*
X134736666Y-82557488D01*
X134736666Y-82557488D02*
X134831904Y-82509869D01*
X134831904Y-82509869D02*
X135069999Y-82509869D01*
X135069999Y-82509869D02*
X135212856Y-82557488D01*
X135974761Y-82986059D02*
X135641428Y-82986059D01*
X135641428Y-83509869D02*
X135641428Y-82509869D01*
X135641428Y-82509869D02*
X136117618Y-82509869D01*
X136498571Y-82986059D02*
X136831904Y-82986059D01*
X136974761Y-83509869D02*
X136498571Y-83509869D01*
X136498571Y-83509869D02*
X136498571Y-82509869D01*
X136498571Y-82509869D02*
X136974761Y-82509869D01*
X137260476Y-82509869D02*
X137831904Y-82509869D01*
X137546190Y-83509869D02*
X137546190Y-82509869D01*
X138689047Y-83509869D02*
X138117619Y-83509869D01*
X138403333Y-83509869D02*
X138403333Y-82509869D01*
X138403333Y-82509869D02*
X138308095Y-82652726D01*
X138308095Y-82652726D02*
X138212857Y-82747964D01*
X138212857Y-82747964D02*
X138117619Y-82795583D01*
X116339580Y-112876666D02*
X116387200Y-112924285D01*
X116387200Y-112924285D02*
X116434819Y-113067142D01*
X116434819Y-113067142D02*
X116434819Y-113162380D01*
X116434819Y-113162380D02*
X116387200Y-113305237D01*
X116387200Y-113305237D02*
X116291961Y-113400475D01*
X116291961Y-113400475D02*
X116196723Y-113448094D01*
X116196723Y-113448094D02*
X116006247Y-113495713D01*
X116006247Y-113495713D02*
X115863390Y-113495713D01*
X115863390Y-113495713D02*
X115672914Y-113448094D01*
X115672914Y-113448094D02*
X115577676Y-113400475D01*
X115577676Y-113400475D02*
X115482438Y-113305237D01*
X115482438Y-113305237D02*
X115434819Y-113162380D01*
X115434819Y-113162380D02*
X115434819Y-113067142D01*
X115434819Y-113067142D02*
X115482438Y-112924285D01*
X115482438Y-112924285D02*
X115530057Y-112876666D01*
X115434819Y-112543332D02*
X115434819Y-111924285D01*
X115434819Y-111924285D02*
X115815771Y-112257618D01*
X115815771Y-112257618D02*
X115815771Y-112114761D01*
X115815771Y-112114761D02*
X115863390Y-112019523D01*
X115863390Y-112019523D02*
X115911009Y-111971904D01*
X115911009Y-111971904D02*
X116006247Y-111924285D01*
X116006247Y-111924285D02*
X116244342Y-111924285D01*
X116244342Y-111924285D02*
X116339580Y-111971904D01*
X116339580Y-111971904D02*
X116387200Y-112019523D01*
X116387200Y-112019523D02*
X116434819Y-112114761D01*
X116434819Y-112114761D02*
X116434819Y-112400475D01*
X116434819Y-112400475D02*
X116387200Y-112495713D01*
X116387200Y-112495713D02*
X116339580Y-112543332D01*
X129039580Y-119546666D02*
X129087200Y-119594285D01*
X129087200Y-119594285D02*
X129134819Y-119737142D01*
X129134819Y-119737142D02*
X129134819Y-119832380D01*
X129134819Y-119832380D02*
X129087200Y-119975237D01*
X129087200Y-119975237D02*
X128991961Y-120070475D01*
X128991961Y-120070475D02*
X128896723Y-120118094D01*
X128896723Y-120118094D02*
X128706247Y-120165713D01*
X128706247Y-120165713D02*
X128563390Y-120165713D01*
X128563390Y-120165713D02*
X128372914Y-120118094D01*
X128372914Y-120118094D02*
X128277676Y-120070475D01*
X128277676Y-120070475D02*
X128182438Y-119975237D01*
X128182438Y-119975237D02*
X128134819Y-119832380D01*
X128134819Y-119832380D02*
X128134819Y-119737142D01*
X128134819Y-119737142D02*
X128182438Y-119594285D01*
X128182438Y-119594285D02*
X128230057Y-119546666D01*
X129134819Y-118594285D02*
X129134819Y-119165713D01*
X129134819Y-118879999D02*
X128134819Y-118879999D01*
X128134819Y-118879999D02*
X128277676Y-118975237D01*
X128277676Y-118975237D02*
X128372914Y-119070475D01*
X128372914Y-119070475D02*
X128420533Y-119165713D01*
X117028095Y-99529869D02*
X117028095Y-100339392D01*
X117028095Y-100339392D02*
X117075714Y-100434630D01*
X117075714Y-100434630D02*
X117123333Y-100482250D01*
X117123333Y-100482250D02*
X117218571Y-100529869D01*
X117218571Y-100529869D02*
X117409047Y-100529869D01*
X117409047Y-100529869D02*
X117504285Y-100482250D01*
X117504285Y-100482250D02*
X117551904Y-100434630D01*
X117551904Y-100434630D02*
X117599523Y-100339392D01*
X117599523Y-100339392D02*
X117599523Y-99529869D01*
X118599523Y-100529869D02*
X118028095Y-100529869D01*
X118313809Y-100529869D02*
X118313809Y-99529869D01*
X118313809Y-99529869D02*
X118218571Y-99672726D01*
X118218571Y-99672726D02*
X118123333Y-99767964D01*
X118123333Y-99767964D02*
X118028095Y-99815583D01*
X132863333Y-98309869D02*
X132530000Y-97833678D01*
X132291905Y-98309869D02*
X132291905Y-97309869D01*
X132291905Y-97309869D02*
X132672857Y-97309869D01*
X132672857Y-97309869D02*
X132768095Y-97357488D01*
X132768095Y-97357488D02*
X132815714Y-97405107D01*
X132815714Y-97405107D02*
X132863333Y-97500345D01*
X132863333Y-97500345D02*
X132863333Y-97643202D01*
X132863333Y-97643202D02*
X132815714Y-97738440D01*
X132815714Y-97738440D02*
X132768095Y-97786059D01*
X132768095Y-97786059D02*
X132672857Y-97833678D01*
X132672857Y-97833678D02*
X132291905Y-97833678D01*
X133768095Y-97309869D02*
X133291905Y-97309869D01*
X133291905Y-97309869D02*
X133244286Y-97786059D01*
X133244286Y-97786059D02*
X133291905Y-97738440D01*
X133291905Y-97738440D02*
X133387143Y-97690821D01*
X133387143Y-97690821D02*
X133625238Y-97690821D01*
X133625238Y-97690821D02*
X133720476Y-97738440D01*
X133720476Y-97738440D02*
X133768095Y-97786059D01*
X133768095Y-97786059D02*
X133815714Y-97881297D01*
X133815714Y-97881297D02*
X133815714Y-98119392D01*
X133815714Y-98119392D02*
X133768095Y-98214630D01*
X133768095Y-98214630D02*
X133720476Y-98262250D01*
X133720476Y-98262250D02*
X133625238Y-98309869D01*
X133625238Y-98309869D02*
X133387143Y-98309869D01*
X133387143Y-98309869D02*
X133291905Y-98262250D01*
X133291905Y-98262250D02*
X133244286Y-98214630D01*
X121204819Y-91673044D02*
X120204819Y-91673044D01*
X120204819Y-91673044D02*
X120204819Y-91434949D01*
X120204819Y-91434949D02*
X120252438Y-91292092D01*
X120252438Y-91292092D02*
X120347676Y-91196854D01*
X120347676Y-91196854D02*
X120442914Y-91149235D01*
X120442914Y-91149235D02*
X120633390Y-91101616D01*
X120633390Y-91101616D02*
X120776247Y-91101616D01*
X120776247Y-91101616D02*
X120966723Y-91149235D01*
X120966723Y-91149235D02*
X121061961Y-91196854D01*
X121061961Y-91196854D02*
X121157200Y-91292092D01*
X121157200Y-91292092D02*
X121204819Y-91434949D01*
X121204819Y-91434949D02*
X121204819Y-91673044D01*
X120300057Y-90720663D02*
X120252438Y-90673044D01*
X120252438Y-90673044D02*
X120204819Y-90577806D01*
X120204819Y-90577806D02*
X120204819Y-90339711D01*
X120204819Y-90339711D02*
X120252438Y-90244473D01*
X120252438Y-90244473D02*
X120300057Y-90196854D01*
X120300057Y-90196854D02*
X120395295Y-90149235D01*
X120395295Y-90149235D02*
X120490533Y-90149235D01*
X120490533Y-90149235D02*
X120633390Y-90196854D01*
X120633390Y-90196854D02*
X121204819Y-90768282D01*
X121204819Y-90768282D02*
X121204819Y-90149235D01*
X122884819Y-84751616D02*
X122408628Y-85084949D01*
X122884819Y-85323044D02*
X121884819Y-85323044D01*
X121884819Y-85323044D02*
X121884819Y-84942092D01*
X121884819Y-84942092D02*
X121932438Y-84846854D01*
X121932438Y-84846854D02*
X121980057Y-84799235D01*
X121980057Y-84799235D02*
X122075295Y-84751616D01*
X122075295Y-84751616D02*
X122218152Y-84751616D01*
X122218152Y-84751616D02*
X122313390Y-84799235D01*
X122313390Y-84799235D02*
X122361009Y-84846854D01*
X122361009Y-84846854D02*
X122408628Y-84942092D01*
X122408628Y-84942092D02*
X122408628Y-85323044D01*
X122884819Y-83799235D02*
X122884819Y-84370663D01*
X122884819Y-84084949D02*
X121884819Y-84084949D01*
X121884819Y-84084949D02*
X122027676Y-84180187D01*
X122027676Y-84180187D02*
X122122914Y-84275425D01*
X122122914Y-84275425D02*
X122170533Y-84370663D01*
X113584819Y-91673044D02*
X112584819Y-91673044D01*
X112584819Y-91673044D02*
X112584819Y-91434949D01*
X112584819Y-91434949D02*
X112632438Y-91292092D01*
X112632438Y-91292092D02*
X112727676Y-91196854D01*
X112727676Y-91196854D02*
X112822914Y-91149235D01*
X112822914Y-91149235D02*
X113013390Y-91101616D01*
X113013390Y-91101616D02*
X113156247Y-91101616D01*
X113156247Y-91101616D02*
X113346723Y-91149235D01*
X113346723Y-91149235D02*
X113441961Y-91196854D01*
X113441961Y-91196854D02*
X113537200Y-91292092D01*
X113537200Y-91292092D02*
X113584819Y-91434949D01*
X113584819Y-91434949D02*
X113584819Y-91673044D01*
X112584819Y-90768282D02*
X112584819Y-90149235D01*
X112584819Y-90149235D02*
X112965771Y-90482568D01*
X112965771Y-90482568D02*
X112965771Y-90339711D01*
X112965771Y-90339711D02*
X113013390Y-90244473D01*
X113013390Y-90244473D02*
X113061009Y-90196854D01*
X113061009Y-90196854D02*
X113156247Y-90149235D01*
X113156247Y-90149235D02*
X113394342Y-90149235D01*
X113394342Y-90149235D02*
X113489580Y-90196854D01*
X113489580Y-90196854D02*
X113537200Y-90244473D01*
X113537200Y-90244473D02*
X113584819Y-90339711D01*
X113584819Y-90339711D02*
X113584819Y-90625425D01*
X113584819Y-90625425D02*
X113537200Y-90720663D01*
X113537200Y-90720663D02*
X113489580Y-90768282D01*
X107644819Y-84751616D02*
X107168628Y-85084949D01*
X107644819Y-85323044D02*
X106644819Y-85323044D01*
X106644819Y-85323044D02*
X106644819Y-84942092D01*
X106644819Y-84942092D02*
X106692438Y-84846854D01*
X106692438Y-84846854D02*
X106740057Y-84799235D01*
X106740057Y-84799235D02*
X106835295Y-84751616D01*
X106835295Y-84751616D02*
X106978152Y-84751616D01*
X106978152Y-84751616D02*
X107073390Y-84799235D01*
X107073390Y-84799235D02*
X107121009Y-84846854D01*
X107121009Y-84846854D02*
X107168628Y-84942092D01*
X107168628Y-84942092D02*
X107168628Y-85323044D01*
X106644819Y-84418282D02*
X106644819Y-83799235D01*
X106644819Y-83799235D02*
X107025771Y-84132568D01*
X107025771Y-84132568D02*
X107025771Y-83989711D01*
X107025771Y-83989711D02*
X107073390Y-83894473D01*
X107073390Y-83894473D02*
X107121009Y-83846854D01*
X107121009Y-83846854D02*
X107216247Y-83799235D01*
X107216247Y-83799235D02*
X107454342Y-83799235D01*
X107454342Y-83799235D02*
X107549580Y-83846854D01*
X107549580Y-83846854D02*
X107597200Y-83894473D01*
X107597200Y-83894473D02*
X107644819Y-83989711D01*
X107644819Y-83989711D02*
X107644819Y-84275425D01*
X107644819Y-84275425D02*
X107597200Y-84370663D01*
X107597200Y-84370663D02*
X107549580Y-84418282D01*
X128824819Y-91673044D02*
X127824819Y-91673044D01*
X127824819Y-91673044D02*
X127824819Y-91434949D01*
X127824819Y-91434949D02*
X127872438Y-91292092D01*
X127872438Y-91292092D02*
X127967676Y-91196854D01*
X127967676Y-91196854D02*
X128062914Y-91149235D01*
X128062914Y-91149235D02*
X128253390Y-91101616D01*
X128253390Y-91101616D02*
X128396247Y-91101616D01*
X128396247Y-91101616D02*
X128586723Y-91149235D01*
X128586723Y-91149235D02*
X128681961Y-91196854D01*
X128681961Y-91196854D02*
X128777200Y-91292092D01*
X128777200Y-91292092D02*
X128824819Y-91434949D01*
X128824819Y-91434949D02*
X128824819Y-91673044D01*
X128824819Y-90149235D02*
X128824819Y-90720663D01*
X128824819Y-90434949D02*
X127824819Y-90434949D01*
X127824819Y-90434949D02*
X127967676Y-90530187D01*
X127967676Y-90530187D02*
X128062914Y-90625425D01*
X128062914Y-90625425D02*
X128110533Y-90720663D01*
X129878905Y-113354869D02*
X129878905Y-112354869D01*
X129878905Y-112354869D02*
X130117000Y-112354869D01*
X130117000Y-112354869D02*
X130259857Y-112402488D01*
X130259857Y-112402488D02*
X130355095Y-112497726D01*
X130355095Y-112497726D02*
X130402714Y-112592964D01*
X130402714Y-112592964D02*
X130450333Y-112783440D01*
X130450333Y-112783440D02*
X130450333Y-112926297D01*
X130450333Y-112926297D02*
X130402714Y-113116773D01*
X130402714Y-113116773D02*
X130355095Y-113212011D01*
X130355095Y-113212011D02*
X130259857Y-113307250D01*
X130259857Y-113307250D02*
X130117000Y-113354869D01*
X130117000Y-113354869D02*
X129878905Y-113354869D01*
X131307476Y-112688202D02*
X131307476Y-113354869D01*
X131069381Y-112307250D02*
X130831286Y-113021535D01*
X130831286Y-113021535D02*
X131450333Y-113021535D01*
X142856666Y-103039869D02*
X142856666Y-103754154D01*
X142856666Y-103754154D02*
X142809047Y-103897011D01*
X142809047Y-103897011D02*
X142713809Y-103992250D01*
X142713809Y-103992250D02*
X142570952Y-104039869D01*
X142570952Y-104039869D02*
X142475714Y-104039869D01*
X143761428Y-103373202D02*
X143761428Y-104039869D01*
X143523333Y-102992250D02*
X143285238Y-103706535D01*
X143285238Y-103706535D02*
X143904285Y-103706535D01*
X118250952Y-107749869D02*
X117774762Y-107749869D01*
X117774762Y-107749869D02*
X117774762Y-106749869D01*
X118584286Y-107749869D02*
X118584286Y-106749869D01*
X118584286Y-106749869D02*
X118965238Y-106749869D01*
X118965238Y-106749869D02*
X119060476Y-106797488D01*
X119060476Y-106797488D02*
X119108095Y-106845107D01*
X119108095Y-106845107D02*
X119155714Y-106940345D01*
X119155714Y-106940345D02*
X119155714Y-107083202D01*
X119155714Y-107083202D02*
X119108095Y-107178440D01*
X119108095Y-107178440D02*
X119060476Y-107226059D01*
X119060476Y-107226059D02*
X118965238Y-107273678D01*
X118965238Y-107273678D02*
X118584286Y-107273678D01*
X119536667Y-107702250D02*
X119679524Y-107749869D01*
X119679524Y-107749869D02*
X119917619Y-107749869D01*
X119917619Y-107749869D02*
X120012857Y-107702250D01*
X120012857Y-107702250D02*
X120060476Y-107654630D01*
X120060476Y-107654630D02*
X120108095Y-107559392D01*
X120108095Y-107559392D02*
X120108095Y-107464154D01*
X120108095Y-107464154D02*
X120060476Y-107368916D01*
X120060476Y-107368916D02*
X120012857Y-107321297D01*
X120012857Y-107321297D02*
X119917619Y-107273678D01*
X119917619Y-107273678D02*
X119727143Y-107226059D01*
X119727143Y-107226059D02*
X119631905Y-107178440D01*
X119631905Y-107178440D02*
X119584286Y-107130821D01*
X119584286Y-107130821D02*
X119536667Y-107035583D01*
X119536667Y-107035583D02*
X119536667Y-106940345D01*
X119536667Y-106940345D02*
X119584286Y-106845107D01*
X119584286Y-106845107D02*
X119631905Y-106797488D01*
X119631905Y-106797488D02*
X119727143Y-106749869D01*
X119727143Y-106749869D02*
X119965238Y-106749869D01*
X119965238Y-106749869D02*
X120108095Y-106797488D01*
X121012857Y-106749869D02*
X120536667Y-106749869D01*
X120536667Y-106749869D02*
X120489048Y-107226059D01*
X120489048Y-107226059D02*
X120536667Y-107178440D01*
X120536667Y-107178440D02*
X120631905Y-107130821D01*
X120631905Y-107130821D02*
X120870000Y-107130821D01*
X120870000Y-107130821D02*
X120965238Y-107178440D01*
X120965238Y-107178440D02*
X121012857Y-107226059D01*
X121012857Y-107226059D02*
X121060476Y-107321297D01*
X121060476Y-107321297D02*
X121060476Y-107559392D01*
X121060476Y-107559392D02*
X121012857Y-107654630D01*
X121012857Y-107654630D02*
X120965238Y-107702250D01*
X120965238Y-107702250D02*
X120870000Y-107749869D01*
X120870000Y-107749869D02*
X120631905Y-107749869D01*
X120631905Y-107749869D02*
X120536667Y-107702250D01*
X120536667Y-107702250D02*
X120489048Y-107654630D01*
X121679524Y-106749869D02*
X121774762Y-106749869D01*
X121774762Y-106749869D02*
X121870000Y-106797488D01*
X121870000Y-106797488D02*
X121917619Y-106845107D01*
X121917619Y-106845107D02*
X121965238Y-106940345D01*
X121965238Y-106940345D02*
X122012857Y-107130821D01*
X122012857Y-107130821D02*
X122012857Y-107368916D01*
X122012857Y-107368916D02*
X121965238Y-107559392D01*
X121965238Y-107559392D02*
X121917619Y-107654630D01*
X121917619Y-107654630D02*
X121870000Y-107702250D01*
X121870000Y-107702250D02*
X121774762Y-107749869D01*
X121774762Y-107749869D02*
X121679524Y-107749869D01*
X121679524Y-107749869D02*
X121584286Y-107702250D01*
X121584286Y-107702250D02*
X121536667Y-107654630D01*
X121536667Y-107654630D02*
X121489048Y-107559392D01*
X121489048Y-107559392D02*
X121441429Y-107368916D01*
X121441429Y-107368916D02*
X121441429Y-107130821D01*
X121441429Y-107130821D02*
X121489048Y-106940345D01*
X121489048Y-106940345D02*
X121536667Y-106845107D01*
X121536667Y-106845107D02*
X121584286Y-106797488D01*
X121584286Y-106797488D02*
X121679524Y-106749869D01*
X122346191Y-106749869D02*
X122965238Y-106749869D01*
X122965238Y-106749869D02*
X122631905Y-107130821D01*
X122631905Y-107130821D02*
X122774762Y-107130821D01*
X122774762Y-107130821D02*
X122870000Y-107178440D01*
X122870000Y-107178440D02*
X122917619Y-107226059D01*
X122917619Y-107226059D02*
X122965238Y-107321297D01*
X122965238Y-107321297D02*
X122965238Y-107559392D01*
X122965238Y-107559392D02*
X122917619Y-107654630D01*
X122917619Y-107654630D02*
X122870000Y-107702250D01*
X122870000Y-107702250D02*
X122774762Y-107749869D01*
X122774762Y-107749869D02*
X122489048Y-107749869D01*
X122489048Y-107749869D02*
X122393810Y-107702250D01*
X122393810Y-107702250D02*
X122346191Y-107654630D01*
X123584286Y-106749869D02*
X123679524Y-106749869D01*
X123679524Y-106749869D02*
X123774762Y-106797488D01*
X123774762Y-106797488D02*
X123822381Y-106845107D01*
X123822381Y-106845107D02*
X123870000Y-106940345D01*
X123870000Y-106940345D02*
X123917619Y-107130821D01*
X123917619Y-107130821D02*
X123917619Y-107368916D01*
X123917619Y-107368916D02*
X123870000Y-107559392D01*
X123870000Y-107559392D02*
X123822381Y-107654630D01*
X123822381Y-107654630D02*
X123774762Y-107702250D01*
X123774762Y-107702250D02*
X123679524Y-107749869D01*
X123679524Y-107749869D02*
X123584286Y-107749869D01*
X123584286Y-107749869D02*
X123489048Y-107702250D01*
X123489048Y-107702250D02*
X123441429Y-107654630D01*
X123441429Y-107654630D02*
X123393810Y-107559392D01*
X123393810Y-107559392D02*
X123346191Y-107368916D01*
X123346191Y-107368916D02*
X123346191Y-107130821D01*
X123346191Y-107130821D02*
X123393810Y-106940345D01*
X123393810Y-106940345D02*
X123441429Y-106845107D01*
X123441429Y-106845107D02*
X123489048Y-106797488D01*
X123489048Y-106797488D02*
X123584286Y-106749869D01*
X124346191Y-107368916D02*
X125108096Y-107368916D01*
X126108095Y-107749869D02*
X125536667Y-107749869D01*
X125822381Y-107749869D02*
X125822381Y-106749869D01*
X125822381Y-106749869D02*
X125727143Y-106892726D01*
X125727143Y-106892726D02*
X125631905Y-106987964D01*
X125631905Y-106987964D02*
X125536667Y-107035583D01*
X127012857Y-106749869D02*
X126536667Y-106749869D01*
X126536667Y-106749869D02*
X126489048Y-107226059D01*
X126489048Y-107226059D02*
X126536667Y-107178440D01*
X126536667Y-107178440D02*
X126631905Y-107130821D01*
X126631905Y-107130821D02*
X126870000Y-107130821D01*
X126870000Y-107130821D02*
X126965238Y-107178440D01*
X126965238Y-107178440D02*
X127012857Y-107226059D01*
X127012857Y-107226059D02*
X127060476Y-107321297D01*
X127060476Y-107321297D02*
X127060476Y-107559392D01*
X127060476Y-107559392D02*
X127012857Y-107654630D01*
X127012857Y-107654630D02*
X126965238Y-107702250D01*
X126965238Y-107702250D02*
X126870000Y-107749869D01*
X126870000Y-107749869D02*
X126631905Y-107749869D01*
X126631905Y-107749869D02*
X126536667Y-107702250D01*
X126536667Y-107702250D02*
X126489048Y-107654630D01*
X127393810Y-106749869D02*
X128012857Y-106749869D01*
X128012857Y-106749869D02*
X127679524Y-107130821D01*
X127679524Y-107130821D02*
X127822381Y-107130821D01*
X127822381Y-107130821D02*
X127917619Y-107178440D01*
X127917619Y-107178440D02*
X127965238Y-107226059D01*
X127965238Y-107226059D02*
X128012857Y-107321297D01*
X128012857Y-107321297D02*
X128012857Y-107559392D01*
X128012857Y-107559392D02*
X127965238Y-107654630D01*
X127965238Y-107654630D02*
X127917619Y-107702250D01*
X127917619Y-107702250D02*
X127822381Y-107749869D01*
X127822381Y-107749869D02*
X127536667Y-107749869D01*
X127536667Y-107749869D02*
X127441429Y-107702250D01*
X127441429Y-107702250D02*
X127393810Y-107654630D01*
X142856666Y-90339869D02*
X142856666Y-91054154D01*
X142856666Y-91054154D02*
X142809047Y-91197011D01*
X142809047Y-91197011D02*
X142713809Y-91292250D01*
X142713809Y-91292250D02*
X142570952Y-91339869D01*
X142570952Y-91339869D02*
X142475714Y-91339869D01*
X143237619Y-90339869D02*
X143856666Y-90339869D01*
X143856666Y-90339869D02*
X143523333Y-90720821D01*
X143523333Y-90720821D02*
X143666190Y-90720821D01*
X143666190Y-90720821D02*
X143761428Y-90768440D01*
X143761428Y-90768440D02*
X143809047Y-90816059D01*
X143809047Y-90816059D02*
X143856666Y-90911297D01*
X143856666Y-90911297D02*
X143856666Y-91149392D01*
X143856666Y-91149392D02*
X143809047Y-91244630D01*
X143809047Y-91244630D02*
X143761428Y-91292250D01*
X143761428Y-91292250D02*
X143666190Y-91339869D01*
X143666190Y-91339869D02*
X143380476Y-91339869D01*
X143380476Y-91339869D02*
X143285238Y-91292250D01*
X143285238Y-91292250D02*
X143237619Y-91244630D01*
X131180057Y-93310288D02*
X131132438Y-93405526D01*
X131132438Y-93405526D02*
X131037200Y-93500764D01*
X131037200Y-93500764D02*
X130894342Y-93643621D01*
X130894342Y-93643621D02*
X130846723Y-93738859D01*
X130846723Y-93738859D02*
X130846723Y-93834097D01*
X131084819Y-93786478D02*
X131037200Y-93881716D01*
X131037200Y-93881716D02*
X130941961Y-93976954D01*
X130941961Y-93976954D02*
X130751485Y-94024573D01*
X130751485Y-94024573D02*
X130418152Y-94024573D01*
X130418152Y-94024573D02*
X130227676Y-93976954D01*
X130227676Y-93976954D02*
X130132438Y-93881716D01*
X130132438Y-93881716D02*
X130084819Y-93786478D01*
X130084819Y-93786478D02*
X130084819Y-93596002D01*
X130084819Y-93596002D02*
X130132438Y-93500764D01*
X130132438Y-93500764D02*
X130227676Y-93405526D01*
X130227676Y-93405526D02*
X130418152Y-93357907D01*
X130418152Y-93357907D02*
X130751485Y-93357907D01*
X130751485Y-93357907D02*
X130941961Y-93405526D01*
X130941961Y-93405526D02*
X131037200Y-93500764D01*
X131037200Y-93500764D02*
X131084819Y-93596002D01*
X131084819Y-93596002D02*
X131084819Y-93786478D01*
X130084819Y-93024573D02*
X130084819Y-92405526D01*
X130084819Y-92405526D02*
X130465771Y-92738859D01*
X130465771Y-92738859D02*
X130465771Y-92596002D01*
X130465771Y-92596002D02*
X130513390Y-92500764D01*
X130513390Y-92500764D02*
X130561009Y-92453145D01*
X130561009Y-92453145D02*
X130656247Y-92405526D01*
X130656247Y-92405526D02*
X130894342Y-92405526D01*
X130894342Y-92405526D02*
X130989580Y-92453145D01*
X130989580Y-92453145D02*
X131037200Y-92500764D01*
X131037200Y-92500764D02*
X131084819Y-92596002D01*
X131084819Y-92596002D02*
X131084819Y-92881716D01*
X131084819Y-92881716D02*
X131037200Y-92976954D01*
X131037200Y-92976954D02*
X130989580Y-93024573D01*
X142856666Y-80009869D02*
X142856666Y-80724154D01*
X142856666Y-80724154D02*
X142809047Y-80867011D01*
X142809047Y-80867011D02*
X142713809Y-80962250D01*
X142713809Y-80962250D02*
X142570952Y-81009869D01*
X142570952Y-81009869D02*
X142475714Y-81009869D01*
X143285238Y-80105107D02*
X143332857Y-80057488D01*
X143332857Y-80057488D02*
X143428095Y-80009869D01*
X143428095Y-80009869D02*
X143666190Y-80009869D01*
X143666190Y-80009869D02*
X143761428Y-80057488D01*
X143761428Y-80057488D02*
X143809047Y-80105107D01*
X143809047Y-80105107D02*
X143856666Y-80200345D01*
X143856666Y-80200345D02*
X143856666Y-80295583D01*
X143856666Y-80295583D02*
X143809047Y-80438440D01*
X143809047Y-80438440D02*
X143237619Y-81009869D01*
X143237619Y-81009869D02*
X143856666Y-81009869D01*
X137943333Y-96649869D02*
X137610000Y-96173678D01*
X137371905Y-96649869D02*
X137371905Y-95649869D01*
X137371905Y-95649869D02*
X137752857Y-95649869D01*
X137752857Y-95649869D02*
X137848095Y-95697488D01*
X137848095Y-95697488D02*
X137895714Y-95745107D01*
X137895714Y-95745107D02*
X137943333Y-95840345D01*
X137943333Y-95840345D02*
X137943333Y-95983202D01*
X137943333Y-95983202D02*
X137895714Y-96078440D01*
X137895714Y-96078440D02*
X137848095Y-96126059D01*
X137848095Y-96126059D02*
X137752857Y-96173678D01*
X137752857Y-96173678D02*
X137371905Y-96173678D01*
X138800476Y-95983202D02*
X138800476Y-96649869D01*
X138562381Y-95602250D02*
X138324286Y-96316535D01*
X138324286Y-96316535D02*
X138943333Y-96316535D01*
X115440019Y-84751616D02*
X114963828Y-85084949D01*
X115440019Y-85323044D02*
X114440019Y-85323044D01*
X114440019Y-85323044D02*
X114440019Y-84942092D01*
X114440019Y-84942092D02*
X114487638Y-84846854D01*
X114487638Y-84846854D02*
X114535257Y-84799235D01*
X114535257Y-84799235D02*
X114630495Y-84751616D01*
X114630495Y-84751616D02*
X114773352Y-84751616D01*
X114773352Y-84751616D02*
X114868590Y-84799235D01*
X114868590Y-84799235D02*
X114916209Y-84846854D01*
X114916209Y-84846854D02*
X114963828Y-84942092D01*
X114963828Y-84942092D02*
X114963828Y-85323044D01*
X114535257Y-84370663D02*
X114487638Y-84323044D01*
X114487638Y-84323044D02*
X114440019Y-84227806D01*
X114440019Y-84227806D02*
X114440019Y-83989711D01*
X114440019Y-83989711D02*
X114487638Y-83894473D01*
X114487638Y-83894473D02*
X114535257Y-83846854D01*
X114535257Y-83846854D02*
X114630495Y-83799235D01*
X114630495Y-83799235D02*
X114725733Y-83799235D01*
X114725733Y-83799235D02*
X114868590Y-83846854D01*
X114868590Y-83846854D02*
X115440019Y-84418282D01*
X115440019Y-84418282D02*
X115440019Y-83799235D01*
X142284819Y-117948383D02*
X142999104Y-117948383D01*
X142999104Y-117948383D02*
X143141961Y-117996002D01*
X143141961Y-117996002D02*
X143237200Y-118091240D01*
X143237200Y-118091240D02*
X143284819Y-118234097D01*
X143284819Y-118234097D02*
X143284819Y-118329335D01*
X143284819Y-116948383D02*
X143284819Y-117519811D01*
X143284819Y-117234097D02*
X142284819Y-117234097D01*
X142284819Y-117234097D02*
X142427676Y-117329335D01*
X142427676Y-117329335D02*
X142522914Y-117424573D01*
X142522914Y-117424573D02*
X142570533Y-117519811D01*
D11*
%TO.C,MOSFET1*%
X131150400Y-86611050D02*
G75*
G03*
X131150400Y-86611050I-127000J0D01*
G01*
X132166400Y-84960050D02*
X138973600Y-84960050D01*
X138973600Y-84960050D02*
X138973600Y-81150050D01*
X138973600Y-81150050D02*
X132166400Y-81150050D01*
X132166400Y-81150050D02*
X132166400Y-84960050D01*
D12*
%TO.C,C3*%
X113565000Y-112448748D02*
X113565000Y-112971252D01*
X115035000Y-112448748D02*
X115035000Y-112971252D01*
%TO.C,C1*%
X126265000Y-119118748D02*
X126265000Y-119641252D01*
X127735000Y-119118748D02*
X127735000Y-119641252D01*
%TO.C,U1*%
X115680000Y-105485050D02*
X115680000Y-104760050D01*
X116405000Y-101265050D02*
X115680000Y-101265050D01*
X116405000Y-105485050D02*
X115680000Y-105485050D01*
X119175000Y-101265050D02*
X119900000Y-101265050D01*
X119175000Y-105485050D02*
X119900000Y-105485050D01*
X119900000Y-101265050D02*
X119900000Y-101990050D01*
X119900000Y-105485050D02*
X119900000Y-104760050D01*
%TO.C,R5*%
X132819758Y-102820050D02*
X133240242Y-102820050D01*
X132819758Y-98850050D02*
X133240242Y-98850050D01*
%TO.C,D2*%
X119026000Y-89374950D02*
X118870000Y-89374950D01*
X116710000Y-89374950D02*
X116554000Y-89374950D01*
X118868608Y-92607284D02*
G75*
G03*
X119025515Y-89374951I-1078608J1672334D01*
G01*
X118869836Y-91976079D02*
G75*
G03*
X118869999Y-89893990I-1079836J1041129D01*
G01*
X116710001Y-89893990D02*
G75*
G03*
X116710164Y-91976079I1079999J-1040960D01*
G01*
X116554485Y-89374951D02*
G75*
G03*
X116711392Y-92607284I1235515J-1559999D01*
G01*
%TO.C,R1*%
X123425000Y-84795192D02*
X123425000Y-84374708D01*
X127395000Y-84795192D02*
X127395000Y-84374708D01*
%TO.C,D3*%
X111406000Y-89374950D02*
X111250000Y-89374950D01*
X109090000Y-89374950D02*
X108934000Y-89374950D01*
X111248608Y-92607284D02*
G75*
G03*
X111405515Y-89374951I-1078608J1672334D01*
G01*
X111249836Y-91976079D02*
G75*
G03*
X111249999Y-89893990I-1079836J1041129D01*
G01*
X109090001Y-89893990D02*
G75*
G03*
X109090164Y-91976079I1079999J-1040960D01*
G01*
X108934485Y-89374951D02*
G75*
G03*
X109091392Y-92607284I1235515J-1559999D01*
G01*
%TO.C,R3*%
X108185000Y-84795192D02*
X108185000Y-84374708D01*
X112155000Y-84795192D02*
X112155000Y-84374708D01*
%TO.C,D1*%
X124174485Y-89374951D02*
G75*
G03*
X124331392Y-92607284I1235515J-1559999D01*
G01*
X124330001Y-89893990D02*
G75*
G03*
X124330164Y-91976079I1079999J-1040960D01*
G01*
X126489836Y-91976079D02*
G75*
G03*
X126489999Y-89893990I-1079836J1041129D01*
G01*
X126488608Y-92607284D02*
G75*
G03*
X126645515Y-89374951I-1078608J1672334D01*
G01*
X124330000Y-89374950D02*
X124174000Y-89374950D01*
X126646000Y-89374950D02*
X126490000Y-89374950D01*
%TO.C,D4*%
X132700000Y-109995050D02*
X128840000Y-109995050D01*
X132700000Y-111995050D02*
X128840000Y-111995050D01*
X132700000Y-111995050D02*
X132700000Y-109995050D01*
%TO.C,J4*%
X141860000Y-104585050D02*
X143190000Y-104585050D01*
X141860000Y-105915050D02*
X141860000Y-104585050D01*
X141860000Y-107185050D02*
X141860000Y-112325050D01*
X141860000Y-107185050D02*
X144520000Y-107185050D01*
X141860000Y-112325050D02*
X144520000Y-112325050D01*
X144520000Y-107185050D02*
X144520000Y-112325050D01*
%TO.C,LPS5030-153*%
X122370000Y-108485050D02*
X123370000Y-108485050D01*
X122370000Y-113505050D02*
X123370000Y-113505050D01*
%TO.C,J3*%
X141860000Y-91885050D02*
X143190000Y-91885050D01*
X141860000Y-93215050D02*
X141860000Y-91885050D01*
X141860000Y-94485050D02*
X141860000Y-102165050D01*
X141860000Y-94485050D02*
X144520000Y-94485050D01*
X141860000Y-102165050D02*
X144520000Y-102165050D01*
X144520000Y-94485050D02*
X144520000Y-102165050D01*
%TO.C,Q3*%
X131470000Y-93215050D02*
X131470000Y-94890050D01*
X131470000Y-93215050D02*
X131470000Y-92565050D01*
X134590000Y-93215050D02*
X134590000Y-93865050D01*
X134590000Y-93215050D02*
X134590000Y-92565050D01*
%TO.C,J2*%
X144250000Y-84055050D02*
X144250000Y-86115050D01*
X144250000Y-81995050D02*
X144250000Y-83055050D01*
X143190000Y-81995050D02*
X144250000Y-81995050D01*
X142130000Y-86115050D02*
X144250000Y-86115050D01*
X142130000Y-84055050D02*
X144250000Y-84055050D01*
X142130000Y-84055050D02*
X142130000Y-86115050D01*
%TO.C,R4*%
X138320242Y-91230050D02*
X137899758Y-91230050D01*
X138320242Y-95200050D02*
X137899758Y-95200050D01*
%TO.C,R2*%
X115980200Y-84795192D02*
X115980200Y-84374708D01*
X119950200Y-84795192D02*
X119950200Y-84374708D01*
%TO.C,J1*%
X143620000Y-120975050D02*
X144870000Y-120975050D01*
X143920000Y-120675050D02*
X148640000Y-120675050D01*
X145230000Y-120675050D02*
X145230000Y-120065050D01*
X146530000Y-120675050D02*
X146530000Y-120065050D01*
X148640000Y-120675050D02*
X148640000Y-114555050D01*
X144530000Y-120065050D02*
X148030000Y-120065050D01*
X148030000Y-120065050D02*
X148030000Y-115165050D01*
X143620000Y-119725050D02*
X143620000Y-120975050D01*
X143720000Y-119215050D02*
X143920000Y-119215050D01*
X143720000Y-118915050D02*
X143720000Y-119215050D01*
X143820000Y-118915050D02*
X143820000Y-119215050D01*
X143920000Y-118915050D02*
X143720000Y-118915050D01*
X143920000Y-118115050D02*
X144530000Y-118115050D01*
X144530000Y-118115050D02*
X144530000Y-120065050D01*
X147530000Y-117715050D02*
X147530000Y-117515050D01*
X148030000Y-117715050D02*
X147530000Y-117715050D01*
X148030000Y-117615050D02*
X147530000Y-117615050D01*
X147530000Y-117515050D02*
X148030000Y-117515050D01*
X144530000Y-117115050D02*
X143920000Y-117115050D01*
X144530000Y-115165050D02*
X144530000Y-117115050D01*
X148030000Y-115165050D02*
X144530000Y-115165050D01*
X143920000Y-114555050D02*
X143920000Y-120675050D01*
X145230000Y-114555050D02*
X145230000Y-115165050D01*
X146530000Y-114555050D02*
X146530000Y-115165050D01*
X148640000Y-114555050D02*
X143920000Y-114555050D01*
%TD*%
M02*
