M48
; DRILL file {KiCad 7.0.9} date Mon Dec  4 00:09:24 2023
; FORMAT={-:-/ absolute / inch / decimal}
; #@! TF.CreationDate,2023-12-04T00:09:24-03:00
; #@! TF.GenerationSoftware,Kicad,Pcbnew,7.0.9
; #@! TF.FileFunction,Plated,1,2,PTH
FMAT,2
INCH
; #@! TA.AperFunction,Plated,PTH,ViaDrill
T1C0.0157
; #@! TA.AperFunction,Plated,PTH,ComponentDrill
T2C0.0295
; #@! TA.AperFunction,Plated,PTH,ComponentDrill
T3C0.0315
; #@! TA.AperFunction,Plated,PTH,ComponentDrill
T4C0.0354
; #@! TA.AperFunction,Plated,PTH,ComponentDrill
T5C0.0394
%
G90
G05
T1
X4.3374Y-4.0699
X4.4211Y-4.0611
X4.6089Y-4.2471
X4.8374Y-4.1699
X4.8374Y-4.6699
X5.0374Y-3.8699
X5.0374Y-4.4699
X5.3374Y-4.3699
X5.6374Y-4.0699
T2
X5.7374Y-4.5911
X5.7374Y-4.6699
T3
X5.6374Y-3.2699
X5.6374Y-3.3486
T4
X4.3374Y-3.5301
X4.3374Y-3.6301
X4.6374Y-3.5301
X4.6374Y-3.6301
X4.9374Y-3.5301
X4.9374Y-3.6301
T5
X5.6374Y-3.6699
X5.6374Y-3.7699
X5.6374Y-3.8699
X5.6374Y-3.9699
X5.6374Y-4.1699
X5.6374Y-4.2699
X5.6374Y-4.3699
T0
M30
