%TF.GenerationSoftware,KiCad,Pcbnew,7.0.9*%
%TF.CreationDate,2023-12-04T00:09:17-03:00*%
%TF.ProjectId,regador,72656761-646f-4722-9e6b-696361645f70,1.0*%
%TF.SameCoordinates,Original*%
%TF.FileFunction,Copper,L1,Top*%
%TF.FilePolarity,Positive*%
%FSLAX46Y46*%
G04 Gerber Fmt 4.6, Leading zero omitted, Abs format (unit mm)*
G04 Created by KiCad (PCBNEW 7.0.9) date 2023-12-04 00:09:17*
%MOMM*%
%LPD*%
G01*
G04 APERTURE LIST*
G04 Aperture macros list*
%AMRoundRect*
0 Rectangle with rounded corners*
0 $1 Rounding radius*
0 $2 $3 $4 $5 $6 $7 $8 $9 X,Y pos of 4 corners*
0 Add a 4 corners polygon primitive as box body*
4,1,4,$2,$3,$4,$5,$6,$7,$8,$9,$2,$3,0*
0 Add four circle primitives for the rounded corners*
1,1,$1+$1,$2,$3*
1,1,$1+$1,$4,$5*
1,1,$1+$1,$6,$7*
1,1,$1+$1,$8,$9*
0 Add four rect primitives between the rounded corners*
20,1,$1+$1,$2,$3,$4,$5,0*
20,1,$1+$1,$4,$5,$6,$7,0*
20,1,$1+$1,$6,$7,$8,$9,0*
20,1,$1+$1,$8,$9,$2,$3,0*%
%AMFreePoly0*
4,1,11,1.467500,1.700000,0.527500,0.844500,0.527500,-0.844500,1.467500,-1.700000,1.467500,-2.755000,0.527500,-2.755000,-0.527500,-1.700000,-0.527500,1.700000,0.527500,2.755000,1.467500,2.755000,1.467500,1.700000,1.467500,1.700000,$1*%
%AMFreePoly1*
4,1,11,0.527500,1.700000,0.527500,-1.700000,-0.527500,-2.755000,-1.467500,-2.755000,-1.467500,-1.700000,-0.527500,-0.844500,-0.527500,0.844500,-1.467500,1.700000,-1.467500,2.755000,-0.527500,2.755000,0.527500,1.700000,0.527500,1.700000,$1*%
G04 Aperture macros list end*
%TA.AperFunction,SMDPad,CuDef*%
%ADD10R,0.863600X0.812800*%
%TD*%
%TA.AperFunction,SMDPad,CuDef*%
%ADD11RoundRect,0.250000X-0.475000X0.250000X-0.475000X-0.250000X0.475000X-0.250000X0.475000X0.250000X0*%
%TD*%
%TA.AperFunction,SMDPad,CuDef*%
%ADD12RoundRect,0.062500X-0.362500X-0.062500X0.362500X-0.062500X0.362500X0.062500X-0.362500X0.062500X0*%
%TD*%
%TA.AperFunction,SMDPad,CuDef*%
%ADD13RoundRect,0.062500X-0.062500X-0.362500X0.062500X-0.362500X0.062500X0.362500X-0.062500X0.362500X0*%
%TD*%
%TA.AperFunction,SMDPad,CuDef*%
%ADD14R,2.600000X2.600000*%
%TD*%
%TA.AperFunction,SMDPad,CuDef*%
%ADD15RoundRect,0.250000X-0.350000X-1.775000X0.350000X-1.775000X0.350000X1.775000X-0.350000X1.775000X0*%
%TD*%
%TA.AperFunction,ComponentPad*%
%ADD16R,1.800000X1.800000*%
%TD*%
%TA.AperFunction,ComponentPad*%
%ADD17C,1.800000*%
%TD*%
%TA.AperFunction,SMDPad,CuDef*%
%ADD18RoundRect,0.250000X1.775000X-0.350000X1.775000X0.350000X-1.775000X0.350000X-1.775000X-0.350000X0*%
%TD*%
%TA.AperFunction,SMDPad,CuDef*%
%ADD19RoundRect,0.250000X0.300000X0.300000X-0.300000X0.300000X-0.300000X-0.300000X0.300000X-0.300000X0*%
%TD*%
%TA.AperFunction,ComponentPad*%
%ADD20R,1.700000X1.700000*%
%TD*%
%TA.AperFunction,ComponentPad*%
%ADD21O,1.700000X1.700000*%
%TD*%
%TA.AperFunction,SMDPad,CuDef*%
%ADD22FreePoly0,0.000000*%
%TD*%
%TA.AperFunction,SMDPad,CuDef*%
%ADD23FreePoly1,0.000000*%
%TD*%
%TA.AperFunction,SMDPad,CuDef*%
%ADD24RoundRect,0.150000X0.150000X-0.587500X0.150000X0.587500X-0.150000X0.587500X-0.150000X-0.587500X0*%
%TD*%
%TA.AperFunction,ComponentPad*%
%ADD25O,1.350000X1.350000*%
%TD*%
%TA.AperFunction,ComponentPad*%
%ADD26R,1.350000X1.350000*%
%TD*%
%TA.AperFunction,SMDPad,CuDef*%
%ADD27RoundRect,0.250000X0.350000X1.775000X-0.350000X1.775000X-0.350000X-1.775000X0.350000X-1.775000X0*%
%TD*%
%TA.AperFunction,ComponentPad*%
%ADD28RoundRect,0.250000X0.625000X-0.350000X0.625000X0.350000X-0.625000X0.350000X-0.625000X-0.350000X0*%
%TD*%
%TA.AperFunction,ComponentPad*%
%ADD29O,1.750000X1.200000*%
%TD*%
%TA.AperFunction,ViaPad*%
%ADD30C,0.800000*%
%TD*%
%TA.AperFunction,Conductor*%
%ADD31C,0.250000*%
%TD*%
%TA.AperFunction,Conductor*%
%ADD32C,1.000000*%
%TD*%
%TA.AperFunction,Conductor*%
%ADD33C,0.500000*%
%TD*%
G04 APERTURE END LIST*
%TA.AperFunction,EtchedComponent*%
%TO.C,MOSFET1*%
G36*
X137144800Y-79956250D02*
G01*
X133995200Y-79956250D01*
X133995200Y-79143450D01*
X137144800Y-79143450D01*
X137144800Y-79956250D01*
G37*
%TD.AperFunction*%
%TD*%
D10*
%TO.P,MOSFET1,1,G*%
%TO.N,Net-(MOSFET1-G)*%
X133270000Y-86560250D03*
%TO.P,MOSFET1,2,D*%
%TO.N,VCC*%
X135570000Y-86560250D03*
%TO.P,MOSFET1,3,S*%
%TO.N,Net-(J2-Pin_2)*%
X137870000Y-86560250D03*
%TD*%
D11*
%TO.P,C3,1*%
%TO.N,Net-(D4-K)*%
X114300000Y-111760000D03*
%TO.P,C3,2*%
%TO.N,GND*%
X114300000Y-113660000D03*
%TD*%
%TO.P,C1,1*%
%TO.N,VCC*%
X127000000Y-118430000D03*
%TO.P,C1,2*%
%TO.N,GND*%
X127000000Y-120330000D03*
%TD*%
D12*
%TO.P,U1,1,PB2*%
%TO.N,/B2*%
X115865000Y-102375050D03*
%TO.P,U1,2,PB3*%
%TO.N,/B3*%
X115865000Y-102875050D03*
%TO.P,U1,3,PB4*%
%TO.N,/B4*%
X115865000Y-103375050D03*
%TO.P,U1,4,PB5*%
%TO.N,/Pump*%
X115865000Y-103875050D03*
%TO.P,U1,5,PB6*%
%TO.N,unconnected-(U1-PB6-Pad5)*%
X115865000Y-104375050D03*
D13*
%TO.P,U1,6,PB7*%
%TO.N,unconnected-(U1-PB7-Pad6)*%
X116790000Y-105300050D03*
%TO.P,U1,7,VCC*%
%TO.N,Net-(D4-K)*%
X117290000Y-105300050D03*
%TO.P,U1,8,GND*%
%TO.N,GND*%
X117790000Y-105300050D03*
%TO.P,U1,9,LSW*%
%TO.N,Net-(D4-A)*%
X118290000Y-105300050D03*
%TO.P,U1,10,VBAT*%
%TO.N,VCC*%
X118790000Y-105300050D03*
D12*
%TO.P,U1,11,PA0*%
%TO.N,/A0*%
X119715000Y-104375050D03*
%TO.P,U1,12,PA1*%
%TO.N,/A1*%
X119715000Y-103875050D03*
%TO.P,U1,13,PA2*%
%TO.N,unconnected-(U1-PA2-Pad13)*%
X119715000Y-103375050D03*
%TO.P,U1,14,PA3*%
%TO.N,unconnected-(U1-PA3-Pad14)*%
X119715000Y-102875050D03*
%TO.P,U1,15,PA4*%
%TO.N,unconnected-(U1-PA4-Pad15)*%
X119715000Y-102375050D03*
D13*
%TO.P,U1,16,PA5*%
%TO.N,unconnected-(U1-PA5-Pad16)*%
X118790000Y-101450050D03*
%TO.P,U1,17,PA6*%
%TO.N,unconnected-(U1-PA6-Pad17)*%
X118290000Y-101450050D03*
%TO.P,U1,18,~{RESET}/PA7*%
%TO.N,unconnected-(U1-~{RESET}{slash}PA7-Pad18)*%
X117790000Y-101450050D03*
%TO.P,U1,19,PB0*%
%TO.N,/B0*%
X117290000Y-101450050D03*
%TO.P,U1,20,PB1*%
%TO.N,/B1*%
X116790000Y-101450050D03*
D14*
%TO.P,U1,21,GND*%
%TO.N,GND*%
X117790000Y-103375050D03*
%TD*%
D15*
%TO.P,R5,2*%
%TO.N,GND*%
X134055000Y-100835050D03*
%TO.P,R5,1*%
%TO.N,/Pump*%
X132005000Y-100835050D03*
%TD*%
D16*
%TO.P,D2,1,K*%
%TO.N,Net-(D2-K)*%
X117790000Y-89664950D03*
D17*
%TO.P,D2,2,A*%
%TO.N,/B2*%
X117790000Y-92204950D03*
%TD*%
D18*
%TO.P,R1,1*%
%TO.N,Net-(D1-K)*%
X125410000Y-85609950D03*
%TO.P,R1,2*%
%TO.N,GND*%
X125410000Y-83559950D03*
%TD*%
D16*
%TO.P,D3,1,K*%
%TO.N,Net-(D3-K)*%
X110170000Y-89664950D03*
D17*
%TO.P,D3,2,A*%
%TO.N,/B3*%
X110170000Y-92204950D03*
%TD*%
D18*
%TO.P,R3,1*%
%TO.N,Net-(D3-K)*%
X110170000Y-85609950D03*
%TO.P,R3,2*%
%TO.N,GND*%
X110170000Y-83559950D03*
%TD*%
D17*
%TO.P,D1,2,A*%
%TO.N,/B1*%
X125410000Y-92204950D03*
D16*
%TO.P,D1,1,K*%
%TO.N,Net-(D1-K)*%
X125410000Y-89664950D03*
%TD*%
D19*
%TO.P,D4,2,A*%
%TO.N,Net-(D4-A)*%
X129090000Y-110995050D03*
%TO.P,D4,1,K*%
%TO.N,Net-(D4-K)*%
X131890000Y-110995050D03*
%TD*%
D20*
%TO.P,J4,1,Pin_1*%
%TO.N,GND*%
X143190000Y-105915050D03*
D21*
%TO.P,J4,2,Pin_2*%
%TO.N,VCC*%
X143190000Y-108455050D03*
%TO.P,J4,3,Pin_3*%
%TO.N,/A1*%
X143190000Y-110995050D03*
%TD*%
D22*
%TO.P,LPS5030-153,1,1*%
%TO.N,VCC*%
X120642500Y-110995050D03*
D23*
%TO.P,LPS5030-153,2,2*%
%TO.N,Net-(D4-A)*%
X125097500Y-110995050D03*
%TD*%
D20*
%TO.P,J3,1,Pin_1*%
%TO.N,GND*%
X143190000Y-93215050D03*
D21*
%TO.P,J3,2,Pin_2*%
%TO.N,VCC*%
X143190000Y-95755050D03*
%TO.P,J3,3,Pin_3*%
%TO.N,/B4*%
X143190000Y-98295050D03*
%TO.P,J3,4,Pin_4*%
%TO.N,/A0*%
X143190000Y-100835050D03*
%TD*%
D24*
%TO.P,Q3,1,G*%
%TO.N,/Pump*%
X132080000Y-94152550D03*
%TO.P,Q3,2,S*%
%TO.N,GND*%
X133980000Y-94152550D03*
%TO.P,Q3,3,D*%
%TO.N,Net-(MOSFET1-G)*%
X133030000Y-92277550D03*
%TD*%
D25*
%TO.P,J2,2,Pin_2*%
%TO.N,Net-(J2-Pin_2)*%
X143190000Y-85055050D03*
D26*
%TO.P,J2,1,Pin_1*%
%TO.N,GND*%
X143190000Y-83055050D03*
%TD*%
D27*
%TO.P,R4,2*%
%TO.N,Net-(MOSFET1-G)*%
X137085000Y-93215050D03*
%TO.P,R4,1*%
%TO.N,VCC*%
X139135000Y-93215050D03*
%TD*%
D18*
%TO.P,R2,1*%
%TO.N,Net-(D2-K)*%
X117965200Y-85609950D03*
%TO.P,R2,2*%
%TO.N,GND*%
X117965200Y-83559950D03*
%TD*%
D28*
%TO.P,J1,1,Pin_1*%
%TO.N,GND*%
X145730000Y-118615050D03*
D29*
%TO.P,J1,2,Pin_2*%
%TO.N,VCC*%
X145730000Y-116615050D03*
%TD*%
D30*
%TO.N,Net-(D4-A)*%
X122870000Y-118615050D03*
X127950000Y-113535050D03*
%TO.N,Net-(D4-K)*%
X117065500Y-107875550D03*
X135570000Y-110995050D03*
%TO.N,/A0*%
X122870000Y-105915050D03*
%TO.N,/B4*%
X112296206Y-103150954D03*
%TO.N,/Pump*%
X110170000Y-103375050D03*
X127950000Y-98295050D03*
%TO.N,GND*%
X143190000Y-103375050D03*
%TD*%
D31*
%TO.N,GND*%
X117790000Y-105300050D02*
X117790000Y-103375050D01*
D32*
X127000000Y-121920000D02*
X127000000Y-120330000D01*
X127000000Y-121920000D02*
X129725050Y-121920000D01*
X114300000Y-121920000D02*
X127000000Y-121920000D01*
D33*
X117790000Y-120970000D02*
X117790000Y-116075050D01*
X116840000Y-121920000D02*
X117790000Y-120970000D01*
D32*
X107630000Y-79490050D02*
X110170000Y-79490050D01*
X105090000Y-82030050D02*
X107630000Y-79490050D01*
X105090000Y-116075050D02*
X105090000Y-82030050D01*
X114300000Y-121920000D02*
X110934950Y-121920000D01*
X129725050Y-121920000D02*
X133030000Y-118615050D01*
X110934950Y-121920000D02*
X105090000Y-116075050D01*
X133030000Y-118615050D02*
X145730000Y-118615050D01*
D33*
X114300000Y-121920000D02*
X114300000Y-113660000D01*
D32*
%TO.N,VCC*%
X127000000Y-116075050D02*
X127000000Y-118430000D01*
X127950000Y-116075050D02*
X127000000Y-116075050D01*
D31*
%TO.N,Net-(D4-K)*%
X114300000Y-110865550D02*
X117290000Y-107875550D01*
X114300000Y-111760000D02*
X114300000Y-110865550D01*
X117290000Y-107875550D02*
X117290000Y-105300050D01*
%TO.N,/Pump*%
X115390260Y-103875050D02*
X115865000Y-103875050D01*
X115125310Y-104140000D02*
X115390260Y-103875050D01*
X110934950Y-104140000D02*
X115125310Y-104140000D01*
X110170000Y-103375050D02*
X110934950Y-104140000D01*
D32*
%TO.N,VCC*%
X145730000Y-90675050D02*
X145730000Y-95755050D01*
X145730000Y-95755050D02*
X143190000Y-95755050D01*
X145730000Y-108455050D02*
X145730000Y-95755050D01*
X143190000Y-88135050D02*
X138110000Y-88135050D01*
X145730000Y-90675050D02*
X143190000Y-88135050D01*
%TO.N,GND*%
X140650000Y-103375050D02*
X133980000Y-96705050D01*
X143190000Y-103375050D02*
X140650000Y-103375050D01*
%TO.N,VCC*%
X143190000Y-108455050D02*
X145730000Y-108455050D01*
X145730000Y-116615050D02*
X145730000Y-108455050D01*
X130490000Y-116615050D02*
X145730000Y-116615050D01*
X129950000Y-116075050D02*
X130490000Y-116615050D01*
X127950000Y-116075050D02*
X129950000Y-116075050D01*
D31*
%TO.N,/Pump*%
X129465000Y-98295050D02*
X132005000Y-100835050D01*
X127950000Y-98295050D02*
X129465000Y-98295050D01*
%TO.N,/A1*%
X127950000Y-105915050D02*
X135570000Y-105915050D01*
X125910000Y-103875050D02*
X127950000Y-105915050D01*
X119715000Y-103875050D02*
X125910000Y-103875050D01*
D33*
%TO.N,Net-(J2-Pin_2)*%
X143190000Y-85055050D02*
X141060000Y-87185050D01*
X141060000Y-87185050D02*
X138110000Y-87185050D01*
%TO.N,Net-(D4-A)*%
X122870000Y-118615050D02*
X120330000Y-118615050D01*
X120330000Y-118615050D02*
X119505000Y-117790050D01*
X127950000Y-110995050D02*
X127950000Y-113535050D01*
D31*
%TO.N,Net-(D4-K)*%
X131890000Y-110995050D02*
X135570000Y-110995050D01*
%TO.N,/A1*%
X135570000Y-105915050D02*
X140650000Y-110995050D01*
X140650000Y-110995050D02*
X143190000Y-110995050D01*
%TO.N,/A0*%
X121330000Y-104375050D02*
X119715000Y-104375050D01*
X122870000Y-105915050D02*
X121330000Y-104375050D01*
%TO.N,/B4*%
X112296206Y-103150954D02*
X112520302Y-103375050D01*
X112520302Y-103375050D02*
X115865000Y-103375050D01*
%TO.N,/Pump*%
X132080000Y-100760050D02*
X132005000Y-100835050D01*
X132080000Y-94152550D02*
X132080000Y-100760050D01*
D32*
%TO.N,GND*%
X134055000Y-96780050D02*
X134055000Y-100835050D01*
X133980000Y-96705050D02*
X134055000Y-96780050D01*
X133980000Y-96705050D02*
X133980000Y-94152550D01*
D33*
%TO.N,Net-(MOSFET1-G)*%
X133270000Y-89400050D02*
X133030000Y-89640050D01*
X133030000Y-89640050D02*
X133030000Y-92277550D01*
X137085000Y-93215050D02*
X133270000Y-89400050D01*
X133270000Y-89400050D02*
X133270000Y-86560250D01*
%TO.N,Net-(J2-Pin_2)*%
X138494800Y-87185050D02*
X137870000Y-86560250D01*
D32*
%TO.N,VCC*%
X137144800Y-88135050D02*
X135570000Y-86560250D01*
X140650000Y-88135050D02*
X137144800Y-88135050D01*
X140650000Y-88135050D02*
X139135000Y-89650050D01*
X139135000Y-89650050D02*
X139135000Y-93215050D01*
D31*
%TO.N,/B1*%
X116790000Y-96755050D02*
X116790000Y-101450050D01*
X121859900Y-95755050D02*
X117790000Y-95755050D01*
X117790000Y-95755050D02*
X116790000Y-96755050D01*
X125410000Y-92204950D02*
X121859900Y-95755050D01*
%TO.N,/B3*%
X113044900Y-102875050D02*
X115865000Y-102875050D01*
X110170000Y-100000150D02*
X113044900Y-102875050D01*
X110170000Y-92204950D02*
X110170000Y-100000150D01*
%TO.N,/B2*%
X115250000Y-101760050D02*
X115865000Y-102375050D01*
X115250000Y-94744950D02*
X115250000Y-101760050D01*
X117790000Y-92204950D02*
X115250000Y-94744950D01*
%TO.N,Net-(D4-A)*%
X119505000Y-112260050D02*
X118290000Y-111045050D01*
X118290000Y-111045050D02*
X118290000Y-105300050D01*
X119505000Y-117790050D02*
X119505000Y-112260050D01*
D33*
X127950000Y-110995050D02*
X129090000Y-110995050D01*
X125097500Y-110995050D02*
X127950000Y-110995050D01*
D32*
%TO.N,GND*%
X117790000Y-79490050D02*
X117614800Y-79665250D01*
X115250000Y-79490050D02*
X117790000Y-79490050D01*
X110170000Y-79490050D02*
X115250000Y-79490050D01*
D31*
X117790000Y-105300050D02*
X117790000Y-116075050D01*
X125585200Y-83384750D02*
X125410000Y-83559950D01*
D32*
X117790000Y-79490050D02*
X124385000Y-79490050D01*
X117614800Y-79665250D02*
X117614800Y-83559950D01*
X125410000Y-80515050D02*
X125410000Y-83055050D01*
X124385000Y-79490050D02*
X125410000Y-80515050D01*
X109994800Y-79665250D02*
X109994800Y-83559950D01*
X110170000Y-79490050D02*
X109994800Y-79665250D01*
%TO.N,VCC*%
X127950000Y-116075050D02*
X120642500Y-116075050D01*
X120330000Y-111307550D02*
X120642500Y-110995050D01*
D31*
X118790000Y-105300050D02*
X118790000Y-109142550D01*
D32*
X120330000Y-115762550D02*
X120330000Y-111307550D01*
X120642500Y-116075050D02*
X120330000Y-115762550D01*
D31*
X118790000Y-109142550D02*
X120642500Y-110995050D01*
%TO.N,Net-(D1-K)*%
X125410000Y-89664950D02*
X125410000Y-85609950D01*
%TO.N,Net-(D2-K)*%
X117790000Y-89664950D02*
X117790000Y-85609950D01*
%TO.N,Net-(D3-K)*%
X110170000Y-89664950D02*
X110170000Y-85609950D01*
%TD*%
M02*
