%TF.GenerationSoftware,KiCad,Pcbnew,7.0.9*%
%TF.CreationDate,2023-12-04T00:09:17-03:00*%
%TF.ProjectId,regador,72656761-646f-4722-9e6b-696361645f70,1.0*%
%TF.SameCoordinates,Original*%
%TF.FileFunction,Soldermask,Top*%
%TF.FilePolarity,Negative*%
%FSLAX46Y46*%
G04 Gerber Fmt 4.6, Leading zero omitted, Abs format (unit mm)*
G04 Created by KiCad (PCBNEW 7.0.9) date 2023-12-04 00:09:17*
%MOMM*%
%LPD*%
G01*
G04 APERTURE LIST*
G04 Aperture macros list*
%AMRoundRect*
0 Rectangle with rounded corners*
0 $1 Rounding radius*
0 $2 $3 $4 $5 $6 $7 $8 $9 X,Y pos of 4 corners*
0 Add a 4 corners polygon primitive as box body*
4,1,4,$2,$3,$4,$5,$6,$7,$8,$9,$2,$3,0*
0 Add four circle primitives for the rounded corners*
1,1,$1+$1,$2,$3*
1,1,$1+$1,$4,$5*
1,1,$1+$1,$6,$7*
1,1,$1+$1,$8,$9*
0 Add four rect primitives between the rounded corners*
20,1,$1+$1,$2,$3,$4,$5,0*
20,1,$1+$1,$4,$5,$6,$7,0*
20,1,$1+$1,$6,$7,$8,$9,0*
20,1,$1+$1,$8,$9,$2,$3,0*%
%AMFreePoly0*
4,1,11,1.467500,1.700000,0.527500,0.844500,0.527500,-0.844500,1.467500,-1.700000,1.467500,-2.755000,0.527500,-2.755000,-0.527500,-1.700000,-0.527500,1.700000,0.527500,2.755000,1.467500,2.755000,1.467500,1.700000,1.467500,1.700000,$1*%
%AMFreePoly1*
4,1,11,0.527500,1.700000,0.527500,-1.700000,-0.527500,-2.755000,-1.467500,-2.755000,-1.467500,-1.700000,-0.527500,-0.844500,-0.527500,0.844500,-1.467500,1.700000,-1.467500,2.755000,-0.527500,2.755000,0.527500,1.700000,0.527500,1.700000,$1*%
G04 Aperture macros list end*
%ADD10R,0.863600X0.812800*%
%ADD11RoundRect,0.250000X-0.475000X0.250000X-0.475000X-0.250000X0.475000X-0.250000X0.475000X0.250000X0*%
%ADD12RoundRect,0.062500X-0.362500X-0.062500X0.362500X-0.062500X0.362500X0.062500X-0.362500X0.062500X0*%
%ADD13RoundRect,0.062500X-0.062500X-0.362500X0.062500X-0.362500X0.062500X0.362500X-0.062500X0.362500X0*%
%ADD14R,2.600000X2.600000*%
%ADD15RoundRect,0.250000X-0.350000X-1.775000X0.350000X-1.775000X0.350000X1.775000X-0.350000X1.775000X0*%
%ADD16R,1.800000X1.800000*%
%ADD17C,1.800000*%
%ADD18RoundRect,0.250000X1.775000X-0.350000X1.775000X0.350000X-1.775000X0.350000X-1.775000X-0.350000X0*%
%ADD19RoundRect,0.250000X0.300000X0.300000X-0.300000X0.300000X-0.300000X-0.300000X0.300000X-0.300000X0*%
%ADD20R,1.700000X1.700000*%
%ADD21O,1.700000X1.700000*%
%ADD22FreePoly0,0.000000*%
%ADD23FreePoly1,0.000000*%
%ADD24RoundRect,0.150000X0.150000X-0.587500X0.150000X0.587500X-0.150000X0.587500X-0.150000X-0.587500X0*%
%ADD25O,1.350000X1.350000*%
%ADD26R,1.350000X1.350000*%
%ADD27RoundRect,0.250000X0.350000X1.775000X-0.350000X1.775000X-0.350000X-1.775000X0.350000X-1.775000X0*%
%ADD28RoundRect,0.250000X0.625000X-0.350000X0.625000X0.350000X-0.625000X0.350000X-0.625000X-0.350000X0*%
%ADD29O,1.750000X1.200000*%
G04 APERTURE END LIST*
%TO.C,MOSFET1*%
G36*
X137170200Y-80311850D02*
G01*
X133969800Y-80311850D01*
X133969800Y-78787850D01*
X137170200Y-78787850D01*
X137170200Y-80311850D01*
G37*
%TD*%
D10*
%TO.C,MOSFET1*%
X133270000Y-86560250D03*
X135570000Y-86560250D03*
X137870000Y-86560250D03*
%TD*%
D11*
%TO.C,C3*%
X114300000Y-111760000D03*
X114300000Y-113660000D03*
%TD*%
%TO.C,C1*%
X127000000Y-118430000D03*
X127000000Y-120330000D03*
%TD*%
D12*
%TO.C,U1*%
X115865000Y-102375050D03*
X115865000Y-102875050D03*
X115865000Y-103375050D03*
X115865000Y-103875050D03*
X115865000Y-104375050D03*
D13*
X116790000Y-105300050D03*
X117290000Y-105300050D03*
X117790000Y-105300050D03*
X118290000Y-105300050D03*
X118790000Y-105300050D03*
D12*
X119715000Y-104375050D03*
X119715000Y-103875050D03*
X119715000Y-103375050D03*
X119715000Y-102875050D03*
X119715000Y-102375050D03*
D13*
X118790000Y-101450050D03*
X118290000Y-101450050D03*
X117790000Y-101450050D03*
X117290000Y-101450050D03*
X116790000Y-101450050D03*
D14*
X117790000Y-103375050D03*
%TD*%
D15*
%TO.C,R5*%
X134055000Y-100835050D03*
X132005000Y-100835050D03*
%TD*%
D16*
%TO.C,D2*%
X117790000Y-89664950D03*
D17*
X117790000Y-92204950D03*
%TD*%
D18*
%TO.C,R1*%
X125410000Y-85609950D03*
X125410000Y-83559950D03*
%TD*%
D16*
%TO.C,D3*%
X110170000Y-89664950D03*
D17*
X110170000Y-92204950D03*
%TD*%
D18*
%TO.C,R3*%
X110170000Y-85609950D03*
X110170000Y-83559950D03*
%TD*%
D17*
%TO.C,D1*%
X125410000Y-92204950D03*
D16*
X125410000Y-89664950D03*
%TD*%
D19*
%TO.C,D4*%
X129090000Y-110995050D03*
X131890000Y-110995050D03*
%TD*%
D20*
%TO.C,J4*%
X143190000Y-105915050D03*
D21*
X143190000Y-108455050D03*
X143190000Y-110995050D03*
%TD*%
D22*
%TO.C,LPS5030-153*%
X120642500Y-110995050D03*
D23*
X125097500Y-110995050D03*
%TD*%
D20*
%TO.C,J3*%
X143190000Y-93215050D03*
D21*
X143190000Y-95755050D03*
X143190000Y-98295050D03*
X143190000Y-100835050D03*
%TD*%
D24*
%TO.C,Q3*%
X132080000Y-94152550D03*
X133980000Y-94152550D03*
X133030000Y-92277550D03*
%TD*%
D25*
%TO.C,J2*%
X143190000Y-85055050D03*
D26*
X143190000Y-83055050D03*
%TD*%
D27*
%TO.C,R4*%
X137085000Y-93215050D03*
X139135000Y-93215050D03*
%TD*%
D18*
%TO.C,R2*%
X117965200Y-85609950D03*
X117965200Y-83559950D03*
%TD*%
D28*
%TO.C,J1*%
X145730000Y-118615050D03*
D29*
X145730000Y-116615050D03*
%TD*%
M02*
